<?xml version="1.0" encoding="utf-8" standalone="no"?>
<!DOCTYPE svg PUBLIC "-//W3C//DTD SVG 1.1//EN"
  "http://www.w3.org/Graphics/SVG/1.1/DTD/svg11.dtd">
<svg xmlns:xlink="http://www.w3.org/1999/xlink" width="460.8pt" height="345.6pt" viewBox="0 0 460.8 345.6" xmlns="http://www.w3.org/2000/svg" version="1.1">
 <metadata>
  <rdf:RDF xmlns:dc="http://purl.org/dc/elements/1.1/" xmlns:cc="http://creativecommons.org/ns#" xmlns:rdf="http://www.w3.org/1999/02/22-rdf-syntax-ns#">
   <cc:Work>
    <dc:type rdf:resource="http://purl.org/dc/dcmitype/StillImage"/>
    <dc:date>2024-10-10T13:14:02.360195</dc:date>
    <dc:format>image/svg+xml</dc:format>
    <dc:creator>
     <cc:Agent>
      <dc:title>Matplotlib v3.9.0, https://matplotlib.org/</dc:title>
     </cc:Agent>
    </dc:creator>
   </cc:Work>
  </rdf:RDF>
 </metadata>
 <defs>
  <style type="text/css">*{stroke-linejoin: round; stroke-linecap: butt}</style>
 </defs>
 <g id="figure_1">
  <g id="axes_1">
   <g id="patch_1">
    <path d="M 46.220313 304.44375 
L 450 304.44375 
L 450 10.8 
L 46.220313 10.8 
L 46.220313 304.44375 
z
" style="fill: none"/>
   </g>
   <g id="matplotlib.axis_1">
    <g id="xtick_1">
     <g id="line2d_1">
      <defs>
       <path id="m8925da1e7f" d="M 0 0 
L 0 3.5 
" style="stroke: #000000; stroke-width: 0.8"/>
      </defs>
      <g>
       <use xlink:href="#m8925da1e7f" x="89.045431" y="304.44375" style="stroke: #000000; stroke-width: 0.8"/>
      </g>
     </g>
     <g id="text_1">
      <!-- 1800 -->
      <g transform="translate(76.320431 319.042187) scale(0.1 -0.1)">
       <defs>
        <path id="DejaVuSans-31" d="M 794 531 
L 1825 531 
L 1825 4091 
L 703 3866 
L 703 4441 
L 1819 4666 
L 2450 4666 
L 2450 531 
L 3481 531 
L 3481 0 
L 794 0 
L 794 531 
z
" transform="scale(0.015625)"/>
        <path id="DejaVuSans-38" d="M 2034 2216 
Q 1584 2216 1326 1975 
Q 1069 1734 1069 1313 
Q 1069 891 1326 650 
Q 1584 409 2034 409 
Q 2484 409 2743 651 
Q 3003 894 3003 1313 
Q 3003 1734 2745 1975 
Q 2488 2216 2034 2216 
z
M 1403 2484 
Q 997 2584 770 2862 
Q 544 3141 544 3541 
Q 544 4100 942 4425 
Q 1341 4750 2034 4750 
Q 2731 4750 3128 4425 
Q 3525 4100 3525 3541 
Q 3525 3141 3298 2862 
Q 3072 2584 2669 2484 
Q 3125 2378 3379 2068 
Q 3634 1759 3634 1313 
Q 3634 634 3220 271 
Q 2806 -91 2034 -91 
Q 1263 -91 848 271 
Q 434 634 434 1313 
Q 434 1759 690 2068 
Q 947 2378 1403 2484 
z
M 1172 3481 
Q 1172 3119 1398 2916 
Q 1625 2713 2034 2713 
Q 2441 2713 2670 2916 
Q 2900 3119 2900 3481 
Q 2900 3844 2670 4047 
Q 2441 4250 2034 4250 
Q 1625 4250 1398 4047 
Q 1172 3844 1172 3481 
z
" transform="scale(0.015625)"/>
        <path id="DejaVuSans-30" d="M 2034 4250 
Q 1547 4250 1301 3770 
Q 1056 3291 1056 2328 
Q 1056 1369 1301 889 
Q 1547 409 2034 409 
Q 2525 409 2770 889 
Q 3016 1369 3016 2328 
Q 3016 3291 2770 3770 
Q 2525 4250 2034 4250 
z
M 2034 4750 
Q 2819 4750 3233 4129 
Q 3647 3509 3647 2328 
Q 3647 1150 3233 529 
Q 2819 -91 2034 -91 
Q 1250 -91 836 529 
Q 422 1150 422 2328 
Q 422 3509 836 4129 
Q 1250 4750 2034 4750 
z
" transform="scale(0.015625)"/>
       </defs>
       <use xlink:href="#DejaVuSans-31"/>
       <use xlink:href="#DejaVuSans-38" x="63.623047"/>
       <use xlink:href="#DejaVuSans-30" x="127.246094"/>
       <use xlink:href="#DejaVuSans-30" x="190.869141"/>
      </g>
     </g>
    </g>
    <g id="xtick_2">
     <g id="line2d_2">
      <g>
       <use xlink:href="#m8925da1e7f" x="137.988423" y="304.44375" style="stroke: #000000; stroke-width: 0.8"/>
      </g>
     </g>
     <g id="text_2">
      <!-- 1900 -->
      <g transform="translate(125.263423 319.042187) scale(0.1 -0.1)">
       <defs>
        <path id="DejaVuSans-39" d="M 703 97 
L 703 672 
Q 941 559 1184 500 
Q 1428 441 1663 441 
Q 2288 441 2617 861 
Q 2947 1281 2994 2138 
Q 2813 1869 2534 1725 
Q 2256 1581 1919 1581 
Q 1219 1581 811 2004 
Q 403 2428 403 3163 
Q 403 3881 828 4315 
Q 1253 4750 1959 4750 
Q 2769 4750 3195 4129 
Q 3622 3509 3622 2328 
Q 3622 1225 3098 567 
Q 2575 -91 1691 -91 
Q 1453 -91 1209 -44 
Q 966 3 703 97 
z
M 1959 2075 
Q 2384 2075 2632 2365 
Q 2881 2656 2881 3163 
Q 2881 3666 2632 3958 
Q 2384 4250 1959 4250 
Q 1534 4250 1286 3958 
Q 1038 3666 1038 3163 
Q 1038 2656 1286 2365 
Q 1534 2075 1959 2075 
z
" transform="scale(0.015625)"/>
       </defs>
       <use xlink:href="#DejaVuSans-31"/>
       <use xlink:href="#DejaVuSans-39" x="63.623047"/>
       <use xlink:href="#DejaVuSans-30" x="127.246094"/>
       <use xlink:href="#DejaVuSans-30" x="190.869141"/>
      </g>
     </g>
    </g>
    <g id="xtick_3">
     <g id="line2d_3">
      <g>
       <use xlink:href="#m8925da1e7f" x="186.931416" y="304.44375" style="stroke: #000000; stroke-width: 0.8"/>
      </g>
     </g>
     <g id="text_3">
      <!-- 2000 -->
      <g transform="translate(174.206416 319.042187) scale(0.1 -0.1)">
       <defs>
        <path id="DejaVuSans-32" d="M 1228 531 
L 3431 531 
L 3431 0 
L 469 0 
L 469 531 
Q 828 903 1448 1529 
Q 2069 2156 2228 2338 
Q 2531 2678 2651 2914 
Q 2772 3150 2772 3378 
Q 2772 3750 2511 3984 
Q 2250 4219 1831 4219 
Q 1534 4219 1204 4116 
Q 875 4013 500 3803 
L 500 4441 
Q 881 4594 1212 4672 
Q 1544 4750 1819 4750 
Q 2544 4750 2975 4387 
Q 3406 4025 3406 3419 
Q 3406 3131 3298 2873 
Q 3191 2616 2906 2266 
Q 2828 2175 2409 1742 
Q 1991 1309 1228 531 
z
" transform="scale(0.015625)"/>
       </defs>
       <use xlink:href="#DejaVuSans-32"/>
       <use xlink:href="#DejaVuSans-30" x="63.623047"/>
       <use xlink:href="#DejaVuSans-30" x="127.246094"/>
       <use xlink:href="#DejaVuSans-30" x="190.869141"/>
      </g>
     </g>
    </g>
    <g id="xtick_4">
     <g id="line2d_4">
      <g>
       <use xlink:href="#m8925da1e7f" x="235.874408" y="304.44375" style="stroke: #000000; stroke-width: 0.8"/>
      </g>
     </g>
     <g id="text_4">
      <!-- 2100 -->
      <g transform="translate(223.149408 319.042187) scale(0.1 -0.1)">
       <use xlink:href="#DejaVuSans-32"/>
       <use xlink:href="#DejaVuSans-31" x="63.623047"/>
       <use xlink:href="#DejaVuSans-30" x="127.246094"/>
       <use xlink:href="#DejaVuSans-30" x="190.869141"/>
      </g>
     </g>
    </g>
    <g id="xtick_5">
     <g id="line2d_5">
      <g>
       <use xlink:href="#m8925da1e7f" x="284.817401" y="304.44375" style="stroke: #000000; stroke-width: 0.8"/>
      </g>
     </g>
     <g id="text_5">
      <!-- 2200 -->
      <g transform="translate(272.092401 319.042187) scale(0.1 -0.1)">
       <use xlink:href="#DejaVuSans-32"/>
       <use xlink:href="#DejaVuSans-32" x="63.623047"/>
       <use xlink:href="#DejaVuSans-30" x="127.246094"/>
       <use xlink:href="#DejaVuSans-30" x="190.869141"/>
      </g>
     </g>
    </g>
    <g id="xtick_6">
     <g id="line2d_6">
      <g>
       <use xlink:href="#m8925da1e7f" x="333.760393" y="304.44375" style="stroke: #000000; stroke-width: 0.8"/>
      </g>
     </g>
     <g id="text_6">
      <!-- 2300 -->
      <g transform="translate(321.035393 319.042187) scale(0.1 -0.1)">
       <defs>
        <path id="DejaVuSans-33" d="M 2597 2516 
Q 3050 2419 3304 2112 
Q 3559 1806 3559 1356 
Q 3559 666 3084 287 
Q 2609 -91 1734 -91 
Q 1441 -91 1130 -33 
Q 819 25 488 141 
L 488 750 
Q 750 597 1062 519 
Q 1375 441 1716 441 
Q 2309 441 2620 675 
Q 2931 909 2931 1356 
Q 2931 1769 2642 2001 
Q 2353 2234 1838 2234 
L 1294 2234 
L 1294 2753 
L 1863 2753 
Q 2328 2753 2575 2939 
Q 2822 3125 2822 3475 
Q 2822 3834 2567 4026 
Q 2313 4219 1838 4219 
Q 1578 4219 1281 4162 
Q 984 4106 628 3988 
L 628 4550 
Q 988 4650 1302 4700 
Q 1616 4750 1894 4750 
Q 2613 4750 3031 4423 
Q 3450 4097 3450 3541 
Q 3450 3153 3228 2886 
Q 3006 2619 2597 2516 
z
" transform="scale(0.015625)"/>
       </defs>
       <use xlink:href="#DejaVuSans-32"/>
       <use xlink:href="#DejaVuSans-33" x="63.623047"/>
       <use xlink:href="#DejaVuSans-30" x="127.246094"/>
       <use xlink:href="#DejaVuSans-30" x="190.869141"/>
      </g>
     </g>
    </g>
    <g id="xtick_7">
     <g id="line2d_7">
      <g>
       <use xlink:href="#m8925da1e7f" x="382.703385" y="304.44375" style="stroke: #000000; stroke-width: 0.8"/>
      </g>
     </g>
     <g id="text_7">
      <!-- 2400 -->
      <g transform="translate(369.978385 319.042187) scale(0.1 -0.1)">
       <defs>
        <path id="DejaVuSans-34" d="M 2419 4116 
L 825 1625 
L 2419 1625 
L 2419 4116 
z
M 2253 4666 
L 3047 4666 
L 3047 1625 
L 3713 1625 
L 3713 1100 
L 3047 1100 
L 3047 0 
L 2419 0 
L 2419 1100 
L 313 1100 
L 313 1709 
L 2253 4666 
z
" transform="scale(0.015625)"/>
       </defs>
       <use xlink:href="#DejaVuSans-32"/>
       <use xlink:href="#DejaVuSans-34" x="63.623047"/>
       <use xlink:href="#DejaVuSans-30" x="127.246094"/>
       <use xlink:href="#DejaVuSans-30" x="190.869141"/>
      </g>
     </g>
    </g>
    <g id="xtick_8">
     <g id="line2d_8">
      <g>
       <use xlink:href="#m8925da1e7f" x="431.646378" y="304.44375" style="stroke: #000000; stroke-width: 0.8"/>
      </g>
     </g>
     <g id="text_8">
      <!-- 2500 -->
      <g transform="translate(418.921378 319.042187) scale(0.1 -0.1)">
       <defs>
        <path id="DejaVuSans-35" d="M 691 4666 
L 3169 4666 
L 3169 4134 
L 1269 4134 
L 1269 2991 
Q 1406 3038 1543 3061 
Q 1681 3084 1819 3084 
Q 2600 3084 3056 2656 
Q 3513 2228 3513 1497 
Q 3513 744 3044 326 
Q 2575 -91 1722 -91 
Q 1428 -91 1123 -41 
Q 819 9 494 109 
L 494 744 
Q 775 591 1075 516 
Q 1375 441 1709 441 
Q 2250 441 2565 725 
Q 2881 1009 2881 1497 
Q 2881 1984 2565 2268 
Q 2250 2553 1709 2553 
Q 1456 2553 1204 2497 
Q 953 2441 691 2322 
L 691 4666 
z
" transform="scale(0.015625)"/>
       </defs>
       <use xlink:href="#DejaVuSans-32"/>
       <use xlink:href="#DejaVuSans-35" x="63.623047"/>
       <use xlink:href="#DejaVuSans-30" x="127.246094"/>
       <use xlink:href="#DejaVuSans-30" x="190.869141"/>
      </g>
     </g>
    </g>
    <g id="text_9">
     <!-- Year -->
     <g transform="translate(237.522656 332.720312) scale(0.1 -0.1)">
      <defs>
       <path id="DejaVuSans-59" d="M -13 4666 
L 666 4666 
L 1959 2747 
L 3244 4666 
L 3922 4666 
L 2272 2222 
L 2272 0 
L 1638 0 
L 1638 2222 
L -13 4666 
z
" transform="scale(0.015625)"/>
       <path id="DejaVuSans-65" d="M 3597 1894 
L 3597 1613 
L 953 1613 
Q 991 1019 1311 708 
Q 1631 397 2203 397 
Q 2534 397 2845 478 
Q 3156 559 3463 722 
L 3463 178 
Q 3153 47 2828 -22 
Q 2503 -91 2169 -91 
Q 1331 -91 842 396 
Q 353 884 353 1716 
Q 353 2575 817 3079 
Q 1281 3584 2069 3584 
Q 2775 3584 3186 3129 
Q 3597 2675 3597 1894 
z
M 3022 2063 
Q 3016 2534 2758 2815 
Q 2500 3097 2075 3097 
Q 1594 3097 1305 2825 
Q 1016 2553 972 2059 
L 3022 2063 
z
" transform="scale(0.015625)"/>
       <path id="DejaVuSans-61" d="M 2194 1759 
Q 1497 1759 1228 1600 
Q 959 1441 959 1056 
Q 959 750 1161 570 
Q 1363 391 1709 391 
Q 2188 391 2477 730 
Q 2766 1069 2766 1631 
L 2766 1759 
L 2194 1759 
z
M 3341 1997 
L 3341 0 
L 2766 0 
L 2766 531 
Q 2569 213 2275 61 
Q 1981 -91 1556 -91 
Q 1019 -91 701 211 
Q 384 513 384 1019 
Q 384 1609 779 1909 
Q 1175 2209 1959 2209 
L 2766 2209 
L 2766 2266 
Q 2766 2663 2505 2880 
Q 2244 3097 1772 3097 
Q 1472 3097 1187 3025 
Q 903 2953 641 2809 
L 641 3341 
Q 956 3463 1253 3523 
Q 1550 3584 1831 3584 
Q 2591 3584 2966 3190 
Q 3341 2797 3341 1997 
z
" transform="scale(0.015625)"/>
       <path id="DejaVuSans-72" d="M 2631 2963 
Q 2534 3019 2420 3045 
Q 2306 3072 2169 3072 
Q 1681 3072 1420 2755 
Q 1159 2438 1159 1844 
L 1159 0 
L 581 0 
L 581 3500 
L 1159 3500 
L 1159 2956 
Q 1341 3275 1631 3429 
Q 1922 3584 2338 3584 
Q 2397 3584 2469 3576 
Q 2541 3569 2628 3553 
L 2631 2963 
z
" transform="scale(0.015625)"/>
      </defs>
      <use xlink:href="#DejaVuSans-59"/>
      <use xlink:href="#DejaVuSans-65" x="47.833984"/>
      <use xlink:href="#DejaVuSans-61" x="109.357422"/>
      <use xlink:href="#DejaVuSans-72" x="170.636719"/>
     </g>
    </g>
   </g>
   <g id="matplotlib.axis_2">
    <g id="ytick_1">
     <g id="line2d_9">
      <defs>
       <path id="m2fcda82279" d="M 0 0 
L -3.5 0 
" style="stroke: #000000; stroke-width: 0.8"/>
      </defs>
      <g>
       <use xlink:href="#m2fcda82279" x="46.220313" y="271.131522" style="stroke: #000000; stroke-width: 0.8"/>
      </g>
     </g>
     <g id="text_10">
      <!-- −4 -->
      <g transform="translate(24.478125 274.930741) scale(0.1 -0.1)">
       <defs>
        <path id="DejaVuSans-2212" d="M 678 2272 
L 4684 2272 
L 4684 1741 
L 678 1741 
L 678 2272 
z
" transform="scale(0.015625)"/>
       </defs>
       <use xlink:href="#DejaVuSans-2212"/>
       <use xlink:href="#DejaVuSans-34" x="83.789062"/>
      </g>
     </g>
    </g>
    <g id="ytick_2">
     <g id="line2d_10">
      <g>
       <use xlink:href="#m2fcda82279" x="46.220313" y="213.735769" style="stroke: #000000; stroke-width: 0.8"/>
      </g>
     </g>
     <g id="text_11">
      <!-- −3 -->
      <g transform="translate(24.478125 217.534987) scale(0.1 -0.1)">
       <use xlink:href="#DejaVuSans-2212"/>
       <use xlink:href="#DejaVuSans-33" x="83.789062"/>
      </g>
     </g>
    </g>
    <g id="ytick_3">
     <g id="line2d_11">
      <g>
       <use xlink:href="#m2fcda82279" x="46.220313" y="156.340015" style="stroke: #000000; stroke-width: 0.8"/>
      </g>
     </g>
     <g id="text_12">
      <!-- −2 -->
      <g transform="translate(24.478125 160.139234) scale(0.1 -0.1)">
       <use xlink:href="#DejaVuSans-2212"/>
       <use xlink:href="#DejaVuSans-32" x="83.789062"/>
      </g>
     </g>
    </g>
    <g id="ytick_4">
     <g id="line2d_12">
      <g>
       <use xlink:href="#m2fcda82279" x="46.220313" y="98.944261" style="stroke: #000000; stroke-width: 0.8"/>
      </g>
     </g>
     <g id="text_13">
      <!-- −1 -->
      <g transform="translate(24.478125 102.74348) scale(0.1 -0.1)">
       <use xlink:href="#DejaVuSans-2212"/>
       <use xlink:href="#DejaVuSans-31" x="83.789062"/>
      </g>
     </g>
    </g>
    <g id="ytick_5">
     <g id="line2d_13">
      <g>
       <use xlink:href="#m2fcda82279" x="46.220313" y="41.548507" style="stroke: #000000; stroke-width: 0.8"/>
      </g>
     </g>
     <g id="text_14">
      <!-- 0 -->
      <g transform="translate(32.857813 45.347726) scale(0.1 -0.1)">
       <use xlink:href="#DejaVuSans-30"/>
      </g>
     </g>
    </g>
    <g id="text_15">
     <!-- NATURAL effective radiative forcing (W m-2) -->
     <g transform="translate(18.398438 268.41875) rotate(-90) scale(0.1 -0.1)">
      <defs>
       <path id="DejaVuSans-4e" d="M 628 4666 
L 1478 4666 
L 3547 763 
L 3547 4666 
L 4159 4666 
L 4159 0 
L 3309 0 
L 1241 3903 
L 1241 0 
L 628 0 
L 628 4666 
z
" transform="scale(0.015625)"/>
       <path id="DejaVuSans-41" d="M 2188 4044 
L 1331 1722 
L 3047 1722 
L 2188 4044 
z
M 1831 4666 
L 2547 4666 
L 4325 0 
L 3669 0 
L 3244 1197 
L 1141 1197 
L 716 0 
L 50 0 
L 1831 4666 
z
" transform="scale(0.015625)"/>
       <path id="DejaVuSans-54" d="M -19 4666 
L 3928 4666 
L 3928 4134 
L 2272 4134 
L 2272 0 
L 1638 0 
L 1638 4134 
L -19 4134 
L -19 4666 
z
" transform="scale(0.015625)"/>
       <path id="DejaVuSans-55" d="M 556 4666 
L 1191 4666 
L 1191 1831 
Q 1191 1081 1462 751 
Q 1734 422 2344 422 
Q 2950 422 3222 751 
Q 3494 1081 3494 1831 
L 3494 4666 
L 4128 4666 
L 4128 1753 
Q 4128 841 3676 375 
Q 3225 -91 2344 -91 
Q 1459 -91 1007 375 
Q 556 841 556 1753 
L 556 4666 
z
" transform="scale(0.015625)"/>
       <path id="DejaVuSans-52" d="M 2841 2188 
Q 3044 2119 3236 1894 
Q 3428 1669 3622 1275 
L 4263 0 
L 3584 0 
L 2988 1197 
Q 2756 1666 2539 1819 
Q 2322 1972 1947 1972 
L 1259 1972 
L 1259 0 
L 628 0 
L 628 4666 
L 2053 4666 
Q 2853 4666 3247 4331 
Q 3641 3997 3641 3322 
Q 3641 2881 3436 2590 
Q 3231 2300 2841 2188 
z
M 1259 4147 
L 1259 2491 
L 2053 2491 
Q 2509 2491 2742 2702 
Q 2975 2913 2975 3322 
Q 2975 3731 2742 3939 
Q 2509 4147 2053 4147 
L 1259 4147 
z
" transform="scale(0.015625)"/>
       <path id="DejaVuSans-4c" d="M 628 4666 
L 1259 4666 
L 1259 531 
L 3531 531 
L 3531 0 
L 628 0 
L 628 4666 
z
" transform="scale(0.015625)"/>
       <path id="DejaVuSans-20" transform="scale(0.015625)"/>
       <path id="DejaVuSans-66" d="M 2375 4863 
L 2375 4384 
L 1825 4384 
Q 1516 4384 1395 4259 
Q 1275 4134 1275 3809 
L 1275 3500 
L 2222 3500 
L 2222 3053 
L 1275 3053 
L 1275 0 
L 697 0 
L 697 3053 
L 147 3053 
L 147 3500 
L 697 3500 
L 697 3744 
Q 697 4328 969 4595 
Q 1241 4863 1831 4863 
L 2375 4863 
z
" transform="scale(0.015625)"/>
       <path id="DejaVuSans-63" d="M 3122 3366 
L 3122 2828 
Q 2878 2963 2633 3030 
Q 2388 3097 2138 3097 
Q 1578 3097 1268 2742 
Q 959 2388 959 1747 
Q 959 1106 1268 751 
Q 1578 397 2138 397 
Q 2388 397 2633 464 
Q 2878 531 3122 666 
L 3122 134 
Q 2881 22 2623 -34 
Q 2366 -91 2075 -91 
Q 1284 -91 818 406 
Q 353 903 353 1747 
Q 353 2603 823 3093 
Q 1294 3584 2113 3584 
Q 2378 3584 2631 3529 
Q 2884 3475 3122 3366 
z
" transform="scale(0.015625)"/>
       <path id="DejaVuSans-74" d="M 1172 4494 
L 1172 3500 
L 2356 3500 
L 2356 3053 
L 1172 3053 
L 1172 1153 
Q 1172 725 1289 603 
Q 1406 481 1766 481 
L 2356 481 
L 2356 0 
L 1766 0 
Q 1100 0 847 248 
Q 594 497 594 1153 
L 594 3053 
L 172 3053 
L 172 3500 
L 594 3500 
L 594 4494 
L 1172 4494 
z
" transform="scale(0.015625)"/>
       <path id="DejaVuSans-69" d="M 603 3500 
L 1178 3500 
L 1178 0 
L 603 0 
L 603 3500 
z
M 603 4863 
L 1178 4863 
L 1178 4134 
L 603 4134 
L 603 4863 
z
" transform="scale(0.015625)"/>
       <path id="DejaVuSans-76" d="M 191 3500 
L 800 3500 
L 1894 563 
L 2988 3500 
L 3597 3500 
L 2284 0 
L 1503 0 
L 191 3500 
z
" transform="scale(0.015625)"/>
       <path id="DejaVuSans-64" d="M 2906 2969 
L 2906 4863 
L 3481 4863 
L 3481 0 
L 2906 0 
L 2906 525 
Q 2725 213 2448 61 
Q 2172 -91 1784 -91 
Q 1150 -91 751 415 
Q 353 922 353 1747 
Q 353 2572 751 3078 
Q 1150 3584 1784 3584 
Q 2172 3584 2448 3432 
Q 2725 3281 2906 2969 
z
M 947 1747 
Q 947 1113 1208 752 
Q 1469 391 1925 391 
Q 2381 391 2643 752 
Q 2906 1113 2906 1747 
Q 2906 2381 2643 2742 
Q 2381 3103 1925 3103 
Q 1469 3103 1208 2742 
Q 947 2381 947 1747 
z
" transform="scale(0.015625)"/>
       <path id="DejaVuSans-6f" d="M 1959 3097 
Q 1497 3097 1228 2736 
Q 959 2375 959 1747 
Q 959 1119 1226 758 
Q 1494 397 1959 397 
Q 2419 397 2687 759 
Q 2956 1122 2956 1747 
Q 2956 2369 2687 2733 
Q 2419 3097 1959 3097 
z
M 1959 3584 
Q 2709 3584 3137 3096 
Q 3566 2609 3566 1747 
Q 3566 888 3137 398 
Q 2709 -91 1959 -91 
Q 1206 -91 779 398 
Q 353 888 353 1747 
Q 353 2609 779 3096 
Q 1206 3584 1959 3584 
z
" transform="scale(0.015625)"/>
       <path id="DejaVuSans-6e" d="M 3513 2113 
L 3513 0 
L 2938 0 
L 2938 2094 
Q 2938 2591 2744 2837 
Q 2550 3084 2163 3084 
Q 1697 3084 1428 2787 
Q 1159 2491 1159 1978 
L 1159 0 
L 581 0 
L 581 3500 
L 1159 3500 
L 1159 2956 
Q 1366 3272 1645 3428 
Q 1925 3584 2291 3584 
Q 2894 3584 3203 3211 
Q 3513 2838 3513 2113 
z
" transform="scale(0.015625)"/>
       <path id="DejaVuSans-67" d="M 2906 1791 
Q 2906 2416 2648 2759 
Q 2391 3103 1925 3103 
Q 1463 3103 1205 2759 
Q 947 2416 947 1791 
Q 947 1169 1205 825 
Q 1463 481 1925 481 
Q 2391 481 2648 825 
Q 2906 1169 2906 1791 
z
M 3481 434 
Q 3481 -459 3084 -895 
Q 2688 -1331 1869 -1331 
Q 1566 -1331 1297 -1286 
Q 1028 -1241 775 -1147 
L 775 -588 
Q 1028 -725 1275 -790 
Q 1522 -856 1778 -856 
Q 2344 -856 2625 -561 
Q 2906 -266 2906 331 
L 2906 616 
Q 2728 306 2450 153 
Q 2172 0 1784 0 
Q 1141 0 747 490 
Q 353 981 353 1791 
Q 353 2603 747 3093 
Q 1141 3584 1784 3584 
Q 2172 3584 2450 3431 
Q 2728 3278 2906 2969 
L 2906 3500 
L 3481 3500 
L 3481 434 
z
" transform="scale(0.015625)"/>
       <path id="DejaVuSans-28" d="M 1984 4856 
Q 1566 4138 1362 3434 
Q 1159 2731 1159 2009 
Q 1159 1288 1364 580 
Q 1569 -128 1984 -844 
L 1484 -844 
Q 1016 -109 783 600 
Q 550 1309 550 2009 
Q 550 2706 781 3412 
Q 1013 4119 1484 4856 
L 1984 4856 
z
" transform="scale(0.015625)"/>
       <path id="DejaVuSans-57" d="M 213 4666 
L 850 4666 
L 1831 722 
L 2809 4666 
L 3519 4666 
L 4500 722 
L 5478 4666 
L 6119 4666 
L 4947 0 
L 4153 0 
L 3169 4050 
L 2175 0 
L 1381 0 
L 213 4666 
z
" transform="scale(0.015625)"/>
       <path id="DejaVuSans-6d" d="M 3328 2828 
Q 3544 3216 3844 3400 
Q 4144 3584 4550 3584 
Q 5097 3584 5394 3201 
Q 5691 2819 5691 2113 
L 5691 0 
L 5113 0 
L 5113 2094 
Q 5113 2597 4934 2840 
Q 4756 3084 4391 3084 
Q 3944 3084 3684 2787 
Q 3425 2491 3425 1978 
L 3425 0 
L 2847 0 
L 2847 2094 
Q 2847 2600 2669 2842 
Q 2491 3084 2119 3084 
Q 1678 3084 1418 2786 
Q 1159 2488 1159 1978 
L 1159 0 
L 581 0 
L 581 3500 
L 1159 3500 
L 1159 2956 
Q 1356 3278 1631 3431 
Q 1906 3584 2284 3584 
Q 2666 3584 2933 3390 
Q 3200 3197 3328 2828 
z
" transform="scale(0.015625)"/>
       <path id="DejaVuSans-2d" d="M 313 2009 
L 1997 2009 
L 1997 1497 
L 313 1497 
L 313 2009 
z
" transform="scale(0.015625)"/>
       <path id="DejaVuSans-29" d="M 513 4856 
L 1013 4856 
Q 1481 4119 1714 3412 
Q 1947 2706 1947 2009 
Q 1947 1309 1714 600 
Q 1481 -109 1013 -844 
L 513 -844 
Q 928 -128 1133 580 
Q 1338 1288 1338 2009 
Q 1338 2731 1133 3434 
Q 928 4138 513 4856 
z
" transform="scale(0.015625)"/>
      </defs>
      <use xlink:href="#DejaVuSans-4e"/>
      <use xlink:href="#DejaVuSans-41" x="74.804688"/>
      <use xlink:href="#DejaVuSans-54" x="135.462891"/>
      <use xlink:href="#DejaVuSans-55" x="196.546875"/>
      <use xlink:href="#DejaVuSans-52" x="269.740234"/>
      <use xlink:href="#DejaVuSans-41" x="335.222656"/>
      <use xlink:href="#DejaVuSans-4c" x="403.630859"/>
      <use xlink:href="#DejaVuSans-20" x="459.34375"/>
      <use xlink:href="#DejaVuSans-65" x="491.130859"/>
      <use xlink:href="#DejaVuSans-66" x="552.654297"/>
      <use xlink:href="#DejaVuSans-66" x="587.859375"/>
      <use xlink:href="#DejaVuSans-65" x="623.064453"/>
      <use xlink:href="#DejaVuSans-63" x="684.587891"/>
      <use xlink:href="#DejaVuSans-74" x="739.568359"/>
      <use xlink:href="#DejaVuSans-69" x="778.777344"/>
      <use xlink:href="#DejaVuSans-76" x="806.560547"/>
      <use xlink:href="#DejaVuSans-65" x="865.740234"/>
      <use xlink:href="#DejaVuSans-20" x="927.263672"/>
      <use xlink:href="#DejaVuSans-72" x="959.050781"/>
      <use xlink:href="#DejaVuSans-61" x="1000.164062"/>
      <use xlink:href="#DejaVuSans-64" x="1061.443359"/>
      <use xlink:href="#DejaVuSans-69" x="1124.919922"/>
      <use xlink:href="#DejaVuSans-61" x="1152.703125"/>
      <use xlink:href="#DejaVuSans-74" x="1213.982422"/>
      <use xlink:href="#DejaVuSans-69" x="1253.191406"/>
      <use xlink:href="#DejaVuSans-76" x="1280.974609"/>
      <use xlink:href="#DejaVuSans-65" x="1340.154297"/>
      <use xlink:href="#DejaVuSans-20" x="1401.677734"/>
      <use xlink:href="#DejaVuSans-66" x="1433.464844"/>
      <use xlink:href="#DejaVuSans-6f" x="1468.669922"/>
      <use xlink:href="#DejaVuSans-72" x="1529.851562"/>
      <use xlink:href="#DejaVuSans-63" x="1568.714844"/>
      <use xlink:href="#DejaVuSans-69" x="1623.695312"/>
      <use xlink:href="#DejaVuSans-6e" x="1651.478516"/>
      <use xlink:href="#DejaVuSans-67" x="1714.857422"/>
      <use xlink:href="#DejaVuSans-20" x="1778.333984"/>
      <use xlink:href="#DejaVuSans-28" x="1810.121094"/>
      <use xlink:href="#DejaVuSans-57" x="1849.134766"/>
      <use xlink:href="#DejaVuSans-20" x="1948.011719"/>
      <use xlink:href="#DejaVuSans-6d" x="1979.798828"/>
      <use xlink:href="#DejaVuSans-2d" x="2077.210938"/>
      <use xlink:href="#DejaVuSans-32" x="2113.294922"/>
      <use xlink:href="#DejaVuSans-29" x="2176.917969"/>
     </g>
    </g>
   </g>
   <g id="line2d_14">
    <path d="M 64.573935 26.661939 
L 65.063365 27.714302 
L 66.042224 31.516812 
L 66.531654 33.492057 
L 67.021084 36.290039 
L 67.510514 49.675435 
L 68.489374 33.699578 
L 68.978804 29.202467 
L 69.468234 27.233163 
L 69.957664 27.403995 
L 70.447094 80.559801 
L 70.936524 66.407138 
L 71.425954 45.506026 
L 71.915384 38.688267 
L 72.404813 56.032559 
L 72.894243 58.234815 
L 73.383673 40.11234 
L 73.873103 30.404596 
L 74.362533 34.106799 
L 75.341393 29.270941 
L 75.830823 30.018332 
L 76.809683 33.809931 
L 77.299113 34.973549 
L 77.788543 34.738088 
L 78.277973 32.170623 
L 78.767402 28.070427 
L 79.256832 25.614576 
L 79.746262 25.623314 
L 80.235692 27.01739 
L 81.214552 242.463899 
L 81.703982 120.317937 
L 82.193412 73.473488 
L 82.682842 50.238707 
L 83.172272 35.701499 
L 83.661702 27.402358 
L 84.151132 24.593555 
L 84.640562 24.983162 
L 85.129991 25.885269 
L 86.108851 29.647156 
L 86.598281 31.816755 
L 87.087711 41.197816 
L 87.577141 48.313323 
L 88.556001 38.358291 
L 89.534861 33.288814 
L 90.024291 31.476671 
L 90.513721 30.425594 
L 91.003151 30.272651 
L 91.49258 30.755872 
L 91.98201 31.584304 
L 92.96087 33.976603 
L 93.4503 238.934792 
L 93.93973 179.332654 
L 94.42916 87.681241 
L 94.91859 53.300518 
L 95.40802 40.807931 
L 95.89745 35.707354 
L 96.38688 235.112371 
L 96.87631 291.096307 
L 97.36574 129.754472 
L 97.85517 65.659121 
L 98.344599 44.2969 
L 98.834029 37.835744 
L 99.323459 42.21272 
L 99.812889 42.577888 
L 100.302319 61.972069 
L 100.791749 47.506688 
L 101.281179 37.739999 
L 101.770609 32.965008 
L 102.260039 30.597226 
L 102.749469 29.846638 
L 103.238899 30.255802 
L 103.728329 31.351785 
L 104.217759 172.35775 
L 104.707188 130.983708 
L 105.196618 69.931025 
L 105.686048 46.818314 
L 106.175478 139.264007 
L 106.664908 101.689632 
L 107.154338 53.04114 
L 107.643768 35.292112 
L 108.133198 30.271654 
L 108.622628 29.605786 
L 109.112058 30.831594 
L 110.090918 34.278067 
L 110.580348 35.316933 
L 111.069777 35.380209 
L 111.559207 45.124968 
L 112.048637 41.18383 
L 112.538067 35.843744 
L 113.027497 33.417289 
L 113.516927 32.118087 
L 114.006357 32.226759 
L 114.495787 32.547239 
L 114.985217 42.521351 
L 115.474647 45.038338 
L 115.964077 38.235352 
L 116.453507 37.838166 
L 116.942937 47.084847 
L 117.432366 38.591688 
L 117.921796 33.915395 
L 118.411226 31.972942 
L 118.900656 35.569064 
L 119.390086 78.747781 
L 120.368946 41.580797 
L 120.858376 35.884245 
L 121.347806 34.242984 
L 121.837236 33.905788 
L 122.326666 33.14466 
L 122.816096 32.047783 
L 123.305526 31.937185 
L 123.794955 31.302161 
L 124.284385 31.709366 
L 124.773815 44.010488 
L 125.263245 37.764212 
L 126.242105 37.420641 
L 126.731535 35.415867 
L 127.220965 34.891243 
L 127.710395 34.579342 
L 128.199825 35.862513 
L 128.689255 35.000669 
L 129.178685 32.976922 
L 129.668115 62.535412 
L 130.157545 146.750464 
L 130.646974 80.253764 
L 131.136404 49.240146 
L 131.625834 46.364554 
L 132.115264 37.40713 
L 132.604694 34.572241 
L 133.094124 41.003665 
L 133.583554 49.452434 
L 134.072984 37.923636 
L 134.562414 30.736094 
L 135.051844 29.230917 
L 135.541274 30.292064 
L 136.030704 31.757019 
L 136.520134 32.698428 
L 138.477853 34.494634 
L 138.967283 40.25782 
L 139.456713 85.084467 
L 139.946143 57.665925 
L 140.435573 38.885357 
L 140.925003 31.919429 
L 141.414433 39.144894 
L 141.903863 35.020728 
L 142.393293 32.199457 
L 142.882723 32.92385 
L 143.372152 33.966297 
L 143.861582 59.597653 
L 144.351012 63.019013 
L 144.840442 43.301996 
L 145.329872 32.770484 
L 145.819302 29.495171 
L 146.308732 28.227608 
L 146.798162 28.022793 
L 147.777022 31.699266 
L 148.266452 32.812498 
L 148.755882 39.64933 
L 149.245312 37.970211 
L 149.734741 33.641672 
L 150.224171 32.44191 
L 151.203031 29.484209 
L 151.692461 31.790645 
L 152.181891 41.132685 
L 152.671321 31.279503 
L 153.160751 32.153497 
L 153.650181 41.389902 
L 154.139611 35.598577 
L 154.629041 33.103752 
L 155.118471 31.591555 
L 155.607901 28.297685 
L 156.09733 28.124495 
L 156.58676 28.739451 
L 157.07619 28.922115 
L 158.54448 32.048199 
L 159.03391 33.135965 
L 159.52334 32.85484 
L 160.01277 30.84129 
L 160.5022 29.880031 
L 160.99163 27.286631 
L 161.48106 26.410808 
L 161.97049 27.291067 
L 162.45992 29.240629 
L 162.949349 31.812689 
L 163.438779 31.946741 
L 163.928209 32.714927 
L 164.417639 32.724893 
L 164.907069 31.177035 
L 165.885929 24.553088 
L 166.375359 24.147443 
L 166.864789 25.984979 
L 167.354219 27.250539 
L 167.843649 30.198699 
L 168.333079 41.068339 
L 168.822509 83.900959 
L 169.311938 78.726905 
L 169.801368 59.753798 
L 170.290798 34.771106 
L 170.780228 44.042306 
L 171.759088 34.232464 
L 172.248518 33.888932 
L 172.737948 41.908115 
L 173.716808 32.907526 
L 174.206238 36.727598 
L 174.695668 54.373788 
L 175.185098 40.419964 
L 175.674527 33.775417 
L 176.163957 29.85386 
L 176.653387 27.819379 
L 177.142817 30.446128 
L 177.632247 32.22023 
L 178.121677 48.032275 
L 178.611107 78.050481 
L 179.100537 55.223961 
L 179.589967 43.746585 
L 180.079397 42.960791 
L 180.568827 38.759999 
L 181.547687 28.008321 
L 182.037116 28.769124 
L 182.526546 60.757496 
L 183.015976 134.770615 
L 183.994836 47.313721 
L 184.484266 38.068613 
L 185.952556 30.211571 
L 186.441986 28.107571 
L 186.931416 26.589918 
L 187.420846 27.410734 
L 187.910276 26.781227 
L 188.399705 30.956477 
L 188.889135 32.106284 
L 189.378565 34.893079 
L 189.867995 36.687268 
L 190.357425 37.527999 
L 190.846855 36.98979 
L 191.336285 38.519686 
L 191.825715 35.451529 
L 192.315145 35.139443 
L 192.804575 32.61481 
L 193.294005 31.049933 
L 193.783435 31.509237 
L 194.762295 36.941545 
L 195.251724 38.310847 
L 196.230584 40.185505 
L 196.720014 40.689072 
L 197.698874 37.910772 
L 198.188304 37.416554 
L 198.677734 37.710546 
L 199.656594 40.409877 
L 200.146024 41.869889 
L 200.635454 42.455862 
L 201.124884 43.430334 
L 202.103743 44.464128 
L 202.593173 44.349867 
L 203.082603 43.097167 
L 203.572033 40.90006 
L 204.061463 40.638108 
L 204.550893 39.658558 
L 205.040323 40.642026 
L 205.529753 40.681426 
L 206.998043 44.578835 
L 207.487473 44.898621 
L 207.976902 44.745489 
L 208.466332 44.032915 
L 208.955762 41.958743 
L 209.934622 38.973526 
L 210.424052 38.822324 
L 210.913482 40.101435 
L 211.402912 42.082832 
L 212.381772 43.959234 
L 212.871202 44.604177 
L 213.360632 44.357 
L 214.339491 41.670571 
L 214.828921 41.626456 
L 215.807781 41.195118 
L 216.786641 43.477396 
L 217.276071 44.338429 
L 217.765501 44.642895 
L 218.254931 44.755459 
L 218.744361 44.386369 
L 219.723221 41.280709 
L 220.212651 40.468684 
L 220.70208 40.798104 
L 221.19151 41.704109 
L 221.68094 42.996253 
L 223.14923 44.766262 
L 224.12809 45.32043 
L 224.61752 44.955414 
L 226.08581 42.035493 
L 226.57524 41.934432 
L 227.06467 41.996642 
L 227.554099 42.824028 
L 228.043529 43.207268 
L 228.532959 44.449696 
L 229.022389 45.135484 
L 229.511819 45.191233 
L 230.001249 45.094178 
L 230.490679 44.136232 
L 230.980109 42.544602 
L 231.469539 41.372946 
L 231.958969 39.850929 
L 232.448399 40.480085 
L 233.427259 42.772607 
L 233.916688 43.958557 
L 234.895548 44.739763 
L 235.384978 44.194144 
L 236.363838 41.453611 
L 237.342698 41.594288 
L 237.832128 42.234978 
L 238.321558 43.453514 
L 239.300418 44.718087 
L 239.789848 44.778427 
L 240.279277 44.410092 
L 240.768707 43.222629 
L 241.258137 40.741188 
L 242.236997 40.485918 
L 242.726427 41.912295 
L 243.215857 42.332734 
L 243.705287 43.547682 
L 244.194717 44.183811 
L 244.684147 44.592863 
L 245.173577 44.578933 
L 245.663007 43.443989 
L 246.641866 39.801518 
L 247.131296 40.882687 
L 247.620726 40.630041 
L 248.599586 43.515371 
L 249.578446 44.755902 
L 250.067876 44.610329 
L 250.557306 43.468614 
L 251.046736 40.511345 
L 252.025596 39.489087 
L 252.515026 40.458887 
L 253.493885 43.675706 
L 254.472745 44.740426 
L 254.962175 44.99517 
L 255.451605 44.804607 
L 256.430465 42.396669 
L 257.409325 41.95818 
L 257.898755 42.163205 
L 258.388185 43.222058 
L 258.877615 43.342153 
L 259.367045 44.056499 
L 259.856474 44.442284 
L 260.345904 44.622176 
L 260.835334 44.595198 
L 261.324764 43.551587 
L 261.814194 41.543591 
L 262.303624 40.013003 
L 262.793054 40.072414 
L 263.282484 40.356563 
L 263.771914 41.3041 
L 264.750774 43.799191 
L 265.240204 44.409955 
L 265.729634 44.342085 
L 266.219063 43.312474 
L 267.197923 39.229179 
L 267.687353 39.86428 
L 268.176783 39.556407 
L 268.666213 41.495685 
L 269.155643 42.87869 
L 269.645073 43.866999 
L 270.134503 44.427477 
L 270.623933 44.574829 
L 271.113363 43.985262 
L 271.602793 42.198909 
L 272.581652 40.227509 
L 273.071082 40.186482 
L 273.560512 41.119516 
L 274.049942 42.456732 
L 275.518232 44.693945 
L 276.007662 45.16558 
L 276.497092 45.354827 
L 276.986522 45.138823 
L 277.475952 44.331031 
L 277.965382 42.437394 
L 278.454812 42.13088 
L 279.433671 41.186281 
L 280.412531 43.626949 
L 280.901961 44.370383 
L 281.391391 44.623679 
L 281.880821 44.734656 
L 282.370251 44.251597 
L 283.349111 40.76478 
L 283.838541 39.753666 
L 284.327971 40.184809 
L 284.817401 41.020997 
L 285.30683 42.481865 
L 286.77512 44.350471 
L 287.75398 44.989001 
L 288.24341 44.639539 
L 289.7117 41.535397 
L 290.20113 41.52832 
L 290.69056 41.640895 
L 291.17999 42.528929 
L 291.66942 43.023648 
L 292.158849 44.345612 
L 292.648279 45.0991 
L 293.137709 45.16493 
L 293.627139 45.028899 
L 294.116569 44.005463 
L 294.605999 42.420844 
L 295.095429 41.234415 
L 295.584859 39.516455 
L 296.074289 40.253792 
L 297.542579 44.006425 
L 298.032009 44.353009 
L 298.521438 44.915789 
L 299.010868 44.313657 
L 299.500298 42.872432 
L 299.989728 41.914935 
L 300.479158 41.685626 
L 300.968588 41.135211 
L 301.947448 42.427319 
L 302.436878 43.774311 
L 302.926308 44.31027 
L 303.415738 44.653274 
L 303.905168 44.573502 
L 304.394598 43.848439 
L 305.373457 40.504008 
L 305.862887 40.295891 
L 306.352317 40.509142 
L 307.331177 42.900403 
L 307.820607 43.414766 
L 308.310037 44.230822 
L 309.288897 45.109221 
L 309.778327 45.158201 
L 310.267757 44.590548 
L 311.246616 42.042821 
L 311.736046 41.822484 
L 312.225476 41.479059 
L 312.714906 41.725815 
L 313.204336 42.616637 
L 313.693766 43.244899 
L 314.183196 44.462231 
L 314.672626 45.053693 
L 315.162056 45.013876 
L 315.651486 44.778575 
L 316.140916 43.563244 
L 316.630346 41.851596 
L 317.609205 39.32704 
L 319.077495 43.029211 
L 320.056355 44.629229 
L 320.545785 44.639799 
L 321.035215 43.707982 
L 321.524645 42.356702 
L 322.014075 41.377014 
L 322.503505 41.399901 
L 322.992935 41.609012 
L 323.482365 42.344576 
L 323.971795 43.665301 
L 324.461224 44.356269 
L 324.950654 44.622359 
L 325.440084 44.758295 
L 325.929514 44.096971 
L 326.908374 40.753743 
L 327.397804 40.186448 
L 327.887234 40.236955 
L 328.376664 42.182328 
L 328.866094 42.633017 
L 329.844954 44.556828 
L 330.334384 45.051076 
L 330.823813 44.670402 
L 332.292103 40.394005 
L 332.781533 40.356813 
L 333.270963 41.45209 
L 334.249823 41.548507 
L 431.646378 41.548507 
L 431.646378 41.548507 
" clip-path="url(#p536ff83dbc)" style="fill: none; stroke: #1f77b4; stroke-width: 1.5; stroke-linecap: square"/>
   </g>
   <g id="line2d_15">
    <path d="M 64.573935 26.661939 
L 65.063365 27.714302 
L 66.042224 31.516812 
L 66.531654 33.492057 
L 67.021084 36.290039 
L 67.510514 49.675435 
L 68.489374 33.699578 
L 68.978804 29.202467 
L 69.468234 27.233163 
L 69.957664 27.403995 
L 70.447094 80.559801 
L 70.936524 66.407138 
L 71.425954 45.506026 
L 71.915384 38.688267 
L 72.404813 56.032559 
L 72.894243 58.234815 
L 73.383673 40.11234 
L 73.873103 30.404596 
L 74.362533 34.106799 
L 75.341393 29.270941 
L 75.830823 30.018332 
L 76.809683 33.809931 
L 77.299113 34.973549 
L 77.788543 34.738088 
L 78.277973 32.170623 
L 78.767402 28.070427 
L 79.256832 25.614576 
L 79.746262 25.623314 
L 80.235692 27.01739 
L 81.214552 242.463899 
L 81.703982 120.317937 
L 82.193412 73.473488 
L 82.682842 50.238707 
L 83.172272 35.701499 
L 83.661702 27.402358 
L 84.151132 24.593555 
L 84.640562 24.983162 
L 85.129991 25.885269 
L 86.108851 29.647156 
L 86.598281 31.816755 
L 87.087711 41.197816 
L 87.577141 48.313323 
L 88.556001 38.358291 
L 89.534861 33.288814 
L 90.024291 31.476671 
L 90.513721 30.425594 
L 91.003151 30.272651 
L 91.49258 30.755872 
L 91.98201 31.584304 
L 92.96087 33.976603 
L 93.4503 238.934792 
L 93.93973 179.332654 
L 94.42916 87.681241 
L 94.91859 53.300518 
L 95.40802 40.807931 
L 95.89745 35.707354 
L 96.38688 235.112371 
L 96.87631 291.096307 
L 97.36574 129.754472 
L 97.85517 65.659121 
L 98.344599 44.2969 
L 98.834029 37.835744 
L 99.323459 42.21272 
L 99.812889 42.577888 
L 100.302319 61.972069 
L 100.791749 47.506688 
L 101.281179 37.739999 
L 101.770609 32.965008 
L 102.260039 30.597226 
L 102.749469 29.846638 
L 103.238899 30.255802 
L 103.728329 31.351785 
L 104.217759 172.35775 
L 104.707188 130.983708 
L 105.196618 69.931025 
L 105.686048 46.818314 
L 106.175478 139.264007 
L 106.664908 101.689632 
L 107.154338 53.04114 
L 107.643768 35.292112 
L 108.133198 30.271654 
L 108.622628 29.605786 
L 109.112058 30.831594 
L 110.090918 34.278067 
L 110.580348 35.316933 
L 111.069777 35.380209 
L 111.559207 45.124968 
L 112.048637 41.18383 
L 112.538067 35.843744 
L 113.027497 33.417289 
L 113.516927 32.118087 
L 114.006357 32.226759 
L 114.495787 32.547239 
L 114.985217 42.521351 
L 115.474647 45.038338 
L 115.964077 38.235352 
L 116.453507 37.838166 
L 116.942937 47.084847 
L 117.432366 38.591688 
L 117.921796 33.915395 
L 118.411226 31.972942 
L 118.900656 35.569064 
L 119.390086 78.747781 
L 120.368946 41.580797 
L 120.858376 35.884245 
L 121.347806 34.242984 
L 121.837236 33.905788 
L 122.326666 33.14466 
L 122.816096 32.047783 
L 123.305526 31.937185 
L 123.794955 31.302161 
L 124.284385 31.709366 
L 124.773815 44.010488 
L 125.263245 37.764212 
L 126.242105 37.420641 
L 126.731535 35.415867 
L 127.220965 34.891243 
L 127.710395 34.579342 
L 128.199825 35.862513 
L 128.689255 35.000669 
L 129.178685 32.976922 
L 129.668115 62.535412 
L 130.157545 146.750464 
L 130.646974 80.253764 
L 131.136404 49.240146 
L 131.625834 46.364554 
L 132.115264 37.40713 
L 132.604694 34.572241 
L 133.094124 41.003665 
L 133.583554 49.452434 
L 134.072984 37.923636 
L 134.562414 30.736094 
L 135.051844 29.230917 
L 135.541274 30.292064 
L 136.030704 31.757019 
L 136.520134 32.698428 
L 138.477853 34.494634 
L 138.967283 40.25782 
L 139.456713 85.084467 
L 139.946143 57.665925 
L 140.435573 38.885357 
L 140.925003 31.919429 
L 141.414433 39.144894 
L 141.903863 35.020728 
L 142.393293 32.199457 
L 142.882723 32.92385 
L 143.372152 33.966297 
L 143.861582 59.597653 
L 144.351012 63.019013 
L 144.840442 43.301996 
L 145.329872 32.770484 
L 145.819302 29.495171 
L 146.308732 28.227608 
L 146.798162 28.022793 
L 147.777022 31.699266 
L 148.266452 32.812498 
L 148.755882 39.64933 
L 149.245312 37.970211 
L 149.734741 33.641672 
L 150.224171 32.44191 
L 151.203031 29.484209 
L 151.692461 31.790645 
L 152.181891 41.132685 
L 152.671321 31.279503 
L 153.160751 32.153497 
L 153.650181 41.389902 
L 154.139611 35.598577 
L 154.629041 33.103752 
L 155.118471 31.591555 
L 155.607901 28.297685 
L 156.09733 28.124495 
L 156.58676 28.739451 
L 157.07619 28.922115 
L 158.54448 32.048199 
L 159.03391 33.135965 
L 159.52334 32.85484 
L 160.01277 30.84129 
L 160.5022 29.880031 
L 160.99163 27.286631 
L 161.48106 26.410808 
L 161.97049 27.291067 
L 162.45992 29.240629 
L 162.949349 31.812689 
L 163.438779 31.946741 
L 163.928209 32.714927 
L 164.417639 32.724893 
L 164.907069 31.177035 
L 165.885929 24.553088 
L 166.375359 24.147443 
L 166.864789 25.984979 
L 167.354219 27.250539 
L 167.843649 30.198699 
L 168.333079 41.068339 
L 168.822509 83.900959 
L 169.311938 78.726905 
L 169.801368 59.753798 
L 170.290798 34.771106 
L 170.780228 44.042306 
L 171.759088 34.232464 
L 172.248518 33.888932 
L 172.737948 41.908115 
L 173.716808 32.907526 
L 174.206238 36.727598 
L 174.695668 54.373788 
L 175.185098 40.419964 
L 175.674527 33.775417 
L 176.163957 29.85386 
L 176.653387 27.819379 
L 177.142817 30.446128 
L 177.632247 32.22023 
L 178.121677 48.032275 
L 178.611107 78.050481 
L 179.100537 55.223961 
L 179.589967 43.746585 
L 180.079397 42.960791 
L 180.568827 38.759999 
L 181.547687 28.008321 
L 182.037116 28.769124 
L 182.526546 60.757496 
L 183.015976 134.770615 
L 183.994836 47.313721 
L 184.484266 38.068613 
L 185.952556 30.211571 
L 186.441986 28.107571 
L 186.931416 26.589918 
L 187.420846 27.410734 
L 187.910276 26.781227 
L 188.399705 30.956477 
L 188.889135 32.106284 
L 189.378565 34.893079 
L 189.867995 36.687268 
L 190.357425 37.527999 
L 190.846855 36.98979 
L 191.336285 38.519686 
L 191.825715 35.451529 
L 192.315145 35.139443 
L 192.804575 32.61481 
L 193.294005 31.049933 
L 193.783435 31.509237 
L 194.762295 36.941545 
L 195.251724 38.310847 
L 196.230584 40.185505 
L 196.720014 40.689072 
L 197.698874 37.910772 
L 198.188304 37.416554 
L 198.677734 37.710546 
L 199.656594 40.409877 
L 200.146024 41.869889 
L 200.635454 42.455862 
L 201.124884 43.430334 
L 202.103743 44.464128 
L 202.593173 44.349867 
L 203.082603 43.097167 
L 203.572033 40.90006 
L 204.061463 40.638108 
L 204.550893 39.658558 
L 205.040323 40.642026 
L 205.529753 40.681426 
L 206.998043 44.578835 
L 207.487473 44.898621 
L 207.976902 44.745489 
L 208.466332 44.032915 
L 208.955762 41.958743 
L 209.934622 38.973526 
L 210.424052 38.822324 
L 210.913482 40.101435 
L 211.402912 42.082832 
L 212.381772 43.959234 
L 212.871202 44.604177 
L 213.360632 44.357 
L 214.339491 41.670571 
L 214.828921 41.626456 
L 215.807781 41.195118 
L 216.786641 43.477396 
L 217.276071 44.338429 
L 217.765501 44.642895 
L 218.254931 44.755459 
L 218.744361 44.386369 
L 219.723221 41.280709 
L 220.212651 40.468684 
L 220.70208 40.798104 
L 221.19151 41.704109 
L 221.68094 42.996253 
L 223.14923 44.766262 
L 224.12809 45.32043 
L 224.61752 44.955414 
L 226.08581 42.035493 
L 226.57524 41.934432 
L 227.06467 41.996642 
L 227.554099 42.824028 
L 228.043529 43.207268 
L 228.532959 44.449696 
L 229.022389 45.135484 
L 229.511819 45.191233 
L 230.001249 45.094178 
L 230.490679 44.136232 
L 230.980109 42.544602 
L 231.469539 41.372946 
L 231.958969 39.850929 
L 232.448399 40.480085 
L 233.427259 42.772607 
L 233.916688 43.958557 
L 234.895548 44.739763 
L 235.384978 44.194144 
L 236.363838 41.453611 
L 237.342698 41.594288 
L 237.832128 42.234978 
L 238.321558 43.453514 
L 239.300418 44.718087 
L 239.789848 44.778427 
L 240.279277 44.410092 
L 240.768707 43.222629 
L 241.258137 40.741188 
L 242.236997 40.485918 
L 242.726427 41.912295 
L 243.215857 42.332734 
L 243.705287 43.547682 
L 244.194717 44.183811 
L 244.684147 44.592863 
L 245.173577 44.578933 
L 245.663007 43.443989 
L 246.641866 39.801518 
L 247.131296 40.882687 
L 247.620726 40.630041 
L 248.599586 43.515371 
L 249.578446 44.755902 
L 250.067876 44.610329 
L 250.557306 43.468614 
L 251.046736 40.511345 
L 252.025596 39.489087 
L 252.515026 40.458887 
L 253.493885 43.675706 
L 254.472745 44.740426 
L 254.962175 44.99517 
L 255.451605 44.804607 
L 256.430465 42.396669 
L 257.409325 41.95818 
L 257.898755 42.163205 
L 258.388185 43.222058 
L 258.877615 43.342153 
L 259.367045 44.056499 
L 259.856474 44.442284 
L 260.345904 44.622176 
L 260.835334 44.595198 
L 261.324764 43.551587 
L 261.814194 41.543591 
L 262.303624 40.013003 
L 262.793054 40.072414 
L 263.282484 40.356563 
L 263.771914 41.3041 
L 264.750774 43.799191 
L 265.240204 44.409955 
L 265.729634 44.342085 
L 266.219063 43.312474 
L 267.197923 39.229179 
L 267.687353 39.86428 
L 268.176783 39.556407 
L 268.666213 41.495685 
L 269.155643 42.87869 
L 269.645073 43.866999 
L 270.134503 44.427477 
L 270.623933 44.574829 
L 271.113363 43.985262 
L 271.602793 42.198909 
L 272.581652 40.227509 
L 273.071082 40.186482 
L 273.560512 41.119516 
L 274.049942 42.456732 
L 275.518232 44.693945 
L 276.007662 45.16558 
L 276.497092 45.354827 
L 276.986522 45.138823 
L 277.475952 44.331031 
L 277.965382 42.437394 
L 278.454812 42.13088 
L 279.433671 41.186281 
L 280.412531 43.626949 
L 280.901961 44.370383 
L 281.391391 44.623679 
L 281.880821 44.734656 
L 282.370251 44.251597 
L 283.349111 40.76478 
L 283.838541 39.753666 
L 284.327971 40.184809 
L 284.817401 41.020997 
L 285.30683 42.481865 
L 286.77512 44.350471 
L 287.75398 44.989001 
L 288.24341 44.639539 
L 289.7117 41.535397 
L 290.20113 41.52832 
L 290.69056 41.640895 
L 291.17999 42.528929 
L 291.66942 43.023648 
L 292.158849 44.345612 
L 292.648279 45.0991 
L 293.137709 45.16493 
L 293.627139 45.028899 
L 294.116569 44.005463 
L 294.605999 42.420844 
L 295.095429 41.234415 
L 295.584859 39.516455 
L 296.074289 40.253792 
L 297.542579 44.006425 
L 298.032009 44.353009 
L 298.521438 44.915789 
L 299.010868 44.313657 
L 299.500298 42.872432 
L 299.989728 41.914935 
L 300.479158 41.685626 
L 300.968588 41.135211 
L 301.947448 42.427319 
L 302.436878 43.774311 
L 302.926308 44.31027 
L 303.415738 44.653274 
L 303.905168 44.573502 
L 304.394598 43.848439 
L 305.373457 40.504008 
L 305.862887 40.295891 
L 306.352317 40.509142 
L 307.331177 42.900403 
L 307.820607 43.414766 
L 308.310037 44.230822 
L 309.288897 45.109221 
L 309.778327 45.158201 
L 310.267757 44.590548 
L 311.246616 42.042821 
L 311.736046 41.822484 
L 312.225476 41.479059 
L 312.714906 41.725815 
L 313.204336 42.616637 
L 313.693766 43.244899 
L 314.183196 44.462231 
L 314.672626 45.053693 
L 315.162056 45.013876 
L 315.651486 44.778575 
L 316.140916 43.563244 
L 316.630346 41.851596 
L 317.609205 39.32704 
L 319.077495 43.029211 
L 320.056355 44.629229 
L 320.545785 44.639799 
L 321.035215 43.707982 
L 321.524645 42.356702 
L 322.014075 41.377014 
L 322.503505 41.399901 
L 322.992935 41.609012 
L 323.482365 42.344576 
L 323.971795 43.665301 
L 324.461224 44.356269 
L 324.950654 44.622359 
L 325.440084 44.758295 
L 325.929514 44.096971 
L 326.908374 40.753743 
L 327.397804 40.186448 
L 327.887234 40.236955 
L 328.376664 42.182328 
L 328.866094 42.633017 
L 329.844954 44.556828 
L 330.334384 45.051076 
L 330.823813 44.670402 
L 332.292103 40.394005 
L 332.781533 40.356813 
L 333.270963 41.45209 
L 334.249823 41.548507 
L 431.646378 41.548507 
L 431.646378 41.548507 
" clip-path="url(#p536ff83dbc)" style="fill: none; stroke: #ff7f0e; stroke-width: 1.5; stroke-linecap: square"/>
   </g>
   <g id="line2d_16">
    <path d="M 64.573935 26.661939 
L 65.063365 27.714302 
L 66.042224 31.516812 
L 66.531654 33.492057 
L 67.021084 36.290039 
L 67.510514 49.675435 
L 68.489374 33.699578 
L 68.978804 29.202467 
L 69.468234 27.233163 
L 69.957664 27.403995 
L 70.447094 80.559801 
L 70.936524 66.407138 
L 71.425954 45.506026 
L 71.915384 38.688267 
L 72.404813 56.032559 
L 72.894243 58.234815 
L 73.383673 40.11234 
L 73.873103 30.404596 
L 74.362533 34.106799 
L 75.341393 29.270941 
L 75.830823 30.018332 
L 76.809683 33.809931 
L 77.299113 34.973549 
L 77.788543 34.738088 
L 78.277973 32.170623 
L 78.767402 28.070427 
L 79.256832 25.614576 
L 79.746262 25.623314 
L 80.235692 27.01739 
L 81.214552 242.463899 
L 81.703982 120.317937 
L 82.193412 73.473488 
L 82.682842 50.238707 
L 83.172272 35.701499 
L 83.661702 27.402358 
L 84.151132 24.593555 
L 84.640562 24.983162 
L 85.129991 25.885269 
L 86.108851 29.647156 
L 86.598281 31.816755 
L 87.087711 41.197816 
L 87.577141 48.313323 
L 88.556001 38.358291 
L 89.534861 33.288814 
L 90.024291 31.476671 
L 90.513721 30.425594 
L 91.003151 30.272651 
L 91.49258 30.755872 
L 91.98201 31.584304 
L 92.96087 33.976603 
L 93.4503 238.934792 
L 93.93973 179.332654 
L 94.42916 87.681241 
L 94.91859 53.300518 
L 95.40802 40.807931 
L 95.89745 35.707354 
L 96.38688 235.112371 
L 96.87631 291.096307 
L 97.36574 129.754472 
L 97.85517 65.659121 
L 98.344599 44.2969 
L 98.834029 37.835744 
L 99.323459 42.21272 
L 99.812889 42.577888 
L 100.302319 61.972069 
L 100.791749 47.506688 
L 101.281179 37.739999 
L 101.770609 32.965008 
L 102.260039 30.597226 
L 102.749469 29.846638 
L 103.238899 30.255802 
L 103.728329 31.351785 
L 104.217759 172.35775 
L 104.707188 130.983708 
L 105.196618 69.931025 
L 105.686048 46.818314 
L 106.175478 139.264007 
L 106.664908 101.689632 
L 107.154338 53.04114 
L 107.643768 35.292112 
L 108.133198 30.271654 
L 108.622628 29.605786 
L 109.112058 30.831594 
L 110.090918 34.278067 
L 110.580348 35.316933 
L 111.069777 35.380209 
L 111.559207 45.124968 
L 112.048637 41.18383 
L 112.538067 35.843744 
L 113.027497 33.417289 
L 113.516927 32.118087 
L 114.006357 32.226759 
L 114.495787 32.547239 
L 114.985217 42.521351 
L 115.474647 45.038338 
L 115.964077 38.235352 
L 116.453507 37.838166 
L 116.942937 47.084847 
L 117.432366 38.591688 
L 117.921796 33.915395 
L 118.411226 31.972942 
L 118.900656 35.569064 
L 119.390086 78.747781 
L 120.368946 41.580797 
L 120.858376 35.884245 
L 121.347806 34.242984 
L 121.837236 33.905788 
L 122.326666 33.14466 
L 122.816096 32.047783 
L 123.305526 31.937185 
L 123.794955 31.302161 
L 124.284385 31.709366 
L 124.773815 44.010488 
L 125.263245 37.764212 
L 126.242105 37.420641 
L 126.731535 35.415867 
L 127.220965 34.891243 
L 127.710395 34.579342 
L 128.199825 35.862513 
L 128.689255 35.000669 
L 129.178685 32.976922 
L 129.668115 62.535412 
L 130.157545 146.750464 
L 130.646974 80.253764 
L 131.136404 49.240146 
L 131.625834 46.364554 
L 132.115264 37.40713 
L 132.604694 34.572241 
L 133.094124 41.003665 
L 133.583554 49.452434 
L 134.072984 37.923636 
L 134.562414 30.736094 
L 135.051844 29.230917 
L 135.541274 30.292064 
L 136.030704 31.757019 
L 136.520134 32.698428 
L 138.477853 34.494634 
L 138.967283 40.25782 
L 139.456713 85.084467 
L 139.946143 57.665925 
L 140.435573 38.885357 
L 140.925003 31.919429 
L 141.414433 39.144894 
L 141.903863 35.020728 
L 142.393293 32.199457 
L 142.882723 32.92385 
L 143.372152 33.966297 
L 143.861582 59.597653 
L 144.351012 63.019013 
L 144.840442 43.301996 
L 145.329872 32.770484 
L 145.819302 29.495171 
L 146.308732 28.227608 
L 146.798162 28.022793 
L 147.777022 31.699266 
L 148.266452 32.812498 
L 148.755882 39.64933 
L 149.245312 37.970211 
L 149.734741 33.641672 
L 150.224171 32.44191 
L 151.203031 29.484209 
L 151.692461 31.790645 
L 152.181891 41.132685 
L 152.671321 31.279503 
L 153.160751 32.153497 
L 153.650181 41.389902 
L 154.139611 35.598577 
L 154.629041 33.103752 
L 155.118471 31.591555 
L 155.607901 28.297685 
L 156.09733 28.124495 
L 156.58676 28.739451 
L 157.07619 28.922115 
L 158.54448 32.048199 
L 159.03391 33.135965 
L 159.52334 32.85484 
L 160.01277 30.84129 
L 160.5022 29.880031 
L 160.99163 27.286631 
L 161.48106 26.410808 
L 161.97049 27.291067 
L 162.45992 29.240629 
L 162.949349 31.812689 
L 163.438779 31.946741 
L 163.928209 32.714927 
L 164.417639 32.724893 
L 164.907069 31.177035 
L 165.885929 24.553088 
L 166.375359 24.147443 
L 166.864789 25.984979 
L 167.354219 27.250539 
L 167.843649 30.198699 
L 168.333079 41.068339 
L 168.822509 83.900959 
L 169.311938 78.726905 
L 169.801368 59.753798 
L 170.290798 34.771106 
L 170.780228 44.042306 
L 171.759088 34.232464 
L 172.248518 33.888932 
L 172.737948 41.908115 
L 173.716808 32.907526 
L 174.206238 36.727598 
L 174.695668 54.373788 
L 175.185098 40.419964 
L 175.674527 33.775417 
L 176.163957 29.85386 
L 176.653387 27.819379 
L 177.142817 30.446128 
L 177.632247 32.22023 
L 178.121677 48.032275 
L 178.611107 78.050481 
L 179.100537 55.223961 
L 179.589967 43.746585 
L 180.079397 42.960791 
L 180.568827 38.759999 
L 181.547687 28.008321 
L 182.037116 28.769124 
L 182.526546 60.757496 
L 183.015976 134.770615 
L 183.994836 47.313721 
L 184.484266 38.068613 
L 185.952556 30.211571 
L 186.441986 28.107571 
L 186.931416 26.589918 
L 187.420846 27.410734 
L 187.910276 26.781227 
L 188.399705 30.956477 
L 188.889135 32.106284 
L 189.378565 34.893079 
L 189.867995 36.687268 
L 190.357425 37.527999 
L 190.846855 36.98979 
L 191.336285 38.519686 
L 191.825715 35.451529 
L 192.315145 35.139443 
L 192.804575 32.61481 
L 193.294005 31.049933 
L 193.783435 31.509237 
L 194.762295 36.941545 
L 195.251724 38.310847 
L 196.230584 40.185505 
L 196.720014 40.689072 
L 197.698874 37.910772 
L 198.188304 37.416554 
L 198.677734 37.710546 
L 199.656594 40.409877 
L 200.146024 41.869889 
L 200.635454 42.455862 
L 201.124884 43.430334 
L 202.103743 44.464128 
L 202.593173 44.349867 
L 203.082603 43.097167 
L 203.572033 40.90006 
L 204.061463 40.638108 
L 204.550893 39.658558 
L 205.040323 40.642026 
L 205.529753 40.681426 
L 206.998043 44.578835 
L 207.487473 44.898621 
L 207.976902 44.745489 
L 208.466332 44.032915 
L 208.955762 41.958743 
L 209.934622 38.973526 
L 210.424052 38.822324 
L 210.913482 40.101435 
L 211.402912 42.082832 
L 212.381772 43.959234 
L 212.871202 44.604177 
L 213.360632 44.357 
L 214.339491 41.670571 
L 214.828921 41.626456 
L 215.807781 41.195118 
L 216.786641 43.477396 
L 217.276071 44.338429 
L 217.765501 44.642895 
L 218.254931 44.755459 
L 218.744361 44.386369 
L 219.723221 41.280709 
L 220.212651 40.468684 
L 220.70208 40.798104 
L 221.19151 41.704109 
L 221.68094 42.996253 
L 223.14923 44.766262 
L 224.12809 45.32043 
L 224.61752 44.955414 
L 226.08581 42.035493 
L 226.57524 41.934432 
L 227.06467 41.996642 
L 227.554099 42.824028 
L 228.043529 43.207268 
L 228.532959 44.449696 
L 229.022389 45.135484 
L 229.511819 45.191233 
L 230.001249 45.094178 
L 230.490679 44.136232 
L 230.980109 42.544602 
L 231.469539 41.372946 
L 231.958969 39.850929 
L 232.448399 40.480085 
L 233.427259 42.772607 
L 233.916688 43.958557 
L 234.895548 44.739763 
L 235.384978 44.194144 
L 236.363838 41.453611 
L 237.342698 41.594288 
L 237.832128 42.234978 
L 238.321558 43.453514 
L 239.300418 44.718087 
L 239.789848 44.778427 
L 240.279277 44.410092 
L 240.768707 43.222629 
L 241.258137 40.741188 
L 242.236997 40.485918 
L 242.726427 41.912295 
L 243.215857 42.332734 
L 243.705287 43.547682 
L 244.194717 44.183811 
L 244.684147 44.592863 
L 245.173577 44.578933 
L 245.663007 43.443989 
L 246.641866 39.801518 
L 247.131296 40.882687 
L 247.620726 40.630041 
L 248.599586 43.515371 
L 249.578446 44.755902 
L 250.067876 44.610329 
L 250.557306 43.468614 
L 251.046736 40.511345 
L 252.025596 39.489087 
L 252.515026 40.458887 
L 253.493885 43.675706 
L 254.472745 44.740426 
L 254.962175 44.99517 
L 255.451605 44.804607 
L 256.430465 42.396669 
L 257.409325 41.95818 
L 257.898755 42.163205 
L 258.388185 43.222058 
L 258.877615 43.342153 
L 259.367045 44.056499 
L 259.856474 44.442284 
L 260.345904 44.622176 
L 260.835334 44.595198 
L 261.324764 43.551587 
L 261.814194 41.543591 
L 262.303624 40.013003 
L 262.793054 40.072414 
L 263.282484 40.356563 
L 263.771914 41.3041 
L 264.750774 43.799191 
L 265.240204 44.409955 
L 265.729634 44.342085 
L 266.219063 43.312474 
L 267.197923 39.229179 
L 267.687353 39.86428 
L 268.176783 39.556407 
L 268.666213 41.495685 
L 269.155643 42.87869 
L 269.645073 43.866999 
L 270.134503 44.427477 
L 270.623933 44.574829 
L 271.113363 43.985262 
L 271.602793 42.198909 
L 272.581652 40.227509 
L 273.071082 40.186482 
L 273.560512 41.119516 
L 274.049942 42.456732 
L 275.518232 44.693945 
L 276.007662 45.16558 
L 276.497092 45.354827 
L 276.986522 45.138823 
L 277.475952 44.331031 
L 277.965382 42.437394 
L 278.454812 42.13088 
L 279.433671 41.186281 
L 280.412531 43.626949 
L 280.901961 44.370383 
L 281.391391 44.623679 
L 281.880821 44.734656 
L 282.370251 44.251597 
L 283.349111 40.76478 
L 283.838541 39.753666 
L 284.327971 40.184809 
L 284.817401 41.020997 
L 285.30683 42.481865 
L 286.77512 44.350471 
L 287.75398 44.989001 
L 288.24341 44.639539 
L 289.7117 41.535397 
L 290.20113 41.52832 
L 290.69056 41.640895 
L 291.17999 42.528929 
L 291.66942 43.023648 
L 292.158849 44.345612 
L 292.648279 45.0991 
L 293.137709 45.16493 
L 293.627139 45.028899 
L 294.116569 44.005463 
L 294.605999 42.420844 
L 295.095429 41.234415 
L 295.584859 39.516455 
L 296.074289 40.253792 
L 297.542579 44.006425 
L 298.032009 44.353009 
L 298.521438 44.915789 
L 299.010868 44.313657 
L 299.500298 42.872432 
L 299.989728 41.914935 
L 300.479158 41.685626 
L 300.968588 41.135211 
L 301.947448 42.427319 
L 302.436878 43.774311 
L 302.926308 44.31027 
L 303.415738 44.653274 
L 303.905168 44.573502 
L 304.394598 43.848439 
L 305.373457 40.504008 
L 305.862887 40.295891 
L 306.352317 40.509142 
L 307.331177 42.900403 
L 307.820607 43.414766 
L 308.310037 44.230822 
L 309.288897 45.109221 
L 309.778327 45.158201 
L 310.267757 44.590548 
L 311.246616 42.042821 
L 311.736046 41.822484 
L 312.225476 41.479059 
L 312.714906 41.725815 
L 313.204336 42.616637 
L 313.693766 43.244899 
L 314.183196 44.462231 
L 314.672626 45.053693 
L 315.162056 45.013876 
L 315.651486 44.778575 
L 316.140916 43.563244 
L 316.630346 41.851596 
L 317.609205 39.32704 
L 319.077495 43.029211 
L 320.056355 44.629229 
L 320.545785 44.639799 
L 321.035215 43.707982 
L 321.524645 42.356702 
L 322.014075 41.377014 
L 322.503505 41.399901 
L 322.992935 41.609012 
L 323.482365 42.344576 
L 323.971795 43.665301 
L 324.461224 44.356269 
L 324.950654 44.622359 
L 325.440084 44.758295 
L 325.929514 44.096971 
L 326.908374 40.753743 
L 327.397804 40.186448 
L 327.887234 40.236955 
L 328.376664 42.182328 
L 328.866094 42.633017 
L 329.844954 44.556828 
L 330.334384 45.051076 
L 330.823813 44.670402 
L 332.292103 40.394005 
L 332.781533 40.356813 
L 333.270963 41.45209 
L 334.249823 41.548507 
L 431.646378 41.548507 
L 431.646378 41.548507 
" clip-path="url(#p536ff83dbc)" style="fill: none; stroke: #2ca02c; stroke-width: 1.5; stroke-linecap: square"/>
   </g>
   <g id="line2d_17">
    <path d="M 64.573935 26.661939 
L 65.063365 27.714302 
L 66.042224 31.516812 
L 66.531654 33.492057 
L 67.021084 36.290039 
L 67.510514 49.675435 
L 68.489374 33.699578 
L 68.978804 29.202467 
L 69.468234 27.233163 
L 69.957664 27.403995 
L 70.447094 80.559801 
L 70.936524 66.407138 
L 71.425954 45.506026 
L 71.915384 38.688267 
L 72.404813 56.032559 
L 72.894243 58.234815 
L 73.383673 40.11234 
L 73.873103 30.404596 
L 74.362533 34.106799 
L 75.341393 29.270941 
L 75.830823 30.018332 
L 76.809683 33.809931 
L 77.299113 34.973549 
L 77.788543 34.738088 
L 78.277973 32.170623 
L 78.767402 28.070427 
L 79.256832 25.614576 
L 79.746262 25.623314 
L 80.235692 27.01739 
L 81.214552 242.463899 
L 81.703982 120.317937 
L 82.193412 73.473488 
L 82.682842 50.238707 
L 83.172272 35.701499 
L 83.661702 27.402358 
L 84.151132 24.593555 
L 84.640562 24.983162 
L 85.129991 25.885269 
L 86.108851 29.647156 
L 86.598281 31.816755 
L 87.087711 41.197816 
L 87.577141 48.313323 
L 88.556001 38.358291 
L 89.534861 33.288814 
L 90.024291 31.476671 
L 90.513721 30.425594 
L 91.003151 30.272651 
L 91.49258 30.755872 
L 91.98201 31.584304 
L 92.96087 33.976603 
L 93.4503 238.934792 
L 93.93973 179.332654 
L 94.42916 87.681241 
L 94.91859 53.300518 
L 95.40802 40.807931 
L 95.89745 35.707354 
L 96.38688 235.112371 
L 96.87631 291.096307 
L 97.36574 129.754472 
L 97.85517 65.659121 
L 98.344599 44.2969 
L 98.834029 37.835744 
L 99.323459 42.21272 
L 99.812889 42.577888 
L 100.302319 61.972069 
L 100.791749 47.506688 
L 101.281179 37.739999 
L 101.770609 32.965008 
L 102.260039 30.597226 
L 102.749469 29.846638 
L 103.238899 30.255802 
L 103.728329 31.351785 
L 104.217759 172.35775 
L 104.707188 130.983708 
L 105.196618 69.931025 
L 105.686048 46.818314 
L 106.175478 139.264007 
L 106.664908 101.689632 
L 107.154338 53.04114 
L 107.643768 35.292112 
L 108.133198 30.271654 
L 108.622628 29.605786 
L 109.112058 30.831594 
L 110.090918 34.278067 
L 110.580348 35.316933 
L 111.069777 35.380209 
L 111.559207 45.124968 
L 112.048637 41.18383 
L 112.538067 35.843744 
L 113.027497 33.417289 
L 113.516927 32.118087 
L 114.006357 32.226759 
L 114.495787 32.547239 
L 114.985217 42.521351 
L 115.474647 45.038338 
L 115.964077 38.235352 
L 116.453507 37.838166 
L 116.942937 47.084847 
L 117.432366 38.591688 
L 117.921796 33.915395 
L 118.411226 31.972942 
L 118.900656 35.569064 
L 119.390086 78.747781 
L 120.368946 41.580797 
L 120.858376 35.884245 
L 121.347806 34.242984 
L 121.837236 33.905788 
L 122.326666 33.14466 
L 122.816096 32.047783 
L 123.305526 31.937185 
L 123.794955 31.302161 
L 124.284385 31.709366 
L 124.773815 44.010488 
L 125.263245 37.764212 
L 126.242105 37.420641 
L 126.731535 35.415867 
L 127.220965 34.891243 
L 127.710395 34.579342 
L 128.199825 35.862513 
L 128.689255 35.000669 
L 129.178685 32.976922 
L 129.668115 62.535412 
L 130.157545 146.750464 
L 130.646974 80.253764 
L 131.136404 49.240146 
L 131.625834 46.364554 
L 132.115264 37.40713 
L 132.604694 34.572241 
L 133.094124 41.003665 
L 133.583554 49.452434 
L 134.072984 37.923636 
L 134.562414 30.736094 
L 135.051844 29.230917 
L 135.541274 30.292064 
L 136.030704 31.757019 
L 136.520134 32.698428 
L 138.477853 34.494634 
L 138.967283 40.25782 
L 139.456713 85.084467 
L 139.946143 57.665925 
L 140.435573 38.885357 
L 140.925003 31.919429 
L 141.414433 39.144894 
L 141.903863 35.020728 
L 142.393293 32.199457 
L 142.882723 32.92385 
L 143.372152 33.966297 
L 143.861582 59.597653 
L 144.351012 63.019013 
L 144.840442 43.301996 
L 145.329872 32.770484 
L 145.819302 29.495171 
L 146.308732 28.227608 
L 146.798162 28.022793 
L 147.777022 31.699266 
L 148.266452 32.812498 
L 148.755882 39.64933 
L 149.245312 37.970211 
L 149.734741 33.641672 
L 150.224171 32.44191 
L 151.203031 29.484209 
L 151.692461 31.790645 
L 152.181891 41.132685 
L 152.671321 31.279503 
L 153.160751 32.153497 
L 153.650181 41.389902 
L 154.139611 35.598577 
L 154.629041 33.103752 
L 155.118471 31.591555 
L 155.607901 28.297685 
L 156.09733 28.124495 
L 156.58676 28.739451 
L 157.07619 28.922115 
L 158.54448 32.048199 
L 159.03391 33.135965 
L 159.52334 32.85484 
L 160.01277 30.84129 
L 160.5022 29.880031 
L 160.99163 27.286631 
L 161.48106 26.410808 
L 161.97049 27.291067 
L 162.45992 29.240629 
L 162.949349 31.812689 
L 163.438779 31.946741 
L 163.928209 32.714927 
L 164.417639 32.724893 
L 164.907069 31.177035 
L 165.885929 24.553088 
L 166.375359 24.147443 
L 166.864789 25.984979 
L 167.354219 27.250539 
L 167.843649 30.198699 
L 168.333079 41.068339 
L 168.822509 83.900959 
L 169.311938 78.726905 
L 169.801368 59.753798 
L 170.290798 34.771106 
L 170.780228 44.042306 
L 171.759088 34.232464 
L 172.248518 33.888932 
L 172.737948 41.908115 
L 173.716808 32.907526 
L 174.206238 36.727598 
L 174.695668 54.373788 
L 175.185098 40.419964 
L 175.674527 33.775417 
L 176.163957 29.85386 
L 176.653387 27.819379 
L 177.142817 30.446128 
L 177.632247 32.22023 
L 178.121677 48.032275 
L 178.611107 78.050481 
L 179.100537 55.223961 
L 179.589967 43.746585 
L 180.079397 42.960791 
L 180.568827 38.759999 
L 181.547687 28.008321 
L 182.037116 28.769124 
L 182.526546 60.757496 
L 183.015976 134.770615 
L 183.994836 47.313721 
L 184.484266 38.068613 
L 185.952556 30.211571 
L 186.441986 28.107571 
L 186.931416 26.589918 
L 187.420846 27.410734 
L 187.910276 26.781227 
L 188.399705 30.956477 
L 188.889135 32.106284 
L 189.378565 34.893079 
L 189.867995 36.687268 
L 190.357425 37.527999 
L 190.846855 36.98979 
L 191.336285 38.519686 
L 191.825715 35.451529 
L 192.315145 35.139443 
L 192.804575 32.61481 
L 193.294005 31.049933 
L 193.783435 31.509237 
L 194.762295 36.941545 
L 195.251724 38.310847 
L 196.230584 40.185505 
L 196.720014 40.689072 
L 197.698874 37.910772 
L 198.188304 37.416554 
L 198.677734 37.710546 
L 199.656594 40.409877 
L 200.146024 41.869889 
L 200.635454 42.455862 
L 201.124884 43.430334 
L 202.103743 44.464128 
L 202.593173 44.349867 
L 203.082603 43.097167 
L 203.572033 40.90006 
L 204.061463 40.638108 
L 204.550893 39.658558 
L 205.040323 40.642026 
L 205.529753 40.681426 
L 206.998043 44.578835 
L 207.487473 44.898621 
L 207.976902 44.745489 
L 208.466332 44.032915 
L 208.955762 41.958743 
L 209.934622 38.973526 
L 210.424052 38.822324 
L 210.913482 40.101435 
L 211.402912 42.082832 
L 212.381772 43.959234 
L 212.871202 44.604177 
L 213.360632 44.357 
L 214.339491 41.670571 
L 214.828921 41.626456 
L 215.807781 41.195118 
L 216.786641 43.477396 
L 217.276071 44.338429 
L 217.765501 44.642895 
L 218.254931 44.755459 
L 218.744361 44.386369 
L 219.723221 41.280709 
L 220.212651 40.468684 
L 220.70208 40.798104 
L 221.19151 41.704109 
L 221.68094 42.996253 
L 223.14923 44.766262 
L 224.12809 45.32043 
L 224.61752 44.955414 
L 226.08581 42.035493 
L 226.57524 41.934432 
L 227.06467 41.996642 
L 227.554099 42.824028 
L 228.043529 43.207268 
L 228.532959 44.449696 
L 229.022389 45.135484 
L 229.511819 45.191233 
L 230.001249 45.094178 
L 230.490679 44.136232 
L 230.980109 42.544602 
L 231.469539 41.372946 
L 231.958969 39.850929 
L 232.448399 40.480085 
L 233.427259 42.772607 
L 233.916688 43.958557 
L 234.895548 44.739763 
L 235.384978 44.194144 
L 236.363838 41.453611 
L 237.342698 41.594288 
L 237.832128 42.234978 
L 238.321558 43.453514 
L 239.300418 44.718087 
L 239.789848 44.778427 
L 240.279277 44.410092 
L 240.768707 43.222629 
L 241.258137 40.741188 
L 242.236997 40.485918 
L 242.726427 41.912295 
L 243.215857 42.332734 
L 243.705287 43.547682 
L 244.194717 44.183811 
L 244.684147 44.592863 
L 245.173577 44.578933 
L 245.663007 43.443989 
L 246.641866 39.801518 
L 247.131296 40.882687 
L 247.620726 40.630041 
L 248.599586 43.515371 
L 249.578446 44.755902 
L 250.067876 44.610329 
L 250.557306 43.468614 
L 251.046736 40.511345 
L 252.025596 39.489087 
L 252.515026 40.458887 
L 253.493885 43.675706 
L 254.472745 44.740426 
L 254.962175 44.99517 
L 255.451605 44.804607 
L 256.430465 42.396669 
L 257.409325 41.95818 
L 257.898755 42.163205 
L 258.388185 43.222058 
L 258.877615 43.342153 
L 259.367045 44.056499 
L 259.856474 44.442284 
L 260.345904 44.622176 
L 260.835334 44.595198 
L 261.324764 43.551587 
L 261.814194 41.543591 
L 262.303624 40.013003 
L 262.793054 40.072414 
L 263.282484 40.356563 
L 263.771914 41.3041 
L 264.750774 43.799191 
L 265.240204 44.409955 
L 265.729634 44.342085 
L 266.219063 43.312474 
L 267.197923 39.229179 
L 267.687353 39.86428 
L 268.176783 39.556407 
L 268.666213 41.495685 
L 269.155643 42.87869 
L 269.645073 43.866999 
L 270.134503 44.427477 
L 270.623933 44.574829 
L 271.113363 43.985262 
L 271.602793 42.198909 
L 272.581652 40.227509 
L 273.071082 40.186482 
L 273.560512 41.119516 
L 274.049942 42.456732 
L 275.518232 44.693945 
L 276.007662 45.16558 
L 276.497092 45.354827 
L 276.986522 45.138823 
L 277.475952 44.331031 
L 277.965382 42.437394 
L 278.454812 42.13088 
L 279.433671 41.186281 
L 280.412531 43.626949 
L 280.901961 44.370383 
L 281.391391 44.623679 
L 281.880821 44.734656 
L 282.370251 44.251597 
L 283.349111 40.76478 
L 283.838541 39.753666 
L 284.327971 40.184809 
L 284.817401 41.020997 
L 285.30683 42.481865 
L 286.77512 44.350471 
L 287.75398 44.989001 
L 288.24341 44.639539 
L 289.7117 41.535397 
L 290.20113 41.52832 
L 290.69056 41.640895 
L 291.17999 42.528929 
L 291.66942 43.023648 
L 292.158849 44.345612 
L 292.648279 45.0991 
L 293.137709 45.16493 
L 293.627139 45.028899 
L 294.116569 44.005463 
L 294.605999 42.420844 
L 295.095429 41.234415 
L 295.584859 39.516455 
L 296.074289 40.253792 
L 297.542579 44.006425 
L 298.032009 44.353009 
L 298.521438 44.915789 
L 299.010868 44.313657 
L 299.500298 42.872432 
L 299.989728 41.914935 
L 300.479158 41.685626 
L 300.968588 41.135211 
L 301.947448 42.427319 
L 302.436878 43.774311 
L 302.926308 44.31027 
L 303.415738 44.653274 
L 303.905168 44.573502 
L 304.394598 43.848439 
L 305.373457 40.504008 
L 305.862887 40.295891 
L 306.352317 40.509142 
L 307.331177 42.900403 
L 307.820607 43.414766 
L 308.310037 44.230822 
L 309.288897 45.109221 
L 309.778327 45.158201 
L 310.267757 44.590548 
L 311.246616 42.042821 
L 311.736046 41.822484 
L 312.225476 41.479059 
L 312.714906 41.725815 
L 313.204336 42.616637 
L 313.693766 43.244899 
L 314.183196 44.462231 
L 314.672626 45.053693 
L 315.162056 45.013876 
L 315.651486 44.778575 
L 316.140916 43.563244 
L 316.630346 41.851596 
L 317.609205 39.32704 
L 319.077495 43.029211 
L 320.056355 44.629229 
L 320.545785 44.639799 
L 321.035215 43.707982 
L 321.524645 42.356702 
L 322.014075 41.377014 
L 322.503505 41.399901 
L 322.992935 41.609012 
L 323.482365 42.344576 
L 323.971795 43.665301 
L 324.461224 44.356269 
L 324.950654 44.622359 
L 325.440084 44.758295 
L 325.929514 44.096971 
L 326.908374 40.753743 
L 327.397804 40.186448 
L 327.887234 40.236955 
L 328.376664 42.182328 
L 328.866094 42.633017 
L 329.844954 44.556828 
L 330.334384 45.051076 
L 330.823813 44.670402 
L 332.292103 40.394005 
L 332.781533 40.356813 
L 333.270963 41.45209 
L 334.249823 41.548507 
L 431.646378 41.548507 
L 431.646378 41.548507 
" clip-path="url(#p536ff83dbc)" style="fill: none; stroke: #d62728; stroke-width: 1.5; stroke-linecap: square"/>
   </g>
   <g id="line2d_18">
    <path d="M 64.573935 26.661939 
L 65.063365 27.714302 
L 66.042224 31.516812 
L 66.531654 33.492057 
L 67.021084 36.290039 
L 67.510514 49.675435 
L 68.489374 33.699578 
L 68.978804 29.202467 
L 69.468234 27.233163 
L 69.957664 27.403995 
L 70.447094 80.559801 
L 70.936524 66.407138 
L 71.425954 45.506026 
L 71.915384 38.688267 
L 72.404813 56.032559 
L 72.894243 58.234815 
L 73.383673 40.11234 
L 73.873103 30.404596 
L 74.362533 34.106799 
L 75.341393 29.270941 
L 75.830823 30.018332 
L 76.809683 33.809931 
L 77.299113 34.973549 
L 77.788543 34.738088 
L 78.277973 32.170623 
L 78.767402 28.070427 
L 79.256832 25.614576 
L 79.746262 25.623314 
L 80.235692 27.01739 
L 81.214552 242.463899 
L 81.703982 120.317937 
L 82.193412 73.473488 
L 82.682842 50.238707 
L 83.172272 35.701499 
L 83.661702 27.402358 
L 84.151132 24.593555 
L 84.640562 24.983162 
L 85.129991 25.885269 
L 86.108851 29.647156 
L 86.598281 31.816755 
L 87.087711 41.197816 
L 87.577141 48.313323 
L 88.556001 38.358291 
L 89.534861 33.288814 
L 90.024291 31.476671 
L 90.513721 30.425594 
L 91.003151 30.272651 
L 91.49258 30.755872 
L 91.98201 31.584304 
L 92.96087 33.976603 
L 93.4503 238.934792 
L 93.93973 179.332654 
L 94.42916 87.681241 
L 94.91859 53.300518 
L 95.40802 40.807931 
L 95.89745 35.707354 
L 96.38688 235.112371 
L 96.87631 291.096307 
L 97.36574 129.754472 
L 97.85517 65.659121 
L 98.344599 44.2969 
L 98.834029 37.835744 
L 99.323459 42.21272 
L 99.812889 42.577888 
L 100.302319 61.972069 
L 100.791749 47.506688 
L 101.281179 37.739999 
L 101.770609 32.965008 
L 102.260039 30.597226 
L 102.749469 29.846638 
L 103.238899 30.255802 
L 103.728329 31.351785 
L 104.217759 172.35775 
L 104.707188 130.983708 
L 105.196618 69.931025 
L 105.686048 46.818314 
L 106.175478 139.264007 
L 106.664908 101.689632 
L 107.154338 53.04114 
L 107.643768 35.292112 
L 108.133198 30.271654 
L 108.622628 29.605786 
L 109.112058 30.831594 
L 110.090918 34.278067 
L 110.580348 35.316933 
L 111.069777 35.380209 
L 111.559207 45.124968 
L 112.048637 41.18383 
L 112.538067 35.843744 
L 113.027497 33.417289 
L 113.516927 32.118087 
L 114.006357 32.226759 
L 114.495787 32.547239 
L 114.985217 42.521351 
L 115.474647 45.038338 
L 115.964077 38.235352 
L 116.453507 37.838166 
L 116.942937 47.084847 
L 117.432366 38.591688 
L 117.921796 33.915395 
L 118.411226 31.972942 
L 118.900656 35.569064 
L 119.390086 78.747781 
L 120.368946 41.580797 
L 120.858376 35.884245 
L 121.347806 34.242984 
L 121.837236 33.905788 
L 122.326666 33.14466 
L 122.816096 32.047783 
L 123.305526 31.937185 
L 123.794955 31.302161 
L 124.284385 31.709366 
L 124.773815 44.010488 
L 125.263245 37.764212 
L 126.242105 37.420641 
L 126.731535 35.415867 
L 127.220965 34.891243 
L 127.710395 34.579342 
L 128.199825 35.862513 
L 128.689255 35.000669 
L 129.178685 32.976922 
L 129.668115 62.535412 
L 130.157545 146.750464 
L 130.646974 80.253764 
L 131.136404 49.240146 
L 131.625834 46.364554 
L 132.115264 37.40713 
L 132.604694 34.572241 
L 133.094124 41.003665 
L 133.583554 49.452434 
L 134.072984 37.923636 
L 134.562414 30.736094 
L 135.051844 29.230917 
L 135.541274 30.292064 
L 136.030704 31.757019 
L 136.520134 32.698428 
L 138.477853 34.494634 
L 138.967283 40.25782 
L 139.456713 85.084467 
L 139.946143 57.665925 
L 140.435573 38.885357 
L 140.925003 31.919429 
L 141.414433 39.144894 
L 141.903863 35.020728 
L 142.393293 32.199457 
L 142.882723 32.92385 
L 143.372152 33.966297 
L 143.861582 59.597653 
L 144.351012 63.019013 
L 144.840442 43.301996 
L 145.329872 32.770484 
L 145.819302 29.495171 
L 146.308732 28.227608 
L 146.798162 28.022793 
L 147.777022 31.699266 
L 148.266452 32.812498 
L 148.755882 39.64933 
L 149.245312 37.970211 
L 149.734741 33.641672 
L 150.224171 32.44191 
L 151.203031 29.484209 
L 151.692461 31.790645 
L 152.181891 41.132685 
L 152.671321 31.279503 
L 153.160751 32.153497 
L 153.650181 41.389902 
L 154.139611 35.598577 
L 154.629041 33.103752 
L 155.118471 31.591555 
L 155.607901 28.297685 
L 156.09733 28.124495 
L 156.58676 28.739451 
L 157.07619 28.922115 
L 158.54448 32.048199 
L 159.03391 33.135965 
L 159.52334 32.85484 
L 160.01277 30.84129 
L 160.5022 29.880031 
L 160.99163 27.286631 
L 161.48106 26.410808 
L 161.97049 27.291067 
L 162.45992 29.240629 
L 162.949349 31.812689 
L 163.438779 31.946741 
L 163.928209 32.714927 
L 164.417639 32.724893 
L 164.907069 31.177035 
L 165.885929 24.553088 
L 166.375359 24.147443 
L 166.864789 25.984979 
L 167.354219 27.250539 
L 167.843649 30.198699 
L 168.333079 41.068339 
L 168.822509 83.900959 
L 169.311938 78.726905 
L 169.801368 59.753798 
L 170.290798 34.771106 
L 170.780228 44.042306 
L 171.759088 34.232464 
L 172.248518 33.888932 
L 172.737948 41.908115 
L 173.716808 32.907526 
L 174.206238 36.727598 
L 174.695668 54.373788 
L 175.185098 40.419964 
L 175.674527 33.775417 
L 176.163957 29.85386 
L 176.653387 27.819379 
L 177.142817 30.446128 
L 177.632247 32.22023 
L 178.121677 48.032275 
L 178.611107 78.050481 
L 179.100537 55.223961 
L 179.589967 43.746585 
L 180.079397 42.960791 
L 180.568827 38.759999 
L 181.547687 28.008321 
L 182.037116 28.769124 
L 182.526546 60.757496 
L 183.015976 134.770615 
L 183.994836 47.313721 
L 184.484266 38.068613 
L 185.952556 30.211571 
L 186.441986 28.107571 
L 186.931416 26.589918 
L 187.420846 27.410734 
L 187.910276 26.781227 
L 188.399705 30.956477 
L 188.889135 32.106284 
L 189.378565 34.893079 
L 189.867995 36.687268 
L 190.357425 37.527999 
L 190.846855 36.98979 
L 191.336285 38.519686 
L 191.825715 35.451529 
L 192.315145 35.139443 
L 192.804575 32.61481 
L 193.294005 31.049933 
L 193.783435 31.509237 
L 194.762295 36.941545 
L 195.251724 38.310847 
L 196.230584 40.185505 
L 196.720014 40.689072 
L 197.698874 37.910772 
L 198.188304 37.416554 
L 198.677734 37.710546 
L 199.656594 40.409877 
L 200.146024 41.869889 
L 200.635454 42.455862 
L 201.124884 43.430334 
L 202.103743 44.464128 
L 202.593173 44.349867 
L 203.082603 43.097167 
L 203.572033 40.90006 
L 204.061463 40.638108 
L 204.550893 39.658558 
L 205.040323 40.642026 
L 205.529753 40.681426 
L 206.998043 44.578835 
L 207.487473 44.898621 
L 207.976902 44.745489 
L 208.466332 44.032915 
L 208.955762 41.958743 
L 209.934622 38.973526 
L 210.424052 38.822324 
L 210.913482 40.101435 
L 211.402912 42.082832 
L 212.381772 43.959234 
L 212.871202 44.604177 
L 213.360632 44.357 
L 214.339491 41.670571 
L 214.828921 41.626456 
L 215.807781 41.195118 
L 216.786641 43.477396 
L 217.276071 44.338429 
L 217.765501 44.642895 
L 218.254931 44.755459 
L 218.744361 44.386369 
L 219.723221 41.280709 
L 220.212651 40.468684 
L 220.70208 40.798104 
L 221.19151 41.704109 
L 221.68094 42.996253 
L 223.14923 44.766262 
L 224.12809 45.32043 
L 224.61752 44.955414 
L 226.08581 42.035493 
L 226.57524 41.934432 
L 227.06467 41.996642 
L 227.554099 42.824028 
L 228.043529 43.207268 
L 228.532959 44.449696 
L 229.022389 45.135484 
L 229.511819 45.191233 
L 230.001249 45.094178 
L 230.490679 44.136232 
L 230.980109 42.544602 
L 231.469539 41.372946 
L 231.958969 39.850929 
L 232.448399 40.480085 
L 233.427259 42.772607 
L 233.916688 43.958557 
L 234.895548 44.739763 
L 235.384978 44.194144 
L 236.363838 41.453611 
L 237.342698 41.594288 
L 237.832128 42.234978 
L 238.321558 43.453514 
L 239.300418 44.718087 
L 239.789848 44.778427 
L 240.279277 44.410092 
L 240.768707 43.222629 
L 241.258137 40.741188 
L 242.236997 40.485918 
L 242.726427 41.912295 
L 243.215857 42.332734 
L 243.705287 43.547682 
L 244.194717 44.183811 
L 244.684147 44.592863 
L 245.173577 44.578933 
L 245.663007 43.443989 
L 246.641866 39.801518 
L 247.131296 40.882687 
L 247.620726 40.630041 
L 248.599586 43.515371 
L 249.578446 44.755902 
L 250.067876 44.610329 
L 250.557306 43.468614 
L 251.046736 40.511345 
L 252.025596 39.489087 
L 252.515026 40.458887 
L 253.493885 43.675706 
L 254.472745 44.740426 
L 254.962175 44.99517 
L 255.451605 44.804607 
L 256.430465 42.396669 
L 257.409325 41.95818 
L 257.898755 42.163205 
L 258.388185 43.222058 
L 258.877615 43.342153 
L 259.367045 44.056499 
L 259.856474 44.442284 
L 260.345904 44.622176 
L 260.835334 44.595198 
L 261.324764 43.551587 
L 261.814194 41.543591 
L 262.303624 40.013003 
L 262.793054 40.072414 
L 263.282484 40.356563 
L 263.771914 41.3041 
L 264.750774 43.799191 
L 265.240204 44.409955 
L 265.729634 44.342085 
L 266.219063 43.312474 
L 267.197923 39.229179 
L 267.687353 39.86428 
L 268.176783 39.556407 
L 268.666213 41.495685 
L 269.155643 42.87869 
L 269.645073 43.866999 
L 270.134503 44.427477 
L 270.623933 44.574829 
L 271.113363 43.985262 
L 271.602793 42.198909 
L 272.581652 40.227509 
L 273.071082 40.186482 
L 273.560512 41.119516 
L 274.049942 42.456732 
L 275.518232 44.693945 
L 276.007662 45.16558 
L 276.497092 45.354827 
L 276.986522 45.138823 
L 277.475952 44.331031 
L 277.965382 42.437394 
L 278.454812 42.13088 
L 279.433671 41.186281 
L 280.412531 43.626949 
L 280.901961 44.370383 
L 281.391391 44.623679 
L 281.880821 44.734656 
L 282.370251 44.251597 
L 283.349111 40.76478 
L 283.838541 39.753666 
L 284.327971 40.184809 
L 284.817401 41.020997 
L 285.30683 42.481865 
L 286.77512 44.350471 
L 287.75398 44.989001 
L 288.24341 44.639539 
L 289.7117 41.535397 
L 290.20113 41.52832 
L 290.69056 41.640895 
L 291.17999 42.528929 
L 291.66942 43.023648 
L 292.158849 44.345612 
L 292.648279 45.0991 
L 293.137709 45.16493 
L 293.627139 45.028899 
L 294.116569 44.005463 
L 294.605999 42.420844 
L 295.095429 41.234415 
L 295.584859 39.516455 
L 296.074289 40.253792 
L 297.542579 44.006425 
L 298.032009 44.353009 
L 298.521438 44.915789 
L 299.010868 44.313657 
L 299.500298 42.872432 
L 299.989728 41.914935 
L 300.479158 41.685626 
L 300.968588 41.135211 
L 301.947448 42.427319 
L 302.436878 43.774311 
L 302.926308 44.31027 
L 303.415738 44.653274 
L 303.905168 44.573502 
L 304.394598 43.848439 
L 305.373457 40.504008 
L 305.862887 40.295891 
L 306.352317 40.509142 
L 307.331177 42.900403 
L 307.820607 43.414766 
L 308.310037 44.230822 
L 309.288897 45.109221 
L 309.778327 45.158201 
L 310.267757 44.590548 
L 311.246616 42.042821 
L 311.736046 41.822484 
L 312.225476 41.479059 
L 312.714906 41.725815 
L 313.204336 42.616637 
L 313.693766 43.244899 
L 314.183196 44.462231 
L 314.672626 45.053693 
L 315.162056 45.013876 
L 315.651486 44.778575 
L 316.140916 43.563244 
L 316.630346 41.851596 
L 317.609205 39.32704 
L 319.077495 43.029211 
L 320.056355 44.629229 
L 320.545785 44.639799 
L 321.035215 43.707982 
L 321.524645 42.356702 
L 322.014075 41.377014 
L 322.503505 41.399901 
L 322.992935 41.609012 
L 323.482365 42.344576 
L 323.971795 43.665301 
L 324.461224 44.356269 
L 324.950654 44.622359 
L 325.440084 44.758295 
L 325.929514 44.096971 
L 326.908374 40.753743 
L 327.397804 40.186448 
L 327.887234 40.236955 
L 328.376664 42.182328 
L 328.866094 42.633017 
L 329.844954 44.556828 
L 330.334384 45.051076 
L 330.823813 44.670402 
L 332.292103 40.394005 
L 332.781533 40.356813 
L 333.270963 41.45209 
L 334.249823 41.548507 
L 431.646378 41.548507 
L 431.646378 41.548507 
" clip-path="url(#p536ff83dbc)" style="fill: none; stroke: #9467bd; stroke-width: 1.5; stroke-linecap: square"/>
   </g>
   <g id="patch_2">
    <path d="M 46.220313 304.44375 
L 46.220313 10.8 
" style="fill: none; stroke: #000000; stroke-width: 0.8; stroke-linejoin: miter; stroke-linecap: square"/>
   </g>
   <g id="patch_3">
    <path d="M 450 304.44375 
L 450 10.8 
" style="fill: none; stroke: #000000; stroke-width: 0.8; stroke-linejoin: miter; stroke-linecap: square"/>
   </g>
   <g id="patch_4">
    <path d="M 46.220312 304.44375 
L 450 304.44375 
" style="fill: none; stroke: #000000; stroke-width: 0.8; stroke-linejoin: miter; stroke-linecap: square"/>
   </g>
   <g id="patch_5">
    <path d="M 46.220312 10.8 
L 450 10.8 
" style="fill: none; stroke: #000000; stroke-width: 0.8; stroke-linejoin: miter; stroke-linecap: square"/>
   </g>
   <g id="legend_1">
    <g id="patch_6">
     <path d="M 375.145312 299.44375 
L 443 299.44375 
Q 445 299.44375 445 297.44375 
L 445 225.053125 
Q 445 223.053125 443 223.053125 
L 375.145312 223.053125 
Q 373.145312 223.053125 373.145312 225.053125 
L 373.145312 297.44375 
Q 373.145312 299.44375 375.145312 299.44375 
z
" style="fill: #ffffff; opacity: 0.8; stroke: #cccccc; stroke-linejoin: miter"/>
    </g>
    <g id="line2d_19">
     <path d="M 377.145312 231.151562 
L 387.145312 231.151562 
L 397.145312 231.151562 
" style="fill: none; stroke: #1f77b4; stroke-width: 1.5; stroke-linecap: square"/>
    </g>
    <g id="text_16">
     <!-- ssp119 -->
     <g transform="translate(405.145312 234.651562) scale(0.1 -0.1)">
      <defs>
       <path id="DejaVuSans-73" d="M 2834 3397 
L 2834 2853 
Q 2591 2978 2328 3040 
Q 2066 3103 1784 3103 
Q 1356 3103 1142 2972 
Q 928 2841 928 2578 
Q 928 2378 1081 2264 
Q 1234 2150 1697 2047 
L 1894 2003 
Q 2506 1872 2764 1633 
Q 3022 1394 3022 966 
Q 3022 478 2636 193 
Q 2250 -91 1575 -91 
Q 1294 -91 989 -36 
Q 684 19 347 128 
L 347 722 
Q 666 556 975 473 
Q 1284 391 1588 391 
Q 1994 391 2212 530 
Q 2431 669 2431 922 
Q 2431 1156 2273 1281 
Q 2116 1406 1581 1522 
L 1381 1569 
Q 847 1681 609 1914 
Q 372 2147 372 2553 
Q 372 3047 722 3315 
Q 1072 3584 1716 3584 
Q 2034 3584 2315 3537 
Q 2597 3491 2834 3397 
z
" transform="scale(0.015625)"/>
       <path id="DejaVuSans-70" d="M 1159 525 
L 1159 -1331 
L 581 -1331 
L 581 3500 
L 1159 3500 
L 1159 2969 
Q 1341 3281 1617 3432 
Q 1894 3584 2278 3584 
Q 2916 3584 3314 3078 
Q 3713 2572 3713 1747 
Q 3713 922 3314 415 
Q 2916 -91 2278 -91 
Q 1894 -91 1617 61 
Q 1341 213 1159 525 
z
M 3116 1747 
Q 3116 2381 2855 2742 
Q 2594 3103 2138 3103 
Q 1681 3103 1420 2742 
Q 1159 2381 1159 1747 
Q 1159 1113 1420 752 
Q 1681 391 2138 391 
Q 2594 391 2855 752 
Q 3116 1113 3116 1747 
z
" transform="scale(0.015625)"/>
      </defs>
      <use xlink:href="#DejaVuSans-73"/>
      <use xlink:href="#DejaVuSans-73" x="52.099609"/>
      <use xlink:href="#DejaVuSans-70" x="104.199219"/>
      <use xlink:href="#DejaVuSans-31" x="167.675781"/>
      <use xlink:href="#DejaVuSans-31" x="231.298828"/>
      <use xlink:href="#DejaVuSans-39" x="294.921875"/>
     </g>
    </g>
    <g id="line2d_20">
     <path d="M 377.145312 245.829687 
L 387.145312 245.829687 
L 397.145312 245.829687 
" style="fill: none; stroke: #ff7f0e; stroke-width: 1.5; stroke-linecap: square"/>
    </g>
    <g id="text_17">
     <!-- ssp245 -->
     <g transform="translate(405.145312 249.329687) scale(0.1 -0.1)">
      <use xlink:href="#DejaVuSans-73"/>
      <use xlink:href="#DejaVuSans-73" x="52.099609"/>
      <use xlink:href="#DejaVuSans-70" x="104.199219"/>
      <use xlink:href="#DejaVuSans-32" x="167.675781"/>
      <use xlink:href="#DejaVuSans-34" x="231.298828"/>
      <use xlink:href="#DejaVuSans-35" x="294.921875"/>
     </g>
    </g>
    <g id="line2d_21">
     <path d="M 377.145312 260.507812 
L 387.145312 260.507812 
L 397.145312 260.507812 
" style="fill: none; stroke: #2ca02c; stroke-width: 1.5; stroke-linecap: square"/>
    </g>
    <g id="text_18">
     <!-- ssp370 -->
     <g transform="translate(405.145312 264.007812) scale(0.1 -0.1)">
      <defs>
       <path id="DejaVuSans-37" d="M 525 4666 
L 3525 4666 
L 3525 4397 
L 1831 0 
L 1172 0 
L 2766 4134 
L 525 4134 
L 525 4666 
z
" transform="scale(0.015625)"/>
      </defs>
      <use xlink:href="#DejaVuSans-73"/>
      <use xlink:href="#DejaVuSans-73" x="52.099609"/>
      <use xlink:href="#DejaVuSans-70" x="104.199219"/>
      <use xlink:href="#DejaVuSans-33" x="167.675781"/>
      <use xlink:href="#DejaVuSans-37" x="231.298828"/>
      <use xlink:href="#DejaVuSans-30" x="294.921875"/>
     </g>
    </g>
    <g id="line2d_22">
     <path d="M 377.145312 275.185937 
L 387.145312 275.185937 
L 397.145312 275.185937 
" style="fill: none; stroke: #d62728; stroke-width: 1.5; stroke-linecap: square"/>
    </g>
    <g id="text_19">
     <!-- ssp460 -->
     <g transform="translate(405.145312 278.685937) scale(0.1 -0.1)">
      <defs>
       <path id="DejaVuSans-36" d="M 2113 2584 
Q 1688 2584 1439 2293 
Q 1191 2003 1191 1497 
Q 1191 994 1439 701 
Q 1688 409 2113 409 
Q 2538 409 2786 701 
Q 3034 994 3034 1497 
Q 3034 2003 2786 2293 
Q 2538 2584 2113 2584 
z
M 3366 4563 
L 3366 3988 
Q 3128 4100 2886 4159 
Q 2644 4219 2406 4219 
Q 1781 4219 1451 3797 
Q 1122 3375 1075 2522 
Q 1259 2794 1537 2939 
Q 1816 3084 2150 3084 
Q 2853 3084 3261 2657 
Q 3669 2231 3669 1497 
Q 3669 778 3244 343 
Q 2819 -91 2113 -91 
Q 1303 -91 875 529 
Q 447 1150 447 2328 
Q 447 3434 972 4092 
Q 1497 4750 2381 4750 
Q 2619 4750 2861 4703 
Q 3103 4656 3366 4563 
z
" transform="scale(0.015625)"/>
      </defs>
      <use xlink:href="#DejaVuSans-73"/>
      <use xlink:href="#DejaVuSans-73" x="52.099609"/>
      <use xlink:href="#DejaVuSans-70" x="104.199219"/>
      <use xlink:href="#DejaVuSans-34" x="167.675781"/>
      <use xlink:href="#DejaVuSans-36" x="231.298828"/>
      <use xlink:href="#DejaVuSans-30" x="294.921875"/>
     </g>
    </g>
    <g id="line2d_23">
     <path d="M 377.145312 289.864062 
L 387.145312 289.864062 
L 397.145312 289.864062 
" style="fill: none; stroke: #9467bd; stroke-width: 1.5; stroke-linecap: square"/>
    </g>
    <g id="text_20">
     <!-- ssp585 -->
     <g transform="translate(405.145312 293.364062) scale(0.1 -0.1)">
      <use xlink:href="#DejaVuSans-73"/>
      <use xlink:href="#DejaVuSans-73" x="52.099609"/>
      <use xlink:href="#DejaVuSans-70" x="104.199219"/>
      <use xlink:href="#DejaVuSans-35" x="167.675781"/>
      <use xlink:href="#DejaVuSans-38" x="231.298828"/>
      <use xlink:href="#DejaVuSans-35" x="294.921875"/>
     </g>
    </g>
   </g>
  </g>
 </g>
 <defs>
  <clipPath id="p536ff83dbc">
   <rect x="46.220313" y="10.8" width="403.779687" height="293.64375"/>
  </clipPath>
 </defs>
</svg>
