<?xml version="1.0" encoding="utf-8" standalone="no"?>
<!DOCTYPE svg PUBLIC "-//W3C//DTD SVG 1.1//EN"
  "http://www.w3.org/Graphics/SVG/1.1/DTD/svg11.dtd">
<svg xmlns:xlink="http://www.w3.org/1999/xlink" width="460.8pt" height="345.6pt" viewBox="0 0 460.8 345.6" xmlns="http://www.w3.org/2000/svg" version="1.1">
 <metadata>
  <rdf:RDF xmlns:dc="http://purl.org/dc/elements/1.1/" xmlns:cc="http://creativecommons.org/ns#" xmlns:rdf="http://www.w3.org/1999/02/22-rdf-syntax-ns#">
   <cc:Work>
    <dc:type rdf:resource="http://purl.org/dc/dcmitype/StillImage"/>
    <dc:date>2024-08-29T16:29:12.042072</dc:date>
    <dc:format>image/svg+xml</dc:format>
    <dc:creator>
     <cc:Agent>
      <dc:title>Matplotlib v3.9.0, https://matplotlib.org/</dc:title>
     </cc:Agent>
    </dc:creator>
   </cc:Work>
  </rdf:RDF>
 </metadata>
 <defs>
  <style type="text/css">*{stroke-linejoin: round; stroke-linecap: butt}</style>
 </defs>
 <g id="figure_1">
  <g id="axes_1">
   <g id="patch_1">
    <path d="M 47.38125 304.44375 
L 450 304.44375 
L 450 10.8 
L 47.38125 10.8 
L 47.38125 304.44375 
z
" style="fill: none"/>
   </g>
   <g id="matplotlib.axis_1">
    <g id="xtick_1">
     <g id="line2d_1">
      <defs>
       <path id="m19b2acc2e0" d="M 0 0 
L 0 3.5 
" style="stroke: #000000; stroke-width: 0.8"/>
      </defs>
      <g>
       <use xlink:href="#m19b2acc2e0" x="90.083239" y="304.44375" style="stroke: #000000; stroke-width: 0.8"/>
      </g>
     </g>
     <g id="text_1">
      <!-- 1800 -->
      <g transform="translate(77.358239 319.042187) scale(0.1 -0.1)">
       <defs>
        <path id="DejaVuSans-31" d="M 794 531 
L 1825 531 
L 1825 4091 
L 703 3866 
L 703 4441 
L 1819 4666 
L 2450 4666 
L 2450 531 
L 3481 531 
L 3481 0 
L 794 0 
L 794 531 
z
" transform="scale(0.015625)"/>
        <path id="DejaVuSans-38" d="M 2034 2216 
Q 1584 2216 1326 1975 
Q 1069 1734 1069 1313 
Q 1069 891 1326 650 
Q 1584 409 2034 409 
Q 2484 409 2743 651 
Q 3003 894 3003 1313 
Q 3003 1734 2745 1975 
Q 2488 2216 2034 2216 
z
M 1403 2484 
Q 997 2584 770 2862 
Q 544 3141 544 3541 
Q 544 4100 942 4425 
Q 1341 4750 2034 4750 
Q 2731 4750 3128 4425 
Q 3525 4100 3525 3541 
Q 3525 3141 3298 2862 
Q 3072 2584 2669 2484 
Q 3125 2378 3379 2068 
Q 3634 1759 3634 1313 
Q 3634 634 3220 271 
Q 2806 -91 2034 -91 
Q 1263 -91 848 271 
Q 434 634 434 1313 
Q 434 1759 690 2068 
Q 947 2378 1403 2484 
z
M 1172 3481 
Q 1172 3119 1398 2916 
Q 1625 2713 2034 2713 
Q 2441 2713 2670 2916 
Q 2900 3119 2900 3481 
Q 2900 3844 2670 4047 
Q 2441 4250 2034 4250 
Q 1625 4250 1398 4047 
Q 1172 3844 1172 3481 
z
" transform="scale(0.015625)"/>
        <path id="DejaVuSans-30" d="M 2034 4250 
Q 1547 4250 1301 3770 
Q 1056 3291 1056 2328 
Q 1056 1369 1301 889 
Q 1547 409 2034 409 
Q 2525 409 2770 889 
Q 3016 1369 3016 2328 
Q 3016 3291 2770 3770 
Q 2525 4250 2034 4250 
z
M 2034 4750 
Q 2819 4750 3233 4129 
Q 3647 3509 3647 2328 
Q 3647 1150 3233 529 
Q 2819 -91 2034 -91 
Q 1250 -91 836 529 
Q 422 1150 422 2328 
Q 422 3509 836 4129 
Q 1250 4750 2034 4750 
z
" transform="scale(0.015625)"/>
       </defs>
       <use xlink:href="#DejaVuSans-31"/>
       <use xlink:href="#DejaVuSans-38" x="63.623047"/>
       <use xlink:href="#DejaVuSans-30" x="127.246094"/>
       <use xlink:href="#DejaVuSans-30" x="190.869141"/>
      </g>
     </g>
    </g>
    <g id="xtick_2">
     <g id="line2d_2">
      <g>
       <use xlink:href="#m19b2acc2e0" x="138.885511" y="304.44375" style="stroke: #000000; stroke-width: 0.8"/>
      </g>
     </g>
     <g id="text_2">
      <!-- 1900 -->
      <g transform="translate(126.160511 319.042187) scale(0.1 -0.1)">
       <defs>
        <path id="DejaVuSans-39" d="M 703 97 
L 703 672 
Q 941 559 1184 500 
Q 1428 441 1663 441 
Q 2288 441 2617 861 
Q 2947 1281 2994 2138 
Q 2813 1869 2534 1725 
Q 2256 1581 1919 1581 
Q 1219 1581 811 2004 
Q 403 2428 403 3163 
Q 403 3881 828 4315 
Q 1253 4750 1959 4750 
Q 2769 4750 3195 4129 
Q 3622 3509 3622 2328 
Q 3622 1225 3098 567 
Q 2575 -91 1691 -91 
Q 1453 -91 1209 -44 
Q 966 3 703 97 
z
M 1959 2075 
Q 2384 2075 2632 2365 
Q 2881 2656 2881 3163 
Q 2881 3666 2632 3958 
Q 2384 4250 1959 4250 
Q 1534 4250 1286 3958 
Q 1038 3666 1038 3163 
Q 1038 2656 1286 2365 
Q 1534 2075 1959 2075 
z
" transform="scale(0.015625)"/>
       </defs>
       <use xlink:href="#DejaVuSans-31"/>
       <use xlink:href="#DejaVuSans-39" x="63.623047"/>
       <use xlink:href="#DejaVuSans-30" x="127.246094"/>
       <use xlink:href="#DejaVuSans-30" x="190.869141"/>
      </g>
     </g>
    </g>
    <g id="xtick_3">
     <g id="line2d_3">
      <g>
       <use xlink:href="#m19b2acc2e0" x="187.687784" y="304.44375" style="stroke: #000000; stroke-width: 0.8"/>
      </g>
     </g>
     <g id="text_3">
      <!-- 2000 -->
      <g transform="translate(174.962784 319.042187) scale(0.1 -0.1)">
       <defs>
        <path id="DejaVuSans-32" d="M 1228 531 
L 3431 531 
L 3431 0 
L 469 0 
L 469 531 
Q 828 903 1448 1529 
Q 2069 2156 2228 2338 
Q 2531 2678 2651 2914 
Q 2772 3150 2772 3378 
Q 2772 3750 2511 3984 
Q 2250 4219 1831 4219 
Q 1534 4219 1204 4116 
Q 875 4013 500 3803 
L 500 4441 
Q 881 4594 1212 4672 
Q 1544 4750 1819 4750 
Q 2544 4750 2975 4387 
Q 3406 4025 3406 3419 
Q 3406 3131 3298 2873 
Q 3191 2616 2906 2266 
Q 2828 2175 2409 1742 
Q 1991 1309 1228 531 
z
" transform="scale(0.015625)"/>
       </defs>
       <use xlink:href="#DejaVuSans-32"/>
       <use xlink:href="#DejaVuSans-30" x="63.623047"/>
       <use xlink:href="#DejaVuSans-30" x="127.246094"/>
       <use xlink:href="#DejaVuSans-30" x="190.869141"/>
      </g>
     </g>
    </g>
    <g id="xtick_4">
     <g id="line2d_4">
      <g>
       <use xlink:href="#m19b2acc2e0" x="236.490057" y="304.44375" style="stroke: #000000; stroke-width: 0.8"/>
      </g>
     </g>
     <g id="text_4">
      <!-- 2100 -->
      <g transform="translate(223.765057 319.042187) scale(0.1 -0.1)">
       <use xlink:href="#DejaVuSans-32"/>
       <use xlink:href="#DejaVuSans-31" x="63.623047"/>
       <use xlink:href="#DejaVuSans-30" x="127.246094"/>
       <use xlink:href="#DejaVuSans-30" x="190.869141"/>
      </g>
     </g>
    </g>
    <g id="xtick_5">
     <g id="line2d_5">
      <g>
       <use xlink:href="#m19b2acc2e0" x="285.29233" y="304.44375" style="stroke: #000000; stroke-width: 0.8"/>
      </g>
     </g>
     <g id="text_5">
      <!-- 2200 -->
      <g transform="translate(272.56733 319.042187) scale(0.1 -0.1)">
       <use xlink:href="#DejaVuSans-32"/>
       <use xlink:href="#DejaVuSans-32" x="63.623047"/>
       <use xlink:href="#DejaVuSans-30" x="127.246094"/>
       <use xlink:href="#DejaVuSans-30" x="190.869141"/>
      </g>
     </g>
    </g>
    <g id="xtick_6">
     <g id="line2d_6">
      <g>
       <use xlink:href="#m19b2acc2e0" x="334.094602" y="304.44375" style="stroke: #000000; stroke-width: 0.8"/>
      </g>
     </g>
     <g id="text_6">
      <!-- 2300 -->
      <g transform="translate(321.369602 319.042187) scale(0.1 -0.1)">
       <defs>
        <path id="DejaVuSans-33" d="M 2597 2516 
Q 3050 2419 3304 2112 
Q 3559 1806 3559 1356 
Q 3559 666 3084 287 
Q 2609 -91 1734 -91 
Q 1441 -91 1130 -33 
Q 819 25 488 141 
L 488 750 
Q 750 597 1062 519 
Q 1375 441 1716 441 
Q 2309 441 2620 675 
Q 2931 909 2931 1356 
Q 2931 1769 2642 2001 
Q 2353 2234 1838 2234 
L 1294 2234 
L 1294 2753 
L 1863 2753 
Q 2328 2753 2575 2939 
Q 2822 3125 2822 3475 
Q 2822 3834 2567 4026 
Q 2313 4219 1838 4219 
Q 1578 4219 1281 4162 
Q 984 4106 628 3988 
L 628 4550 
Q 988 4650 1302 4700 
Q 1616 4750 1894 4750 
Q 2613 4750 3031 4423 
Q 3450 4097 3450 3541 
Q 3450 3153 3228 2886 
Q 3006 2619 2597 2516 
z
" transform="scale(0.015625)"/>
       </defs>
       <use xlink:href="#DejaVuSans-32"/>
       <use xlink:href="#DejaVuSans-33" x="63.623047"/>
       <use xlink:href="#DejaVuSans-30" x="127.246094"/>
       <use xlink:href="#DejaVuSans-30" x="190.869141"/>
      </g>
     </g>
    </g>
    <g id="xtick_7">
     <g id="line2d_7">
      <g>
       <use xlink:href="#m19b2acc2e0" x="382.896875" y="304.44375" style="stroke: #000000; stroke-width: 0.8"/>
      </g>
     </g>
     <g id="text_7">
      <!-- 2400 -->
      <g transform="translate(370.171875 319.042187) scale(0.1 -0.1)">
       <defs>
        <path id="DejaVuSans-34" d="M 2419 4116 
L 825 1625 
L 2419 1625 
L 2419 4116 
z
M 2253 4666 
L 3047 4666 
L 3047 1625 
L 3713 1625 
L 3713 1100 
L 3047 1100 
L 3047 0 
L 2419 0 
L 2419 1100 
L 313 1100 
L 313 1709 
L 2253 4666 
z
" transform="scale(0.015625)"/>
       </defs>
       <use xlink:href="#DejaVuSans-32"/>
       <use xlink:href="#DejaVuSans-34" x="63.623047"/>
       <use xlink:href="#DejaVuSans-30" x="127.246094"/>
       <use xlink:href="#DejaVuSans-30" x="190.869141"/>
      </g>
     </g>
    </g>
    <g id="xtick_8">
     <g id="line2d_8">
      <g>
       <use xlink:href="#m19b2acc2e0" x="431.699148" y="304.44375" style="stroke: #000000; stroke-width: 0.8"/>
      </g>
     </g>
     <g id="text_8">
      <!-- 2500 -->
      <g transform="translate(418.974148 319.042187) scale(0.1 -0.1)">
       <defs>
        <path id="DejaVuSans-35" d="M 691 4666 
L 3169 4666 
L 3169 4134 
L 1269 4134 
L 1269 2991 
Q 1406 3038 1543 3061 
Q 1681 3084 1819 3084 
Q 2600 3084 3056 2656 
Q 3513 2228 3513 1497 
Q 3513 744 3044 326 
Q 2575 -91 1722 -91 
Q 1428 -91 1123 -41 
Q 819 9 494 109 
L 494 744 
Q 775 591 1075 516 
Q 1375 441 1709 441 
Q 2250 441 2565 725 
Q 2881 1009 2881 1497 
Q 2881 1984 2565 2268 
Q 2250 2553 1709 2553 
Q 1456 2553 1204 2497 
Q 953 2441 691 2322 
L 691 4666 
z
" transform="scale(0.015625)"/>
       </defs>
       <use xlink:href="#DejaVuSans-32"/>
       <use xlink:href="#DejaVuSans-35" x="63.623047"/>
       <use xlink:href="#DejaVuSans-30" x="127.246094"/>
       <use xlink:href="#DejaVuSans-30" x="190.869141"/>
      </g>
     </g>
    </g>
    <g id="text_9">
     <!-- Year -->
     <g transform="translate(238.103125 332.720312) scale(0.1 -0.1)">
      <defs>
       <path id="DejaVuSans-59" d="M -13 4666 
L 666 4666 
L 1959 2747 
L 3244 4666 
L 3922 4666 
L 2272 2222 
L 2272 0 
L 1638 0 
L 1638 2222 
L -13 4666 
z
" transform="scale(0.015625)"/>
       <path id="DejaVuSans-65" d="M 3597 1894 
L 3597 1613 
L 953 1613 
Q 991 1019 1311 708 
Q 1631 397 2203 397 
Q 2534 397 2845 478 
Q 3156 559 3463 722 
L 3463 178 
Q 3153 47 2828 -22 
Q 2503 -91 2169 -91 
Q 1331 -91 842 396 
Q 353 884 353 1716 
Q 353 2575 817 3079 
Q 1281 3584 2069 3584 
Q 2775 3584 3186 3129 
Q 3597 2675 3597 1894 
z
M 3022 2063 
Q 3016 2534 2758 2815 
Q 2500 3097 2075 3097 
Q 1594 3097 1305 2825 
Q 1016 2553 972 2059 
L 3022 2063 
z
" transform="scale(0.015625)"/>
       <path id="DejaVuSans-61" d="M 2194 1759 
Q 1497 1759 1228 1600 
Q 959 1441 959 1056 
Q 959 750 1161 570 
Q 1363 391 1709 391 
Q 2188 391 2477 730 
Q 2766 1069 2766 1631 
L 2766 1759 
L 2194 1759 
z
M 3341 1997 
L 3341 0 
L 2766 0 
L 2766 531 
Q 2569 213 2275 61 
Q 1981 -91 1556 -91 
Q 1019 -91 701 211 
Q 384 513 384 1019 
Q 384 1609 779 1909 
Q 1175 2209 1959 2209 
L 2766 2209 
L 2766 2266 
Q 2766 2663 2505 2880 
Q 2244 3097 1772 3097 
Q 1472 3097 1187 3025 
Q 903 2953 641 2809 
L 641 3341 
Q 956 3463 1253 3523 
Q 1550 3584 1831 3584 
Q 2591 3584 2966 3190 
Q 3341 2797 3341 1997 
z
" transform="scale(0.015625)"/>
       <path id="DejaVuSans-72" d="M 2631 2963 
Q 2534 3019 2420 3045 
Q 2306 3072 2169 3072 
Q 1681 3072 1420 2755 
Q 1159 2438 1159 1844 
L 1159 0 
L 581 0 
L 581 3500 
L 1159 3500 
L 1159 2956 
Q 1341 3275 1631 3429 
Q 1922 3584 2338 3584 
Q 2397 3584 2469 3576 
Q 2541 3569 2628 3553 
L 2631 2963 
z
" transform="scale(0.015625)"/>
      </defs>
      <use xlink:href="#DejaVuSans-59"/>
      <use xlink:href="#DejaVuSans-65" x="47.833984"/>
      <use xlink:href="#DejaVuSans-61" x="109.357422"/>
      <use xlink:href="#DejaVuSans-72" x="170.636719"/>
     </g>
    </g>
   </g>
   <g id="matplotlib.axis_2">
    <g id="ytick_1">
     <g id="line2d_9">
      <defs>
       <path id="me18e631562" d="M 0 0 
L -3.5 0 
" style="stroke: #000000; stroke-width: 0.8"/>
      </defs>
      <g>
       <use xlink:href="#me18e631562" x="47.38125" y="291.096307" style="stroke: #000000; stroke-width: 0.8"/>
      </g>
     </g>
     <g id="text_10">
      <!-- 0.0 -->
      <g transform="translate(24.478125 294.895526) scale(0.1 -0.1)">
       <defs>
        <path id="DejaVuSans-2e" d="M 684 794 
L 1344 794 
L 1344 0 
L 684 0 
L 684 794 
z
" transform="scale(0.015625)"/>
       </defs>
       <use xlink:href="#DejaVuSans-30"/>
       <use xlink:href="#DejaVuSans-2e" x="63.623047"/>
       <use xlink:href="#DejaVuSans-30" x="95.410156"/>
      </g>
     </g>
    </g>
    <g id="ytick_2">
     <g id="line2d_10">
      <g>
       <use xlink:href="#me18e631562" x="47.38125" y="239.272677" style="stroke: #000000; stroke-width: 0.8"/>
      </g>
     </g>
     <g id="text_11">
      <!-- 0.2 -->
      <g transform="translate(24.478125 243.071896) scale(0.1 -0.1)">
       <use xlink:href="#DejaVuSans-30"/>
       <use xlink:href="#DejaVuSans-2e" x="63.623047"/>
       <use xlink:href="#DejaVuSans-32" x="95.410156"/>
      </g>
     </g>
    </g>
    <g id="ytick_3">
     <g id="line2d_11">
      <g>
       <use xlink:href="#me18e631562" x="47.38125" y="187.449047" style="stroke: #000000; stroke-width: 0.8"/>
      </g>
     </g>
     <g id="text_12">
      <!-- 0.4 -->
      <g transform="translate(24.478125 191.248266) scale(0.1 -0.1)">
       <use xlink:href="#DejaVuSans-30"/>
       <use xlink:href="#DejaVuSans-2e" x="63.623047"/>
       <use xlink:href="#DejaVuSans-34" x="95.410156"/>
      </g>
     </g>
    </g>
    <g id="ytick_4">
     <g id="line2d_12">
      <g>
       <use xlink:href="#me18e631562" x="47.38125" y="135.625417" style="stroke: #000000; stroke-width: 0.8"/>
      </g>
     </g>
     <g id="text_13">
      <!-- 0.6 -->
      <g transform="translate(24.478125 139.424636) scale(0.1 -0.1)">
       <defs>
        <path id="DejaVuSans-36" d="M 2113 2584 
Q 1688 2584 1439 2293 
Q 1191 2003 1191 1497 
Q 1191 994 1439 701 
Q 1688 409 2113 409 
Q 2538 409 2786 701 
Q 3034 994 3034 1497 
Q 3034 2003 2786 2293 
Q 2538 2584 2113 2584 
z
M 3366 4563 
L 3366 3988 
Q 3128 4100 2886 4159 
Q 2644 4219 2406 4219 
Q 1781 4219 1451 3797 
Q 1122 3375 1075 2522 
Q 1259 2794 1537 2939 
Q 1816 3084 2150 3084 
Q 2853 3084 3261 2657 
Q 3669 2231 3669 1497 
Q 3669 778 3244 343 
Q 2819 -91 2113 -91 
Q 1303 -91 875 529 
Q 447 1150 447 2328 
Q 447 3434 972 4092 
Q 1497 4750 2381 4750 
Q 2619 4750 2861 4703 
Q 3103 4656 3366 4563 
z
" transform="scale(0.015625)"/>
       </defs>
       <use xlink:href="#DejaVuSans-30"/>
       <use xlink:href="#DejaVuSans-2e" x="63.623047"/>
       <use xlink:href="#DejaVuSans-36" x="95.410156"/>
      </g>
     </g>
    </g>
    <g id="ytick_5">
     <g id="line2d_13">
      <g>
       <use xlink:href="#me18e631562" x="47.38125" y="83.801787" style="stroke: #000000; stroke-width: 0.8"/>
      </g>
     </g>
     <g id="text_14">
      <!-- 0.8 -->
      <g transform="translate(24.478125 87.601006) scale(0.1 -0.1)">
       <use xlink:href="#DejaVuSans-30"/>
       <use xlink:href="#DejaVuSans-2e" x="63.623047"/>
       <use xlink:href="#DejaVuSans-38" x="95.410156"/>
      </g>
     </g>
    </g>
    <g id="ytick_6">
     <g id="line2d_14">
      <g>
       <use xlink:href="#me18e631562" x="47.38125" y="31.978157" style="stroke: #000000; stroke-width: 0.8"/>
      </g>
     </g>
     <g id="text_15">
      <!-- 1.0 -->
      <g transform="translate(24.478125 35.777376) scale(0.1 -0.1)">
       <use xlink:href="#DejaVuSans-31"/>
       <use xlink:href="#DejaVuSans-2e" x="63.623047"/>
       <use xlink:href="#DejaVuSans-30" x="95.410156"/>
      </g>
     </g>
    </g>
    <g id="text_16">
     <!-- CH4 forcing (W m-2) -->
     <g transform="translate(18.398438 208.766406) rotate(-90) scale(0.1 -0.1)">
      <defs>
       <path id="DejaVuSans-43" d="M 4122 4306 
L 4122 3641 
Q 3803 3938 3442 4084 
Q 3081 4231 2675 4231 
Q 1875 4231 1450 3742 
Q 1025 3253 1025 2328 
Q 1025 1406 1450 917 
Q 1875 428 2675 428 
Q 3081 428 3442 575 
Q 3803 722 4122 1019 
L 4122 359 
Q 3791 134 3420 21 
Q 3050 -91 2638 -91 
Q 1578 -91 968 557 
Q 359 1206 359 2328 
Q 359 3453 968 4101 
Q 1578 4750 2638 4750 
Q 3056 4750 3426 4639 
Q 3797 4528 4122 4306 
z
" transform="scale(0.015625)"/>
       <path id="DejaVuSans-48" d="M 628 4666 
L 1259 4666 
L 1259 2753 
L 3553 2753 
L 3553 4666 
L 4184 4666 
L 4184 0 
L 3553 0 
L 3553 2222 
L 1259 2222 
L 1259 0 
L 628 0 
L 628 4666 
z
" transform="scale(0.015625)"/>
       <path id="DejaVuSans-20" transform="scale(0.015625)"/>
       <path id="DejaVuSans-66" d="M 2375 4863 
L 2375 4384 
L 1825 4384 
Q 1516 4384 1395 4259 
Q 1275 4134 1275 3809 
L 1275 3500 
L 2222 3500 
L 2222 3053 
L 1275 3053 
L 1275 0 
L 697 0 
L 697 3053 
L 147 3053 
L 147 3500 
L 697 3500 
L 697 3744 
Q 697 4328 969 4595 
Q 1241 4863 1831 4863 
L 2375 4863 
z
" transform="scale(0.015625)"/>
       <path id="DejaVuSans-6f" d="M 1959 3097 
Q 1497 3097 1228 2736 
Q 959 2375 959 1747 
Q 959 1119 1226 758 
Q 1494 397 1959 397 
Q 2419 397 2687 759 
Q 2956 1122 2956 1747 
Q 2956 2369 2687 2733 
Q 2419 3097 1959 3097 
z
M 1959 3584 
Q 2709 3584 3137 3096 
Q 3566 2609 3566 1747 
Q 3566 888 3137 398 
Q 2709 -91 1959 -91 
Q 1206 -91 779 398 
Q 353 888 353 1747 
Q 353 2609 779 3096 
Q 1206 3584 1959 3584 
z
" transform="scale(0.015625)"/>
       <path id="DejaVuSans-63" d="M 3122 3366 
L 3122 2828 
Q 2878 2963 2633 3030 
Q 2388 3097 2138 3097 
Q 1578 3097 1268 2742 
Q 959 2388 959 1747 
Q 959 1106 1268 751 
Q 1578 397 2138 397 
Q 2388 397 2633 464 
Q 2878 531 3122 666 
L 3122 134 
Q 2881 22 2623 -34 
Q 2366 -91 2075 -91 
Q 1284 -91 818 406 
Q 353 903 353 1747 
Q 353 2603 823 3093 
Q 1294 3584 2113 3584 
Q 2378 3584 2631 3529 
Q 2884 3475 3122 3366 
z
" transform="scale(0.015625)"/>
       <path id="DejaVuSans-69" d="M 603 3500 
L 1178 3500 
L 1178 0 
L 603 0 
L 603 3500 
z
M 603 4863 
L 1178 4863 
L 1178 4134 
L 603 4134 
L 603 4863 
z
" transform="scale(0.015625)"/>
       <path id="DejaVuSans-6e" d="M 3513 2113 
L 3513 0 
L 2938 0 
L 2938 2094 
Q 2938 2591 2744 2837 
Q 2550 3084 2163 3084 
Q 1697 3084 1428 2787 
Q 1159 2491 1159 1978 
L 1159 0 
L 581 0 
L 581 3500 
L 1159 3500 
L 1159 2956 
Q 1366 3272 1645 3428 
Q 1925 3584 2291 3584 
Q 2894 3584 3203 3211 
Q 3513 2838 3513 2113 
z
" transform="scale(0.015625)"/>
       <path id="DejaVuSans-67" d="M 2906 1791 
Q 2906 2416 2648 2759 
Q 2391 3103 1925 3103 
Q 1463 3103 1205 2759 
Q 947 2416 947 1791 
Q 947 1169 1205 825 
Q 1463 481 1925 481 
Q 2391 481 2648 825 
Q 2906 1169 2906 1791 
z
M 3481 434 
Q 3481 -459 3084 -895 
Q 2688 -1331 1869 -1331 
Q 1566 -1331 1297 -1286 
Q 1028 -1241 775 -1147 
L 775 -588 
Q 1028 -725 1275 -790 
Q 1522 -856 1778 -856 
Q 2344 -856 2625 -561 
Q 2906 -266 2906 331 
L 2906 616 
Q 2728 306 2450 153 
Q 2172 0 1784 0 
Q 1141 0 747 490 
Q 353 981 353 1791 
Q 353 2603 747 3093 
Q 1141 3584 1784 3584 
Q 2172 3584 2450 3431 
Q 2728 3278 2906 2969 
L 2906 3500 
L 3481 3500 
L 3481 434 
z
" transform="scale(0.015625)"/>
       <path id="DejaVuSans-28" d="M 1984 4856 
Q 1566 4138 1362 3434 
Q 1159 2731 1159 2009 
Q 1159 1288 1364 580 
Q 1569 -128 1984 -844 
L 1484 -844 
Q 1016 -109 783 600 
Q 550 1309 550 2009 
Q 550 2706 781 3412 
Q 1013 4119 1484 4856 
L 1984 4856 
z
" transform="scale(0.015625)"/>
       <path id="DejaVuSans-57" d="M 213 4666 
L 850 4666 
L 1831 722 
L 2809 4666 
L 3519 4666 
L 4500 722 
L 5478 4666 
L 6119 4666 
L 4947 0 
L 4153 0 
L 3169 4050 
L 2175 0 
L 1381 0 
L 213 4666 
z
" transform="scale(0.015625)"/>
       <path id="DejaVuSans-6d" d="M 3328 2828 
Q 3544 3216 3844 3400 
Q 4144 3584 4550 3584 
Q 5097 3584 5394 3201 
Q 5691 2819 5691 2113 
L 5691 0 
L 5113 0 
L 5113 2094 
Q 5113 2597 4934 2840 
Q 4756 3084 4391 3084 
Q 3944 3084 3684 2787 
Q 3425 2491 3425 1978 
L 3425 0 
L 2847 0 
L 2847 2094 
Q 2847 2600 2669 2842 
Q 2491 3084 2119 3084 
Q 1678 3084 1418 2786 
Q 1159 2488 1159 1978 
L 1159 0 
L 581 0 
L 581 3500 
L 1159 3500 
L 1159 2956 
Q 1356 3278 1631 3431 
Q 1906 3584 2284 3584 
Q 2666 3584 2933 3390 
Q 3200 3197 3328 2828 
z
" transform="scale(0.015625)"/>
       <path id="DejaVuSans-2d" d="M 313 2009 
L 1997 2009 
L 1997 1497 
L 313 1497 
L 313 2009 
z
" transform="scale(0.015625)"/>
       <path id="DejaVuSans-29" d="M 513 4856 
L 1013 4856 
Q 1481 4119 1714 3412 
Q 1947 2706 1947 2009 
Q 1947 1309 1714 600 
Q 1481 -109 1013 -844 
L 513 -844 
Q 928 -128 1133 580 
Q 1338 1288 1338 2009 
Q 1338 2731 1133 3434 
Q 928 4138 513 4856 
z
" transform="scale(0.015625)"/>
      </defs>
      <use xlink:href="#DejaVuSans-43"/>
      <use xlink:href="#DejaVuSans-48" x="69.824219"/>
      <use xlink:href="#DejaVuSans-34" x="145.019531"/>
      <use xlink:href="#DejaVuSans-20" x="208.642578"/>
      <use xlink:href="#DejaVuSans-66" x="240.429688"/>
      <use xlink:href="#DejaVuSans-6f" x="275.634766"/>
      <use xlink:href="#DejaVuSans-72" x="336.816406"/>
      <use xlink:href="#DejaVuSans-63" x="375.679688"/>
      <use xlink:href="#DejaVuSans-69" x="430.660156"/>
      <use xlink:href="#DejaVuSans-6e" x="458.443359"/>
      <use xlink:href="#DejaVuSans-67" x="521.822266"/>
      <use xlink:href="#DejaVuSans-20" x="585.298828"/>
      <use xlink:href="#DejaVuSans-28" x="617.085938"/>
      <use xlink:href="#DejaVuSans-57" x="656.099609"/>
      <use xlink:href="#DejaVuSans-20" x="754.976562"/>
      <use xlink:href="#DejaVuSans-6d" x="786.763672"/>
      <use xlink:href="#DejaVuSans-2d" x="884.175781"/>
      <use xlink:href="#DejaVuSans-32" x="920.259766"/>
      <use xlink:href="#DejaVuSans-29" x="983.882812"/>
     </g>
    </g>
   </g>
   <g id="line2d_15">
    <path d="M 65.682102 291.096307 
L 66.658148 290.851447 
L 69.098261 290.36169 
L 70.074307 290.328049 
L 70.56233 290.428538 
L 71.538375 290.294683 
L 74.466511 289.492324 
L 75.93058 289.22396 
L 76.906625 288.932723 
L 77.88267 288.81839 
L 79.346739 288.593807 
L 80.810807 288.429244 
L 82.762898 288.188522 
L 85.691034 287.791203 
L 89.595216 286.946699 
L 92.03533 286.20716 
L 94.475443 285.227618 
L 98.379625 283.422115 
L 101.795784 282.079748 
L 104.235898 281.209539 
L 106.187989 280.718785 
L 107.164034 280.45089 
L 108.14008 280.406012 
L 109.116125 280.43637 
L 110.580193 280.110551 
L 111.556239 279.545223 
L 112.532284 278.978314 
L 113.50833 278.848351 
L 115.46042 278.682076 
L 117.412511 277.808205 
L 118.87658 276.942555 
L 119.852625 276.325873 
L 120.82867 275.440042 
L 123.756807 272.398557 
L 124.732852 271.814782 
L 127.172966 270.781201 
L 128.149011 270.288763 
L 130.589125 268.574809 
L 132.053193 267.350602 
L 134.493307 265.014885 
L 135.957375 263.432026 
L 136.445398 263.031513 
L 137.421443 262.588156 
L 138.397489 261.716303 
L 139.861557 260.207198 
L 140.34958 259.624736 
L 144.253761 253.56975 
L 144.741784 252.990297 
L 146.205852 251.896548 
L 146.693875 250.924289 
L 147.181898 250.215673 
L 148.157943 248.276037 
L 149.622011 245.341664 
L 150.110034 244.524451 
L 150.598057 243.940197 
L 151.08608 243.574168 
L 152.062125 243.087401 
L 153.03817 241.624163 
L 154.014216 240.17741 
L 155.478284 238.281992 
L 156.942352 236.365407 
L 157.430375 235.80077 
L 157.918398 234.979627 
L 158.894443 234.155901 
L 159.870489 232.936334 
L 161.334557 231.51674 
L 162.798625 229.372237 
L 163.286648 228.929078 
L 164.262693 227.59309 
L 165.238739 225.048852 
L 166.214784 221.712042 
L 167.19083 218.457963 
L 167.678852 217.243802 
L 168.654898 215.764641 
L 169.14292 214.173853 
L 170.118966 209.993134 
L 171.095011 207.044889 
L 171.583034 205.629961 
L 172.55908 201.541986 
L 173.535125 196.745475 
L 174.023148 194.684777 
L 175.487216 189.930052 
L 176.951284 183.863794 
L 178.415352 177.856901 
L 179.391398 174.682278 
L 180.367443 172.243636 
L 182.319534 167.112328 
L 183.783602 163.595422 
L 184.271625 163.298391 
L 185.24767 162.080382 
L 185.735693 161.895199 
L 186.223716 161.470264 
L 187.199761 159.804334 
L 187.687784 159.837921 
L 188.175807 159.997113 
L 188.66383 159.76071 
L 189.151852 159.303705 
L 189.639875 159.248028 
L 190.61592 159.35122 
L 191.103943 158.805791 
L 191.591966 157.870312 
L 192.079989 157.512165 
L 193.056034 156.445092 
L 193.544057 156.239132 
L 194.520102 154.659761 
L 195.496148 152.705934 
L 195.98417 150.65186 
L 196.472193 149.69459 
L 196.960216 149.020021 
L 197.448239 148.605636 
L 197.936261 148.433919 
L 198.424284 148.529399 
L 198.912307 148.914339 
L 199.40033 149.570266 
L 199.888352 150.479332 
L 200.864398 152.999191 
L 201.840443 156.368563 
L 203.304511 162.735187 
L 206.232648 175.367923 
L 209.160784 186.999011 
L 212.08892 197.571445 
L 214.041011 203.97942 
L 215.993102 209.479902 
L 217.945193 214.264535 
L 219.897284 218.494194 
L 222.337398 223.198962 
L 228.19367 233.612496 
L 231.121807 238.401767 
L 234.049943 242.821736 
L 236.002034 245.445843 
L 237.466102 247.143036 
L 238.93017 248.493261 
L 240.394239 249.539073 
L 242.34633 250.596527 
L 244.29842 251.394046 
L 246.738534 252.166164 
L 250.642716 253.12682 
L 258.45108 254.724279 
L 268.699557 256.896408 
L 276.995943 258.835003 
L 284.804307 260.892113 
L 301.885102 265.743297 
L 312.13358 268.5125 
L 314.573693 268.863253 
L 317.989852 269.125077 
L 323.358102 269.284793 
L 335.55867 269.346661 
L 431.699148 269.381966 
L 431.699148 269.381966 
" clip-path="url(#p0d8dcb2f77)" style="fill: none; stroke-dasharray: 5.55,2.4; stroke-dashoffset: 0; stroke: #348abd; stroke-width: 1.5"/>
   </g>
   <g id="line2d_16">
    <path d="M 65.682102 289.288574 
L 66.658148 289.05289 
L 69.098261 288.581476 
L 70.074307 288.54909 
L 70.56233 288.645813 
L 71.538375 288.516966 
L 74.954534 287.662346 
L 81.29883 286.639533 
L 86.66708 285.955583 
L 89.107193 285.422749 
L 92.03533 284.582351 
L 94.475443 283.639498 
L 98.379625 281.901708 
L 101.795784 280.609767 
L 104.235898 279.772342 
L 106.676011 279.161334 
L 107.652057 279.001148 
L 109.604148 278.958776 
L 110.580193 278.715572 
L 111.556239 278.17136 
L 112.532284 277.625593 
L 113.50833 277.500309 
L 115.46042 277.339909 
L 117.412511 276.498172 
L 118.87658 275.664388 
L 119.852625 275.070186 
L 120.82867 274.216809 
L 123.756807 271.286389 
L 124.732852 270.723534 
L 127.172966 269.726404 
L 128.149011 269.251525 
L 130.589125 267.599165 
L 132.053193 266.419047 
L 134.98133 263.620178 
L 135.957375 262.641002 
L 136.445398 262.254604 
L 137.421443 261.82667 
L 138.397489 260.985571 
L 139.861557 259.529155 
L 140.34958 258.966691 
L 144.253761 253.11811 
L 144.741784 252.557911 
L 146.205852 251.498515 
L 146.693875 250.559132 
L 147.66992 248.998181 
L 149.622011 245.165802 
L 150.110034 244.375192 
L 150.598057 243.810241 
L 151.08608 243.456467 
L 152.062125 242.985852 
L 153.03817 241.57154 
L 154.014216 240.172487 
L 155.478284 238.338941 
L 156.942352 236.483652 
L 157.430375 235.936422 
L 157.918398 235.141345 
L 158.894443 234.342056 
L 159.870489 233.157151 
L 161.334557 231.779926 
L 162.798625 229.703619 
L 163.286648 229.273814 
L 164.262693 227.978751 
L 165.238739 225.511758 
L 166.214784 222.274895 
L 167.19083 219.116689 
L 167.678852 217.937842 
L 168.654898 216.498654 
L 169.14292 214.952762 
L 170.118966 210.888985 
L 171.095011 208.019066 
L 171.583034 206.640725 
L 172.55908 202.659105 
L 173.535125 197.983917 
L 174.023148 195.973087 
L 175.487216 191.325785 
L 176.951284 185.390563 
L 178.415352 179.501389 
L 179.391398 176.380419 
L 180.367443 173.97568 
L 182.319534 168.900674 
L 183.783602 165.42373 
L 184.271625 165.127041 
L 185.24767 163.914656 
L 185.735693 163.719054 
L 186.223716 163.289494 
L 187.199761 161.630598 
L 187.687784 161.649367 
L 188.175807 161.796014 
L 188.66383 161.555149 
L 189.151852 161.096846 
L 189.639875 161.033482 
L 190.61592 161.113527 
L 191.103943 160.566783 
L 191.591966 159.632729 
L 192.079989 159.27024 
L 193.056034 158.192511 
L 193.544057 157.977646 
L 194.520102 156.392236 
L 195.496148 154.434284 
L 195.98417 152.395629 
L 196.472193 151.439063 
L 196.960216 150.7617 
L 197.448239 150.34151 
L 197.936261 150.161329 
L 198.424284 150.245685 
L 198.912307 150.616839 
L 199.40033 151.256486 
L 199.888352 152.14685 
L 200.864398 154.622076 
L 201.840443 157.936717 
L 203.304511 164.201217 
L 205.744625 174.617348 
L 208.672761 186.180637 
L 211.112875 194.990815 
L 213.552989 203.119874 
L 215.50508 208.692898 
L 217.45717 213.514766 
L 219.409261 217.75734 
L 221.849375 222.448861 
L 226.729602 230.968272 
L 229.657739 235.82627 
L 233.073898 241.021713 
L 235.514011 244.351681 
L 237.466102 246.598526 
L 238.93017 247.90905 
L 240.394239 248.923641 
L 242.34633 249.948944 
L 244.29842 250.721695 
L 247.226557 251.599368 
L 251.130739 252.502504 
L 260.891193 254.426978 
L 272.603739 256.909499 
L 280.412102 258.781748 
L 289.196511 261.13649 
L 311.157534 267.151325 
L 313.597648 267.572774 
L 317.013807 267.888809 
L 321.894034 268.073677 
L 331.166466 268.153422 
L 410.226148 268.230603 
L 431.699148 268.203529 
L 431.699148 268.203529 
" clip-path="url(#p0d8dcb2f77)" style="fill: none; stroke: #348abd; stroke-width: 1.5; stroke-linecap: square"/>
   </g>
   <g id="line2d_17">
    <path d="M 65.682102 291.096307 
L 66.658148 290.851447 
L 69.098261 290.36169 
L 70.074307 290.328049 
L 70.56233 290.428538 
L 71.538375 290.294683 
L 74.466511 289.492324 
L 75.93058 289.22396 
L 76.906625 288.932723 
L 77.88267 288.81839 
L 79.346739 288.593807 
L 80.810807 288.429244 
L 82.762898 288.188522 
L 85.691034 287.791203 
L 89.595216 286.946699 
L 92.03533 286.20716 
L 94.475443 285.227618 
L 98.379625 283.422115 
L 101.795784 282.079748 
L 104.235898 281.209539 
L 106.187989 280.718785 
L 107.164034 280.45089 
L 108.14008 280.406012 
L 109.116125 280.43637 
L 110.580193 280.110551 
L 111.556239 279.545223 
L 112.532284 278.978314 
L 113.50833 278.848351 
L 115.46042 278.682076 
L 117.412511 277.808205 
L 118.87658 276.942555 
L 119.852625 276.325873 
L 120.82867 275.440042 
L 123.756807 272.398557 
L 124.732852 271.814782 
L 127.172966 270.781201 
L 128.149011 270.288763 
L 130.589125 268.574809 
L 132.053193 267.350602 
L 134.493307 265.014885 
L 135.957375 263.432026 
L 136.445398 263.031513 
L 137.421443 262.588156 
L 138.397489 261.716303 
L 139.861557 260.207198 
L 140.34958 259.624736 
L 144.253761 253.56975 
L 144.741784 252.990297 
L 146.205852 251.896548 
L 146.693875 250.924289 
L 147.181898 250.215673 
L 148.157943 248.276037 
L 149.622011 245.341664 
L 150.110034 244.524451 
L 150.598057 243.940197 
L 151.08608 243.574168 
L 152.062125 243.087401 
L 153.03817 241.624163 
L 154.014216 240.17741 
L 155.478284 238.281992 
L 156.942352 236.365407 
L 157.430375 235.80077 
L 157.918398 234.979627 
L 158.894443 234.155901 
L 159.870489 232.936334 
L 161.334557 231.51674 
L 162.798625 229.372237 
L 163.286648 228.929078 
L 164.262693 227.59309 
L 165.238739 225.048852 
L 166.214784 221.712042 
L 167.19083 218.457963 
L 167.678852 217.243802 
L 168.654898 215.764641 
L 169.14292 214.173853 
L 170.118966 209.993134 
L 171.095011 207.044889 
L 171.583034 205.629961 
L 172.55908 201.541986 
L 173.535125 196.745475 
L 174.023148 194.684777 
L 175.487216 189.930052 
L 176.951284 183.863794 
L 178.415352 177.856901 
L 179.391398 174.682278 
L 180.367443 172.243636 
L 182.319534 167.112328 
L 183.783602 163.595422 
L 184.271625 163.298391 
L 185.24767 162.080382 
L 185.735693 161.895199 
L 186.223716 161.470264 
L 187.199761 159.804334 
L 187.687784 159.837921 
L 188.175807 159.997113 
L 188.66383 159.76071 
L 189.151852 159.303705 
L 189.639875 159.248028 
L 190.61592 159.35122 
L 191.103943 158.805791 
L 191.591966 157.870312 
L 192.079989 157.512165 
L 193.056034 156.445092 
L 193.544057 156.239132 
L 194.520102 154.659761 
L 195.496148 152.705922 
L 195.98417 150.541636 
L 197.448239 146.969058 
L 198.912307 144.031366 
L 200.864398 140.640519 
L 202.816489 137.683675 
L 203.792534 136.474017 
L 204.76858 135.591773 
L 205.744625 134.989534 
L 206.72067 134.62844 
L 207.696716 134.475117 
L 208.672761 134.576099 
L 209.648807 134.970155 
L 210.624852 135.618217 
L 211.600898 136.485364 
L 213.064966 138.139171 
L 214.529034 140.220901 
L 215.993102 142.670245 
L 221.849375 153.09624 
L 227.705648 162.033112 
L 229.169716 163.977943 
L 231.121807 166.149627 
L 233.073898 167.935638 
L 235.025989 169.398616 
L 237.466102 170.894705 
L 239.906216 172.515963 
L 242.834352 174.797591 
L 246.250511 177.762598 
L 250.642716 181.872488 
L 256.987011 188.14474 
L 265.283398 196.679703 
L 276.50792 208.577482 
L 286.756398 219.735032 
L 296.516852 230.670197 
L 305.789284 241.390514 
L 310.181489 246.40185 
L 311.645557 247.708705 
L 313.109625 248.635018 
L 314.573693 249.291367 
L 316.525784 249.877832 
L 318.965898 250.314406 
L 321.894034 250.593486 
L 326.774261 250.786383 
L 337.998784 250.889174 
L 431.699148 251.396595 
L 431.699148 251.396595 
" clip-path="url(#p0d8dcb2f77)" style="fill: none; stroke-dasharray: 5.55,2.4; stroke-dashoffset: 0; stroke: #188487; stroke-width: 1.5"/>
   </g>
   <g id="line2d_18">
    <path d="M 65.682102 289.288574 
L 66.658148 289.05289 
L 69.098261 288.581476 
L 70.074307 288.54909 
L 70.56233 288.645813 
L 71.538375 288.516966 
L 74.954534 287.662346 
L 81.29883 286.639533 
L 86.66708 285.955583 
L 89.107193 285.422749 
L 92.03533 284.582351 
L 94.475443 283.639498 
L 98.379625 281.901708 
L 101.795784 280.609767 
L 104.235898 279.772342 
L 106.676011 279.161334 
L 107.652057 279.001148 
L 109.604148 278.958776 
L 110.580193 278.715572 
L 111.556239 278.17136 
L 112.532284 277.625593 
L 113.50833 277.500309 
L 115.46042 277.339909 
L 117.412511 276.498172 
L 118.87658 275.664388 
L 119.852625 275.070186 
L 120.82867 274.216809 
L 123.756807 271.286389 
L 124.732852 270.723534 
L 127.172966 269.726404 
L 128.149011 269.251525 
L 130.589125 267.599165 
L 132.053193 266.419047 
L 134.98133 263.620178 
L 135.957375 262.641002 
L 136.445398 262.254604 
L 137.421443 261.82667 
L 138.397489 260.985571 
L 139.861557 259.529155 
L 140.34958 258.966691 
L 144.253761 253.11811 
L 144.741784 252.557911 
L 146.205852 251.498515 
L 146.693875 250.559132 
L 147.66992 248.998181 
L 149.622011 245.165802 
L 150.110034 244.375192 
L 150.598057 243.810241 
L 151.08608 243.456467 
L 152.062125 242.985852 
L 153.03817 241.57154 
L 154.014216 240.172487 
L 155.478284 238.338941 
L 156.942352 236.483652 
L 157.430375 235.936422 
L 157.918398 235.141345 
L 158.894443 234.342056 
L 159.870489 233.157151 
L 161.334557 231.779926 
L 162.798625 229.703619 
L 163.286648 229.273814 
L 164.262693 227.978751 
L 165.238739 225.511758 
L 166.214784 222.274895 
L 167.19083 219.116689 
L 167.678852 217.937842 
L 168.654898 216.498654 
L 169.14292 214.952762 
L 170.118966 210.888985 
L 171.095011 208.019066 
L 171.583034 206.640725 
L 172.55908 202.659105 
L 173.535125 197.983917 
L 174.023148 195.973087 
L 175.487216 191.325785 
L 176.951284 185.390563 
L 178.415352 179.501389 
L 179.391398 176.380419 
L 180.367443 173.97568 
L 182.319534 168.900674 
L 183.783602 165.42373 
L 184.271625 165.127041 
L 185.24767 163.914656 
L 185.735693 163.719054 
L 186.223716 163.289494 
L 187.199761 161.630598 
L 187.687784 161.649367 
L 188.175807 161.796014 
L 188.66383 161.555149 
L 189.151852 161.096846 
L 189.639875 161.033482 
L 190.61592 161.113527 
L 191.103943 160.566783 
L 191.591966 159.632729 
L 192.079989 159.27024 
L 193.056034 158.192511 
L 193.544057 157.977646 
L 194.520102 156.392236 
L 195.496148 154.434272 
L 195.98417 152.286624 
L 197.448239 148.72109 
L 198.912307 145.778066 
L 200.864398 142.368108 
L 202.816489 139.381738 
L 203.792534 138.153424 
L 204.76858 137.24973 
L 205.744625 136.623939 
L 206.72067 136.237751 
L 207.696716 136.058164 
L 208.672761 136.131842 
L 209.648807 136.497649 
L 210.624852 137.116769 
L 211.600898 137.954414 
L 213.064966 139.563081 
L 214.529034 141.598674 
L 215.993102 144.000794 
L 221.849375 154.241689 
L 227.705648 163.025824 
L 229.169716 164.938928 
L 231.121807 167.074538 
L 233.073898 168.83086 
L 235.025989 170.269934 
L 237.466102 171.742932 
L 239.906216 173.34064 
L 242.834352 175.589653 
L 246.250511 178.512011 
L 250.642716 182.561299 
L 256.987011 188.736696 
L 265.283398 197.130247 
L 276.995943 209.325423 
L 287.732443 220.801907 
L 297.492898 231.529127 
L 306.76533 242.033142 
L 310.181489 245.800898 
L 311.645557 247.075627 
L 313.109625 247.97939 
L 314.573693 248.620033 
L 316.525784 249.192911 
L 318.965898 249.62007 
L 321.894034 249.894092 
L 326.774261 250.085415 
L 337.998784 250.192509 
L 431.699148 250.7131 
L 431.699148 250.7131 
" clip-path="url(#p0d8dcb2f77)" style="fill: none; stroke: #188487; stroke-width: 1.5; stroke-linecap: square"/>
   </g>
   <g id="line2d_19">
    <path d="M 65.682102 291.096307 
L 66.658148 290.851447 
L 69.098261 290.36169 
L 70.074307 290.328049 
L 70.56233 290.428538 
L 71.538375 290.294683 
L 74.466511 289.492324 
L 75.93058 289.22396 
L 76.906625 288.932723 
L 77.88267 288.81839 
L 79.346739 288.593807 
L 80.810807 288.429244 
L 82.762898 288.188522 
L 85.691034 287.791203 
L 89.595216 286.946699 
L 92.03533 286.20716 
L 94.475443 285.227618 
L 98.379625 283.422115 
L 101.795784 282.079748 
L 104.235898 281.209539 
L 106.187989 280.718785 
L 107.164034 280.45089 
L 108.14008 280.406012 
L 109.116125 280.43637 
L 110.580193 280.110551 
L 111.556239 279.545223 
L 112.532284 278.978314 
L 113.50833 278.848351 
L 115.46042 278.682076 
L 117.412511 277.808205 
L 118.87658 276.942555 
L 119.852625 276.325873 
L 120.82867 275.440042 
L 123.756807 272.398557 
L 124.732852 271.814782 
L 127.172966 270.781201 
L 128.149011 270.288763 
L 130.589125 268.574809 
L 132.053193 267.350602 
L 134.493307 265.014885 
L 135.957375 263.432026 
L 136.445398 263.031513 
L 137.421443 262.588156 
L 138.397489 261.716303 
L 139.861557 260.207198 
L 140.34958 259.624736 
L 144.253761 253.56975 
L 144.741784 252.990297 
L 146.205852 251.896548 
L 146.693875 250.924289 
L 147.181898 250.215673 
L 148.157943 248.276037 
L 149.622011 245.341664 
L 150.110034 244.524451 
L 150.598057 243.940197 
L 151.08608 243.574168 
L 152.062125 243.087401 
L 153.03817 241.624163 
L 154.014216 240.17741 
L 155.478284 238.281992 
L 156.942352 236.365407 
L 157.430375 235.80077 
L 157.918398 234.979627 
L 158.894443 234.155901 
L 159.870489 232.936334 
L 161.334557 231.51674 
L 162.798625 229.372237 
L 163.286648 228.929078 
L 164.262693 227.59309 
L 165.238739 225.048852 
L 166.214784 221.712042 
L 167.19083 218.457963 
L 167.678852 217.243802 
L 168.654898 215.764641 
L 169.14292 214.173853 
L 170.118966 209.993134 
L 171.095011 207.044889 
L 171.583034 205.629961 
L 172.55908 201.541986 
L 173.535125 196.745475 
L 174.023148 194.684777 
L 175.487216 189.930052 
L 176.951284 183.863794 
L 178.415352 177.856901 
L 179.391398 174.682278 
L 180.367443 172.243636 
L 182.319534 167.112328 
L 183.783602 163.595422 
L 184.271625 163.298391 
L 185.24767 162.080382 
L 185.735693 161.895199 
L 186.223716 161.470264 
L 187.199761 159.804334 
L 187.687784 159.837921 
L 188.175807 159.997113 
L 188.66383 159.76071 
L 189.151852 159.303705 
L 189.639875 159.248028 
L 190.61592 159.35122 
L 191.103943 158.805791 
L 191.591966 157.870312 
L 192.079989 157.512165 
L 193.056034 156.445092 
L 193.544057 156.239132 
L 194.520102 154.659761 
L 195.496148 152.705915 
L 195.98417 150.472415 
L 198.424284 142.836835 
L 201.35242 132.89647 
L 206.72067 114.403197 
L 210.624852 101.98005 
L 215.50508 87.319034 
L 221.361352 70.313559 
L 227.217625 53.984378 
L 229.657739 47.610749 
L 232.585875 40.587681 
L 236.002034 33.002088 
L 237.466102 29.985301 
L 238.442148 28.535686 
L 239.418193 27.599508 
L 240.394239 27.095577 
L 241.370284 26.957062 
L 242.34633 27.126701 
L 243.322375 27.554762 
L 244.29842 28.202034 
L 245.762489 29.505614 
L 247.226557 31.126478 
L 249.178648 33.651519 
L 251.618761 37.209284 
L 255.03492 42.628705 
L 261.379216 53.207797 
L 272.603739 71.864424 
L 283.340239 89.198934 
L 307.253352 127.593105 
L 311.157534 133.893337 
L 312.621602 135.702087 
L 314.08567 137.110561 
L 315.549739 138.208325 
L 317.013807 139.068993 
L 318.965898 139.939432 
L 320.917989 140.582158 
L 323.358102 141.1681 
L 326.774261 141.733775 
L 331.654489 142.269497 
L 339.462852 142.861111 
L 356.055625 143.849715 
L 385.336989 145.337327 
L 412.178239 146.479685 
L 431.699148 147.186891 
L 431.699148 147.186891 
" clip-path="url(#p0d8dcb2f77)" style="fill: none; stroke-dasharray: 5.55,2.4; stroke-dashoffset: 0; stroke: #e24a33; stroke-width: 1.5"/>
   </g>
   <g id="line2d_20">
    <path d="M 65.682102 289.288574 
L 66.658148 289.05289 
L 69.098261 288.581476 
L 70.074307 288.54909 
L 70.56233 288.645813 
L 71.538375 288.516966 
L 74.954534 287.662346 
L 81.29883 286.639533 
L 86.66708 285.955583 
L 89.107193 285.422749 
L 92.03533 284.582351 
L 94.475443 283.639498 
L 98.379625 281.901708 
L 101.795784 280.609767 
L 104.235898 279.772342 
L 106.676011 279.161334 
L 107.652057 279.001148 
L 109.604148 278.958776 
L 110.580193 278.715572 
L 111.556239 278.17136 
L 112.532284 277.625593 
L 113.50833 277.500309 
L 115.46042 277.339909 
L 117.412511 276.498172 
L 118.87658 275.664388 
L 119.852625 275.070186 
L 120.82867 274.216809 
L 123.756807 271.286389 
L 124.732852 270.723534 
L 127.172966 269.726404 
L 128.149011 269.251525 
L 130.589125 267.599165 
L 132.053193 266.419047 
L 134.98133 263.620178 
L 135.957375 262.641002 
L 136.445398 262.254604 
L 137.421443 261.82667 
L 138.397489 260.985571 
L 139.861557 259.529155 
L 140.34958 258.966691 
L 144.253761 253.11811 
L 144.741784 252.557911 
L 146.205852 251.498515 
L 146.693875 250.559132 
L 147.66992 248.998181 
L 149.622011 245.165802 
L 150.110034 244.375192 
L 150.598057 243.810241 
L 151.08608 243.456467 
L 152.062125 242.985852 
L 153.03817 241.57154 
L 154.014216 240.172487 
L 155.478284 238.338941 
L 156.942352 236.483652 
L 157.430375 235.936422 
L 157.918398 235.141345 
L 158.894443 234.342056 
L 159.870489 233.157151 
L 161.334557 231.779926 
L 162.798625 229.703619 
L 163.286648 229.273814 
L 164.262693 227.978751 
L 165.238739 225.511758 
L 166.214784 222.274895 
L 167.19083 219.116689 
L 167.678852 217.937842 
L 168.654898 216.498654 
L 169.14292 214.952762 
L 170.118966 210.888985 
L 171.095011 208.019066 
L 171.583034 206.640725 
L 172.55908 202.659105 
L 173.535125 197.983917 
L 174.023148 195.973087 
L 175.487216 191.325785 
L 176.951284 185.390563 
L 178.415352 179.501389 
L 179.391398 176.380419 
L 180.367443 173.97568 
L 182.319534 168.900674 
L 183.783602 165.42373 
L 184.271625 165.127041 
L 185.24767 163.914656 
L 185.735693 163.719054 
L 186.223716 163.289494 
L 187.199761 161.630598 
L 187.687784 161.649367 
L 188.175807 161.796014 
L 188.66383 161.555149 
L 189.151852 161.096846 
L 189.639875 161.033482 
L 190.61592 161.113527 
L 191.103943 160.566783 
L 191.591966 159.632729 
L 192.079989 159.27024 
L 193.056034 158.192511 
L 193.544057 157.977646 
L 194.520102 156.392236 
L 195.496148 154.434265 
L 195.98417 152.218152 
L 198.424284 144.603736 
L 201.35242 134.652982 
L 207.208693 114.383405 
L 211.112875 101.819474 
L 217.45717 82.351085 
L 224.777511 60.540501 
L 229.169716 47.971407 
L 232.097852 40.344944 
L 235.514011 32.065283 
L 237.466102 27.636876 
L 238.442148 26.03361 
L 239.418193 24.971378 
L 240.394239 24.36589 
L 241.370284 24.147443 
L 242.34633 24.255966 
L 243.322375 24.63913 
L 244.29842 25.255518 
L 245.762489 26.534398 
L 247.226557 28.151443 
L 249.178648 30.695698 
L 251.618761 34.304478 
L 255.03492 39.825216 
L 261.379216 50.629882 
L 272.603739 69.692951 
L 282.852216 86.587358 
L 311.645557 133.465505 
L 313.109625 135.146879 
L 314.573693 136.45432 
L 316.037761 137.47524 
L 317.989852 138.501859 
L 319.941943 139.252627 
L 322.382057 139.926783 
L 325.310193 140.488475 
L 329.214375 140.995968 
L 335.070648 141.513535 
L 346.29517 142.241656 
L 374.112466 143.734389 
L 405.833943 145.155058 
L 431.699148 146.112318 
L 431.699148 146.112318 
" clip-path="url(#p0d8dcb2f77)" style="fill: none; stroke: #e24a33; stroke-width: 1.5; stroke-linecap: square"/>
   </g>
   <g id="line2d_21">
    <path d="M 65.682102 291.096307 
L 66.658148 290.851447 
L 69.098261 290.36169 
L 70.074307 290.328049 
L 70.56233 290.428538 
L 71.538375 290.294683 
L 74.466511 289.492324 
L 75.93058 289.22396 
L 76.906625 288.932723 
L 77.88267 288.81839 
L 79.346739 288.593807 
L 80.810807 288.429244 
L 82.762898 288.188522 
L 85.691034 287.791203 
L 89.595216 286.946699 
L 92.03533 286.20716 
L 94.475443 285.227618 
L 98.379625 283.422115 
L 101.795784 282.079748 
L 104.235898 281.209539 
L 106.187989 280.718785 
L 107.164034 280.45089 
L 108.14008 280.406012 
L 109.116125 280.43637 
L 110.580193 280.110551 
L 111.556239 279.545223 
L 112.532284 278.978314 
L 113.50833 278.848351 
L 115.46042 278.682076 
L 117.412511 277.808205 
L 118.87658 276.942555 
L 119.852625 276.325873 
L 120.82867 275.440042 
L 123.756807 272.398557 
L 124.732852 271.814782 
L 127.172966 270.781201 
L 128.149011 270.288763 
L 130.589125 268.574809 
L 132.053193 267.350602 
L 134.493307 265.014885 
L 135.957375 263.432026 
L 136.445398 263.031513 
L 137.421443 262.588156 
L 138.397489 261.716303 
L 139.861557 260.207198 
L 140.34958 259.624736 
L 144.253761 253.56975 
L 144.741784 252.990297 
L 146.205852 251.896548 
L 146.693875 250.924289 
L 147.181898 250.215673 
L 148.157943 248.276037 
L 149.622011 245.341664 
L 150.110034 244.524451 
L 150.598057 243.940197 
L 151.08608 243.574168 
L 152.062125 243.087401 
L 153.03817 241.624163 
L 154.014216 240.17741 
L 155.478284 238.281992 
L 156.942352 236.365407 
L 157.430375 235.80077 
L 157.918398 234.979627 
L 158.894443 234.155901 
L 159.870489 232.936334 
L 161.334557 231.51674 
L 162.798625 229.372237 
L 163.286648 228.929078 
L 164.262693 227.59309 
L 165.238739 225.048852 
L 166.214784 221.712042 
L 167.19083 218.457963 
L 167.678852 217.243802 
L 168.654898 215.764641 
L 169.14292 214.173853 
L 170.118966 209.993134 
L 171.095011 207.044889 
L 171.583034 205.629961 
L 172.55908 201.541986 
L 173.535125 196.745475 
L 174.023148 194.684777 
L 175.487216 189.930052 
L 176.951284 183.863794 
L 178.415352 177.856901 
L 179.391398 174.682278 
L 180.367443 172.243636 
L 182.319534 167.112328 
L 183.783602 163.595422 
L 184.271625 163.298391 
L 185.24767 162.080382 
L 185.735693 161.895199 
L 186.223716 161.470264 
L 187.199761 159.804334 
L 187.687784 159.837921 
L 188.175807 159.997113 
L 188.66383 159.76071 
L 189.151852 159.303705 
L 189.639875 159.248028 
L 190.61592 159.35122 
L 191.103943 158.805791 
L 191.591966 157.870312 
L 192.079989 157.512165 
L 193.056034 156.445092 
L 193.544057 156.239132 
L 194.520102 154.659761 
L 195.496148 152.705909 
L 195.98417 150.393228 
L 196.960216 146.803556 
L 198.912307 138.198517 
L 201.35242 127.941958 
L 203.792534 118.58705 
L 205.744625 111.908418 
L 208.184739 104.399844 
L 210.13683 99.26652 
L 212.08892 94.86413 
L 213.552989 91.960263 
L 215.50508 88.661711 
L 217.45717 85.869199 
L 218.921239 84.141587 
L 220.385307 82.781464 
L 221.849375 81.710876 
L 223.313443 80.91482 
L 224.777511 80.476763 
L 226.24158 80.329152 
L 227.705648 80.415011 
L 229.169716 80.743866 
L 230.633784 81.280178 
L 232.585875 82.234023 
L 236.97808 84.72267 
L 238.93017 85.988886 
L 241.370284 87.843715 
L 244.29842 90.340614 
L 248.690625 94.416972 
L 256.010966 101.591814 
L 276.50792 121.801723 
L 292.124648 136.754693 
L 310.669511 154.207199 
L 312.13358 155.342768 
L 313.597648 156.243621 
L 315.549739 157.159987 
L 317.50183 157.832088 
L 319.941943 158.430239 
L 322.87008 158.907803 
L 326.774261 159.2988 
L 332.142511 159.598119 
L 341.414943 159.865289 
L 361.911898 160.218985 
L 417.058466 160.903065 
L 431.699148 161.049138 
L 431.699148 161.049138 
" clip-path="url(#p0d8dcb2f77)" style="fill: none; stroke-dasharray: 5.55,2.4; stroke-dashoffset: 0; stroke: #7a68a6; stroke-width: 1.5"/>
   </g>
   <g id="line2d_22">
    <path d="M 65.682102 289.288574 
L 66.658148 289.05289 
L 69.098261 288.581476 
L 70.074307 288.54909 
L 70.56233 288.645813 
L 71.538375 288.516966 
L 74.954534 287.662346 
L 81.29883 286.639533 
L 86.66708 285.955583 
L 89.107193 285.422749 
L 92.03533 284.582351 
L 94.475443 283.639498 
L 98.379625 281.901708 
L 101.795784 280.609767 
L 104.235898 279.772342 
L 106.676011 279.161334 
L 107.652057 279.001148 
L 109.604148 278.958776 
L 110.580193 278.715572 
L 111.556239 278.17136 
L 112.532284 277.625593 
L 113.50833 277.500309 
L 115.46042 277.339909 
L 117.412511 276.498172 
L 118.87658 275.664388 
L 119.852625 275.070186 
L 120.82867 274.216809 
L 123.756807 271.286389 
L 124.732852 270.723534 
L 127.172966 269.726404 
L 128.149011 269.251525 
L 130.589125 267.599165 
L 132.053193 266.419047 
L 134.98133 263.620178 
L 135.957375 262.641002 
L 136.445398 262.254604 
L 137.421443 261.82667 
L 138.397489 260.985571 
L 139.861557 259.529155 
L 140.34958 258.966691 
L 144.253761 253.11811 
L 144.741784 252.557911 
L 146.205852 251.498515 
L 146.693875 250.559132 
L 147.66992 248.998181 
L 149.622011 245.165802 
L 150.110034 244.375192 
L 150.598057 243.810241 
L 151.08608 243.456467 
L 152.062125 242.985852 
L 153.03817 241.57154 
L 154.014216 240.172487 
L 155.478284 238.338941 
L 156.942352 236.483652 
L 157.430375 235.936422 
L 157.918398 235.141345 
L 158.894443 234.342056 
L 159.870489 233.157151 
L 161.334557 231.779926 
L 162.798625 229.703619 
L 163.286648 229.273814 
L 164.262693 227.978751 
L 165.238739 225.511758 
L 166.214784 222.274895 
L 167.19083 219.116689 
L 167.678852 217.937842 
L 168.654898 216.498654 
L 169.14292 214.952762 
L 170.118966 210.888985 
L 171.095011 208.019066 
L 171.583034 206.640725 
L 172.55908 202.659105 
L 173.535125 197.983917 
L 174.023148 195.973087 
L 175.487216 191.325785 
L 176.951284 185.390563 
L 178.415352 179.501389 
L 179.391398 176.380419 
L 180.367443 173.97568 
L 182.319534 168.900674 
L 183.783602 165.42373 
L 184.271625 165.127041 
L 185.24767 163.914656 
L 185.735693 163.719054 
L 186.223716 163.289494 
L 187.199761 161.630598 
L 187.687784 161.649367 
L 188.175807 161.796014 
L 188.66383 161.555149 
L 189.151852 161.096846 
L 189.639875 161.033482 
L 190.61592 161.113527 
L 191.103943 160.566783 
L 191.591966 159.632729 
L 192.079989 159.27024 
L 193.056034 158.192511 
L 193.544057 157.977646 
L 194.520102 156.392236 
L 195.496148 154.434259 
L 195.98417 152.140054 
L 196.960216 148.569322 
L 198.912307 139.998332 
L 201.35242 129.734722 
L 203.792534 120.319304 
L 206.232648 111.968632 
L 208.672761 104.532437 
L 210.624852 99.485151 
L 212.576943 95.106204 
L 214.041011 92.234067 
L 215.993102 88.949391 
L 217.945193 86.145918 
L 219.409261 84.459273 
L 220.87333 83.117065 
L 222.337398 82.046315 
L 223.313443 81.502008 
L 224.777511 80.992729 
L 226.24158 80.780584 
L 227.705648 80.807698 
L 229.169716 81.083698 
L 230.633784 81.572328 
L 232.585875 82.468868 
L 236.490057 84.56634 
L 238.93017 86.060344 
L 241.370284 87.868075 
L 244.29842 90.320182 
L 248.690625 94.346927 
L 255.522943 100.987654 
L 278.948034 124.000763 
L 295.052784 139.382728 
L 311.157534 154.488053 
L 312.621602 155.539597 
L 314.573693 156.609036 
L 316.525784 157.393011 
L 318.965898 158.088566 
L 321.894034 158.641127 
L 325.310193 159.044092 
L 330.19042 159.375668 
L 337.998784 159.648455 
L 353.127489 159.93921 
L 396.073489 160.523447 
L 431.699148 160.894054 
L 431.699148 160.894054 
" clip-path="url(#p0d8dcb2f77)" style="fill: none; stroke: #7a68a6; stroke-width: 1.5; stroke-linecap: square"/>
   </g>
   <g id="line2d_23">
    <path d="M 65.682102 291.096307 
L 66.658148 290.851447 
L 69.098261 290.36169 
L 70.074307 290.328049 
L 70.56233 290.428538 
L 71.538375 290.294683 
L 74.466511 289.492324 
L 75.93058 289.22396 
L 76.906625 288.932723 
L 77.88267 288.81839 
L 79.346739 288.593807 
L 80.810807 288.429244 
L 82.762898 288.188522 
L 85.691034 287.791203 
L 89.595216 286.946699 
L 92.03533 286.20716 
L 94.475443 285.227618 
L 98.379625 283.422115 
L 101.795784 282.079748 
L 104.235898 281.209539 
L 106.187989 280.718785 
L 107.164034 280.45089 
L 108.14008 280.406012 
L 109.116125 280.43637 
L 110.580193 280.110551 
L 111.556239 279.545223 
L 112.532284 278.978314 
L 113.50833 278.848351 
L 115.46042 278.682076 
L 117.412511 277.808205 
L 118.87658 276.942555 
L 119.852625 276.325873 
L 120.82867 275.440042 
L 123.756807 272.398557 
L 124.732852 271.814782 
L 127.172966 270.781201 
L 128.149011 270.288763 
L 130.589125 268.574809 
L 132.053193 267.350602 
L 134.493307 265.014885 
L 135.957375 263.432026 
L 136.445398 263.031513 
L 137.421443 262.588156 
L 138.397489 261.716303 
L 139.861557 260.207198 
L 140.34958 259.624736 
L 144.253761 253.56975 
L 144.741784 252.990297 
L 146.205852 251.896548 
L 146.693875 250.924289 
L 147.181898 250.215673 
L 148.157943 248.276037 
L 149.622011 245.341664 
L 150.110034 244.524451 
L 150.598057 243.940197 
L 151.08608 243.574168 
L 152.062125 243.087401 
L 153.03817 241.624163 
L 154.014216 240.17741 
L 155.478284 238.281992 
L 156.942352 236.365407 
L 157.430375 235.80077 
L 157.918398 234.979627 
L 158.894443 234.155901 
L 159.870489 232.936334 
L 161.334557 231.51674 
L 162.798625 229.372237 
L 163.286648 228.929078 
L 164.262693 227.59309 
L 165.238739 225.048852 
L 166.214784 221.712042 
L 167.19083 218.457963 
L 167.678852 217.243802 
L 168.654898 215.764641 
L 169.14292 214.173853 
L 170.118966 209.993134 
L 171.095011 207.044889 
L 171.583034 205.629961 
L 172.55908 201.541986 
L 173.535125 196.745475 
L 174.023148 194.684777 
L 175.487216 189.930052 
L 176.951284 183.863794 
L 178.415352 177.856901 
L 179.391398 174.682278 
L 180.367443 172.243636 
L 182.319534 167.112328 
L 183.783602 163.595422 
L 184.271625 163.298391 
L 185.24767 162.080382 
L 185.735693 161.895199 
L 186.223716 161.470264 
L 187.199761 159.804334 
L 187.687784 159.837921 
L 188.175807 159.997113 
L 188.66383 159.76071 
L 189.151852 159.303705 
L 189.639875 159.248028 
L 190.61592 159.35122 
L 191.103943 158.805791 
L 191.591966 157.870312 
L 192.079989 157.512165 
L 193.056034 156.445092 
L 193.544057 156.239132 
L 194.520102 154.659761 
L 195.496148 152.705926 
L 195.98417 150.569048 
L 196.960216 148.303055 
L 197.936261 146.544253 
L 198.912307 144.853155 
L 200.376375 141.774944 
L 202.328466 136.912685 
L 203.792534 132.693 
L 205.256602 127.579184 
L 207.208693 119.748101 
L 211.112875 103.439049 
L 213.064966 95.822549 
L 214.041011 92.659076 
L 215.017057 90.051711 
L 215.993102 87.917565 
L 216.969148 86.190849 
L 217.945193 84.810157 
L 218.921239 83.718591 
L 219.897284 82.871224 
L 220.87333 82.234568 
L 222.337398 81.610149 
L 223.313443 81.494871 
L 224.289489 81.71305 
L 225.265534 82.213931 
L 226.24158 82.956795 
L 227.217625 83.905149 
L 228.19367 85.130948 
L 229.169716 86.69346 
L 230.633784 89.560449 
L 232.585875 94.119559 
L 235.025989 99.704826 
L 237.954125 105.848336 
L 244.29842 118.596456 
L 249.178648 127.888106 
L 254.546898 137.588267 
L 260.40317 147.685838 
L 268.211534 160.659929 
L 295.052784 204.837169 
L 302.861148 218.324216 
L 309.693466 230.549339 
L 311.157534 233.066284 
L 312.621602 234.999049 
L 314.08567 236.464165 
L 315.549739 237.579848 
L 317.013807 238.43941 
L 318.965898 239.300241 
L 321.406011 240.069223 
L 324.334148 240.721903 
L 328.726352 241.4152 
L 336.046693 242.274698 
L 349.223307 243.591395 
L 359.471784 244.454503 
L 377.040602 245.639855 
L 403.881852 247.220308 
L 431.699148 248.627605 
L 431.699148 248.627605 
" clip-path="url(#p0d8dcb2f77)" style="fill: none; stroke-dasharray: 5.55,2.4; stroke-dashoffset: 0; stroke: #a60628; stroke-width: 1.5"/>
   </g>
   <g id="line2d_24">
    <path d="M 65.682102 289.288574 
L 66.658148 289.05289 
L 69.098261 288.581476 
L 70.074307 288.54909 
L 70.56233 288.645813 
L 71.538375 288.516966 
L 74.954534 287.662346 
L 81.29883 286.639533 
L 86.66708 285.955583 
L 89.107193 285.422749 
L 92.03533 284.582351 
L 94.475443 283.639498 
L 98.379625 281.901708 
L 101.795784 280.609767 
L 104.235898 279.772342 
L 106.676011 279.161334 
L 107.652057 279.001148 
L 109.604148 278.958776 
L 110.580193 278.715572 
L 111.556239 278.17136 
L 112.532284 277.625593 
L 113.50833 277.500309 
L 115.46042 277.339909 
L 117.412511 276.498172 
L 118.87658 275.664388 
L 119.852625 275.070186 
L 120.82867 274.216809 
L 123.756807 271.286389 
L 124.732852 270.723534 
L 127.172966 269.726404 
L 128.149011 269.251525 
L 130.589125 267.599165 
L 132.053193 266.419047 
L 134.98133 263.620178 
L 135.957375 262.641002 
L 136.445398 262.254604 
L 137.421443 261.82667 
L 138.397489 260.985571 
L 139.861557 259.529155 
L 140.34958 258.966691 
L 144.253761 253.11811 
L 144.741784 252.557911 
L 146.205852 251.498515 
L 146.693875 250.559132 
L 147.66992 248.998181 
L 149.622011 245.165802 
L 150.110034 244.375192 
L 150.598057 243.810241 
L 151.08608 243.456467 
L 152.062125 242.985852 
L 153.03817 241.57154 
L 154.014216 240.172487 
L 155.478284 238.338941 
L 156.942352 236.483652 
L 157.430375 235.936422 
L 157.918398 235.141345 
L 158.894443 234.342056 
L 159.870489 233.157151 
L 161.334557 231.779926 
L 162.798625 229.703619 
L 163.286648 229.273814 
L 164.262693 227.978751 
L 165.238739 225.511758 
L 166.214784 222.274895 
L 167.19083 219.116689 
L 167.678852 217.937842 
L 168.654898 216.498654 
L 169.14292 214.952762 
L 170.118966 210.888985 
L 171.095011 208.019066 
L 171.583034 206.640725 
L 172.55908 202.659105 
L 173.535125 197.983917 
L 174.023148 195.973087 
L 175.487216 191.325785 
L 176.951284 185.390563 
L 178.415352 179.501389 
L 179.391398 176.380419 
L 180.367443 173.97568 
L 182.319534 168.900674 
L 183.783602 165.42373 
L 184.271625 165.127041 
L 185.24767 163.914656 
L 185.735693 163.719054 
L 186.223716 163.289494 
L 187.199761 161.630598 
L 187.687784 161.649367 
L 188.175807 161.796014 
L 188.66383 161.555149 
L 189.151852 161.096846 
L 189.639875 161.033482 
L 190.61592 161.113527 
L 191.103943 160.566783 
L 191.591966 159.632729 
L 192.079989 159.27024 
L 193.056034 158.192511 
L 193.544057 157.977646 
L 194.520102 156.392236 
L 195.496148 154.434276 
L 195.98417 152.313631 
L 196.960216 150.05108 
L 197.936261 148.287165 
L 198.912307 146.588075 
L 200.376375 143.499193 
L 202.328466 138.619522 
L 203.792534 134.381598 
L 205.256602 129.243731 
L 207.208693 121.361565 
L 211.600898 102.880618 
L 213.552989 95.422737 
L 214.529034 92.47937 
L 215.50508 90.052432 
L 216.481125 88.067655 
L 217.45717 86.463552 
L 218.433216 85.179192 
L 219.409261 84.164113 
L 220.385307 83.380183 
L 221.361352 82.794031 
L 222.337398 82.379185 
L 223.313443 82.229537 
L 224.289489 82.420033 
L 225.265534 82.899048 
L 226.24158 83.625041 
L 227.217625 84.560724 
L 228.19367 85.779369 
L 229.169716 87.341063 
L 230.633784 90.215743 
L 232.585875 94.794978 
L 235.025989 100.40026 
L 237.954125 106.557032 
L 243.810398 118.354091 
L 248.690625 127.677679 
L 253.570852 136.527178 
L 258.939102 145.817909 
L 265.77142 157.185636 
L 276.50792 174.561623 
L 290.66058 197.526928 
L 299.444989 212.224579 
L 306.76533 224.887574 
L 311.157534 232.550391 
L 312.621602 234.445549 
L 314.08567 235.882024 
L 315.549739 236.975897 
L 317.013807 237.818717 
L 318.965898 238.662925 
L 321.406011 239.417294 
L 324.334148 240.057879 
L 328.726352 240.738752 
L 336.046693 241.58325 
L 349.223307 242.876568 
L 359.471784 243.724048 
L 377.528625 244.917774 
L 403.881852 246.437459 
L 431.699148 247.816147 
L 431.699148 247.816147 
" clip-path="url(#p0d8dcb2f77)" style="fill: none; stroke: #a60628; stroke-width: 1.5; stroke-linecap: square"/>
   </g>
   <g id="patch_2">
    <path d="M 47.38125 304.44375 
L 47.38125 10.8 
" style="fill: none; stroke: #000000; stroke-width: 0.8; stroke-linejoin: miter; stroke-linecap: square"/>
   </g>
   <g id="patch_3">
    <path d="M 450 304.44375 
L 450 10.8 
" style="fill: none; stroke: #000000; stroke-width: 0.8; stroke-linejoin: miter; stroke-linecap: square"/>
   </g>
   <g id="patch_4">
    <path d="M 47.38125 304.44375 
L 450 304.44375 
" style="fill: none; stroke: #000000; stroke-width: 0.8; stroke-linejoin: miter; stroke-linecap: square"/>
   </g>
   <g id="patch_5">
    <path d="M 47.38125 10.8 
L 450 10.8 
" style="fill: none; stroke: #000000; stroke-width: 0.8; stroke-linejoin: miter; stroke-linecap: square"/>
   </g>
   <g id="legend_1">
    <g id="patch_6">
     <path d="M 54.38125 165.58125 
L 172.973438 165.58125 
Q 174.973438 165.58125 174.973438 163.58125 
L 174.973438 17.8 
Q 174.973438 15.8 172.973438 15.8 
L 54.38125 15.8 
Q 52.38125 15.8 52.38125 17.8 
L 52.38125 163.58125 
Q 52.38125 165.58125 54.38125 165.58125 
z
" style="fill: #ffffff; opacity: 0.8; stroke: #cccccc; stroke-linejoin: miter"/>
    </g>
    <g id="line2d_25">
     <path d="M 56.38125 23.898438 
L 66.38125 23.898438 
L 76.38125 23.898438 
" style="fill: none; stroke-dasharray: 5.55,2.4; stroke-dashoffset: 0; stroke: #348abd; stroke-width: 1.5"/>
    </g>
    <g id="text_17">
     <!-- ssp119 -->
     <g transform="translate(84.38125 27.398438) scale(0.1 -0.1)">
      <defs>
       <path id="DejaVuSans-73" d="M 2834 3397 
L 2834 2853 
Q 2591 2978 2328 3040 
Q 2066 3103 1784 3103 
Q 1356 3103 1142 2972 
Q 928 2841 928 2578 
Q 928 2378 1081 2264 
Q 1234 2150 1697 2047 
L 1894 2003 
Q 2506 1872 2764 1633 
Q 3022 1394 3022 966 
Q 3022 478 2636 193 
Q 2250 -91 1575 -91 
Q 1294 -91 989 -36 
Q 684 19 347 128 
L 347 722 
Q 666 556 975 473 
Q 1284 391 1588 391 
Q 1994 391 2212 530 
Q 2431 669 2431 922 
Q 2431 1156 2273 1281 
Q 2116 1406 1581 1522 
L 1381 1569 
Q 847 1681 609 1914 
Q 372 2147 372 2553 
Q 372 3047 722 3315 
Q 1072 3584 1716 3584 
Q 2034 3584 2315 3537 
Q 2597 3491 2834 3397 
z
" transform="scale(0.015625)"/>
       <path id="DejaVuSans-70" d="M 1159 525 
L 1159 -1331 
L 581 -1331 
L 581 3500 
L 1159 3500 
L 1159 2969 
Q 1341 3281 1617 3432 
Q 1894 3584 2278 3584 
Q 2916 3584 3314 3078 
Q 3713 2572 3713 1747 
Q 3713 922 3314 415 
Q 2916 -91 2278 -91 
Q 1894 -91 1617 61 
Q 1341 213 1159 525 
z
M 3116 1747 
Q 3116 2381 2855 2742 
Q 2594 3103 2138 3103 
Q 1681 3103 1420 2742 
Q 1159 2381 1159 1747 
Q 1159 1113 1420 752 
Q 1681 391 2138 391 
Q 2594 391 2855 752 
Q 3116 1113 3116 1747 
z
" transform="scale(0.015625)"/>
      </defs>
      <use xlink:href="#DejaVuSans-73"/>
      <use xlink:href="#DejaVuSans-73" x="52.099609"/>
      <use xlink:href="#DejaVuSans-70" x="104.199219"/>
      <use xlink:href="#DejaVuSans-31" x="167.675781"/>
      <use xlink:href="#DejaVuSans-31" x="231.298828"/>
      <use xlink:href="#DejaVuSans-39" x="294.921875"/>
     </g>
    </g>
    <g id="line2d_26">
     <path d="M 56.38125 38.576563 
L 66.38125 38.576563 
L 76.38125 38.576563 
" style="fill: none; stroke: #348abd; stroke-width: 1.5; stroke-linecap: square"/>
    </g>
    <g id="text_18">
     <!-- ssp119 emulated -->
     <g transform="translate(84.38125 42.076563) scale(0.1 -0.1)">
      <defs>
       <path id="DejaVuSans-75" d="M 544 1381 
L 544 3500 
L 1119 3500 
L 1119 1403 
Q 1119 906 1312 657 
Q 1506 409 1894 409 
Q 2359 409 2629 706 
Q 2900 1003 2900 1516 
L 2900 3500 
L 3475 3500 
L 3475 0 
L 2900 0 
L 2900 538 
Q 2691 219 2414 64 
Q 2138 -91 1772 -91 
Q 1169 -91 856 284 
Q 544 659 544 1381 
z
M 1991 3584 
L 1991 3584 
z
" transform="scale(0.015625)"/>
       <path id="DejaVuSans-6c" d="M 603 4863 
L 1178 4863 
L 1178 0 
L 603 0 
L 603 4863 
z
" transform="scale(0.015625)"/>
       <path id="DejaVuSans-74" d="M 1172 4494 
L 1172 3500 
L 2356 3500 
L 2356 3053 
L 1172 3053 
L 1172 1153 
Q 1172 725 1289 603 
Q 1406 481 1766 481 
L 2356 481 
L 2356 0 
L 1766 0 
Q 1100 0 847 248 
Q 594 497 594 1153 
L 594 3053 
L 172 3053 
L 172 3500 
L 594 3500 
L 594 4494 
L 1172 4494 
z
" transform="scale(0.015625)"/>
       <path id="DejaVuSans-64" d="M 2906 2969 
L 2906 4863 
L 3481 4863 
L 3481 0 
L 2906 0 
L 2906 525 
Q 2725 213 2448 61 
Q 2172 -91 1784 -91 
Q 1150 -91 751 415 
Q 353 922 353 1747 
Q 353 2572 751 3078 
Q 1150 3584 1784 3584 
Q 2172 3584 2448 3432 
Q 2725 3281 2906 2969 
z
M 947 1747 
Q 947 1113 1208 752 
Q 1469 391 1925 391 
Q 2381 391 2643 752 
Q 2906 1113 2906 1747 
Q 2906 2381 2643 2742 
Q 2381 3103 1925 3103 
Q 1469 3103 1208 2742 
Q 947 2381 947 1747 
z
" transform="scale(0.015625)"/>
      </defs>
      <use xlink:href="#DejaVuSans-73"/>
      <use xlink:href="#DejaVuSans-73" x="52.099609"/>
      <use xlink:href="#DejaVuSans-70" x="104.199219"/>
      <use xlink:href="#DejaVuSans-31" x="167.675781"/>
      <use xlink:href="#DejaVuSans-31" x="231.298828"/>
      <use xlink:href="#DejaVuSans-39" x="294.921875"/>
      <use xlink:href="#DejaVuSans-20" x="358.544922"/>
      <use xlink:href="#DejaVuSans-65" x="390.332031"/>
      <use xlink:href="#DejaVuSans-6d" x="451.855469"/>
      <use xlink:href="#DejaVuSans-75" x="549.267578"/>
      <use xlink:href="#DejaVuSans-6c" x="612.646484"/>
      <use xlink:href="#DejaVuSans-61" x="640.429688"/>
      <use xlink:href="#DejaVuSans-74" x="701.708984"/>
      <use xlink:href="#DejaVuSans-65" x="740.917969"/>
      <use xlink:href="#DejaVuSans-64" x="802.441406"/>
     </g>
    </g>
    <g id="line2d_27">
     <path d="M 56.38125 53.254687 
L 66.38125 53.254687 
L 76.38125 53.254687 
" style="fill: none; stroke-dasharray: 5.55,2.4; stroke-dashoffset: 0; stroke: #188487; stroke-width: 1.5"/>
    </g>
    <g id="text_19">
     <!-- ssp245 -->
     <g transform="translate(84.38125 56.754687) scale(0.1 -0.1)">
      <use xlink:href="#DejaVuSans-73"/>
      <use xlink:href="#DejaVuSans-73" x="52.099609"/>
      <use xlink:href="#DejaVuSans-70" x="104.199219"/>
      <use xlink:href="#DejaVuSans-32" x="167.675781"/>
      <use xlink:href="#DejaVuSans-34" x="231.298828"/>
      <use xlink:href="#DejaVuSans-35" x="294.921875"/>
     </g>
    </g>
    <g id="line2d_28">
     <path d="M 56.38125 67.932813 
L 66.38125 67.932813 
L 76.38125 67.932813 
" style="fill: none; stroke: #188487; stroke-width: 1.5; stroke-linecap: square"/>
    </g>
    <g id="text_20">
     <!-- ssp245 emulated -->
     <g transform="translate(84.38125 71.432813) scale(0.1 -0.1)">
      <use xlink:href="#DejaVuSans-73"/>
      <use xlink:href="#DejaVuSans-73" x="52.099609"/>
      <use xlink:href="#DejaVuSans-70" x="104.199219"/>
      <use xlink:href="#DejaVuSans-32" x="167.675781"/>
      <use xlink:href="#DejaVuSans-34" x="231.298828"/>
      <use xlink:href="#DejaVuSans-35" x="294.921875"/>
      <use xlink:href="#DejaVuSans-20" x="358.544922"/>
      <use xlink:href="#DejaVuSans-65" x="390.332031"/>
      <use xlink:href="#DejaVuSans-6d" x="451.855469"/>
      <use xlink:href="#DejaVuSans-75" x="549.267578"/>
      <use xlink:href="#DejaVuSans-6c" x="612.646484"/>
      <use xlink:href="#DejaVuSans-61" x="640.429688"/>
      <use xlink:href="#DejaVuSans-74" x="701.708984"/>
      <use xlink:href="#DejaVuSans-65" x="740.917969"/>
      <use xlink:href="#DejaVuSans-64" x="802.441406"/>
     </g>
    </g>
    <g id="line2d_29">
     <path d="M 56.38125 82.610938 
L 66.38125 82.610938 
L 76.38125 82.610938 
" style="fill: none; stroke-dasharray: 5.55,2.4; stroke-dashoffset: 0; stroke: #e24a33; stroke-width: 1.5"/>
    </g>
    <g id="text_21">
     <!-- ssp370 -->
     <g transform="translate(84.38125 86.110938) scale(0.1 -0.1)">
      <defs>
       <path id="DejaVuSans-37" d="M 525 4666 
L 3525 4666 
L 3525 4397 
L 1831 0 
L 1172 0 
L 2766 4134 
L 525 4134 
L 525 4666 
z
" transform="scale(0.015625)"/>
      </defs>
      <use xlink:href="#DejaVuSans-73"/>
      <use xlink:href="#DejaVuSans-73" x="52.099609"/>
      <use xlink:href="#DejaVuSans-70" x="104.199219"/>
      <use xlink:href="#DejaVuSans-33" x="167.675781"/>
      <use xlink:href="#DejaVuSans-37" x="231.298828"/>
      <use xlink:href="#DejaVuSans-30" x="294.921875"/>
     </g>
    </g>
    <g id="line2d_30">
     <path d="M 56.38125 97.289062 
L 66.38125 97.289062 
L 76.38125 97.289062 
" style="fill: none; stroke: #e24a33; stroke-width: 1.5; stroke-linecap: square"/>
    </g>
    <g id="text_22">
     <!-- ssp370 emulated -->
     <g transform="translate(84.38125 100.789062) scale(0.1 -0.1)">
      <use xlink:href="#DejaVuSans-73"/>
      <use xlink:href="#DejaVuSans-73" x="52.099609"/>
      <use xlink:href="#DejaVuSans-70" x="104.199219"/>
      <use xlink:href="#DejaVuSans-33" x="167.675781"/>
      <use xlink:href="#DejaVuSans-37" x="231.298828"/>
      <use xlink:href="#DejaVuSans-30" x="294.921875"/>
      <use xlink:href="#DejaVuSans-20" x="358.544922"/>
      <use xlink:href="#DejaVuSans-65" x="390.332031"/>
      <use xlink:href="#DejaVuSans-6d" x="451.855469"/>
      <use xlink:href="#DejaVuSans-75" x="549.267578"/>
      <use xlink:href="#DejaVuSans-6c" x="612.646484"/>
      <use xlink:href="#DejaVuSans-61" x="640.429688"/>
      <use xlink:href="#DejaVuSans-74" x="701.708984"/>
      <use xlink:href="#DejaVuSans-65" x="740.917969"/>
      <use xlink:href="#DejaVuSans-64" x="802.441406"/>
     </g>
    </g>
    <g id="line2d_31">
     <path d="M 56.38125 111.967188 
L 66.38125 111.967188 
L 76.38125 111.967188 
" style="fill: none; stroke-dasharray: 5.55,2.4; stroke-dashoffset: 0; stroke: #7a68a6; stroke-width: 1.5"/>
    </g>
    <g id="text_23">
     <!-- ssp460 -->
     <g transform="translate(84.38125 115.467188) scale(0.1 -0.1)">
      <use xlink:href="#DejaVuSans-73"/>
      <use xlink:href="#DejaVuSans-73" x="52.099609"/>
      <use xlink:href="#DejaVuSans-70" x="104.199219"/>
      <use xlink:href="#DejaVuSans-34" x="167.675781"/>
      <use xlink:href="#DejaVuSans-36" x="231.298828"/>
      <use xlink:href="#DejaVuSans-30" x="294.921875"/>
     </g>
    </g>
    <g id="line2d_32">
     <path d="M 56.38125 126.645312 
L 66.38125 126.645312 
L 76.38125 126.645312 
" style="fill: none; stroke: #7a68a6; stroke-width: 1.5; stroke-linecap: square"/>
    </g>
    <g id="text_24">
     <!-- ssp460 emulated -->
     <g transform="translate(84.38125 130.145312) scale(0.1 -0.1)">
      <use xlink:href="#DejaVuSans-73"/>
      <use xlink:href="#DejaVuSans-73" x="52.099609"/>
      <use xlink:href="#DejaVuSans-70" x="104.199219"/>
      <use xlink:href="#DejaVuSans-34" x="167.675781"/>
      <use xlink:href="#DejaVuSans-36" x="231.298828"/>
      <use xlink:href="#DejaVuSans-30" x="294.921875"/>
      <use xlink:href="#DejaVuSans-20" x="358.544922"/>
      <use xlink:href="#DejaVuSans-65" x="390.332031"/>
      <use xlink:href="#DejaVuSans-6d" x="451.855469"/>
      <use xlink:href="#DejaVuSans-75" x="549.267578"/>
      <use xlink:href="#DejaVuSans-6c" x="612.646484"/>
      <use xlink:href="#DejaVuSans-61" x="640.429688"/>
      <use xlink:href="#DejaVuSans-74" x="701.708984"/>
      <use xlink:href="#DejaVuSans-65" x="740.917969"/>
      <use xlink:href="#DejaVuSans-64" x="802.441406"/>
     </g>
    </g>
    <g id="line2d_33">
     <path d="M 56.38125 141.323438 
L 66.38125 141.323438 
L 76.38125 141.323438 
" style="fill: none; stroke-dasharray: 5.55,2.4; stroke-dashoffset: 0; stroke: #a60628; stroke-width: 1.5"/>
    </g>
    <g id="text_25">
     <!-- ssp585 -->
     <g transform="translate(84.38125 144.823438) scale(0.1 -0.1)">
      <use xlink:href="#DejaVuSans-73"/>
      <use xlink:href="#DejaVuSans-73" x="52.099609"/>
      <use xlink:href="#DejaVuSans-70" x="104.199219"/>
      <use xlink:href="#DejaVuSans-35" x="167.675781"/>
      <use xlink:href="#DejaVuSans-38" x="231.298828"/>
      <use xlink:href="#DejaVuSans-35" x="294.921875"/>
     </g>
    </g>
    <g id="line2d_34">
     <path d="M 56.38125 156.001562 
L 66.38125 156.001562 
L 76.38125 156.001562 
" style="fill: none; stroke: #a60628; stroke-width: 1.5; stroke-linecap: square"/>
    </g>
    <g id="text_26">
     <!-- ssp585 emulated -->
     <g transform="translate(84.38125 159.501562) scale(0.1 -0.1)">
      <use xlink:href="#DejaVuSans-73"/>
      <use xlink:href="#DejaVuSans-73" x="52.099609"/>
      <use xlink:href="#DejaVuSans-70" x="104.199219"/>
      <use xlink:href="#DejaVuSans-35" x="167.675781"/>
      <use xlink:href="#DejaVuSans-38" x="231.298828"/>
      <use xlink:href="#DejaVuSans-35" x="294.921875"/>
      <use xlink:href="#DejaVuSans-20" x="358.544922"/>
      <use xlink:href="#DejaVuSans-65" x="390.332031"/>
      <use xlink:href="#DejaVuSans-6d" x="451.855469"/>
      <use xlink:href="#DejaVuSans-75" x="549.267578"/>
      <use xlink:href="#DejaVuSans-6c" x="612.646484"/>
      <use xlink:href="#DejaVuSans-61" x="640.429688"/>
      <use xlink:href="#DejaVuSans-74" x="701.708984"/>
      <use xlink:href="#DejaVuSans-65" x="740.917969"/>
      <use xlink:href="#DejaVuSans-64" x="802.441406"/>
     </g>
    </g>
   </g>
  </g>
 </g>
 <defs>
  <clipPath id="p0d8dcb2f77">
   <rect x="47.38125" y="10.8" width="402.61875" height="293.64375"/>
  </clipPath>
 </defs>
</svg>
