<?xml version="1.0" encoding="utf-8" standalone="no"?>
<!DOCTYPE svg PUBLIC "-//W3C//DTD SVG 1.1//EN"
  "http://www.w3.org/Graphics/SVG/1.1/DTD/svg11.dtd">
<svg xmlns:xlink="http://www.w3.org/1999/xlink" width="460.8pt" height="345.6pt" viewBox="0 0 460.8 345.6" xmlns="http://www.w3.org/2000/svg" version="1.1">
 <metadata>
  <rdf:RDF xmlns:dc="http://purl.org/dc/elements/1.1/" xmlns:cc="http://creativecommons.org/ns#" xmlns:rdf="http://www.w3.org/1999/02/22-rdf-syntax-ns#">
   <cc:Work>
    <dc:type rdf:resource="http://purl.org/dc/dcmitype/StillImage"/>
    <dc:date>2024-08-29T16:29:11.927020</dc:date>
    <dc:format>image/svg+xml</dc:format>
    <dc:creator>
     <cc:Agent>
      <dc:title>Matplotlib v3.9.0, https://matplotlib.org/</dc:title>
     </cc:Agent>
    </dc:creator>
   </cc:Work>
  </rdf:RDF>
 </metadata>
 <defs>
  <style type="text/css">*{stroke-linejoin: round; stroke-linecap: butt}</style>
 </defs>
 <g id="figure_1">
  <g id="axes_1">
   <g id="patch_1">
    <path d="M 44.203125 304.44375 
L 450 304.44375 
L 450 10.8 
L 44.203125 10.8 
L 44.203125 304.44375 
z
" style="fill: none"/>
   </g>
   <g id="matplotlib.axis_1">
    <g id="xtick_1">
     <g id="line2d_1">
      <defs>
       <path id="me1b7ecce2d" d="M 0 0 
L 0 3.5 
" style="stroke: #000000; stroke-width: 0.8"/>
      </defs>
      <g>
       <use xlink:href="#me1b7ecce2d" x="87.242187" y="304.44375" style="stroke: #000000; stroke-width: 0.8"/>
      </g>
     </g>
     <g id="text_1">
      <!-- 1800 -->
      <g transform="translate(74.517187 319.042187) scale(0.1 -0.1)">
       <defs>
        <path id="DejaVuSans-31" d="M 794 531 
L 1825 531 
L 1825 4091 
L 703 3866 
L 703 4441 
L 1819 4666 
L 2450 4666 
L 2450 531 
L 3481 531 
L 3481 0 
L 794 0 
L 794 531 
z
" transform="scale(0.015625)"/>
        <path id="DejaVuSans-38" d="M 2034 2216 
Q 1584 2216 1326 1975 
Q 1069 1734 1069 1313 
Q 1069 891 1326 650 
Q 1584 409 2034 409 
Q 2484 409 2743 651 
Q 3003 894 3003 1313 
Q 3003 1734 2745 1975 
Q 2488 2216 2034 2216 
z
M 1403 2484 
Q 997 2584 770 2862 
Q 544 3141 544 3541 
Q 544 4100 942 4425 
Q 1341 4750 2034 4750 
Q 2731 4750 3128 4425 
Q 3525 4100 3525 3541 
Q 3525 3141 3298 2862 
Q 3072 2584 2669 2484 
Q 3125 2378 3379 2068 
Q 3634 1759 3634 1313 
Q 3634 634 3220 271 
Q 2806 -91 2034 -91 
Q 1263 -91 848 271 
Q 434 634 434 1313 
Q 434 1759 690 2068 
Q 947 2378 1403 2484 
z
M 1172 3481 
Q 1172 3119 1398 2916 
Q 1625 2713 2034 2713 
Q 2441 2713 2670 2916 
Q 2900 3119 2900 3481 
Q 2900 3844 2670 4047 
Q 2441 4250 2034 4250 
Q 1625 4250 1398 4047 
Q 1172 3844 1172 3481 
z
" transform="scale(0.015625)"/>
        <path id="DejaVuSans-30" d="M 2034 4250 
Q 1547 4250 1301 3770 
Q 1056 3291 1056 2328 
Q 1056 1369 1301 889 
Q 1547 409 2034 409 
Q 2525 409 2770 889 
Q 3016 1369 3016 2328 
Q 3016 3291 2770 3770 
Q 2525 4250 2034 4250 
z
M 2034 4750 
Q 2819 4750 3233 4129 
Q 3647 3509 3647 2328 
Q 3647 1150 3233 529 
Q 2819 -91 2034 -91 
Q 1250 -91 836 529 
Q 422 1150 422 2328 
Q 422 3509 836 4129 
Q 1250 4750 2034 4750 
z
" transform="scale(0.015625)"/>
       </defs>
       <use xlink:href="#DejaVuSans-31"/>
       <use xlink:href="#DejaVuSans-38" x="63.623047"/>
       <use xlink:href="#DejaVuSans-30" x="127.246094"/>
       <use xlink:href="#DejaVuSans-30" x="190.869141"/>
      </g>
     </g>
    </g>
    <g id="xtick_2">
     <g id="line2d_2">
      <g>
       <use xlink:href="#me1b7ecce2d" x="136.429687" y="304.44375" style="stroke: #000000; stroke-width: 0.8"/>
      </g>
     </g>
     <g id="text_2">
      <!-- 1900 -->
      <g transform="translate(123.704687 319.042187) scale(0.1 -0.1)">
       <defs>
        <path id="DejaVuSans-39" d="M 703 97 
L 703 672 
Q 941 559 1184 500 
Q 1428 441 1663 441 
Q 2288 441 2617 861 
Q 2947 1281 2994 2138 
Q 2813 1869 2534 1725 
Q 2256 1581 1919 1581 
Q 1219 1581 811 2004 
Q 403 2428 403 3163 
Q 403 3881 828 4315 
Q 1253 4750 1959 4750 
Q 2769 4750 3195 4129 
Q 3622 3509 3622 2328 
Q 3622 1225 3098 567 
Q 2575 -91 1691 -91 
Q 1453 -91 1209 -44 
Q 966 3 703 97 
z
M 1959 2075 
Q 2384 2075 2632 2365 
Q 2881 2656 2881 3163 
Q 2881 3666 2632 3958 
Q 2384 4250 1959 4250 
Q 1534 4250 1286 3958 
Q 1038 3666 1038 3163 
Q 1038 2656 1286 2365 
Q 1534 2075 1959 2075 
z
" transform="scale(0.015625)"/>
       </defs>
       <use xlink:href="#DejaVuSans-31"/>
       <use xlink:href="#DejaVuSans-39" x="63.623047"/>
       <use xlink:href="#DejaVuSans-30" x="127.246094"/>
       <use xlink:href="#DejaVuSans-30" x="190.869141"/>
      </g>
     </g>
    </g>
    <g id="xtick_3">
     <g id="line2d_3">
      <g>
       <use xlink:href="#me1b7ecce2d" x="185.617187" y="304.44375" style="stroke: #000000; stroke-width: 0.8"/>
      </g>
     </g>
     <g id="text_3">
      <!-- 2000 -->
      <g transform="translate(172.892187 319.042187) scale(0.1 -0.1)">
       <defs>
        <path id="DejaVuSans-32" d="M 1228 531 
L 3431 531 
L 3431 0 
L 469 0 
L 469 531 
Q 828 903 1448 1529 
Q 2069 2156 2228 2338 
Q 2531 2678 2651 2914 
Q 2772 3150 2772 3378 
Q 2772 3750 2511 3984 
Q 2250 4219 1831 4219 
Q 1534 4219 1204 4116 
Q 875 4013 500 3803 
L 500 4441 
Q 881 4594 1212 4672 
Q 1544 4750 1819 4750 
Q 2544 4750 2975 4387 
Q 3406 4025 3406 3419 
Q 3406 3131 3298 2873 
Q 3191 2616 2906 2266 
Q 2828 2175 2409 1742 
Q 1991 1309 1228 531 
z
" transform="scale(0.015625)"/>
       </defs>
       <use xlink:href="#DejaVuSans-32"/>
       <use xlink:href="#DejaVuSans-30" x="63.623047"/>
       <use xlink:href="#DejaVuSans-30" x="127.246094"/>
       <use xlink:href="#DejaVuSans-30" x="190.869141"/>
      </g>
     </g>
    </g>
    <g id="xtick_4">
     <g id="line2d_4">
      <g>
       <use xlink:href="#me1b7ecce2d" x="234.804688" y="304.44375" style="stroke: #000000; stroke-width: 0.8"/>
      </g>
     </g>
     <g id="text_4">
      <!-- 2100 -->
      <g transform="translate(222.079688 319.042187) scale(0.1 -0.1)">
       <use xlink:href="#DejaVuSans-32"/>
       <use xlink:href="#DejaVuSans-31" x="63.623047"/>
       <use xlink:href="#DejaVuSans-30" x="127.246094"/>
       <use xlink:href="#DejaVuSans-30" x="190.869141"/>
      </g>
     </g>
    </g>
    <g id="xtick_5">
     <g id="line2d_5">
      <g>
       <use xlink:href="#me1b7ecce2d" x="283.992187" y="304.44375" style="stroke: #000000; stroke-width: 0.8"/>
      </g>
     </g>
     <g id="text_5">
      <!-- 2200 -->
      <g transform="translate(271.267187 319.042187) scale(0.1 -0.1)">
       <use xlink:href="#DejaVuSans-32"/>
       <use xlink:href="#DejaVuSans-32" x="63.623047"/>
       <use xlink:href="#DejaVuSans-30" x="127.246094"/>
       <use xlink:href="#DejaVuSans-30" x="190.869141"/>
      </g>
     </g>
    </g>
    <g id="xtick_6">
     <g id="line2d_6">
      <g>
       <use xlink:href="#me1b7ecce2d" x="333.179687" y="304.44375" style="stroke: #000000; stroke-width: 0.8"/>
      </g>
     </g>
     <g id="text_6">
      <!-- 2300 -->
      <g transform="translate(320.454687 319.042187) scale(0.1 -0.1)">
       <defs>
        <path id="DejaVuSans-33" d="M 2597 2516 
Q 3050 2419 3304 2112 
Q 3559 1806 3559 1356 
Q 3559 666 3084 287 
Q 2609 -91 1734 -91 
Q 1441 -91 1130 -33 
Q 819 25 488 141 
L 488 750 
Q 750 597 1062 519 
Q 1375 441 1716 441 
Q 2309 441 2620 675 
Q 2931 909 2931 1356 
Q 2931 1769 2642 2001 
Q 2353 2234 1838 2234 
L 1294 2234 
L 1294 2753 
L 1863 2753 
Q 2328 2753 2575 2939 
Q 2822 3125 2822 3475 
Q 2822 3834 2567 4026 
Q 2313 4219 1838 4219 
Q 1578 4219 1281 4162 
Q 984 4106 628 3988 
L 628 4550 
Q 988 4650 1302 4700 
Q 1616 4750 1894 4750 
Q 2613 4750 3031 4423 
Q 3450 4097 3450 3541 
Q 3450 3153 3228 2886 
Q 3006 2619 2597 2516 
z
" transform="scale(0.015625)"/>
       </defs>
       <use xlink:href="#DejaVuSans-32"/>
       <use xlink:href="#DejaVuSans-33" x="63.623047"/>
       <use xlink:href="#DejaVuSans-30" x="127.246094"/>
       <use xlink:href="#DejaVuSans-30" x="190.869141"/>
      </g>
     </g>
    </g>
    <g id="xtick_7">
     <g id="line2d_7">
      <g>
       <use xlink:href="#me1b7ecce2d" x="382.367187" y="304.44375" style="stroke: #000000; stroke-width: 0.8"/>
      </g>
     </g>
     <g id="text_7">
      <!-- 2400 -->
      <g transform="translate(369.642187 319.042187) scale(0.1 -0.1)">
       <defs>
        <path id="DejaVuSans-34" d="M 2419 4116 
L 825 1625 
L 2419 1625 
L 2419 4116 
z
M 2253 4666 
L 3047 4666 
L 3047 1625 
L 3713 1625 
L 3713 1100 
L 3047 1100 
L 3047 0 
L 2419 0 
L 2419 1100 
L 313 1100 
L 313 1709 
L 2253 4666 
z
" transform="scale(0.015625)"/>
       </defs>
       <use xlink:href="#DejaVuSans-32"/>
       <use xlink:href="#DejaVuSans-34" x="63.623047"/>
       <use xlink:href="#DejaVuSans-30" x="127.246094"/>
       <use xlink:href="#DejaVuSans-30" x="190.869141"/>
      </g>
     </g>
    </g>
    <g id="xtick_8">
     <g id="line2d_8">
      <g>
       <use xlink:href="#me1b7ecce2d" x="431.554687" y="304.44375" style="stroke: #000000; stroke-width: 0.8"/>
      </g>
     </g>
     <g id="text_8">
      <!-- 2500 -->
      <g transform="translate(418.829687 319.042187) scale(0.1 -0.1)">
       <defs>
        <path id="DejaVuSans-35" d="M 691 4666 
L 3169 4666 
L 3169 4134 
L 1269 4134 
L 1269 2991 
Q 1406 3038 1543 3061 
Q 1681 3084 1819 3084 
Q 2600 3084 3056 2656 
Q 3513 2228 3513 1497 
Q 3513 744 3044 326 
Q 2575 -91 1722 -91 
Q 1428 -91 1123 -41 
Q 819 9 494 109 
L 494 744 
Q 775 591 1075 516 
Q 1375 441 1709 441 
Q 2250 441 2565 725 
Q 2881 1009 2881 1497 
Q 2881 1984 2565 2268 
Q 2250 2553 1709 2553 
Q 1456 2553 1204 2497 
Q 953 2441 691 2322 
L 691 4666 
z
" transform="scale(0.015625)"/>
       </defs>
       <use xlink:href="#DejaVuSans-32"/>
       <use xlink:href="#DejaVuSans-35" x="63.623047"/>
       <use xlink:href="#DejaVuSans-30" x="127.246094"/>
       <use xlink:href="#DejaVuSans-30" x="190.869141"/>
      </g>
     </g>
    </g>
    <g id="text_9">
     <!-- Year -->
     <g transform="translate(236.514062 332.720312) scale(0.1 -0.1)">
      <defs>
       <path id="DejaVuSans-59" d="M -13 4666 
L 666 4666 
L 1959 2747 
L 3244 4666 
L 3922 4666 
L 2272 2222 
L 2272 0 
L 1638 0 
L 1638 2222 
L -13 4666 
z
" transform="scale(0.015625)"/>
       <path id="DejaVuSans-65" d="M 3597 1894 
L 3597 1613 
L 953 1613 
Q 991 1019 1311 708 
Q 1631 397 2203 397 
Q 2534 397 2845 478 
Q 3156 559 3463 722 
L 3463 178 
Q 3153 47 2828 -22 
Q 2503 -91 2169 -91 
Q 1331 -91 842 396 
Q 353 884 353 1716 
Q 353 2575 817 3079 
Q 1281 3584 2069 3584 
Q 2775 3584 3186 3129 
Q 3597 2675 3597 1894 
z
M 3022 2063 
Q 3016 2534 2758 2815 
Q 2500 3097 2075 3097 
Q 1594 3097 1305 2825 
Q 1016 2553 972 2059 
L 3022 2063 
z
" transform="scale(0.015625)"/>
       <path id="DejaVuSans-61" d="M 2194 1759 
Q 1497 1759 1228 1600 
Q 959 1441 959 1056 
Q 959 750 1161 570 
Q 1363 391 1709 391 
Q 2188 391 2477 730 
Q 2766 1069 2766 1631 
L 2766 1759 
L 2194 1759 
z
M 3341 1997 
L 3341 0 
L 2766 0 
L 2766 531 
Q 2569 213 2275 61 
Q 1981 -91 1556 -91 
Q 1019 -91 701 211 
Q 384 513 384 1019 
Q 384 1609 779 1909 
Q 1175 2209 1959 2209 
L 2766 2209 
L 2766 2266 
Q 2766 2663 2505 2880 
Q 2244 3097 1772 3097 
Q 1472 3097 1187 3025 
Q 903 2953 641 2809 
L 641 3341 
Q 956 3463 1253 3523 
Q 1550 3584 1831 3584 
Q 2591 3584 2966 3190 
Q 3341 2797 3341 1997 
z
" transform="scale(0.015625)"/>
       <path id="DejaVuSans-72" d="M 2631 2963 
Q 2534 3019 2420 3045 
Q 2306 3072 2169 3072 
Q 1681 3072 1420 2755 
Q 1159 2438 1159 1844 
L 1159 0 
L 581 0 
L 581 3500 
L 1159 3500 
L 1159 2956 
Q 1341 3275 1631 3429 
Q 1922 3584 2338 3584 
Q 2397 3584 2469 3576 
Q 2541 3569 2628 3553 
L 2631 2963 
z
" transform="scale(0.015625)"/>
      </defs>
      <use xlink:href="#DejaVuSans-59"/>
      <use xlink:href="#DejaVuSans-65" x="47.833984"/>
      <use xlink:href="#DejaVuSans-61" x="109.357422"/>
      <use xlink:href="#DejaVuSans-72" x="170.636719"/>
     </g>
    </g>
   </g>
   <g id="matplotlib.axis_2">
    <g id="ytick_1">
     <g id="line2d_9">
      <defs>
       <path id="mb645ed65a1" d="M 0 0 
L -3.5 0 
" style="stroke: #000000; stroke-width: 0.8"/>
      </defs>
      <g>
       <use xlink:href="#mb645ed65a1" x="44.203125" y="290.703834" style="stroke: #000000; stroke-width: 0.8"/>
      </g>
     </g>
     <g id="text_10">
      <!-- 0 -->
      <g transform="translate(30.840625 294.503052) scale(0.1 -0.1)">
       <use xlink:href="#DejaVuSans-30"/>
      </g>
     </g>
    </g>
    <g id="ytick_2">
     <g id="line2d_10">
      <g>
       <use xlink:href="#mb645ed65a1" x="44.203125" y="248.409016" style="stroke: #000000; stroke-width: 0.8"/>
      </g>
     </g>
     <g id="text_11">
      <!-- 2 -->
      <g transform="translate(30.840625 252.208234) scale(0.1 -0.1)">
       <use xlink:href="#DejaVuSans-32"/>
      </g>
     </g>
    </g>
    <g id="ytick_3">
     <g id="line2d_11">
      <g>
       <use xlink:href="#mb645ed65a1" x="44.203125" y="206.114198" style="stroke: #000000; stroke-width: 0.8"/>
      </g>
     </g>
     <g id="text_12">
      <!-- 4 -->
      <g transform="translate(30.840625 209.913417) scale(0.1 -0.1)">
       <use xlink:href="#DejaVuSans-34"/>
      </g>
     </g>
    </g>
    <g id="ytick_4">
     <g id="line2d_12">
      <g>
       <use xlink:href="#mb645ed65a1" x="44.203125" y="163.81938" style="stroke: #000000; stroke-width: 0.8"/>
      </g>
     </g>
     <g id="text_13">
      <!-- 6 -->
      <g transform="translate(30.840625 167.618599) scale(0.1 -0.1)">
       <defs>
        <path id="DejaVuSans-36" d="M 2113 2584 
Q 1688 2584 1439 2293 
Q 1191 2003 1191 1497 
Q 1191 994 1439 701 
Q 1688 409 2113 409 
Q 2538 409 2786 701 
Q 3034 994 3034 1497 
Q 3034 2003 2786 2293 
Q 2538 2584 2113 2584 
z
M 3366 4563 
L 3366 3988 
Q 3128 4100 2886 4159 
Q 2644 4219 2406 4219 
Q 1781 4219 1451 3797 
Q 1122 3375 1075 2522 
Q 1259 2794 1537 2939 
Q 1816 3084 2150 3084 
Q 2853 3084 3261 2657 
Q 3669 2231 3669 1497 
Q 3669 778 3244 343 
Q 2819 -91 2113 -91 
Q 1303 -91 875 529 
Q 447 1150 447 2328 
Q 447 3434 972 4092 
Q 1497 4750 2381 4750 
Q 2619 4750 2861 4703 
Q 3103 4656 3366 4563 
z
" transform="scale(0.015625)"/>
       </defs>
       <use xlink:href="#DejaVuSans-36"/>
      </g>
     </g>
    </g>
    <g id="ytick_5">
     <g id="line2d_13">
      <g>
       <use xlink:href="#mb645ed65a1" x="44.203125" y="121.524562" style="stroke: #000000; stroke-width: 0.8"/>
      </g>
     </g>
     <g id="text_14">
      <!-- 8 -->
      <g transform="translate(30.840625 125.323781) scale(0.1 -0.1)">
       <use xlink:href="#DejaVuSans-38"/>
      </g>
     </g>
    </g>
    <g id="ytick_6">
     <g id="line2d_14">
      <g>
       <use xlink:href="#mb645ed65a1" x="44.203125" y="79.229744" style="stroke: #000000; stroke-width: 0.8"/>
      </g>
     </g>
     <g id="text_15">
      <!-- 10 -->
      <g transform="translate(24.478125 83.028963) scale(0.1 -0.1)">
       <use xlink:href="#DejaVuSans-31"/>
       <use xlink:href="#DejaVuSans-30" x="63.623047"/>
      </g>
     </g>
    </g>
    <g id="ytick_7">
     <g id="line2d_15">
      <g>
       <use xlink:href="#mb645ed65a1" x="44.203125" y="36.934926" style="stroke: #000000; stroke-width: 0.8"/>
      </g>
     </g>
     <g id="text_16">
      <!-- 12 -->
      <g transform="translate(24.478125 40.734145) scale(0.1 -0.1)">
       <use xlink:href="#DejaVuSans-31"/>
       <use xlink:href="#DejaVuSans-32" x="63.623047"/>
      </g>
     </g>
    </g>
    <g id="text_17">
     <!-- CO2 forcing (W m-2) -->
     <g transform="translate(18.398438 208.942187) rotate(-90) scale(0.1 -0.1)">
      <defs>
       <path id="DejaVuSans-43" d="M 4122 4306 
L 4122 3641 
Q 3803 3938 3442 4084 
Q 3081 4231 2675 4231 
Q 1875 4231 1450 3742 
Q 1025 3253 1025 2328 
Q 1025 1406 1450 917 
Q 1875 428 2675 428 
Q 3081 428 3442 575 
Q 3803 722 4122 1019 
L 4122 359 
Q 3791 134 3420 21 
Q 3050 -91 2638 -91 
Q 1578 -91 968 557 
Q 359 1206 359 2328 
Q 359 3453 968 4101 
Q 1578 4750 2638 4750 
Q 3056 4750 3426 4639 
Q 3797 4528 4122 4306 
z
" transform="scale(0.015625)"/>
       <path id="DejaVuSans-4f" d="M 2522 4238 
Q 1834 4238 1429 3725 
Q 1025 3213 1025 2328 
Q 1025 1447 1429 934 
Q 1834 422 2522 422 
Q 3209 422 3611 934 
Q 4013 1447 4013 2328 
Q 4013 3213 3611 3725 
Q 3209 4238 2522 4238 
z
M 2522 4750 
Q 3503 4750 4090 4092 
Q 4678 3434 4678 2328 
Q 4678 1225 4090 567 
Q 3503 -91 2522 -91 
Q 1538 -91 948 565 
Q 359 1222 359 2328 
Q 359 3434 948 4092 
Q 1538 4750 2522 4750 
z
" transform="scale(0.015625)"/>
       <path id="DejaVuSans-20" transform="scale(0.015625)"/>
       <path id="DejaVuSans-66" d="M 2375 4863 
L 2375 4384 
L 1825 4384 
Q 1516 4384 1395 4259 
Q 1275 4134 1275 3809 
L 1275 3500 
L 2222 3500 
L 2222 3053 
L 1275 3053 
L 1275 0 
L 697 0 
L 697 3053 
L 147 3053 
L 147 3500 
L 697 3500 
L 697 3744 
Q 697 4328 969 4595 
Q 1241 4863 1831 4863 
L 2375 4863 
z
" transform="scale(0.015625)"/>
       <path id="DejaVuSans-6f" d="M 1959 3097 
Q 1497 3097 1228 2736 
Q 959 2375 959 1747 
Q 959 1119 1226 758 
Q 1494 397 1959 397 
Q 2419 397 2687 759 
Q 2956 1122 2956 1747 
Q 2956 2369 2687 2733 
Q 2419 3097 1959 3097 
z
M 1959 3584 
Q 2709 3584 3137 3096 
Q 3566 2609 3566 1747 
Q 3566 888 3137 398 
Q 2709 -91 1959 -91 
Q 1206 -91 779 398 
Q 353 888 353 1747 
Q 353 2609 779 3096 
Q 1206 3584 1959 3584 
z
" transform="scale(0.015625)"/>
       <path id="DejaVuSans-63" d="M 3122 3366 
L 3122 2828 
Q 2878 2963 2633 3030 
Q 2388 3097 2138 3097 
Q 1578 3097 1268 2742 
Q 959 2388 959 1747 
Q 959 1106 1268 751 
Q 1578 397 2138 397 
Q 2388 397 2633 464 
Q 2878 531 3122 666 
L 3122 134 
Q 2881 22 2623 -34 
Q 2366 -91 2075 -91 
Q 1284 -91 818 406 
Q 353 903 353 1747 
Q 353 2603 823 3093 
Q 1294 3584 2113 3584 
Q 2378 3584 2631 3529 
Q 2884 3475 3122 3366 
z
" transform="scale(0.015625)"/>
       <path id="DejaVuSans-69" d="M 603 3500 
L 1178 3500 
L 1178 0 
L 603 0 
L 603 3500 
z
M 603 4863 
L 1178 4863 
L 1178 4134 
L 603 4134 
L 603 4863 
z
" transform="scale(0.015625)"/>
       <path id="DejaVuSans-6e" d="M 3513 2113 
L 3513 0 
L 2938 0 
L 2938 2094 
Q 2938 2591 2744 2837 
Q 2550 3084 2163 3084 
Q 1697 3084 1428 2787 
Q 1159 2491 1159 1978 
L 1159 0 
L 581 0 
L 581 3500 
L 1159 3500 
L 1159 2956 
Q 1366 3272 1645 3428 
Q 1925 3584 2291 3584 
Q 2894 3584 3203 3211 
Q 3513 2838 3513 2113 
z
" transform="scale(0.015625)"/>
       <path id="DejaVuSans-67" d="M 2906 1791 
Q 2906 2416 2648 2759 
Q 2391 3103 1925 3103 
Q 1463 3103 1205 2759 
Q 947 2416 947 1791 
Q 947 1169 1205 825 
Q 1463 481 1925 481 
Q 2391 481 2648 825 
Q 2906 1169 2906 1791 
z
M 3481 434 
Q 3481 -459 3084 -895 
Q 2688 -1331 1869 -1331 
Q 1566 -1331 1297 -1286 
Q 1028 -1241 775 -1147 
L 775 -588 
Q 1028 -725 1275 -790 
Q 1522 -856 1778 -856 
Q 2344 -856 2625 -561 
Q 2906 -266 2906 331 
L 2906 616 
Q 2728 306 2450 153 
Q 2172 0 1784 0 
Q 1141 0 747 490 
Q 353 981 353 1791 
Q 353 2603 747 3093 
Q 1141 3584 1784 3584 
Q 2172 3584 2450 3431 
Q 2728 3278 2906 2969 
L 2906 3500 
L 3481 3500 
L 3481 434 
z
" transform="scale(0.015625)"/>
       <path id="DejaVuSans-28" d="M 1984 4856 
Q 1566 4138 1362 3434 
Q 1159 2731 1159 2009 
Q 1159 1288 1364 580 
Q 1569 -128 1984 -844 
L 1484 -844 
Q 1016 -109 783 600 
Q 550 1309 550 2009 
Q 550 2706 781 3412 
Q 1013 4119 1484 4856 
L 1984 4856 
z
" transform="scale(0.015625)"/>
       <path id="DejaVuSans-57" d="M 213 4666 
L 850 4666 
L 1831 722 
L 2809 4666 
L 3519 4666 
L 4500 722 
L 5478 4666 
L 6119 4666 
L 4947 0 
L 4153 0 
L 3169 4050 
L 2175 0 
L 1381 0 
L 213 4666 
z
" transform="scale(0.015625)"/>
       <path id="DejaVuSans-6d" d="M 3328 2828 
Q 3544 3216 3844 3400 
Q 4144 3584 4550 3584 
Q 5097 3584 5394 3201 
Q 5691 2819 5691 2113 
L 5691 0 
L 5113 0 
L 5113 2094 
Q 5113 2597 4934 2840 
Q 4756 3084 4391 3084 
Q 3944 3084 3684 2787 
Q 3425 2491 3425 1978 
L 3425 0 
L 2847 0 
L 2847 2094 
Q 2847 2600 2669 2842 
Q 2491 3084 2119 3084 
Q 1678 3084 1418 2786 
Q 1159 2488 1159 1978 
L 1159 0 
L 581 0 
L 581 3500 
L 1159 3500 
L 1159 2956 
Q 1356 3278 1631 3431 
Q 1906 3584 2284 3584 
Q 2666 3584 2933 3390 
Q 3200 3197 3328 2828 
z
" transform="scale(0.015625)"/>
       <path id="DejaVuSans-2d" d="M 313 2009 
L 1997 2009 
L 1997 1497 
L 313 1497 
L 313 2009 
z
" transform="scale(0.015625)"/>
       <path id="DejaVuSans-29" d="M 513 4856 
L 1013 4856 
Q 1481 4119 1714 3412 
Q 1947 2706 1947 2009 
Q 1947 1309 1714 600 
Q 1481 -109 1013 -844 
L 513 -844 
Q 928 -128 1133 580 
Q 1338 1288 1338 2009 
Q 1338 2731 1133 3434 
Q 928 4138 513 4856 
z
" transform="scale(0.015625)"/>
      </defs>
      <use xlink:href="#DejaVuSans-43"/>
      <use xlink:href="#DejaVuSans-4f" x="69.824219"/>
      <use xlink:href="#DejaVuSans-32" x="148.535156"/>
      <use xlink:href="#DejaVuSans-20" x="212.158203"/>
      <use xlink:href="#DejaVuSans-66" x="243.945312"/>
      <use xlink:href="#DejaVuSans-6f" x="279.150391"/>
      <use xlink:href="#DejaVuSans-72" x="340.332031"/>
      <use xlink:href="#DejaVuSans-63" x="379.195312"/>
      <use xlink:href="#DejaVuSans-69" x="434.175781"/>
      <use xlink:href="#DejaVuSans-6e" x="461.958984"/>
      <use xlink:href="#DejaVuSans-67" x="525.337891"/>
      <use xlink:href="#DejaVuSans-20" x="588.814453"/>
      <use xlink:href="#DejaVuSans-28" x="620.601562"/>
      <use xlink:href="#DejaVuSans-57" x="659.615234"/>
      <use xlink:href="#DejaVuSans-20" x="758.492188"/>
      <use xlink:href="#DejaVuSans-6d" x="790.279297"/>
      <use xlink:href="#DejaVuSans-2d" x="887.691406"/>
      <use xlink:href="#DejaVuSans-32" x="923.775391"/>
      <use xlink:href="#DejaVuSans-29" x="987.398438"/>
     </g>
    </g>
   </g>
   <g id="line2d_16">
    <path d="M 62.648438 290.703834 
L 72.977812 290.227647 
L 77.896562 289.857852 
L 89.209687 289.011572 
L 100.522812 288.369227 
L 103.965937 288.229542 
L 110.852187 287.796915 
L 122.657187 286.312531 
L 126.592187 285.573504 
L 131.019062 284.499553 
L 136.921562 282.933534 
L 140.364687 281.933954 
L 142.824062 280.988941 
L 146.267187 279.682349 
L 148.726562 279.073165 
L 151.677812 278.682428 
L 153.153437 278.310582 
L 153.645312 278.140262 
L 155.120937 277.346737 
L 156.596562 276.767504 
L 157.580312 276.547291 
L 161.023437 276.383695 
L 162.007187 276.185969 
L 164.466562 275.561948 
L 165.450312 275.254751 
L 166.925937 274.415191 
L 168.401562 273.754101 
L 168.893437 273.358682 
L 169.877187 272.800022 
L 170.369062 272.481952 
L 170.860937 271.918456 
L 171.352812 271.692295 
L 171.844687 270.98012 
L 172.336562 270.050488 
L 172.828437 269.744485 
L 173.320312 269.719044 
L 173.812187 269.460306 
L 175.779687 266.906595 
L 176.271562 266.429301 
L 176.763437 266.223801 
L 179.222812 263.397922 
L 179.714687 262.540631 
L 180.698437 261.589059 
L 181.682187 260.859914 
L 182.174062 260.625408 
L 182.665937 260.178781 
L 183.649687 258.925971 
L 184.141562 258.512335 
L 184.633437 257.626629 
L 185.125312 256.99873 
L 186.109062 256.075826 
L 188.568437 252.753627 
L 189.060312 252.249034 
L 189.552187 251.575394 
L 190.044062 251.091516 
L 192.011562 248.162704 
L 192.503437 247.605267 
L 192.995312 246.873657 
L 193.979062 245.121664 
L 196.438437 240.999389 
L 197.914062 239.026416 
L 199.389687 237.547704 
L 200.865312 236.504819 
L 202.340937 235.796102 
L 203.816562 235.350025 
L 205.292187 235.164896 
L 207.259687 235.255337 
L 209.227187 235.606057 
L 211.194687 236.215074 
L 215.621562 237.867296 
L 220.048437 239.801869 
L 223.983437 241.773684 
L 227.426562 243.725325 
L 230.869687 245.957536 
L 234.312812 248.483554 
L 238.739687 251.845543 
L 242.674687 254.49548 
L 247.101562 257.204306 
L 252.020312 259.954705 
L 256.447187 262.199883 
L 258.906562 263.178726 
L 261.857812 264.096423 
L 264.809062 264.803232 
L 268.252187 265.378768 
L 271.695312 265.701282 
L 275.138437 265.782914 
L 278.581562 265.633716 
L 283.992187 265.286901 
L 290.386562 265.178894 
L 302.191562 265.241662 
L 322.850312 265.567952 
L 425.160312 267.487495 
L 431.554687 267.584608 
L 431.554687 267.584608 
" clip-path="url(#pb319859aac)" style="fill: none; stroke-dasharray: 5.55,2.4; stroke-dashoffset: 0; stroke: #348abd; stroke-width: 1.5"/>
   </g>
   <g id="line2d_17">
    <path d="M 62.648438 291.096307 
L 72.485937 290.614741 
L 80.847812 289.911982 
L 87.734062 289.369823 
L 101.014687 288.559065 
L 110.360312 288.005514 
L 118.230312 286.959524 
L 126.100312 285.650171 
L 130.035312 284.685438 
L 134.462187 283.398643 
L 136.921562 282.688217 
L 139.872812 281.789212 
L 142.332187 280.826737 
L 145.283437 279.517012 
L 148.726562 278.525919 
L 151.677812 278.10523 
L 153.153437 277.705009 
L 153.645312 277.521736 
L 155.120937 276.66813 
L 156.596562 276.045267 
L 157.580312 275.808333 
L 161.023437 275.63225 
L 162.007187 275.419719 
L 163.974687 274.868226 
L 165.450312 274.41895 
L 166.925937 273.517482 
L 168.401562 272.807889 
L 168.893437 272.383701 
L 169.877187 271.784506 
L 170.369062 271.44348 
L 170.860937 270.839626 
L 171.352812 270.597233 
L 171.844687 269.834563 
L 172.336562 268.839671 
L 172.828437 268.512199 
L 173.320312 268.484786 
L 173.812187 268.207907 
L 175.779687 265.479163 
L 176.271562 264.96963 
L 176.763437 264.750116 
L 179.222812 261.737447 
L 179.714687 260.824903 
L 180.698437 259.812016 
L 181.682187 259.036697 
L 182.174062 258.787408 
L 182.665937 258.312749 
L 183.649687 256.982501 
L 184.141562 256.54332 
L 184.633437 255.604178 
L 185.125312 254.938599 
L 186.109062 253.960478 
L 188.568437 250.44764 
L 189.060312 249.914775 
L 189.552187 249.203753 
L 190.044062 248.693237 
L 192.011562 245.608048 
L 192.503437 245.021373 
L 192.995312 244.251988 
L 193.979062 242.412617 
L 196.438437 238.096105 
L 197.914062 236.035662 
L 199.389687 234.493657 
L 200.373437 233.721495 
L 201.849062 232.884717 
L 203.324687 232.329411 
L 204.800312 232.04613 
L 206.275937 232.022915 
L 208.243437 232.251481 
L 210.210937 232.752444 
L 214.145937 234.210258 
L 218.080937 235.899782 
L 222.015937 237.827072 
L 225.950937 240.020922 
L 229.394062 242.228599 
L 232.345312 244.366397 
L 235.788437 247.147693 
L 239.231562 249.826684 
L 243.166562 252.591027 
L 247.593437 255.429076 
L 252.512187 258.322001 
L 256.447187 260.43028 
L 258.906562 261.472218 
L 261.857812 262.449796 
L 264.809062 263.2032 
L 267.760312 263.746261 
L 270.711562 264.089693 
L 274.154687 264.248686 
L 277.597812 264.158715 
L 286.943437 263.639548 
L 295.305312 263.609818 
L 313.012812 263.824031 
L 344.984687 264.490164 
L 421.225312 266.004345 
L 431.554687 266.175595 
L 431.554687 266.175595 
" clip-path="url(#pb319859aac)" style="fill: none; stroke: #348abd; stroke-width: 1.5; stroke-linecap: square"/>
   </g>
   <g id="line2d_18">
    <path d="M 62.648438 290.703834 
L 72.977812 290.227647 
L 77.896562 289.857852 
L 89.209687 289.011572 
L 100.522812 288.369227 
L 103.965937 288.229542 
L 110.852187 287.796915 
L 122.657187 286.312531 
L 126.592187 285.573504 
L 131.019062 284.499553 
L 136.921562 282.933534 
L 140.364687 281.933954 
L 142.824062 280.988941 
L 146.267187 279.682349 
L 148.726562 279.073165 
L 151.677812 278.682428 
L 153.153437 278.310582 
L 153.645312 278.140262 
L 155.120937 277.346737 
L 156.596562 276.767504 
L 157.580312 276.547291 
L 161.023437 276.383695 
L 162.007187 276.185969 
L 164.466562 275.561948 
L 165.450312 275.254751 
L 166.925937 274.415191 
L 168.401562 273.754101 
L 168.893437 273.358682 
L 169.877187 272.800022 
L 170.369062 272.481952 
L 170.860937 271.918456 
L 171.352812 271.692295 
L 171.844687 270.98012 
L 172.336562 270.050488 
L 172.828437 269.744485 
L 173.320312 269.719044 
L 173.812187 269.460306 
L 175.779687 266.906595 
L 176.271562 266.429301 
L 176.763437 266.223801 
L 179.222812 263.397922 
L 179.714687 262.540631 
L 180.698437 261.589059 
L 181.682187 260.859914 
L 182.174062 260.625408 
L 182.665937 260.178781 
L 183.649687 258.925971 
L 184.141562 258.512335 
L 184.633437 257.626629 
L 185.125312 256.99873 
L 186.109062 256.075826 
L 188.568437 252.753627 
L 189.060312 252.249034 
L 189.552187 251.575394 
L 190.044062 251.091516 
L 192.011562 248.162704 
L 192.503437 247.605267 
L 192.995312 246.873667 
L 193.979062 245.118368 
L 203.816562 228.165774 
L 209.227187 219.247064 
L 212.670312 213.932371 
L 215.621562 209.760724 
L 218.080937 206.590832 
L 220.540312 203.725884 
L 222.507812 201.706935 
L 224.475312 199.987305 
L 226.442812 198.558563 
L 228.410312 197.469888 
L 229.885937 196.873034 
L 231.853437 196.314873 
L 234.312812 195.858451 
L 240.707187 195.007757 
L 246.117812 193.945302 
L 254.971562 191.946087 
L 265.300937 189.623961 
L 270.711562 188.716288 
L 276.122187 188.043263 
L 281.532812 187.598579 
L 286.943437 187.378644 
L 292.354062 187.380706 
L 297.764687 187.602791 
L 303.175312 188.043503 
L 308.585937 188.701969 
L 322.850312 190.641527 
L 337.114687 192.34512 
L 354.822187 194.229261 
L 376.464687 196.30734 
L 403.025937 198.634661 
L 428.603437 200.664703 
L 431.554687 200.868227 
L 431.554687 200.868227 
" clip-path="url(#pb319859aac)" style="fill: none; stroke-dasharray: 5.55,2.4; stroke-dashoffset: 0; stroke: #188487; stroke-width: 1.5"/>
   </g>
   <g id="line2d_19">
    <path d="M 62.648438 291.096307 
L 72.485937 290.614741 
L 80.847812 289.911982 
L 87.734062 289.369823 
L 101.014687 288.559065 
L 110.360312 288.005514 
L 118.230312 286.959524 
L 126.100312 285.650171 
L 130.035312 284.685438 
L 134.462187 283.398643 
L 136.921562 282.688217 
L 139.872812 281.789212 
L 142.332187 280.826737 
L 145.283437 279.517012 
L 148.726562 278.525919 
L 151.677812 278.10523 
L 153.153437 277.705009 
L 153.645312 277.521736 
L 155.120937 276.66813 
L 156.596562 276.045267 
L 157.580312 275.808333 
L 161.023437 275.63225 
L 162.007187 275.419719 
L 163.974687 274.868226 
L 165.450312 274.41895 
L 166.925937 273.517482 
L 168.401562 272.807889 
L 168.893437 272.383701 
L 169.877187 271.784506 
L 170.369062 271.44348 
L 170.860937 270.839626 
L 171.352812 270.597233 
L 171.844687 269.834563 
L 172.336562 268.839671 
L 172.828437 268.512199 
L 173.320312 268.484786 
L 173.812187 268.207907 
L 175.779687 265.479163 
L 176.271562 264.96963 
L 176.763437 264.750116 
L 179.222812 261.737447 
L 179.714687 260.824903 
L 180.698437 259.812016 
L 181.682187 259.036697 
L 182.174062 258.787408 
L 182.665937 258.312749 
L 183.649687 256.982501 
L 184.141562 256.54332 
L 184.633437 255.604178 
L 185.125312 254.938599 
L 186.109062 253.960478 
L 188.568437 250.44764 
L 189.060312 249.914775 
L 189.552187 249.203753 
L 190.044062 248.693237 
L 192.011562 245.608048 
L 192.503437 245.021373 
L 192.995312 244.251998 
L 193.979062 242.409155 
L 201.849062 228.221969 
L 207.259687 218.840663 
L 211.194687 212.424838 
L 214.145937 207.991795 
L 217.097187 203.951805 
L 219.556562 200.937426 
L 222.015937 198.262486 
L 223.983437 196.461046 
L 225.950937 194.950077 
L 227.918437 193.773178 
L 229.394062 193.113538 
L 231.361562 192.499657 
L 233.820937 191.989416 
L 244.150312 190.417798 
L 251.528437 188.816656 
L 266.284687 185.537792 
L 271.695312 184.682481 
L 277.105937 184.059085 
L 282.516562 183.661464 
L 287.927187 183.485539 
L 293.337812 183.528999 
L 298.748437 183.789889 
L 304.159062 184.267142 
L 309.569687 184.958982 
L 323.342187 186.807558 
L 337.606562 188.496179 
L 355.805937 190.418424 
L 378.432187 192.574206 
L 405.485312 194.927498 
L 431.062812 196.943853 
L 431.554687 196.962373 
L 431.554687 196.962373 
" clip-path="url(#pb319859aac)" style="fill: none; stroke: #188487; stroke-width: 1.5; stroke-linecap: square"/>
   </g>
   <g id="line2d_20">
    <path d="M 62.648438 290.703834 
L 72.977812 290.227647 
L 77.896562 289.857852 
L 89.209687 289.011572 
L 100.522812 288.369227 
L 103.965937 288.229542 
L 110.852187 287.796915 
L 122.657187 286.312531 
L 126.592187 285.573504 
L 131.019062 284.499553 
L 136.921562 282.933534 
L 140.364687 281.933954 
L 142.824062 280.988941 
L 146.267187 279.682349 
L 148.726562 279.073165 
L 151.677812 278.682428 
L 153.153437 278.310582 
L 153.645312 278.140262 
L 155.120937 277.346737 
L 156.596562 276.767504 
L 157.580312 276.547291 
L 161.023437 276.383695 
L 162.007187 276.185969 
L 164.466562 275.561948 
L 165.450312 275.254751 
L 166.925937 274.415191 
L 168.401562 273.754101 
L 168.893437 273.358682 
L 169.877187 272.800022 
L 170.369062 272.481952 
L 170.860937 271.918456 
L 171.352812 271.692295 
L 171.844687 270.98012 
L 172.336562 270.050488 
L 172.828437 269.744485 
L 173.320312 269.719044 
L 173.812187 269.460306 
L 175.779687 266.906595 
L 176.271562 266.429301 
L 176.763437 266.223801 
L 179.222812 263.397922 
L 179.714687 262.540631 
L 180.698437 261.589059 
L 181.682187 260.859914 
L 182.174062 260.625408 
L 182.665937 260.178781 
L 183.649687 258.925971 
L 184.141562 258.512335 
L 184.633437 257.626629 
L 185.125312 256.99873 
L 186.109062 256.075826 
L 188.568437 252.753627 
L 189.060312 252.249034 
L 189.552187 251.575394 
L 190.044062 251.091516 
L 192.011562 248.162704 
L 192.503437 247.605267 
L 192.995312 246.873868 
L 194.962812 243.275395 
L 197.914062 237.365497 
L 201.357187 229.962207 
L 206.275937 218.821486 
L 213.162187 202.575338 
L 220.540312 184.585675 
L 228.410312 164.801224 
L 235.296562 146.84303 
L 238.247812 139.33419 
L 241.199062 132.386594 
L 244.150312 125.948887 
L 247.101562 119.992195 
L 250.052812 114.490196 
L 253.004062 109.423816 
L 255.955312 104.772084 
L 258.906562 100.515846 
L 261.857812 96.629811 
L 264.809062 93.078094 
L 267.760312 89.846575 
L 270.711562 86.918907 
L 273.662812 84.283767 
L 276.614062 81.92847 
L 279.565312 79.841088 
L 282.516562 78.01416 
L 285.467812 76.436017 
L 288.419062 75.099341 
L 291.370312 73.998218 
L 294.321562 73.125349 
L 297.272812 72.476615 
L 300.224062 72.048292 
L 303.175312 71.836121 
L 306.126562 71.839807 
L 309.077812 72.05848 
L 332.687812 74.773656 
L 377.448437 79.877777 
L 420.733437 84.509736 
L 431.554687 85.591388 
L 431.554687 85.591388 
" clip-path="url(#pb319859aac)" style="fill: none; stroke-dasharray: 5.55,2.4; stroke-dashoffset: 0; stroke: #e24a33; stroke-width: 1.5"/>
   </g>
   <g id="line2d_21">
    <path d="M 62.648438 291.096307 
L 72.485937 290.614741 
L 80.847812 289.911982 
L 87.734062 289.369823 
L 101.014687 288.559065 
L 110.360312 288.005514 
L 118.230312 286.959524 
L 126.100312 285.650171 
L 130.035312 284.685438 
L 134.462187 283.398643 
L 136.921562 282.688217 
L 139.872812 281.789212 
L 142.332187 280.826737 
L 145.283437 279.517012 
L 148.726562 278.525919 
L 151.677812 278.10523 
L 153.153437 277.705009 
L 153.645312 277.521736 
L 155.120937 276.66813 
L 156.596562 276.045267 
L 157.580312 275.808333 
L 161.023437 275.63225 
L 162.007187 275.419719 
L 163.974687 274.868226 
L 165.450312 274.41895 
L 166.925937 273.517482 
L 168.401562 272.807889 
L 168.893437 272.383701 
L 169.877187 271.784506 
L 170.369062 271.44348 
L 170.860937 270.839626 
L 171.352812 270.597233 
L 171.844687 269.834563 
L 172.336562 268.839671 
L 172.828437 268.512199 
L 173.320312 268.484786 
L 173.812187 268.207907 
L 175.779687 265.479163 
L 176.271562 264.96963 
L 176.763437 264.750116 
L 179.222812 261.737447 
L 179.714687 260.824903 
L 180.698437 259.812016 
L 181.682187 259.036697 
L 182.174062 258.787408 
L 182.665937 258.312749 
L 183.649687 256.982501 
L 184.141562 256.54332 
L 184.633437 255.604178 
L 185.125312 254.938599 
L 186.109062 253.960478 
L 188.568437 250.44764 
L 189.060312 249.914775 
L 189.552187 249.203753 
L 190.044062 248.693237 
L 192.011562 245.608048 
L 192.503437 245.021373 
L 192.995312 244.252209 
L 194.470937 241.446503 
L 196.930312 236.4081 
L 200.373437 228.863227 
L 205.784062 216.317978 
L 215.129687 193.901215 
L 227.918437 162.606489 
L 239.231562 134.819077 
L 242.182812 128.452233 
L 245.134062 122.581864 
L 248.085312 117.171584 
L 251.036562 112.194497 
L 253.987812 107.623041 
L 256.939062 103.435196 
L 259.890312 99.609568 
L 262.841562 96.11427 
L 265.792812 92.921845 
L 268.744062 90.018044 
L 271.695312 87.389004 
L 274.646562 85.023013 
L 277.597812 82.911137 
L 280.549062 81.043413 
L 283.500312 79.4115 
L 286.451562 78.00765 
L 289.402812 76.826347 
L 292.354062 75.861598 
L 295.305312 75.108601 
L 298.256562 74.565357 
L 301.207812 74.227523 
L 304.159062 74.093483 
L 307.110312 74.161751 
L 311.045312 74.521386 
L 329.244687 76.47648 
L 367.119062 80.530198 
L 404.009687 84.276224 
L 431.554687 86.900917 
L 431.554687 86.900917 
" clip-path="url(#pb319859aac)" style="fill: none; stroke: #e24a33; stroke-width: 1.5; stroke-linecap: square"/>
   </g>
   <g id="line2d_22">
    <path d="M 62.648438 290.703834 
L 72.977812 290.227647 
L 77.896562 289.857852 
L 89.209687 289.011572 
L 100.522812 288.369227 
L 103.965937 288.229542 
L 110.852187 287.796915 
L 122.657187 286.312531 
L 126.592187 285.573504 
L 131.019062 284.499553 
L 136.921562 282.933534 
L 140.364687 281.933954 
L 142.824062 280.988941 
L 146.267187 279.682349 
L 148.726562 279.073165 
L 151.677812 278.682428 
L 153.153437 278.310582 
L 153.645312 278.140262 
L 155.120937 277.346737 
L 156.596562 276.767504 
L 157.580312 276.547291 
L 161.023437 276.383695 
L 162.007187 276.185969 
L 164.466562 275.561948 
L 165.450312 275.254751 
L 166.925937 274.415191 
L 168.401562 273.754101 
L 168.893437 273.358682 
L 169.877187 272.800022 
L 170.369062 272.481952 
L 170.860937 271.918456 
L 171.352812 271.692295 
L 171.844687 270.98012 
L 172.336562 270.050488 
L 172.828437 269.744485 
L 173.320312 269.719044 
L 173.812187 269.460306 
L 175.779687 266.906595 
L 176.271562 266.429301 
L 176.763437 266.223801 
L 179.222812 263.397922 
L 179.714687 262.540631 
L 180.698437 261.589059 
L 181.682187 260.859914 
L 182.174062 260.625408 
L 182.665937 260.178781 
L 183.649687 258.925971 
L 184.141562 258.512335 
L 184.633437 257.626629 
L 185.125312 256.99873 
L 186.109062 256.075826 
L 188.568437 252.753627 
L 189.060312 252.249034 
L 189.552187 251.575394 
L 190.044062 251.091516 
L 192.011562 248.162704 
L 192.503437 247.605267 
L 192.995312 246.873579 
L 193.979062 245.12407 
L 200.865312 233.183557 
L 213.654062 209.348312 
L 218.080937 201.789462 
L 221.524062 196.354612 
L 223.983437 192.91923 
L 226.442812 189.894538 
L 228.902187 187.272667 
L 231.361562 185.038489 
L 233.329062 183.518833 
L 235.788437 181.937052 
L 246.609687 175.57008 
L 252.020312 172.671016 
L 257.430937 170.022521 
L 262.349687 167.852061 
L 266.776562 166.144242 
L 271.203437 164.672854 
L 275.630312 163.434355 
L 280.057187 162.425941 
L 284.484062 161.645857 
L 288.910937 161.092358 
L 293.337812 160.764033 
L 297.764687 160.659636 
L 302.191562 160.778572 
L 306.618437 161.121051 
L 312.520937 161.847246 
L 332.195937 164.20504 
L 355.314062 166.741541 
L 383.842812 169.646679 
L 415.322812 172.618543 
L 431.554687 174.043117 
L 431.554687 174.043117 
" clip-path="url(#pb319859aac)" style="fill: none; stroke-dasharray: 5.55,2.4; stroke-dashoffset: 0; stroke: #7a68a6; stroke-width: 1.5"/>
   </g>
   <g id="line2d_23">
    <path d="M 62.648438 291.096307 
L 72.485937 290.614741 
L 80.847812 289.911982 
L 87.734062 289.369823 
L 101.014687 288.559065 
L 110.360312 288.005514 
L 118.230312 286.959524 
L 126.100312 285.650171 
L 130.035312 284.685438 
L 134.462187 283.398643 
L 136.921562 282.688217 
L 139.872812 281.789212 
L 142.332187 280.826737 
L 145.283437 279.517012 
L 148.726562 278.525919 
L 151.677812 278.10523 
L 153.153437 277.705009 
L 153.645312 277.521736 
L 155.120937 276.66813 
L 156.596562 276.045267 
L 157.580312 275.808333 
L 161.023437 275.63225 
L 162.007187 275.419719 
L 163.974687 274.868226 
L 165.450312 274.41895 
L 166.925937 273.517482 
L 168.401562 272.807889 
L 168.893437 272.383701 
L 169.877187 271.784506 
L 170.369062 271.44348 
L 170.860937 270.839626 
L 171.352812 270.597233 
L 171.844687 269.834563 
L 172.336562 268.839671 
L 172.828437 268.512199 
L 173.320312 268.484786 
L 173.812187 268.207907 
L 175.779687 265.479163 
L 176.271562 264.96963 
L 176.763437 264.750116 
L 179.222812 261.737447 
L 179.714687 260.824903 
L 180.698437 259.812016 
L 181.682187 259.036697 
L 182.174062 258.787408 
L 182.665937 258.312749 
L 183.649687 256.982501 
L 184.141562 256.54332 
L 184.633437 255.604178 
L 185.125312 254.938599 
L 186.109062 253.960478 
L 188.568437 250.44764 
L 189.060312 249.914775 
L 189.552187 249.203753 
L 190.044062 248.693237 
L 192.011562 245.608048 
L 192.503437 245.021373 
L 192.995312 244.251906 
L 193.979062 242.415134 
L 201.357187 228.995776 
L 211.686562 209.065593 
L 216.113437 201.174225 
L 219.556562 195.465337 
L 222.015937 191.685014 
L 224.475312 188.34027 
L 226.934687 185.41002 
L 229.394062 182.885525 
L 231.853437 180.746487 
L 233.820937 179.300418 
L 236.280312 177.783787 
L 245.625937 172.347016 
L 251.036562 169.462541 
L 256.447187 166.828516 
L 261.365937 164.664172 
L 265.792812 162.951356 
L 270.219687 161.471803 
L 274.646562 160.220704 
L 279.073437 159.194347 
L 283.500312 158.389888 
L 287.927187 157.805305 
L 292.354062 157.438588 
L 296.780937 157.288023 
L 301.207812 157.353174 
L 305.634687 157.633727 
L 310.553437 158.184148 
L 329.736562 160.422296 
L 353.346562 162.943584 
L 382.859062 165.866239 
L 413.847187 168.718336 
L 431.554687 170.237212 
L 431.554687 170.237212 
" clip-path="url(#pb319859aac)" style="fill: none; stroke: #7a68a6; stroke-width: 1.5; stroke-linecap: square"/>
   </g>
   <g id="line2d_24">
    <path d="M 62.648438 290.703834 
L 72.977812 290.227647 
L 77.896562 289.857852 
L 89.209687 289.011572 
L 100.522812 288.369227 
L 103.965937 288.229542 
L 110.852187 287.796915 
L 122.657187 286.312531 
L 126.592187 285.573504 
L 131.019062 284.499553 
L 136.921562 282.933534 
L 140.364687 281.933954 
L 142.824062 280.988941 
L 146.267187 279.682349 
L 148.726562 279.073165 
L 151.677812 278.682428 
L 153.153437 278.310582 
L 153.645312 278.140262 
L 155.120937 277.346737 
L 156.596562 276.767504 
L 157.580312 276.547291 
L 161.023437 276.383695 
L 162.007187 276.185969 
L 164.466562 275.561948 
L 165.450312 275.254751 
L 166.925937 274.415191 
L 168.401562 273.754101 
L 168.893437 273.358682 
L 169.877187 272.800022 
L 170.369062 272.481952 
L 170.860937 271.918456 
L 171.352812 271.692295 
L 171.844687 270.98012 
L 172.336562 270.050488 
L 172.828437 269.744485 
L 173.320312 269.719044 
L 173.812187 269.460306 
L 175.779687 266.906595 
L 176.271562 266.429301 
L 176.763437 266.223801 
L 179.222812 263.397922 
L 179.714687 262.540631 
L 180.698437 261.589059 
L 181.682187 260.859914 
L 182.174062 260.625408 
L 182.665937 260.178781 
L 183.649687 258.925971 
L 184.141562 258.512335 
L 184.633437 257.626629 
L 185.125312 256.99873 
L 186.109062 256.075826 
L 188.568437 252.753627 
L 189.060312 252.249034 
L 189.552187 251.575394 
L 190.044062 251.091516 
L 192.011562 248.162704 
L 192.503437 247.605267 
L 192.995312 246.873763 
L 194.470937 244.221798 
L 196.930312 239.545097 
L 199.389687 234.289722 
L 201.849062 228.48592 
L 204.308437 222.095333 
L 206.767812 215.152133 
L 209.719062 206.096251 
L 212.670312 196.273142 
L 215.621562 185.642298 
L 219.064687 172.416595 
L 223.983437 152.516225 
L 228.902187 132.70463 
L 232.345312 119.823987 
L 235.296562 109.612915 
L 238.247812 100.207291 
L 241.199062 91.615741 
L 244.150312 83.763801 
L 247.101562 76.597581 
L 250.052812 70.072135 
L 253.004062 64.144159 
L 255.955312 58.774866 
L 258.906562 53.925225 
L 261.857812 49.561318 
L 264.809062 45.656851 
L 267.760312 42.176641 
L 270.711562 39.089549 
L 273.662812 36.366839 
L 276.614062 33.977419 
L 279.565312 31.900463 
L 282.516562 30.108192 
L 285.467812 28.583754 
L 288.419062 27.306986 
L 291.370312 26.264246 
L 294.321562 25.438956 
L 297.272812 24.824275 
L 300.224062 24.408428 
L 303.667187 24.170434 
L 307.110312 24.191182 
L 311.045312 24.492389 
L 336.622812 26.804223 
L 376.464687 30.305334 
L 431.554687 34.84655 
L 431.554687 34.84655 
" clip-path="url(#pb319859aac)" style="fill: none; stroke-dasharray: 5.55,2.4; stroke-dashoffset: 0; stroke: #a60628; stroke-width: 1.5"/>
   </g>
   <g id="line2d_25">
    <path d="M 62.648438 291.096307 
L 72.485937 290.614741 
L 80.847812 289.911982 
L 87.734062 289.369823 
L 101.014687 288.559065 
L 110.360312 288.005514 
L 118.230312 286.959524 
L 126.100312 285.650171 
L 130.035312 284.685438 
L 134.462187 283.398643 
L 136.921562 282.688217 
L 139.872812 281.789212 
L 142.332187 280.826737 
L 145.283437 279.517012 
L 148.726562 278.525919 
L 151.677812 278.10523 
L 153.153437 277.705009 
L 153.645312 277.521736 
L 155.120937 276.66813 
L 156.596562 276.045267 
L 157.580312 275.808333 
L 161.023437 275.63225 
L 162.007187 275.419719 
L 163.974687 274.868226 
L 165.450312 274.41895 
L 166.925937 273.517482 
L 168.401562 272.807889 
L 168.893437 272.383701 
L 169.877187 271.784506 
L 170.369062 271.44348 
L 170.860937 270.839626 
L 171.352812 270.597233 
L 171.844687 269.834563 
L 172.336562 268.839671 
L 172.828437 268.512199 
L 173.320312 268.484786 
L 173.812187 268.207907 
L 175.779687 265.479163 
L 176.271562 264.96963 
L 176.763437 264.750116 
L 179.222812 261.737447 
L 179.714687 260.824903 
L 180.698437 259.812016 
L 181.682187 259.036697 
L 182.174062 258.787408 
L 182.665937 258.312749 
L 183.649687 256.982501 
L 184.141562 256.54332 
L 184.633437 255.604178 
L 185.125312 254.938599 
L 186.109062 253.960478 
L 188.568437 250.44764 
L 189.060312 249.914775 
L 189.552187 249.203753 
L 190.044062 248.693237 
L 192.011562 245.608048 
L 192.503437 245.021373 
L 192.995312 244.252098 
L 194.470937 241.468995 
L 196.930312 236.576984 
L 199.389687 231.10466 
L 201.849062 225.09279 
L 204.308437 218.512379 
L 207.259687 209.928156 
L 210.210937 200.630023 
L 213.162187 190.644899 
L 216.605312 178.159896 
L 221.032187 161.203552 
L 228.410312 132.749783 
L 231.853437 120.598349 
L 234.804688 111.015676 
L 237.755937 102.196559 
L 240.707187 94.148245 
L 243.658437 86.778967 
L 246.609687 80.021693 
L 249.560937 73.824152 
L 252.512187 68.140874 
L 255.463437 62.933489 
L 258.414687 58.16644 
L 261.365937 53.811534 
L 264.317187 49.85018 
L 267.268437 46.257112 
L 270.219687 43.012481 
L 273.170937 40.096579 
L 276.122187 37.490356 
L 279.073437 35.181428 
L 282.024687 33.151759 
L 284.975937 31.395471 
L 287.927187 29.89825 
L 290.878437 28.653705 
L 293.829687 27.652314 
L 296.780937 26.88849 
L 299.732187 26.360343 
L 302.683437 26.062083 
L 305.634687 25.99153 
L 308.585937 26.146566 
L 321.866562 27.552781 
L 354.330312 30.921679 
L 393.680312 34.706407 
L 430.570937 37.98602 
L 431.554687 38.048908 
L 431.554687 38.048908 
" clip-path="url(#pb319859aac)" style="fill: none; stroke: #a60628; stroke-width: 1.5; stroke-linecap: square"/>
   </g>
   <g id="patch_2">
    <path d="M 44.203125 304.44375 
L 44.203125 10.8 
" style="fill: none; stroke: #000000; stroke-width: 0.8; stroke-linejoin: miter; stroke-linecap: square"/>
   </g>
   <g id="patch_3">
    <path d="M 450 304.44375 
L 450 10.8 
" style="fill: none; stroke: #000000; stroke-width: 0.8; stroke-linejoin: miter; stroke-linecap: square"/>
   </g>
   <g id="patch_4">
    <path d="M 44.203125 304.44375 
L 450 304.44375 
" style="fill: none; stroke: #000000; stroke-width: 0.8; stroke-linejoin: miter; stroke-linecap: square"/>
   </g>
   <g id="patch_5">
    <path d="M 44.203125 10.8 
L 450 10.8 
" style="fill: none; stroke: #000000; stroke-width: 0.8; stroke-linejoin: miter; stroke-linecap: square"/>
   </g>
   <g id="legend_1">
    <g id="patch_6">
     <path d="M 51.203125 165.58125 
L 169.795313 165.58125 
Q 171.795313 165.58125 171.795313 163.58125 
L 171.795313 17.8 
Q 171.795313 15.8 169.795313 15.8 
L 51.203125 15.8 
Q 49.203125 15.8 49.203125 17.8 
L 49.203125 163.58125 
Q 49.203125 165.58125 51.203125 165.58125 
z
" style="fill: #ffffff; opacity: 0.8; stroke: #cccccc; stroke-linejoin: miter"/>
    </g>
    <g id="line2d_26">
     <path d="M 53.203125 23.898438 
L 63.203125 23.898438 
L 73.203125 23.898438 
" style="fill: none; stroke-dasharray: 5.55,2.4; stroke-dashoffset: 0; stroke: #348abd; stroke-width: 1.5"/>
    </g>
    <g id="text_18">
     <!-- ssp119 -->
     <g transform="translate(81.203125 27.398438) scale(0.1 -0.1)">
      <defs>
       <path id="DejaVuSans-73" d="M 2834 3397 
L 2834 2853 
Q 2591 2978 2328 3040 
Q 2066 3103 1784 3103 
Q 1356 3103 1142 2972 
Q 928 2841 928 2578 
Q 928 2378 1081 2264 
Q 1234 2150 1697 2047 
L 1894 2003 
Q 2506 1872 2764 1633 
Q 3022 1394 3022 966 
Q 3022 478 2636 193 
Q 2250 -91 1575 -91 
Q 1294 -91 989 -36 
Q 684 19 347 128 
L 347 722 
Q 666 556 975 473 
Q 1284 391 1588 391 
Q 1994 391 2212 530 
Q 2431 669 2431 922 
Q 2431 1156 2273 1281 
Q 2116 1406 1581 1522 
L 1381 1569 
Q 847 1681 609 1914 
Q 372 2147 372 2553 
Q 372 3047 722 3315 
Q 1072 3584 1716 3584 
Q 2034 3584 2315 3537 
Q 2597 3491 2834 3397 
z
" transform="scale(0.015625)"/>
       <path id="DejaVuSans-70" d="M 1159 525 
L 1159 -1331 
L 581 -1331 
L 581 3500 
L 1159 3500 
L 1159 2969 
Q 1341 3281 1617 3432 
Q 1894 3584 2278 3584 
Q 2916 3584 3314 3078 
Q 3713 2572 3713 1747 
Q 3713 922 3314 415 
Q 2916 -91 2278 -91 
Q 1894 -91 1617 61 
Q 1341 213 1159 525 
z
M 3116 1747 
Q 3116 2381 2855 2742 
Q 2594 3103 2138 3103 
Q 1681 3103 1420 2742 
Q 1159 2381 1159 1747 
Q 1159 1113 1420 752 
Q 1681 391 2138 391 
Q 2594 391 2855 752 
Q 3116 1113 3116 1747 
z
" transform="scale(0.015625)"/>
      </defs>
      <use xlink:href="#DejaVuSans-73"/>
      <use xlink:href="#DejaVuSans-73" x="52.099609"/>
      <use xlink:href="#DejaVuSans-70" x="104.199219"/>
      <use xlink:href="#DejaVuSans-31" x="167.675781"/>
      <use xlink:href="#DejaVuSans-31" x="231.298828"/>
      <use xlink:href="#DejaVuSans-39" x="294.921875"/>
     </g>
    </g>
    <g id="line2d_27">
     <path d="M 53.203125 38.576563 
L 63.203125 38.576563 
L 73.203125 38.576563 
" style="fill: none; stroke: #348abd; stroke-width: 1.5; stroke-linecap: square"/>
    </g>
    <g id="text_19">
     <!-- ssp119 emulated -->
     <g transform="translate(81.203125 42.076563) scale(0.1 -0.1)">
      <defs>
       <path id="DejaVuSans-75" d="M 544 1381 
L 544 3500 
L 1119 3500 
L 1119 1403 
Q 1119 906 1312 657 
Q 1506 409 1894 409 
Q 2359 409 2629 706 
Q 2900 1003 2900 1516 
L 2900 3500 
L 3475 3500 
L 3475 0 
L 2900 0 
L 2900 538 
Q 2691 219 2414 64 
Q 2138 -91 1772 -91 
Q 1169 -91 856 284 
Q 544 659 544 1381 
z
M 1991 3584 
L 1991 3584 
z
" transform="scale(0.015625)"/>
       <path id="DejaVuSans-6c" d="M 603 4863 
L 1178 4863 
L 1178 0 
L 603 0 
L 603 4863 
z
" transform="scale(0.015625)"/>
       <path id="DejaVuSans-74" d="M 1172 4494 
L 1172 3500 
L 2356 3500 
L 2356 3053 
L 1172 3053 
L 1172 1153 
Q 1172 725 1289 603 
Q 1406 481 1766 481 
L 2356 481 
L 2356 0 
L 1766 0 
Q 1100 0 847 248 
Q 594 497 594 1153 
L 594 3053 
L 172 3053 
L 172 3500 
L 594 3500 
L 594 4494 
L 1172 4494 
z
" transform="scale(0.015625)"/>
       <path id="DejaVuSans-64" d="M 2906 2969 
L 2906 4863 
L 3481 4863 
L 3481 0 
L 2906 0 
L 2906 525 
Q 2725 213 2448 61 
Q 2172 -91 1784 -91 
Q 1150 -91 751 415 
Q 353 922 353 1747 
Q 353 2572 751 3078 
Q 1150 3584 1784 3584 
Q 2172 3584 2448 3432 
Q 2725 3281 2906 2969 
z
M 947 1747 
Q 947 1113 1208 752 
Q 1469 391 1925 391 
Q 2381 391 2643 752 
Q 2906 1113 2906 1747 
Q 2906 2381 2643 2742 
Q 2381 3103 1925 3103 
Q 1469 3103 1208 2742 
Q 947 2381 947 1747 
z
" transform="scale(0.015625)"/>
      </defs>
      <use xlink:href="#DejaVuSans-73"/>
      <use xlink:href="#DejaVuSans-73" x="52.099609"/>
      <use xlink:href="#DejaVuSans-70" x="104.199219"/>
      <use xlink:href="#DejaVuSans-31" x="167.675781"/>
      <use xlink:href="#DejaVuSans-31" x="231.298828"/>
      <use xlink:href="#DejaVuSans-39" x="294.921875"/>
      <use xlink:href="#DejaVuSans-20" x="358.544922"/>
      <use xlink:href="#DejaVuSans-65" x="390.332031"/>
      <use xlink:href="#DejaVuSans-6d" x="451.855469"/>
      <use xlink:href="#DejaVuSans-75" x="549.267578"/>
      <use xlink:href="#DejaVuSans-6c" x="612.646484"/>
      <use xlink:href="#DejaVuSans-61" x="640.429688"/>
      <use xlink:href="#DejaVuSans-74" x="701.708984"/>
      <use xlink:href="#DejaVuSans-65" x="740.917969"/>
      <use xlink:href="#DejaVuSans-64" x="802.441406"/>
     </g>
    </g>
    <g id="line2d_28">
     <path d="M 53.203125 53.254687 
L 63.203125 53.254687 
L 73.203125 53.254687 
" style="fill: none; stroke-dasharray: 5.55,2.4; stroke-dashoffset: 0; stroke: #188487; stroke-width: 1.5"/>
    </g>
    <g id="text_20">
     <!-- ssp245 -->
     <g transform="translate(81.203125 56.754687) scale(0.1 -0.1)">
      <use xlink:href="#DejaVuSans-73"/>
      <use xlink:href="#DejaVuSans-73" x="52.099609"/>
      <use xlink:href="#DejaVuSans-70" x="104.199219"/>
      <use xlink:href="#DejaVuSans-32" x="167.675781"/>
      <use xlink:href="#DejaVuSans-34" x="231.298828"/>
      <use xlink:href="#DejaVuSans-35" x="294.921875"/>
     </g>
    </g>
    <g id="line2d_29">
     <path d="M 53.203125 67.932813 
L 63.203125 67.932813 
L 73.203125 67.932813 
" style="fill: none; stroke: #188487; stroke-width: 1.5; stroke-linecap: square"/>
    </g>
    <g id="text_21">
     <!-- ssp245 emulated -->
     <g transform="translate(81.203125 71.432813) scale(0.1 -0.1)">
      <use xlink:href="#DejaVuSans-73"/>
      <use xlink:href="#DejaVuSans-73" x="52.099609"/>
      <use xlink:href="#DejaVuSans-70" x="104.199219"/>
      <use xlink:href="#DejaVuSans-32" x="167.675781"/>
      <use xlink:href="#DejaVuSans-34" x="231.298828"/>
      <use xlink:href="#DejaVuSans-35" x="294.921875"/>
      <use xlink:href="#DejaVuSans-20" x="358.544922"/>
      <use xlink:href="#DejaVuSans-65" x="390.332031"/>
      <use xlink:href="#DejaVuSans-6d" x="451.855469"/>
      <use xlink:href="#DejaVuSans-75" x="549.267578"/>
      <use xlink:href="#DejaVuSans-6c" x="612.646484"/>
      <use xlink:href="#DejaVuSans-61" x="640.429688"/>
      <use xlink:href="#DejaVuSans-74" x="701.708984"/>
      <use xlink:href="#DejaVuSans-65" x="740.917969"/>
      <use xlink:href="#DejaVuSans-64" x="802.441406"/>
     </g>
    </g>
    <g id="line2d_30">
     <path d="M 53.203125 82.610938 
L 63.203125 82.610938 
L 73.203125 82.610938 
" style="fill: none; stroke-dasharray: 5.55,2.4; stroke-dashoffset: 0; stroke: #e24a33; stroke-width: 1.5"/>
    </g>
    <g id="text_22">
     <!-- ssp370 -->
     <g transform="translate(81.203125 86.110938) scale(0.1 -0.1)">
      <defs>
       <path id="DejaVuSans-37" d="M 525 4666 
L 3525 4666 
L 3525 4397 
L 1831 0 
L 1172 0 
L 2766 4134 
L 525 4134 
L 525 4666 
z
" transform="scale(0.015625)"/>
      </defs>
      <use xlink:href="#DejaVuSans-73"/>
      <use xlink:href="#DejaVuSans-73" x="52.099609"/>
      <use xlink:href="#DejaVuSans-70" x="104.199219"/>
      <use xlink:href="#DejaVuSans-33" x="167.675781"/>
      <use xlink:href="#DejaVuSans-37" x="231.298828"/>
      <use xlink:href="#DejaVuSans-30" x="294.921875"/>
     </g>
    </g>
    <g id="line2d_31">
     <path d="M 53.203125 97.289062 
L 63.203125 97.289062 
L 73.203125 97.289062 
" style="fill: none; stroke: #e24a33; stroke-width: 1.5; stroke-linecap: square"/>
    </g>
    <g id="text_23">
     <!-- ssp370 emulated -->
     <g transform="translate(81.203125 100.789062) scale(0.1 -0.1)">
      <use xlink:href="#DejaVuSans-73"/>
      <use xlink:href="#DejaVuSans-73" x="52.099609"/>
      <use xlink:href="#DejaVuSans-70" x="104.199219"/>
      <use xlink:href="#DejaVuSans-33" x="167.675781"/>
      <use xlink:href="#DejaVuSans-37" x="231.298828"/>
      <use xlink:href="#DejaVuSans-30" x="294.921875"/>
      <use xlink:href="#DejaVuSans-20" x="358.544922"/>
      <use xlink:href="#DejaVuSans-65" x="390.332031"/>
      <use xlink:href="#DejaVuSans-6d" x="451.855469"/>
      <use xlink:href="#DejaVuSans-75" x="549.267578"/>
      <use xlink:href="#DejaVuSans-6c" x="612.646484"/>
      <use xlink:href="#DejaVuSans-61" x="640.429688"/>
      <use xlink:href="#DejaVuSans-74" x="701.708984"/>
      <use xlink:href="#DejaVuSans-65" x="740.917969"/>
      <use xlink:href="#DejaVuSans-64" x="802.441406"/>
     </g>
    </g>
    <g id="line2d_32">
     <path d="M 53.203125 111.967188 
L 63.203125 111.967188 
L 73.203125 111.967188 
" style="fill: none; stroke-dasharray: 5.55,2.4; stroke-dashoffset: 0; stroke: #7a68a6; stroke-width: 1.5"/>
    </g>
    <g id="text_24">
     <!-- ssp460 -->
     <g transform="translate(81.203125 115.467188) scale(0.1 -0.1)">
      <use xlink:href="#DejaVuSans-73"/>
      <use xlink:href="#DejaVuSans-73" x="52.099609"/>
      <use xlink:href="#DejaVuSans-70" x="104.199219"/>
      <use xlink:href="#DejaVuSans-34" x="167.675781"/>
      <use xlink:href="#DejaVuSans-36" x="231.298828"/>
      <use xlink:href="#DejaVuSans-30" x="294.921875"/>
     </g>
    </g>
    <g id="line2d_33">
     <path d="M 53.203125 126.645312 
L 63.203125 126.645312 
L 73.203125 126.645312 
" style="fill: none; stroke: #7a68a6; stroke-width: 1.5; stroke-linecap: square"/>
    </g>
    <g id="text_25">
     <!-- ssp460 emulated -->
     <g transform="translate(81.203125 130.145312) scale(0.1 -0.1)">
      <use xlink:href="#DejaVuSans-73"/>
      <use xlink:href="#DejaVuSans-73" x="52.099609"/>
      <use xlink:href="#DejaVuSans-70" x="104.199219"/>
      <use xlink:href="#DejaVuSans-34" x="167.675781"/>
      <use xlink:href="#DejaVuSans-36" x="231.298828"/>
      <use xlink:href="#DejaVuSans-30" x="294.921875"/>
      <use xlink:href="#DejaVuSans-20" x="358.544922"/>
      <use xlink:href="#DejaVuSans-65" x="390.332031"/>
      <use xlink:href="#DejaVuSans-6d" x="451.855469"/>
      <use xlink:href="#DejaVuSans-75" x="549.267578"/>
      <use xlink:href="#DejaVuSans-6c" x="612.646484"/>
      <use xlink:href="#DejaVuSans-61" x="640.429688"/>
      <use xlink:href="#DejaVuSans-74" x="701.708984"/>
      <use xlink:href="#DejaVuSans-65" x="740.917969"/>
      <use xlink:href="#DejaVuSans-64" x="802.441406"/>
     </g>
    </g>
    <g id="line2d_34">
     <path d="M 53.203125 141.323438 
L 63.203125 141.323438 
L 73.203125 141.323438 
" style="fill: none; stroke-dasharray: 5.55,2.4; stroke-dashoffset: 0; stroke: #a60628; stroke-width: 1.5"/>
    </g>
    <g id="text_26">
     <!-- ssp585 -->
     <g transform="translate(81.203125 144.823438) scale(0.1 -0.1)">
      <use xlink:href="#DejaVuSans-73"/>
      <use xlink:href="#DejaVuSans-73" x="52.099609"/>
      <use xlink:href="#DejaVuSans-70" x="104.199219"/>
      <use xlink:href="#DejaVuSans-35" x="167.675781"/>
      <use xlink:href="#DejaVuSans-38" x="231.298828"/>
      <use xlink:href="#DejaVuSans-35" x="294.921875"/>
     </g>
    </g>
    <g id="line2d_35">
     <path d="M 53.203125 156.001562 
L 63.203125 156.001562 
L 73.203125 156.001562 
" style="fill: none; stroke: #a60628; stroke-width: 1.5; stroke-linecap: square"/>
    </g>
    <g id="text_27">
     <!-- ssp585 emulated -->
     <g transform="translate(81.203125 159.501562) scale(0.1 -0.1)">
      <use xlink:href="#DejaVuSans-73"/>
      <use xlink:href="#DejaVuSans-73" x="52.099609"/>
      <use xlink:href="#DejaVuSans-70" x="104.199219"/>
      <use xlink:href="#DejaVuSans-35" x="167.675781"/>
      <use xlink:href="#DejaVuSans-38" x="231.298828"/>
      <use xlink:href="#DejaVuSans-35" x="294.921875"/>
      <use xlink:href="#DejaVuSans-20" x="358.544922"/>
      <use xlink:href="#DejaVuSans-65" x="390.332031"/>
      <use xlink:href="#DejaVuSans-6d" x="451.855469"/>
      <use xlink:href="#DejaVuSans-75" x="549.267578"/>
      <use xlink:href="#DejaVuSans-6c" x="612.646484"/>
      <use xlink:href="#DejaVuSans-61" x="640.429688"/>
      <use xlink:href="#DejaVuSans-74" x="701.708984"/>
      <use xlink:href="#DejaVuSans-65" x="740.917969"/>
      <use xlink:href="#DejaVuSans-64" x="802.441406"/>
     </g>
    </g>
   </g>
  </g>
 </g>
 <defs>
  <clipPath id="pb319859aac">
   <rect x="44.203125" y="10.8" width="405.796875" height="293.64375"/>
  </clipPath>
 </defs>
</svg>
