<?xml version="1.0" encoding="utf-8" standalone="no"?>
<!DOCTYPE svg PUBLIC "-//W3C//DTD SVG 1.1//EN"
  "http://www.w3.org/Graphics/SVG/1.1/DTD/svg11.dtd">
<svg xmlns:xlink="http://www.w3.org/1999/xlink" width="460.8pt" height="345.6pt" viewBox="0 0 460.8 345.6" xmlns="http://www.w3.org/2000/svg" version="1.1">
 <metadata>
  <rdf:RDF xmlns:dc="http://purl.org/dc/elements/1.1/" xmlns:cc="http://creativecommons.org/ns#" xmlns:rdf="http://www.w3.org/1999/02/22-rdf-syntax-ns#">
   <cc:Work>
    <dc:type rdf:resource="http://purl.org/dc/dcmitype/StillImage"/>
    <dc:date>2024-10-08T17:08:13.632986</dc:date>
    <dc:format>image/svg+xml</dc:format>
    <dc:creator>
     <cc:Agent>
      <dc:title>Matplotlib v3.9.0, https://matplotlib.org/</dc:title>
     </cc:Agent>
    </dc:creator>
   </cc:Work>
  </rdf:RDF>
 </metadata>
 <defs>
  <style type="text/css">*{stroke-linejoin: round; stroke-linecap: butt}</style>
 </defs>
 <g id="figure_1">
  <g id="axes_1">
   <g id="patch_1">
    <path d="M 52.582813 304.44375 
L 450 304.44375 
L 450 10.8 
L 52.582813 10.8 
L 52.582813 304.44375 
z
" style="fill: none"/>
   </g>
   <g id="matplotlib.axis_1">
    <g id="xtick_1">
     <g id="line2d_1">
      <defs>
       <path id="md172625826" d="M 0 0 
L 0 3.5 
" style="stroke: #000000; stroke-width: 0.8"/>
      </defs>
      <g>
       <use xlink:href="#md172625826" x="94.73312" y="304.44375" style="stroke: #000000; stroke-width: 0.8"/>
      </g>
     </g>
     <g id="text_1">
      <!-- 1800 -->
      <g transform="translate(82.00812 319.042187) scale(0.1 -0.1)">
       <defs>
        <path id="DejaVuSans-31" d="M 794 531 
L 1825 531 
L 1825 4091 
L 703 3866 
L 703 4441 
L 1819 4666 
L 2450 4666 
L 2450 531 
L 3481 531 
L 3481 0 
L 794 0 
L 794 531 
z
" transform="scale(0.015625)"/>
        <path id="DejaVuSans-38" d="M 2034 2216 
Q 1584 2216 1326 1975 
Q 1069 1734 1069 1313 
Q 1069 891 1326 650 
Q 1584 409 2034 409 
Q 2484 409 2743 651 
Q 3003 894 3003 1313 
Q 3003 1734 2745 1975 
Q 2488 2216 2034 2216 
z
M 1403 2484 
Q 997 2584 770 2862 
Q 544 3141 544 3541 
Q 544 4100 942 4425 
Q 1341 4750 2034 4750 
Q 2731 4750 3128 4425 
Q 3525 4100 3525 3541 
Q 3525 3141 3298 2862 
Q 3072 2584 2669 2484 
Q 3125 2378 3379 2068 
Q 3634 1759 3634 1313 
Q 3634 634 3220 271 
Q 2806 -91 2034 -91 
Q 1263 -91 848 271 
Q 434 634 434 1313 
Q 434 1759 690 2068 
Q 947 2378 1403 2484 
z
M 1172 3481 
Q 1172 3119 1398 2916 
Q 1625 2713 2034 2713 
Q 2441 2713 2670 2916 
Q 2900 3119 2900 3481 
Q 2900 3844 2670 4047 
Q 2441 4250 2034 4250 
Q 1625 4250 1398 4047 
Q 1172 3844 1172 3481 
z
" transform="scale(0.015625)"/>
        <path id="DejaVuSans-30" d="M 2034 4250 
Q 1547 4250 1301 3770 
Q 1056 3291 1056 2328 
Q 1056 1369 1301 889 
Q 1547 409 2034 409 
Q 2525 409 2770 889 
Q 3016 1369 3016 2328 
Q 3016 3291 2770 3770 
Q 2525 4250 2034 4250 
z
M 2034 4750 
Q 2819 4750 3233 4129 
Q 3647 3509 3647 2328 
Q 3647 1150 3233 529 
Q 2819 -91 2034 -91 
Q 1250 -91 836 529 
Q 422 1150 422 2328 
Q 422 3509 836 4129 
Q 1250 4750 2034 4750 
z
" transform="scale(0.015625)"/>
       </defs>
       <use xlink:href="#DejaVuSans-31"/>
       <use xlink:href="#DejaVuSans-38" x="63.623047"/>
       <use xlink:href="#DejaVuSans-30" x="127.246094"/>
       <use xlink:href="#DejaVuSans-30" x="190.869141"/>
      </g>
     </g>
    </g>
    <g id="xtick_2">
     <g id="line2d_2">
      <g>
       <use xlink:href="#md172625826" x="142.904901" y="304.44375" style="stroke: #000000; stroke-width: 0.8"/>
      </g>
     </g>
     <g id="text_2">
      <!-- 1900 -->
      <g transform="translate(130.179901 319.042187) scale(0.1 -0.1)">
       <defs>
        <path id="DejaVuSans-39" d="M 703 97 
L 703 672 
Q 941 559 1184 500 
Q 1428 441 1663 441 
Q 2288 441 2617 861 
Q 2947 1281 2994 2138 
Q 2813 1869 2534 1725 
Q 2256 1581 1919 1581 
Q 1219 1581 811 2004 
Q 403 2428 403 3163 
Q 403 3881 828 4315 
Q 1253 4750 1959 4750 
Q 2769 4750 3195 4129 
Q 3622 3509 3622 2328 
Q 3622 1225 3098 567 
Q 2575 -91 1691 -91 
Q 1453 -91 1209 -44 
Q 966 3 703 97 
z
M 1959 2075 
Q 2384 2075 2632 2365 
Q 2881 2656 2881 3163 
Q 2881 3666 2632 3958 
Q 2384 4250 1959 4250 
Q 1534 4250 1286 3958 
Q 1038 3666 1038 3163 
Q 1038 2656 1286 2365 
Q 1534 2075 1959 2075 
z
" transform="scale(0.015625)"/>
       </defs>
       <use xlink:href="#DejaVuSans-31"/>
       <use xlink:href="#DejaVuSans-39" x="63.623047"/>
       <use xlink:href="#DejaVuSans-30" x="127.246094"/>
       <use xlink:href="#DejaVuSans-30" x="190.869141"/>
      </g>
     </g>
    </g>
    <g id="xtick_3">
     <g id="line2d_3">
      <g>
       <use xlink:href="#md172625826" x="191.076681" y="304.44375" style="stroke: #000000; stroke-width: 0.8"/>
      </g>
     </g>
     <g id="text_3">
      <!-- 2000 -->
      <g transform="translate(178.351681 319.042187) scale(0.1 -0.1)">
       <defs>
        <path id="DejaVuSans-32" d="M 1228 531 
L 3431 531 
L 3431 0 
L 469 0 
L 469 531 
Q 828 903 1448 1529 
Q 2069 2156 2228 2338 
Q 2531 2678 2651 2914 
Q 2772 3150 2772 3378 
Q 2772 3750 2511 3984 
Q 2250 4219 1831 4219 
Q 1534 4219 1204 4116 
Q 875 4013 500 3803 
L 500 4441 
Q 881 4594 1212 4672 
Q 1544 4750 1819 4750 
Q 2544 4750 2975 4387 
Q 3406 4025 3406 3419 
Q 3406 3131 3298 2873 
Q 3191 2616 2906 2266 
Q 2828 2175 2409 1742 
Q 1991 1309 1228 531 
z
" transform="scale(0.015625)"/>
       </defs>
       <use xlink:href="#DejaVuSans-32"/>
       <use xlink:href="#DejaVuSans-30" x="63.623047"/>
       <use xlink:href="#DejaVuSans-30" x="127.246094"/>
       <use xlink:href="#DejaVuSans-30" x="190.869141"/>
      </g>
     </g>
    </g>
    <g id="xtick_4">
     <g id="line2d_4">
      <g>
       <use xlink:href="#md172625826" x="239.248461" y="304.44375" style="stroke: #000000; stroke-width: 0.8"/>
      </g>
     </g>
     <g id="text_4">
      <!-- 2100 -->
      <g transform="translate(226.523461 319.042187) scale(0.1 -0.1)">
       <use xlink:href="#DejaVuSans-32"/>
       <use xlink:href="#DejaVuSans-31" x="63.623047"/>
       <use xlink:href="#DejaVuSans-30" x="127.246094"/>
       <use xlink:href="#DejaVuSans-30" x="190.869141"/>
      </g>
     </g>
    </g>
    <g id="xtick_5">
     <g id="line2d_5">
      <g>
       <use xlink:href="#md172625826" x="287.420241" y="304.44375" style="stroke: #000000; stroke-width: 0.8"/>
      </g>
     </g>
     <g id="text_5">
      <!-- 2200 -->
      <g transform="translate(274.695241 319.042187) scale(0.1 -0.1)">
       <use xlink:href="#DejaVuSans-32"/>
       <use xlink:href="#DejaVuSans-32" x="63.623047"/>
       <use xlink:href="#DejaVuSans-30" x="127.246094"/>
       <use xlink:href="#DejaVuSans-30" x="190.869141"/>
      </g>
     </g>
    </g>
    <g id="xtick_6">
     <g id="line2d_6">
      <g>
       <use xlink:href="#md172625826" x="335.592022" y="304.44375" style="stroke: #000000; stroke-width: 0.8"/>
      </g>
     </g>
     <g id="text_6">
      <!-- 2300 -->
      <g transform="translate(322.867022 319.042187) scale(0.1 -0.1)">
       <defs>
        <path id="DejaVuSans-33" d="M 2597 2516 
Q 3050 2419 3304 2112 
Q 3559 1806 3559 1356 
Q 3559 666 3084 287 
Q 2609 -91 1734 -91 
Q 1441 -91 1130 -33 
Q 819 25 488 141 
L 488 750 
Q 750 597 1062 519 
Q 1375 441 1716 441 
Q 2309 441 2620 675 
Q 2931 909 2931 1356 
Q 2931 1769 2642 2001 
Q 2353 2234 1838 2234 
L 1294 2234 
L 1294 2753 
L 1863 2753 
Q 2328 2753 2575 2939 
Q 2822 3125 2822 3475 
Q 2822 3834 2567 4026 
Q 2313 4219 1838 4219 
Q 1578 4219 1281 4162 
Q 984 4106 628 3988 
L 628 4550 
Q 988 4650 1302 4700 
Q 1616 4750 1894 4750 
Q 2613 4750 3031 4423 
Q 3450 4097 3450 3541 
Q 3450 3153 3228 2886 
Q 3006 2619 2597 2516 
z
" transform="scale(0.015625)"/>
       </defs>
       <use xlink:href="#DejaVuSans-32"/>
       <use xlink:href="#DejaVuSans-33" x="63.623047"/>
       <use xlink:href="#DejaVuSans-30" x="127.246094"/>
       <use xlink:href="#DejaVuSans-30" x="190.869141"/>
      </g>
     </g>
    </g>
    <g id="xtick_7">
     <g id="line2d_7">
      <g>
       <use xlink:href="#md172625826" x="383.763802" y="304.44375" style="stroke: #000000; stroke-width: 0.8"/>
      </g>
     </g>
     <g id="text_7">
      <!-- 2400 -->
      <g transform="translate(371.038802 319.042187) scale(0.1 -0.1)">
       <defs>
        <path id="DejaVuSans-34" d="M 2419 4116 
L 825 1625 
L 2419 1625 
L 2419 4116 
z
M 2253 4666 
L 3047 4666 
L 3047 1625 
L 3713 1625 
L 3713 1100 
L 3047 1100 
L 3047 0 
L 2419 0 
L 2419 1100 
L 313 1100 
L 313 1709 
L 2253 4666 
z
" transform="scale(0.015625)"/>
       </defs>
       <use xlink:href="#DejaVuSans-32"/>
       <use xlink:href="#DejaVuSans-34" x="63.623047"/>
       <use xlink:href="#DejaVuSans-30" x="127.246094"/>
       <use xlink:href="#DejaVuSans-30" x="190.869141"/>
      </g>
     </g>
    </g>
    <g id="xtick_8">
     <g id="line2d_8">
      <g>
       <use xlink:href="#md172625826" x="431.935582" y="304.44375" style="stroke: #000000; stroke-width: 0.8"/>
      </g>
     </g>
     <g id="text_8">
      <!-- 2500 -->
      <g transform="translate(419.210582 319.042187) scale(0.1 -0.1)">
       <defs>
        <path id="DejaVuSans-35" d="M 691 4666 
L 3169 4666 
L 3169 4134 
L 1269 4134 
L 1269 2991 
Q 1406 3038 1543 3061 
Q 1681 3084 1819 3084 
Q 2600 3084 3056 2656 
Q 3513 2228 3513 1497 
Q 3513 744 3044 326 
Q 2575 -91 1722 -91 
Q 1428 -91 1123 -41 
Q 819 9 494 109 
L 494 744 
Q 775 591 1075 516 
Q 1375 441 1709 441 
Q 2250 441 2565 725 
Q 2881 1009 2881 1497 
Q 2881 1984 2565 2268 
Q 2250 2553 1709 2553 
Q 1456 2553 1204 2497 
Q 953 2441 691 2322 
L 691 4666 
z
" transform="scale(0.015625)"/>
       </defs>
       <use xlink:href="#DejaVuSans-32"/>
       <use xlink:href="#DejaVuSans-35" x="63.623047"/>
       <use xlink:href="#DejaVuSans-30" x="127.246094"/>
       <use xlink:href="#DejaVuSans-30" x="190.869141"/>
      </g>
     </g>
    </g>
    <g id="text_9">
     <!-- Year -->
     <g transform="translate(240.703906 332.720312) scale(0.1 -0.1)">
      <defs>
       <path id="DejaVuSans-59" d="M -13 4666 
L 666 4666 
L 1959 2747 
L 3244 4666 
L 3922 4666 
L 2272 2222 
L 2272 0 
L 1638 0 
L 1638 2222 
L -13 4666 
z
" transform="scale(0.015625)"/>
       <path id="DejaVuSans-65" d="M 3597 1894 
L 3597 1613 
L 953 1613 
Q 991 1019 1311 708 
Q 1631 397 2203 397 
Q 2534 397 2845 478 
Q 3156 559 3463 722 
L 3463 178 
Q 3153 47 2828 -22 
Q 2503 -91 2169 -91 
Q 1331 -91 842 396 
Q 353 884 353 1716 
Q 353 2575 817 3079 
Q 1281 3584 2069 3584 
Q 2775 3584 3186 3129 
Q 3597 2675 3597 1894 
z
M 3022 2063 
Q 3016 2534 2758 2815 
Q 2500 3097 2075 3097 
Q 1594 3097 1305 2825 
Q 1016 2553 972 2059 
L 3022 2063 
z
" transform="scale(0.015625)"/>
       <path id="DejaVuSans-61" d="M 2194 1759 
Q 1497 1759 1228 1600 
Q 959 1441 959 1056 
Q 959 750 1161 570 
Q 1363 391 1709 391 
Q 2188 391 2477 730 
Q 2766 1069 2766 1631 
L 2766 1759 
L 2194 1759 
z
M 3341 1997 
L 3341 0 
L 2766 0 
L 2766 531 
Q 2569 213 2275 61 
Q 1981 -91 1556 -91 
Q 1019 -91 701 211 
Q 384 513 384 1019 
Q 384 1609 779 1909 
Q 1175 2209 1959 2209 
L 2766 2209 
L 2766 2266 
Q 2766 2663 2505 2880 
Q 2244 3097 1772 3097 
Q 1472 3097 1187 3025 
Q 903 2953 641 2809 
L 641 3341 
Q 956 3463 1253 3523 
Q 1550 3584 1831 3584 
Q 2591 3584 2966 3190 
Q 3341 2797 3341 1997 
z
" transform="scale(0.015625)"/>
       <path id="DejaVuSans-72" d="M 2631 2963 
Q 2534 3019 2420 3045 
Q 2306 3072 2169 3072 
Q 1681 3072 1420 2755 
Q 1159 2438 1159 1844 
L 1159 0 
L 581 0 
L 581 3500 
L 1159 3500 
L 1159 2956 
Q 1341 3275 1631 3429 
Q 1922 3584 2338 3584 
Q 2397 3584 2469 3576 
Q 2541 3569 2628 3553 
L 2631 2963 
z
" transform="scale(0.015625)"/>
      </defs>
      <use xlink:href="#DejaVuSans-59"/>
      <use xlink:href="#DejaVuSans-65" x="47.833984"/>
      <use xlink:href="#DejaVuSans-61" x="109.357422"/>
      <use xlink:href="#DejaVuSans-72" x="170.636719"/>
     </g>
    </g>
   </g>
   <g id="matplotlib.axis_2">
    <g id="ytick_1">
     <g id="line2d_9">
      <defs>
       <path id="mf561d0d498" d="M 0 0 
L -3.5 0 
" style="stroke: #000000; stroke-width: 0.8"/>
      </defs>
      <g>
       <use xlink:href="#mf561d0d498" x="52.582813" y="302.386949" style="stroke: #000000; stroke-width: 0.8"/>
      </g>
     </g>
     <g id="text_10">
      <!-- −20 -->
      <g transform="translate(24.478125 306.186168) scale(0.1 -0.1)">
       <defs>
        <path id="DejaVuSans-2212" d="M 678 2272 
L 4684 2272 
L 4684 1741 
L 678 1741 
L 678 2272 
z
" transform="scale(0.015625)"/>
       </defs>
       <use xlink:href="#DejaVuSans-2212"/>
       <use xlink:href="#DejaVuSans-32" x="83.789062"/>
       <use xlink:href="#DejaVuSans-30" x="147.412109"/>
      </g>
     </g>
    </g>
    <g id="ytick_2">
     <g id="line2d_10">
      <g>
       <use xlink:href="#mf561d0d498" x="52.582813" y="265.430321" style="stroke: #000000; stroke-width: 0.8"/>
      </g>
     </g>
     <g id="text_11">
      <!-- 0 -->
      <g transform="translate(39.220313 269.22954) scale(0.1 -0.1)">
       <use xlink:href="#DejaVuSans-30"/>
      </g>
     </g>
    </g>
    <g id="ytick_3">
     <g id="line2d_11">
      <g>
       <use xlink:href="#mf561d0d498" x="52.582813" y="228.473692" style="stroke: #000000; stroke-width: 0.8"/>
      </g>
     </g>
     <g id="text_12">
      <!-- 20 -->
      <g transform="translate(32.857813 232.272911) scale(0.1 -0.1)">
       <use xlink:href="#DejaVuSans-32"/>
       <use xlink:href="#DejaVuSans-30" x="63.623047"/>
      </g>
     </g>
    </g>
    <g id="ytick_4">
     <g id="line2d_12">
      <g>
       <use xlink:href="#mf561d0d498" x="52.582813" y="191.517064" style="stroke: #000000; stroke-width: 0.8"/>
      </g>
     </g>
     <g id="text_13">
      <!-- 40 -->
      <g transform="translate(32.857813 195.316283) scale(0.1 -0.1)">
       <use xlink:href="#DejaVuSans-34"/>
       <use xlink:href="#DejaVuSans-30" x="63.623047"/>
      </g>
     </g>
    </g>
    <g id="ytick_5">
     <g id="line2d_13">
      <g>
       <use xlink:href="#mf561d0d498" x="52.582813" y="154.560435" style="stroke: #000000; stroke-width: 0.8"/>
      </g>
     </g>
     <g id="text_14">
      <!-- 60 -->
      <g transform="translate(32.857813 158.359654) scale(0.1 -0.1)">
       <defs>
        <path id="DejaVuSans-36" d="M 2113 2584 
Q 1688 2584 1439 2293 
Q 1191 2003 1191 1497 
Q 1191 994 1439 701 
Q 1688 409 2113 409 
Q 2538 409 2786 701 
Q 3034 994 3034 1497 
Q 3034 2003 2786 2293 
Q 2538 2584 2113 2584 
z
M 3366 4563 
L 3366 3988 
Q 3128 4100 2886 4159 
Q 2644 4219 2406 4219 
Q 1781 4219 1451 3797 
Q 1122 3375 1075 2522 
Q 1259 2794 1537 2939 
Q 1816 3084 2150 3084 
Q 2853 3084 3261 2657 
Q 3669 2231 3669 1497 
Q 3669 778 3244 343 
Q 2819 -91 2113 -91 
Q 1303 -91 875 529 
Q 447 1150 447 2328 
Q 447 3434 972 4092 
Q 1497 4750 2381 4750 
Q 2619 4750 2861 4703 
Q 3103 4656 3366 4563 
z
" transform="scale(0.015625)"/>
       </defs>
       <use xlink:href="#DejaVuSans-36"/>
       <use xlink:href="#DejaVuSans-30" x="63.623047"/>
      </g>
     </g>
    </g>
    <g id="ytick_6">
     <g id="line2d_14">
      <g>
       <use xlink:href="#mf561d0d498" x="52.582813" y="117.603807" style="stroke: #000000; stroke-width: 0.8"/>
      </g>
     </g>
     <g id="text_15">
      <!-- 80 -->
      <g transform="translate(32.857813 121.403025) scale(0.1 -0.1)">
       <use xlink:href="#DejaVuSans-38"/>
       <use xlink:href="#DejaVuSans-30" x="63.623047"/>
      </g>
     </g>
    </g>
    <g id="ytick_7">
     <g id="line2d_15">
      <g>
       <use xlink:href="#mf561d0d498" x="52.582813" y="80.647178" style="stroke: #000000; stroke-width: 0.8"/>
      </g>
     </g>
     <g id="text_16">
      <!-- 100 -->
      <g transform="translate(26.495313 84.446397) scale(0.1 -0.1)">
       <use xlink:href="#DejaVuSans-31"/>
       <use xlink:href="#DejaVuSans-30" x="63.623047"/>
       <use xlink:href="#DejaVuSans-30" x="127.246094"/>
      </g>
     </g>
    </g>
    <g id="ytick_8">
     <g id="line2d_16">
      <g>
       <use xlink:href="#mf561d0d498" x="52.582813" y="43.69055" style="stroke: #000000; stroke-width: 0.8"/>
      </g>
     </g>
     <g id="text_17">
      <!-- 120 -->
      <g transform="translate(26.495313 47.489768) scale(0.1 -0.1)">
       <use xlink:href="#DejaVuSans-31"/>
       <use xlink:href="#DejaVuSans-32" x="63.623047"/>
       <use xlink:href="#DejaVuSans-30" x="127.246094"/>
      </g>
     </g>
    </g>
    <g id="text_18">
     <!-- CO2 emission (GtCO2 yr-1) -->
     <g transform="translate(18.398438 225.185937) rotate(-90) scale(0.1 -0.1)">
      <defs>
       <path id="DejaVuSans-43" d="M 4122 4306 
L 4122 3641 
Q 3803 3938 3442 4084 
Q 3081 4231 2675 4231 
Q 1875 4231 1450 3742 
Q 1025 3253 1025 2328 
Q 1025 1406 1450 917 
Q 1875 428 2675 428 
Q 3081 428 3442 575 
Q 3803 722 4122 1019 
L 4122 359 
Q 3791 134 3420 21 
Q 3050 -91 2638 -91 
Q 1578 -91 968 557 
Q 359 1206 359 2328 
Q 359 3453 968 4101 
Q 1578 4750 2638 4750 
Q 3056 4750 3426 4639 
Q 3797 4528 4122 4306 
z
" transform="scale(0.015625)"/>
       <path id="DejaVuSans-4f" d="M 2522 4238 
Q 1834 4238 1429 3725 
Q 1025 3213 1025 2328 
Q 1025 1447 1429 934 
Q 1834 422 2522 422 
Q 3209 422 3611 934 
Q 4013 1447 4013 2328 
Q 4013 3213 3611 3725 
Q 3209 4238 2522 4238 
z
M 2522 4750 
Q 3503 4750 4090 4092 
Q 4678 3434 4678 2328 
Q 4678 1225 4090 567 
Q 3503 -91 2522 -91 
Q 1538 -91 948 565 
Q 359 1222 359 2328 
Q 359 3434 948 4092 
Q 1538 4750 2522 4750 
z
" transform="scale(0.015625)"/>
       <path id="DejaVuSans-20" transform="scale(0.015625)"/>
       <path id="DejaVuSans-6d" d="M 3328 2828 
Q 3544 3216 3844 3400 
Q 4144 3584 4550 3584 
Q 5097 3584 5394 3201 
Q 5691 2819 5691 2113 
L 5691 0 
L 5113 0 
L 5113 2094 
Q 5113 2597 4934 2840 
Q 4756 3084 4391 3084 
Q 3944 3084 3684 2787 
Q 3425 2491 3425 1978 
L 3425 0 
L 2847 0 
L 2847 2094 
Q 2847 2600 2669 2842 
Q 2491 3084 2119 3084 
Q 1678 3084 1418 2786 
Q 1159 2488 1159 1978 
L 1159 0 
L 581 0 
L 581 3500 
L 1159 3500 
L 1159 2956 
Q 1356 3278 1631 3431 
Q 1906 3584 2284 3584 
Q 2666 3584 2933 3390 
Q 3200 3197 3328 2828 
z
" transform="scale(0.015625)"/>
       <path id="DejaVuSans-69" d="M 603 3500 
L 1178 3500 
L 1178 0 
L 603 0 
L 603 3500 
z
M 603 4863 
L 1178 4863 
L 1178 4134 
L 603 4134 
L 603 4863 
z
" transform="scale(0.015625)"/>
       <path id="DejaVuSans-73" d="M 2834 3397 
L 2834 2853 
Q 2591 2978 2328 3040 
Q 2066 3103 1784 3103 
Q 1356 3103 1142 2972 
Q 928 2841 928 2578 
Q 928 2378 1081 2264 
Q 1234 2150 1697 2047 
L 1894 2003 
Q 2506 1872 2764 1633 
Q 3022 1394 3022 966 
Q 3022 478 2636 193 
Q 2250 -91 1575 -91 
Q 1294 -91 989 -36 
Q 684 19 347 128 
L 347 722 
Q 666 556 975 473 
Q 1284 391 1588 391 
Q 1994 391 2212 530 
Q 2431 669 2431 922 
Q 2431 1156 2273 1281 
Q 2116 1406 1581 1522 
L 1381 1569 
Q 847 1681 609 1914 
Q 372 2147 372 2553 
Q 372 3047 722 3315 
Q 1072 3584 1716 3584 
Q 2034 3584 2315 3537 
Q 2597 3491 2834 3397 
z
" transform="scale(0.015625)"/>
       <path id="DejaVuSans-6f" d="M 1959 3097 
Q 1497 3097 1228 2736 
Q 959 2375 959 1747 
Q 959 1119 1226 758 
Q 1494 397 1959 397 
Q 2419 397 2687 759 
Q 2956 1122 2956 1747 
Q 2956 2369 2687 2733 
Q 2419 3097 1959 3097 
z
M 1959 3584 
Q 2709 3584 3137 3096 
Q 3566 2609 3566 1747 
Q 3566 888 3137 398 
Q 2709 -91 1959 -91 
Q 1206 -91 779 398 
Q 353 888 353 1747 
Q 353 2609 779 3096 
Q 1206 3584 1959 3584 
z
" transform="scale(0.015625)"/>
       <path id="DejaVuSans-6e" d="M 3513 2113 
L 3513 0 
L 2938 0 
L 2938 2094 
Q 2938 2591 2744 2837 
Q 2550 3084 2163 3084 
Q 1697 3084 1428 2787 
Q 1159 2491 1159 1978 
L 1159 0 
L 581 0 
L 581 3500 
L 1159 3500 
L 1159 2956 
Q 1366 3272 1645 3428 
Q 1925 3584 2291 3584 
Q 2894 3584 3203 3211 
Q 3513 2838 3513 2113 
z
" transform="scale(0.015625)"/>
       <path id="DejaVuSans-28" d="M 1984 4856 
Q 1566 4138 1362 3434 
Q 1159 2731 1159 2009 
Q 1159 1288 1364 580 
Q 1569 -128 1984 -844 
L 1484 -844 
Q 1016 -109 783 600 
Q 550 1309 550 2009 
Q 550 2706 781 3412 
Q 1013 4119 1484 4856 
L 1984 4856 
z
" transform="scale(0.015625)"/>
       <path id="DejaVuSans-47" d="M 3809 666 
L 3809 1919 
L 2778 1919 
L 2778 2438 
L 4434 2438 
L 4434 434 
Q 4069 175 3628 42 
Q 3188 -91 2688 -91 
Q 1594 -91 976 548 
Q 359 1188 359 2328 
Q 359 3472 976 4111 
Q 1594 4750 2688 4750 
Q 3144 4750 3555 4637 
Q 3966 4525 4313 4306 
L 4313 3634 
Q 3963 3931 3569 4081 
Q 3175 4231 2741 4231 
Q 1884 4231 1454 3753 
Q 1025 3275 1025 2328 
Q 1025 1384 1454 906 
Q 1884 428 2741 428 
Q 3075 428 3337 486 
Q 3600 544 3809 666 
z
" transform="scale(0.015625)"/>
       <path id="DejaVuSans-74" d="M 1172 4494 
L 1172 3500 
L 2356 3500 
L 2356 3053 
L 1172 3053 
L 1172 1153 
Q 1172 725 1289 603 
Q 1406 481 1766 481 
L 2356 481 
L 2356 0 
L 1766 0 
Q 1100 0 847 248 
Q 594 497 594 1153 
L 594 3053 
L 172 3053 
L 172 3500 
L 594 3500 
L 594 4494 
L 1172 4494 
z
" transform="scale(0.015625)"/>
       <path id="DejaVuSans-79" d="M 2059 -325 
Q 1816 -950 1584 -1140 
Q 1353 -1331 966 -1331 
L 506 -1331 
L 506 -850 
L 844 -850 
Q 1081 -850 1212 -737 
Q 1344 -625 1503 -206 
L 1606 56 
L 191 3500 
L 800 3500 
L 1894 763 
L 2988 3500 
L 3597 3500 
L 2059 -325 
z
" transform="scale(0.015625)"/>
       <path id="DejaVuSans-2d" d="M 313 2009 
L 1997 2009 
L 1997 1497 
L 313 1497 
L 313 2009 
z
" transform="scale(0.015625)"/>
       <path id="DejaVuSans-29" d="M 513 4856 
L 1013 4856 
Q 1481 4119 1714 3412 
Q 1947 2706 1947 2009 
Q 1947 1309 1714 600 
Q 1481 -109 1013 -844 
L 513 -844 
Q 928 -128 1133 580 
Q 1338 1288 1338 2009 
Q 1338 2731 1133 3434 
Q 928 4138 513 4856 
z
" transform="scale(0.015625)"/>
      </defs>
      <use xlink:href="#DejaVuSans-43"/>
      <use xlink:href="#DejaVuSans-4f" x="69.824219"/>
      <use xlink:href="#DejaVuSans-32" x="148.535156"/>
      <use xlink:href="#DejaVuSans-20" x="212.158203"/>
      <use xlink:href="#DejaVuSans-65" x="243.945312"/>
      <use xlink:href="#DejaVuSans-6d" x="305.46875"/>
      <use xlink:href="#DejaVuSans-69" x="402.880859"/>
      <use xlink:href="#DejaVuSans-73" x="430.664062"/>
      <use xlink:href="#DejaVuSans-73" x="482.763672"/>
      <use xlink:href="#DejaVuSans-69" x="534.863281"/>
      <use xlink:href="#DejaVuSans-6f" x="562.646484"/>
      <use xlink:href="#DejaVuSans-6e" x="623.828125"/>
      <use xlink:href="#DejaVuSans-20" x="687.207031"/>
      <use xlink:href="#DejaVuSans-28" x="718.994141"/>
      <use xlink:href="#DejaVuSans-47" x="758.007812"/>
      <use xlink:href="#DejaVuSans-74" x="835.498047"/>
      <use xlink:href="#DejaVuSans-43" x="874.707031"/>
      <use xlink:href="#DejaVuSans-4f" x="944.53125"/>
      <use xlink:href="#DejaVuSans-32" x="1023.242188"/>
      <use xlink:href="#DejaVuSans-20" x="1086.865234"/>
      <use xlink:href="#DejaVuSans-79" x="1118.652344"/>
      <use xlink:href="#DejaVuSans-72" x="1177.832031"/>
      <use xlink:href="#DejaVuSans-2d" x="1212.570312"/>
      <use xlink:href="#DejaVuSans-31" x="1248.654297"/>
      <use xlink:href="#DejaVuSans-29" x="1312.277344"/>
     </g>
    </g>
   </g>
   <g id="line2d_17">
    <path d="M 70.64723 264.863092 
L 85.098764 264.452347 
L 99.550298 263.718743 
L 108.702937 262.983591 
L 110.14809 262.819153 
L 115.446986 262.181755 
L 118.81901 261.679756 
L 119.300728 261.731722 
L 119.782446 261.338246 
L 121.709317 261.225892 
L 123.636188 260.976773 
L 124.117906 260.869642 
L 124.599624 261.267189 
L 128.453366 260.992789 
L 128.935084 260.79833 
L 129.416802 260.117682 
L 129.89852 259.977456 
L 130.380238 259.989791 
L 131.343673 259.783219 
L 132.788827 259.527183 
L 133.752262 259.012168 
L 134.23398 259.259467 
L 135.197416 259.08202 
L 136.642569 258.910535 
L 137.124287 258.722937 
L 137.606005 258.723741 
L 139.051158 258.375478 
L 139.532876 258.404553 
L 140.496312 258.031635 
L 141.941465 257.631969 
L 142.904901 257.177972 
L 143.386618 256.618232 
L 143.868336 256.49478 
L 144.350054 255.977441 
L 144.831772 255.738913 
L 145.795207 254.879163 
L 146.276925 254.2583 
L 146.758643 254.355142 
L 147.722079 253.842506 
L 148.203796 254.132995 
L 148.685514 254.116827 
L 149.167232 253.85223 
L 149.64895 254.456137 
L 150.130668 254.593609 
L 150.612385 254.155864 
L 151.094103 253.923432 
L 151.575821 253.963624 
L 152.057539 254.650312 
L 152.539257 253.806889 
L 153.020974 254.222939 
L 153.502692 253.93766 
L 153.98441 253.099528 
L 154.947846 252.87267 
L 155.429563 252.927277 
L 155.911281 251.97716 
L 156.392999 251.925437 
L 156.874717 251.193789 
L 157.356435 251.239837 
L 157.838152 251.875561 
L 158.31987 253.138693 
L 158.801588 252.867879 
L 159.765024 252.095769 
L 160.246741 251.363421 
L 160.728459 250.969445 
L 161.210177 251.422281 
L 162.173613 250.357737 
L 163.137048 250.151852 
L 163.618766 249.889757 
L 164.100484 249.949606 
L 164.582202 251.34783 
L 165.545637 248.74907 
L 166.027355 248.071905 
L 166.509073 248.182091 
L 166.990791 246.869465 
L 167.472509 244.567027 
L 168.435944 243.799133 
L 168.917662 243.098581 
L 169.881098 240.123863 
L 170.844533 238.37437 
L 171.326251 237.821506 
L 172.771404 235.710383 
L 175.179993 230.071843 
L 175.661711 228.990085 
L 176.625147 225.781482 
L 177.106865 225.372794 
L 177.588582 224.576273 
L 178.0703 222.811637 
L 178.552018 223.186355 
L 179.033736 223.232879 
L 179.515454 221.316343 
L 180.478889 218.83644 
L 180.960607 218.146142 
L 182.40576 219.823082 
L 183.369196 217.488108 
L 183.850914 216.821755 
L 184.814349 214.931854 
L 185.296067 213.640481 
L 185.777785 212.998608 
L 186.259503 213.752538 
L 186.741221 212.431579 
L 187.222938 212.41818 
L 187.704656 213.019793 
L 188.186374 212.994996 
L 189.14981 211.384861 
L 189.631527 206.128218 
L 190.113245 210.368276 
L 190.594963 211.498712 
L 191.076681 210.620167 
L 191.558399 211.809314 
L 192.040116 210.118452 
L 192.521834 209.054478 
L 193.003552 205.498695 
L 194.448705 200.105354 
L 194.930423 201.770291 
L 195.412141 202.187568 
L 195.893859 198.661083 
L 196.375577 196.568981 
L 197.339012 193.803365 
L 197.82073 192.19901 
L 198.302448 193.082683 
L 200.711037 192.083006 
L 205.528215 223.212416 
L 210.345393 246.074123 
L 215.162571 261.641598 
L 220.461467 268.795365 
L 228.168952 277.365905 
L 230.577541 280.139116 
L 239.248461 291.096307 
L 258.517173 287.575917 
L 263.816069 282.017409 
L 282.603063 265.430321 
L 431.935582 265.430321 
L 431.935582 265.430321 
" clip-path="url(#p056eda071a)" style="fill: none; stroke: #348abd; stroke-width: 1.5; stroke-linecap: square"/>
   </g>
   <g id="line2d_18">
    <path d="M 70.64723 264.863092 
L 85.098764 264.452347 
L 99.550298 263.718743 
L 108.702937 262.983591 
L 110.14809 262.819153 
L 115.446986 262.181755 
L 118.81901 261.679756 
L 119.300728 261.731722 
L 119.782446 261.338246 
L 121.709317 261.225892 
L 123.636188 260.976773 
L 124.117906 260.869642 
L 124.599624 261.267189 
L 128.453366 260.992789 
L 128.935084 260.79833 
L 129.416802 260.117682 
L 129.89852 259.977456 
L 130.380238 259.989791 
L 131.343673 259.783219 
L 132.788827 259.527183 
L 133.752262 259.012168 
L 134.23398 259.259467 
L 135.197416 259.08202 
L 136.642569 258.910535 
L 137.124287 258.722937 
L 137.606005 258.723741 
L 139.051158 258.375478 
L 139.532876 258.404553 
L 140.496312 258.031635 
L 141.941465 257.631969 
L 142.904901 257.177972 
L 143.386618 256.618232 
L 143.868336 256.49478 
L 144.350054 255.977441 
L 144.831772 255.738913 
L 145.795207 254.879163 
L 146.276925 254.2583 
L 146.758643 254.355142 
L 147.722079 253.842506 
L 148.203796 254.132995 
L 148.685514 254.116827 
L 149.167232 253.85223 
L 149.64895 254.456137 
L 150.130668 254.593609 
L 150.612385 254.155864 
L 151.094103 253.923432 
L 151.575821 253.963624 
L 152.057539 254.650312 
L 152.539257 253.806889 
L 153.020974 254.222939 
L 153.502692 253.93766 
L 153.98441 253.099528 
L 154.947846 252.87267 
L 155.429563 252.927277 
L 155.911281 251.97716 
L 156.392999 251.925437 
L 156.874717 251.193789 
L 157.356435 251.239837 
L 157.838152 251.875561 
L 158.31987 253.138693 
L 158.801588 252.867879 
L 159.765024 252.095769 
L 160.246741 251.363421 
L 160.728459 250.969445 
L 161.210177 251.422281 
L 162.173613 250.357737 
L 163.137048 250.151852 
L 163.618766 249.889757 
L 164.100484 249.949606 
L 164.582202 251.34783 
L 165.545637 248.74907 
L 166.027355 248.071905 
L 166.509073 248.182091 
L 166.990791 246.869465 
L 167.472509 244.567027 
L 168.435944 243.799133 
L 168.917662 243.098581 
L 169.881098 240.123863 
L 170.844533 238.37437 
L 171.326251 237.821506 
L 172.771404 235.710383 
L 175.179993 230.071843 
L 175.661711 228.990085 
L 176.625147 225.781482 
L 177.106865 225.372794 
L 177.588582 224.576273 
L 178.0703 222.811637 
L 178.552018 223.186355 
L 179.033736 223.232879 
L 179.515454 221.316343 
L 180.478889 218.83644 
L 180.960607 218.146142 
L 182.40576 219.823082 
L 183.369196 217.488108 
L 183.850914 216.821755 
L 184.814349 214.931854 
L 185.296067 213.640481 
L 185.777785 212.998608 
L 186.259503 213.752538 
L 186.741221 212.431579 
L 187.222938 212.41818 
L 187.704656 213.019793 
L 188.186374 212.994996 
L 189.14981 211.384861 
L 189.631527 206.128218 
L 190.113245 210.368276 
L 190.594963 211.498712 
L 191.076681 210.620167 
L 191.558399 211.809314 
L 192.040116 210.118452 
L 192.521834 209.054478 
L 193.003552 205.498695 
L 194.448705 200.105354 
L 194.930423 201.770291 
L 195.412141 202.187568 
L 195.893859 198.661083 
L 196.375577 196.568981 
L 197.339012 193.803365 
L 197.82073 192.19901 
L 198.302448 193.082683 
L 203.119626 187.707212 
L 205.528215 185.093886 
L 210.345393 183.658421 
L 215.162571 185.11952 
L 219.979749 191.153993 
L 224.796927 200.321179 
L 229.614105 215.837531 
L 234.431283 235.265597 
L 239.248461 247.53803 
L 263.334351 247.588972 
L 311.506132 265.430321 
L 431.935582 265.430321 
L 431.935582 265.430321 
" clip-path="url(#p056eda071a)" style="fill: none; stroke: #188487; stroke-width: 1.5; stroke-linecap: square"/>
   </g>
   <g id="line2d_19">
    <path d="M 70.64723 264.863092 
L 85.098764 264.452347 
L 99.550298 263.718743 
L 108.702937 262.983591 
L 110.14809 262.819153 
L 115.446986 262.181755 
L 118.81901 261.679756 
L 119.300728 261.731722 
L 119.782446 261.338246 
L 121.709317 261.225892 
L 123.636188 260.976773 
L 124.117906 260.869642 
L 124.599624 261.267189 
L 128.453366 260.992789 
L 128.935084 260.79833 
L 129.416802 260.117682 
L 129.89852 259.977456 
L 130.380238 259.989791 
L 131.343673 259.783219 
L 132.788827 259.527183 
L 133.752262 259.012168 
L 134.23398 259.259467 
L 135.197416 259.08202 
L 136.642569 258.910535 
L 137.124287 258.722937 
L 137.606005 258.723741 
L 139.051158 258.375478 
L 139.532876 258.404553 
L 140.496312 258.031635 
L 141.941465 257.631969 
L 142.904901 257.177972 
L 143.386618 256.618232 
L 143.868336 256.49478 
L 144.350054 255.977441 
L 144.831772 255.738913 
L 145.795207 254.879163 
L 146.276925 254.2583 
L 146.758643 254.355142 
L 147.722079 253.842506 
L 148.203796 254.132995 
L 148.685514 254.116827 
L 149.167232 253.85223 
L 149.64895 254.456137 
L 150.130668 254.593609 
L 150.612385 254.155864 
L 151.094103 253.923432 
L 151.575821 253.963624 
L 152.057539 254.650312 
L 152.539257 253.806889 
L 153.020974 254.222939 
L 153.502692 253.93766 
L 153.98441 253.099528 
L 154.947846 252.87267 
L 155.429563 252.927277 
L 155.911281 251.97716 
L 156.392999 251.925437 
L 156.874717 251.193789 
L 157.356435 251.239837 
L 157.838152 251.875561 
L 158.31987 253.138693 
L 158.801588 252.867879 
L 159.765024 252.095769 
L 160.246741 251.363421 
L 160.728459 250.969445 
L 161.210177 251.422281 
L 162.173613 250.357737 
L 163.137048 250.151852 
L 163.618766 249.889757 
L 164.100484 249.949606 
L 164.582202 251.34783 
L 165.545637 248.74907 
L 166.027355 248.071905 
L 166.509073 248.182091 
L 166.990791 246.869465 
L 167.472509 244.567027 
L 168.435944 243.799133 
L 168.917662 243.098581 
L 169.881098 240.123863 
L 170.844533 238.37437 
L 171.326251 237.821506 
L 172.771404 235.710383 
L 175.179993 230.071843 
L 175.661711 228.990085 
L 176.625147 225.781482 
L 177.106865 225.372794 
L 177.588582 224.576273 
L 178.0703 222.811637 
L 178.552018 223.186355 
L 179.033736 223.232879 
L 179.515454 221.316343 
L 180.478889 218.83644 
L 180.960607 218.146142 
L 182.40576 219.823082 
L 183.369196 217.488108 
L 183.850914 216.821755 
L 184.814349 214.931854 
L 185.296067 213.640481 
L 185.777785 212.998608 
L 186.259503 213.752538 
L 186.741221 212.431579 
L 187.222938 212.41818 
L 187.704656 213.019793 
L 188.186374 212.994996 
L 189.14981 211.384861 
L 189.631527 206.128218 
L 190.113245 210.368276 
L 190.594963 211.498712 
L 191.076681 210.620167 
L 191.558399 211.809314 
L 192.040116 210.118452 
L 192.521834 209.054478 
L 193.003552 205.498695 
L 194.448705 200.105354 
L 194.930423 201.770291 
L 195.412141 202.187568 
L 195.893859 198.661083 
L 196.375577 196.568981 
L 197.339012 193.803365 
L 197.82073 192.19901 
L 198.302448 193.082683 
L 200.711037 182.63262 
L 205.528215 167.77731 
L 210.827111 156.521763 
L 215.644289 148.517122 
L 222.388338 139.213875 
L 229.132387 130.411309 
L 229.614105 129.789838 
L 235.394719 119.850019 
L 239.248461 112.566927 
L 264.297787 168.766172 
L 311.506132 265.430321 
L 431.935582 265.430321 
L 431.935582 265.430321 
" clip-path="url(#p056eda071a)" style="fill: none; stroke: #e24a33; stroke-width: 1.5; stroke-linecap: square"/>
   </g>
   <g id="line2d_20">
    <path d="M 70.64723 264.863092 
L 85.098764 264.452347 
L 99.550298 263.718743 
L 108.702937 262.983591 
L 110.14809 262.819153 
L 115.446986 262.181755 
L 118.81901 261.679756 
L 119.300728 261.731722 
L 119.782446 261.338246 
L 121.709317 261.225892 
L 123.636188 260.976773 
L 124.117906 260.869642 
L 124.599624 261.267189 
L 128.453366 260.992789 
L 128.935084 260.79833 
L 129.416802 260.117682 
L 129.89852 259.977456 
L 130.380238 259.989791 
L 131.343673 259.783219 
L 132.788827 259.527183 
L 133.752262 259.012168 
L 134.23398 259.259467 
L 135.197416 259.08202 
L 136.642569 258.910535 
L 137.124287 258.722937 
L 137.606005 258.723741 
L 139.051158 258.375478 
L 139.532876 258.404553 
L 140.496312 258.031635 
L 141.941465 257.631969 
L 142.904901 257.177972 
L 143.386618 256.618232 
L 143.868336 256.49478 
L 144.350054 255.977441 
L 144.831772 255.738913 
L 145.795207 254.879163 
L 146.276925 254.2583 
L 146.758643 254.355142 
L 147.722079 253.842506 
L 148.203796 254.132995 
L 148.685514 254.116827 
L 149.167232 253.85223 
L 149.64895 254.456137 
L 150.130668 254.593609 
L 150.612385 254.155864 
L 151.094103 253.923432 
L 151.575821 253.963624 
L 152.057539 254.650312 
L 152.539257 253.806889 
L 153.020974 254.222939 
L 153.502692 253.93766 
L 153.98441 253.099528 
L 154.947846 252.87267 
L 155.429563 252.927277 
L 155.911281 251.97716 
L 156.392999 251.925437 
L 156.874717 251.193789 
L 157.356435 251.239837 
L 157.838152 251.875561 
L 158.31987 253.138693 
L 158.801588 252.867879 
L 159.765024 252.095769 
L 160.246741 251.363421 
L 160.728459 250.969445 
L 161.210177 251.422281 
L 162.173613 250.357737 
L 163.137048 250.151852 
L 163.618766 249.889757 
L 164.100484 249.949606 
L 164.582202 251.34783 
L 165.545637 248.74907 
L 166.027355 248.071905 
L 166.509073 248.182091 
L 166.990791 246.869465 
L 167.472509 244.567027 
L 168.435944 243.799133 
L 168.917662 243.098581 
L 169.881098 240.123863 
L 170.844533 238.37437 
L 171.326251 237.821506 
L 172.771404 235.710383 
L 175.179993 230.071843 
L 175.661711 228.990085 
L 176.625147 225.781482 
L 177.106865 225.372794 
L 177.588582 224.576273 
L 178.0703 222.811637 
L 178.552018 223.186355 
L 179.033736 223.232879 
L 179.515454 221.316343 
L 180.478889 218.83644 
L 180.960607 218.146142 
L 182.40576 219.823082 
L 183.369196 217.488108 
L 183.850914 216.821755 
L 184.814349 214.931854 
L 185.296067 213.640481 
L 185.777785 212.998608 
L 186.259503 213.752538 
L 186.741221 212.431579 
L 187.222938 212.41818 
L 187.704656 213.019793 
L 188.186374 212.994996 
L 189.14981 211.384861 
L 189.631527 206.128218 
L 190.113245 210.368276 
L 190.594963 211.498712 
L 191.076681 210.620167 
L 191.558399 211.809314 
L 192.040116 210.118452 
L 192.521834 209.054478 
L 193.003552 205.498695 
L 194.448705 200.105354 
L 194.930423 201.770291 
L 195.412141 202.187568 
L 195.893859 198.661083 
L 196.375577 196.568981 
L 197.339012 193.803365 
L 197.82073 192.19901 
L 198.302448 193.082683 
L 200.711037 193.223865 
L 205.528215 181.967631 
L 210.345393 176.47031 
L 215.162571 176.036177 
L 219.979749 178.093417 
L 224.796927 182.881076 
L 231.059259 200.627515 
L 239.248461 224.916598 
L 263.816069 236.365406 
L 311.506132 265.430321 
L 431.935582 265.430321 
L 431.935582 265.430321 
" clip-path="url(#p056eda071a)" style="fill: none; stroke: #7a68a6; stroke-width: 1.5; stroke-linecap: square"/>
   </g>
   <g id="line2d_21">
    <path d="M 70.64723 264.863092 
L 85.098764 264.452347 
L 99.550298 263.718743 
L 108.702937 262.983591 
L 110.14809 262.819153 
L 115.446986 262.181755 
L 118.81901 261.679756 
L 119.300728 261.731722 
L 119.782446 261.338246 
L 121.709317 261.225892 
L 123.636188 260.976773 
L 124.117906 260.869642 
L 124.599624 261.267189 
L 128.453366 260.992789 
L 128.935084 260.79833 
L 129.416802 260.117682 
L 129.89852 259.977456 
L 130.380238 259.989791 
L 131.343673 259.783219 
L 132.788827 259.527183 
L 133.752262 259.012168 
L 134.23398 259.259467 
L 135.197416 259.08202 
L 136.642569 258.910535 
L 137.124287 258.722937 
L 137.606005 258.723741 
L 139.051158 258.375478 
L 139.532876 258.404553 
L 140.496312 258.031635 
L 141.941465 257.631969 
L 142.904901 257.177972 
L 143.386618 256.618232 
L 143.868336 256.49478 
L 144.350054 255.977441 
L 144.831772 255.738913 
L 145.795207 254.879163 
L 146.276925 254.2583 
L 146.758643 254.355142 
L 147.722079 253.842506 
L 148.203796 254.132995 
L 148.685514 254.116827 
L 149.167232 253.85223 
L 149.64895 254.456137 
L 150.130668 254.593609 
L 150.612385 254.155864 
L 151.094103 253.923432 
L 151.575821 253.963624 
L 152.057539 254.650312 
L 152.539257 253.806889 
L 153.020974 254.222939 
L 153.502692 253.93766 
L 153.98441 253.099528 
L 154.947846 252.87267 
L 155.429563 252.927277 
L 155.911281 251.97716 
L 156.392999 251.925437 
L 156.874717 251.193789 
L 157.356435 251.239837 
L 157.838152 251.875561 
L 158.31987 253.138693 
L 158.801588 252.867879 
L 159.765024 252.095769 
L 160.246741 251.363421 
L 160.728459 250.969445 
L 161.210177 251.422281 
L 162.173613 250.357737 
L 163.137048 250.151852 
L 163.618766 249.889757 
L 164.100484 249.949606 
L 164.582202 251.34783 
L 165.545637 248.74907 
L 166.027355 248.071905 
L 166.509073 248.182091 
L 166.990791 246.869465 
L 167.472509 244.567027 
L 168.435944 243.799133 
L 168.917662 243.098581 
L 169.881098 240.123863 
L 170.844533 238.37437 
L 171.326251 237.821506 
L 172.771404 235.710383 
L 175.179993 230.071843 
L 175.661711 228.990085 
L 176.625147 225.781482 
L 177.106865 225.372794 
L 177.588582 224.576273 
L 178.0703 222.811637 
L 178.552018 223.186355 
L 179.033736 223.232879 
L 179.515454 221.316343 
L 180.478889 218.83644 
L 180.960607 218.146142 
L 182.40576 219.823082 
L 183.369196 217.488108 
L 183.850914 216.821755 
L 184.814349 214.931854 
L 185.296067 213.640481 
L 185.777785 212.998608 
L 186.259503 213.752538 
L 186.741221 212.431579 
L 187.222938 212.41818 
L 187.704656 213.019793 
L 188.186374 212.994996 
L 189.14981 211.384861 
L 189.631527 206.128218 
L 190.113245 210.368276 
L 190.594963 211.498712 
L 191.076681 210.620167 
L 191.558399 211.809314 
L 192.040116 210.118452 
L 192.521834 209.054478 
L 193.003552 205.498695 
L 194.448705 200.105354 
L 194.930423 201.770291 
L 195.412141 202.187568 
L 195.893859 198.661083 
L 196.375577 196.568981 
L 197.339012 193.803365 
L 197.82073 192.19901 
L 198.302448 193.082683 
L 200.711037 184.657269 
L 206.009933 160.760843 
L 211.790546 130.293873 
L 215.644289 108.360476 
L 222.870056 61.764943 
L 225.278645 47.220965 
L 229.614105 25.864455 
L 234.431283 24.147443 
L 239.248461 32.072661 
L 266.224658 117.420786 
L 311.506132 265.430321 
L 431.935582 265.430321 
L 431.935582 265.430321 
" clip-path="url(#p056eda071a)" style="fill: none; stroke: #a60628; stroke-width: 1.5; stroke-linecap: square"/>
   </g>
   <g id="patch_2">
    <path d="M 52.582813 304.44375 
L 52.582813 10.8 
" style="fill: none; stroke: #000000; stroke-width: 0.8; stroke-linejoin: miter; stroke-linecap: square"/>
   </g>
   <g id="patch_3">
    <path d="M 450 304.44375 
L 450 10.8 
" style="fill: none; stroke: #000000; stroke-width: 0.8; stroke-linejoin: miter; stroke-linecap: square"/>
   </g>
   <g id="patch_4">
    <path d="M 52.582813 304.44375 
L 450 304.44375 
" style="fill: none; stroke: #000000; stroke-width: 0.8; stroke-linejoin: miter; stroke-linecap: square"/>
   </g>
   <g id="patch_5">
    <path d="M 52.582813 10.8 
L 450 10.8 
" style="fill: none; stroke: #000000; stroke-width: 0.8; stroke-linejoin: miter; stroke-linecap: square"/>
   </g>
   <g id="legend_1">
    <g id="patch_6">
     <path d="M 375.145312 92.190625 
L 443 92.190625 
Q 445 92.190625 445 90.190625 
L 445 17.8 
Q 445 15.8 443 15.8 
L 375.145312 15.8 
Q 373.145312 15.8 373.145312 17.8 
L 373.145312 90.190625 
Q 373.145312 92.190625 375.145312 92.190625 
z
" style="fill: #ffffff; opacity: 0.8; stroke: #cccccc; stroke-linejoin: miter"/>
    </g>
    <g id="line2d_22">
     <path d="M 377.145312 23.898438 
L 387.145312 23.898438 
L 397.145312 23.898438 
" style="fill: none; stroke: #348abd; stroke-width: 1.5; stroke-linecap: square"/>
    </g>
    <g id="text_19">
     <!-- ssp119 -->
     <g transform="translate(405.145312 27.398438) scale(0.1 -0.1)">
      <defs>
       <path id="DejaVuSans-70" d="M 1159 525 
L 1159 -1331 
L 581 -1331 
L 581 3500 
L 1159 3500 
L 1159 2969 
Q 1341 3281 1617 3432 
Q 1894 3584 2278 3584 
Q 2916 3584 3314 3078 
Q 3713 2572 3713 1747 
Q 3713 922 3314 415 
Q 2916 -91 2278 -91 
Q 1894 -91 1617 61 
Q 1341 213 1159 525 
z
M 3116 1747 
Q 3116 2381 2855 2742 
Q 2594 3103 2138 3103 
Q 1681 3103 1420 2742 
Q 1159 2381 1159 1747 
Q 1159 1113 1420 752 
Q 1681 391 2138 391 
Q 2594 391 2855 752 
Q 3116 1113 3116 1747 
z
" transform="scale(0.015625)"/>
      </defs>
      <use xlink:href="#DejaVuSans-73"/>
      <use xlink:href="#DejaVuSans-73" x="52.099609"/>
      <use xlink:href="#DejaVuSans-70" x="104.199219"/>
      <use xlink:href="#DejaVuSans-31" x="167.675781"/>
      <use xlink:href="#DejaVuSans-31" x="231.298828"/>
      <use xlink:href="#DejaVuSans-39" x="294.921875"/>
     </g>
    </g>
    <g id="line2d_23">
     <path d="M 377.145312 38.576563 
L 387.145312 38.576563 
L 397.145312 38.576563 
" style="fill: none; stroke: #188487; stroke-width: 1.5; stroke-linecap: square"/>
    </g>
    <g id="text_20">
     <!-- ssp245 -->
     <g transform="translate(405.145312 42.076563) scale(0.1 -0.1)">
      <use xlink:href="#DejaVuSans-73"/>
      <use xlink:href="#DejaVuSans-73" x="52.099609"/>
      <use xlink:href="#DejaVuSans-70" x="104.199219"/>
      <use xlink:href="#DejaVuSans-32" x="167.675781"/>
      <use xlink:href="#DejaVuSans-34" x="231.298828"/>
      <use xlink:href="#DejaVuSans-35" x="294.921875"/>
     </g>
    </g>
    <g id="line2d_24">
     <path d="M 377.145312 53.254687 
L 387.145312 53.254687 
L 397.145312 53.254687 
" style="fill: none; stroke: #e24a33; stroke-width: 1.5; stroke-linecap: square"/>
    </g>
    <g id="text_21">
     <!-- ssp370 -->
     <g transform="translate(405.145312 56.754687) scale(0.1 -0.1)">
      <defs>
       <path id="DejaVuSans-37" d="M 525 4666 
L 3525 4666 
L 3525 4397 
L 1831 0 
L 1172 0 
L 2766 4134 
L 525 4134 
L 525 4666 
z
" transform="scale(0.015625)"/>
      </defs>
      <use xlink:href="#DejaVuSans-73"/>
      <use xlink:href="#DejaVuSans-73" x="52.099609"/>
      <use xlink:href="#DejaVuSans-70" x="104.199219"/>
      <use xlink:href="#DejaVuSans-33" x="167.675781"/>
      <use xlink:href="#DejaVuSans-37" x="231.298828"/>
      <use xlink:href="#DejaVuSans-30" x="294.921875"/>
     </g>
    </g>
    <g id="line2d_25">
     <path d="M 377.145312 67.932813 
L 387.145312 67.932813 
L 397.145312 67.932813 
" style="fill: none; stroke: #7a68a6; stroke-width: 1.5; stroke-linecap: square"/>
    </g>
    <g id="text_22">
     <!-- ssp460 -->
     <g transform="translate(405.145312 71.432813) scale(0.1 -0.1)">
      <use xlink:href="#DejaVuSans-73"/>
      <use xlink:href="#DejaVuSans-73" x="52.099609"/>
      <use xlink:href="#DejaVuSans-70" x="104.199219"/>
      <use xlink:href="#DejaVuSans-34" x="167.675781"/>
      <use xlink:href="#DejaVuSans-36" x="231.298828"/>
      <use xlink:href="#DejaVuSans-30" x="294.921875"/>
     </g>
    </g>
    <g id="line2d_26">
     <path d="M 377.145312 82.610938 
L 387.145312 82.610938 
L 397.145312 82.610938 
" style="fill: none; stroke: #a60628; stroke-width: 1.5; stroke-linecap: square"/>
    </g>
    <g id="text_23">
     <!-- ssp585 -->
     <g transform="translate(405.145312 86.110938) scale(0.1 -0.1)">
      <use xlink:href="#DejaVuSans-73"/>
      <use xlink:href="#DejaVuSans-73" x="52.099609"/>
      <use xlink:href="#DejaVuSans-70" x="104.199219"/>
      <use xlink:href="#DejaVuSans-35" x="167.675781"/>
      <use xlink:href="#DejaVuSans-38" x="231.298828"/>
      <use xlink:href="#DejaVuSans-35" x="294.921875"/>
     </g>
    </g>
   </g>
  </g>
 </g>
 <defs>
  <clipPath id="p056eda071a">
   <rect x="52.582813" y="10.8" width="397.417187" height="293.64375"/>
  </clipPath>
 </defs>
</svg>
