<?xml version="1.0" encoding="utf-8" standalone="no"?>
<!DOCTYPE svg PUBLIC "-//W3C//DTD SVG 1.1//EN"
  "http://www.w3.org/Graphics/SVG/1.1/DTD/svg11.dtd">
<svg xmlns:xlink="http://www.w3.org/1999/xlink" width="460.8pt" height="345.6pt" viewBox="0 0 460.8 345.6" xmlns="http://www.w3.org/2000/svg" version="1.1">
 <metadata>
  <rdf:RDF xmlns:dc="http://purl.org/dc/elements/1.1/" xmlns:cc="http://creativecommons.org/ns#" xmlns:rdf="http://www.w3.org/1999/02/22-rdf-syntax-ns#">
   <cc:Work>
    <dc:type rdf:resource="http://purl.org/dc/dcmitype/StillImage"/>
    <dc:date>2024-10-10T11:07:57.638983</dc:date>
    <dc:format>image/svg+xml</dc:format>
    <dc:creator>
     <cc:Agent>
      <dc:title>Matplotlib v3.9.0, https://matplotlib.org/</dc:title>
     </cc:Agent>
    </dc:creator>
   </cc:Work>
  </rdf:RDF>
 </metadata>
 <defs>
  <style type="text/css">*{stroke-linejoin: round; stroke-linecap: butt}</style>
 </defs>
 <g id="figure_1">
  <g id="axes_1">
   <g id="patch_1">
    <path d="M 56.928125 304.44375 
L 450 304.44375 
L 450 10.8 
L 56.928125 10.8 
L 56.928125 304.44375 
z
" style="fill: none"/>
   </g>
   <g id="matplotlib.axis_1">
    <g id="xtick_1">
     <g id="line2d_1">
      <defs>
       <path id="m63618dcd5f" d="M 0 0 
L 0 3.5 
" style="stroke: #000000; stroke-width: 0.8"/>
      </defs>
      <g>
       <use xlink:href="#m63618dcd5f" x="98.617566" y="304.44375" style="stroke: #000000; stroke-width: 0.8"/>
      </g>
     </g>
     <g id="text_1">
      <!-- 1800 -->
      <g transform="translate(85.892566 319.042187) scale(0.1 -0.1)">
       <defs>
        <path id="DejaVuSans-31" d="M 794 531 
L 1825 531 
L 1825 4091 
L 703 3866 
L 703 4441 
L 1819 4666 
L 2450 4666 
L 2450 531 
L 3481 531 
L 3481 0 
L 794 0 
L 794 531 
z
" transform="scale(0.015625)"/>
        <path id="DejaVuSans-38" d="M 2034 2216 
Q 1584 2216 1326 1975 
Q 1069 1734 1069 1313 
Q 1069 891 1326 650 
Q 1584 409 2034 409 
Q 2484 409 2743 651 
Q 3003 894 3003 1313 
Q 3003 1734 2745 1975 
Q 2488 2216 2034 2216 
z
M 1403 2484 
Q 997 2584 770 2862 
Q 544 3141 544 3541 
Q 544 4100 942 4425 
Q 1341 4750 2034 4750 
Q 2731 4750 3128 4425 
Q 3525 4100 3525 3541 
Q 3525 3141 3298 2862 
Q 3072 2584 2669 2484 
Q 3125 2378 3379 2068 
Q 3634 1759 3634 1313 
Q 3634 634 3220 271 
Q 2806 -91 2034 -91 
Q 1263 -91 848 271 
Q 434 634 434 1313 
Q 434 1759 690 2068 
Q 947 2378 1403 2484 
z
M 1172 3481 
Q 1172 3119 1398 2916 
Q 1625 2713 2034 2713 
Q 2441 2713 2670 2916 
Q 2900 3119 2900 3481 
Q 2900 3844 2670 4047 
Q 2441 4250 2034 4250 
Q 1625 4250 1398 4047 
Q 1172 3844 1172 3481 
z
" transform="scale(0.015625)"/>
        <path id="DejaVuSans-30" d="M 2034 4250 
Q 1547 4250 1301 3770 
Q 1056 3291 1056 2328 
Q 1056 1369 1301 889 
Q 1547 409 2034 409 
Q 2525 409 2770 889 
Q 3016 1369 3016 2328 
Q 3016 3291 2770 3770 
Q 2525 4250 2034 4250 
z
M 2034 4750 
Q 2819 4750 3233 4129 
Q 3647 3509 3647 2328 
Q 3647 1150 3233 529 
Q 2819 -91 2034 -91 
Q 1250 -91 836 529 
Q 422 1150 422 2328 
Q 422 3509 836 4129 
Q 1250 4750 2034 4750 
z
" transform="scale(0.015625)"/>
       </defs>
       <use xlink:href="#DejaVuSans-31"/>
       <use xlink:href="#DejaVuSans-38" x="63.623047"/>
       <use xlink:href="#DejaVuSans-30" x="127.246094"/>
       <use xlink:href="#DejaVuSans-30" x="190.869141"/>
      </g>
     </g>
    </g>
    <g id="xtick_2">
     <g id="line2d_2">
      <g>
       <use xlink:href="#m63618dcd5f" x="146.262642" y="304.44375" style="stroke: #000000; stroke-width: 0.8"/>
      </g>
     </g>
     <g id="text_2">
      <!-- 1900 -->
      <g transform="translate(133.537642 319.042187) scale(0.1 -0.1)">
       <defs>
        <path id="DejaVuSans-39" d="M 703 97 
L 703 672 
Q 941 559 1184 500 
Q 1428 441 1663 441 
Q 2288 441 2617 861 
Q 2947 1281 2994 2138 
Q 2813 1869 2534 1725 
Q 2256 1581 1919 1581 
Q 1219 1581 811 2004 
Q 403 2428 403 3163 
Q 403 3881 828 4315 
Q 1253 4750 1959 4750 
Q 2769 4750 3195 4129 
Q 3622 3509 3622 2328 
Q 3622 1225 3098 567 
Q 2575 -91 1691 -91 
Q 1453 -91 1209 -44 
Q 966 3 703 97 
z
M 1959 2075 
Q 2384 2075 2632 2365 
Q 2881 2656 2881 3163 
Q 2881 3666 2632 3958 
Q 2384 4250 1959 4250 
Q 1534 4250 1286 3958 
Q 1038 3666 1038 3163 
Q 1038 2656 1286 2365 
Q 1534 2075 1959 2075 
z
" transform="scale(0.015625)"/>
       </defs>
       <use xlink:href="#DejaVuSans-31"/>
       <use xlink:href="#DejaVuSans-39" x="63.623047"/>
       <use xlink:href="#DejaVuSans-30" x="127.246094"/>
       <use xlink:href="#DejaVuSans-30" x="190.869141"/>
      </g>
     </g>
    </g>
    <g id="xtick_3">
     <g id="line2d_3">
      <g>
       <use xlink:href="#m63618dcd5f" x="193.907718" y="304.44375" style="stroke: #000000; stroke-width: 0.8"/>
      </g>
     </g>
     <g id="text_3">
      <!-- 2000 -->
      <g transform="translate(181.182718 319.042187) scale(0.1 -0.1)">
       <defs>
        <path id="DejaVuSans-32" d="M 1228 531 
L 3431 531 
L 3431 0 
L 469 0 
L 469 531 
Q 828 903 1448 1529 
Q 2069 2156 2228 2338 
Q 2531 2678 2651 2914 
Q 2772 3150 2772 3378 
Q 2772 3750 2511 3984 
Q 2250 4219 1831 4219 
Q 1534 4219 1204 4116 
Q 875 4013 500 3803 
L 500 4441 
Q 881 4594 1212 4672 
Q 1544 4750 1819 4750 
Q 2544 4750 2975 4387 
Q 3406 4025 3406 3419 
Q 3406 3131 3298 2873 
Q 3191 2616 2906 2266 
Q 2828 2175 2409 1742 
Q 1991 1309 1228 531 
z
" transform="scale(0.015625)"/>
       </defs>
       <use xlink:href="#DejaVuSans-32"/>
       <use xlink:href="#DejaVuSans-30" x="63.623047"/>
       <use xlink:href="#DejaVuSans-30" x="127.246094"/>
       <use xlink:href="#DejaVuSans-30" x="190.869141"/>
      </g>
     </g>
    </g>
    <g id="xtick_4">
     <g id="line2d_4">
      <g>
       <use xlink:href="#m63618dcd5f" x="241.552794" y="304.44375" style="stroke: #000000; stroke-width: 0.8"/>
      </g>
     </g>
     <g id="text_4">
      <!-- 2100 -->
      <g transform="translate(228.827794 319.042187) scale(0.1 -0.1)">
       <use xlink:href="#DejaVuSans-32"/>
       <use xlink:href="#DejaVuSans-31" x="63.623047"/>
       <use xlink:href="#DejaVuSans-30" x="127.246094"/>
       <use xlink:href="#DejaVuSans-30" x="190.869141"/>
      </g>
     </g>
    </g>
    <g id="xtick_5">
     <g id="line2d_5">
      <g>
       <use xlink:href="#m63618dcd5f" x="289.197869" y="304.44375" style="stroke: #000000; stroke-width: 0.8"/>
      </g>
     </g>
     <g id="text_5">
      <!-- 2200 -->
      <g transform="translate(276.472869 319.042187) scale(0.1 -0.1)">
       <use xlink:href="#DejaVuSans-32"/>
       <use xlink:href="#DejaVuSans-32" x="63.623047"/>
       <use xlink:href="#DejaVuSans-30" x="127.246094"/>
       <use xlink:href="#DejaVuSans-30" x="190.869141"/>
      </g>
     </g>
    </g>
    <g id="xtick_6">
     <g id="line2d_6">
      <g>
       <use xlink:href="#m63618dcd5f" x="336.842945" y="304.44375" style="stroke: #000000; stroke-width: 0.8"/>
      </g>
     </g>
     <g id="text_6">
      <!-- 2300 -->
      <g transform="translate(324.117945 319.042187) scale(0.1 -0.1)">
       <defs>
        <path id="DejaVuSans-33" d="M 2597 2516 
Q 3050 2419 3304 2112 
Q 3559 1806 3559 1356 
Q 3559 666 3084 287 
Q 2609 -91 1734 -91 
Q 1441 -91 1130 -33 
Q 819 25 488 141 
L 488 750 
Q 750 597 1062 519 
Q 1375 441 1716 441 
Q 2309 441 2620 675 
Q 2931 909 2931 1356 
Q 2931 1769 2642 2001 
Q 2353 2234 1838 2234 
L 1294 2234 
L 1294 2753 
L 1863 2753 
Q 2328 2753 2575 2939 
Q 2822 3125 2822 3475 
Q 2822 3834 2567 4026 
Q 2313 4219 1838 4219 
Q 1578 4219 1281 4162 
Q 984 4106 628 3988 
L 628 4550 
Q 988 4650 1302 4700 
Q 1616 4750 1894 4750 
Q 2613 4750 3031 4423 
Q 3450 4097 3450 3541 
Q 3450 3153 3228 2886 
Q 3006 2619 2597 2516 
z
" transform="scale(0.015625)"/>
       </defs>
       <use xlink:href="#DejaVuSans-32"/>
       <use xlink:href="#DejaVuSans-33" x="63.623047"/>
       <use xlink:href="#DejaVuSans-30" x="127.246094"/>
       <use xlink:href="#DejaVuSans-30" x="190.869141"/>
      </g>
     </g>
    </g>
    <g id="xtick_7">
     <g id="line2d_7">
      <g>
       <use xlink:href="#m63618dcd5f" x="384.488021" y="304.44375" style="stroke: #000000; stroke-width: 0.8"/>
      </g>
     </g>
     <g id="text_7">
      <!-- 2400 -->
      <g transform="translate(371.763021 319.042187) scale(0.1 -0.1)">
       <defs>
        <path id="DejaVuSans-34" d="M 2419 4116 
L 825 1625 
L 2419 1625 
L 2419 4116 
z
M 2253 4666 
L 3047 4666 
L 3047 1625 
L 3713 1625 
L 3713 1100 
L 3047 1100 
L 3047 0 
L 2419 0 
L 2419 1100 
L 313 1100 
L 313 1709 
L 2253 4666 
z
" transform="scale(0.015625)"/>
       </defs>
       <use xlink:href="#DejaVuSans-32"/>
       <use xlink:href="#DejaVuSans-34" x="63.623047"/>
       <use xlink:href="#DejaVuSans-30" x="127.246094"/>
       <use xlink:href="#DejaVuSans-30" x="190.869141"/>
      </g>
     </g>
    </g>
    <g id="xtick_8">
     <g id="line2d_8">
      <g>
       <use xlink:href="#m63618dcd5f" x="432.133097" y="304.44375" style="stroke: #000000; stroke-width: 0.8"/>
      </g>
     </g>
     <g id="text_8">
      <!-- 2500 -->
      <g transform="translate(419.408097 319.042187) scale(0.1 -0.1)">
       <defs>
        <path id="DejaVuSans-35" d="M 691 4666 
L 3169 4666 
L 3169 4134 
L 1269 4134 
L 1269 2991 
Q 1406 3038 1543 3061 
Q 1681 3084 1819 3084 
Q 2600 3084 3056 2656 
Q 3513 2228 3513 1497 
Q 3513 744 3044 326 
Q 2575 -91 1722 -91 
Q 1428 -91 1123 -41 
Q 819 9 494 109 
L 494 744 
Q 775 591 1075 516 
Q 1375 441 1709 441 
Q 2250 441 2565 725 
Q 2881 1009 2881 1497 
Q 2881 1984 2565 2268 
Q 2250 2553 1709 2553 
Q 1456 2553 1204 2497 
Q 953 2441 691 2322 
L 691 4666 
z
" transform="scale(0.015625)"/>
       </defs>
       <use xlink:href="#DejaVuSans-32"/>
       <use xlink:href="#DejaVuSans-35" x="63.623047"/>
       <use xlink:href="#DejaVuSans-30" x="127.246094"/>
       <use xlink:href="#DejaVuSans-30" x="190.869141"/>
      </g>
     </g>
    </g>
    <g id="text_9">
     <!-- Year -->
     <g transform="translate(242.876562 332.720312) scale(0.1 -0.1)">
      <defs>
       <path id="DejaVuSans-59" d="M -13 4666 
L 666 4666 
L 1959 2747 
L 3244 4666 
L 3922 4666 
L 2272 2222 
L 2272 0 
L 1638 0 
L 1638 2222 
L -13 4666 
z
" transform="scale(0.015625)"/>
       <path id="DejaVuSans-65" d="M 3597 1894 
L 3597 1613 
L 953 1613 
Q 991 1019 1311 708 
Q 1631 397 2203 397 
Q 2534 397 2845 478 
Q 3156 559 3463 722 
L 3463 178 
Q 3153 47 2828 -22 
Q 2503 -91 2169 -91 
Q 1331 -91 842 396 
Q 353 884 353 1716 
Q 353 2575 817 3079 
Q 1281 3584 2069 3584 
Q 2775 3584 3186 3129 
Q 3597 2675 3597 1894 
z
M 3022 2063 
Q 3016 2534 2758 2815 
Q 2500 3097 2075 3097 
Q 1594 3097 1305 2825 
Q 1016 2553 972 2059 
L 3022 2063 
z
" transform="scale(0.015625)"/>
       <path id="DejaVuSans-61" d="M 2194 1759 
Q 1497 1759 1228 1600 
Q 959 1441 959 1056 
Q 959 750 1161 570 
Q 1363 391 1709 391 
Q 2188 391 2477 730 
Q 2766 1069 2766 1631 
L 2766 1759 
L 2194 1759 
z
M 3341 1997 
L 3341 0 
L 2766 0 
L 2766 531 
Q 2569 213 2275 61 
Q 1981 -91 1556 -91 
Q 1019 -91 701 211 
Q 384 513 384 1019 
Q 384 1609 779 1909 
Q 1175 2209 1959 2209 
L 2766 2209 
L 2766 2266 
Q 2766 2663 2505 2880 
Q 2244 3097 1772 3097 
Q 1472 3097 1187 3025 
Q 903 2953 641 2809 
L 641 3341 
Q 956 3463 1253 3523 
Q 1550 3584 1831 3584 
Q 2591 3584 2966 3190 
Q 3341 2797 3341 1997 
z
" transform="scale(0.015625)"/>
       <path id="DejaVuSans-72" d="M 2631 2963 
Q 2534 3019 2420 3045 
Q 2306 3072 2169 3072 
Q 1681 3072 1420 2755 
Q 1159 2438 1159 1844 
L 1159 0 
L 581 0 
L 581 3500 
L 1159 3500 
L 1159 2956 
Q 1341 3275 1631 3429 
Q 1922 3584 2338 3584 
Q 2397 3584 2469 3576 
Q 2541 3569 2628 3553 
L 2631 2963 
z
" transform="scale(0.015625)"/>
      </defs>
      <use xlink:href="#DejaVuSans-59"/>
      <use xlink:href="#DejaVuSans-65" x="47.833984"/>
      <use xlink:href="#DejaVuSans-61" x="109.357422"/>
      <use xlink:href="#DejaVuSans-72" x="170.636719"/>
     </g>
    </g>
   </g>
   <g id="matplotlib.axis_2">
    <g id="ytick_1">
     <g id="line2d_9">
      <defs>
       <path id="m226c2512a1" d="M 0 0 
L -3.5 0 
" style="stroke: #000000; stroke-width: 0.8"/>
      </defs>
      <g>
       <use xlink:href="#m226c2512a1" x="56.928125" y="274.567026" style="stroke: #000000; stroke-width: 0.8"/>
      </g>
     </g>
     <g id="text_10">
      <!-- 2250 -->
      <g transform="translate(24.478125 278.366245) scale(0.1 -0.1)">
       <use xlink:href="#DejaVuSans-32"/>
       <use xlink:href="#DejaVuSans-32" x="63.623047"/>
       <use xlink:href="#DejaVuSans-35" x="127.246094"/>
       <use xlink:href="#DejaVuSans-30" x="190.869141"/>
      </g>
     </g>
    </g>
    <g id="ytick_2">
     <g id="line2d_10">
      <g>
       <use xlink:href="#m226c2512a1" x="56.928125" y="239.517247" style="stroke: #000000; stroke-width: 0.8"/>
      </g>
     </g>
     <g id="text_11">
      <!-- 2500 -->
      <g transform="translate(24.478125 243.316465) scale(0.1 -0.1)">
       <use xlink:href="#DejaVuSans-32"/>
       <use xlink:href="#DejaVuSans-35" x="63.623047"/>
       <use xlink:href="#DejaVuSans-30" x="127.246094"/>
       <use xlink:href="#DejaVuSans-30" x="190.869141"/>
      </g>
     </g>
    </g>
    <g id="ytick_3">
     <g id="line2d_11">
      <g>
       <use xlink:href="#m226c2512a1" x="56.928125" y="204.467467" style="stroke: #000000; stroke-width: 0.8"/>
      </g>
     </g>
     <g id="text_12">
      <!-- 2750 -->
      <g transform="translate(24.478125 208.266686) scale(0.1 -0.1)">
       <defs>
        <path id="DejaVuSans-37" d="M 525 4666 
L 3525 4666 
L 3525 4397 
L 1831 0 
L 1172 0 
L 2766 4134 
L 525 4134 
L 525 4666 
z
" transform="scale(0.015625)"/>
       </defs>
       <use xlink:href="#DejaVuSans-32"/>
       <use xlink:href="#DejaVuSans-37" x="63.623047"/>
       <use xlink:href="#DejaVuSans-35" x="127.246094"/>
       <use xlink:href="#DejaVuSans-30" x="190.869141"/>
      </g>
     </g>
    </g>
    <g id="ytick_4">
     <g id="line2d_12">
      <g>
       <use xlink:href="#m226c2512a1" x="56.928125" y="169.417688" style="stroke: #000000; stroke-width: 0.8"/>
      </g>
     </g>
     <g id="text_13">
      <!-- 3000 -->
      <g transform="translate(24.478125 173.216907) scale(0.1 -0.1)">
       <use xlink:href="#DejaVuSans-33"/>
       <use xlink:href="#DejaVuSans-30" x="63.623047"/>
       <use xlink:href="#DejaVuSans-30" x="127.246094"/>
       <use xlink:href="#DejaVuSans-30" x="190.869141"/>
      </g>
     </g>
    </g>
    <g id="ytick_5">
     <g id="line2d_13">
      <g>
       <use xlink:href="#m226c2512a1" x="56.928125" y="134.367909" style="stroke: #000000; stroke-width: 0.8"/>
      </g>
     </g>
     <g id="text_14">
      <!-- 3250 -->
      <g transform="translate(24.478125 138.167127) scale(0.1 -0.1)">
       <use xlink:href="#DejaVuSans-33"/>
       <use xlink:href="#DejaVuSans-32" x="63.623047"/>
       <use xlink:href="#DejaVuSans-35" x="127.246094"/>
       <use xlink:href="#DejaVuSans-30" x="190.869141"/>
      </g>
     </g>
    </g>
    <g id="ytick_6">
     <g id="line2d_14">
      <g>
       <use xlink:href="#m226c2512a1" x="56.928125" y="99.318129" style="stroke: #000000; stroke-width: 0.8"/>
      </g>
     </g>
     <g id="text_15">
      <!-- 3500 -->
      <g transform="translate(24.478125 103.117348) scale(0.1 -0.1)">
       <use xlink:href="#DejaVuSans-33"/>
       <use xlink:href="#DejaVuSans-35" x="63.623047"/>
       <use xlink:href="#DejaVuSans-30" x="127.246094"/>
       <use xlink:href="#DejaVuSans-30" x="190.869141"/>
      </g>
     </g>
    </g>
    <g id="ytick_7">
     <g id="line2d_15">
      <g>
       <use xlink:href="#m226c2512a1" x="56.928125" y="64.26835" style="stroke: #000000; stroke-width: 0.8"/>
      </g>
     </g>
     <g id="text_16">
      <!-- 3750 -->
      <g transform="translate(24.478125 68.067569) scale(0.1 -0.1)">
       <use xlink:href="#DejaVuSans-33"/>
       <use xlink:href="#DejaVuSans-37" x="63.623047"/>
       <use xlink:href="#DejaVuSans-35" x="127.246094"/>
       <use xlink:href="#DejaVuSans-30" x="190.869141"/>
      </g>
     </g>
    </g>
    <g id="ytick_8">
     <g id="line2d_16">
      <g>
       <use xlink:href="#m226c2512a1" x="56.928125" y="29.218571" style="stroke: #000000; stroke-width: 0.8"/>
      </g>
     </g>
     <g id="text_17">
      <!-- 4000 -->
      <g transform="translate(24.478125 33.017789) scale(0.1 -0.1)">
       <use xlink:href="#DejaVuSans-34"/>
       <use xlink:href="#DejaVuSans-30" x="63.623047"/>
       <use xlink:href="#DejaVuSans-30" x="127.246094"/>
       <use xlink:href="#DejaVuSans-30" x="190.869141"/>
      </g>
     </g>
    </g>
    <g id="text_18">
     <!-- N2O concentration (MtN2O) -->
     <g transform="translate(18.398438 227.320312) rotate(-90) scale(0.1 -0.1)">
      <defs>
       <path id="DejaVuSans-4e" d="M 628 4666 
L 1478 4666 
L 3547 763 
L 3547 4666 
L 4159 4666 
L 4159 0 
L 3309 0 
L 1241 3903 
L 1241 0 
L 628 0 
L 628 4666 
z
" transform="scale(0.015625)"/>
       <path id="DejaVuSans-4f" d="M 2522 4238 
Q 1834 4238 1429 3725 
Q 1025 3213 1025 2328 
Q 1025 1447 1429 934 
Q 1834 422 2522 422 
Q 3209 422 3611 934 
Q 4013 1447 4013 2328 
Q 4013 3213 3611 3725 
Q 3209 4238 2522 4238 
z
M 2522 4750 
Q 3503 4750 4090 4092 
Q 4678 3434 4678 2328 
Q 4678 1225 4090 567 
Q 3503 -91 2522 -91 
Q 1538 -91 948 565 
Q 359 1222 359 2328 
Q 359 3434 948 4092 
Q 1538 4750 2522 4750 
z
" transform="scale(0.015625)"/>
       <path id="DejaVuSans-20" transform="scale(0.015625)"/>
       <path id="DejaVuSans-63" d="M 3122 3366 
L 3122 2828 
Q 2878 2963 2633 3030 
Q 2388 3097 2138 3097 
Q 1578 3097 1268 2742 
Q 959 2388 959 1747 
Q 959 1106 1268 751 
Q 1578 397 2138 397 
Q 2388 397 2633 464 
Q 2878 531 3122 666 
L 3122 134 
Q 2881 22 2623 -34 
Q 2366 -91 2075 -91 
Q 1284 -91 818 406 
Q 353 903 353 1747 
Q 353 2603 823 3093 
Q 1294 3584 2113 3584 
Q 2378 3584 2631 3529 
Q 2884 3475 3122 3366 
z
" transform="scale(0.015625)"/>
       <path id="DejaVuSans-6f" d="M 1959 3097 
Q 1497 3097 1228 2736 
Q 959 2375 959 1747 
Q 959 1119 1226 758 
Q 1494 397 1959 397 
Q 2419 397 2687 759 
Q 2956 1122 2956 1747 
Q 2956 2369 2687 2733 
Q 2419 3097 1959 3097 
z
M 1959 3584 
Q 2709 3584 3137 3096 
Q 3566 2609 3566 1747 
Q 3566 888 3137 398 
Q 2709 -91 1959 -91 
Q 1206 -91 779 398 
Q 353 888 353 1747 
Q 353 2609 779 3096 
Q 1206 3584 1959 3584 
z
" transform="scale(0.015625)"/>
       <path id="DejaVuSans-6e" d="M 3513 2113 
L 3513 0 
L 2938 0 
L 2938 2094 
Q 2938 2591 2744 2837 
Q 2550 3084 2163 3084 
Q 1697 3084 1428 2787 
Q 1159 2491 1159 1978 
L 1159 0 
L 581 0 
L 581 3500 
L 1159 3500 
L 1159 2956 
Q 1366 3272 1645 3428 
Q 1925 3584 2291 3584 
Q 2894 3584 3203 3211 
Q 3513 2838 3513 2113 
z
" transform="scale(0.015625)"/>
       <path id="DejaVuSans-74" d="M 1172 4494 
L 1172 3500 
L 2356 3500 
L 2356 3053 
L 1172 3053 
L 1172 1153 
Q 1172 725 1289 603 
Q 1406 481 1766 481 
L 2356 481 
L 2356 0 
L 1766 0 
Q 1100 0 847 248 
Q 594 497 594 1153 
L 594 3053 
L 172 3053 
L 172 3500 
L 594 3500 
L 594 4494 
L 1172 4494 
z
" transform="scale(0.015625)"/>
       <path id="DejaVuSans-69" d="M 603 3500 
L 1178 3500 
L 1178 0 
L 603 0 
L 603 3500 
z
M 603 4863 
L 1178 4863 
L 1178 4134 
L 603 4134 
L 603 4863 
z
" transform="scale(0.015625)"/>
       <path id="DejaVuSans-28" d="M 1984 4856 
Q 1566 4138 1362 3434 
Q 1159 2731 1159 2009 
Q 1159 1288 1364 580 
Q 1569 -128 1984 -844 
L 1484 -844 
Q 1016 -109 783 600 
Q 550 1309 550 2009 
Q 550 2706 781 3412 
Q 1013 4119 1484 4856 
L 1984 4856 
z
" transform="scale(0.015625)"/>
       <path id="DejaVuSans-4d" d="M 628 4666 
L 1569 4666 
L 2759 1491 
L 3956 4666 
L 4897 4666 
L 4897 0 
L 4281 0 
L 4281 4097 
L 3078 897 
L 2444 897 
L 1241 4097 
L 1241 0 
L 628 0 
L 628 4666 
z
" transform="scale(0.015625)"/>
       <path id="DejaVuSans-29" d="M 513 4856 
L 1013 4856 
Q 1481 4119 1714 3412 
Q 1947 2706 1947 2009 
Q 1947 1309 1714 600 
Q 1481 -109 1013 -844 
L 513 -844 
Q 928 -128 1133 580 
Q 1338 1288 1338 2009 
Q 1338 2731 1133 3434 
Q 928 4138 513 4856 
z
" transform="scale(0.015625)"/>
      </defs>
      <use xlink:href="#DejaVuSans-4e"/>
      <use xlink:href="#DejaVuSans-32" x="74.804688"/>
      <use xlink:href="#DejaVuSans-4f" x="138.427734"/>
      <use xlink:href="#DejaVuSans-20" x="217.138672"/>
      <use xlink:href="#DejaVuSans-63" x="248.925781"/>
      <use xlink:href="#DejaVuSans-6f" x="303.90625"/>
      <use xlink:href="#DejaVuSans-6e" x="365.087891"/>
      <use xlink:href="#DejaVuSans-63" x="428.466797"/>
      <use xlink:href="#DejaVuSans-65" x="483.447266"/>
      <use xlink:href="#DejaVuSans-6e" x="544.970703"/>
      <use xlink:href="#DejaVuSans-74" x="608.349609"/>
      <use xlink:href="#DejaVuSans-72" x="647.558594"/>
      <use xlink:href="#DejaVuSans-61" x="688.671875"/>
      <use xlink:href="#DejaVuSans-74" x="749.951172"/>
      <use xlink:href="#DejaVuSans-69" x="789.160156"/>
      <use xlink:href="#DejaVuSans-6f" x="816.943359"/>
      <use xlink:href="#DejaVuSans-6e" x="878.125"/>
      <use xlink:href="#DejaVuSans-20" x="941.503906"/>
      <use xlink:href="#DejaVuSans-28" x="973.291016"/>
      <use xlink:href="#DejaVuSans-4d" x="1012.304688"/>
      <use xlink:href="#DejaVuSans-74" x="1098.583984"/>
      <use xlink:href="#DejaVuSans-4e" x="1137.792969"/>
      <use xlink:href="#DejaVuSans-32" x="1212.597656"/>
      <use xlink:href="#DejaVuSans-4f" x="1276.220703"/>
      <use xlink:href="#DejaVuSans-29" x="1354.931641"/>
     </g>
    </g>
   </g>
   <g id="line2d_17">
    <path d="M 74.795028 289.689347 
L 89.088551 288.840565 
L 95.282411 288.81863 
L 102.905623 289.121296 
L 106.717229 289.423961 
L 113.38754 290.067682 
L 114.816892 290.403248 
L 116.246244 290.77719 
L 117.675597 290.858343 
L 118.628498 291.096307 
L 120.534301 290.934015 
L 126.728161 289.65645 
L 133.874922 286.891869 
L 135.780725 286.24926 
L 138.63943 285.489296 
L 145.309741 283.879462 
L 146.739093 283.385984 
L 148.644896 282.188478 
L 150.074248 281.194943 
L 154.362305 277.900696 
L 154.838756 277.692336 
L 156.268108 277.435734 
L 156.744559 277.292069 
L 157.221009 276.966382 
L 158.173911 276.763496 
L 160.556165 276.449862 
L 161.509066 276.138426 
L 164.367771 275.075809 
L 165.797123 274.337779 
L 166.273574 274.037298 
L 166.750025 273.332199 
L 168.179377 272.623765 
L 171.038081 271.967979 
L 173.896786 270.052191 
L 174.849688 269.49182 
L 176.27904 268.346945 
L 178.184843 266.665831 
L 181.519998 263.381462 
L 183.425801 261.199192 
L 185.331604 258.630906 
L 186.760956 256.371873 
L 188.190309 253.765205 
L 188.666759 252.441607 
L 189.14321 251.507274 
L 190.096112 250.364594 
L 190.572563 249.954444 
L 191.049013 249.176966 
L 191.525464 248.66043 
L 192.478366 246.572492 
L 193.431267 244.899098 
L 193.907718 243.747641 
L 194.860619 242.275953 
L 196.289972 240.05093 
L 199.148676 234.536052 
L 200.101578 232.605994 
L 201.53093 229.143978 
L 205.342536 223.142187 
L 206.771888 221.397464 
L 208.201241 219.999273 
L 211.059945 217.791778 
L 214.871551 215.0601 
L 217.730256 213.262735 
L 221.541862 211.171487 
L 226.306369 208.843361 
L 232.500229 206.032724 
L 238.217638 203.408514 
L 246.793752 199.438752 
L 251.081809 197.755446 
L 255.846316 196.140123 
L 260.610824 194.77703 
L 265.375331 193.646409 
L 270.139839 192.732931 
L 275.380797 191.963103 
L 280.621756 191.423567 
L 285.862714 191.096775 
L 291.580123 190.965175 
L 297.297532 191.04852 
L 303.491392 191.359964 
L 309.685252 191.877569 
L 339.225199 194.757288 
L 353.518722 195.736563 
L 367.335794 196.487753 
L 384.488021 197.210424 
L 408.310559 197.925421 
L 432.133097 198.400255 
L 432.133097 198.400255 
" clip-path="url(#p2445d45ecb)" style="fill: none; stroke: #348abd; stroke-width: 1.5; stroke-linecap: square"/>
   </g>
   <g id="line2d_18">
    <path d="M 74.795028 289.689347 
L 89.088551 288.840565 
L 95.282411 288.81863 
L 102.905623 289.121296 
L 106.717229 289.423961 
L 113.38754 290.067682 
L 114.816892 290.403248 
L 116.246244 290.77719 
L 117.675597 290.858343 
L 118.628498 291.096307 
L 120.534301 290.934015 
L 126.728161 289.65645 
L 133.874922 286.891869 
L 135.780725 286.24926 
L 138.63943 285.489296 
L 145.309741 283.879462 
L 146.739093 283.385984 
L 148.644896 282.188478 
L 150.074248 281.194943 
L 154.362305 277.900696 
L 154.838756 277.692336 
L 156.268108 277.435734 
L 156.744559 277.292069 
L 157.221009 276.966382 
L 158.173911 276.763496 
L 160.556165 276.449862 
L 161.509066 276.138426 
L 164.367771 275.075809 
L 165.797123 274.337779 
L 166.273574 274.037298 
L 166.750025 273.332199 
L 168.179377 272.623765 
L 171.038081 271.967979 
L 173.896786 270.052191 
L 174.849688 269.49182 
L 176.27904 268.346945 
L 178.184843 266.665831 
L 181.519998 263.381462 
L 183.425801 261.199192 
L 185.331604 258.630906 
L 186.760956 256.371873 
L 188.190309 253.765205 
L 188.666759 252.441607 
L 189.14321 251.507274 
L 190.096112 250.364594 
L 190.572563 249.954444 
L 191.049013 249.176966 
L 191.525464 248.66043 
L 192.478366 246.572492 
L 193.431267 244.899098 
L 193.907718 243.747641 
L 194.860619 242.275953 
L 196.289972 240.05093 
L 199.148676 234.536052 
L 200.101578 232.605994 
L 201.53093 229.143983 
L 203.436733 225.862899 
L 207.72479 218.033041 
L 216.777354 201.108909 
L 220.112509 195.41965 
L 222.971214 190.982731 
L 225.353468 187.649005 
L 227.735722 184.69252 
L 229.641525 182.648421 
L 231.547328 180.946465 
L 233.453131 179.565824 
L 235.358934 178.434107 
L 237.264737 177.535976 
L 239.17054 176.857171 
L 241.076343 176.385621 
L 243.935047 175.972205 
L 249.176006 175.446918 
L 254.416964 175.15193 
L 259.657922 175.068583 
L 265.375331 175.197985 
L 271.569191 175.573027 
L 278.239502 176.221129 
L 285.386263 177.166415 
L 292.533025 178.339797 
L 300.156237 179.811463 
L 308.2559 181.591275 
L 325.408127 185.510589 
L 333.984241 187.122624 
L 343.513256 188.660079 
L 352.56582 189.910232 
L 363.524187 191.187787 
L 374.959006 192.29099 
L 387.346725 193.26808 
L 402.59315 194.216653 
L 420.221828 195.041309 
L 432.133097 195.462411 
L 432.133097 195.462411 
" clip-path="url(#p2445d45ecb)" style="fill: none; stroke: #188487; stroke-width: 1.5; stroke-linecap: square"/>
   </g>
   <g id="line2d_19">
    <path d="M 74.795028 289.689347 
L 89.088551 288.840565 
L 95.282411 288.81863 
L 102.905623 289.121296 
L 106.717229 289.423961 
L 113.38754 290.067682 
L 114.816892 290.403248 
L 116.246244 290.77719 
L 117.675597 290.858343 
L 118.628498 291.096307 
L 120.534301 290.934015 
L 126.728161 289.65645 
L 133.874922 286.891869 
L 135.780725 286.24926 
L 138.63943 285.489296 
L 145.309741 283.879462 
L 146.739093 283.385984 
L 148.644896 282.188478 
L 150.074248 281.194943 
L 154.362305 277.900696 
L 154.838756 277.692336 
L 156.268108 277.435734 
L 156.744559 277.292069 
L 157.221009 276.966382 
L 158.173911 276.763496 
L 160.556165 276.449862 
L 161.509066 276.138426 
L 164.367771 275.075809 
L 165.797123 274.337779 
L 166.273574 274.037298 
L 166.750025 273.332199 
L 168.179377 272.623765 
L 171.038081 271.967979 
L 173.896786 270.052191 
L 174.849688 269.49182 
L 176.27904 268.346945 
L 178.184843 266.665831 
L 181.519998 263.381462 
L 183.425801 261.199192 
L 185.331604 258.630906 
L 186.760956 256.371873 
L 188.190309 253.765205 
L 188.666759 252.441607 
L 189.14321 251.507274 
L 190.096112 250.364594 
L 190.572563 249.954444 
L 191.049013 249.176966 
L 191.525464 248.66043 
L 192.478366 246.572492 
L 193.431267 244.899098 
L 193.907718 243.747641 
L 194.860619 242.275953 
L 196.289972 240.05093 
L 199.148676 234.536052 
L 200.101578 232.605994 
L 201.53093 229.143983 
L 202.960282 226.643693 
L 205.342536 222.042282 
L 208.201241 216.030618 
L 211.536396 208.456263 
L 215.348002 199.262215 
L 220.112509 187.156628 
L 225.829919 171.98052 
L 232.023778 154.910543 
L 238.217638 137.22317 
L 246.317301 113.895884 
L 249.652456 105.279747 
L 252.987612 97.33035 
L 256.322767 90.010416 
L 259.657922 83.282655 
L 262.993078 77.11527 
L 266.328233 71.476453 
L 269.663388 66.334405 
L 272.998544 61.662801 
L 275.857248 58.013255 
L 278.715953 54.671856 
L 281.574657 51.624347 
L 284.433362 48.857582 
L 287.292066 46.356195 
L 290.627222 43.756108 
L 293.962377 41.480624 
L 296.821081 39.77318 
L 300.156237 38.050395 
L 303.491392 36.599567 
L 306.826547 35.407541 
L 310.161703 34.455672 
L 313.496858 33.733003 
L 322.072972 32.26134 
L 330.649085 30.982681 
L 340.654551 29.706212 
L 351.612919 28.530649 
L 364.000638 27.436197 
L 378.770612 26.392236 
L 394.493487 25.523706 
L 412.598616 24.758268 
L 432.133097 24.147443 
L 432.133097 24.147443 
" clip-path="url(#p2445d45ecb)" style="fill: none; stroke: #e24a33; stroke-width: 1.5; stroke-linecap: square"/>
   </g>
   <g id="line2d_20">
    <path d="M 74.795028 289.689347 
L 89.088551 288.840565 
L 95.282411 288.81863 
L 102.905623 289.121296 
L 106.717229 289.423961 
L 113.38754 290.067682 
L 114.816892 290.403248 
L 116.246244 290.77719 
L 117.675597 290.858343 
L 118.628498 291.096307 
L 120.534301 290.934015 
L 126.728161 289.65645 
L 133.874922 286.891869 
L 135.780725 286.24926 
L 138.63943 285.489296 
L 145.309741 283.879462 
L 146.739093 283.385984 
L 148.644896 282.188478 
L 150.074248 281.194943 
L 154.362305 277.900696 
L 154.838756 277.692336 
L 156.268108 277.435734 
L 156.744559 277.292069 
L 157.221009 276.966382 
L 158.173911 276.763496 
L 160.556165 276.449862 
L 161.509066 276.138426 
L 164.367771 275.075809 
L 165.797123 274.337779 
L 166.273574 274.037298 
L 166.750025 273.332199 
L 168.179377 272.623765 
L 171.038081 271.967979 
L 173.896786 270.052191 
L 174.849688 269.49182 
L 176.27904 268.346945 
L 178.184843 266.665831 
L 181.519998 263.381462 
L 183.425801 261.199192 
L 185.331604 258.630906 
L 186.760956 256.371873 
L 188.190309 253.765205 
L 188.666759 252.441607 
L 189.14321 251.507274 
L 190.096112 250.364594 
L 190.572563 249.954444 
L 191.049013 249.176966 
L 191.525464 248.66043 
L 192.478366 246.572492 
L 193.431267 244.899098 
L 193.907718 243.747641 
L 194.860619 242.275953 
L 196.289972 240.05093 
L 199.148676 234.536052 
L 200.101578 232.605994 
L 201.53093 229.143986 
L 203.913184 225.097456 
L 206.295438 220.743881 
L 208.677691 215.86283 
L 213.442199 205.318835 
L 224.877017 179.65685 
L 230.117975 168.533843 
L 234.882483 158.991061 
L 241.076343 147.104802 
L 244.887949 140.129207 
L 248.223104 134.515607 
L 251.558259 129.343949 
L 254.893415 124.591205 
L 258.22857 120.235433 
L 261.563725 116.255801 
L 264.898881 112.630381 
L 268.234036 109.339419 
L 271.569191 106.367584 
L 274.904347 103.694022 
L 278.239502 101.305587 
L 281.574657 99.183634 
L 284.909813 97.316085 
L 288.244968 95.686509 
L 291.580123 94.282835 
L 295.391729 92.940577 
L 298.726884 91.978849 
L 302.538491 91.111408 
L 306.350097 90.47428 
L 310.161703 90.05318 
L 314.449759 89.813013 
L 337.795847 89.061832 
L 361.141934 88.52668 
L 386.870275 88.103383 
L 427.84504 87.648288 
L 432.133097 87.613199 
L 432.133097 87.613199 
" clip-path="url(#p2445d45ecb)" style="fill: none; stroke: #7a68a6; stroke-width: 1.5; stroke-linecap: square"/>
   </g>
   <g id="line2d_21">
    <path d="M 74.795028 289.689347 
L 89.088551 288.840565 
L 95.282411 288.81863 
L 102.905623 289.121296 
L 106.717229 289.423961 
L 113.38754 290.067682 
L 114.816892 290.403248 
L 116.246244 290.77719 
L 117.675597 290.858343 
L 118.628498 291.096307 
L 120.534301 290.934015 
L 126.728161 289.65645 
L 133.874922 286.891869 
L 135.780725 286.24926 
L 138.63943 285.489296 
L 145.309741 283.879462 
L 146.739093 283.385984 
L 148.644896 282.188478 
L 150.074248 281.194943 
L 154.362305 277.900696 
L 154.838756 277.692336 
L 156.268108 277.435734 
L 156.744559 277.292069 
L 157.221009 276.966382 
L 158.173911 276.763496 
L 160.556165 276.449862 
L 161.509066 276.138426 
L 164.367771 275.075809 
L 165.797123 274.337779 
L 166.273574 274.037298 
L 166.750025 273.332199 
L 168.179377 272.623765 
L 171.038081 271.967979 
L 173.896786 270.052191 
L 174.849688 269.49182 
L 176.27904 268.346945 
L 178.184843 266.665831 
L 181.519998 263.381462 
L 183.425801 261.199192 
L 185.331604 258.630906 
L 186.760956 256.371873 
L 188.190309 253.765205 
L 188.666759 252.441607 
L 189.14321 251.507274 
L 190.096112 250.364594 
L 190.572563 249.954444 
L 191.049013 249.176966 
L 191.525464 248.66043 
L 192.478366 246.572492 
L 193.431267 244.899098 
L 193.907718 243.747641 
L 194.860619 242.275953 
L 196.289972 240.05093 
L 199.148676 234.536052 
L 200.101578 232.605994 
L 201.53093 229.143981 
L 202.960282 226.649178 
L 206.295438 220.255889 
L 211.059945 210.629762 
L 217.253805 198.105268 
L 221.541862 190.221674 
L 225.829919 182.705447 
L 229.641525 176.486519 
L 233.453131 170.664569 
L 236.311835 166.663006 
L 239.17054 163.039772 
L 241.552794 160.360731 
L 244.887949 157.024815 
L 248.223104 154.011301 
L 251.558259 151.296074 
L 254.893415 148.861581 
L 258.22857 146.690271 
L 261.563725 144.766803 
L 264.898881 143.073624 
L 268.234036 141.596478 
L 272.045642 140.157712 
L 275.857248 138.964593 
L 279.668854 138.000653 
L 283.48046 137.248381 
L 287.768517 136.638658 
L 292.056574 136.257033 
L 296.821081 136.081572 
L 301.585589 136.142985 
L 306.350097 136.42153 
L 311.591055 136.953383 
L 331.601987 139.331954 
L 343.989706 140.450507 
L 357.330328 141.41882 
L 372.100301 142.26212 
L 388.299627 142.971639 
L 409.26346 143.636188 
L 428.797941 144.06825 
L 432.133097 144.124175 
L 432.133097 144.124175 
" clip-path="url(#p2445d45ecb)" style="fill: none; stroke: #a60628; stroke-width: 1.5; stroke-linecap: square"/>
   </g>
   <g id="patch_2">
    <path d="M 56.928125 304.44375 
L 56.928125 10.8 
" style="fill: none; stroke: #000000; stroke-width: 0.8; stroke-linejoin: miter; stroke-linecap: square"/>
   </g>
   <g id="patch_3">
    <path d="M 450 304.44375 
L 450 10.8 
" style="fill: none; stroke: #000000; stroke-width: 0.8; stroke-linejoin: miter; stroke-linecap: square"/>
   </g>
   <g id="patch_4">
    <path d="M 56.928125 304.44375 
L 450 304.44375 
" style="fill: none; stroke: #000000; stroke-width: 0.8; stroke-linejoin: miter; stroke-linecap: square"/>
   </g>
   <g id="patch_5">
    <path d="M 56.928125 10.8 
L 450 10.8 
" style="fill: none; stroke: #000000; stroke-width: 0.8; stroke-linejoin: miter; stroke-linecap: square"/>
   </g>
   <g id="legend_1">
    <g id="patch_6">
     <path d="M 63.928125 92.190625 
L 131.782813 92.190625 
Q 133.782813 92.190625 133.782813 90.190625 
L 133.782813 17.8 
Q 133.782813 15.8 131.782813 15.8 
L 63.928125 15.8 
Q 61.928125 15.8 61.928125 17.8 
L 61.928125 90.190625 
Q 61.928125 92.190625 63.928125 92.190625 
z
" style="fill: #ffffff; opacity: 0.8; stroke: #cccccc; stroke-linejoin: miter"/>
    </g>
    <g id="line2d_22">
     <path d="M 65.928125 23.898438 
L 75.928125 23.898438 
L 85.928125 23.898438 
" style="fill: none; stroke: #348abd; stroke-width: 1.5; stroke-linecap: square"/>
    </g>
    <g id="text_19">
     <!-- ssp119 -->
     <g transform="translate(93.928125 27.398438) scale(0.1 -0.1)">
      <defs>
       <path id="DejaVuSans-73" d="M 2834 3397 
L 2834 2853 
Q 2591 2978 2328 3040 
Q 2066 3103 1784 3103 
Q 1356 3103 1142 2972 
Q 928 2841 928 2578 
Q 928 2378 1081 2264 
Q 1234 2150 1697 2047 
L 1894 2003 
Q 2506 1872 2764 1633 
Q 3022 1394 3022 966 
Q 3022 478 2636 193 
Q 2250 -91 1575 -91 
Q 1294 -91 989 -36 
Q 684 19 347 128 
L 347 722 
Q 666 556 975 473 
Q 1284 391 1588 391 
Q 1994 391 2212 530 
Q 2431 669 2431 922 
Q 2431 1156 2273 1281 
Q 2116 1406 1581 1522 
L 1381 1569 
Q 847 1681 609 1914 
Q 372 2147 372 2553 
Q 372 3047 722 3315 
Q 1072 3584 1716 3584 
Q 2034 3584 2315 3537 
Q 2597 3491 2834 3397 
z
" transform="scale(0.015625)"/>
       <path id="DejaVuSans-70" d="M 1159 525 
L 1159 -1331 
L 581 -1331 
L 581 3500 
L 1159 3500 
L 1159 2969 
Q 1341 3281 1617 3432 
Q 1894 3584 2278 3584 
Q 2916 3584 3314 3078 
Q 3713 2572 3713 1747 
Q 3713 922 3314 415 
Q 2916 -91 2278 -91 
Q 1894 -91 1617 61 
Q 1341 213 1159 525 
z
M 3116 1747 
Q 3116 2381 2855 2742 
Q 2594 3103 2138 3103 
Q 1681 3103 1420 2742 
Q 1159 2381 1159 1747 
Q 1159 1113 1420 752 
Q 1681 391 2138 391 
Q 2594 391 2855 752 
Q 3116 1113 3116 1747 
z
" transform="scale(0.015625)"/>
      </defs>
      <use xlink:href="#DejaVuSans-73"/>
      <use xlink:href="#DejaVuSans-73" x="52.099609"/>
      <use xlink:href="#DejaVuSans-70" x="104.199219"/>
      <use xlink:href="#DejaVuSans-31" x="167.675781"/>
      <use xlink:href="#DejaVuSans-31" x="231.298828"/>
      <use xlink:href="#DejaVuSans-39" x="294.921875"/>
     </g>
    </g>
    <g id="line2d_23">
     <path d="M 65.928125 38.576563 
L 75.928125 38.576563 
L 85.928125 38.576563 
" style="fill: none; stroke: #188487; stroke-width: 1.5; stroke-linecap: square"/>
    </g>
    <g id="text_20">
     <!-- ssp245 -->
     <g transform="translate(93.928125 42.076563) scale(0.1 -0.1)">
      <use xlink:href="#DejaVuSans-73"/>
      <use xlink:href="#DejaVuSans-73" x="52.099609"/>
      <use xlink:href="#DejaVuSans-70" x="104.199219"/>
      <use xlink:href="#DejaVuSans-32" x="167.675781"/>
      <use xlink:href="#DejaVuSans-34" x="231.298828"/>
      <use xlink:href="#DejaVuSans-35" x="294.921875"/>
     </g>
    </g>
    <g id="line2d_24">
     <path d="M 65.928125 53.254688 
L 75.928125 53.254688 
L 85.928125 53.254688 
" style="fill: none; stroke: #e24a33; stroke-width: 1.5; stroke-linecap: square"/>
    </g>
    <g id="text_21">
     <!-- ssp370 -->
     <g transform="translate(93.928125 56.754688) scale(0.1 -0.1)">
      <use xlink:href="#DejaVuSans-73"/>
      <use xlink:href="#DejaVuSans-73" x="52.099609"/>
      <use xlink:href="#DejaVuSans-70" x="104.199219"/>
      <use xlink:href="#DejaVuSans-33" x="167.675781"/>
      <use xlink:href="#DejaVuSans-37" x="231.298828"/>
      <use xlink:href="#DejaVuSans-30" x="294.921875"/>
     </g>
    </g>
    <g id="line2d_25">
     <path d="M 65.928125 67.932813 
L 75.928125 67.932813 
L 85.928125 67.932813 
" style="fill: none; stroke: #7a68a6; stroke-width: 1.5; stroke-linecap: square"/>
    </g>
    <g id="text_22">
     <!-- ssp460 -->
     <g transform="translate(93.928125 71.432813) scale(0.1 -0.1)">
      <defs>
       <path id="DejaVuSans-36" d="M 2113 2584 
Q 1688 2584 1439 2293 
Q 1191 2003 1191 1497 
Q 1191 994 1439 701 
Q 1688 409 2113 409 
Q 2538 409 2786 701 
Q 3034 994 3034 1497 
Q 3034 2003 2786 2293 
Q 2538 2584 2113 2584 
z
M 3366 4563 
L 3366 3988 
Q 3128 4100 2886 4159 
Q 2644 4219 2406 4219 
Q 1781 4219 1451 3797 
Q 1122 3375 1075 2522 
Q 1259 2794 1537 2939 
Q 1816 3084 2150 3084 
Q 2853 3084 3261 2657 
Q 3669 2231 3669 1497 
Q 3669 778 3244 343 
Q 2819 -91 2113 -91 
Q 1303 -91 875 529 
Q 447 1150 447 2328 
Q 447 3434 972 4092 
Q 1497 4750 2381 4750 
Q 2619 4750 2861 4703 
Q 3103 4656 3366 4563 
z
" transform="scale(0.015625)"/>
      </defs>
      <use xlink:href="#DejaVuSans-73"/>
      <use xlink:href="#DejaVuSans-73" x="52.099609"/>
      <use xlink:href="#DejaVuSans-70" x="104.199219"/>
      <use xlink:href="#DejaVuSans-34" x="167.675781"/>
      <use xlink:href="#DejaVuSans-36" x="231.298828"/>
      <use xlink:href="#DejaVuSans-30" x="294.921875"/>
     </g>
    </g>
    <g id="line2d_26">
     <path d="M 65.928125 82.610938 
L 75.928125 82.610938 
L 85.928125 82.610938 
" style="fill: none; stroke: #a60628; stroke-width: 1.5; stroke-linecap: square"/>
    </g>
    <g id="text_23">
     <!-- ssp585 -->
     <g transform="translate(93.928125 86.110938) scale(0.1 -0.1)">
      <use xlink:href="#DejaVuSans-73"/>
      <use xlink:href="#DejaVuSans-73" x="52.099609"/>
      <use xlink:href="#DejaVuSans-70" x="104.199219"/>
      <use xlink:href="#DejaVuSans-35" x="167.675781"/>
      <use xlink:href="#DejaVuSans-38" x="231.298828"/>
      <use xlink:href="#DejaVuSans-35" x="294.921875"/>
     </g>
    </g>
   </g>
  </g>
 </g>
 <defs>
  <clipPath id="p2445d45ecb">
   <rect x="56.928125" y="10.8" width="393.071875" height="293.64375"/>
  </clipPath>
 </defs>
</svg>
