<?xml version="1.0" encoding="utf-8" standalone="no"?>
<!DOCTYPE svg PUBLIC "-//W3C//DTD SVG 1.1//EN"
  "http://www.w3.org/Graphics/SVG/1.1/DTD/svg11.dtd">
<svg xmlns:xlink="http://www.w3.org/1999/xlink" width="460.8pt" height="345.6pt" viewBox="0 0 460.8 345.6" xmlns="http://www.w3.org/2000/svg" version="1.1">
 <metadata>
  <rdf:RDF xmlns:dc="http://purl.org/dc/elements/1.1/" xmlns:cc="http://creativecommons.org/ns#" xmlns:rdf="http://www.w3.org/1999/02/22-rdf-syntax-ns#">
   <cc:Work>
    <dc:type rdf:resource="http://purl.org/dc/dcmitype/StillImage"/>
    <dc:date>2024-10-08T17:06:05.041863</dc:date>
    <dc:format>image/svg+xml</dc:format>
    <dc:creator>
     <cc:Agent>
      <dc:title>Matplotlib v3.9.0, https://matplotlib.org/</dc:title>
     </cc:Agent>
    </dc:creator>
   </cc:Work>
  </rdf:RDF>
 </metadata>
 <defs>
  <style type="text/css">*{stroke-linejoin: round; stroke-linecap: butt}</style>
 </defs>
 <g id="figure_1">
  <g id="axes_1">
   <g id="patch_1">
    <path d="M 44.203125 304.44375 
L 450 304.44375 
L 450 13.539018 
L 44.203125 13.539018 
L 44.203125 304.44375 
z
" style="fill: none"/>
   </g>
   <g id="matplotlib.axis_1">
    <g id="xtick_1">
     <g id="line2d_1">
      <defs>
       <path id="m0fd28ca7e2" d="M 0 0 
L 0 3.5 
" style="stroke: #000000; stroke-width: 0.8"/>
      </defs>
      <g>
       <use xlink:href="#m0fd28ca7e2" x="87.242187" y="304.44375" style="stroke: #000000; stroke-width: 0.8"/>
      </g>
     </g>
     <g id="text_1">
      <!-- 1800 -->
      <g transform="translate(74.517187 319.042187) scale(0.1 -0.1)">
       <defs>
        <path id="DejaVuSans-31" d="M 794 531 
L 1825 531 
L 1825 4091 
L 703 3866 
L 703 4441 
L 1819 4666 
L 2450 4666 
L 2450 531 
L 3481 531 
L 3481 0 
L 794 0 
L 794 531 
z
" transform="scale(0.015625)"/>
        <path id="DejaVuSans-38" d="M 2034 2216 
Q 1584 2216 1326 1975 
Q 1069 1734 1069 1313 
Q 1069 891 1326 650 
Q 1584 409 2034 409 
Q 2484 409 2743 651 
Q 3003 894 3003 1313 
Q 3003 1734 2745 1975 
Q 2488 2216 2034 2216 
z
M 1403 2484 
Q 997 2584 770 2862 
Q 544 3141 544 3541 
Q 544 4100 942 4425 
Q 1341 4750 2034 4750 
Q 2731 4750 3128 4425 
Q 3525 4100 3525 3541 
Q 3525 3141 3298 2862 
Q 3072 2584 2669 2484 
Q 3125 2378 3379 2068 
Q 3634 1759 3634 1313 
Q 3634 634 3220 271 
Q 2806 -91 2034 -91 
Q 1263 -91 848 271 
Q 434 634 434 1313 
Q 434 1759 690 2068 
Q 947 2378 1403 2484 
z
M 1172 3481 
Q 1172 3119 1398 2916 
Q 1625 2713 2034 2713 
Q 2441 2713 2670 2916 
Q 2900 3119 2900 3481 
Q 2900 3844 2670 4047 
Q 2441 4250 2034 4250 
Q 1625 4250 1398 4047 
Q 1172 3844 1172 3481 
z
" transform="scale(0.015625)"/>
        <path id="DejaVuSans-30" d="M 2034 4250 
Q 1547 4250 1301 3770 
Q 1056 3291 1056 2328 
Q 1056 1369 1301 889 
Q 1547 409 2034 409 
Q 2525 409 2770 889 
Q 3016 1369 3016 2328 
Q 3016 3291 2770 3770 
Q 2525 4250 2034 4250 
z
M 2034 4750 
Q 2819 4750 3233 4129 
Q 3647 3509 3647 2328 
Q 3647 1150 3233 529 
Q 2819 -91 2034 -91 
Q 1250 -91 836 529 
Q 422 1150 422 2328 
Q 422 3509 836 4129 
Q 1250 4750 2034 4750 
z
" transform="scale(0.015625)"/>
       </defs>
       <use xlink:href="#DejaVuSans-31"/>
       <use xlink:href="#DejaVuSans-38" x="63.623047"/>
       <use xlink:href="#DejaVuSans-30" x="127.246094"/>
       <use xlink:href="#DejaVuSans-30" x="190.869141"/>
      </g>
     </g>
    </g>
    <g id="xtick_2">
     <g id="line2d_2">
      <g>
       <use xlink:href="#m0fd28ca7e2" x="136.429687" y="304.44375" style="stroke: #000000; stroke-width: 0.8"/>
      </g>
     </g>
     <g id="text_2">
      <!-- 1900 -->
      <g transform="translate(123.704687 319.042187) scale(0.1 -0.1)">
       <defs>
        <path id="DejaVuSans-39" d="M 703 97 
L 703 672 
Q 941 559 1184 500 
Q 1428 441 1663 441 
Q 2288 441 2617 861 
Q 2947 1281 2994 2138 
Q 2813 1869 2534 1725 
Q 2256 1581 1919 1581 
Q 1219 1581 811 2004 
Q 403 2428 403 3163 
Q 403 3881 828 4315 
Q 1253 4750 1959 4750 
Q 2769 4750 3195 4129 
Q 3622 3509 3622 2328 
Q 3622 1225 3098 567 
Q 2575 -91 1691 -91 
Q 1453 -91 1209 -44 
Q 966 3 703 97 
z
M 1959 2075 
Q 2384 2075 2632 2365 
Q 2881 2656 2881 3163 
Q 2881 3666 2632 3958 
Q 2384 4250 1959 4250 
Q 1534 4250 1286 3958 
Q 1038 3666 1038 3163 
Q 1038 2656 1286 2365 
Q 1534 2075 1959 2075 
z
" transform="scale(0.015625)"/>
       </defs>
       <use xlink:href="#DejaVuSans-31"/>
       <use xlink:href="#DejaVuSans-39" x="63.623047"/>
       <use xlink:href="#DejaVuSans-30" x="127.246094"/>
       <use xlink:href="#DejaVuSans-30" x="190.869141"/>
      </g>
     </g>
    </g>
    <g id="xtick_3">
     <g id="line2d_3">
      <g>
       <use xlink:href="#m0fd28ca7e2" x="185.617187" y="304.44375" style="stroke: #000000; stroke-width: 0.8"/>
      </g>
     </g>
     <g id="text_3">
      <!-- 2000 -->
      <g transform="translate(172.892187 319.042187) scale(0.1 -0.1)">
       <defs>
        <path id="DejaVuSans-32" d="M 1228 531 
L 3431 531 
L 3431 0 
L 469 0 
L 469 531 
Q 828 903 1448 1529 
Q 2069 2156 2228 2338 
Q 2531 2678 2651 2914 
Q 2772 3150 2772 3378 
Q 2772 3750 2511 3984 
Q 2250 4219 1831 4219 
Q 1534 4219 1204 4116 
Q 875 4013 500 3803 
L 500 4441 
Q 881 4594 1212 4672 
Q 1544 4750 1819 4750 
Q 2544 4750 2975 4387 
Q 3406 4025 3406 3419 
Q 3406 3131 3298 2873 
Q 3191 2616 2906 2266 
Q 2828 2175 2409 1742 
Q 1991 1309 1228 531 
z
" transform="scale(0.015625)"/>
       </defs>
       <use xlink:href="#DejaVuSans-32"/>
       <use xlink:href="#DejaVuSans-30" x="63.623047"/>
       <use xlink:href="#DejaVuSans-30" x="127.246094"/>
       <use xlink:href="#DejaVuSans-30" x="190.869141"/>
      </g>
     </g>
    </g>
    <g id="xtick_4">
     <g id="line2d_4">
      <g>
       <use xlink:href="#m0fd28ca7e2" x="234.804688" y="304.44375" style="stroke: #000000; stroke-width: 0.8"/>
      </g>
     </g>
     <g id="text_4">
      <!-- 2100 -->
      <g transform="translate(222.079688 319.042187) scale(0.1 -0.1)">
       <use xlink:href="#DejaVuSans-32"/>
       <use xlink:href="#DejaVuSans-31" x="63.623047"/>
       <use xlink:href="#DejaVuSans-30" x="127.246094"/>
       <use xlink:href="#DejaVuSans-30" x="190.869141"/>
      </g>
     </g>
    </g>
    <g id="xtick_5">
     <g id="line2d_5">
      <g>
       <use xlink:href="#m0fd28ca7e2" x="283.992187" y="304.44375" style="stroke: #000000; stroke-width: 0.8"/>
      </g>
     </g>
     <g id="text_5">
      <!-- 2200 -->
      <g transform="translate(271.267187 319.042187) scale(0.1 -0.1)">
       <use xlink:href="#DejaVuSans-32"/>
       <use xlink:href="#DejaVuSans-32" x="63.623047"/>
       <use xlink:href="#DejaVuSans-30" x="127.246094"/>
       <use xlink:href="#DejaVuSans-30" x="190.869141"/>
      </g>
     </g>
    </g>
    <g id="xtick_6">
     <g id="line2d_6">
      <g>
       <use xlink:href="#m0fd28ca7e2" x="333.179687" y="304.44375" style="stroke: #000000; stroke-width: 0.8"/>
      </g>
     </g>
     <g id="text_6">
      <!-- 2300 -->
      <g transform="translate(320.454687 319.042187) scale(0.1 -0.1)">
       <defs>
        <path id="DejaVuSans-33" d="M 2597 2516 
Q 3050 2419 3304 2112 
Q 3559 1806 3559 1356 
Q 3559 666 3084 287 
Q 2609 -91 1734 -91 
Q 1441 -91 1130 -33 
Q 819 25 488 141 
L 488 750 
Q 750 597 1062 519 
Q 1375 441 1716 441 
Q 2309 441 2620 675 
Q 2931 909 2931 1356 
Q 2931 1769 2642 2001 
Q 2353 2234 1838 2234 
L 1294 2234 
L 1294 2753 
L 1863 2753 
Q 2328 2753 2575 2939 
Q 2822 3125 2822 3475 
Q 2822 3834 2567 4026 
Q 2313 4219 1838 4219 
Q 1578 4219 1281 4162 
Q 984 4106 628 3988 
L 628 4550 
Q 988 4650 1302 4700 
Q 1616 4750 1894 4750 
Q 2613 4750 3031 4423 
Q 3450 4097 3450 3541 
Q 3450 3153 3228 2886 
Q 3006 2619 2597 2516 
z
" transform="scale(0.015625)"/>
       </defs>
       <use xlink:href="#DejaVuSans-32"/>
       <use xlink:href="#DejaVuSans-33" x="63.623047"/>
       <use xlink:href="#DejaVuSans-30" x="127.246094"/>
       <use xlink:href="#DejaVuSans-30" x="190.869141"/>
      </g>
     </g>
    </g>
    <g id="xtick_7">
     <g id="line2d_7">
      <g>
       <use xlink:href="#m0fd28ca7e2" x="382.367187" y="304.44375" style="stroke: #000000; stroke-width: 0.8"/>
      </g>
     </g>
     <g id="text_7">
      <!-- 2400 -->
      <g transform="translate(369.642187 319.042187) scale(0.1 -0.1)">
       <defs>
        <path id="DejaVuSans-34" d="M 2419 4116 
L 825 1625 
L 2419 1625 
L 2419 4116 
z
M 2253 4666 
L 3047 4666 
L 3047 1625 
L 3713 1625 
L 3713 1100 
L 3047 1100 
L 3047 0 
L 2419 0 
L 2419 1100 
L 313 1100 
L 313 1709 
L 2253 4666 
z
" transform="scale(0.015625)"/>
       </defs>
       <use xlink:href="#DejaVuSans-32"/>
       <use xlink:href="#DejaVuSans-34" x="63.623047"/>
       <use xlink:href="#DejaVuSans-30" x="127.246094"/>
       <use xlink:href="#DejaVuSans-30" x="190.869141"/>
      </g>
     </g>
    </g>
    <g id="xtick_8">
     <g id="line2d_8">
      <g>
       <use xlink:href="#m0fd28ca7e2" x="431.554687" y="304.44375" style="stroke: #000000; stroke-width: 0.8"/>
      </g>
     </g>
     <g id="text_8">
      <!-- 2500 -->
      <g transform="translate(418.829687 319.042187) scale(0.1 -0.1)">
       <defs>
        <path id="DejaVuSans-35" d="M 691 4666 
L 3169 4666 
L 3169 4134 
L 1269 4134 
L 1269 2991 
Q 1406 3038 1543 3061 
Q 1681 3084 1819 3084 
Q 2600 3084 3056 2656 
Q 3513 2228 3513 1497 
Q 3513 744 3044 326 
Q 2575 -91 1722 -91 
Q 1428 -91 1123 -41 
Q 819 9 494 109 
L 494 744 
Q 775 591 1075 516 
Q 1375 441 1709 441 
Q 2250 441 2565 725 
Q 2881 1009 2881 1497 
Q 2881 1984 2565 2268 
Q 2250 2553 1709 2553 
Q 1456 2553 1204 2497 
Q 953 2441 691 2322 
L 691 4666 
z
" transform="scale(0.015625)"/>
       </defs>
       <use xlink:href="#DejaVuSans-32"/>
       <use xlink:href="#DejaVuSans-35" x="63.623047"/>
       <use xlink:href="#DejaVuSans-30" x="127.246094"/>
       <use xlink:href="#DejaVuSans-30" x="190.869141"/>
      </g>
     </g>
    </g>
    <g id="text_9">
     <!-- Year -->
     <g transform="translate(236.514062 332.720312) scale(0.1 -0.1)">
      <defs>
       <path id="DejaVuSans-59" d="M -13 4666 
L 666 4666 
L 1959 2747 
L 3244 4666 
L 3922 4666 
L 2272 2222 
L 2272 0 
L 1638 0 
L 1638 2222 
L -13 4666 
z
" transform="scale(0.015625)"/>
       <path id="DejaVuSans-65" d="M 3597 1894 
L 3597 1613 
L 953 1613 
Q 991 1019 1311 708 
Q 1631 397 2203 397 
Q 2534 397 2845 478 
Q 3156 559 3463 722 
L 3463 178 
Q 3153 47 2828 -22 
Q 2503 -91 2169 -91 
Q 1331 -91 842 396 
Q 353 884 353 1716 
Q 353 2575 817 3079 
Q 1281 3584 2069 3584 
Q 2775 3584 3186 3129 
Q 3597 2675 3597 1894 
z
M 3022 2063 
Q 3016 2534 2758 2815 
Q 2500 3097 2075 3097 
Q 1594 3097 1305 2825 
Q 1016 2553 972 2059 
L 3022 2063 
z
" transform="scale(0.015625)"/>
       <path id="DejaVuSans-61" d="M 2194 1759 
Q 1497 1759 1228 1600 
Q 959 1441 959 1056 
Q 959 750 1161 570 
Q 1363 391 1709 391 
Q 2188 391 2477 730 
Q 2766 1069 2766 1631 
L 2766 1759 
L 2194 1759 
z
M 3341 1997 
L 3341 0 
L 2766 0 
L 2766 531 
Q 2569 213 2275 61 
Q 1981 -91 1556 -91 
Q 1019 -91 701 211 
Q 384 513 384 1019 
Q 384 1609 779 1909 
Q 1175 2209 1959 2209 
L 2766 2209 
L 2766 2266 
Q 2766 2663 2505 2880 
Q 2244 3097 1772 3097 
Q 1472 3097 1187 3025 
Q 903 2953 641 2809 
L 641 3341 
Q 956 3463 1253 3523 
Q 1550 3584 1831 3584 
Q 2591 3584 2966 3190 
Q 3341 2797 3341 1997 
z
" transform="scale(0.015625)"/>
       <path id="DejaVuSans-72" d="M 2631 2963 
Q 2534 3019 2420 3045 
Q 2306 3072 2169 3072 
Q 1681 3072 1420 2755 
Q 1159 2438 1159 1844 
L 1159 0 
L 581 0 
L 581 3500 
L 1159 3500 
L 1159 2956 
Q 1341 3275 1631 3429 
Q 1922 3584 2338 3584 
Q 2397 3584 2469 3576 
Q 2541 3569 2628 3553 
L 2631 2963 
z
" transform="scale(0.015625)"/>
      </defs>
      <use xlink:href="#DejaVuSans-59"/>
      <use xlink:href="#DejaVuSans-65" x="47.833984"/>
      <use xlink:href="#DejaVuSans-61" x="109.357422"/>
      <use xlink:href="#DejaVuSans-72" x="170.636719"/>
     </g>
    </g>
   </g>
   <g id="matplotlib.axis_2">
    <g id="ytick_1">
     <g id="line2d_9">
      <defs>
       <path id="m5407a7f6ad" d="M 0 0 
L -3.5 0 
" style="stroke: #000000; stroke-width: 0.8"/>
      </defs>
      <g>
       <use xlink:href="#m5407a7f6ad" x="44.203125" y="291.220808" style="stroke: #000000; stroke-width: 0.8"/>
      </g>
     </g>
     <g id="text_10">
      <!-- 0 -->
      <g transform="translate(30.840625 295.020026) scale(0.1 -0.1)">
       <use xlink:href="#DejaVuSans-30"/>
      </g>
     </g>
    </g>
    <g id="ytick_2">
     <g id="line2d_10">
      <g>
       <use xlink:href="#m5407a7f6ad" x="44.203125" y="251.717549" style="stroke: #000000; stroke-width: 0.8"/>
      </g>
     </g>
     <g id="text_11">
      <!-- 2 -->
      <g transform="translate(30.840625 255.516767) scale(0.1 -0.1)">
       <use xlink:href="#DejaVuSans-32"/>
      </g>
     </g>
    </g>
    <g id="ytick_3">
     <g id="line2d_11">
      <g>
       <use xlink:href="#m5407a7f6ad" x="44.203125" y="212.214289" style="stroke: #000000; stroke-width: 0.8"/>
      </g>
     </g>
     <g id="text_12">
      <!-- 4 -->
      <g transform="translate(30.840625 216.013508) scale(0.1 -0.1)">
       <use xlink:href="#DejaVuSans-34"/>
      </g>
     </g>
    </g>
    <g id="ytick_4">
     <g id="line2d_12">
      <g>
       <use xlink:href="#m5407a7f6ad" x="44.203125" y="172.71103" style="stroke: #000000; stroke-width: 0.8"/>
      </g>
     </g>
     <g id="text_13">
      <!-- 6 -->
      <g transform="translate(30.840625 176.510249) scale(0.1 -0.1)">
       <defs>
        <path id="DejaVuSans-36" d="M 2113 2584 
Q 1688 2584 1439 2293 
Q 1191 2003 1191 1497 
Q 1191 994 1439 701 
Q 1688 409 2113 409 
Q 2538 409 2786 701 
Q 3034 994 3034 1497 
Q 3034 2003 2786 2293 
Q 2538 2584 2113 2584 
z
M 3366 4563 
L 3366 3988 
Q 3128 4100 2886 4159 
Q 2644 4219 2406 4219 
Q 1781 4219 1451 3797 
Q 1122 3375 1075 2522 
Q 1259 2794 1537 2939 
Q 1816 3084 2150 3084 
Q 2853 3084 3261 2657 
Q 3669 2231 3669 1497 
Q 3669 778 3244 343 
Q 2819 -91 2113 -91 
Q 1303 -91 875 529 
Q 447 1150 447 2328 
Q 447 3434 972 4092 
Q 1497 4750 2381 4750 
Q 2619 4750 2861 4703 
Q 3103 4656 3366 4563 
z
" transform="scale(0.015625)"/>
       </defs>
       <use xlink:href="#DejaVuSans-36"/>
      </g>
     </g>
    </g>
    <g id="ytick_5">
     <g id="line2d_13">
      <g>
       <use xlink:href="#m5407a7f6ad" x="44.203125" y="133.207771" style="stroke: #000000; stroke-width: 0.8"/>
      </g>
     </g>
     <g id="text_14">
      <!-- 8 -->
      <g transform="translate(30.840625 137.00699) scale(0.1 -0.1)">
       <use xlink:href="#DejaVuSans-38"/>
      </g>
     </g>
    </g>
    <g id="ytick_6">
     <g id="line2d_14">
      <g>
       <use xlink:href="#m5407a7f6ad" x="44.203125" y="93.704512" style="stroke: #000000; stroke-width: 0.8"/>
      </g>
     </g>
     <g id="text_15">
      <!-- 10 -->
      <g transform="translate(24.478125 97.503731) scale(0.1 -0.1)">
       <use xlink:href="#DejaVuSans-31"/>
       <use xlink:href="#DejaVuSans-30" x="63.623047"/>
      </g>
     </g>
    </g>
    <g id="ytick_7">
     <g id="line2d_15">
      <g>
       <use xlink:href="#m5407a7f6ad" x="44.203125" y="54.201253" style="stroke: #000000; stroke-width: 0.8"/>
      </g>
     </g>
     <g id="text_16">
      <!-- 12 -->
      <g transform="translate(24.478125 58.000472) scale(0.1 -0.1)">
       <use xlink:href="#DejaVuSans-31"/>
       <use xlink:href="#DejaVuSans-32" x="63.623047"/>
      </g>
     </g>
    </g>
    <g id="ytick_8">
     <g id="line2d_16">
      <g>
       <use xlink:href="#m5407a7f6ad" x="44.203125" y="14.697994" style="stroke: #000000; stroke-width: 0.8"/>
      </g>
     </g>
     <g id="text_17">
      <!-- 14 -->
      <g transform="translate(24.478125 18.497213) scale(0.1 -0.1)">
       <use xlink:href="#DejaVuSans-31"/>
       <use xlink:href="#DejaVuSans-34" x="63.623047"/>
      </g>
     </g>
    </g>
    <g id="text_18">
     <!-- ANTHROPOGENIC effective radiative forcing (W m-2) -->
     <g transform="translate(18.398437 290.897634) rotate(-90) scale(0.1 -0.1)">
      <defs>
       <path id="DejaVuSans-41" d="M 2188 4044 
L 1331 1722 
L 3047 1722 
L 2188 4044 
z
M 1831 4666 
L 2547 4666 
L 4325 0 
L 3669 0 
L 3244 1197 
L 1141 1197 
L 716 0 
L 50 0 
L 1831 4666 
z
" transform="scale(0.015625)"/>
       <path id="DejaVuSans-4e" d="M 628 4666 
L 1478 4666 
L 3547 763 
L 3547 4666 
L 4159 4666 
L 4159 0 
L 3309 0 
L 1241 3903 
L 1241 0 
L 628 0 
L 628 4666 
z
" transform="scale(0.015625)"/>
       <path id="DejaVuSans-54" d="M -19 4666 
L 3928 4666 
L 3928 4134 
L 2272 4134 
L 2272 0 
L 1638 0 
L 1638 4134 
L -19 4134 
L -19 4666 
z
" transform="scale(0.015625)"/>
       <path id="DejaVuSans-48" d="M 628 4666 
L 1259 4666 
L 1259 2753 
L 3553 2753 
L 3553 4666 
L 4184 4666 
L 4184 0 
L 3553 0 
L 3553 2222 
L 1259 2222 
L 1259 0 
L 628 0 
L 628 4666 
z
" transform="scale(0.015625)"/>
       <path id="DejaVuSans-52" d="M 2841 2188 
Q 3044 2119 3236 1894 
Q 3428 1669 3622 1275 
L 4263 0 
L 3584 0 
L 2988 1197 
Q 2756 1666 2539 1819 
Q 2322 1972 1947 1972 
L 1259 1972 
L 1259 0 
L 628 0 
L 628 4666 
L 2053 4666 
Q 2853 4666 3247 4331 
Q 3641 3997 3641 3322 
Q 3641 2881 3436 2590 
Q 3231 2300 2841 2188 
z
M 1259 4147 
L 1259 2491 
L 2053 2491 
Q 2509 2491 2742 2702 
Q 2975 2913 2975 3322 
Q 2975 3731 2742 3939 
Q 2509 4147 2053 4147 
L 1259 4147 
z
" transform="scale(0.015625)"/>
       <path id="DejaVuSans-4f" d="M 2522 4238 
Q 1834 4238 1429 3725 
Q 1025 3213 1025 2328 
Q 1025 1447 1429 934 
Q 1834 422 2522 422 
Q 3209 422 3611 934 
Q 4013 1447 4013 2328 
Q 4013 3213 3611 3725 
Q 3209 4238 2522 4238 
z
M 2522 4750 
Q 3503 4750 4090 4092 
Q 4678 3434 4678 2328 
Q 4678 1225 4090 567 
Q 3503 -91 2522 -91 
Q 1538 -91 948 565 
Q 359 1222 359 2328 
Q 359 3434 948 4092 
Q 1538 4750 2522 4750 
z
" transform="scale(0.015625)"/>
       <path id="DejaVuSans-50" d="M 1259 4147 
L 1259 2394 
L 2053 2394 
Q 2494 2394 2734 2622 
Q 2975 2850 2975 3272 
Q 2975 3691 2734 3919 
Q 2494 4147 2053 4147 
L 1259 4147 
z
M 628 4666 
L 2053 4666 
Q 2838 4666 3239 4311 
Q 3641 3956 3641 3272 
Q 3641 2581 3239 2228 
Q 2838 1875 2053 1875 
L 1259 1875 
L 1259 0 
L 628 0 
L 628 4666 
z
" transform="scale(0.015625)"/>
       <path id="DejaVuSans-47" d="M 3809 666 
L 3809 1919 
L 2778 1919 
L 2778 2438 
L 4434 2438 
L 4434 434 
Q 4069 175 3628 42 
Q 3188 -91 2688 -91 
Q 1594 -91 976 548 
Q 359 1188 359 2328 
Q 359 3472 976 4111 
Q 1594 4750 2688 4750 
Q 3144 4750 3555 4637 
Q 3966 4525 4313 4306 
L 4313 3634 
Q 3963 3931 3569 4081 
Q 3175 4231 2741 4231 
Q 1884 4231 1454 3753 
Q 1025 3275 1025 2328 
Q 1025 1384 1454 906 
Q 1884 428 2741 428 
Q 3075 428 3337 486 
Q 3600 544 3809 666 
z
" transform="scale(0.015625)"/>
       <path id="DejaVuSans-45" d="M 628 4666 
L 3578 4666 
L 3578 4134 
L 1259 4134 
L 1259 2753 
L 3481 2753 
L 3481 2222 
L 1259 2222 
L 1259 531 
L 3634 531 
L 3634 0 
L 628 0 
L 628 4666 
z
" transform="scale(0.015625)"/>
       <path id="DejaVuSans-49" d="M 628 4666 
L 1259 4666 
L 1259 0 
L 628 0 
L 628 4666 
z
" transform="scale(0.015625)"/>
       <path id="DejaVuSans-43" d="M 4122 4306 
L 4122 3641 
Q 3803 3938 3442 4084 
Q 3081 4231 2675 4231 
Q 1875 4231 1450 3742 
Q 1025 3253 1025 2328 
Q 1025 1406 1450 917 
Q 1875 428 2675 428 
Q 3081 428 3442 575 
Q 3803 722 4122 1019 
L 4122 359 
Q 3791 134 3420 21 
Q 3050 -91 2638 -91 
Q 1578 -91 968 557 
Q 359 1206 359 2328 
Q 359 3453 968 4101 
Q 1578 4750 2638 4750 
Q 3056 4750 3426 4639 
Q 3797 4528 4122 4306 
z
" transform="scale(0.015625)"/>
       <path id="DejaVuSans-20" transform="scale(0.015625)"/>
       <path id="DejaVuSans-66" d="M 2375 4863 
L 2375 4384 
L 1825 4384 
Q 1516 4384 1395 4259 
Q 1275 4134 1275 3809 
L 1275 3500 
L 2222 3500 
L 2222 3053 
L 1275 3053 
L 1275 0 
L 697 0 
L 697 3053 
L 147 3053 
L 147 3500 
L 697 3500 
L 697 3744 
Q 697 4328 969 4595 
Q 1241 4863 1831 4863 
L 2375 4863 
z
" transform="scale(0.015625)"/>
       <path id="DejaVuSans-63" d="M 3122 3366 
L 3122 2828 
Q 2878 2963 2633 3030 
Q 2388 3097 2138 3097 
Q 1578 3097 1268 2742 
Q 959 2388 959 1747 
Q 959 1106 1268 751 
Q 1578 397 2138 397 
Q 2388 397 2633 464 
Q 2878 531 3122 666 
L 3122 134 
Q 2881 22 2623 -34 
Q 2366 -91 2075 -91 
Q 1284 -91 818 406 
Q 353 903 353 1747 
Q 353 2603 823 3093 
Q 1294 3584 2113 3584 
Q 2378 3584 2631 3529 
Q 2884 3475 3122 3366 
z
" transform="scale(0.015625)"/>
       <path id="DejaVuSans-74" d="M 1172 4494 
L 1172 3500 
L 2356 3500 
L 2356 3053 
L 1172 3053 
L 1172 1153 
Q 1172 725 1289 603 
Q 1406 481 1766 481 
L 2356 481 
L 2356 0 
L 1766 0 
Q 1100 0 847 248 
Q 594 497 594 1153 
L 594 3053 
L 172 3053 
L 172 3500 
L 594 3500 
L 594 4494 
L 1172 4494 
z
" transform="scale(0.015625)"/>
       <path id="DejaVuSans-69" d="M 603 3500 
L 1178 3500 
L 1178 0 
L 603 0 
L 603 3500 
z
M 603 4863 
L 1178 4863 
L 1178 4134 
L 603 4134 
L 603 4863 
z
" transform="scale(0.015625)"/>
       <path id="DejaVuSans-76" d="M 191 3500 
L 800 3500 
L 1894 563 
L 2988 3500 
L 3597 3500 
L 2284 0 
L 1503 0 
L 191 3500 
z
" transform="scale(0.015625)"/>
       <path id="DejaVuSans-64" d="M 2906 2969 
L 2906 4863 
L 3481 4863 
L 3481 0 
L 2906 0 
L 2906 525 
Q 2725 213 2448 61 
Q 2172 -91 1784 -91 
Q 1150 -91 751 415 
Q 353 922 353 1747 
Q 353 2572 751 3078 
Q 1150 3584 1784 3584 
Q 2172 3584 2448 3432 
Q 2725 3281 2906 2969 
z
M 947 1747 
Q 947 1113 1208 752 
Q 1469 391 1925 391 
Q 2381 391 2643 752 
Q 2906 1113 2906 1747 
Q 2906 2381 2643 2742 
Q 2381 3103 1925 3103 
Q 1469 3103 1208 2742 
Q 947 2381 947 1747 
z
" transform="scale(0.015625)"/>
       <path id="DejaVuSans-6f" d="M 1959 3097 
Q 1497 3097 1228 2736 
Q 959 2375 959 1747 
Q 959 1119 1226 758 
Q 1494 397 1959 397 
Q 2419 397 2687 759 
Q 2956 1122 2956 1747 
Q 2956 2369 2687 2733 
Q 2419 3097 1959 3097 
z
M 1959 3584 
Q 2709 3584 3137 3096 
Q 3566 2609 3566 1747 
Q 3566 888 3137 398 
Q 2709 -91 1959 -91 
Q 1206 -91 779 398 
Q 353 888 353 1747 
Q 353 2609 779 3096 
Q 1206 3584 1959 3584 
z
" transform="scale(0.015625)"/>
       <path id="DejaVuSans-6e" d="M 3513 2113 
L 3513 0 
L 2938 0 
L 2938 2094 
Q 2938 2591 2744 2837 
Q 2550 3084 2163 3084 
Q 1697 3084 1428 2787 
Q 1159 2491 1159 1978 
L 1159 0 
L 581 0 
L 581 3500 
L 1159 3500 
L 1159 2956 
Q 1366 3272 1645 3428 
Q 1925 3584 2291 3584 
Q 2894 3584 3203 3211 
Q 3513 2838 3513 2113 
z
" transform="scale(0.015625)"/>
       <path id="DejaVuSans-67" d="M 2906 1791 
Q 2906 2416 2648 2759 
Q 2391 3103 1925 3103 
Q 1463 3103 1205 2759 
Q 947 2416 947 1791 
Q 947 1169 1205 825 
Q 1463 481 1925 481 
Q 2391 481 2648 825 
Q 2906 1169 2906 1791 
z
M 3481 434 
Q 3481 -459 3084 -895 
Q 2688 -1331 1869 -1331 
Q 1566 -1331 1297 -1286 
Q 1028 -1241 775 -1147 
L 775 -588 
Q 1028 -725 1275 -790 
Q 1522 -856 1778 -856 
Q 2344 -856 2625 -561 
Q 2906 -266 2906 331 
L 2906 616 
Q 2728 306 2450 153 
Q 2172 0 1784 0 
Q 1141 0 747 490 
Q 353 981 353 1791 
Q 353 2603 747 3093 
Q 1141 3584 1784 3584 
Q 2172 3584 2450 3431 
Q 2728 3278 2906 2969 
L 2906 3500 
L 3481 3500 
L 3481 434 
z
" transform="scale(0.015625)"/>
       <path id="DejaVuSans-28" d="M 1984 4856 
Q 1566 4138 1362 3434 
Q 1159 2731 1159 2009 
Q 1159 1288 1364 580 
Q 1569 -128 1984 -844 
L 1484 -844 
Q 1016 -109 783 600 
Q 550 1309 550 2009 
Q 550 2706 781 3412 
Q 1013 4119 1484 4856 
L 1984 4856 
z
" transform="scale(0.015625)"/>
       <path id="DejaVuSans-57" d="M 213 4666 
L 850 4666 
L 1831 722 
L 2809 4666 
L 3519 4666 
L 4500 722 
L 5478 4666 
L 6119 4666 
L 4947 0 
L 4153 0 
L 3169 4050 
L 2175 0 
L 1381 0 
L 213 4666 
z
" transform="scale(0.015625)"/>
       <path id="DejaVuSans-6d" d="M 3328 2828 
Q 3544 3216 3844 3400 
Q 4144 3584 4550 3584 
Q 5097 3584 5394 3201 
Q 5691 2819 5691 2113 
L 5691 0 
L 5113 0 
L 5113 2094 
Q 5113 2597 4934 2840 
Q 4756 3084 4391 3084 
Q 3944 3084 3684 2787 
Q 3425 2491 3425 1978 
L 3425 0 
L 2847 0 
L 2847 2094 
Q 2847 2600 2669 2842 
Q 2491 3084 2119 3084 
Q 1678 3084 1418 2786 
Q 1159 2488 1159 1978 
L 1159 0 
L 581 0 
L 581 3500 
L 1159 3500 
L 1159 2956 
Q 1356 3278 1631 3431 
Q 1906 3584 2284 3584 
Q 2666 3584 2933 3390 
Q 3200 3197 3328 2828 
z
" transform="scale(0.015625)"/>
       <path id="DejaVuSans-2d" d="M 313 2009 
L 1997 2009 
L 1997 1497 
L 313 1497 
L 313 2009 
z
" transform="scale(0.015625)"/>
       <path id="DejaVuSans-29" d="M 513 4856 
L 1013 4856 
Q 1481 4119 1714 3412 
Q 1947 2706 1947 2009 
Q 1947 1309 1714 600 
Q 1481 -109 1013 -844 
L 513 -844 
Q 928 -128 1133 580 
Q 1338 1288 1338 2009 
Q 1338 2731 1133 3434 
Q 928 4138 513 4856 
z
" transform="scale(0.015625)"/>
      </defs>
      <use xlink:href="#DejaVuSans-41"/>
      <use xlink:href="#DejaVuSans-4e" x="68.408203"/>
      <use xlink:href="#DejaVuSans-54" x="143.212891"/>
      <use xlink:href="#DejaVuSans-48" x="204.296875"/>
      <use xlink:href="#DejaVuSans-52" x="279.492188"/>
      <use xlink:href="#DejaVuSans-4f" x="348.974609"/>
      <use xlink:href="#DejaVuSans-50" x="427.685547"/>
      <use xlink:href="#DejaVuSans-4f" x="487.988281"/>
      <use xlink:href="#DejaVuSans-47" x="566.699219"/>
      <use xlink:href="#DejaVuSans-45" x="644.189453"/>
      <use xlink:href="#DejaVuSans-4e" x="707.373047"/>
      <use xlink:href="#DejaVuSans-49" x="782.177734"/>
      <use xlink:href="#DejaVuSans-43" x="811.669922"/>
      <use xlink:href="#DejaVuSans-20" x="881.494141"/>
      <use xlink:href="#DejaVuSans-65" x="913.28125"/>
      <use xlink:href="#DejaVuSans-66" x="974.804688"/>
      <use xlink:href="#DejaVuSans-66" x="1010.009766"/>
      <use xlink:href="#DejaVuSans-65" x="1045.214844"/>
      <use xlink:href="#DejaVuSans-63" x="1106.738281"/>
      <use xlink:href="#DejaVuSans-74" x="1161.71875"/>
      <use xlink:href="#DejaVuSans-69" x="1200.927734"/>
      <use xlink:href="#DejaVuSans-76" x="1228.710938"/>
      <use xlink:href="#DejaVuSans-65" x="1287.890625"/>
      <use xlink:href="#DejaVuSans-20" x="1349.414062"/>
      <use xlink:href="#DejaVuSans-72" x="1381.201172"/>
      <use xlink:href="#DejaVuSans-61" x="1422.314453"/>
      <use xlink:href="#DejaVuSans-64" x="1483.59375"/>
      <use xlink:href="#DejaVuSans-69" x="1547.070312"/>
      <use xlink:href="#DejaVuSans-61" x="1574.853516"/>
      <use xlink:href="#DejaVuSans-74" x="1636.132812"/>
      <use xlink:href="#DejaVuSans-69" x="1675.341797"/>
      <use xlink:href="#DejaVuSans-76" x="1703.125"/>
      <use xlink:href="#DejaVuSans-65" x="1762.304688"/>
      <use xlink:href="#DejaVuSans-20" x="1823.828125"/>
      <use xlink:href="#DejaVuSans-66" x="1855.615234"/>
      <use xlink:href="#DejaVuSans-6f" x="1890.820312"/>
      <use xlink:href="#DejaVuSans-72" x="1952.001953"/>
      <use xlink:href="#DejaVuSans-63" x="1990.865234"/>
      <use xlink:href="#DejaVuSans-69" x="2045.845703"/>
      <use xlink:href="#DejaVuSans-6e" x="2073.628906"/>
      <use xlink:href="#DejaVuSans-67" x="2137.007812"/>
      <use xlink:href="#DejaVuSans-20" x="2200.484375"/>
      <use xlink:href="#DejaVuSans-28" x="2232.271484"/>
      <use xlink:href="#DejaVuSans-57" x="2271.285156"/>
      <use xlink:href="#DejaVuSans-20" x="2370.162109"/>
      <use xlink:href="#DejaVuSans-6d" x="2401.949219"/>
      <use xlink:href="#DejaVuSans-2d" x="2499.361328"/>
      <use xlink:href="#DejaVuSans-32" x="2535.445312"/>
      <use xlink:href="#DejaVuSans-29" x="2599.068359"/>
     </g>
    </g>
   </g>
   <g id="line2d_17">
    <path d="M 62.648438 291.220808 
L 67.075312 290.993914 
L 69.042812 290.875007 
L 70.518437 290.7656 
L 100.522812 288.522422 
L 101.998437 288.544982 
L 103.474062 288.467154 
L 107.900937 288.475845 
L 113.311562 288.182271 
L 113.803437 288.261448 
L 116.262812 288.039189 
L 117.246562 287.967388 
L 118.722187 287.788904 
L 122.657187 287.668336 
L 123.149062 287.721684 
L 123.640937 287.565152 
L 125.116562 287.513198 
L 125.608437 287.438216 
L 128.067812 287.714453 
L 129.051562 287.566809 
L 130.035312 287.419457 
L 130.527187 287.586637 
L 131.019062 287.401545 
L 131.510937 287.547936 
L 132.494687 287.431716 
L 132.986562 287.233834 
L 133.970312 287.325794 
L 134.954062 287.47882 
L 135.445937 287.613383 
L 135.937812 287.916236 
L 136.921562 288.112169 
L 137.413437 288.137783 
L 137.905312 288.48174 
L 138.397187 288.439013 
L 138.889062 288.689134 
L 139.380937 288.798163 
L 139.872812 289.280649 
L 140.364687 288.691491 
L 141.348437 288.930191 
L 141.840312 288.718796 
L 142.332187 288.804398 
L 142.824062 289.041371 
L 143.315937 288.087598 
L 143.807812 287.811905 
L 144.299687 288.229575 
L 144.791562 288.343626 
L 145.283437 288.019784 
L 145.775312 286.483489 
L 146.267187 287.101678 
L 146.759062 285.545237 
L 147.250937 285.779467 
L 147.742812 286.895076 
L 148.234687 286.621524 
L 149.218437 286.600899 
L 149.710312 287.077676 
L 150.202187 286.923181 
L 150.694062 287.388763 
L 151.185937 286.522236 
L 152.169687 283.961361 
L 152.661562 284.205937 
L 153.645312 285.224091 
L 154.629062 285.969593 
L 155.120937 284.948767 
L 155.612812 285.319587 
L 156.104687 286.020976 
L 156.596562 286.200069 
L 157.580312 286.213741 
L 158.072187 285.919331 
L 158.564062 284.518345 
L 159.055937 284.242173 
L 159.547812 285.311074 
L 160.039687 285.640491 
L 160.531562 285.073798 
L 161.023437 286.082216 
L 161.515312 286.404352 
L 162.499062 286.27272 
L 162.990937 286.027723 
L 163.482812 286.849598 
L 163.974687 287.44688 
L 164.466562 287.714773 
L 164.958437 287.512322 
L 165.450312 287.841352 
L 165.942187 287.929141 
L 166.434062 289.405833 
L 166.925937 289.178091 
L 168.401562 289.174219 
L 168.893437 288.895564 
L 169.385312 288.238719 
L 169.877187 288.192065 
L 170.369062 287.974882 
L 170.860937 287.940084 
L 172.336562 286.209668 
L 173.320312 284.3477 
L 173.812187 284.509459 
L 175.779687 280.813876 
L 176.271562 279.364294 
L 176.763437 278.460853 
L 177.255312 277.220306 
L 178.239062 275.662129 
L 181.190312 270.514398 
L 181.682187 269.222252 
L 182.174062 268.550786 
L 182.665937 267.601166 
L 183.649687 265.241564 
L 184.141562 264.966142 
L 185.125312 261.614727 
L 186.109062 260.569134 
L 186.600937 259.695513 
L 187.092812 259.288318 
L 187.584687 259.352205 
L 188.076562 259.209608 
L 188.568437 258.639879 
L 189.060312 257.693291 
L 190.535937 253.931486 
L 191.027812 253.29039 
L 192.503437 250.317222 
L 192.995312 247.299953 
L 194.962812 241.136432 
L 196.930312 235.648857 
L 198.405937 232.301603 
L 199.881562 229.488496 
L 200.373437 228.639395 
L 201.849062 228.139864 
L 203.324687 227.854535 
L 205.292187 227.729981 
L 208.243437 229.666074 
L 211.194687 231.877351 
L 214.637812 234.361351 
L 216.113437 235.273632 
L 221.032187 237.996008 
L 226.442812 240.92601 
L 231.361562 243.855232 
L 234.804688 246.055042 
L 237.755937 248.369322 
L 240.707187 250.379564 
L 244.642187 252.761929 
L 249.069062 255.180607 
L 254.479687 257.885285 
L 256.939062 258.978864 
L 259.890312 260.015094 
L 263.333437 260.93581 
L 266.776562 261.600219 
L 270.219687 262.025006 
L 273.662812 262.224793 
L 277.105937 262.209744 
L 288.910937 261.857349 
L 299.732187 262.03714 
L 311.045312 262.395061 
L 321.374687 262.805338 
L 346.460312 263.535585 
L 388.269687 264.542392 
L 431.554687 265.328319 
L 431.554687 265.328319 
" clip-path="url(#p72c9c11df0)" style="fill: none; stroke: #1f77b4; stroke-width: 1.5; stroke-linecap: square"/>
   </g>
   <g id="line2d_18">
    <path d="M 62.648438 291.220808 
L 67.075312 290.993914 
L 69.042812 290.875007 
L 70.518437 290.7656 
L 100.522812 288.522422 
L 101.998437 288.544982 
L 103.474062 288.467154 
L 107.900937 288.475845 
L 113.311562 288.182271 
L 113.803437 288.261448 
L 116.262812 288.039189 
L 117.246562 287.967388 
L 118.722187 287.788904 
L 122.657187 287.668336 
L 123.149062 287.721684 
L 123.640937 287.565152 
L 125.116562 287.513198 
L 125.608437 287.438216 
L 128.067812 287.714453 
L 129.051562 287.566809 
L 130.035312 287.419457 
L 130.527187 287.586637 
L 131.019062 287.401545 
L 131.510937 287.547936 
L 132.494687 287.431716 
L 132.986562 287.233834 
L 133.970312 287.325794 
L 134.954062 287.47882 
L 135.445937 287.613383 
L 135.937812 287.916236 
L 136.921562 288.112169 
L 137.413437 288.137783 
L 137.905312 288.48174 
L 138.397187 288.439013 
L 138.889062 288.689134 
L 139.380937 288.798163 
L 139.872812 289.280649 
L 140.364687 288.691491 
L 141.348437 288.930191 
L 141.840312 288.718796 
L 142.332187 288.804398 
L 142.824062 289.041371 
L 143.315937 288.087598 
L 143.807812 287.811905 
L 144.299687 288.229575 
L 144.791562 288.343626 
L 145.283437 288.019784 
L 145.775312 286.483489 
L 146.267187 287.101678 
L 146.759062 285.545237 
L 147.250937 285.779467 
L 147.742812 286.895076 
L 148.234687 286.621524 
L 149.218437 286.600899 
L 149.710312 287.077676 
L 150.202187 286.923181 
L 150.694062 287.388763 
L 151.185937 286.522236 
L 152.169687 283.961361 
L 152.661562 284.205937 
L 153.645312 285.224091 
L 154.629062 285.969593 
L 155.120937 284.948767 
L 155.612812 285.319587 
L 156.104687 286.020976 
L 156.596562 286.200069 
L 157.580312 286.213741 
L 158.072187 285.919331 
L 158.564062 284.518345 
L 159.055937 284.242173 
L 159.547812 285.311074 
L 160.039687 285.640491 
L 160.531562 285.073798 
L 161.023437 286.082216 
L 161.515312 286.404352 
L 162.499062 286.27272 
L 162.990937 286.027723 
L 163.482812 286.849598 
L 163.974687 287.44688 
L 164.466562 287.714773 
L 164.958437 287.512322 
L 165.450312 287.841352 
L 165.942187 287.929141 
L 166.434062 289.405833 
L 166.925937 289.178091 
L 168.401562 289.174219 
L 168.893437 288.895564 
L 169.385312 288.238719 
L 169.877187 288.192065 
L 170.369062 287.974882 
L 170.860937 287.940084 
L 172.336562 286.209668 
L 173.320312 284.3477 
L 173.812187 284.509459 
L 175.779687 280.813876 
L 176.271562 279.364294 
L 176.763437 278.460853 
L 177.255312 277.220306 
L 178.239062 275.662129 
L 181.190312 270.514398 
L 181.682187 269.222252 
L 182.174062 268.550786 
L 182.665937 267.601166 
L 183.649687 265.241564 
L 184.141562 264.966142 
L 185.125312 261.614727 
L 186.109062 260.569134 
L 186.600937 259.695513 
L 187.092812 259.288318 
L 187.584687 259.352205 
L 188.076562 259.209608 
L 188.568437 258.639879 
L 189.060312 257.693291 
L 190.535937 253.931486 
L 191.027812 253.29039 
L 192.503437 250.317222 
L 192.995312 247.300147 
L 195.454687 239.006567 
L 198.897812 232.412007 
L 200.865312 228.633222 
L 203.816562 222.434103 
L 208.243437 213.721364 
L 210.702812 209.297365 
L 213.654062 204.90083 
L 215.621562 202.24931 
L 218.572812 198.819774 
L 221.032187 196.211738 
L 222.999687 194.407954 
L 225.459062 192.488523 
L 227.426562 191.104877 
L 229.394062 189.969549 
L 230.377812 189.550452 
L 232.837187 188.818362 
L 235.296562 188.318963 
L 240.707187 187.507568 
L 262.841562 183.996425 
L 268.252187 183.438241 
L 273.662812 183.098172 
L 279.565312 182.962839 
L 285.467812 183.066267 
L 291.370312 183.403532 
L 297.272812 183.971351 
L 303.175312 184.767277 
L 308.585937 185.684137 
L 312.029062 186.620438 
L 316.455937 187.530986 
L 322.850312 188.586977 
L 332.195937 189.890417 
L 345.476562 191.499052 
L 361.708437 193.234095 
L 381.875312 195.162658 
L 405.485312 197.205349 
L 429.587187 199.065794 
L 431.554687 199.191609 
L 431.554687 199.191609 
" clip-path="url(#p72c9c11df0)" style="fill: none; stroke: #ff7f0e; stroke-width: 1.5; stroke-linecap: square"/>
   </g>
   <g id="line2d_19">
    <path d="M 62.648438 291.220808 
L 67.075312 290.993914 
L 69.042812 290.875007 
L 70.518437 290.7656 
L 100.522812 288.522422 
L 101.998437 288.544982 
L 103.474062 288.467154 
L 107.900937 288.475845 
L 113.311562 288.182271 
L 113.803437 288.261448 
L 116.262812 288.039189 
L 117.246562 287.967388 
L 118.722187 287.788904 
L 122.657187 287.668336 
L 123.149062 287.721684 
L 123.640937 287.565152 
L 125.116562 287.513198 
L 125.608437 287.438216 
L 128.067812 287.714453 
L 129.051562 287.566809 
L 130.035312 287.419457 
L 130.527187 287.586637 
L 131.019062 287.401545 
L 131.510937 287.547936 
L 132.494687 287.431716 
L 132.986562 287.233834 
L 133.970312 287.325794 
L 134.954062 287.47882 
L 135.445937 287.613383 
L 135.937812 287.916236 
L 136.921562 288.112169 
L 137.413437 288.137783 
L 137.905312 288.48174 
L 138.397187 288.439013 
L 138.889062 288.689134 
L 139.380937 288.798163 
L 139.872812 289.280649 
L 140.364687 288.691491 
L 141.348437 288.930191 
L 141.840312 288.718796 
L 142.332187 288.804398 
L 142.824062 289.041371 
L 143.315937 288.087598 
L 143.807812 287.811905 
L 144.299687 288.229575 
L 144.791562 288.343626 
L 145.283437 288.019784 
L 145.775312 286.483489 
L 146.267187 287.101678 
L 146.759062 285.545237 
L 147.250937 285.779467 
L 147.742812 286.895076 
L 148.234687 286.621524 
L 149.218437 286.600899 
L 149.710312 287.077676 
L 150.202187 286.923181 
L 150.694062 287.388763 
L 151.185937 286.522236 
L 152.169687 283.961361 
L 152.661562 284.205937 
L 153.645312 285.224091 
L 154.629062 285.969593 
L 155.120937 284.948767 
L 155.612812 285.319587 
L 156.104687 286.020976 
L 156.596562 286.200069 
L 157.580312 286.213741 
L 158.072187 285.919331 
L 158.564062 284.518345 
L 159.055937 284.242173 
L 159.547812 285.311074 
L 160.039687 285.640491 
L 160.531562 285.073798 
L 161.023437 286.082216 
L 161.515312 286.404352 
L 162.499062 286.27272 
L 162.990937 286.027723 
L 163.482812 286.849598 
L 163.974687 287.44688 
L 164.466562 287.714773 
L 164.958437 287.512322 
L 165.450312 287.841352 
L 165.942187 287.929141 
L 166.434062 289.405833 
L 166.925937 289.178091 
L 168.401562 289.174219 
L 168.893437 288.895564 
L 169.385312 288.238719 
L 169.877187 288.192065 
L 170.369062 287.974882 
L 170.860937 287.940084 
L 172.336562 286.209668 
L 173.320312 284.3477 
L 173.812187 284.509459 
L 175.779687 280.813876 
L 176.271562 279.364294 
L 176.763437 278.460853 
L 177.255312 277.220306 
L 178.239062 275.662129 
L 181.190312 270.514398 
L 181.682187 269.222252 
L 182.174062 268.550786 
L 182.665937 267.601166 
L 183.649687 265.241564 
L 184.141562 264.966142 
L 185.125312 261.614727 
L 186.109062 260.569134 
L 186.600937 259.695513 
L 187.092812 259.288318 
L 187.584687 259.352205 
L 188.076562 259.209608 
L 188.568437 258.639879 
L 189.060312 257.693291 
L 190.535937 253.931486 
L 191.027812 253.29039 
L 192.503437 250.317222 
L 192.995312 247.300432 
L 197.914062 235.247681 
L 202.340937 224.098256 
L 209.227187 206.204566 
L 212.178437 198.132401 
L 219.064687 178.614784 
L 226.934687 155.603458 
L 233.329062 136.437385 
L 236.772187 126.153614 
L 239.231562 119.689303 
L 241.690937 113.90883 
L 244.150312 108.679414 
L 246.609687 103.910862 
L 249.560937 98.705719 
L 252.512187 93.991942 
L 255.463437 89.710426 
L 258.414687 85.819263 
L 261.365937 82.286048 
L 264.317187 79.072944 
L 267.268437 76.155935 
L 270.219687 73.519106 
L 273.170937 71.145479 
L 276.122187 69.022543 
L 279.565312 66.845155 
L 283.008437 64.97489 
L 286.451562 63.394581 
L 289.894687 62.090129 
L 293.337812 61.049917 
L 296.780937 60.263554 
L 300.224062 59.719635 
L 303.667187 59.41034 
L 307.110312 59.331188 
L 308.585937 59.365169 
L 311.537187 60.333284 
L 314.980312 61.187553 
L 319.407187 62.040928 
L 326.293437 63.108458 
L 337.606562 64.600487 
L 355.805937 66.772255 
L 379.907812 69.468028 
L 414.339062 73.089041 
L 431.554687 74.786694 
L 431.554687 74.786694 
" clip-path="url(#p72c9c11df0)" style="fill: none; stroke: #2ca02c; stroke-width: 1.5; stroke-linecap: square"/>
   </g>
   <g id="line2d_20">
    <path d="M 62.648438 291.220808 
L 67.075312 290.993914 
L 69.042812 290.875007 
L 70.518437 290.7656 
L 100.522812 288.522422 
L 101.998437 288.544982 
L 103.474062 288.467154 
L 107.900937 288.475845 
L 113.311562 288.182271 
L 113.803437 288.261448 
L 116.262812 288.039189 
L 117.246562 287.967388 
L 118.722187 287.788904 
L 122.657187 287.668336 
L 123.149062 287.721684 
L 123.640937 287.565152 
L 125.116562 287.513198 
L 125.608437 287.438216 
L 128.067812 287.714453 
L 129.051562 287.566809 
L 130.035312 287.419457 
L 130.527187 287.586637 
L 131.019062 287.401545 
L 131.510937 287.547936 
L 132.494687 287.431716 
L 132.986562 287.233834 
L 133.970312 287.325794 
L 134.954062 287.47882 
L 135.445937 287.613383 
L 135.937812 287.916236 
L 136.921562 288.112169 
L 137.413437 288.137783 
L 137.905312 288.48174 
L 138.397187 288.439013 
L 138.889062 288.689134 
L 139.380937 288.798163 
L 139.872812 289.280649 
L 140.364687 288.691491 
L 141.348437 288.930191 
L 141.840312 288.718796 
L 142.332187 288.804398 
L 142.824062 289.041371 
L 143.315937 288.087598 
L 143.807812 287.811905 
L 144.299687 288.229575 
L 144.791562 288.343626 
L 145.283437 288.019784 
L 145.775312 286.483489 
L 146.267187 287.101678 
L 146.759062 285.545237 
L 147.250937 285.779467 
L 147.742812 286.895076 
L 148.234687 286.621524 
L 149.218437 286.600899 
L 149.710312 287.077676 
L 150.202187 286.923181 
L 150.694062 287.388763 
L 151.185937 286.522236 
L 152.169687 283.961361 
L 152.661562 284.205937 
L 153.645312 285.224091 
L 154.629062 285.969593 
L 155.120937 284.948767 
L 155.612812 285.319587 
L 156.104687 286.020976 
L 156.596562 286.200069 
L 157.580312 286.213741 
L 158.072187 285.919331 
L 158.564062 284.518345 
L 159.055937 284.242173 
L 159.547812 285.311074 
L 160.039687 285.640491 
L 160.531562 285.073798 
L 161.023437 286.082216 
L 161.515312 286.404352 
L 162.499062 286.27272 
L 162.990937 286.027723 
L 163.482812 286.849598 
L 163.974687 287.44688 
L 164.466562 287.714773 
L 164.958437 287.512322 
L 165.450312 287.841352 
L 165.942187 287.929141 
L 166.434062 289.405833 
L 166.925937 289.178091 
L 168.401562 289.174219 
L 168.893437 288.895564 
L 169.385312 288.238719 
L 169.877187 288.192065 
L 170.369062 287.974882 
L 170.860937 287.940084 
L 172.336562 286.209668 
L 173.320312 284.3477 
L 173.812187 284.509459 
L 175.779687 280.813876 
L 176.271562 279.364294 
L 176.763437 278.460853 
L 177.255312 277.220306 
L 178.239062 275.662129 
L 181.190312 270.514398 
L 181.682187 269.222252 
L 182.174062 268.550786 
L 182.665937 267.601166 
L 183.649687 265.241564 
L 184.141562 264.966142 
L 185.125312 261.614727 
L 186.109062 260.569134 
L 186.600937 259.695513 
L 187.092812 259.288318 
L 187.584687 259.352205 
L 188.076562 259.209608 
L 188.568437 258.639879 
L 189.060312 257.693291 
L 190.535937 253.931486 
L 191.027812 253.29039 
L 192.503437 250.317222 
L 192.995312 247.300321 
L 195.454687 239.802097 
L 198.897812 232.347068 
L 201.357187 226.532657 
L 207.259687 212.326145 
L 211.194687 203.345868 
L 214.637812 196.110879 
L 219.064687 187.422621 
L 223.983437 178.557665 
L 225.459062 176.259653 
L 227.918437 172.955799 
L 229.885937 170.58628 
L 232.345312 168.176568 
L 234.804688 166.061867 
L 241.690937 162.255167 
L 247.593437 159.213015 
L 253.004062 156.659896 
L 258.414687 154.348402 
L 263.333437 152.474063 
L 268.252187 150.85608 
L 273.170937 149.49383 
L 278.089687 148.384098 
L 283.008437 147.526031 
L 287.927187 146.91881 
L 292.845937 146.560222 
L 297.764687 146.449157 
L 302.191562 146.559844 
L 307.110312 146.917082 
L 309.077812 147.190642 
L 313.012812 148.022848 
L 318.423437 148.909245 
L 326.785312 150.020287 
L 341.049687 151.661549 
L 364.659687 154.127603 
L 392.204687 156.776246 
L 422.209062 159.440546 
L 431.554687 160.209199 
L 431.554687 160.209199 
" clip-path="url(#p72c9c11df0)" style="fill: none; stroke: #d62728; stroke-width: 1.5; stroke-linecap: square"/>
   </g>
   <g id="line2d_21">
    <path d="M 62.648438 291.220808 
L 67.075312 290.993914 
L 69.042812 290.875007 
L 70.518437 290.7656 
L 100.522812 288.522422 
L 101.998437 288.544982 
L 103.474062 288.467154 
L 107.900937 288.475845 
L 113.311562 288.182271 
L 113.803437 288.261448 
L 116.262812 288.039189 
L 117.246562 287.967388 
L 118.722187 287.788904 
L 122.657187 287.668336 
L 123.149062 287.721684 
L 123.640937 287.565152 
L 125.116562 287.513198 
L 125.608437 287.438216 
L 128.067812 287.714453 
L 129.051562 287.566809 
L 130.035312 287.419457 
L 130.527187 287.586637 
L 131.019062 287.401545 
L 131.510937 287.547936 
L 132.494687 287.431716 
L 132.986562 287.233834 
L 133.970312 287.325794 
L 134.954062 287.47882 
L 135.445937 287.613383 
L 135.937812 287.916236 
L 136.921562 288.112169 
L 137.413437 288.137783 
L 137.905312 288.48174 
L 138.397187 288.439013 
L 138.889062 288.689134 
L 139.380937 288.798163 
L 139.872812 289.280649 
L 140.364687 288.691491 
L 141.348437 288.930191 
L 141.840312 288.718796 
L 142.332187 288.804398 
L 142.824062 289.041371 
L 143.315937 288.087598 
L 143.807812 287.811905 
L 144.299687 288.229575 
L 144.791562 288.343626 
L 145.283437 288.019784 
L 145.775312 286.483489 
L 146.267187 287.101678 
L 146.759062 285.545237 
L 147.250937 285.779467 
L 147.742812 286.895076 
L 148.234687 286.621524 
L 149.218437 286.600899 
L 149.710312 287.077676 
L 150.202187 286.923181 
L 150.694062 287.388763 
L 151.185937 286.522236 
L 152.169687 283.961361 
L 152.661562 284.205937 
L 153.645312 285.224091 
L 154.629062 285.969593 
L 155.120937 284.948767 
L 155.612812 285.319587 
L 156.104687 286.020976 
L 156.596562 286.200069 
L 157.580312 286.213741 
L 158.072187 285.919331 
L 158.564062 284.518345 
L 159.055937 284.242173 
L 159.547812 285.311074 
L 160.039687 285.640491 
L 160.531562 285.073798 
L 161.023437 286.082216 
L 161.515312 286.404352 
L 162.499062 286.27272 
L 162.990937 286.027723 
L 163.482812 286.849598 
L 163.974687 287.44688 
L 164.466562 287.714773 
L 164.958437 287.512322 
L 165.450312 287.841352 
L 165.942187 287.929141 
L 166.434062 289.405833 
L 166.925937 289.178091 
L 168.401562 289.174219 
L 168.893437 288.895564 
L 169.385312 288.238719 
L 169.877187 288.192065 
L 170.369062 287.974882 
L 170.860937 287.940084 
L 172.336562 286.209668 
L 173.320312 284.3477 
L 173.812187 284.509459 
L 175.779687 280.813876 
L 176.271562 279.364294 
L 176.763437 278.460853 
L 177.255312 277.220306 
L 178.239062 275.662129 
L 181.190312 270.514398 
L 181.682187 269.222252 
L 182.174062 268.550786 
L 182.665937 267.601166 
L 183.649687 265.241564 
L 184.141562 264.966142 
L 185.125312 261.614727 
L 186.109062 260.569134 
L 186.600937 259.695513 
L 187.092812 259.288318 
L 187.584687 259.352205 
L 188.076562 259.209608 
L 188.568437 258.639879 
L 189.060312 257.693291 
L 190.535937 253.931486 
L 191.027812 253.29039 
L 192.503437 250.317222 
L 192.995312 247.300156 
L 195.454687 238.568643 
L 197.914062 232.565495 
L 201.357187 223.226196 
L 203.324687 217.607991 
L 205.292187 211.478563 
L 208.243437 200.42923 
L 212.178437 185.461978 
L 215.621562 172.536636 
L 220.048437 154.504955 
L 226.934687 124.692725 
L 229.885937 112.9073 
L 233.329062 100.004219 
L 235.296562 93.243242 
L 237.755937 86.136229 
L 240.215312 79.648275 
L 242.674687 73.712165 
L 245.134062 68.280542 
L 247.593437 63.314341 
L 250.052812 58.780261 
L 252.512187 54.650257 
L 254.971562 50.898235 
L 257.430937 47.500633 
L 259.890312 44.435242 
L 262.349687 41.680287 
L 264.809062 39.219226 
L 267.268437 37.031152 
L 269.727812 35.100412 
L 272.187187 33.409019 
L 275.138437 31.673572 
L 278.089687 30.234068 
L 281.040937 29.071032 
L 283.992187 28.162892 
L 286.943437 27.496018 
L 289.894687 27.049154 
L 292.845937 26.810539 
L 296.289062 26.780462 
L 299.732187 27.006501 
L 303.175312 27.477978 
L 306.618437 28.19083 
L 309.077812 28.90468 
L 311.537187 29.779672 
L 314.488437 30.577011 
L 318.423437 31.390141 
L 323.834062 32.268709 
L 332.195937 33.37778 
L 344.000937 34.7295 
L 362.692187 36.633648 
L 393.188437 39.434156 
L 430.079062 42.560438 
L 431.554687 42.660328 
L 431.554687 42.660328 
" clip-path="url(#p72c9c11df0)" style="fill: none; stroke: #9467bd; stroke-width: 1.5; stroke-linecap: square"/>
   </g>
   <g id="patch_2">
    <path d="M 44.203125 304.44375 
L 44.203125 13.539018 
" style="fill: none; stroke: #000000; stroke-width: 0.8; stroke-linejoin: miter; stroke-linecap: square"/>
   </g>
   <g id="patch_3">
    <path d="M 450 304.44375 
L 450 13.539018 
" style="fill: none; stroke: #000000; stroke-width: 0.8; stroke-linejoin: miter; stroke-linecap: square"/>
   </g>
   <g id="patch_4">
    <path d="M 44.203125 304.44375 
L 450 304.44375 
" style="fill: none; stroke: #000000; stroke-width: 0.8; stroke-linejoin: miter; stroke-linecap: square"/>
   </g>
   <g id="patch_5">
    <path d="M 44.203125 13.539018 
L 450 13.539018 
" style="fill: none; stroke: #000000; stroke-width: 0.8; stroke-linejoin: miter; stroke-linecap: square"/>
   </g>
   <g id="legend_1">
    <g id="patch_6">
     <path d="M 51.203125 94.929643 
L 119.057813 94.929643 
Q 121.057813 94.929643 121.057813 92.929643 
L 121.057813 20.539018 
Q 121.057813 18.539018 119.057813 18.539018 
L 51.203125 18.539018 
Q 49.203125 18.539018 49.203125 20.539018 
L 49.203125 92.929643 
Q 49.203125 94.929643 51.203125 94.929643 
z
" style="fill: #ffffff; opacity: 0.8; stroke: #cccccc; stroke-linejoin: miter"/>
    </g>
    <g id="line2d_22">
     <path d="M 53.203125 26.637455 
L 63.203125 26.637455 
L 73.203125 26.637455 
" style="fill: none; stroke: #1f77b4; stroke-width: 1.5; stroke-linecap: square"/>
    </g>
    <g id="text_19">
     <!-- ssp119 -->
     <g transform="translate(81.203125 30.137455) scale(0.1 -0.1)">
      <defs>
       <path id="DejaVuSans-73" d="M 2834 3397 
L 2834 2853 
Q 2591 2978 2328 3040 
Q 2066 3103 1784 3103 
Q 1356 3103 1142 2972 
Q 928 2841 928 2578 
Q 928 2378 1081 2264 
Q 1234 2150 1697 2047 
L 1894 2003 
Q 2506 1872 2764 1633 
Q 3022 1394 3022 966 
Q 3022 478 2636 193 
Q 2250 -91 1575 -91 
Q 1294 -91 989 -36 
Q 684 19 347 128 
L 347 722 
Q 666 556 975 473 
Q 1284 391 1588 391 
Q 1994 391 2212 530 
Q 2431 669 2431 922 
Q 2431 1156 2273 1281 
Q 2116 1406 1581 1522 
L 1381 1569 
Q 847 1681 609 1914 
Q 372 2147 372 2553 
Q 372 3047 722 3315 
Q 1072 3584 1716 3584 
Q 2034 3584 2315 3537 
Q 2597 3491 2834 3397 
z
" transform="scale(0.015625)"/>
       <path id="DejaVuSans-70" d="M 1159 525 
L 1159 -1331 
L 581 -1331 
L 581 3500 
L 1159 3500 
L 1159 2969 
Q 1341 3281 1617 3432 
Q 1894 3584 2278 3584 
Q 2916 3584 3314 3078 
Q 3713 2572 3713 1747 
Q 3713 922 3314 415 
Q 2916 -91 2278 -91 
Q 1894 -91 1617 61 
Q 1341 213 1159 525 
z
M 3116 1747 
Q 3116 2381 2855 2742 
Q 2594 3103 2138 3103 
Q 1681 3103 1420 2742 
Q 1159 2381 1159 1747 
Q 1159 1113 1420 752 
Q 1681 391 2138 391 
Q 2594 391 2855 752 
Q 3116 1113 3116 1747 
z
" transform="scale(0.015625)"/>
      </defs>
      <use xlink:href="#DejaVuSans-73"/>
      <use xlink:href="#DejaVuSans-73" x="52.099609"/>
      <use xlink:href="#DejaVuSans-70" x="104.199219"/>
      <use xlink:href="#DejaVuSans-31" x="167.675781"/>
      <use xlink:href="#DejaVuSans-31" x="231.298828"/>
      <use xlink:href="#DejaVuSans-39" x="294.921875"/>
     </g>
    </g>
    <g id="line2d_23">
     <path d="M 53.203125 41.31558 
L 63.203125 41.31558 
L 73.203125 41.31558 
" style="fill: none; stroke: #ff7f0e; stroke-width: 1.5; stroke-linecap: square"/>
    </g>
    <g id="text_20">
     <!-- ssp245 -->
     <g transform="translate(81.203125 44.81558) scale(0.1 -0.1)">
      <use xlink:href="#DejaVuSans-73"/>
      <use xlink:href="#DejaVuSans-73" x="52.099609"/>
      <use xlink:href="#DejaVuSans-70" x="104.199219"/>
      <use xlink:href="#DejaVuSans-32" x="167.675781"/>
      <use xlink:href="#DejaVuSans-34" x="231.298828"/>
      <use xlink:href="#DejaVuSans-35" x="294.921875"/>
     </g>
    </g>
    <g id="line2d_24">
     <path d="M 53.203125 55.993705 
L 63.203125 55.993705 
L 73.203125 55.993705 
" style="fill: none; stroke: #2ca02c; stroke-width: 1.5; stroke-linecap: square"/>
    </g>
    <g id="text_21">
     <!-- ssp370 -->
     <g transform="translate(81.203125 59.493705) scale(0.1 -0.1)">
      <defs>
       <path id="DejaVuSans-37" d="M 525 4666 
L 3525 4666 
L 3525 4397 
L 1831 0 
L 1172 0 
L 2766 4134 
L 525 4134 
L 525 4666 
z
" transform="scale(0.015625)"/>
      </defs>
      <use xlink:href="#DejaVuSans-73"/>
      <use xlink:href="#DejaVuSans-73" x="52.099609"/>
      <use xlink:href="#DejaVuSans-70" x="104.199219"/>
      <use xlink:href="#DejaVuSans-33" x="167.675781"/>
      <use xlink:href="#DejaVuSans-37" x="231.298828"/>
      <use xlink:href="#DejaVuSans-30" x="294.921875"/>
     </g>
    </g>
    <g id="line2d_25">
     <path d="M 53.203125 70.67183 
L 63.203125 70.67183 
L 73.203125 70.67183 
" style="fill: none; stroke: #d62728; stroke-width: 1.5; stroke-linecap: square"/>
    </g>
    <g id="text_22">
     <!-- ssp460 -->
     <g transform="translate(81.203125 74.17183) scale(0.1 -0.1)">
      <use xlink:href="#DejaVuSans-73"/>
      <use xlink:href="#DejaVuSans-73" x="52.099609"/>
      <use xlink:href="#DejaVuSans-70" x="104.199219"/>
      <use xlink:href="#DejaVuSans-34" x="167.675781"/>
      <use xlink:href="#DejaVuSans-36" x="231.298828"/>
      <use xlink:href="#DejaVuSans-30" x="294.921875"/>
     </g>
    </g>
    <g id="line2d_26">
     <path d="M 53.203125 85.349955 
L 63.203125 85.349955 
L 73.203125 85.349955 
" style="fill: none; stroke: #9467bd; stroke-width: 1.5; stroke-linecap: square"/>
    </g>
    <g id="text_23">
     <!-- ssp585 -->
     <g transform="translate(81.203125 88.849955) scale(0.1 -0.1)">
      <use xlink:href="#DejaVuSans-73"/>
      <use xlink:href="#DejaVuSans-73" x="52.099609"/>
      <use xlink:href="#DejaVuSans-70" x="104.199219"/>
      <use xlink:href="#DejaVuSans-35" x="167.675781"/>
      <use xlink:href="#DejaVuSans-38" x="231.298828"/>
      <use xlink:href="#DejaVuSans-35" x="294.921875"/>
     </g>
    </g>
   </g>
  </g>
 </g>
 <defs>
  <clipPath id="p72c9c11df0">
   <rect x="44.203125" y="13.539018" width="405.796875" height="290.904732"/>
  </clipPath>
 </defs>
</svg>
