<?xml version="1.0" encoding="utf-8" standalone="no"?>
<!DOCTYPE svg PUBLIC "-//W3C//DTD SVG 1.1//EN"
  "http://www.w3.org/Graphics/SVG/1.1/DTD/svg11.dtd">
<svg xmlns:xlink="http://www.w3.org/1999/xlink" width="460.8pt" height="345.6pt" viewBox="0 0 460.8 345.6" xmlns="http://www.w3.org/2000/svg" version="1.1">
 <metadata>
  <rdf:RDF xmlns:dc="http://purl.org/dc/elements/1.1/" xmlns:cc="http://creativecommons.org/ns#" xmlns:rdf="http://www.w3.org/1999/02/22-rdf-syntax-ns#">
   <cc:Work>
    <dc:type rdf:resource="http://purl.org/dc/dcmitype/StillImage"/>
    <dc:date>2024-10-10T11:07:57.579344</dc:date>
    <dc:format>image/svg+xml</dc:format>
    <dc:creator>
     <cc:Agent>
      <dc:title>Matplotlib v3.9.0, https://matplotlib.org/</dc:title>
     </cc:Agent>
    </dc:creator>
   </cc:Work>
  </rdf:RDF>
 </metadata>
 <defs>
  <style type="text/css">*{stroke-linejoin: round; stroke-linecap: butt}</style>
 </defs>
 <g id="figure_1">
  <g id="axes_1">
   <g id="patch_1">
    <path d="M 63.290625 304.44375 
L 450 304.44375 
L 450 10.8 
L 63.290625 10.8 
L 63.290625 304.44375 
z
" style="fill: none"/>
   </g>
   <g id="matplotlib.axis_1">
    <g id="xtick_1">
     <g id="line2d_1">
      <defs>
       <path id="m3bcc760ffb" d="M 0 0 
L 0 3.5 
" style="stroke: #000000; stroke-width: 0.8"/>
      </defs>
      <g>
       <use xlink:href="#m3bcc760ffb" x="104.305256" y="304.44375" style="stroke: #000000; stroke-width: 0.8"/>
      </g>
     </g>
     <g id="text_1">
      <!-- 1800 -->
      <g transform="translate(91.580256 319.042187) scale(0.1 -0.1)">
       <defs>
        <path id="DejaVuSans-31" d="M 794 531 
L 1825 531 
L 1825 4091 
L 703 3866 
L 703 4441 
L 1819 4666 
L 2450 4666 
L 2450 531 
L 3481 531 
L 3481 0 
L 794 0 
L 794 531 
z
" transform="scale(0.015625)"/>
        <path id="DejaVuSans-38" d="M 2034 2216 
Q 1584 2216 1326 1975 
Q 1069 1734 1069 1313 
Q 1069 891 1326 650 
Q 1584 409 2034 409 
Q 2484 409 2743 651 
Q 3003 894 3003 1313 
Q 3003 1734 2745 1975 
Q 2488 2216 2034 2216 
z
M 1403 2484 
Q 997 2584 770 2862 
Q 544 3141 544 3541 
Q 544 4100 942 4425 
Q 1341 4750 2034 4750 
Q 2731 4750 3128 4425 
Q 3525 4100 3525 3541 
Q 3525 3141 3298 2862 
Q 3072 2584 2669 2484 
Q 3125 2378 3379 2068 
Q 3634 1759 3634 1313 
Q 3634 634 3220 271 
Q 2806 -91 2034 -91 
Q 1263 -91 848 271 
Q 434 634 434 1313 
Q 434 1759 690 2068 
Q 947 2378 1403 2484 
z
M 1172 3481 
Q 1172 3119 1398 2916 
Q 1625 2713 2034 2713 
Q 2441 2713 2670 2916 
Q 2900 3119 2900 3481 
Q 2900 3844 2670 4047 
Q 2441 4250 2034 4250 
Q 1625 4250 1398 4047 
Q 1172 3844 1172 3481 
z
" transform="scale(0.015625)"/>
        <path id="DejaVuSans-30" d="M 2034 4250 
Q 1547 4250 1301 3770 
Q 1056 3291 1056 2328 
Q 1056 1369 1301 889 
Q 1547 409 2034 409 
Q 2525 409 2770 889 
Q 3016 1369 3016 2328 
Q 3016 3291 2770 3770 
Q 2525 4250 2034 4250 
z
M 2034 4750 
Q 2819 4750 3233 4129 
Q 3647 3509 3647 2328 
Q 3647 1150 3233 529 
Q 2819 -91 2034 -91 
Q 1250 -91 836 529 
Q 422 1150 422 2328 
Q 422 3509 836 4129 
Q 1250 4750 2034 4750 
z
" transform="scale(0.015625)"/>
       </defs>
       <use xlink:href="#DejaVuSans-31"/>
       <use xlink:href="#DejaVuSans-38" x="63.623047"/>
       <use xlink:href="#DejaVuSans-30" x="127.246094"/>
       <use xlink:href="#DejaVuSans-30" x="190.869141"/>
      </g>
     </g>
    </g>
    <g id="xtick_2">
     <g id="line2d_2">
      <g>
       <use xlink:href="#m3bcc760ffb" x="151.179119" y="304.44375" style="stroke: #000000; stroke-width: 0.8"/>
      </g>
     </g>
     <g id="text_2">
      <!-- 1900 -->
      <g transform="translate(138.454119 319.042187) scale(0.1 -0.1)">
       <defs>
        <path id="DejaVuSans-39" d="M 703 97 
L 703 672 
Q 941 559 1184 500 
Q 1428 441 1663 441 
Q 2288 441 2617 861 
Q 2947 1281 2994 2138 
Q 2813 1869 2534 1725 
Q 2256 1581 1919 1581 
Q 1219 1581 811 2004 
Q 403 2428 403 3163 
Q 403 3881 828 4315 
Q 1253 4750 1959 4750 
Q 2769 4750 3195 4129 
Q 3622 3509 3622 2328 
Q 3622 1225 3098 567 
Q 2575 -91 1691 -91 
Q 1453 -91 1209 -44 
Q 966 3 703 97 
z
M 1959 2075 
Q 2384 2075 2632 2365 
Q 2881 2656 2881 3163 
Q 2881 3666 2632 3958 
Q 2384 4250 1959 4250 
Q 1534 4250 1286 3958 
Q 1038 3666 1038 3163 
Q 1038 2656 1286 2365 
Q 1534 2075 1959 2075 
z
" transform="scale(0.015625)"/>
       </defs>
       <use xlink:href="#DejaVuSans-31"/>
       <use xlink:href="#DejaVuSans-39" x="63.623047"/>
       <use xlink:href="#DejaVuSans-30" x="127.246094"/>
       <use xlink:href="#DejaVuSans-30" x="190.869141"/>
      </g>
     </g>
    </g>
    <g id="xtick_3">
     <g id="line2d_3">
      <g>
       <use xlink:href="#m3bcc760ffb" x="198.052983" y="304.44375" style="stroke: #000000; stroke-width: 0.8"/>
      </g>
     </g>
     <g id="text_3">
      <!-- 2000 -->
      <g transform="translate(185.327983 319.042187) scale(0.1 -0.1)">
       <defs>
        <path id="DejaVuSans-32" d="M 1228 531 
L 3431 531 
L 3431 0 
L 469 0 
L 469 531 
Q 828 903 1448 1529 
Q 2069 2156 2228 2338 
Q 2531 2678 2651 2914 
Q 2772 3150 2772 3378 
Q 2772 3750 2511 3984 
Q 2250 4219 1831 4219 
Q 1534 4219 1204 4116 
Q 875 4013 500 3803 
L 500 4441 
Q 881 4594 1212 4672 
Q 1544 4750 1819 4750 
Q 2544 4750 2975 4387 
Q 3406 4025 3406 3419 
Q 3406 3131 3298 2873 
Q 3191 2616 2906 2266 
Q 2828 2175 2409 1742 
Q 1991 1309 1228 531 
z
" transform="scale(0.015625)"/>
       </defs>
       <use xlink:href="#DejaVuSans-32"/>
       <use xlink:href="#DejaVuSans-30" x="63.623047"/>
       <use xlink:href="#DejaVuSans-30" x="127.246094"/>
       <use xlink:href="#DejaVuSans-30" x="190.869141"/>
      </g>
     </g>
    </g>
    <g id="xtick_4">
     <g id="line2d_4">
      <g>
       <use xlink:href="#m3bcc760ffb" x="244.926847" y="304.44375" style="stroke: #000000; stroke-width: 0.8"/>
      </g>
     </g>
     <g id="text_4">
      <!-- 2100 -->
      <g transform="translate(232.201847 319.042187) scale(0.1 -0.1)">
       <use xlink:href="#DejaVuSans-32"/>
       <use xlink:href="#DejaVuSans-31" x="63.623047"/>
       <use xlink:href="#DejaVuSans-30" x="127.246094"/>
       <use xlink:href="#DejaVuSans-30" x="190.869141"/>
      </g>
     </g>
    </g>
    <g id="xtick_5">
     <g id="line2d_5">
      <g>
       <use xlink:href="#m3bcc760ffb" x="291.80071" y="304.44375" style="stroke: #000000; stroke-width: 0.8"/>
      </g>
     </g>
     <g id="text_5">
      <!-- 2200 -->
      <g transform="translate(279.07571 319.042187) scale(0.1 -0.1)">
       <use xlink:href="#DejaVuSans-32"/>
       <use xlink:href="#DejaVuSans-32" x="63.623047"/>
       <use xlink:href="#DejaVuSans-30" x="127.246094"/>
       <use xlink:href="#DejaVuSans-30" x="190.869141"/>
      </g>
     </g>
    </g>
    <g id="xtick_6">
     <g id="line2d_6">
      <g>
       <use xlink:href="#m3bcc760ffb" x="338.674574" y="304.44375" style="stroke: #000000; stroke-width: 0.8"/>
      </g>
     </g>
     <g id="text_6">
      <!-- 2300 -->
      <g transform="translate(325.949574 319.042187) scale(0.1 -0.1)">
       <defs>
        <path id="DejaVuSans-33" d="M 2597 2516 
Q 3050 2419 3304 2112 
Q 3559 1806 3559 1356 
Q 3559 666 3084 287 
Q 2609 -91 1734 -91 
Q 1441 -91 1130 -33 
Q 819 25 488 141 
L 488 750 
Q 750 597 1062 519 
Q 1375 441 1716 441 
Q 2309 441 2620 675 
Q 2931 909 2931 1356 
Q 2931 1769 2642 2001 
Q 2353 2234 1838 2234 
L 1294 2234 
L 1294 2753 
L 1863 2753 
Q 2328 2753 2575 2939 
Q 2822 3125 2822 3475 
Q 2822 3834 2567 4026 
Q 2313 4219 1838 4219 
Q 1578 4219 1281 4162 
Q 984 4106 628 3988 
L 628 4550 
Q 988 4650 1302 4700 
Q 1616 4750 1894 4750 
Q 2613 4750 3031 4423 
Q 3450 4097 3450 3541 
Q 3450 3153 3228 2886 
Q 3006 2619 2597 2516 
z
" transform="scale(0.015625)"/>
       </defs>
       <use xlink:href="#DejaVuSans-32"/>
       <use xlink:href="#DejaVuSans-33" x="63.623047"/>
       <use xlink:href="#DejaVuSans-30" x="127.246094"/>
       <use xlink:href="#DejaVuSans-30" x="190.869141"/>
      </g>
     </g>
    </g>
    <g id="xtick_7">
     <g id="line2d_7">
      <g>
       <use xlink:href="#m3bcc760ffb" x="385.548437" y="304.44375" style="stroke: #000000; stroke-width: 0.8"/>
      </g>
     </g>
     <g id="text_7">
      <!-- 2400 -->
      <g transform="translate(372.823437 319.042187) scale(0.1 -0.1)">
       <defs>
        <path id="DejaVuSans-34" d="M 2419 4116 
L 825 1625 
L 2419 1625 
L 2419 4116 
z
M 2253 4666 
L 3047 4666 
L 3047 1625 
L 3713 1625 
L 3713 1100 
L 3047 1100 
L 3047 0 
L 2419 0 
L 2419 1100 
L 313 1100 
L 313 1709 
L 2253 4666 
z
" transform="scale(0.015625)"/>
       </defs>
       <use xlink:href="#DejaVuSans-32"/>
       <use xlink:href="#DejaVuSans-34" x="63.623047"/>
       <use xlink:href="#DejaVuSans-30" x="127.246094"/>
       <use xlink:href="#DejaVuSans-30" x="190.869141"/>
      </g>
     </g>
    </g>
    <g id="xtick_8">
     <g id="line2d_8">
      <g>
       <use xlink:href="#m3bcc760ffb" x="432.422301" y="304.44375" style="stroke: #000000; stroke-width: 0.8"/>
      </g>
     </g>
     <g id="text_8">
      <!-- 2500 -->
      <g transform="translate(419.697301 319.042187) scale(0.1 -0.1)">
       <defs>
        <path id="DejaVuSans-35" d="M 691 4666 
L 3169 4666 
L 3169 4134 
L 1269 4134 
L 1269 2991 
Q 1406 3038 1543 3061 
Q 1681 3084 1819 3084 
Q 2600 3084 3056 2656 
Q 3513 2228 3513 1497 
Q 3513 744 3044 326 
Q 2575 -91 1722 -91 
Q 1428 -91 1123 -41 
Q 819 9 494 109 
L 494 744 
Q 775 591 1075 516 
Q 1375 441 1709 441 
Q 2250 441 2565 725 
Q 2881 1009 2881 1497 
Q 2881 1984 2565 2268 
Q 2250 2553 1709 2553 
Q 1456 2553 1204 2497 
Q 953 2441 691 2322 
L 691 4666 
z
" transform="scale(0.015625)"/>
       </defs>
       <use xlink:href="#DejaVuSans-32"/>
       <use xlink:href="#DejaVuSans-35" x="63.623047"/>
       <use xlink:href="#DejaVuSans-30" x="127.246094"/>
       <use xlink:href="#DejaVuSans-30" x="190.869141"/>
      </g>
     </g>
    </g>
    <g id="text_9">
     <!-- Year -->
     <g transform="translate(246.057812 332.720312) scale(0.1 -0.1)">
      <defs>
       <path id="DejaVuSans-59" d="M -13 4666 
L 666 4666 
L 1959 2747 
L 3244 4666 
L 3922 4666 
L 2272 2222 
L 2272 0 
L 1638 0 
L 1638 2222 
L -13 4666 
z
" transform="scale(0.015625)"/>
       <path id="DejaVuSans-65" d="M 3597 1894 
L 3597 1613 
L 953 1613 
Q 991 1019 1311 708 
Q 1631 397 2203 397 
Q 2534 397 2845 478 
Q 3156 559 3463 722 
L 3463 178 
Q 3153 47 2828 -22 
Q 2503 -91 2169 -91 
Q 1331 -91 842 396 
Q 353 884 353 1716 
Q 353 2575 817 3079 
Q 1281 3584 2069 3584 
Q 2775 3584 3186 3129 
Q 3597 2675 3597 1894 
z
M 3022 2063 
Q 3016 2534 2758 2815 
Q 2500 3097 2075 3097 
Q 1594 3097 1305 2825 
Q 1016 2553 972 2059 
L 3022 2063 
z
" transform="scale(0.015625)"/>
       <path id="DejaVuSans-61" d="M 2194 1759 
Q 1497 1759 1228 1600 
Q 959 1441 959 1056 
Q 959 750 1161 570 
Q 1363 391 1709 391 
Q 2188 391 2477 730 
Q 2766 1069 2766 1631 
L 2766 1759 
L 2194 1759 
z
M 3341 1997 
L 3341 0 
L 2766 0 
L 2766 531 
Q 2569 213 2275 61 
Q 1981 -91 1556 -91 
Q 1019 -91 701 211 
Q 384 513 384 1019 
Q 384 1609 779 1909 
Q 1175 2209 1959 2209 
L 2766 2209 
L 2766 2266 
Q 2766 2663 2505 2880 
Q 2244 3097 1772 3097 
Q 1472 3097 1187 3025 
Q 903 2953 641 2809 
L 641 3341 
Q 956 3463 1253 3523 
Q 1550 3584 1831 3584 
Q 2591 3584 2966 3190 
Q 3341 2797 3341 1997 
z
" transform="scale(0.015625)"/>
       <path id="DejaVuSans-72" d="M 2631 2963 
Q 2534 3019 2420 3045 
Q 2306 3072 2169 3072 
Q 1681 3072 1420 2755 
Q 1159 2438 1159 1844 
L 1159 0 
L 581 0 
L 581 3500 
L 1159 3500 
L 1159 2956 
Q 1341 3275 1631 3429 
Q 1922 3584 2338 3584 
Q 2397 3584 2469 3576 
Q 2541 3569 2628 3553 
L 2631 2963 
z
" transform="scale(0.015625)"/>
      </defs>
      <use xlink:href="#DejaVuSans-59"/>
      <use xlink:href="#DejaVuSans-65" x="47.833984"/>
      <use xlink:href="#DejaVuSans-61" x="109.357422"/>
      <use xlink:href="#DejaVuSans-72" x="170.636719"/>
     </g>
    </g>
   </g>
   <g id="matplotlib.axis_2">
    <g id="ytick_1">
     <g id="line2d_9">
      <defs>
       <path id="m6eaae5fc5c" d="M 0 0 
L -3.5 0 
" style="stroke: #000000; stroke-width: 0.8"/>
      </defs>
      <g>
       <use xlink:href="#m6eaae5fc5c" x="63.290625" y="294.028105" style="stroke: #000000; stroke-width: 0.8"/>
      </g>
     </g>
     <g id="text_10">
      <!-- 2000 -->
      <g transform="translate(30.840625 297.827324) scale(0.1 -0.1)">
       <use xlink:href="#DejaVuSans-32"/>
       <use xlink:href="#DejaVuSans-30" x="63.623047"/>
       <use xlink:href="#DejaVuSans-30" x="127.246094"/>
       <use xlink:href="#DejaVuSans-30" x="190.869141"/>
      </g>
     </g>
    </g>
    <g id="ytick_2">
     <g id="line2d_10">
      <g>
       <use xlink:href="#m6eaae5fc5c" x="63.290625" y="259.61515" style="stroke: #000000; stroke-width: 0.8"/>
      </g>
     </g>
     <g id="text_11">
      <!-- 3000 -->
      <g transform="translate(30.840625 263.414368) scale(0.1 -0.1)">
       <use xlink:href="#DejaVuSans-33"/>
       <use xlink:href="#DejaVuSans-30" x="63.623047"/>
       <use xlink:href="#DejaVuSans-30" x="127.246094"/>
       <use xlink:href="#DejaVuSans-30" x="190.869141"/>
      </g>
     </g>
    </g>
    <g id="ytick_3">
     <g id="line2d_11">
      <g>
       <use xlink:href="#m6eaae5fc5c" x="63.290625" y="225.202194" style="stroke: #000000; stroke-width: 0.8"/>
      </g>
     </g>
     <g id="text_12">
      <!-- 4000 -->
      <g transform="translate(30.840625 229.001413) scale(0.1 -0.1)">
       <use xlink:href="#DejaVuSans-34"/>
       <use xlink:href="#DejaVuSans-30" x="63.623047"/>
       <use xlink:href="#DejaVuSans-30" x="127.246094"/>
       <use xlink:href="#DejaVuSans-30" x="190.869141"/>
      </g>
     </g>
    </g>
    <g id="ytick_4">
     <g id="line2d_12">
      <g>
       <use xlink:href="#m6eaae5fc5c" x="63.290625" y="190.789238" style="stroke: #000000; stroke-width: 0.8"/>
      </g>
     </g>
     <g id="text_13">
      <!-- 5000 -->
      <g transform="translate(30.840625 194.588457) scale(0.1 -0.1)">
       <use xlink:href="#DejaVuSans-35"/>
       <use xlink:href="#DejaVuSans-30" x="63.623047"/>
       <use xlink:href="#DejaVuSans-30" x="127.246094"/>
       <use xlink:href="#DejaVuSans-30" x="190.869141"/>
      </g>
     </g>
    </g>
    <g id="ytick_5">
     <g id="line2d_13">
      <g>
       <use xlink:href="#m6eaae5fc5c" x="63.290625" y="156.376283" style="stroke: #000000; stroke-width: 0.8"/>
      </g>
     </g>
     <g id="text_14">
      <!-- 6000 -->
      <g transform="translate(30.840625 160.175502) scale(0.1 -0.1)">
       <defs>
        <path id="DejaVuSans-36" d="M 2113 2584 
Q 1688 2584 1439 2293 
Q 1191 2003 1191 1497 
Q 1191 994 1439 701 
Q 1688 409 2113 409 
Q 2538 409 2786 701 
Q 3034 994 3034 1497 
Q 3034 2003 2786 2293 
Q 2538 2584 2113 2584 
z
M 3366 4563 
L 3366 3988 
Q 3128 4100 2886 4159 
Q 2644 4219 2406 4219 
Q 1781 4219 1451 3797 
Q 1122 3375 1075 2522 
Q 1259 2794 1537 2939 
Q 1816 3084 2150 3084 
Q 2853 3084 3261 2657 
Q 3669 2231 3669 1497 
Q 3669 778 3244 343 
Q 2819 -91 2113 -91 
Q 1303 -91 875 529 
Q 447 1150 447 2328 
Q 447 3434 972 4092 
Q 1497 4750 2381 4750 
Q 2619 4750 2861 4703 
Q 3103 4656 3366 4563 
z
" transform="scale(0.015625)"/>
       </defs>
       <use xlink:href="#DejaVuSans-36"/>
       <use xlink:href="#DejaVuSans-30" x="63.623047"/>
       <use xlink:href="#DejaVuSans-30" x="127.246094"/>
       <use xlink:href="#DejaVuSans-30" x="190.869141"/>
      </g>
     </g>
    </g>
    <g id="ytick_6">
     <g id="line2d_14">
      <g>
       <use xlink:href="#m6eaae5fc5c" x="63.290625" y="121.963327" style="stroke: #000000; stroke-width: 0.8"/>
      </g>
     </g>
     <g id="text_15">
      <!-- 7000 -->
      <g transform="translate(30.840625 125.762546) scale(0.1 -0.1)">
       <defs>
        <path id="DejaVuSans-37" d="M 525 4666 
L 3525 4666 
L 3525 4397 
L 1831 0 
L 1172 0 
L 2766 4134 
L 525 4134 
L 525 4666 
z
" transform="scale(0.015625)"/>
       </defs>
       <use xlink:href="#DejaVuSans-37"/>
       <use xlink:href="#DejaVuSans-30" x="63.623047"/>
       <use xlink:href="#DejaVuSans-30" x="127.246094"/>
       <use xlink:href="#DejaVuSans-30" x="190.869141"/>
      </g>
     </g>
    </g>
    <g id="ytick_7">
     <g id="line2d_15">
      <g>
       <use xlink:href="#m6eaae5fc5c" x="63.290625" y="87.550372" style="stroke: #000000; stroke-width: 0.8"/>
      </g>
     </g>
     <g id="text_16">
      <!-- 8000 -->
      <g transform="translate(30.840625 91.349591) scale(0.1 -0.1)">
       <use xlink:href="#DejaVuSans-38"/>
       <use xlink:href="#DejaVuSans-30" x="63.623047"/>
       <use xlink:href="#DejaVuSans-30" x="127.246094"/>
       <use xlink:href="#DejaVuSans-30" x="190.869141"/>
      </g>
     </g>
    </g>
    <g id="ytick_8">
     <g id="line2d_16">
      <g>
       <use xlink:href="#m6eaae5fc5c" x="63.290625" y="53.137416" style="stroke: #000000; stroke-width: 0.8"/>
      </g>
     </g>
     <g id="text_17">
      <!-- 9000 -->
      <g transform="translate(30.840625 56.936635) scale(0.1 -0.1)">
       <use xlink:href="#DejaVuSans-39"/>
       <use xlink:href="#DejaVuSans-30" x="63.623047"/>
       <use xlink:href="#DejaVuSans-30" x="127.246094"/>
       <use xlink:href="#DejaVuSans-30" x="190.869141"/>
      </g>
     </g>
    </g>
    <g id="ytick_9">
     <g id="line2d_17">
      <g>
       <use xlink:href="#m6eaae5fc5c" x="63.290625" y="18.724461" style="stroke: #000000; stroke-width: 0.8"/>
      </g>
     </g>
     <g id="text_18">
      <!-- 10000 -->
      <g transform="translate(24.478125 22.523679) scale(0.1 -0.1)">
       <use xlink:href="#DejaVuSans-31"/>
       <use xlink:href="#DejaVuSans-30" x="63.623047"/>
       <use xlink:href="#DejaVuSans-30" x="127.246094"/>
       <use xlink:href="#DejaVuSans-30" x="190.869141"/>
       <use xlink:href="#DejaVuSans-30" x="254.492188"/>
      </g>
     </g>
    </g>
    <g id="text_19">
     <!-- CH4 concentration (MtCH4) -->
     <g transform="translate(18.398438 226.470312) rotate(-90) scale(0.1 -0.1)">
      <defs>
       <path id="DejaVuSans-43" d="M 4122 4306 
L 4122 3641 
Q 3803 3938 3442 4084 
Q 3081 4231 2675 4231 
Q 1875 4231 1450 3742 
Q 1025 3253 1025 2328 
Q 1025 1406 1450 917 
Q 1875 428 2675 428 
Q 3081 428 3442 575 
Q 3803 722 4122 1019 
L 4122 359 
Q 3791 134 3420 21 
Q 3050 -91 2638 -91 
Q 1578 -91 968 557 
Q 359 1206 359 2328 
Q 359 3453 968 4101 
Q 1578 4750 2638 4750 
Q 3056 4750 3426 4639 
Q 3797 4528 4122 4306 
z
" transform="scale(0.015625)"/>
       <path id="DejaVuSans-48" d="M 628 4666 
L 1259 4666 
L 1259 2753 
L 3553 2753 
L 3553 4666 
L 4184 4666 
L 4184 0 
L 3553 0 
L 3553 2222 
L 1259 2222 
L 1259 0 
L 628 0 
L 628 4666 
z
" transform="scale(0.015625)"/>
       <path id="DejaVuSans-20" transform="scale(0.015625)"/>
       <path id="DejaVuSans-63" d="M 3122 3366 
L 3122 2828 
Q 2878 2963 2633 3030 
Q 2388 3097 2138 3097 
Q 1578 3097 1268 2742 
Q 959 2388 959 1747 
Q 959 1106 1268 751 
Q 1578 397 2138 397 
Q 2388 397 2633 464 
Q 2878 531 3122 666 
L 3122 134 
Q 2881 22 2623 -34 
Q 2366 -91 2075 -91 
Q 1284 -91 818 406 
Q 353 903 353 1747 
Q 353 2603 823 3093 
Q 1294 3584 2113 3584 
Q 2378 3584 2631 3529 
Q 2884 3475 3122 3366 
z
" transform="scale(0.015625)"/>
       <path id="DejaVuSans-6f" d="M 1959 3097 
Q 1497 3097 1228 2736 
Q 959 2375 959 1747 
Q 959 1119 1226 758 
Q 1494 397 1959 397 
Q 2419 397 2687 759 
Q 2956 1122 2956 1747 
Q 2956 2369 2687 2733 
Q 2419 3097 1959 3097 
z
M 1959 3584 
Q 2709 3584 3137 3096 
Q 3566 2609 3566 1747 
Q 3566 888 3137 398 
Q 2709 -91 1959 -91 
Q 1206 -91 779 398 
Q 353 888 353 1747 
Q 353 2609 779 3096 
Q 1206 3584 1959 3584 
z
" transform="scale(0.015625)"/>
       <path id="DejaVuSans-6e" d="M 3513 2113 
L 3513 0 
L 2938 0 
L 2938 2094 
Q 2938 2591 2744 2837 
Q 2550 3084 2163 3084 
Q 1697 3084 1428 2787 
Q 1159 2491 1159 1978 
L 1159 0 
L 581 0 
L 581 3500 
L 1159 3500 
L 1159 2956 
Q 1366 3272 1645 3428 
Q 1925 3584 2291 3584 
Q 2894 3584 3203 3211 
Q 3513 2838 3513 2113 
z
" transform="scale(0.015625)"/>
       <path id="DejaVuSans-74" d="M 1172 4494 
L 1172 3500 
L 2356 3500 
L 2356 3053 
L 1172 3053 
L 1172 1153 
Q 1172 725 1289 603 
Q 1406 481 1766 481 
L 2356 481 
L 2356 0 
L 1766 0 
Q 1100 0 847 248 
Q 594 497 594 1153 
L 594 3053 
L 172 3053 
L 172 3500 
L 594 3500 
L 594 4494 
L 1172 4494 
z
" transform="scale(0.015625)"/>
       <path id="DejaVuSans-69" d="M 603 3500 
L 1178 3500 
L 1178 0 
L 603 0 
L 603 3500 
z
M 603 4863 
L 1178 4863 
L 1178 4134 
L 603 4134 
L 603 4863 
z
" transform="scale(0.015625)"/>
       <path id="DejaVuSans-28" d="M 1984 4856 
Q 1566 4138 1362 3434 
Q 1159 2731 1159 2009 
Q 1159 1288 1364 580 
Q 1569 -128 1984 -844 
L 1484 -844 
Q 1016 -109 783 600 
Q 550 1309 550 2009 
Q 550 2706 781 3412 
Q 1013 4119 1484 4856 
L 1984 4856 
z
" transform="scale(0.015625)"/>
       <path id="DejaVuSans-4d" d="M 628 4666 
L 1569 4666 
L 2759 1491 
L 3956 4666 
L 4897 4666 
L 4897 0 
L 4281 0 
L 4281 4097 
L 3078 897 
L 2444 897 
L 1241 4097 
L 1241 0 
L 628 0 
L 628 4666 
z
" transform="scale(0.015625)"/>
       <path id="DejaVuSans-29" d="M 513 4856 
L 1013 4856 
Q 1481 4119 1714 3412 
Q 1947 2706 1947 2009 
Q 1947 1309 1714 600 
Q 1481 -109 1013 -844 
L 513 -844 
Q 928 -128 1133 580 
Q 1338 1288 1338 2009 
Q 1338 2731 1133 3434 
Q 928 4138 513 4856 
z
" transform="scale(0.015625)"/>
      </defs>
      <use xlink:href="#DejaVuSans-43"/>
      <use xlink:href="#DejaVuSans-48" x="69.824219"/>
      <use xlink:href="#DejaVuSans-34" x="145.019531"/>
      <use xlink:href="#DejaVuSans-20" x="208.642578"/>
      <use xlink:href="#DejaVuSans-63" x="240.429688"/>
      <use xlink:href="#DejaVuSans-6f" x="295.410156"/>
      <use xlink:href="#DejaVuSans-6e" x="356.591797"/>
      <use xlink:href="#DejaVuSans-63" x="419.970703"/>
      <use xlink:href="#DejaVuSans-65" x="474.951172"/>
      <use xlink:href="#DejaVuSans-6e" x="536.474609"/>
      <use xlink:href="#DejaVuSans-74" x="599.853516"/>
      <use xlink:href="#DejaVuSans-72" x="639.0625"/>
      <use xlink:href="#DejaVuSans-61" x="680.175781"/>
      <use xlink:href="#DejaVuSans-74" x="741.455078"/>
      <use xlink:href="#DejaVuSans-69" x="780.664062"/>
      <use xlink:href="#DejaVuSans-6f" x="808.447266"/>
      <use xlink:href="#DejaVuSans-6e" x="869.628906"/>
      <use xlink:href="#DejaVuSans-20" x="933.007812"/>
      <use xlink:href="#DejaVuSans-28" x="964.794922"/>
      <use xlink:href="#DejaVuSans-4d" x="1003.808594"/>
      <use xlink:href="#DejaVuSans-74" x="1090.087891"/>
      <use xlink:href="#DejaVuSans-43" x="1129.296875"/>
      <use xlink:href="#DejaVuSans-48" x="1199.121094"/>
      <use xlink:href="#DejaVuSans-34" x="1274.316406"/>
      <use xlink:href="#DejaVuSans-29" x="1337.939453"/>
     </g>
    </g>
   </g>
   <g id="line2d_18">
    <path d="M 80.868324 291.096307 
L 82.743278 290.821991 
L 85.086972 290.635891 
L 86.024449 290.668842 
L 87.899403 290.352634 
L 90.243097 290.027404 
L 96.336699 289.406764 
L 101.024085 289.008927 
L 104.305256 288.510534 
L 107.117687 287.918245 
L 109.930119 287.093044 
L 112.742551 286.299052 
L 119.773631 284.746859 
L 121.179847 284.552417 
L 123.52354 284.458813 
L 124.461017 284.220202 
L 125.867233 283.654722 
L 127.273449 283.560631 
L 128.679665 283.467611 
L 131.023358 282.752494 
L 133.367051 281.714784 
L 135.710744 280.05027 
L 137.11696 279.222239 
L 141.804347 277.626874 
L 144.14804 276.417282 
L 146.491733 274.910515 
L 149.304165 273.106491 
L 149.772903 272.959014 
L 151.179119 272.048773 
L 152.116597 271.344442 
L 153.054074 270.423872 
L 156.803983 266.353162 
L 158.210199 265.582492 
L 159.147676 264.394441 
L 160.553892 262.285113 
L 161.960108 260.317067 
L 162.428847 259.893238 
L 163.366324 259.486077 
L 163.835062 259.273135 
L 164.77254 258.204748 
L 165.710017 257.142235 
L 167.116233 255.741228 
L 168.522449 254.313768 
L 168.991187 253.890838 
L 169.459926 253.274821 
L 170.397403 252.653708 
L 171.334881 251.729553 
L 172.741097 250.650319 
L 174.147312 249.012928 
L 174.616051 248.672428 
L 175.553528 247.643231 
L 176.491006 245.6693 
L 177.428483 243.052706 
L 178.36596 240.470502 
L 178.834699 239.499259 
L 179.772176 238.308071 
L 180.240915 237.021881 
L 181.178392 233.607761 
L 182.115869 231.167778 
L 182.584608 229.98742 
L 183.522085 226.546709 
L 184.459562 222.447781 
L 184.928301 220.665228 
L 186.334517 216.500397 
L 187.740733 211.089677 
L 189.146949 205.619131 
L 190.084426 202.678843 
L 191.021903 200.393846 
L 193.365597 194.361087 
L 194.303074 192.130221 
L 194.771812 191.839678 
L 195.70929 190.649716 
L 196.178028 190.457327 
L 196.646767 190.034429 
L 197.584244 188.396157 
L 198.052983 188.414738 
L 198.521722 188.55988 
L 198.99046 188.321454 
L 199.459199 187.867319 
L 199.927937 187.804483 
L 200.865415 187.883859 
L 201.334153 187.341306 
L 201.802892 186.412375 
L 202.271631 186.051182 
L 203.209108 184.975021 
L 203.677847 184.760059 
L 204.615324 183.169731 
L 205.552801 181.19548 
L 206.02154 179.12784 
L 206.490278 178.153447 
L 206.959017 177.461827 
L 207.427756 177.032112 
L 207.896494 176.847687 
L 208.365233 176.934042 
L 208.833972 177.313741 
L 209.30271 177.967161 
L 210.240187 180.019632 
L 211.177665 182.956065 
L 212.115142 186.661673 
L 215.396312 201.005222 
L 217.740006 210.107788 
L 220.083699 218.261643 
L 222.427392 225.609031 
L 223.833608 229.448038 
L 225.708562 233.858044 
L 227.583517 237.644071 
L 229.458472 240.953293 
L 231.802165 244.600994 
L 236.020812 250.67101 
L 238.833244 254.400143 
L 241.645676 257.787852 
L 243.989369 260.299447 
L 245.864324 261.976127 
L 247.27054 262.947405 
L 249.145494 263.906909 
L 251.020449 264.605445 
L 253.364142 265.25061 
L 256.645312 265.91991 
L 262.738915 266.880302 
L 278.20729 269.251603 
L 287.582062 270.904254 
L 298.83179 273.147328 
L 312.893949 275.930198 
L 318.050074 276.833781 
L 321.331244 277.100735 
L 326.487369 277.265754 
L 337.737097 277.330211 
L 432.422301 277.361507 
L 432.422301 277.361507 
" clip-path="url(#p169edd135c)" style="fill: none; stroke: #348abd; stroke-width: 1.5; stroke-linecap: square"/>
   </g>
   <g id="line2d_19">
    <path d="M 80.868324 291.096307 
L 82.743278 290.821991 
L 85.086972 290.635891 
L 86.024449 290.668842 
L 87.899403 290.352634 
L 90.243097 290.027404 
L 96.336699 289.406764 
L 101.024085 289.008927 
L 104.305256 288.510534 
L 107.117687 287.918245 
L 109.930119 287.093044 
L 112.742551 286.299052 
L 119.773631 284.746859 
L 121.179847 284.552417 
L 123.52354 284.458813 
L 124.461017 284.220202 
L 125.867233 283.654722 
L 127.273449 283.560631 
L 128.679665 283.467611 
L 131.023358 282.752494 
L 133.367051 281.714784 
L 135.710744 280.05027 
L 137.11696 279.222239 
L 141.804347 277.626874 
L 144.14804 276.417282 
L 146.491733 274.910515 
L 149.304165 273.106491 
L 149.772903 272.959014 
L 151.179119 272.048773 
L 152.116597 271.344442 
L 153.054074 270.423872 
L 156.803983 266.353162 
L 158.210199 265.582492 
L 159.147676 264.394441 
L 160.553892 262.285113 
L 161.960108 260.317067 
L 162.428847 259.893238 
L 163.366324 259.486077 
L 163.835062 259.273135 
L 164.77254 258.204748 
L 165.710017 257.142235 
L 167.116233 255.741228 
L 168.522449 254.313768 
L 168.991187 253.890838 
L 169.459926 253.274821 
L 170.397403 252.653708 
L 171.334881 251.729553 
L 172.741097 250.650319 
L 174.147312 249.012928 
L 174.616051 248.672428 
L 175.553528 247.643231 
L 176.491006 245.6693 
L 177.428483 243.052706 
L 178.36596 240.470502 
L 178.834699 239.499259 
L 179.772176 238.308071 
L 180.240915 237.021881 
L 181.178392 233.607761 
L 182.115869 231.167778 
L 182.584608 229.98742 
L 183.522085 226.546709 
L 184.459562 222.447781 
L 184.928301 220.665228 
L 186.334517 216.500397 
L 187.740733 211.089677 
L 189.146949 205.619131 
L 190.084426 202.678843 
L 191.021903 200.393846 
L 193.365597 194.361087 
L 194.303074 192.130221 
L 194.771812 191.839678 
L 195.70929 190.649716 
L 196.178028 190.457327 
L 196.646767 190.034429 
L 197.584244 188.396157 
L 198.052983 188.414738 
L 198.521722 188.55988 
L 198.99046 188.321454 
L 199.459199 187.867319 
L 199.927937 187.804483 
L 200.865415 187.883859 
L 201.334153 187.341306 
L 201.802892 186.412375 
L 202.271631 186.051182 
L 203.209108 184.975021 
L 203.677847 184.760059 
L 204.615324 183.169731 
L 205.552801 181.195468 
L 206.02154 179.01694 
L 207.427756 175.37008 
L 209.30271 171.397642 
L 211.177665 167.960882 
L 213.052619 164.945015 
L 213.990097 163.821675 
L 214.927574 163.015225 
L 215.865051 162.481514 
L 216.802528 162.185233 
L 217.740006 162.11166 
L 218.677483 162.352034 
L 219.61496 162.880852 
L 220.552437 163.658864 
L 221.958653 165.215869 
L 223.364869 167.21338 
L 224.771085 169.611177 
L 226.64604 173.28439 
L 228.520994 176.950728 
L 230.864687 181.000672 
L 236.020812 189.076044 
L 237.427028 191.061771 
L 239.301983 193.260391 
L 241.176937 195.053827 
L 243.051892 196.516631 
L 244.926847 197.720428 
L 247.27054 199.142038 
L 249.614233 200.825594 
L 252.895403 203.480433 
L 257.58279 207.617704 
L 265.551347 215.036728 
L 292.738187 240.553971 
L 311.018994 257.278659 
L 315.237642 261.00583 
L 316.643858 262.049703 
L 318.050074 262.801215 
L 319.45629 263.331985 
L 321.331244 263.805851 
L 323.674937 264.159042 
L 326.956108 264.409219 
L 332.580972 264.563249 
L 348.049347 264.647624 
L 432.422301 265.009059 
L 432.422301 265.009059 
" clip-path="url(#p169edd135c)" style="fill: none; stroke: #188487; stroke-width: 1.5; stroke-linecap: square"/>
   </g>
   <g id="line2d_20">
    <path d="M 80.868324 291.096307 
L 82.743278 290.821991 
L 85.086972 290.635891 
L 86.024449 290.668842 
L 87.899403 290.352634 
L 90.243097 290.027404 
L 96.336699 289.406764 
L 101.024085 289.008927 
L 104.305256 288.510534 
L 107.117687 287.918245 
L 109.930119 287.093044 
L 112.742551 286.299052 
L 119.773631 284.746859 
L 121.179847 284.552417 
L 123.52354 284.458813 
L 124.461017 284.220202 
L 125.867233 283.654722 
L 127.273449 283.560631 
L 128.679665 283.467611 
L 131.023358 282.752494 
L 133.367051 281.714784 
L 135.710744 280.05027 
L 137.11696 279.222239 
L 141.804347 277.626874 
L 144.14804 276.417282 
L 146.491733 274.910515 
L 149.304165 273.106491 
L 149.772903 272.959014 
L 151.179119 272.048773 
L 152.116597 271.344442 
L 153.054074 270.423872 
L 156.803983 266.353162 
L 158.210199 265.582492 
L 159.147676 264.394441 
L 160.553892 262.285113 
L 161.960108 260.317067 
L 162.428847 259.893238 
L 163.366324 259.486077 
L 163.835062 259.273135 
L 164.77254 258.204748 
L 165.710017 257.142235 
L 167.116233 255.741228 
L 168.522449 254.313768 
L 168.991187 253.890838 
L 169.459926 253.274821 
L 170.397403 252.653708 
L 171.334881 251.729553 
L 172.741097 250.650319 
L 174.147312 249.012928 
L 174.616051 248.672428 
L 175.553528 247.643231 
L 176.491006 245.6693 
L 177.428483 243.052706 
L 178.36596 240.470502 
L 178.834699 239.499259 
L 179.772176 238.308071 
L 180.240915 237.021881 
L 181.178392 233.607761 
L 182.115869 231.167778 
L 182.584608 229.98742 
L 183.522085 226.546709 
L 184.459562 222.447781 
L 184.928301 220.665228 
L 186.334517 216.500397 
L 187.740733 211.089677 
L 189.146949 205.619131 
L 190.084426 202.678843 
L 191.021903 200.393846 
L 193.365597 194.361087 
L 194.303074 192.130221 
L 194.771812 191.839678 
L 195.70929 190.649716 
L 196.178028 190.457327 
L 196.646767 190.034429 
L 197.584244 188.396157 
L 198.052983 188.414738 
L 198.521722 188.55988 
L 198.99046 188.321454 
L 199.459199 187.867319 
L 199.927937 187.804483 
L 200.865415 187.883859 
L 201.334153 187.341306 
L 201.802892 186.412375 
L 202.271631 186.051182 
L 203.209108 184.975021 
L 203.677847 184.760059 
L 204.615324 183.169731 
L 205.552801 181.195461 
L 206.02154 178.94726 
L 208.365233 171.112093 
L 210.708926 162.434321 
L 215.865051 141.983439 
L 221.958653 118.553966 
L 228.989733 91.496402 
L 239.770722 49.790157 
L 243.520631 36.732798 
L 245.864324 29.019483 
L 246.801801 26.785553 
L 247.739278 25.301179 
L 248.676756 24.45353 
L 249.145494 24.238678 
L 249.614233 24.147443 
L 250.55171 24.299523 
L 251.489187 24.836188 
L 252.426665 25.698574 
L 253.364142 26.830763 
L 254.770358 28.941101 
L 256.645312 32.332741 
L 258.989006 37.197008 
L 262.270176 44.648409 
L 278.20729 81.731753 
L 284.300892 94.971599 
L 290.863233 108.647051 
L 297.894312 122.776747 
L 306.331608 139.210052 
L 315.706381 157.01197 
L 317.112597 159.342059 
L 318.518812 161.142356 
L 319.925028 162.536481 
L 321.331244 163.621566 
L 323.206199 164.709595 
L 325.081153 165.503296 
L 327.424847 166.214583 
L 330.237278 166.806182 
L 333.987187 167.339895 
L 339.612051 167.883417 
L 349.924301 168.616295 
L 371.01754 169.874055 
L 400.548074 171.370223 
L 427.266176 172.49259 
L 432.422301 172.678018 
L 432.422301 172.678018 
" clip-path="url(#p169edd135c)" style="fill: none; stroke: #e24a33; stroke-width: 1.5; stroke-linecap: square"/>
   </g>
   <g id="line2d_21">
    <path d="M 80.868324 291.096307 
L 82.743278 290.821991 
L 85.086972 290.635891 
L 86.024449 290.668842 
L 87.899403 290.352634 
L 90.243097 290.027404 
L 96.336699 289.406764 
L 101.024085 289.008927 
L 104.305256 288.510534 
L 107.117687 287.918245 
L 109.930119 287.093044 
L 112.742551 286.299052 
L 119.773631 284.746859 
L 121.179847 284.552417 
L 123.52354 284.458813 
L 124.461017 284.220202 
L 125.867233 283.654722 
L 127.273449 283.560631 
L 128.679665 283.467611 
L 131.023358 282.752494 
L 133.367051 281.714784 
L 135.710744 280.05027 
L 137.11696 279.222239 
L 141.804347 277.626874 
L 144.14804 276.417282 
L 146.491733 274.910515 
L 149.304165 273.106491 
L 149.772903 272.959014 
L 151.179119 272.048773 
L 152.116597 271.344442 
L 153.054074 270.423872 
L 156.803983 266.353162 
L 158.210199 265.582492 
L 159.147676 264.394441 
L 160.553892 262.285113 
L 161.960108 260.317067 
L 162.428847 259.893238 
L 163.366324 259.486077 
L 163.835062 259.273135 
L 164.77254 258.204748 
L 165.710017 257.142235 
L 167.116233 255.741228 
L 168.522449 254.313768 
L 168.991187 253.890838 
L 169.459926 253.274821 
L 170.397403 252.653708 
L 171.334881 251.729553 
L 172.741097 250.650319 
L 174.147312 249.012928 
L 174.616051 248.672428 
L 175.553528 247.643231 
L 176.491006 245.6693 
L 177.428483 243.052706 
L 178.36596 240.470502 
L 178.834699 239.499259 
L 179.772176 238.308071 
L 180.240915 237.021881 
L 181.178392 233.607761 
L 182.115869 231.167778 
L 182.584608 229.98742 
L 183.522085 226.546709 
L 184.459562 222.447781 
L 184.928301 220.665228 
L 186.334517 216.500397 
L 187.740733 211.089677 
L 189.146949 205.619131 
L 190.084426 202.678843 
L 191.021903 200.393846 
L 193.365597 194.361087 
L 194.303074 192.130221 
L 194.771812 191.839678 
L 195.70929 190.649716 
L 196.178028 190.457327 
L 196.646767 190.034429 
L 197.584244 188.396157 
L 198.052983 188.414738 
L 198.521722 188.55988 
L 198.99046 188.321454 
L 199.459199 187.867319 
L 199.927937 187.804483 
L 200.865415 187.883859 
L 201.334153 187.341306 
L 201.802892 186.412375 
L 202.271631 186.051182 
L 203.209108 184.975021 
L 203.677847 184.760059 
L 204.615324 183.169731 
L 205.552801 181.195455 
L 206.02154 178.867766 
L 206.959017 175.214016 
L 208.365233 168.56711 
L 211.177665 155.317457 
L 213.990097 143.023397 
L 216.33379 133.808004 
L 218.208744 127.046324 
L 220.083699 121.156834 
L 221.958653 115.985502 
L 223.833608 111.516638 
L 225.708562 107.720794 
L 227.583517 104.489088 
L 228.989733 102.584794 
L 230.395949 101.063128 
L 231.802165 99.859335 
L 232.739642 99.298155 
L 233.677119 98.927307 
L 235.083335 98.666341 
L 236.489551 98.699703 
L 237.895767 99.039169 
L 239.301983 99.639599 
L 241.176937 100.739409 
L 244.926847 103.303006 
L 246.801801 104.723629 
L 249.145494 106.849661 
L 251.957926 109.756647 
L 255.707835 113.987114 
L 262.270176 121.791712 
L 274.457381 136.27558 
L 282.894676 145.918742 
L 291.331972 155.203803 
L 300.238006 164.663499 
L 309.612778 174.288018 
L 316.643858 181.249848 
L 318.050074 182.311383 
L 319.925028 183.387641 
L 321.799983 184.174473 
L 324.143676 184.871046 
L 326.956108 185.4234 
L 330.237278 185.825646 
L 334.924665 186.156273 
L 342.424483 186.428036 
L 357.424119 186.725308 
L 398.204381 187.298264 
L 432.422301 187.666174 
L 432.422301 187.666174 
" clip-path="url(#p169edd135c)" style="fill: none; stroke: #7a68a6; stroke-width: 1.5; stroke-linecap: square"/>
   </g>
   <g id="line2d_22">
    <path d="M 80.868324 291.096307 
L 82.743278 290.821991 
L 85.086972 290.635891 
L 86.024449 290.668842 
L 87.899403 290.352634 
L 90.243097 290.027404 
L 96.336699 289.406764 
L 101.024085 289.008927 
L 104.305256 288.510534 
L 107.117687 287.918245 
L 109.930119 287.093044 
L 112.742551 286.299052 
L 119.773631 284.746859 
L 121.179847 284.552417 
L 123.52354 284.458813 
L 124.461017 284.220202 
L 125.867233 283.654722 
L 127.273449 283.560631 
L 128.679665 283.467611 
L 131.023358 282.752494 
L 133.367051 281.714784 
L 135.710744 280.05027 
L 137.11696 279.222239 
L 141.804347 277.626874 
L 144.14804 276.417282 
L 146.491733 274.910515 
L 149.304165 273.106491 
L 149.772903 272.959014 
L 151.179119 272.048773 
L 152.116597 271.344442 
L 153.054074 270.423872 
L 156.803983 266.353162 
L 158.210199 265.582492 
L 159.147676 264.394441 
L 160.553892 262.285113 
L 161.960108 260.317067 
L 162.428847 259.893238 
L 163.366324 259.486077 
L 163.835062 259.273135 
L 164.77254 258.204748 
L 165.710017 257.142235 
L 167.116233 255.741228 
L 168.522449 254.313768 
L 168.991187 253.890838 
L 169.459926 253.274821 
L 170.397403 252.653708 
L 171.334881 251.729553 
L 172.741097 250.650319 
L 174.147312 249.012928 
L 174.616051 248.672428 
L 175.553528 247.643231 
L 176.491006 245.6693 
L 177.428483 243.052706 
L 178.36596 240.470502 
L 178.834699 239.499259 
L 179.772176 238.308071 
L 180.240915 237.021881 
L 181.178392 233.607761 
L 182.115869 231.167778 
L 182.584608 229.98742 
L 183.522085 226.546709 
L 184.459562 222.447781 
L 184.928301 220.665228 
L 186.334517 216.500397 
L 187.740733 211.089677 
L 189.146949 205.619131 
L 190.084426 202.678843 
L 191.021903 200.393846 
L 193.365597 194.361087 
L 194.303074 192.130221 
L 194.771812 191.839678 
L 195.70929 190.649716 
L 196.178028 190.457327 
L 196.646767 190.034429 
L 197.584244 188.396157 
L 198.052983 188.414738 
L 198.521722 188.55988 
L 198.99046 188.321454 
L 199.459199 187.867319 
L 199.927937 187.804483 
L 200.865415 187.883859 
L 201.334153 187.341306 
L 201.802892 186.412375 
L 202.271631 186.051182 
L 203.209108 184.975021 
L 203.677847 184.760059 
L 204.615324 183.169731 
L 205.552801 181.195472 
L 206.02154 179.04442 
L 206.959017 176.734794 
L 208.365233 174.089752 
L 209.771449 171.10035 
L 211.177665 167.501693 
L 213.052619 161.943776 
L 214.458835 156.735136 
L 215.865051 150.614087 
L 218.208744 139.074469 
L 222.427392 118.36364 
L 223.364869 114.52856 
L 224.302347 111.332174 
L 225.239824 108.689126 
L 226.177301 106.52975 
L 227.114778 104.786356 
L 228.052256 103.394195 
L 228.989733 102.301265 
L 229.92721 101.46832 
L 230.864687 100.860051 
L 231.802165 100.481367 
L 232.739642 100.514732 
L 233.677119 100.931703 
L 234.614597 101.676359 
L 235.552074 102.69572 
L 236.489551 103.981949 
L 237.427028 105.680232 
L 238.833244 108.912944 
L 240.23946 112.79122 
L 243.051892 120.963701 
L 245.395585 127.064137 
L 250.082972 138.43794 
L 253.832881 147.000916 
L 257.58279 155.044888 
L 261.332699 162.61402 
L 265.551347 170.647206 
L 270.238733 179.09343 
L 275.394858 187.937 
L 281.48846 197.946107 
L 288.988278 209.807517 
L 297.894312 223.465311 
L 309.612778 241.007249 
L 316.643858 251.254752 
L 318.050074 252.734234 
L 319.45629 253.848749 
L 320.862506 254.693467 
L 322.73746 255.524447 
L 325.081153 256.244568 
L 327.893585 256.831261 
L 331.643494 257.363992 
L 338.205835 258.015436 
L 350.39304 258.981814 
L 364.455199 259.906982 
L 388.360869 261.09803 
L 417.422665 262.327337 
L 432.422301 262.878712 
L 432.422301 262.878712 
" clip-path="url(#p169edd135c)" style="fill: none; stroke: #a60628; stroke-width: 1.5; stroke-linecap: square"/>
   </g>
   <g id="patch_2">
    <path d="M 63.290625 304.44375 
L 63.290625 10.8 
" style="fill: none; stroke: #000000; stroke-width: 0.8; stroke-linejoin: miter; stroke-linecap: square"/>
   </g>
   <g id="patch_3">
    <path d="M 450 304.44375 
L 450 10.8 
" style="fill: none; stroke: #000000; stroke-width: 0.8; stroke-linejoin: miter; stroke-linecap: square"/>
   </g>
   <g id="patch_4">
    <path d="M 63.290625 304.44375 
L 450 304.44375 
" style="fill: none; stroke: #000000; stroke-width: 0.8; stroke-linejoin: miter; stroke-linecap: square"/>
   </g>
   <g id="patch_5">
    <path d="M 63.290625 10.8 
L 450 10.8 
" style="fill: none; stroke: #000000; stroke-width: 0.8; stroke-linejoin: miter; stroke-linecap: square"/>
   </g>
   <g id="legend_1">
    <g id="patch_6">
     <path d="M 375.145312 92.190625 
L 443 92.190625 
Q 445 92.190625 445 90.190625 
L 445 17.8 
Q 445 15.8 443 15.8 
L 375.145312 15.8 
Q 373.145312 15.8 373.145312 17.8 
L 373.145312 90.190625 
Q 373.145312 92.190625 375.145312 92.190625 
z
" style="fill: #ffffff; opacity: 0.8; stroke: #cccccc; stroke-linejoin: miter"/>
    </g>
    <g id="line2d_23">
     <path d="M 377.145312 23.898438 
L 387.145312 23.898438 
L 397.145312 23.898438 
" style="fill: none; stroke: #348abd; stroke-width: 1.5; stroke-linecap: square"/>
    </g>
    <g id="text_20">
     <!-- ssp119 -->
     <g transform="translate(405.145312 27.398438) scale(0.1 -0.1)">
      <defs>
       <path id="DejaVuSans-73" d="M 2834 3397 
L 2834 2853 
Q 2591 2978 2328 3040 
Q 2066 3103 1784 3103 
Q 1356 3103 1142 2972 
Q 928 2841 928 2578 
Q 928 2378 1081 2264 
Q 1234 2150 1697 2047 
L 1894 2003 
Q 2506 1872 2764 1633 
Q 3022 1394 3022 966 
Q 3022 478 2636 193 
Q 2250 -91 1575 -91 
Q 1294 -91 989 -36 
Q 684 19 347 128 
L 347 722 
Q 666 556 975 473 
Q 1284 391 1588 391 
Q 1994 391 2212 530 
Q 2431 669 2431 922 
Q 2431 1156 2273 1281 
Q 2116 1406 1581 1522 
L 1381 1569 
Q 847 1681 609 1914 
Q 372 2147 372 2553 
Q 372 3047 722 3315 
Q 1072 3584 1716 3584 
Q 2034 3584 2315 3537 
Q 2597 3491 2834 3397 
z
" transform="scale(0.015625)"/>
       <path id="DejaVuSans-70" d="M 1159 525 
L 1159 -1331 
L 581 -1331 
L 581 3500 
L 1159 3500 
L 1159 2969 
Q 1341 3281 1617 3432 
Q 1894 3584 2278 3584 
Q 2916 3584 3314 3078 
Q 3713 2572 3713 1747 
Q 3713 922 3314 415 
Q 2916 -91 2278 -91 
Q 1894 -91 1617 61 
Q 1341 213 1159 525 
z
M 3116 1747 
Q 3116 2381 2855 2742 
Q 2594 3103 2138 3103 
Q 1681 3103 1420 2742 
Q 1159 2381 1159 1747 
Q 1159 1113 1420 752 
Q 1681 391 2138 391 
Q 2594 391 2855 752 
Q 3116 1113 3116 1747 
z
" transform="scale(0.015625)"/>
      </defs>
      <use xlink:href="#DejaVuSans-73"/>
      <use xlink:href="#DejaVuSans-73" x="52.099609"/>
      <use xlink:href="#DejaVuSans-70" x="104.199219"/>
      <use xlink:href="#DejaVuSans-31" x="167.675781"/>
      <use xlink:href="#DejaVuSans-31" x="231.298828"/>
      <use xlink:href="#DejaVuSans-39" x="294.921875"/>
     </g>
    </g>
    <g id="line2d_24">
     <path d="M 377.145312 38.576563 
L 387.145312 38.576563 
L 397.145312 38.576563 
" style="fill: none; stroke: #188487; stroke-width: 1.5; stroke-linecap: square"/>
    </g>
    <g id="text_21">
     <!-- ssp245 -->
     <g transform="translate(405.145312 42.076563) scale(0.1 -0.1)">
      <use xlink:href="#DejaVuSans-73"/>
      <use xlink:href="#DejaVuSans-73" x="52.099609"/>
      <use xlink:href="#DejaVuSans-70" x="104.199219"/>
      <use xlink:href="#DejaVuSans-32" x="167.675781"/>
      <use xlink:href="#DejaVuSans-34" x="231.298828"/>
      <use xlink:href="#DejaVuSans-35" x="294.921875"/>
     </g>
    </g>
    <g id="line2d_25">
     <path d="M 377.145312 53.254687 
L 387.145312 53.254687 
L 397.145312 53.254687 
" style="fill: none; stroke: #e24a33; stroke-width: 1.5; stroke-linecap: square"/>
    </g>
    <g id="text_22">
     <!-- ssp370 -->
     <g transform="translate(405.145312 56.754687) scale(0.1 -0.1)">
      <use xlink:href="#DejaVuSans-73"/>
      <use xlink:href="#DejaVuSans-73" x="52.099609"/>
      <use xlink:href="#DejaVuSans-70" x="104.199219"/>
      <use xlink:href="#DejaVuSans-33" x="167.675781"/>
      <use xlink:href="#DejaVuSans-37" x="231.298828"/>
      <use xlink:href="#DejaVuSans-30" x="294.921875"/>
     </g>
    </g>
    <g id="line2d_26">
     <path d="M 377.145312 67.932813 
L 387.145312 67.932813 
L 397.145312 67.932813 
" style="fill: none; stroke: #7a68a6; stroke-width: 1.5; stroke-linecap: square"/>
    </g>
    <g id="text_23">
     <!-- ssp460 -->
     <g transform="translate(405.145312 71.432813) scale(0.1 -0.1)">
      <use xlink:href="#DejaVuSans-73"/>
      <use xlink:href="#DejaVuSans-73" x="52.099609"/>
      <use xlink:href="#DejaVuSans-70" x="104.199219"/>
      <use xlink:href="#DejaVuSans-34" x="167.675781"/>
      <use xlink:href="#DejaVuSans-36" x="231.298828"/>
      <use xlink:href="#DejaVuSans-30" x="294.921875"/>
     </g>
    </g>
    <g id="line2d_27">
     <path d="M 377.145312 82.610938 
L 387.145312 82.610938 
L 397.145312 82.610938 
" style="fill: none; stroke: #a60628; stroke-width: 1.5; stroke-linecap: square"/>
    </g>
    <g id="text_24">
     <!-- ssp585 -->
     <g transform="translate(405.145312 86.110938) scale(0.1 -0.1)">
      <use xlink:href="#DejaVuSans-73"/>
      <use xlink:href="#DejaVuSans-73" x="52.099609"/>
      <use xlink:href="#DejaVuSans-70" x="104.199219"/>
      <use xlink:href="#DejaVuSans-35" x="167.675781"/>
      <use xlink:href="#DejaVuSans-38" x="231.298828"/>
      <use xlink:href="#DejaVuSans-35" x="294.921875"/>
     </g>
    </g>
   </g>
  </g>
 </g>
 <defs>
  <clipPath id="p169edd135c">
   <rect x="63.290625" y="10.8" width="386.709375" height="293.64375"/>
  </clipPath>
 </defs>
</svg>
