<?xml version="1.0" encoding="utf-8" standalone="no"?>
<!DOCTYPE svg PUBLIC "-//W3C//DTD SVG 1.1//EN"
  "http://www.w3.org/Graphics/SVG/1.1/DTD/svg11.dtd">
<svg xmlns:xlink="http://www.w3.org/1999/xlink" width="460.8pt" height="345.6pt" viewBox="0 0 460.8 345.6" xmlns="http://www.w3.org/2000/svg" version="1.1">
 <metadata>
  <rdf:RDF xmlns:dc="http://purl.org/dc/elements/1.1/" xmlns:cc="http://creativecommons.org/ns#" xmlns:rdf="http://www.w3.org/1999/02/22-rdf-syntax-ns#">
   <cc:Work>
    <dc:type rdf:resource="http://purl.org/dc/dcmitype/StillImage"/>
    <dc:date>2024-10-09T09:57:23.908249</dc:date>
    <dc:format>image/svg+xml</dc:format>
    <dc:creator>
     <cc:Agent>
      <dc:title>Matplotlib v3.9.0, https://matplotlib.org/</dc:title>
     </cc:Agent>
    </dc:creator>
   </cc:Work>
  </rdf:RDF>
 </metadata>
 <defs>
  <style type="text/css">*{stroke-linejoin: round; stroke-linecap: butt}</style>
 </defs>
 <g id="figure_1">
  <g id="axes_1">
   <g id="patch_1">
    <path d="M 47.38125 304.44375 
L 450 304.44375 
L 450 10.8 
L 47.38125 10.8 
L 47.38125 304.44375 
z
" style="fill: none"/>
   </g>
   <g id="matplotlib.axis_1">
    <g id="xtick_1">
     <g id="line2d_1">
      <defs>
       <path id="m8c30b2ff87" d="M 0 0 
L 0 3.5 
" style="stroke: #000000; stroke-width: 0.8"/>
      </defs>
      <g>
       <use xlink:href="#m8c30b2ff87" x="90.083239" y="304.44375" style="stroke: #000000; stroke-width: 0.8"/>
      </g>
     </g>
     <g id="text_1">
      <!-- 1800 -->
      <g transform="translate(77.358239 319.042187) scale(0.1 -0.1)">
       <defs>
        <path id="DejaVuSans-31" d="M 794 531 
L 1825 531 
L 1825 4091 
L 703 3866 
L 703 4441 
L 1819 4666 
L 2450 4666 
L 2450 531 
L 3481 531 
L 3481 0 
L 794 0 
L 794 531 
z
" transform="scale(0.015625)"/>
        <path id="DejaVuSans-38" d="M 2034 2216 
Q 1584 2216 1326 1975 
Q 1069 1734 1069 1313 
Q 1069 891 1326 650 
Q 1584 409 2034 409 
Q 2484 409 2743 651 
Q 3003 894 3003 1313 
Q 3003 1734 2745 1975 
Q 2488 2216 2034 2216 
z
M 1403 2484 
Q 997 2584 770 2862 
Q 544 3141 544 3541 
Q 544 4100 942 4425 
Q 1341 4750 2034 4750 
Q 2731 4750 3128 4425 
Q 3525 4100 3525 3541 
Q 3525 3141 3298 2862 
Q 3072 2584 2669 2484 
Q 3125 2378 3379 2068 
Q 3634 1759 3634 1313 
Q 3634 634 3220 271 
Q 2806 -91 2034 -91 
Q 1263 -91 848 271 
Q 434 634 434 1313 
Q 434 1759 690 2068 
Q 947 2378 1403 2484 
z
M 1172 3481 
Q 1172 3119 1398 2916 
Q 1625 2713 2034 2713 
Q 2441 2713 2670 2916 
Q 2900 3119 2900 3481 
Q 2900 3844 2670 4047 
Q 2441 4250 2034 4250 
Q 1625 4250 1398 4047 
Q 1172 3844 1172 3481 
z
" transform="scale(0.015625)"/>
        <path id="DejaVuSans-30" d="M 2034 4250 
Q 1547 4250 1301 3770 
Q 1056 3291 1056 2328 
Q 1056 1369 1301 889 
Q 1547 409 2034 409 
Q 2525 409 2770 889 
Q 3016 1369 3016 2328 
Q 3016 3291 2770 3770 
Q 2525 4250 2034 4250 
z
M 2034 4750 
Q 2819 4750 3233 4129 
Q 3647 3509 3647 2328 
Q 3647 1150 3233 529 
Q 2819 -91 2034 -91 
Q 1250 -91 836 529 
Q 422 1150 422 2328 
Q 422 3509 836 4129 
Q 1250 4750 2034 4750 
z
" transform="scale(0.015625)"/>
       </defs>
       <use xlink:href="#DejaVuSans-31"/>
       <use xlink:href="#DejaVuSans-38" x="63.623047"/>
       <use xlink:href="#DejaVuSans-30" x="127.246094"/>
       <use xlink:href="#DejaVuSans-30" x="190.869141"/>
      </g>
     </g>
    </g>
    <g id="xtick_2">
     <g id="line2d_2">
      <g>
       <use xlink:href="#m8c30b2ff87" x="138.885511" y="304.44375" style="stroke: #000000; stroke-width: 0.8"/>
      </g>
     </g>
     <g id="text_2">
      <!-- 1900 -->
      <g transform="translate(126.160511 319.042187) scale(0.1 -0.1)">
       <defs>
        <path id="DejaVuSans-39" d="M 703 97 
L 703 672 
Q 941 559 1184 500 
Q 1428 441 1663 441 
Q 2288 441 2617 861 
Q 2947 1281 2994 2138 
Q 2813 1869 2534 1725 
Q 2256 1581 1919 1581 
Q 1219 1581 811 2004 
Q 403 2428 403 3163 
Q 403 3881 828 4315 
Q 1253 4750 1959 4750 
Q 2769 4750 3195 4129 
Q 3622 3509 3622 2328 
Q 3622 1225 3098 567 
Q 2575 -91 1691 -91 
Q 1453 -91 1209 -44 
Q 966 3 703 97 
z
M 1959 2075 
Q 2384 2075 2632 2365 
Q 2881 2656 2881 3163 
Q 2881 3666 2632 3958 
Q 2384 4250 1959 4250 
Q 1534 4250 1286 3958 
Q 1038 3666 1038 3163 
Q 1038 2656 1286 2365 
Q 1534 2075 1959 2075 
z
" transform="scale(0.015625)"/>
       </defs>
       <use xlink:href="#DejaVuSans-31"/>
       <use xlink:href="#DejaVuSans-39" x="63.623047"/>
       <use xlink:href="#DejaVuSans-30" x="127.246094"/>
       <use xlink:href="#DejaVuSans-30" x="190.869141"/>
      </g>
     </g>
    </g>
    <g id="xtick_3">
     <g id="line2d_3">
      <g>
       <use xlink:href="#m8c30b2ff87" x="187.687784" y="304.44375" style="stroke: #000000; stroke-width: 0.8"/>
      </g>
     </g>
     <g id="text_3">
      <!-- 2000 -->
      <g transform="translate(174.962784 319.042187) scale(0.1 -0.1)">
       <defs>
        <path id="DejaVuSans-32" d="M 1228 531 
L 3431 531 
L 3431 0 
L 469 0 
L 469 531 
Q 828 903 1448 1529 
Q 2069 2156 2228 2338 
Q 2531 2678 2651 2914 
Q 2772 3150 2772 3378 
Q 2772 3750 2511 3984 
Q 2250 4219 1831 4219 
Q 1534 4219 1204 4116 
Q 875 4013 500 3803 
L 500 4441 
Q 881 4594 1212 4672 
Q 1544 4750 1819 4750 
Q 2544 4750 2975 4387 
Q 3406 4025 3406 3419 
Q 3406 3131 3298 2873 
Q 3191 2616 2906 2266 
Q 2828 2175 2409 1742 
Q 1991 1309 1228 531 
z
" transform="scale(0.015625)"/>
       </defs>
       <use xlink:href="#DejaVuSans-32"/>
       <use xlink:href="#DejaVuSans-30" x="63.623047"/>
       <use xlink:href="#DejaVuSans-30" x="127.246094"/>
       <use xlink:href="#DejaVuSans-30" x="190.869141"/>
      </g>
     </g>
    </g>
    <g id="xtick_4">
     <g id="line2d_4">
      <g>
       <use xlink:href="#m8c30b2ff87" x="236.490057" y="304.44375" style="stroke: #000000; stroke-width: 0.8"/>
      </g>
     </g>
     <g id="text_4">
      <!-- 2100 -->
      <g transform="translate(223.765057 319.042187) scale(0.1 -0.1)">
       <use xlink:href="#DejaVuSans-32"/>
       <use xlink:href="#DejaVuSans-31" x="63.623047"/>
       <use xlink:href="#DejaVuSans-30" x="127.246094"/>
       <use xlink:href="#DejaVuSans-30" x="190.869141"/>
      </g>
     </g>
    </g>
    <g id="xtick_5">
     <g id="line2d_5">
      <g>
       <use xlink:href="#m8c30b2ff87" x="285.29233" y="304.44375" style="stroke: #000000; stroke-width: 0.8"/>
      </g>
     </g>
     <g id="text_5">
      <!-- 2200 -->
      <g transform="translate(272.56733 319.042187) scale(0.1 -0.1)">
       <use xlink:href="#DejaVuSans-32"/>
       <use xlink:href="#DejaVuSans-32" x="63.623047"/>
       <use xlink:href="#DejaVuSans-30" x="127.246094"/>
       <use xlink:href="#DejaVuSans-30" x="190.869141"/>
      </g>
     </g>
    </g>
    <g id="xtick_6">
     <g id="line2d_6">
      <g>
       <use xlink:href="#m8c30b2ff87" x="334.094602" y="304.44375" style="stroke: #000000; stroke-width: 0.8"/>
      </g>
     </g>
     <g id="text_6">
      <!-- 2300 -->
      <g transform="translate(321.369602 319.042187) scale(0.1 -0.1)">
       <defs>
        <path id="DejaVuSans-33" d="M 2597 2516 
Q 3050 2419 3304 2112 
Q 3559 1806 3559 1356 
Q 3559 666 3084 287 
Q 2609 -91 1734 -91 
Q 1441 -91 1130 -33 
Q 819 25 488 141 
L 488 750 
Q 750 597 1062 519 
Q 1375 441 1716 441 
Q 2309 441 2620 675 
Q 2931 909 2931 1356 
Q 2931 1769 2642 2001 
Q 2353 2234 1838 2234 
L 1294 2234 
L 1294 2753 
L 1863 2753 
Q 2328 2753 2575 2939 
Q 2822 3125 2822 3475 
Q 2822 3834 2567 4026 
Q 2313 4219 1838 4219 
Q 1578 4219 1281 4162 
Q 984 4106 628 3988 
L 628 4550 
Q 988 4650 1302 4700 
Q 1616 4750 1894 4750 
Q 2613 4750 3031 4423 
Q 3450 4097 3450 3541 
Q 3450 3153 3228 2886 
Q 3006 2619 2597 2516 
z
" transform="scale(0.015625)"/>
       </defs>
       <use xlink:href="#DejaVuSans-32"/>
       <use xlink:href="#DejaVuSans-33" x="63.623047"/>
       <use xlink:href="#DejaVuSans-30" x="127.246094"/>
       <use xlink:href="#DejaVuSans-30" x="190.869141"/>
      </g>
     </g>
    </g>
    <g id="xtick_7">
     <g id="line2d_7">
      <g>
       <use xlink:href="#m8c30b2ff87" x="382.896875" y="304.44375" style="stroke: #000000; stroke-width: 0.8"/>
      </g>
     </g>
     <g id="text_7">
      <!-- 2400 -->
      <g transform="translate(370.171875 319.042187) scale(0.1 -0.1)">
       <defs>
        <path id="DejaVuSans-34" d="M 2419 4116 
L 825 1625 
L 2419 1625 
L 2419 4116 
z
M 2253 4666 
L 3047 4666 
L 3047 1625 
L 3713 1625 
L 3713 1100 
L 3047 1100 
L 3047 0 
L 2419 0 
L 2419 1100 
L 313 1100 
L 313 1709 
L 2253 4666 
z
" transform="scale(0.015625)"/>
       </defs>
       <use xlink:href="#DejaVuSans-32"/>
       <use xlink:href="#DejaVuSans-34" x="63.623047"/>
       <use xlink:href="#DejaVuSans-30" x="127.246094"/>
       <use xlink:href="#DejaVuSans-30" x="190.869141"/>
      </g>
     </g>
    </g>
    <g id="xtick_8">
     <g id="line2d_8">
      <g>
       <use xlink:href="#m8c30b2ff87" x="431.699148" y="304.44375" style="stroke: #000000; stroke-width: 0.8"/>
      </g>
     </g>
     <g id="text_8">
      <!-- 2500 -->
      <g transform="translate(418.974148 319.042187) scale(0.1 -0.1)">
       <defs>
        <path id="DejaVuSans-35" d="M 691 4666 
L 3169 4666 
L 3169 4134 
L 1269 4134 
L 1269 2991 
Q 1406 3038 1543 3061 
Q 1681 3084 1819 3084 
Q 2600 3084 3056 2656 
Q 3513 2228 3513 1497 
Q 3513 744 3044 326 
Q 2575 -91 1722 -91 
Q 1428 -91 1123 -41 
Q 819 9 494 109 
L 494 744 
Q 775 591 1075 516 
Q 1375 441 1709 441 
Q 2250 441 2565 725 
Q 2881 1009 2881 1497 
Q 2881 1984 2565 2268 
Q 2250 2553 1709 2553 
Q 1456 2553 1204 2497 
Q 953 2441 691 2322 
L 691 4666 
z
" transform="scale(0.015625)"/>
       </defs>
       <use xlink:href="#DejaVuSans-32"/>
       <use xlink:href="#DejaVuSans-35" x="63.623047"/>
       <use xlink:href="#DejaVuSans-30" x="127.246094"/>
       <use xlink:href="#DejaVuSans-30" x="190.869141"/>
      </g>
     </g>
    </g>
    <g id="text_9">
     <!-- Year -->
     <g transform="translate(238.103125 332.720312) scale(0.1 -0.1)">
      <defs>
       <path id="DejaVuSans-59" d="M -13 4666 
L 666 4666 
L 1959 2747 
L 3244 4666 
L 3922 4666 
L 2272 2222 
L 2272 0 
L 1638 0 
L 1638 2222 
L -13 4666 
z
" transform="scale(0.015625)"/>
       <path id="DejaVuSans-65" d="M 3597 1894 
L 3597 1613 
L 953 1613 
Q 991 1019 1311 708 
Q 1631 397 2203 397 
Q 2534 397 2845 478 
Q 3156 559 3463 722 
L 3463 178 
Q 3153 47 2828 -22 
Q 2503 -91 2169 -91 
Q 1331 -91 842 396 
Q 353 884 353 1716 
Q 353 2575 817 3079 
Q 1281 3584 2069 3584 
Q 2775 3584 3186 3129 
Q 3597 2675 3597 1894 
z
M 3022 2063 
Q 3016 2534 2758 2815 
Q 2500 3097 2075 3097 
Q 1594 3097 1305 2825 
Q 1016 2553 972 2059 
L 3022 2063 
z
" transform="scale(0.015625)"/>
       <path id="DejaVuSans-61" d="M 2194 1759 
Q 1497 1759 1228 1600 
Q 959 1441 959 1056 
Q 959 750 1161 570 
Q 1363 391 1709 391 
Q 2188 391 2477 730 
Q 2766 1069 2766 1631 
L 2766 1759 
L 2194 1759 
z
M 3341 1997 
L 3341 0 
L 2766 0 
L 2766 531 
Q 2569 213 2275 61 
Q 1981 -91 1556 -91 
Q 1019 -91 701 211 
Q 384 513 384 1019 
Q 384 1609 779 1909 
Q 1175 2209 1959 2209 
L 2766 2209 
L 2766 2266 
Q 2766 2663 2505 2880 
Q 2244 3097 1772 3097 
Q 1472 3097 1187 3025 
Q 903 2953 641 2809 
L 641 3341 
Q 956 3463 1253 3523 
Q 1550 3584 1831 3584 
Q 2591 3584 2966 3190 
Q 3341 2797 3341 1997 
z
" transform="scale(0.015625)"/>
       <path id="DejaVuSans-72" d="M 2631 2963 
Q 2534 3019 2420 3045 
Q 2306 3072 2169 3072 
Q 1681 3072 1420 2755 
Q 1159 2438 1159 1844 
L 1159 0 
L 581 0 
L 581 3500 
L 1159 3500 
L 1159 2956 
Q 1341 3275 1631 3429 
Q 1922 3584 2338 3584 
Q 2397 3584 2469 3576 
Q 2541 3569 2628 3553 
L 2631 2963 
z
" transform="scale(0.015625)"/>
      </defs>
      <use xlink:href="#DejaVuSans-59"/>
      <use xlink:href="#DejaVuSans-65" x="47.833984"/>
      <use xlink:href="#DejaVuSans-61" x="109.357422"/>
      <use xlink:href="#DejaVuSans-72" x="170.636719"/>
     </g>
    </g>
   </g>
   <g id="matplotlib.axis_2">
    <g id="ytick_1">
     <g id="line2d_9">
      <defs>
       <path id="mac834cb227" d="M 0 0 
L -3.5 0 
" style="stroke: #000000; stroke-width: 0.8"/>
      </defs>
      <g>
       <use xlink:href="#mac834cb227" x="47.38125" y="291.096307" style="stroke: #000000; stroke-width: 0.8"/>
      </g>
     </g>
     <g id="text_10">
      <!-- 0.0 -->
      <g transform="translate(24.478125 294.895526) scale(0.1 -0.1)">
       <defs>
        <path id="DejaVuSans-2e" d="M 684 794 
L 1344 794 
L 1344 0 
L 684 0 
L 684 794 
z
" transform="scale(0.015625)"/>
       </defs>
       <use xlink:href="#DejaVuSans-30"/>
       <use xlink:href="#DejaVuSans-2e" x="63.623047"/>
       <use xlink:href="#DejaVuSans-30" x="95.410156"/>
      </g>
     </g>
    </g>
    <g id="ytick_2">
     <g id="line2d_10">
      <g>
       <use xlink:href="#mac834cb227" x="47.38125" y="238.721435" style="stroke: #000000; stroke-width: 0.8"/>
      </g>
     </g>
     <g id="text_11">
      <!-- 0.2 -->
      <g transform="translate(24.478125 242.520654) scale(0.1 -0.1)">
       <use xlink:href="#DejaVuSans-30"/>
       <use xlink:href="#DejaVuSans-2e" x="63.623047"/>
       <use xlink:href="#DejaVuSans-32" x="95.410156"/>
      </g>
     </g>
    </g>
    <g id="ytick_3">
     <g id="line2d_11">
      <g>
       <use xlink:href="#mac834cb227" x="47.38125" y="186.346563" style="stroke: #000000; stroke-width: 0.8"/>
      </g>
     </g>
     <g id="text_12">
      <!-- 0.4 -->
      <g transform="translate(24.478125 190.145782) scale(0.1 -0.1)">
       <use xlink:href="#DejaVuSans-30"/>
       <use xlink:href="#DejaVuSans-2e" x="63.623047"/>
       <use xlink:href="#DejaVuSans-34" x="95.410156"/>
      </g>
     </g>
    </g>
    <g id="ytick_4">
     <g id="line2d_12">
      <g>
       <use xlink:href="#mac834cb227" x="47.38125" y="133.971691" style="stroke: #000000; stroke-width: 0.8"/>
      </g>
     </g>
     <g id="text_13">
      <!-- 0.6 -->
      <g transform="translate(24.478125 137.77091) scale(0.1 -0.1)">
       <defs>
        <path id="DejaVuSans-36" d="M 2113 2584 
Q 1688 2584 1439 2293 
Q 1191 2003 1191 1497 
Q 1191 994 1439 701 
Q 1688 409 2113 409 
Q 2538 409 2786 701 
Q 3034 994 3034 1497 
Q 3034 2003 2786 2293 
Q 2538 2584 2113 2584 
z
M 3366 4563 
L 3366 3988 
Q 3128 4100 2886 4159 
Q 2644 4219 2406 4219 
Q 1781 4219 1451 3797 
Q 1122 3375 1075 2522 
Q 1259 2794 1537 2939 
Q 1816 3084 2150 3084 
Q 2853 3084 3261 2657 
Q 3669 2231 3669 1497 
Q 3669 778 3244 343 
Q 2819 -91 2113 -91 
Q 1303 -91 875 529 
Q 447 1150 447 2328 
Q 447 3434 972 4092 
Q 1497 4750 2381 4750 
Q 2619 4750 2861 4703 
Q 3103 4656 3366 4563 
z
" transform="scale(0.015625)"/>
       </defs>
       <use xlink:href="#DejaVuSans-30"/>
       <use xlink:href="#DejaVuSans-2e" x="63.623047"/>
       <use xlink:href="#DejaVuSans-36" x="95.410156"/>
      </g>
     </g>
    </g>
    <g id="ytick_5">
     <g id="line2d_13">
      <g>
       <use xlink:href="#mac834cb227" x="47.38125" y="81.596819" style="stroke: #000000; stroke-width: 0.8"/>
      </g>
     </g>
     <g id="text_14">
      <!-- 0.8 -->
      <g transform="translate(24.478125 85.396038) scale(0.1 -0.1)">
       <use xlink:href="#DejaVuSans-30"/>
       <use xlink:href="#DejaVuSans-2e" x="63.623047"/>
       <use xlink:href="#DejaVuSans-38" x="95.410156"/>
      </g>
     </g>
    </g>
    <g id="ytick_6">
     <g id="line2d_14">
      <g>
       <use xlink:href="#mac834cb227" x="47.38125" y="29.221947" style="stroke: #000000; stroke-width: 0.8"/>
      </g>
     </g>
     <g id="text_15">
      <!-- 1.0 -->
      <g transform="translate(24.478125 33.021166) scale(0.1 -0.1)">
       <use xlink:href="#DejaVuSans-31"/>
       <use xlink:href="#DejaVuSans-2e" x="63.623047"/>
       <use xlink:href="#DejaVuSans-30" x="95.410156"/>
      </g>
     </g>
    </g>
    <g id="text_16">
     <!-- CH4 effective radiative forcing (W m-2) -->
     <g transform="translate(18.398438 255.884375) rotate(-90) scale(0.1 -0.1)">
      <defs>
       <path id="DejaVuSans-43" d="M 4122 4306 
L 4122 3641 
Q 3803 3938 3442 4084 
Q 3081 4231 2675 4231 
Q 1875 4231 1450 3742 
Q 1025 3253 1025 2328 
Q 1025 1406 1450 917 
Q 1875 428 2675 428 
Q 3081 428 3442 575 
Q 3803 722 4122 1019 
L 4122 359 
Q 3791 134 3420 21 
Q 3050 -91 2638 -91 
Q 1578 -91 968 557 
Q 359 1206 359 2328 
Q 359 3453 968 4101 
Q 1578 4750 2638 4750 
Q 3056 4750 3426 4639 
Q 3797 4528 4122 4306 
z
" transform="scale(0.015625)"/>
       <path id="DejaVuSans-48" d="M 628 4666 
L 1259 4666 
L 1259 2753 
L 3553 2753 
L 3553 4666 
L 4184 4666 
L 4184 0 
L 3553 0 
L 3553 2222 
L 1259 2222 
L 1259 0 
L 628 0 
L 628 4666 
z
" transform="scale(0.015625)"/>
       <path id="DejaVuSans-20" transform="scale(0.015625)"/>
       <path id="DejaVuSans-66" d="M 2375 4863 
L 2375 4384 
L 1825 4384 
Q 1516 4384 1395 4259 
Q 1275 4134 1275 3809 
L 1275 3500 
L 2222 3500 
L 2222 3053 
L 1275 3053 
L 1275 0 
L 697 0 
L 697 3053 
L 147 3053 
L 147 3500 
L 697 3500 
L 697 3744 
Q 697 4328 969 4595 
Q 1241 4863 1831 4863 
L 2375 4863 
z
" transform="scale(0.015625)"/>
       <path id="DejaVuSans-63" d="M 3122 3366 
L 3122 2828 
Q 2878 2963 2633 3030 
Q 2388 3097 2138 3097 
Q 1578 3097 1268 2742 
Q 959 2388 959 1747 
Q 959 1106 1268 751 
Q 1578 397 2138 397 
Q 2388 397 2633 464 
Q 2878 531 3122 666 
L 3122 134 
Q 2881 22 2623 -34 
Q 2366 -91 2075 -91 
Q 1284 -91 818 406 
Q 353 903 353 1747 
Q 353 2603 823 3093 
Q 1294 3584 2113 3584 
Q 2378 3584 2631 3529 
Q 2884 3475 3122 3366 
z
" transform="scale(0.015625)"/>
       <path id="DejaVuSans-74" d="M 1172 4494 
L 1172 3500 
L 2356 3500 
L 2356 3053 
L 1172 3053 
L 1172 1153 
Q 1172 725 1289 603 
Q 1406 481 1766 481 
L 2356 481 
L 2356 0 
L 1766 0 
Q 1100 0 847 248 
Q 594 497 594 1153 
L 594 3053 
L 172 3053 
L 172 3500 
L 594 3500 
L 594 4494 
L 1172 4494 
z
" transform="scale(0.015625)"/>
       <path id="DejaVuSans-69" d="M 603 3500 
L 1178 3500 
L 1178 0 
L 603 0 
L 603 3500 
z
M 603 4863 
L 1178 4863 
L 1178 4134 
L 603 4134 
L 603 4863 
z
" transform="scale(0.015625)"/>
       <path id="DejaVuSans-76" d="M 191 3500 
L 800 3500 
L 1894 563 
L 2988 3500 
L 3597 3500 
L 2284 0 
L 1503 0 
L 191 3500 
z
" transform="scale(0.015625)"/>
       <path id="DejaVuSans-64" d="M 2906 2969 
L 2906 4863 
L 3481 4863 
L 3481 0 
L 2906 0 
L 2906 525 
Q 2725 213 2448 61 
Q 2172 -91 1784 -91 
Q 1150 -91 751 415 
Q 353 922 353 1747 
Q 353 2572 751 3078 
Q 1150 3584 1784 3584 
Q 2172 3584 2448 3432 
Q 2725 3281 2906 2969 
z
M 947 1747 
Q 947 1113 1208 752 
Q 1469 391 1925 391 
Q 2381 391 2643 752 
Q 2906 1113 2906 1747 
Q 2906 2381 2643 2742 
Q 2381 3103 1925 3103 
Q 1469 3103 1208 2742 
Q 947 2381 947 1747 
z
" transform="scale(0.015625)"/>
       <path id="DejaVuSans-6f" d="M 1959 3097 
Q 1497 3097 1228 2736 
Q 959 2375 959 1747 
Q 959 1119 1226 758 
Q 1494 397 1959 397 
Q 2419 397 2687 759 
Q 2956 1122 2956 1747 
Q 2956 2369 2687 2733 
Q 2419 3097 1959 3097 
z
M 1959 3584 
Q 2709 3584 3137 3096 
Q 3566 2609 3566 1747 
Q 3566 888 3137 398 
Q 2709 -91 1959 -91 
Q 1206 -91 779 398 
Q 353 888 353 1747 
Q 353 2609 779 3096 
Q 1206 3584 1959 3584 
z
" transform="scale(0.015625)"/>
       <path id="DejaVuSans-6e" d="M 3513 2113 
L 3513 0 
L 2938 0 
L 2938 2094 
Q 2938 2591 2744 2837 
Q 2550 3084 2163 3084 
Q 1697 3084 1428 2787 
Q 1159 2491 1159 1978 
L 1159 0 
L 581 0 
L 581 3500 
L 1159 3500 
L 1159 2956 
Q 1366 3272 1645 3428 
Q 1925 3584 2291 3584 
Q 2894 3584 3203 3211 
Q 3513 2838 3513 2113 
z
" transform="scale(0.015625)"/>
       <path id="DejaVuSans-67" d="M 2906 1791 
Q 2906 2416 2648 2759 
Q 2391 3103 1925 3103 
Q 1463 3103 1205 2759 
Q 947 2416 947 1791 
Q 947 1169 1205 825 
Q 1463 481 1925 481 
Q 2391 481 2648 825 
Q 2906 1169 2906 1791 
z
M 3481 434 
Q 3481 -459 3084 -895 
Q 2688 -1331 1869 -1331 
Q 1566 -1331 1297 -1286 
Q 1028 -1241 775 -1147 
L 775 -588 
Q 1028 -725 1275 -790 
Q 1522 -856 1778 -856 
Q 2344 -856 2625 -561 
Q 2906 -266 2906 331 
L 2906 616 
Q 2728 306 2450 153 
Q 2172 0 1784 0 
Q 1141 0 747 490 
Q 353 981 353 1791 
Q 353 2603 747 3093 
Q 1141 3584 1784 3584 
Q 2172 3584 2450 3431 
Q 2728 3278 2906 2969 
L 2906 3500 
L 3481 3500 
L 3481 434 
z
" transform="scale(0.015625)"/>
       <path id="DejaVuSans-28" d="M 1984 4856 
Q 1566 4138 1362 3434 
Q 1159 2731 1159 2009 
Q 1159 1288 1364 580 
Q 1569 -128 1984 -844 
L 1484 -844 
Q 1016 -109 783 600 
Q 550 1309 550 2009 
Q 550 2706 781 3412 
Q 1013 4119 1484 4856 
L 1984 4856 
z
" transform="scale(0.015625)"/>
       <path id="DejaVuSans-57" d="M 213 4666 
L 850 4666 
L 1831 722 
L 2809 4666 
L 3519 4666 
L 4500 722 
L 5478 4666 
L 6119 4666 
L 4947 0 
L 4153 0 
L 3169 4050 
L 2175 0 
L 1381 0 
L 213 4666 
z
" transform="scale(0.015625)"/>
       <path id="DejaVuSans-6d" d="M 3328 2828 
Q 3544 3216 3844 3400 
Q 4144 3584 4550 3584 
Q 5097 3584 5394 3201 
Q 5691 2819 5691 2113 
L 5691 0 
L 5113 0 
L 5113 2094 
Q 5113 2597 4934 2840 
Q 4756 3084 4391 3084 
Q 3944 3084 3684 2787 
Q 3425 2491 3425 1978 
L 3425 0 
L 2847 0 
L 2847 2094 
Q 2847 2600 2669 2842 
Q 2491 3084 2119 3084 
Q 1678 3084 1418 2786 
Q 1159 2488 1159 1978 
L 1159 0 
L 581 0 
L 581 3500 
L 1159 3500 
L 1159 2956 
Q 1356 3278 1631 3431 
Q 1906 3584 2284 3584 
Q 2666 3584 2933 3390 
Q 3200 3197 3328 2828 
z
" transform="scale(0.015625)"/>
       <path id="DejaVuSans-2d" d="M 313 2009 
L 1997 2009 
L 1997 1497 
L 313 1497 
L 313 2009 
z
" transform="scale(0.015625)"/>
       <path id="DejaVuSans-29" d="M 513 4856 
L 1013 4856 
Q 1481 4119 1714 3412 
Q 1947 2706 1947 2009 
Q 1947 1309 1714 600 
Q 1481 -109 1013 -844 
L 513 -844 
Q 928 -128 1133 580 
Q 1338 1288 1338 2009 
Q 1338 2731 1133 3434 
Q 928 4138 513 4856 
z
" transform="scale(0.015625)"/>
      </defs>
      <use xlink:href="#DejaVuSans-43"/>
      <use xlink:href="#DejaVuSans-48" x="69.824219"/>
      <use xlink:href="#DejaVuSans-34" x="145.019531"/>
      <use xlink:href="#DejaVuSans-20" x="208.642578"/>
      <use xlink:href="#DejaVuSans-65" x="240.429688"/>
      <use xlink:href="#DejaVuSans-66" x="301.953125"/>
      <use xlink:href="#DejaVuSans-66" x="337.158203"/>
      <use xlink:href="#DejaVuSans-65" x="372.363281"/>
      <use xlink:href="#DejaVuSans-63" x="433.886719"/>
      <use xlink:href="#DejaVuSans-74" x="488.867188"/>
      <use xlink:href="#DejaVuSans-69" x="528.076172"/>
      <use xlink:href="#DejaVuSans-76" x="555.859375"/>
      <use xlink:href="#DejaVuSans-65" x="615.039062"/>
      <use xlink:href="#DejaVuSans-20" x="676.5625"/>
      <use xlink:href="#DejaVuSans-72" x="708.349609"/>
      <use xlink:href="#DejaVuSans-61" x="749.462891"/>
      <use xlink:href="#DejaVuSans-64" x="810.742188"/>
      <use xlink:href="#DejaVuSans-69" x="874.21875"/>
      <use xlink:href="#DejaVuSans-61" x="902.001953"/>
      <use xlink:href="#DejaVuSans-74" x="963.28125"/>
      <use xlink:href="#DejaVuSans-69" x="1002.490234"/>
      <use xlink:href="#DejaVuSans-76" x="1030.273438"/>
      <use xlink:href="#DejaVuSans-65" x="1089.453125"/>
      <use xlink:href="#DejaVuSans-20" x="1150.976562"/>
      <use xlink:href="#DejaVuSans-66" x="1182.763672"/>
      <use xlink:href="#DejaVuSans-6f" x="1217.96875"/>
      <use xlink:href="#DejaVuSans-72" x="1279.150391"/>
      <use xlink:href="#DejaVuSans-63" x="1318.013672"/>
      <use xlink:href="#DejaVuSans-69" x="1372.994141"/>
      <use xlink:href="#DejaVuSans-6e" x="1400.777344"/>
      <use xlink:href="#DejaVuSans-67" x="1464.15625"/>
      <use xlink:href="#DejaVuSans-20" x="1527.632812"/>
      <use xlink:href="#DejaVuSans-28" x="1559.419922"/>
      <use xlink:href="#DejaVuSans-57" x="1598.433594"/>
      <use xlink:href="#DejaVuSans-20" x="1697.310547"/>
      <use xlink:href="#DejaVuSans-6d" x="1729.097656"/>
      <use xlink:href="#DejaVuSans-2d" x="1826.509766"/>
      <use xlink:href="#DejaVuSans-32" x="1862.59375"/>
      <use xlink:href="#DejaVuSans-29" x="1926.216797"/>
     </g>
    </g>
   </g>
   <g id="line2d_15">
    <path d="M 65.682102 291.096307 
L 66.658148 290.848843 
L 69.098261 290.353876 
L 70.074307 290.319877 
L 70.56233 290.421435 
L 71.538375 290.286156 
L 74.466511 289.475262 
L 75.93058 289.204045 
L 76.906625 288.909709 
L 77.88267 288.79416 
L 79.346739 288.567189 
L 80.810807 288.400875 
L 82.762898 288.157593 
L 85.691034 287.756047 
L 89.595216 286.90256 
L 92.03533 286.155154 
L 94.475443 285.165193 
L 98.379625 283.340486 
L 101.795784 281.98384 
L 104.235898 281.104375 
L 106.187989 280.6084 
L 107.164034 280.337656 
L 108.14008 280.2923 
L 109.116125 280.322981 
L 110.580193 279.993697 
L 111.556239 279.422355 
L 112.532284 278.849417 
L 113.50833 278.718071 
L 115.46042 278.550027 
L 117.412511 277.666861 
L 118.87658 276.792003 
L 119.852625 276.168761 
L 120.82867 275.273508 
L 123.756807 272.199671 
L 124.732852 271.609687 
L 127.172966 270.565112 
L 128.149011 270.067436 
L 130.589125 268.335251 
L 132.053193 267.098021 
L 134.493307 264.73746 
L 135.957375 263.137764 
L 136.445398 262.732991 
L 137.421443 262.284918 
L 138.397489 261.403791 
L 139.861557 259.878634 
L 140.34958 259.289976 
L 144.253761 253.170584 
L 144.741784 252.584968 
L 146.205852 251.479584 
L 146.693875 250.496983 
L 147.181898 249.78083 
L 148.157943 247.820563 
L 149.622011 244.854977 
L 150.110034 244.029072 
L 150.598057 243.438603 
L 151.08608 243.06868 
L 152.062125 242.576735 
L 153.03817 241.097933 
L 154.014216 239.635791 
L 155.478284 237.720212 
L 156.942352 235.783241 
L 157.430375 235.212597 
L 157.918398 234.38272 
L 158.894443 233.550233 
L 159.870489 232.317693 
L 161.334557 230.882999 
L 162.798625 228.715685 
L 163.286648 228.267812 
L 164.262693 226.917614 
L 165.238739 224.346313 
L 166.214784 220.974009 
L 167.19083 217.685317 
L 167.678852 216.458242 
L 168.654898 214.963347 
L 169.14292 213.355638 
L 170.118966 209.130449 
L 171.095011 206.150844 
L 171.583034 204.720865 
L 172.55908 200.589407 
L 173.535125 195.741875 
L 174.023148 193.659258 
L 175.487216 188.853958 
L 176.951284 182.723174 
L 178.415352 176.652386 
L 179.391398 173.443995 
L 180.367443 170.979413 
L 182.319534 165.793524 
L 183.783602 162.23921 
L 184.271625 161.93902 
L 185.24767 160.708054 
L 185.735693 160.520902 
L 186.223716 160.091446 
L 187.199761 158.407797 
L 187.687784 158.441741 
L 188.175807 158.602626 
L 188.66383 158.363708 
L 189.151852 157.901842 
L 189.639875 157.845573 
L 190.61592 157.949863 
L 191.103943 157.398632 
L 191.591966 156.453202 
L 192.079989 156.091246 
L 193.056034 155.012823 
L 193.544057 154.804672 
L 194.520102 153.208501 
L 195.496148 151.233892 
L 195.98417 149.157969 
L 196.472193 148.190516 
L 196.960216 147.508772 
L 197.448239 147.089979 
L 197.936261 146.916435 
L 198.424284 147.012931 
L 198.912307 147.401966 
L 199.40033 148.06487 
L 199.888352 148.983606 
L 200.864398 151.530268 
L 201.840443 154.93548 
L 203.304511 161.369825 
L 206.232648 174.136933 
L 209.160784 185.89174 
L 212.08892 196.576632 
L 214.041011 203.052767 
L 215.993102 208.611757 
L 217.945193 213.447285 
L 219.897284 217.721934 
L 222.337398 222.476746 
L 228.19367 233.001047 
L 231.121807 237.841261 
L 234.049943 242.308245 
L 236.002034 244.960264 
L 237.466102 246.67551 
L 238.93017 248.040097 
L 240.394239 249.097033 
L 242.34633 250.165736 
L 244.29842 250.971738 
L 246.738534 251.752069 
L 250.642716 252.722943 
L 257.963057 254.238736 
L 267.723511 256.316395 
L 276.50792 258.369804 
L 284.316284 260.434725 
L 296.516852 263.950657 
L 311.645557 268.176185 
L 314.08567 268.570102 
L 317.50183 268.864704 
L 322.382057 269.036061 
L 332.630534 269.110547 
L 426.330898 269.157167 
L 431.699148 269.150993 
L 431.699148 269.150993 
" clip-path="url(#p6ef395b922)" style="fill: none; stroke: #1f77b4; stroke-width: 1.5; stroke-linecap: square"/>
   </g>
   <g id="line2d_16">
    <path d="M 65.682102 291.096307 
L 66.658148 290.848843 
L 69.098261 290.353876 
L 70.074307 290.319877 
L 70.56233 290.421435 
L 71.538375 290.286156 
L 74.466511 289.475262 
L 75.93058 289.204045 
L 76.906625 288.909709 
L 77.88267 288.79416 
L 79.346739 288.567189 
L 80.810807 288.400875 
L 82.762898 288.157593 
L 85.691034 287.756047 
L 89.595216 286.90256 
L 92.03533 286.155154 
L 94.475443 285.165193 
L 98.379625 283.340486 
L 101.795784 281.98384 
L 104.235898 281.104375 
L 106.187989 280.6084 
L 107.164034 280.337656 
L 108.14008 280.2923 
L 109.116125 280.322981 
L 110.580193 279.993697 
L 111.556239 279.422355 
L 112.532284 278.849417 
L 113.50833 278.718071 
L 115.46042 278.550027 
L 117.412511 277.666861 
L 118.87658 276.792003 
L 119.852625 276.168761 
L 120.82867 275.273508 
L 123.756807 272.199671 
L 124.732852 271.609687 
L 127.172966 270.565112 
L 128.149011 270.067436 
L 130.589125 268.335251 
L 132.053193 267.098021 
L 134.493307 264.73746 
L 135.957375 263.137764 
L 136.445398 262.732991 
L 137.421443 262.284918 
L 138.397489 261.403791 
L 139.861557 259.878634 
L 140.34958 259.289976 
L 144.253761 253.170584 
L 144.741784 252.584968 
L 146.205852 251.479584 
L 146.693875 250.496983 
L 147.181898 249.78083 
L 148.157943 247.820563 
L 149.622011 244.854977 
L 150.110034 244.029072 
L 150.598057 243.438603 
L 151.08608 243.06868 
L 152.062125 242.576735 
L 153.03817 241.097933 
L 154.014216 239.635791 
L 155.478284 237.720212 
L 156.942352 235.783241 
L 157.430375 235.212597 
L 157.918398 234.38272 
L 158.894443 233.550233 
L 159.870489 232.317693 
L 161.334557 230.882999 
L 162.798625 228.715685 
L 163.286648 228.267812 
L 164.262693 226.917614 
L 165.238739 224.346313 
L 166.214784 220.974009 
L 167.19083 217.685317 
L 167.678852 216.458242 
L 168.654898 214.963347 
L 169.14292 213.355638 
L 170.118966 209.130449 
L 171.095011 206.150844 
L 171.583034 204.720865 
L 172.55908 200.589407 
L 173.535125 195.741875 
L 174.023148 193.659258 
L 175.487216 188.853958 
L 176.951284 182.723174 
L 178.415352 176.652386 
L 179.391398 173.443995 
L 180.367443 170.979413 
L 182.319534 165.793524 
L 183.783602 162.23921 
L 184.271625 161.93902 
L 185.24767 160.708054 
L 185.735693 160.520902 
L 186.223716 160.091446 
L 187.199761 158.407797 
L 187.687784 158.441741 
L 188.175807 158.602626 
L 188.66383 158.363708 
L 189.151852 157.901842 
L 189.639875 157.845573 
L 190.61592 157.949863 
L 191.103943 157.398632 
L 191.591966 156.453202 
L 192.079989 156.091246 
L 193.056034 155.012823 
L 193.544057 154.804672 
L 194.520102 153.208501 
L 195.496148 151.233879 
L 195.98417 149.046572 
L 197.448239 145.435993 
L 198.912307 142.467054 
L 200.864398 139.040138 
L 202.816489 136.051842 
L 203.792534 134.829317 
L 204.76858 133.937689 
L 205.744625 133.329044 
L 206.72067 132.964109 
L 207.696716 132.809156 
L 208.672761 132.911212 
L 209.648807 133.309459 
L 210.624852 133.964414 
L 211.600898 134.840785 
L 213.064966 136.512184 
L 214.529034 138.616056 
L 215.993102 141.091454 
L 221.849375 151.628349 
L 227.705648 160.660282 
L 229.169716 162.6258 
L 231.121807 164.820583 
L 233.073898 166.625592 
L 235.025989 168.104131 
L 237.466102 169.616134 
L 239.906216 171.254637 
L 242.834352 173.560535 
L 246.250511 176.55708 
L 250.642716 180.710687 
L 256.987011 187.049656 
L 265.283398 195.675404 
L 276.50792 207.699739 
L 286.756398 218.97597 
L 296.516852 230.027451 
L 305.789284 240.861799 
L 310.181489 245.92644 
L 311.645557 247.247196 
L 313.109625 248.183363 
L 314.573693 248.846692 
L 316.525784 249.439395 
L 318.965898 249.880613 
L 321.894034 250.162662 
L 326.774261 250.357611 
L 337.510761 250.459004 
L 431.699148 250.974314 
L 431.699148 250.974314 
" clip-path="url(#p6ef395b922)" style="fill: none; stroke: #ff7f0e; stroke-width: 1.5; stroke-linecap: square"/>
   </g>
   <g id="line2d_17">
    <path d="M 65.682102 291.096307 
L 66.658148 290.848843 
L 69.098261 290.353876 
L 70.074307 290.319877 
L 70.56233 290.421435 
L 71.538375 290.286156 
L 74.466511 289.475262 
L 75.93058 289.204045 
L 76.906625 288.909709 
L 77.88267 288.79416 
L 79.346739 288.567189 
L 80.810807 288.400875 
L 82.762898 288.157593 
L 85.691034 287.756047 
L 89.595216 286.90256 
L 92.03533 286.155154 
L 94.475443 285.165193 
L 98.379625 283.340486 
L 101.795784 281.98384 
L 104.235898 281.104375 
L 106.187989 280.6084 
L 107.164034 280.337656 
L 108.14008 280.2923 
L 109.116125 280.322981 
L 110.580193 279.993697 
L 111.556239 279.422355 
L 112.532284 278.849417 
L 113.50833 278.718071 
L 115.46042 278.550027 
L 117.412511 277.666861 
L 118.87658 276.792003 
L 119.852625 276.168761 
L 120.82867 275.273508 
L 123.756807 272.199671 
L 124.732852 271.609687 
L 127.172966 270.565112 
L 128.149011 270.067436 
L 130.589125 268.335251 
L 132.053193 267.098021 
L 134.493307 264.73746 
L 135.957375 263.137764 
L 136.445398 262.732991 
L 137.421443 262.284918 
L 138.397489 261.403791 
L 139.861557 259.878634 
L 140.34958 259.289976 
L 144.253761 253.170584 
L 144.741784 252.584968 
L 146.205852 251.479584 
L 146.693875 250.496983 
L 147.181898 249.78083 
L 148.157943 247.820563 
L 149.622011 244.854977 
L 150.110034 244.029072 
L 150.598057 243.438603 
L 151.08608 243.06868 
L 152.062125 242.576735 
L 153.03817 241.097933 
L 154.014216 239.635791 
L 155.478284 237.720212 
L 156.942352 235.783241 
L 157.430375 235.212597 
L 157.918398 234.38272 
L 158.894443 233.550233 
L 159.870489 232.317693 
L 161.334557 230.882999 
L 162.798625 228.715685 
L 163.286648 228.267812 
L 164.262693 226.917614 
L 165.238739 224.346313 
L 166.214784 220.974009 
L 167.19083 217.685317 
L 167.678852 216.458242 
L 168.654898 214.963347 
L 169.14292 213.355638 
L 170.118966 209.130449 
L 171.095011 206.150844 
L 171.583034 204.720865 
L 172.55908 200.589407 
L 173.535125 195.741875 
L 174.023148 193.659258 
L 175.487216 188.853958 
L 176.951284 182.723174 
L 178.415352 176.652386 
L 179.391398 173.443995 
L 180.367443 170.979413 
L 182.319534 165.793524 
L 183.783602 162.23921 
L 184.271625 161.93902 
L 185.24767 160.708054 
L 185.735693 160.520902 
L 186.223716 160.091446 
L 187.199761 158.407797 
L 187.687784 158.441741 
L 188.175807 158.602626 
L 188.66383 158.363708 
L 189.151852 157.901842 
L 189.639875 157.845573 
L 190.61592 157.949863 
L 191.103943 157.398632 
L 191.591966 156.453202 
L 192.079989 156.091246 
L 193.056034 155.012823 
L 193.544057 154.804672 
L 194.520102 153.208501 
L 195.496148 151.233872 
L 195.98417 148.976614 
L 198.424284 141.259816 
L 201.35242 131.213716 
L 206.72067 112.523733 
L 210.624852 99.968442 
L 215.50508 85.151479 
L 221.361352 67.965119 
L 227.217625 51.462245 
L 229.657739 45.020821 
L 232.585875 37.923049 
L 236.002034 30.256769 
L 237.466102 27.207893 
L 238.442148 25.742859 
L 239.418193 24.796723 
L 240.394239 24.287432 
L 241.370284 24.147443 
L 242.34633 24.318886 
L 243.322375 24.751501 
L 244.29842 25.405658 
L 245.762489 26.723104 
L 247.226557 28.361208 
L 249.178648 30.913108 
L 251.618761 34.508717 
L 255.03492 39.985783 
L 261.379216 50.677404 
L 272.603739 69.532479 
L 283.340239 87.051374 
L 307.253352 125.85394 
L 311.157534 132.221187 
L 312.621602 134.049176 
L 314.08567 135.472632 
L 315.549739 136.582072 
L 317.013807 137.451896 
L 318.965898 138.331594 
L 320.917989 138.981156 
L 323.358102 139.573331 
L 326.774261 140.145023 
L 331.654489 140.686444 
L 339.462852 141.28435 
L 356.055625 142.28347 
L 385.336989 143.786906 
L 412.178239 144.941415 
L 431.699148 145.656143 
L 431.699148 145.656143 
" clip-path="url(#p6ef395b922)" style="fill: none; stroke: #2ca02c; stroke-width: 1.5; stroke-linecap: square"/>
   </g>
   <g id="line2d_18">
    <path d="M 65.682102 291.096307 
L 66.658148 290.848843 
L 69.098261 290.353876 
L 70.074307 290.319877 
L 70.56233 290.421435 
L 71.538375 290.286156 
L 74.466511 289.475262 
L 75.93058 289.204045 
L 76.906625 288.909709 
L 77.88267 288.79416 
L 79.346739 288.567189 
L 80.810807 288.400875 
L 82.762898 288.157593 
L 85.691034 287.756047 
L 89.595216 286.90256 
L 92.03533 286.155154 
L 94.475443 285.165193 
L 98.379625 283.340486 
L 101.795784 281.98384 
L 104.235898 281.104375 
L 106.187989 280.6084 
L 107.164034 280.337656 
L 108.14008 280.2923 
L 109.116125 280.322981 
L 110.580193 279.993697 
L 111.556239 279.422355 
L 112.532284 278.849417 
L 113.50833 278.718071 
L 115.46042 278.550027 
L 117.412511 277.666861 
L 118.87658 276.792003 
L 119.852625 276.168761 
L 120.82867 275.273508 
L 123.756807 272.199671 
L 124.732852 271.609687 
L 127.172966 270.565112 
L 128.149011 270.067436 
L 130.589125 268.335251 
L 132.053193 267.098021 
L 134.493307 264.73746 
L 135.957375 263.137764 
L 136.445398 262.732991 
L 137.421443 262.284918 
L 138.397489 261.403791 
L 139.861557 259.878634 
L 140.34958 259.289976 
L 144.253761 253.170584 
L 144.741784 252.584968 
L 146.205852 251.479584 
L 146.693875 250.496983 
L 147.181898 249.78083 
L 148.157943 247.820563 
L 149.622011 244.854977 
L 150.110034 244.029072 
L 150.598057 243.438603 
L 151.08608 243.06868 
L 152.062125 242.576735 
L 153.03817 241.097933 
L 154.014216 239.635791 
L 155.478284 237.720212 
L 156.942352 235.783241 
L 157.430375 235.212597 
L 157.918398 234.38272 
L 158.894443 233.550233 
L 159.870489 232.317693 
L 161.334557 230.882999 
L 162.798625 228.715685 
L 163.286648 228.267812 
L 164.262693 226.917614 
L 165.238739 224.346313 
L 166.214784 220.974009 
L 167.19083 217.685317 
L 167.678852 216.458242 
L 168.654898 214.963347 
L 169.14292 213.355638 
L 170.118966 209.130449 
L 171.095011 206.150844 
L 171.583034 204.720865 
L 172.55908 200.589407 
L 173.535125 195.741875 
L 174.023148 193.659258 
L 175.487216 188.853958 
L 176.951284 182.723174 
L 178.415352 176.652386 
L 179.391398 173.443995 
L 180.367443 170.979413 
L 182.319534 165.793524 
L 183.783602 162.23921 
L 184.271625 161.93902 
L 185.24767 160.708054 
L 185.735693 160.520902 
L 186.223716 160.091446 
L 187.199761 158.407797 
L 187.687784 158.441741 
L 188.175807 158.602626 
L 188.66383 158.363708 
L 189.151852 157.901842 
L 189.639875 157.845573 
L 190.61592 157.949863 
L 191.103943 157.398632 
L 191.591966 156.453202 
L 192.079989 156.091246 
L 193.056034 155.012823 
L 193.544057 154.804672 
L 194.520102 153.208501 
L 195.496148 151.233866 
L 195.98417 148.896586 
L 196.960216 145.26873 
L 198.912307 136.572161 
L 201.35242 126.206503 
L 203.792534 116.752089 
L 205.744625 110.002417 
L 208.184739 102.413975 
L 210.13683 97.226049 
L 212.08892 92.776831 
L 213.552989 89.842076 
L 215.50508 86.508437 
L 217.45717 83.686222 
L 218.921239 81.940233 
L 220.385307 80.565643 
L 221.849375 79.483667 
L 223.313443 78.679144 
L 224.777511 78.236427 
L 226.24158 78.087246 
L 227.705648 78.174018 
L 229.169716 78.506371 
L 230.633784 79.048388 
L 232.585875 80.012379 
L 236.97808 82.527498 
L 238.93017 83.807182 
L 241.370284 85.681741 
L 244.29842 88.205199 
L 248.690625 92.324917 
L 256.010966 99.576076 
L 276.50792 120.000956 
L 292.124648 135.112979 
L 310.669511 152.751126 
L 312.13358 153.898773 
L 313.597648 154.809208 
L 315.549739 155.735322 
L 317.50183 156.414571 
L 319.941943 157.019085 
L 322.87008 157.501728 
L 326.774261 157.896885 
L 332.142511 158.199387 
L 340.92692 158.459276 
L 368.744216 158.928143 
L 416.570443 159.513159 
L 431.699148 159.665841 
L 431.699148 159.665841 
" clip-path="url(#p6ef395b922)" style="fill: none; stroke: #d62728; stroke-width: 1.5; stroke-linecap: square"/>
   </g>
   <g id="line2d_19">
    <path d="M 65.682102 291.096307 
L 66.658148 290.848843 
L 69.098261 290.353876 
L 70.074307 290.319877 
L 70.56233 290.421435 
L 71.538375 290.286156 
L 74.466511 289.475262 
L 75.93058 289.204045 
L 76.906625 288.909709 
L 77.88267 288.79416 
L 79.346739 288.567189 
L 80.810807 288.400875 
L 82.762898 288.157593 
L 85.691034 287.756047 
L 89.595216 286.90256 
L 92.03533 286.155154 
L 94.475443 285.165193 
L 98.379625 283.340486 
L 101.795784 281.98384 
L 104.235898 281.104375 
L 106.187989 280.6084 
L 107.164034 280.337656 
L 108.14008 280.2923 
L 109.116125 280.322981 
L 110.580193 279.993697 
L 111.556239 279.422355 
L 112.532284 278.849417 
L 113.50833 278.718071 
L 115.46042 278.550027 
L 117.412511 277.666861 
L 118.87658 276.792003 
L 119.852625 276.168761 
L 120.82867 275.273508 
L 123.756807 272.199671 
L 124.732852 271.609687 
L 127.172966 270.565112 
L 128.149011 270.067436 
L 130.589125 268.335251 
L 132.053193 267.098021 
L 134.493307 264.73746 
L 135.957375 263.137764 
L 136.445398 262.732991 
L 137.421443 262.284918 
L 138.397489 261.403791 
L 139.861557 259.878634 
L 140.34958 259.289976 
L 144.253761 253.170584 
L 144.741784 252.584968 
L 146.205852 251.479584 
L 146.693875 250.496983 
L 147.181898 249.78083 
L 148.157943 247.820563 
L 149.622011 244.854977 
L 150.110034 244.029072 
L 150.598057 243.438603 
L 151.08608 243.06868 
L 152.062125 242.576735 
L 153.03817 241.097933 
L 154.014216 239.635791 
L 155.478284 237.720212 
L 156.942352 235.783241 
L 157.430375 235.212597 
L 157.918398 234.38272 
L 158.894443 233.550233 
L 159.870489 232.317693 
L 161.334557 230.882999 
L 162.798625 228.715685 
L 163.286648 228.267812 
L 164.262693 226.917614 
L 165.238739 224.346313 
L 166.214784 220.974009 
L 167.19083 217.685317 
L 167.678852 216.458242 
L 168.654898 214.963347 
L 169.14292 213.355638 
L 170.118966 209.130449 
L 171.095011 206.150844 
L 171.583034 204.720865 
L 172.55908 200.589407 
L 173.535125 195.741875 
L 174.023148 193.659258 
L 175.487216 188.853958 
L 176.951284 182.723174 
L 178.415352 176.652386 
L 179.391398 173.443995 
L 180.367443 170.979413 
L 182.319534 165.793524 
L 183.783602 162.23921 
L 184.271625 161.93902 
L 185.24767 160.708054 
L 185.735693 160.520902 
L 186.223716 160.091446 
L 187.199761 158.407797 
L 187.687784 158.441741 
L 188.175807 158.602626 
L 188.66383 158.363708 
L 189.151852 157.901842 
L 189.639875 157.845573 
L 190.61592 157.949863 
L 191.103943 157.398632 
L 191.591966 156.453202 
L 192.079989 156.091246 
L 193.056034 155.012823 
L 193.544057 154.804672 
L 194.520102 153.208501 
L 195.496148 151.233883 
L 195.98417 149.074276 
L 196.960216 146.784179 
L 197.936261 145.006669 
L 198.912307 143.297583 
L 200.376375 140.186629 
L 202.328466 135.272651 
L 203.792534 131.008082 
L 205.256602 125.839871 
L 207.208693 117.92549 
L 211.112875 101.44296 
L 213.064966 93.745444 
L 214.041011 90.548322 
L 215.017057 87.913222 
L 215.993102 85.756375 
L 216.969148 84.011293 
L 217.945193 82.615915 
L 218.921239 81.512737 
L 219.897284 80.656357 
L 220.87333 80.012929 
L 222.337398 79.381868 
L 223.313443 79.265365 
L 224.289489 79.485864 
L 225.265534 79.992073 
L 226.24158 80.742839 
L 227.217625 81.70128 
L 228.19367 82.940118 
L 229.169716 84.51925 
L 230.633784 87.416735 
L 232.585875 92.02434 
L 235.025989 97.669016 
L 237.954125 103.877875 
L 244.29842 116.761595 
L 249.178648 126.152079 
L 254.546898 135.955419 
L 260.40317 146.160397 
L 268.211534 159.272492 
L 295.052784 203.91964 
L 302.861148 217.550148 
L 309.693466 229.905308 
L 311.157534 232.449025 
L 312.621602 234.402349 
L 314.08567 235.883049 
L 315.549739 237.0106 
L 317.013807 237.879304 
L 318.965898 238.749292 
L 321.406011 239.526454 
L 324.334148 240.186076 
L 328.726352 240.886748 
L 336.046693 241.755388 
L 349.223307 243.086091 
L 358.983761 243.922098 
L 377.040602 245.15634 
L 403.39383 246.726393 
L 430.723102 248.140278 
L 431.699148 248.17587 
L 431.699148 248.17587 
" clip-path="url(#p6ef395b922)" style="fill: none; stroke: #9467bd; stroke-width: 1.5; stroke-linecap: square"/>
   </g>
   <g id="patch_2">
    <path d="M 47.38125 304.44375 
L 47.38125 10.8 
" style="fill: none; stroke: #000000; stroke-width: 0.8; stroke-linejoin: miter; stroke-linecap: square"/>
   </g>
   <g id="patch_3">
    <path d="M 450 304.44375 
L 450 10.8 
" style="fill: none; stroke: #000000; stroke-width: 0.8; stroke-linejoin: miter; stroke-linecap: square"/>
   </g>
   <g id="patch_4">
    <path d="M 47.38125 304.44375 
L 450 304.44375 
" style="fill: none; stroke: #000000; stroke-width: 0.8; stroke-linejoin: miter; stroke-linecap: square"/>
   </g>
   <g id="patch_5">
    <path d="M 47.38125 10.8 
L 450 10.8 
" style="fill: none; stroke: #000000; stroke-width: 0.8; stroke-linejoin: miter; stroke-linecap: square"/>
   </g>
   <g id="legend_1">
    <g id="patch_6">
     <path d="M 375.145312 92.190625 
L 443 92.190625 
Q 445 92.190625 445 90.190625 
L 445 17.8 
Q 445 15.8 443 15.8 
L 375.145312 15.8 
Q 373.145312 15.8 373.145312 17.8 
L 373.145312 90.190625 
Q 373.145312 92.190625 375.145312 92.190625 
z
" style="fill: #ffffff; opacity: 0.8; stroke: #cccccc; stroke-linejoin: miter"/>
    </g>
    <g id="line2d_20">
     <path d="M 377.145312 23.898438 
L 387.145312 23.898438 
L 397.145312 23.898438 
" style="fill: none; stroke: #1f77b4; stroke-width: 1.5; stroke-linecap: square"/>
    </g>
    <g id="text_17">
     <!-- ssp119 -->
     <g transform="translate(405.145312 27.398438) scale(0.1 -0.1)">
      <defs>
       <path id="DejaVuSans-73" d="M 2834 3397 
L 2834 2853 
Q 2591 2978 2328 3040 
Q 2066 3103 1784 3103 
Q 1356 3103 1142 2972 
Q 928 2841 928 2578 
Q 928 2378 1081 2264 
Q 1234 2150 1697 2047 
L 1894 2003 
Q 2506 1872 2764 1633 
Q 3022 1394 3022 966 
Q 3022 478 2636 193 
Q 2250 -91 1575 -91 
Q 1294 -91 989 -36 
Q 684 19 347 128 
L 347 722 
Q 666 556 975 473 
Q 1284 391 1588 391 
Q 1994 391 2212 530 
Q 2431 669 2431 922 
Q 2431 1156 2273 1281 
Q 2116 1406 1581 1522 
L 1381 1569 
Q 847 1681 609 1914 
Q 372 2147 372 2553 
Q 372 3047 722 3315 
Q 1072 3584 1716 3584 
Q 2034 3584 2315 3537 
Q 2597 3491 2834 3397 
z
" transform="scale(0.015625)"/>
       <path id="DejaVuSans-70" d="M 1159 525 
L 1159 -1331 
L 581 -1331 
L 581 3500 
L 1159 3500 
L 1159 2969 
Q 1341 3281 1617 3432 
Q 1894 3584 2278 3584 
Q 2916 3584 3314 3078 
Q 3713 2572 3713 1747 
Q 3713 922 3314 415 
Q 2916 -91 2278 -91 
Q 1894 -91 1617 61 
Q 1341 213 1159 525 
z
M 3116 1747 
Q 3116 2381 2855 2742 
Q 2594 3103 2138 3103 
Q 1681 3103 1420 2742 
Q 1159 2381 1159 1747 
Q 1159 1113 1420 752 
Q 1681 391 2138 391 
Q 2594 391 2855 752 
Q 3116 1113 3116 1747 
z
" transform="scale(0.015625)"/>
      </defs>
      <use xlink:href="#DejaVuSans-73"/>
      <use xlink:href="#DejaVuSans-73" x="52.099609"/>
      <use xlink:href="#DejaVuSans-70" x="104.199219"/>
      <use xlink:href="#DejaVuSans-31" x="167.675781"/>
      <use xlink:href="#DejaVuSans-31" x="231.298828"/>
      <use xlink:href="#DejaVuSans-39" x="294.921875"/>
     </g>
    </g>
    <g id="line2d_21">
     <path d="M 377.145312 38.576563 
L 387.145312 38.576563 
L 397.145312 38.576563 
" style="fill: none; stroke: #ff7f0e; stroke-width: 1.5; stroke-linecap: square"/>
    </g>
    <g id="text_18">
     <!-- ssp245 -->
     <g transform="translate(405.145312 42.076563) scale(0.1 -0.1)">
      <use xlink:href="#DejaVuSans-73"/>
      <use xlink:href="#DejaVuSans-73" x="52.099609"/>
      <use xlink:href="#DejaVuSans-70" x="104.199219"/>
      <use xlink:href="#DejaVuSans-32" x="167.675781"/>
      <use xlink:href="#DejaVuSans-34" x="231.298828"/>
      <use xlink:href="#DejaVuSans-35" x="294.921875"/>
     </g>
    </g>
    <g id="line2d_22">
     <path d="M 377.145312 53.254687 
L 387.145312 53.254687 
L 397.145312 53.254687 
" style="fill: none; stroke: #2ca02c; stroke-width: 1.5; stroke-linecap: square"/>
    </g>
    <g id="text_19">
     <!-- ssp370 -->
     <g transform="translate(405.145312 56.754687) scale(0.1 -0.1)">
      <defs>
       <path id="DejaVuSans-37" d="M 525 4666 
L 3525 4666 
L 3525 4397 
L 1831 0 
L 1172 0 
L 2766 4134 
L 525 4134 
L 525 4666 
z
" transform="scale(0.015625)"/>
      </defs>
      <use xlink:href="#DejaVuSans-73"/>
      <use xlink:href="#DejaVuSans-73" x="52.099609"/>
      <use xlink:href="#DejaVuSans-70" x="104.199219"/>
      <use xlink:href="#DejaVuSans-33" x="167.675781"/>
      <use xlink:href="#DejaVuSans-37" x="231.298828"/>
      <use xlink:href="#DejaVuSans-30" x="294.921875"/>
     </g>
    </g>
    <g id="line2d_23">
     <path d="M 377.145312 67.932813 
L 387.145312 67.932813 
L 397.145312 67.932813 
" style="fill: none; stroke: #d62728; stroke-width: 1.5; stroke-linecap: square"/>
    </g>
    <g id="text_20">
     <!-- ssp460 -->
     <g transform="translate(405.145312 71.432813) scale(0.1 -0.1)">
      <use xlink:href="#DejaVuSans-73"/>
      <use xlink:href="#DejaVuSans-73" x="52.099609"/>
      <use xlink:href="#DejaVuSans-70" x="104.199219"/>
      <use xlink:href="#DejaVuSans-34" x="167.675781"/>
      <use xlink:href="#DejaVuSans-36" x="231.298828"/>
      <use xlink:href="#DejaVuSans-30" x="294.921875"/>
     </g>
    </g>
    <g id="line2d_24">
     <path d="M 377.145312 82.610938 
L 387.145312 82.610938 
L 397.145312 82.610938 
" style="fill: none; stroke: #9467bd; stroke-width: 1.5; stroke-linecap: square"/>
    </g>
    <g id="text_21">
     <!-- ssp585 -->
     <g transform="translate(405.145312 86.110938) scale(0.1 -0.1)">
      <use xlink:href="#DejaVuSans-73"/>
      <use xlink:href="#DejaVuSans-73" x="52.099609"/>
      <use xlink:href="#DejaVuSans-70" x="104.199219"/>
      <use xlink:href="#DejaVuSans-35" x="167.675781"/>
      <use xlink:href="#DejaVuSans-38" x="231.298828"/>
      <use xlink:href="#DejaVuSans-35" x="294.921875"/>
     </g>
    </g>
   </g>
  </g>
 </g>
 <defs>
  <clipPath id="p6ef395b922">
   <rect x="47.38125" y="10.8" width="402.61875" height="293.64375"/>
  </clipPath>
 </defs>
</svg>
