<?xml version="1.0" encoding="utf-8" standalone="no"?>
<!DOCTYPE svg PUBLIC "-//W3C//DTD SVG 1.1//EN"
  "http://www.w3.org/Graphics/SVG/1.1/DTD/svg11.dtd">
<svg xmlns:xlink="http://www.w3.org/1999/xlink" width="460.8pt" height="345.6pt" viewBox="0 0 460.8 345.6" xmlns="http://www.w3.org/2000/svg" version="1.1">
 <metadata>
  <rdf:RDF xmlns:dc="http://purl.org/dc/elements/1.1/" xmlns:cc="http://creativecommons.org/ns#" xmlns:rdf="http://www.w3.org/1999/02/22-rdf-syntax-ns#">
   <cc:Work>
    <dc:type rdf:resource="http://purl.org/dc/dcmitype/StillImage"/>
    <dc:date>2024-10-09T09:57:24.172135</dc:date>
    <dc:format>image/svg+xml</dc:format>
    <dc:creator>
     <cc:Agent>
      <dc:title>Matplotlib v3.9.0, https://matplotlib.org/</dc:title>
     </cc:Agent>
    </dc:creator>
   </cc:Work>
  </rdf:RDF>
 </metadata>
 <defs>
  <style type="text/css">*{stroke-linejoin: round; stroke-linecap: butt}</style>
 </defs>
 <g id="figure_1">
  <g id="axes_1">
   <g id="patch_1">
    <path d="M 55.760938 304.44375 
L 450 304.44375 
L 450 10.8 
L 55.760938 10.8 
L 55.760938 304.44375 
z
" style="fill: none"/>
   </g>
   <g id="matplotlib.axis_1">
    <g id="xtick_1">
     <g id="line2d_1">
      <defs>
       <path id="mac14d11442" d="M 0 0 
L 0 3.5 
" style="stroke: #000000; stroke-width: 0.8"/>
      </defs>
      <g>
       <use xlink:href="#mac14d11442" x="97.574171" y="304.44375" style="stroke: #000000; stroke-width: 0.8"/>
      </g>
     </g>
     <g id="text_1">
      <!-- 1800 -->
      <g transform="translate(84.849171 319.042187) scale(0.1 -0.1)">
       <defs>
        <path id="DejaVuSans-31" d="M 794 531 
L 1825 531 
L 1825 4091 
L 703 3866 
L 703 4441 
L 1819 4666 
L 2450 4666 
L 2450 531 
L 3481 531 
L 3481 0 
L 794 0 
L 794 531 
z
" transform="scale(0.015625)"/>
        <path id="DejaVuSans-38" d="M 2034 2216 
Q 1584 2216 1326 1975 
Q 1069 1734 1069 1313 
Q 1069 891 1326 650 
Q 1584 409 2034 409 
Q 2484 409 2743 651 
Q 3003 894 3003 1313 
Q 3003 1734 2745 1975 
Q 2488 2216 2034 2216 
z
M 1403 2484 
Q 997 2584 770 2862 
Q 544 3141 544 3541 
Q 544 4100 942 4425 
Q 1341 4750 2034 4750 
Q 2731 4750 3128 4425 
Q 3525 4100 3525 3541 
Q 3525 3141 3298 2862 
Q 3072 2584 2669 2484 
Q 3125 2378 3379 2068 
Q 3634 1759 3634 1313 
Q 3634 634 3220 271 
Q 2806 -91 2034 -91 
Q 1263 -91 848 271 
Q 434 634 434 1313 
Q 434 1759 690 2068 
Q 947 2378 1403 2484 
z
M 1172 3481 
Q 1172 3119 1398 2916 
Q 1625 2713 2034 2713 
Q 2441 2713 2670 2916 
Q 2900 3119 2900 3481 
Q 2900 3844 2670 4047 
Q 2441 4250 2034 4250 
Q 1625 4250 1398 4047 
Q 1172 3844 1172 3481 
z
" transform="scale(0.015625)"/>
        <path id="DejaVuSans-30" d="M 2034 4250 
Q 1547 4250 1301 3770 
Q 1056 3291 1056 2328 
Q 1056 1369 1301 889 
Q 1547 409 2034 409 
Q 2525 409 2770 889 
Q 3016 1369 3016 2328 
Q 3016 3291 2770 3770 
Q 2525 4250 2034 4250 
z
M 2034 4750 
Q 2819 4750 3233 4129 
Q 3647 3509 3647 2328 
Q 3647 1150 3233 529 
Q 2819 -91 2034 -91 
Q 1250 -91 836 529 
Q 422 1150 422 2328 
Q 422 3509 836 4129 
Q 1250 4750 2034 4750 
z
" transform="scale(0.015625)"/>
       </defs>
       <use xlink:href="#DejaVuSans-31"/>
       <use xlink:href="#DejaVuSans-38" x="63.623047"/>
       <use xlink:href="#DejaVuSans-30" x="127.246094"/>
       <use xlink:href="#DejaVuSans-30" x="190.869141"/>
      </g>
     </g>
    </g>
    <g id="xtick_2">
     <g id="line2d_2">
      <g>
       <use xlink:href="#mac14d11442" x="145.360724" y="304.44375" style="stroke: #000000; stroke-width: 0.8"/>
      </g>
     </g>
     <g id="text_2">
      <!-- 1900 -->
      <g transform="translate(132.635724 319.042187) scale(0.1 -0.1)">
       <defs>
        <path id="DejaVuSans-39" d="M 703 97 
L 703 672 
Q 941 559 1184 500 
Q 1428 441 1663 441 
Q 2288 441 2617 861 
Q 2947 1281 2994 2138 
Q 2813 1869 2534 1725 
Q 2256 1581 1919 1581 
Q 1219 1581 811 2004 
Q 403 2428 403 3163 
Q 403 3881 828 4315 
Q 1253 4750 1959 4750 
Q 2769 4750 3195 4129 
Q 3622 3509 3622 2328 
Q 3622 1225 3098 567 
Q 2575 -91 1691 -91 
Q 1453 -91 1209 -44 
Q 966 3 703 97 
z
M 1959 2075 
Q 2384 2075 2632 2365 
Q 2881 2656 2881 3163 
Q 2881 3666 2632 3958 
Q 2384 4250 1959 4250 
Q 1534 4250 1286 3958 
Q 1038 3666 1038 3163 
Q 1038 2656 1286 2365 
Q 1534 2075 1959 2075 
z
" transform="scale(0.015625)"/>
       </defs>
       <use xlink:href="#DejaVuSans-31"/>
       <use xlink:href="#DejaVuSans-39" x="63.623047"/>
       <use xlink:href="#DejaVuSans-30" x="127.246094"/>
       <use xlink:href="#DejaVuSans-30" x="190.869141"/>
      </g>
     </g>
    </g>
    <g id="xtick_3">
     <g id="line2d_3">
      <g>
       <use xlink:href="#mac14d11442" x="193.147277" y="304.44375" style="stroke: #000000; stroke-width: 0.8"/>
      </g>
     </g>
     <g id="text_3">
      <!-- 2000 -->
      <g transform="translate(180.422277 319.042187) scale(0.1 -0.1)">
       <defs>
        <path id="DejaVuSans-32" d="M 1228 531 
L 3431 531 
L 3431 0 
L 469 0 
L 469 531 
Q 828 903 1448 1529 
Q 2069 2156 2228 2338 
Q 2531 2678 2651 2914 
Q 2772 3150 2772 3378 
Q 2772 3750 2511 3984 
Q 2250 4219 1831 4219 
Q 1534 4219 1204 4116 
Q 875 4013 500 3803 
L 500 4441 
Q 881 4594 1212 4672 
Q 1544 4750 1819 4750 
Q 2544 4750 2975 4387 
Q 3406 4025 3406 3419 
Q 3406 3131 3298 2873 
Q 3191 2616 2906 2266 
Q 2828 2175 2409 1742 
Q 1991 1309 1228 531 
z
" transform="scale(0.015625)"/>
       </defs>
       <use xlink:href="#DejaVuSans-32"/>
       <use xlink:href="#DejaVuSans-30" x="63.623047"/>
       <use xlink:href="#DejaVuSans-30" x="127.246094"/>
       <use xlink:href="#DejaVuSans-30" x="190.869141"/>
      </g>
     </g>
    </g>
    <g id="xtick_4">
     <g id="line2d_4">
      <g>
       <use xlink:href="#mac14d11442" x="240.93383" y="304.44375" style="stroke: #000000; stroke-width: 0.8"/>
      </g>
     </g>
     <g id="text_4">
      <!-- 2100 -->
      <g transform="translate(228.20883 319.042187) scale(0.1 -0.1)">
       <use xlink:href="#DejaVuSans-32"/>
       <use xlink:href="#DejaVuSans-31" x="63.623047"/>
       <use xlink:href="#DejaVuSans-30" x="127.246094"/>
       <use xlink:href="#DejaVuSans-30" x="190.869141"/>
      </g>
     </g>
    </g>
    <g id="xtick_5">
     <g id="line2d_5">
      <g>
       <use xlink:href="#mac14d11442" x="288.720384" y="304.44375" style="stroke: #000000; stroke-width: 0.8"/>
      </g>
     </g>
     <g id="text_5">
      <!-- 2200 -->
      <g transform="translate(275.995384 319.042187) scale(0.1 -0.1)">
       <use xlink:href="#DejaVuSans-32"/>
       <use xlink:href="#DejaVuSans-32" x="63.623047"/>
       <use xlink:href="#DejaVuSans-30" x="127.246094"/>
       <use xlink:href="#DejaVuSans-30" x="190.869141"/>
      </g>
     </g>
    </g>
    <g id="xtick_6">
     <g id="line2d_6">
      <g>
       <use xlink:href="#mac14d11442" x="336.506937" y="304.44375" style="stroke: #000000; stroke-width: 0.8"/>
      </g>
     </g>
     <g id="text_6">
      <!-- 2300 -->
      <g transform="translate(323.781937 319.042187) scale(0.1 -0.1)">
       <defs>
        <path id="DejaVuSans-33" d="M 2597 2516 
Q 3050 2419 3304 2112 
Q 3559 1806 3559 1356 
Q 3559 666 3084 287 
Q 2609 -91 1734 -91 
Q 1441 -91 1130 -33 
Q 819 25 488 141 
L 488 750 
Q 750 597 1062 519 
Q 1375 441 1716 441 
Q 2309 441 2620 675 
Q 2931 909 2931 1356 
Q 2931 1769 2642 2001 
Q 2353 2234 1838 2234 
L 1294 2234 
L 1294 2753 
L 1863 2753 
Q 2328 2753 2575 2939 
Q 2822 3125 2822 3475 
Q 2822 3834 2567 4026 
Q 2313 4219 1838 4219 
Q 1578 4219 1281 4162 
Q 984 4106 628 3988 
L 628 4550 
Q 988 4650 1302 4700 
Q 1616 4750 1894 4750 
Q 2613 4750 3031 4423 
Q 3450 4097 3450 3541 
Q 3450 3153 3228 2886 
Q 3006 2619 2597 2516 
z
" transform="scale(0.015625)"/>
       </defs>
       <use xlink:href="#DejaVuSans-32"/>
       <use xlink:href="#DejaVuSans-33" x="63.623047"/>
       <use xlink:href="#DejaVuSans-30" x="127.246094"/>
       <use xlink:href="#DejaVuSans-30" x="190.869141"/>
      </g>
     </g>
    </g>
    <g id="xtick_7">
     <g id="line2d_7">
      <g>
       <use xlink:href="#mac14d11442" x="384.29349" y="304.44375" style="stroke: #000000; stroke-width: 0.8"/>
      </g>
     </g>
     <g id="text_7">
      <!-- 2400 -->
      <g transform="translate(371.56849 319.042187) scale(0.1 -0.1)">
       <defs>
        <path id="DejaVuSans-34" d="M 2419 4116 
L 825 1625 
L 2419 1625 
L 2419 4116 
z
M 2253 4666 
L 3047 4666 
L 3047 1625 
L 3713 1625 
L 3713 1100 
L 3047 1100 
L 3047 0 
L 2419 0 
L 2419 1100 
L 313 1100 
L 313 1709 
L 2253 4666 
z
" transform="scale(0.015625)"/>
       </defs>
       <use xlink:href="#DejaVuSans-32"/>
       <use xlink:href="#DejaVuSans-34" x="63.623047"/>
       <use xlink:href="#DejaVuSans-30" x="127.246094"/>
       <use xlink:href="#DejaVuSans-30" x="190.869141"/>
      </g>
     </g>
    </g>
    <g id="xtick_8">
     <g id="line2d_8">
      <g>
       <use xlink:href="#mac14d11442" x="432.080043" y="304.44375" style="stroke: #000000; stroke-width: 0.8"/>
      </g>
     </g>
     <g id="text_8">
      <!-- 2500 -->
      <g transform="translate(419.355043 319.042187) scale(0.1 -0.1)">
       <defs>
        <path id="DejaVuSans-35" d="M 691 4666 
L 3169 4666 
L 3169 4134 
L 1269 4134 
L 1269 2991 
Q 1406 3038 1543 3061 
Q 1681 3084 1819 3084 
Q 2600 3084 3056 2656 
Q 3513 2228 3513 1497 
Q 3513 744 3044 326 
Q 2575 -91 1722 -91 
Q 1428 -91 1123 -41 
Q 819 9 494 109 
L 494 744 
Q 775 591 1075 516 
Q 1375 441 1709 441 
Q 2250 441 2565 725 
Q 2881 1009 2881 1497 
Q 2881 1984 2565 2268 
Q 2250 2553 1709 2553 
Q 1456 2553 1204 2497 
Q 953 2441 691 2322 
L 691 4666 
z
" transform="scale(0.015625)"/>
       </defs>
       <use xlink:href="#DejaVuSans-32"/>
       <use xlink:href="#DejaVuSans-35" x="63.623047"/>
       <use xlink:href="#DejaVuSans-30" x="127.246094"/>
       <use xlink:href="#DejaVuSans-30" x="190.869141"/>
      </g>
     </g>
    </g>
    <g id="text_9">
     <!-- Year -->
     <g transform="translate(242.292969 332.720312) scale(0.1 -0.1)">
      <defs>
       <path id="DejaVuSans-59" d="M -13 4666 
L 666 4666 
L 1959 2747 
L 3244 4666 
L 3922 4666 
L 2272 2222 
L 2272 0 
L 1638 0 
L 1638 2222 
L -13 4666 
z
" transform="scale(0.015625)"/>
       <path id="DejaVuSans-65" d="M 3597 1894 
L 3597 1613 
L 953 1613 
Q 991 1019 1311 708 
Q 1631 397 2203 397 
Q 2534 397 2845 478 
Q 3156 559 3463 722 
L 3463 178 
Q 3153 47 2828 -22 
Q 2503 -91 2169 -91 
Q 1331 -91 842 396 
Q 353 884 353 1716 
Q 353 2575 817 3079 
Q 1281 3584 2069 3584 
Q 2775 3584 3186 3129 
Q 3597 2675 3597 1894 
z
M 3022 2063 
Q 3016 2534 2758 2815 
Q 2500 3097 2075 3097 
Q 1594 3097 1305 2825 
Q 1016 2553 972 2059 
L 3022 2063 
z
" transform="scale(0.015625)"/>
       <path id="DejaVuSans-61" d="M 2194 1759 
Q 1497 1759 1228 1600 
Q 959 1441 959 1056 
Q 959 750 1161 570 
Q 1363 391 1709 391 
Q 2188 391 2477 730 
Q 2766 1069 2766 1631 
L 2766 1759 
L 2194 1759 
z
M 3341 1997 
L 3341 0 
L 2766 0 
L 2766 531 
Q 2569 213 2275 61 
Q 1981 -91 1556 -91 
Q 1019 -91 701 211 
Q 384 513 384 1019 
Q 384 1609 779 1909 
Q 1175 2209 1959 2209 
L 2766 2209 
L 2766 2266 
Q 2766 2663 2505 2880 
Q 2244 3097 1772 3097 
Q 1472 3097 1187 3025 
Q 903 2953 641 2809 
L 641 3341 
Q 956 3463 1253 3523 
Q 1550 3584 1831 3584 
Q 2591 3584 2966 3190 
Q 3341 2797 3341 1997 
z
" transform="scale(0.015625)"/>
       <path id="DejaVuSans-72" d="M 2631 2963 
Q 2534 3019 2420 3045 
Q 2306 3072 2169 3072 
Q 1681 3072 1420 2755 
Q 1159 2438 1159 1844 
L 1159 0 
L 581 0 
L 581 3500 
L 1159 3500 
L 1159 2956 
Q 1341 3275 1631 3429 
Q 1922 3584 2338 3584 
Q 2397 3584 2469 3576 
Q 2541 3569 2628 3553 
L 2631 2963 
z
" transform="scale(0.015625)"/>
      </defs>
      <use xlink:href="#DejaVuSans-59"/>
      <use xlink:href="#DejaVuSans-65" x="47.833984"/>
      <use xlink:href="#DejaVuSans-61" x="109.357422"/>
      <use xlink:href="#DejaVuSans-72" x="170.636719"/>
     </g>
    </g>
   </g>
   <g id="matplotlib.axis_2">
    <g id="ytick_1">
     <g id="line2d_9">
      <defs>
       <path id="m13896c0f28" d="M 0 0 
L -3.5 0 
" style="stroke: #000000; stroke-width: 0.8"/>
      </defs>
      <g>
       <use xlink:href="#m13896c0f28" x="55.760938" y="302.802066" style="stroke: #000000; stroke-width: 0.8"/>
      </g>
     </g>
     <g id="text_10">
      <!-- −5.0 -->
      <g transform="translate(24.478125 306.601285) scale(0.1 -0.1)">
       <defs>
        <path id="DejaVuSans-2212" d="M 678 2272 
L 4684 2272 
L 4684 1741 
L 678 1741 
L 678 2272 
z
" transform="scale(0.015625)"/>
        <path id="DejaVuSans-2e" d="M 684 794 
L 1344 794 
L 1344 0 
L 684 0 
L 684 794 
z
" transform="scale(0.015625)"/>
       </defs>
       <use xlink:href="#DejaVuSans-2212"/>
       <use xlink:href="#DejaVuSans-35" x="83.789062"/>
       <use xlink:href="#DejaVuSans-2e" x="147.412109"/>
       <use xlink:href="#DejaVuSans-30" x="179.199219"/>
      </g>
     </g>
    </g>
    <g id="ytick_2">
     <g id="line2d_10">
      <g>
       <use xlink:href="#m13896c0f28" x="55.760938" y="264.991977" style="stroke: #000000; stroke-width: 0.8"/>
      </g>
     </g>
     <g id="text_11">
      <!-- −2.5 -->
      <g transform="translate(24.478125 268.791196) scale(0.1 -0.1)">
       <use xlink:href="#DejaVuSans-2212"/>
       <use xlink:href="#DejaVuSans-32" x="83.789062"/>
       <use xlink:href="#DejaVuSans-2e" x="147.412109"/>
       <use xlink:href="#DejaVuSans-35" x="179.199219"/>
      </g>
     </g>
    </g>
    <g id="ytick_3">
     <g id="line2d_11">
      <g>
       <use xlink:href="#m13896c0f28" x="55.760938" y="227.181888" style="stroke: #000000; stroke-width: 0.8"/>
      </g>
     </g>
     <g id="text_12">
      <!-- 0.0 -->
      <g transform="translate(32.857813 230.981107) scale(0.1 -0.1)">
       <use xlink:href="#DejaVuSans-30"/>
       <use xlink:href="#DejaVuSans-2e" x="63.623047"/>
       <use xlink:href="#DejaVuSans-30" x="95.410156"/>
      </g>
     </g>
    </g>
    <g id="ytick_4">
     <g id="line2d_12">
      <g>
       <use xlink:href="#m13896c0f28" x="55.760938" y="189.371799" style="stroke: #000000; stroke-width: 0.8"/>
      </g>
     </g>
     <g id="text_13">
      <!-- 2.5 -->
      <g transform="translate(32.857813 193.171018) scale(0.1 -0.1)">
       <use xlink:href="#DejaVuSans-32"/>
       <use xlink:href="#DejaVuSans-2e" x="63.623047"/>
       <use xlink:href="#DejaVuSans-35" x="95.410156"/>
      </g>
     </g>
    </g>
    <g id="ytick_5">
     <g id="line2d_13">
      <g>
       <use xlink:href="#m13896c0f28" x="55.760938" y="151.56171" style="stroke: #000000; stroke-width: 0.8"/>
      </g>
     </g>
     <g id="text_14">
      <!-- 5.0 -->
      <g transform="translate(32.857813 155.360929) scale(0.1 -0.1)">
       <use xlink:href="#DejaVuSans-35"/>
       <use xlink:href="#DejaVuSans-2e" x="63.623047"/>
       <use xlink:href="#DejaVuSans-30" x="95.410156"/>
      </g>
     </g>
    </g>
    <g id="ytick_6">
     <g id="line2d_14">
      <g>
       <use xlink:href="#m13896c0f28" x="55.760938" y="113.751621" style="stroke: #000000; stroke-width: 0.8"/>
      </g>
     </g>
     <g id="text_15">
      <!-- 7.5 -->
      <g transform="translate(32.857813 117.550839) scale(0.1 -0.1)">
       <defs>
        <path id="DejaVuSans-37" d="M 525 4666 
L 3525 4666 
L 3525 4397 
L 1831 0 
L 1172 0 
L 2766 4134 
L 525 4134 
L 525 4666 
z
" transform="scale(0.015625)"/>
       </defs>
       <use xlink:href="#DejaVuSans-37"/>
       <use xlink:href="#DejaVuSans-2e" x="63.623047"/>
       <use xlink:href="#DejaVuSans-35" x="95.410156"/>
      </g>
     </g>
    </g>
    <g id="ytick_7">
     <g id="line2d_15">
      <g>
       <use xlink:href="#m13896c0f28" x="55.760938" y="75.941532" style="stroke: #000000; stroke-width: 0.8"/>
      </g>
     </g>
     <g id="text_16">
      <!-- 10.0 -->
      <g transform="translate(26.495313 79.74075) scale(0.1 -0.1)">
       <use xlink:href="#DejaVuSans-31"/>
       <use xlink:href="#DejaVuSans-30" x="63.623047"/>
       <use xlink:href="#DejaVuSans-2e" x="127.246094"/>
       <use xlink:href="#DejaVuSans-30" x="159.033203"/>
      </g>
     </g>
    </g>
    <g id="ytick_8">
     <g id="line2d_16">
      <g>
       <use xlink:href="#m13896c0f28" x="55.760938" y="38.131442" style="stroke: #000000; stroke-width: 0.8"/>
      </g>
     </g>
     <g id="text_17">
      <!-- 12.5 -->
      <g transform="translate(26.495313 41.930661) scale(0.1 -0.1)">
       <use xlink:href="#DejaVuSans-31"/>
       <use xlink:href="#DejaVuSans-32" x="63.623047"/>
       <use xlink:href="#DejaVuSans-2e" x="127.246094"/>
       <use xlink:href="#DejaVuSans-35" x="159.033203"/>
      </g>
     </g>
    </g>
    <g id="text_18">
     <!-- TOTAL effective radiative forcing (W m-2) -->
     <g transform="translate(18.398437 261.314062) rotate(-90) scale(0.1 -0.1)">
      <defs>
       <path id="DejaVuSans-54" d="M -19 4666 
L 3928 4666 
L 3928 4134 
L 2272 4134 
L 2272 0 
L 1638 0 
L 1638 4134 
L -19 4134 
L -19 4666 
z
" transform="scale(0.015625)"/>
       <path id="DejaVuSans-4f" d="M 2522 4238 
Q 1834 4238 1429 3725 
Q 1025 3213 1025 2328 
Q 1025 1447 1429 934 
Q 1834 422 2522 422 
Q 3209 422 3611 934 
Q 4013 1447 4013 2328 
Q 4013 3213 3611 3725 
Q 3209 4238 2522 4238 
z
M 2522 4750 
Q 3503 4750 4090 4092 
Q 4678 3434 4678 2328 
Q 4678 1225 4090 567 
Q 3503 -91 2522 -91 
Q 1538 -91 948 565 
Q 359 1222 359 2328 
Q 359 3434 948 4092 
Q 1538 4750 2522 4750 
z
" transform="scale(0.015625)"/>
       <path id="DejaVuSans-41" d="M 2188 4044 
L 1331 1722 
L 3047 1722 
L 2188 4044 
z
M 1831 4666 
L 2547 4666 
L 4325 0 
L 3669 0 
L 3244 1197 
L 1141 1197 
L 716 0 
L 50 0 
L 1831 4666 
z
" transform="scale(0.015625)"/>
       <path id="DejaVuSans-4c" d="M 628 4666 
L 1259 4666 
L 1259 531 
L 3531 531 
L 3531 0 
L 628 0 
L 628 4666 
z
" transform="scale(0.015625)"/>
       <path id="DejaVuSans-20" transform="scale(0.015625)"/>
       <path id="DejaVuSans-66" d="M 2375 4863 
L 2375 4384 
L 1825 4384 
Q 1516 4384 1395 4259 
Q 1275 4134 1275 3809 
L 1275 3500 
L 2222 3500 
L 2222 3053 
L 1275 3053 
L 1275 0 
L 697 0 
L 697 3053 
L 147 3053 
L 147 3500 
L 697 3500 
L 697 3744 
Q 697 4328 969 4595 
Q 1241 4863 1831 4863 
L 2375 4863 
z
" transform="scale(0.015625)"/>
       <path id="DejaVuSans-63" d="M 3122 3366 
L 3122 2828 
Q 2878 2963 2633 3030 
Q 2388 3097 2138 3097 
Q 1578 3097 1268 2742 
Q 959 2388 959 1747 
Q 959 1106 1268 751 
Q 1578 397 2138 397 
Q 2388 397 2633 464 
Q 2878 531 3122 666 
L 3122 134 
Q 2881 22 2623 -34 
Q 2366 -91 2075 -91 
Q 1284 -91 818 406 
Q 353 903 353 1747 
Q 353 2603 823 3093 
Q 1294 3584 2113 3584 
Q 2378 3584 2631 3529 
Q 2884 3475 3122 3366 
z
" transform="scale(0.015625)"/>
       <path id="DejaVuSans-74" d="M 1172 4494 
L 1172 3500 
L 2356 3500 
L 2356 3053 
L 1172 3053 
L 1172 1153 
Q 1172 725 1289 603 
Q 1406 481 1766 481 
L 2356 481 
L 2356 0 
L 1766 0 
Q 1100 0 847 248 
Q 594 497 594 1153 
L 594 3053 
L 172 3053 
L 172 3500 
L 594 3500 
L 594 4494 
L 1172 4494 
z
" transform="scale(0.015625)"/>
       <path id="DejaVuSans-69" d="M 603 3500 
L 1178 3500 
L 1178 0 
L 603 0 
L 603 3500 
z
M 603 4863 
L 1178 4863 
L 1178 4134 
L 603 4134 
L 603 4863 
z
" transform="scale(0.015625)"/>
       <path id="DejaVuSans-76" d="M 191 3500 
L 800 3500 
L 1894 563 
L 2988 3500 
L 3597 3500 
L 2284 0 
L 1503 0 
L 191 3500 
z
" transform="scale(0.015625)"/>
       <path id="DejaVuSans-64" d="M 2906 2969 
L 2906 4863 
L 3481 4863 
L 3481 0 
L 2906 0 
L 2906 525 
Q 2725 213 2448 61 
Q 2172 -91 1784 -91 
Q 1150 -91 751 415 
Q 353 922 353 1747 
Q 353 2572 751 3078 
Q 1150 3584 1784 3584 
Q 2172 3584 2448 3432 
Q 2725 3281 2906 2969 
z
M 947 1747 
Q 947 1113 1208 752 
Q 1469 391 1925 391 
Q 2381 391 2643 752 
Q 2906 1113 2906 1747 
Q 2906 2381 2643 2742 
Q 2381 3103 1925 3103 
Q 1469 3103 1208 2742 
Q 947 2381 947 1747 
z
" transform="scale(0.015625)"/>
       <path id="DejaVuSans-6f" d="M 1959 3097 
Q 1497 3097 1228 2736 
Q 959 2375 959 1747 
Q 959 1119 1226 758 
Q 1494 397 1959 397 
Q 2419 397 2687 759 
Q 2956 1122 2956 1747 
Q 2956 2369 2687 2733 
Q 2419 3097 1959 3097 
z
M 1959 3584 
Q 2709 3584 3137 3096 
Q 3566 2609 3566 1747 
Q 3566 888 3137 398 
Q 2709 -91 1959 -91 
Q 1206 -91 779 398 
Q 353 888 353 1747 
Q 353 2609 779 3096 
Q 1206 3584 1959 3584 
z
" transform="scale(0.015625)"/>
       <path id="DejaVuSans-6e" d="M 3513 2113 
L 3513 0 
L 2938 0 
L 2938 2094 
Q 2938 2591 2744 2837 
Q 2550 3084 2163 3084 
Q 1697 3084 1428 2787 
Q 1159 2491 1159 1978 
L 1159 0 
L 581 0 
L 581 3500 
L 1159 3500 
L 1159 2956 
Q 1366 3272 1645 3428 
Q 1925 3584 2291 3584 
Q 2894 3584 3203 3211 
Q 3513 2838 3513 2113 
z
" transform="scale(0.015625)"/>
       <path id="DejaVuSans-67" d="M 2906 1791 
Q 2906 2416 2648 2759 
Q 2391 3103 1925 3103 
Q 1463 3103 1205 2759 
Q 947 2416 947 1791 
Q 947 1169 1205 825 
Q 1463 481 1925 481 
Q 2391 481 2648 825 
Q 2906 1169 2906 1791 
z
M 3481 434 
Q 3481 -459 3084 -895 
Q 2688 -1331 1869 -1331 
Q 1566 -1331 1297 -1286 
Q 1028 -1241 775 -1147 
L 775 -588 
Q 1028 -725 1275 -790 
Q 1522 -856 1778 -856 
Q 2344 -856 2625 -561 
Q 2906 -266 2906 331 
L 2906 616 
Q 2728 306 2450 153 
Q 2172 0 1784 0 
Q 1141 0 747 490 
Q 353 981 353 1791 
Q 353 2603 747 3093 
Q 1141 3584 1784 3584 
Q 2172 3584 2450 3431 
Q 2728 3278 2906 2969 
L 2906 3500 
L 3481 3500 
L 3481 434 
z
" transform="scale(0.015625)"/>
       <path id="DejaVuSans-28" d="M 1984 4856 
Q 1566 4138 1362 3434 
Q 1159 2731 1159 2009 
Q 1159 1288 1364 580 
Q 1569 -128 1984 -844 
L 1484 -844 
Q 1016 -109 783 600 
Q 550 1309 550 2009 
Q 550 2706 781 3412 
Q 1013 4119 1484 4856 
L 1984 4856 
z
" transform="scale(0.015625)"/>
       <path id="DejaVuSans-57" d="M 213 4666 
L 850 4666 
L 1831 722 
L 2809 4666 
L 3519 4666 
L 4500 722 
L 5478 4666 
L 6119 4666 
L 4947 0 
L 4153 0 
L 3169 4050 
L 2175 0 
L 1381 0 
L 213 4666 
z
" transform="scale(0.015625)"/>
       <path id="DejaVuSans-6d" d="M 3328 2828 
Q 3544 3216 3844 3400 
Q 4144 3584 4550 3584 
Q 5097 3584 5394 3201 
Q 5691 2819 5691 2113 
L 5691 0 
L 5113 0 
L 5113 2094 
Q 5113 2597 4934 2840 
Q 4756 3084 4391 3084 
Q 3944 3084 3684 2787 
Q 3425 2491 3425 1978 
L 3425 0 
L 2847 0 
L 2847 2094 
Q 2847 2600 2669 2842 
Q 2491 3084 2119 3084 
Q 1678 3084 1418 2786 
Q 1159 2488 1159 1978 
L 1159 0 
L 581 0 
L 581 3500 
L 1159 3500 
L 1159 2956 
Q 1356 3278 1631 3431 
Q 1906 3584 2284 3584 
Q 2666 3584 2933 3390 
Q 3200 3197 3328 2828 
z
" transform="scale(0.015625)"/>
       <path id="DejaVuSans-2d" d="M 313 2009 
L 1997 2009 
L 1997 1497 
L 313 1497 
L 313 2009 
z
" transform="scale(0.015625)"/>
       <path id="DejaVuSans-29" d="M 513 4856 
L 1013 4856 
Q 1481 4119 1714 3412 
Q 1947 2706 1947 2009 
Q 1947 1309 1714 600 
Q 1481 -109 1013 -844 
L 513 -844 
Q 928 -128 1133 580 
Q 1338 1288 1338 2009 
Q 1338 2731 1133 3434 
Q 928 4138 513 4856 
z
" transform="scale(0.015625)"/>
      </defs>
      <use xlink:href="#DejaVuSans-54"/>
      <use xlink:href="#DejaVuSans-4f" x="61.083984"/>
      <use xlink:href="#DejaVuSans-54" x="139.794922"/>
      <use xlink:href="#DejaVuSans-41" x="193.128906"/>
      <use xlink:href="#DejaVuSans-4c" x="261.537109"/>
      <use xlink:href="#DejaVuSans-20" x="317.25"/>
      <use xlink:href="#DejaVuSans-65" x="349.037109"/>
      <use xlink:href="#DejaVuSans-66" x="410.560547"/>
      <use xlink:href="#DejaVuSans-66" x="445.765625"/>
      <use xlink:href="#DejaVuSans-65" x="480.970703"/>
      <use xlink:href="#DejaVuSans-63" x="542.494141"/>
      <use xlink:href="#DejaVuSans-74" x="597.474609"/>
      <use xlink:href="#DejaVuSans-69" x="636.683594"/>
      <use xlink:href="#DejaVuSans-76" x="664.466797"/>
      <use xlink:href="#DejaVuSans-65" x="723.646484"/>
      <use xlink:href="#DejaVuSans-20" x="785.169922"/>
      <use xlink:href="#DejaVuSans-72" x="816.957031"/>
      <use xlink:href="#DejaVuSans-61" x="858.070312"/>
      <use xlink:href="#DejaVuSans-64" x="919.349609"/>
      <use xlink:href="#DejaVuSans-69" x="982.826172"/>
      <use xlink:href="#DejaVuSans-61" x="1010.609375"/>
      <use xlink:href="#DejaVuSans-74" x="1071.888672"/>
      <use xlink:href="#DejaVuSans-69" x="1111.097656"/>
      <use xlink:href="#DejaVuSans-76" x="1138.880859"/>
      <use xlink:href="#DejaVuSans-65" x="1198.060547"/>
      <use xlink:href="#DejaVuSans-20" x="1259.583984"/>
      <use xlink:href="#DejaVuSans-66" x="1291.371094"/>
      <use xlink:href="#DejaVuSans-6f" x="1326.576172"/>
      <use xlink:href="#DejaVuSans-72" x="1387.757812"/>
      <use xlink:href="#DejaVuSans-63" x="1426.621094"/>
      <use xlink:href="#DejaVuSans-69" x="1481.601562"/>
      <use xlink:href="#DejaVuSans-6e" x="1509.384766"/>
      <use xlink:href="#DejaVuSans-67" x="1572.763672"/>
      <use xlink:href="#DejaVuSans-20" x="1636.240234"/>
      <use xlink:href="#DejaVuSans-28" x="1668.027344"/>
      <use xlink:href="#DejaVuSans-57" x="1707.041016"/>
      <use xlink:href="#DejaVuSans-20" x="1805.917969"/>
      <use xlink:href="#DejaVuSans-6d" x="1837.705078"/>
      <use xlink:href="#DejaVuSans-2d" x="1935.117188"/>
      <use xlink:href="#DejaVuSans-32" x="1971.201172"/>
      <use xlink:href="#DejaVuSans-29" x="2034.824219"/>
     </g>
    </g>
   </g>
   <g id="line2d_17">
    <path d="M 73.680895 223.259211 
L 74.15876 223.509952 
L 75.114491 224.467301 
L 75.592357 224.983551 
L 76.070223 225.689885 
L 76.548088 229.193871 
L 77.503819 224.955744 
L 77.981685 223.754916 
L 78.45955 223.231014 
L 78.937416 223.252736 
L 79.415281 237.224768 
L 79.893147 233.467464 
L 80.371012 227.90969 
L 80.848878 226.109629 
L 81.326743 230.649943 
L 81.804609 231.201049 
L 82.282474 226.427472 
L 82.76034 223.837615 
L 83.238205 224.790391 
L 84.193937 223.420347 
L 84.671802 223.588474 
L 85.627533 224.538869 
L 86.105399 224.803484 
L 86.583264 224.714945 
L 87.06113 224.019861 
L 87.538995 222.896509 
L 88.016861 222.229592 
L 88.494726 222.196157 
L 88.972592 222.523659 
L 89.928323 279.214834 
L 90.406188 247.014094 
L 90.884054 234.633105 
L 91.36192 228.488137 
L 91.839785 224.643966 
L 92.317651 222.411367 
L 92.795516 221.636224 
L 93.273382 221.692047 
L 93.751247 221.890431 
L 94.706978 222.848368 
L 95.184844 223.379562 
L 95.662709 225.820698 
L 96.140575 227.681254 
L 97.096306 225.01245 
L 98.052037 223.617752 
L 98.529902 223.123537 
L 99.007768 222.799743 
L 99.485634 222.722685 
L 100.441365 223.010476 
L 101.397096 223.591514 
L 101.874961 277.557553 
L 102.352827 261.818626 
L 102.830692 237.626027 
L 103.308558 228.526794 
L 103.786423 225.206121 
L 104.264289 223.858328 
L 104.742154 276.3662 
L 105.22002 291.096307 
L 105.697885 248.556385 
L 106.175751 231.651509 
L 106.653616 225.982974 
L 107.131482 224.265696 
L 107.609348 225.389454 
L 108.087213 225.458809 
L 108.565079 230.540996 
L 109.042944 226.698116 
L 109.52081 224.117834 
L 109.998675 222.842762 
L 110.476541 222.229994 
L 110.954406 222.046879 
L 111.432272 222.125577 
L 111.910137 222.446098 
L 112.388003 259.554827 
L 112.865868 248.64163 
L 113.343734 232.552305 
L 113.821599 226.472196 
L 114.299465 250.811598 
L 114.77733 240.935849 
L 115.255196 228.113282 
L 115.733062 223.448041 
L 116.210927 222.115894 
L 116.688793 221.941639 
L 117.166658 222.258922 
L 118.122389 223.141216 
L 118.600255 223.408622 
L 119.07812 223.424348 
L 119.555986 225.931948 
L 120.033851 224.900099 
L 120.511717 223.479193 
L 120.989582 222.81163 
L 121.467448 222.480968 
L 122.423179 222.508224 
L 122.901045 225.111597 
L 123.37891 225.83546 
L 123.856776 223.994822 
L 124.334641 223.883604 
L 124.812507 226.279018 
L 125.290372 223.995261 
L 125.768238 222.734329 
L 126.246103 222.215944 
L 126.723969 223.1151 
L 127.201834 234.422452 
L 128.157565 224.562551 
L 128.635431 223.046175 
L 129.113296 222.548708 
L 129.591162 222.449903 
L 130.546893 221.917477 
L 131.024759 221.871808 
L 131.502624 221.709316 
L 131.98049 221.869065 
L 132.458355 225.151314 
L 132.936221 223.385535 
L 133.891952 223.270654 
L 134.369817 222.726953 
L 134.847683 222.531298 
L 135.325548 222.494851 
L 135.803414 222.953414 
L 136.281279 222.716369 
L 136.759145 222.199124 
L 137.23701 230.027177 
L 137.714876 252.177543 
L 138.192741 234.582988 
L 138.670607 226.310465 
L 139.148473 225.540202 
L 139.626338 223.307893 
L 140.104204 222.419161 
L 141.059935 226.445398 
L 141.5378 223.32537 
L 142.015666 221.2799 
L 142.493531 220.883093 
L 144.882859 222.57438 
L 145.83859 222.942843 
L 146.316455 224.481081 
L 146.794321 236.556473 
L 147.272187 229.298849 
L 147.750052 224.541606 
L 148.227918 222.789538 
L 148.705783 225.062925 
L 149.183649 223.525064 
L 149.661514 222.885019 
L 150.13938 223.155303 
L 150.617245 223.268125 
L 151.095111 230.087647 
L 151.572976 231.170644 
L 152.050842 225.244808 
L 152.528707 222.258607 
L 153.006573 221.715361 
L 153.962304 221.166744 
L 154.44017 220.487251 
L 154.918035 221.432507 
L 155.395901 220.534065 
L 155.873766 222.514954 
L 156.351632 222.926732 
L 156.829497 221.576681 
L 157.785228 220.820117 
L 158.263094 220.830451 
L 158.740959 221.319909 
L 159.218825 224.138079 
L 159.69669 220.878213 
L 160.174556 220.112875 
L 160.652421 221.581458 
L 161.130287 220.242693 
L 161.608152 220.038517 
L 162.086018 219.966436 
L 162.563884 219.359958 
L 163.041749 219.62369 
L 163.519615 219.004076 
L 163.99748 219.336149 
L 164.475346 220.171257 
L 165.431077 220.854416 
L 165.908942 221.131181 
L 166.386808 220.831671 
L 166.864673 219.228341 
L 167.342539 218.763577 
L 168.29827 218.920129 
L 168.776135 218.718158 
L 169.254001 220.004033 
L 169.731866 220.928445 
L 170.209732 220.911829 
L 170.687598 221.065396 
L 171.165463 220.880426 
L 171.643329 221.101877 
L 172.121194 220.654743 
L 172.59906 220.018911 
L 173.076925 219.757003 
L 173.554791 220.493143 
L 174.032656 220.893845 
L 174.510522 222.801418 
L 174.988387 225.491232 
L 175.466253 236.781059 
L 175.944118 235.443909 
L 176.421984 230.411968 
L 176.899849 223.615548 
L 177.377715 225.555598 
L 178.333446 222.768638 
L 178.811312 222.65147 
L 179.289177 224.278434 
L 180.244908 221.067868 
L 180.722774 221.306206 
L 181.200639 225.298594 
L 181.678505 221.74556 
L 182.15637 219.308808 
L 182.634236 217.539099 
L 183.112101 216.495283 
L 183.589967 216.287662 
L 184.067832 215.645185 
L 184.545698 219.119955 
L 185.023563 226.079985 
L 185.501429 219.51481 
L 185.979295 215.847643 
L 186.45716 214.987726 
L 186.935026 213.361106 
L 187.890757 208.956658 
L 188.368622 208.527903 
L 188.846488 216.388421 
L 189.324353 234.901796 
L 190.280084 210.615233 
L 190.75795 207.18732 
L 191.235815 205.643584 
L 191.713681 204.863693 
L 192.669412 200.970447 
L 193.147277 200.177585 
L 193.625143 199.986205 
L 194.103009 199.151386 
L 194.580874 199.939789 
L 195.05874 200.291688 
L 195.536605 200.916833 
L 196.014471 200.953362 
L 196.492336 200.450085 
L 196.970202 199.374028 
L 197.448067 198.742302 
L 197.925933 197.022471 
L 198.403798 196.449342 
L 199.359529 193.695363 
L 199.837395 193.216179 
L 200.31526 191.56953 
L 200.793126 191.10562 
L 202.226723 188.472584 
L 202.704588 187.492653 
L 204.138185 183.541059 
L 204.61605 182.711116 
L 205.571781 181.766784 
L 206.049647 181.393721 
L 207.005378 180.408661 
L 207.483243 179.8958 
L 207.961109 179.87415 
L 208.438974 179.722518 
L 208.91684 179.288208 
L 209.394705 178.621597 
L 209.872571 178.479696 
L 210.350437 178.16364 
L 210.828302 178.378521 
L 211.306168 178.358658 
L 212.261899 179.058752 
L 212.739764 179.596448 
L 213.695495 180.126266 
L 214.173361 180.188027 
L 214.651226 179.896298 
L 215.606957 179.636739 
L 216.084823 179.869883 
L 216.562688 180.486682 
L 217.040554 181.295692 
L 218.474151 182.833518 
L 218.952016 183.048616 
L 219.907747 182.885897 
L 221.341344 183.55087 
L 222.297075 184.631861 
L 223.252806 185.374628 
L 223.730671 185.618999 
L 224.208537 185.734701 
L 225.164268 185.338734 
L 225.642134 185.334782 
L 226.119999 185.63146 
L 228.031461 187.292002 
L 228.987192 187.940159 
L 229.465058 188.213639 
L 229.942923 188.319679 
L 231.37652 188.168154 
L 232.332251 188.576075 
L 234.243713 190.266987 
L 235.199444 190.702651 
L 235.67731 190.677842 
L 236.633041 190.406257 
L 237.110906 190.234467 
L 237.588772 190.632022 
L 239.022368 192.258892 
L 239.978099 192.948977 
L 240.455965 193.049323 
L 241.411696 192.885613 
L 242.845293 193.990847 
L 243.801024 195.054987 
L 244.756755 195.755418 
L 245.23462 195.916905 
L 245.712486 195.857448 
L 246.190351 195.452329 
L 247.146082 195.869519 
L 247.623948 196.481388 
L 248.101813 196.824898 
L 249.057545 197.767807 
L 250.013276 198.314723 
L 250.491141 198.232978 
L 251.446872 197.700068 
L 251.924738 198.194877 
L 252.402603 198.33589 
L 253.358334 199.505069 
L 254.314065 200.233077 
L 254.791931 200.392321 
L 255.269796 200.287597 
L 255.747662 199.702572 
L 256.703393 199.816819 
L 257.659124 200.836305 
L 258.13699 201.484226 
L 259.570586 202.383563 
L 260.048452 202.514516 
L 261.004183 202.235362 
L 262.437779 202.65586 
L 262.915645 203.082048 
L 263.39351 203.25474 
L 264.349241 203.808507 
L 265.304973 204.090153 
L 265.782838 203.928287 
L 266.738569 203.209607 
L 267.6943 203.497574 
L 268.650031 204.288821 
L 269.605762 204.911262 
L 270.083628 204.96988 
L 270.561493 204.770937 
L 271.517224 203.828779 
L 271.99509 204.057283 
L 272.472955 204.03341 
L 273.428687 205.012668 
L 274.384418 205.510216 
L 274.862283 205.58824 
L 275.340149 205.468444 
L 275.818014 205.030127 
L 276.773745 204.564387 
L 277.251611 204.575398 
L 279.640938 205.821296 
L 280.59667 205.995393 
L 281.074535 205.933708 
L 281.552401 205.712624 
L 282.030266 205.20203 
L 283.463863 204.819004 
L 284.419594 205.410649 
L 284.897459 205.579458 
L 285.85319 205.631782 
L 286.331056 205.486627 
L 287.286787 204.539354 
L 287.764652 204.261523 
L 288.720384 204.577802 
L 289.198249 204.956247 
L 291.587577 205.601065 
L 292.065442 205.508746 
L 293.499039 204.694517 
L 294.45477 204.728162 
L 296.366232 205.657736 
L 297.321963 205.650688 
L 297.799829 205.387171 
L 299.233425 204.22396 
L 299.711291 204.425022 
L 301.144887 205.435718 
L 302.100618 205.690661 
L 302.578484 205.539904 
L 303.534215 204.924069 
L 304.489946 204.735146 
L 305.445677 205.092853 
L 305.923543 205.456642 
L 306.879274 205.706018 
L 307.357139 205.694151 
L 307.835005 205.512212 
L 308.790736 204.649515 
L 309.746467 204.669675 
L 310.702198 205.319113 
L 313.091526 205.976496 
L 313.569391 205.849626 
L 314.525122 205.220234 
L 315.958719 205.193516 
L 317.870181 206.138042 
L 318.825912 206.096931 
L 319.781643 205.355667 
L 320.737374 204.719244 
L 322.170971 205.736037 
L 323.126702 206.184296 
L 323.604567 206.200147 
L 325.038164 205.378668 
L 325.993895 205.464658 
L 326.47176 205.670832 
L 326.949626 206.031109 
L 327.905357 206.307236 
L 328.383223 206.354996 
L 328.861088 206.192555 
L 329.816819 205.335082 
L 330.294685 205.19717 
L 330.77255 205.221788 
L 331.250416 205.74587 
L 331.728281 205.875996 
L 332.684012 206.405547 
L 333.161878 206.547006 
L 333.639743 206.45789 
L 335.07334 205.364475 
L 335.551205 205.365614 
L 336.029071 205.665147 
L 338.418399 205.744548 
L 383.815624 206.651383 
L 432.080043 207.35573 
L 432.080043 207.35573 
" clip-path="url(#pec5e6d5e4a)" style="fill: none; stroke: #1f77b4; stroke-width: 1.5; stroke-linecap: square"/>
   </g>
   <g id="line2d_18">
    <path d="M 73.680895 223.259211 
L 74.15876 223.509952 
L 75.114491 224.467301 
L 75.592357 224.983551 
L 76.070223 225.689885 
L 76.548088 229.193871 
L 77.503819 224.955744 
L 77.981685 223.754916 
L 78.45955 223.231014 
L 78.937416 223.252736 
L 79.415281 237.224768 
L 79.893147 233.467464 
L 80.371012 227.90969 
L 80.848878 226.109629 
L 81.326743 230.649943 
L 81.804609 231.201049 
L 82.282474 226.427472 
L 82.76034 223.837615 
L 83.238205 224.790391 
L 84.193937 223.420347 
L 84.671802 223.588474 
L 85.627533 224.538869 
L 86.105399 224.803484 
L 86.583264 224.714945 
L 87.06113 224.019861 
L 87.538995 222.896509 
L 88.016861 222.229592 
L 88.494726 222.196157 
L 88.972592 222.523659 
L 89.928323 279.214834 
L 90.406188 247.014094 
L 90.884054 234.633105 
L 91.36192 228.488137 
L 91.839785 224.643966 
L 92.317651 222.411367 
L 92.795516 221.636224 
L 93.273382 221.692047 
L 93.751247 221.890431 
L 94.706978 222.848368 
L 95.184844 223.379562 
L 95.662709 225.820698 
L 96.140575 227.681254 
L 97.096306 225.01245 
L 98.052037 223.617752 
L 98.529902 223.123537 
L 99.007768 222.799743 
L 99.485634 222.722685 
L 100.441365 223.010476 
L 101.397096 223.591514 
L 101.874961 277.557553 
L 102.352827 261.818626 
L 102.830692 237.626027 
L 103.308558 228.526794 
L 103.786423 225.206121 
L 104.264289 223.858328 
L 104.742154 276.3662 
L 105.22002 291.096307 
L 105.697885 248.556385 
L 106.175751 231.651509 
L 106.653616 225.982974 
L 107.131482 224.265696 
L 107.609348 225.389454 
L 108.087213 225.458809 
L 108.565079 230.540996 
L 109.042944 226.698116 
L 109.52081 224.117834 
L 109.998675 222.842762 
L 110.476541 222.229994 
L 110.954406 222.046879 
L 111.432272 222.125577 
L 111.910137 222.446098 
L 112.388003 259.554827 
L 112.865868 248.64163 
L 113.343734 232.552305 
L 113.821599 226.472196 
L 114.299465 250.811598 
L 114.77733 240.935849 
L 115.255196 228.113282 
L 115.733062 223.448041 
L 116.210927 222.115894 
L 116.688793 221.941639 
L 117.166658 222.258922 
L 118.122389 223.141216 
L 118.600255 223.408622 
L 119.07812 223.424348 
L 119.555986 225.931948 
L 120.033851 224.900099 
L 120.511717 223.479193 
L 120.989582 222.81163 
L 121.467448 222.480968 
L 122.423179 222.508224 
L 122.901045 225.111597 
L 123.37891 225.83546 
L 123.856776 223.994822 
L 124.334641 223.883604 
L 124.812507 226.279018 
L 125.290372 223.995261 
L 125.768238 222.734329 
L 126.246103 222.215944 
L 126.723969 223.1151 
L 127.201834 234.422452 
L 128.157565 224.562551 
L 128.635431 223.046175 
L 129.113296 222.548708 
L 129.591162 222.449903 
L 130.546893 221.917477 
L 131.024759 221.871808 
L 131.502624 221.709316 
L 131.98049 221.869065 
L 132.458355 225.151314 
L 132.936221 223.385535 
L 133.891952 223.270654 
L 134.369817 222.726953 
L 134.847683 222.531298 
L 135.325548 222.494851 
L 135.803414 222.953414 
L 136.281279 222.716369 
L 136.759145 222.199124 
L 137.23701 230.027177 
L 137.714876 252.177543 
L 138.192741 234.582988 
L 138.670607 226.310465 
L 139.148473 225.540202 
L 139.626338 223.307893 
L 140.104204 222.419161 
L 141.059935 226.445398 
L 141.5378 223.32537 
L 142.015666 221.2799 
L 142.493531 220.883093 
L 144.882859 222.57438 
L 145.83859 222.942843 
L 146.316455 224.481081 
L 146.794321 236.556473 
L 147.272187 229.298849 
L 147.750052 224.541606 
L 148.227918 222.789538 
L 148.705783 225.062925 
L 149.183649 223.525064 
L 149.661514 222.885019 
L 150.13938 223.155303 
L 150.617245 223.268125 
L 151.095111 230.087647 
L 151.572976 231.170644 
L 152.050842 225.244808 
L 152.528707 222.258607 
L 153.006573 221.715361 
L 153.962304 221.166744 
L 154.44017 220.487251 
L 154.918035 221.432507 
L 155.395901 220.534065 
L 155.873766 222.514954 
L 156.351632 222.926732 
L 156.829497 221.576681 
L 157.785228 220.820117 
L 158.263094 220.830451 
L 158.740959 221.319909 
L 159.218825 224.138079 
L 159.69669 220.878213 
L 160.174556 220.112875 
L 160.652421 221.581458 
L 161.130287 220.242693 
L 161.608152 220.038517 
L 162.086018 219.966436 
L 162.563884 219.359958 
L 163.041749 219.62369 
L 163.519615 219.004076 
L 163.99748 219.336149 
L 164.475346 220.171257 
L 165.431077 220.854416 
L 165.908942 221.131181 
L 166.386808 220.831671 
L 166.864673 219.228341 
L 167.342539 218.763577 
L 168.29827 218.920129 
L 168.776135 218.718158 
L 169.254001 220.004033 
L 169.731866 220.928445 
L 170.209732 220.911829 
L 170.687598 221.065396 
L 171.165463 220.880426 
L 171.643329 221.101877 
L 172.121194 220.654743 
L 172.59906 220.018911 
L 173.076925 219.757003 
L 173.554791 220.493143 
L 174.032656 220.893845 
L 174.510522 222.801418 
L 174.988387 225.491232 
L 175.466253 236.781059 
L 175.944118 235.443909 
L 176.421984 230.411968 
L 176.899849 223.615548 
L 177.377715 225.555598 
L 178.333446 222.768638 
L 178.811312 222.65147 
L 179.289177 224.278434 
L 180.244908 221.067868 
L 180.722774 221.306206 
L 181.200639 225.298594 
L 181.678505 221.74556 
L 182.15637 219.308808 
L 182.634236 217.539099 
L 183.112101 216.495283 
L 183.589967 216.287662 
L 184.067832 215.645185 
L 184.545698 219.119955 
L 185.023563 226.079985 
L 185.501429 219.51481 
L 185.979295 215.847643 
L 186.45716 214.987726 
L 186.935026 213.361106 
L 187.890757 208.956658 
L 188.368622 208.527903 
L 188.846488 216.388421 
L 189.324353 234.901796 
L 190.280084 210.615233 
L 190.75795 207.18732 
L 191.235815 205.643584 
L 191.713681 204.863693 
L 192.669412 200.970447 
L 193.147277 200.177585 
L 193.625143 199.986205 
L 194.103009 199.151386 
L 194.580874 199.939789 
L 195.05874 200.291688 
L 195.536605 200.916833 
L 196.014471 200.953362 
L 196.492336 200.450085 
L 196.970202 199.374028 
L 197.448067 198.742302 
L 197.925933 197.022471 
L 198.403798 196.449342 
L 199.359529 193.695363 
L 199.837395 193.216179 
L 200.31526 191.569678 
L 200.793126 191.042739 
L 202.226723 188.103064 
L 203.660319 184.756085 
L 204.61605 183.257644 
L 207.005378 181.267662 
L 207.961109 180.026178 
L 208.438974 179.174233 
L 210.350437 174.78005 
L 210.828302 174.272305 
L 211.306168 173.522187 
L 212.739764 172.28911 
L 213.695495 170.846795 
L 214.173361 169.929688 
L 215.129092 167.576644 
L 215.606957 166.453949 
L 216.084823 165.712821 
L 216.562688 165.354277 
L 217.040554 165.185706 
L 218.474151 164.097639 
L 218.952016 163.467471 
L 219.907747 161.65654 
L 221.341344 159.939174 
L 222.77494 159.336741 
L 223.730671 158.558552 
L 224.208537 158.026919 
L 225.164268 156.358855 
L 225.642134 155.729616 
L 226.119999 155.406995 
L 228.509327 154.562729 
L 229.465058 154.045161 
L 229.942923 153.636644 
L 231.37652 152.005175 
L 232.332251 151.41654 
L 234.243713 151.232209 
L 235.199444 150.786671 
L 235.67731 150.334585 
L 236.633041 149.28554 
L 237.110906 148.760166 
L 237.588772 148.807694 
L 239.022368 149.40629 
L 239.978099 149.432985 
L 240.455965 149.210083 
L 241.411696 148.363831 
L 242.367427 148.299949 
L 242.845293 148.415617 
L 243.323158 148.681978 
L 244.278889 148.901704 
L 244.756755 148.859285 
L 245.23462 148.703191 
L 245.712486 148.330358 
L 246.190351 147.615965 
L 247.146082 147.425943 
L 247.623948 147.739853 
L 248.101813 147.788252 
L 248.579679 148.045843 
L 249.53541 148.195632 
L 250.013276 148.128793 
L 250.491141 147.766574 
L 251.446872 146.68042 
L 251.924738 146.902098 
L 252.402603 146.772277 
L 253.358334 147.406679 
L 254.314065 147.607974 
L 254.791931 147.506969 
L 255.269796 147.143826 
L 255.747662 146.302337 
L 256.703393 145.909116 
L 257.181259 146.103154 
L 258.13699 146.828378 
L 259.570586 146.994738 
L 260.048452 146.884526 
L 261.004183 146.131242 
L 262.437779 145.893787 
L 262.915645 146.114789 
L 263.39351 146.088882 
L 264.349241 146.264659 
L 265.304973 146.191818 
L 265.782838 145.861098 
L 266.738569 144.822018 
L 267.6943 144.812515 
L 268.650031 145.329397 
L 269.127897 145.58118 
L 269.605762 145.699056 
L 270.083628 145.639553 
L 270.561493 145.327929 
L 271.517224 144.176012 
L 271.99509 144.307294 
L 272.472955 144.191573 
L 273.428687 145.002124 
L 274.384418 145.35082 
L 274.862283 145.362026 
L 275.340149 145.180259 
L 275.818014 144.68469 
L 276.773745 144.119245 
L 277.251611 144.087414 
L 279.640938 145.190016 
L 280.59667 145.33904 
L 281.074535 145.27167 
L 281.552401 145.049448 
L 282.030266 144.542565 
L 283.463863 144.196571 
L 284.419594 144.835273 
L 284.897459 145.030935 
L 285.85319 145.129988 
L 286.331056 145.006141 
L 287.286787 144.098164 
L 287.764652 143.838953 
L 288.720384 144.191107 
L 289.198249 144.586967 
L 291.587577 145.321322 
L 292.065442 145.247625 
L 293.499039 144.492468 
L 294.45477 144.568126 
L 296.366232 145.590104 
L 297.321963 145.634426 
L 297.799829 145.397956 
L 299.233425 144.3219 
L 299.711291 144.554345 
L 301.144887 145.664637 
L 302.100618 145.991369 
L 302.578484 145.878023 
L 303.534215 145.340228 
L 304.489946 145.234043 
L 305.445677 145.678474 
L 305.923543 146.087242 
L 306.879274 146.430015 
L 307.357139 146.466372 
L 307.835005 146.333912 
L 308.790736 145.57353 
L 309.268601 145.580981 
L 309.746467 145.700628 
L 310.702198 146.462042 
L 313.091526 147.437486 
L 313.569391 147.400181 
L 314.525122 146.937396 
L 315.958719 147.134979 
L 317.870181 148.343183 
L 318.825912 148.422372 
L 319.303777 148.17526 
L 320.259509 147.522381 
L 320.737374 147.268607 
L 322.170971 148.441883 
L 323.126702 148.989795 
L 323.604567 149.054504 
L 324.560298 148.573786 
L 325.038164 148.375023 
L 325.993895 148.552769 
L 326.47176 148.803825 
L 326.949626 149.208617 
L 327.905357 149.572594 
L 328.383223 149.663364 
L 328.861088 149.543614 
L 329.816819 148.77034 
L 330.294685 148.673946 
L 330.77255 148.739971 
L 331.250416 149.304852 
L 331.728281 149.475509 
L 332.684012 150.085024 
L 333.161878 150.266031 
L 333.639743 150.21629 
L 335.07334 149.238694 
L 335.551205 149.278099 
L 336.029071 149.615468 
L 338.418399 149.880781 
L 354.187961 151.325278 
L 374.736179 152.964023 
L 401.018783 154.81947 
L 427.301387 156.451238 
L 432.080043 156.714139 
L 432.080043 156.714139 
" clip-path="url(#pec5e6d5e4a)" style="fill: none; stroke: #ff7f0e; stroke-width: 1.5; stroke-linecap: square"/>
   </g>
   <g id="line2d_19">
    <path d="M 73.680895 223.259211 
L 74.15876 223.509952 
L 75.114491 224.467301 
L 75.592357 224.983551 
L 76.070223 225.689885 
L 76.548088 229.193871 
L 77.503819 224.955744 
L 77.981685 223.754916 
L 78.45955 223.231014 
L 78.937416 223.252736 
L 79.415281 237.224768 
L 79.893147 233.467464 
L 80.371012 227.90969 
L 80.848878 226.109629 
L 81.326743 230.649943 
L 81.804609 231.201049 
L 82.282474 226.427472 
L 82.76034 223.837615 
L 83.238205 224.790391 
L 84.193937 223.420347 
L 84.671802 223.588474 
L 85.627533 224.538869 
L 86.105399 224.803484 
L 86.583264 224.714945 
L 87.06113 224.019861 
L 87.538995 222.896509 
L 88.016861 222.229592 
L 88.494726 222.196157 
L 88.972592 222.523659 
L 89.928323 279.214834 
L 90.406188 247.014094 
L 90.884054 234.633105 
L 91.36192 228.488137 
L 91.839785 224.643966 
L 92.317651 222.411367 
L 92.795516 221.636224 
L 93.273382 221.692047 
L 93.751247 221.890431 
L 94.706978 222.848368 
L 95.184844 223.379562 
L 95.662709 225.820698 
L 96.140575 227.681254 
L 97.096306 225.01245 
L 98.052037 223.617752 
L 98.529902 223.123537 
L 99.007768 222.799743 
L 99.485634 222.722685 
L 100.441365 223.010476 
L 101.397096 223.591514 
L 101.874961 277.557553 
L 102.352827 261.818626 
L 102.830692 237.626027 
L 103.308558 228.526794 
L 103.786423 225.206121 
L 104.264289 223.858328 
L 104.742154 276.3662 
L 105.22002 291.096307 
L 105.697885 248.556385 
L 106.175751 231.651509 
L 106.653616 225.982974 
L 107.131482 224.265696 
L 107.609348 225.389454 
L 108.087213 225.458809 
L 108.565079 230.540996 
L 109.042944 226.698116 
L 109.52081 224.117834 
L 109.998675 222.842762 
L 110.476541 222.229994 
L 110.954406 222.046879 
L 111.432272 222.125577 
L 111.910137 222.446098 
L 112.388003 259.554827 
L 112.865868 248.64163 
L 113.343734 232.552305 
L 113.821599 226.472196 
L 114.299465 250.811598 
L 114.77733 240.935849 
L 115.255196 228.113282 
L 115.733062 223.448041 
L 116.210927 222.115894 
L 116.688793 221.941639 
L 117.166658 222.258922 
L 118.122389 223.141216 
L 118.600255 223.408622 
L 119.07812 223.424348 
L 119.555986 225.931948 
L 120.033851 224.900099 
L 120.511717 223.479193 
L 120.989582 222.81163 
L 121.467448 222.480968 
L 122.423179 222.508224 
L 122.901045 225.111597 
L 123.37891 225.83546 
L 123.856776 223.994822 
L 124.334641 223.883604 
L 124.812507 226.279018 
L 125.290372 223.995261 
L 125.768238 222.734329 
L 126.246103 222.215944 
L 126.723969 223.1151 
L 127.201834 234.422452 
L 128.157565 224.562551 
L 128.635431 223.046175 
L 129.113296 222.548708 
L 129.591162 222.449903 
L 130.546893 221.917477 
L 131.024759 221.871808 
L 131.502624 221.709316 
L 131.98049 221.869065 
L 132.458355 225.151314 
L 132.936221 223.385535 
L 133.891952 223.270654 
L 134.369817 222.726953 
L 134.847683 222.531298 
L 135.325548 222.494851 
L 135.803414 222.953414 
L 136.281279 222.716369 
L 136.759145 222.199124 
L 137.23701 230.027177 
L 137.714876 252.177543 
L 138.192741 234.582988 
L 138.670607 226.310465 
L 139.148473 225.540202 
L 139.626338 223.307893 
L 140.104204 222.419161 
L 141.059935 226.445398 
L 141.5378 223.32537 
L 142.015666 221.2799 
L 142.493531 220.883093 
L 144.882859 222.57438 
L 145.83859 222.942843 
L 146.316455 224.481081 
L 146.794321 236.556473 
L 147.272187 229.298849 
L 147.750052 224.541606 
L 148.227918 222.789538 
L 148.705783 225.062925 
L 149.183649 223.525064 
L 149.661514 222.885019 
L 150.13938 223.155303 
L 150.617245 223.268125 
L 151.095111 230.087647 
L 151.572976 231.170644 
L 152.050842 225.244808 
L 152.528707 222.258607 
L 153.006573 221.715361 
L 153.962304 221.166744 
L 154.44017 220.487251 
L 154.918035 221.432507 
L 155.395901 220.534065 
L 155.873766 222.514954 
L 156.351632 222.926732 
L 156.829497 221.576681 
L 157.785228 220.820117 
L 158.263094 220.830451 
L 158.740959 221.319909 
L 159.218825 224.138079 
L 159.69669 220.878213 
L 160.174556 220.112875 
L 160.652421 221.581458 
L 161.130287 220.242693 
L 161.608152 220.038517 
L 162.086018 219.966436 
L 162.563884 219.359958 
L 163.041749 219.62369 
L 163.519615 219.004076 
L 163.99748 219.336149 
L 164.475346 220.171257 
L 165.431077 220.854416 
L 165.908942 221.131181 
L 166.386808 220.831671 
L 166.864673 219.228341 
L 167.342539 218.763577 
L 168.29827 218.920129 
L 168.776135 218.718158 
L 169.254001 220.004033 
L 169.731866 220.928445 
L 170.209732 220.911829 
L 170.687598 221.065396 
L 171.165463 220.880426 
L 171.643329 221.101877 
L 172.121194 220.654743 
L 172.59906 220.018911 
L 173.076925 219.757003 
L 173.554791 220.493143 
L 174.032656 220.893845 
L 174.510522 222.801418 
L 174.988387 225.491232 
L 175.466253 236.781059 
L 175.944118 235.443909 
L 176.421984 230.411968 
L 176.899849 223.615548 
L 177.377715 225.555598 
L 178.333446 222.768638 
L 178.811312 222.65147 
L 179.289177 224.278434 
L 180.244908 221.067868 
L 180.722774 221.306206 
L 181.200639 225.298594 
L 181.678505 221.74556 
L 182.15637 219.308808 
L 182.634236 217.539099 
L 183.112101 216.495283 
L 183.589967 216.287662 
L 184.067832 215.645185 
L 184.545698 219.119955 
L 185.023563 226.079985 
L 185.501429 219.51481 
L 185.979295 215.847643 
L 186.45716 214.987726 
L 186.935026 213.361106 
L 187.890757 208.956658 
L 188.368622 208.527903 
L 188.846488 216.388421 
L 189.324353 234.901796 
L 190.280084 210.615233 
L 190.75795 207.18732 
L 191.235815 205.643584 
L 191.713681 204.863693 
L 192.669412 200.970447 
L 193.147277 200.177585 
L 193.625143 199.986205 
L 194.103009 199.151386 
L 194.580874 199.939789 
L 195.05874 200.291688 
L 195.536605 200.916833 
L 196.014471 200.953362 
L 196.492336 200.450085 
L 196.970202 199.374028 
L 197.448067 198.742302 
L 197.925933 197.022471 
L 198.403798 196.449342 
L 199.359529 193.695363 
L 199.837395 193.216179 
L 200.31526 191.569896 
L 200.793126 191.391784 
L 201.748857 190.156247 
L 202.704588 188.609049 
L 204.138185 185.061315 
L 204.61605 184.228824 
L 206.527512 181.764644 
L 207.483243 180.260798 
L 208.438974 178.444673 
L 210.350437 173.359964 
L 210.828302 172.650472 
L 211.306168 171.688164 
L 212.739764 169.782158 
L 213.695495 167.86915 
L 214.173361 166.699034 
L 215.606957 162.400351 
L 216.084823 161.365674 
L 217.996285 158.633454 
L 218.474151 157.756922 
L 219.429882 155.275691 
L 219.907747 153.830919 
L 221.819209 149.795249 
L 222.77494 148.16015 
L 224.208537 144.948956 
L 225.642134 140.673704 
L 226.597865 138.827253 
L 227.553596 137.144523 
L 229.465058 133.191462 
L 230.420789 130.612928 
L 231.37652 127.896331 
L 232.810116 124.783461 
L 233.765848 122.992425 
L 234.721579 120.964181 
L 235.67731 118.458629 
L 237.110906 113.937259 
L 238.066637 112.156038 
L 239.500234 109.404312 
L 240.455965 107.059805 
L 241.889562 102.943742 
L 242.845293 100.969047 
L 243.801024 99.421921 
L 244.756755 97.633541 
L 245.712486 95.35618 
L 246.190351 93.798966 
L 247.146082 91.981022 
L 247.623948 91.508055 
L 248.101813 90.786883 
L 249.057545 89.658284 
L 250.013276 88.206506 
L 250.969007 85.943231 
L 251.446872 84.718488 
L 251.924738 84.285602 
L 252.402603 83.514624 
L 253.358334 82.901007 
L 254.314065 81.900282 
L 254.791931 81.215066 
L 255.269796 80.276966 
L 255.747662 78.871256 
L 256.703393 77.379827 
L 257.181259 77.038336 
L 258.13699 76.722146 
L 259.570586 75.391102 
L 260.048452 74.798833 
L 261.004183 73.106711 
L 262.437779 71.519709 
L 262.915645 71.306523 
L 263.39351 70.853519 
L 264.349241 70.197204 
L 265.304973 69.321205 
L 265.782838 68.598883 
L 266.738569 66.793678 
L 267.6943 66.038029 
L 268.172166 65.873858 
L 269.127897 65.724735 
L 269.605762 65.491986 
L 270.083628 65.085906 
L 270.561493 64.433304 
L 271.517224 62.61303 
L 271.99509 62.417996 
L 272.472955 61.97947 
L 272.950821 62.139685 
L 273.906552 62.079981 
L 274.862283 61.604993 
L 275.340149 61.127444 
L 276.29588 59.753666 
L 276.773745 59.204076 
L 277.251611 58.892909 
L 280.118804 58.516278 
L 281.074535 57.988346 
L 281.552401 57.522765 
L 282.030266 56.775828 
L 283.463863 55.731529 
L 284.419594 55.922711 
L 284.897459 55.900262 
L 285.85319 55.573225 
L 286.331056 55.241096 
L 287.764652 53.470001 
L 288.720384 53.435758 
L 289.198249 53.643355 
L 291.587577 53.483777 
L 292.065442 53.241046 
L 293.499039 51.995403 
L 294.45477 51.758402 
L 296.366232 52.190276 
L 297.321963 51.956829 
L 297.799829 51.584975 
L 299.233425 50.120859 
L 299.711291 50.228752 
L 301.144887 50.983102 
L 302.100618 51.084644 
L 302.578484 50.862857 
L 303.534215 50.115639 
L 304.489946 49.81004 
L 305.445677 50.064532 
L 305.923543 50.382162 
L 306.879274 50.549403 
L 307.357139 50.501959 
L 307.835005 50.288156 
L 308.790736 49.371927 
L 309.268601 49.304665 
L 309.746467 49.352132 
L 310.702198 49.97604 
L 313.569391 50.718673 
L 314.525122 50.294777 
L 315.958719 50.540568 
L 317.870181 51.796943 
L 318.825912 51.894083 
L 319.303777 51.654986 
L 320.259509 51.015292 
L 320.737374 50.767168 
L 322.170971 51.95351 
L 323.126702 52.508167 
L 323.604567 52.575065 
L 324.560298 52.099376 
L 325.038164 51.901818 
L 325.993895 52.082569 
L 326.47176 52.334912 
L 326.949626 52.739922 
L 327.905357 53.105376 
L 328.383223 53.196806 
L 328.861088 53.077518 
L 329.816819 52.30438 
L 330.294685 52.208289 
L 330.77255 52.274644 
L 331.250416 52.839227 
L 331.728281 53.010152 
L 332.684012 53.619738 
L 333.161878 53.801155 
L 333.639743 53.751002 
L 335.07334 52.774452 
L 335.551205 52.813775 
L 336.029071 53.151369 
L 338.418399 53.419168 
L 358.966616 55.363046 
L 393.372935 58.355229 
L 427.301387 61.102638 
L 432.080043 61.455954 
L 432.080043 61.455954 
" clip-path="url(#pec5e6d5e4a)" style="fill: none; stroke: #2ca02c; stroke-width: 1.5; stroke-linecap: square"/>
   </g>
   <g id="line2d_20">
    <path d="M 73.680895 223.259211 
L 74.15876 223.509952 
L 75.114491 224.467301 
L 75.592357 224.983551 
L 76.070223 225.689885 
L 76.548088 229.193871 
L 77.503819 224.955744 
L 77.981685 223.754916 
L 78.45955 223.231014 
L 78.937416 223.252736 
L 79.415281 237.224768 
L 79.893147 233.467464 
L 80.371012 227.90969 
L 80.848878 226.109629 
L 81.326743 230.649943 
L 81.804609 231.201049 
L 82.282474 226.427472 
L 82.76034 223.837615 
L 83.238205 224.790391 
L 84.193937 223.420347 
L 84.671802 223.588474 
L 85.627533 224.538869 
L 86.105399 224.803484 
L 86.583264 224.714945 
L 87.06113 224.019861 
L 87.538995 222.896509 
L 88.016861 222.229592 
L 88.494726 222.196157 
L 88.972592 222.523659 
L 89.928323 279.214834 
L 90.406188 247.014094 
L 90.884054 234.633105 
L 91.36192 228.488137 
L 91.839785 224.643966 
L 92.317651 222.411367 
L 92.795516 221.636224 
L 93.273382 221.692047 
L 93.751247 221.890431 
L 94.706978 222.848368 
L 95.184844 223.379562 
L 95.662709 225.820698 
L 96.140575 227.681254 
L 97.096306 225.01245 
L 98.052037 223.617752 
L 98.529902 223.123537 
L 99.007768 222.799743 
L 99.485634 222.722685 
L 100.441365 223.010476 
L 101.397096 223.591514 
L 101.874961 277.557553 
L 102.352827 261.818626 
L 102.830692 237.626027 
L 103.308558 228.526794 
L 103.786423 225.206121 
L 104.264289 223.858328 
L 104.742154 276.3662 
L 105.22002 291.096307 
L 105.697885 248.556385 
L 106.175751 231.651509 
L 106.653616 225.982974 
L 107.131482 224.265696 
L 107.609348 225.389454 
L 108.087213 225.458809 
L 108.565079 230.540996 
L 109.042944 226.698116 
L 109.52081 224.117834 
L 109.998675 222.842762 
L 110.476541 222.229994 
L 110.954406 222.046879 
L 111.432272 222.125577 
L 111.910137 222.446098 
L 112.388003 259.554827 
L 112.865868 248.64163 
L 113.343734 232.552305 
L 113.821599 226.472196 
L 114.299465 250.811598 
L 114.77733 240.935849 
L 115.255196 228.113282 
L 115.733062 223.448041 
L 116.210927 222.115894 
L 116.688793 221.941639 
L 117.166658 222.258922 
L 118.122389 223.141216 
L 118.600255 223.408622 
L 119.07812 223.424348 
L 119.555986 225.931948 
L 120.033851 224.900099 
L 120.511717 223.479193 
L 120.989582 222.81163 
L 121.467448 222.480968 
L 122.423179 222.508224 
L 122.901045 225.111597 
L 123.37891 225.83546 
L 123.856776 223.994822 
L 124.334641 223.883604 
L 124.812507 226.279018 
L 125.290372 223.995261 
L 125.768238 222.734329 
L 126.246103 222.215944 
L 126.723969 223.1151 
L 127.201834 234.422452 
L 128.157565 224.562551 
L 128.635431 223.046175 
L 129.113296 222.548708 
L 129.591162 222.449903 
L 130.546893 221.917477 
L 131.024759 221.871808 
L 131.502624 221.709316 
L 131.98049 221.869065 
L 132.458355 225.151314 
L 132.936221 223.385535 
L 133.891952 223.270654 
L 134.369817 222.726953 
L 134.847683 222.531298 
L 135.325548 222.494851 
L 135.803414 222.953414 
L 136.281279 222.716369 
L 136.759145 222.199124 
L 137.23701 230.027177 
L 137.714876 252.177543 
L 138.192741 234.582988 
L 138.670607 226.310465 
L 139.148473 225.540202 
L 139.626338 223.307893 
L 140.104204 222.419161 
L 141.059935 226.445398 
L 141.5378 223.32537 
L 142.015666 221.2799 
L 142.493531 220.883093 
L 144.882859 222.57438 
L 145.83859 222.942843 
L 146.316455 224.481081 
L 146.794321 236.556473 
L 147.272187 229.298849 
L 147.750052 224.541606 
L 148.227918 222.789538 
L 148.705783 225.062925 
L 149.183649 223.525064 
L 149.661514 222.885019 
L 150.13938 223.155303 
L 150.617245 223.268125 
L 151.095111 230.087647 
L 151.572976 231.170644 
L 152.050842 225.244808 
L 152.528707 222.258607 
L 153.006573 221.715361 
L 153.962304 221.166744 
L 154.44017 220.487251 
L 154.918035 221.432507 
L 155.395901 220.534065 
L 155.873766 222.514954 
L 156.351632 222.926732 
L 156.829497 221.576681 
L 157.785228 220.820117 
L 158.263094 220.830451 
L 158.740959 221.319909 
L 159.218825 224.138079 
L 159.69669 220.878213 
L 160.174556 220.112875 
L 160.652421 221.581458 
L 161.130287 220.242693 
L 161.608152 220.038517 
L 162.086018 219.966436 
L 162.563884 219.359958 
L 163.041749 219.62369 
L 163.519615 219.004076 
L 163.99748 219.336149 
L 164.475346 220.171257 
L 165.431077 220.854416 
L 165.908942 221.131181 
L 166.386808 220.831671 
L 166.864673 219.228341 
L 167.342539 218.763577 
L 168.29827 218.920129 
L 168.776135 218.718158 
L 169.254001 220.004033 
L 169.731866 220.928445 
L 170.209732 220.911829 
L 170.687598 221.065396 
L 171.165463 220.880426 
L 171.643329 221.101877 
L 172.121194 220.654743 
L 172.59906 220.018911 
L 173.076925 219.757003 
L 173.554791 220.493143 
L 174.032656 220.893845 
L 174.510522 222.801418 
L 174.988387 225.491232 
L 175.466253 236.781059 
L 175.944118 235.443909 
L 176.421984 230.411968 
L 176.899849 223.615548 
L 177.377715 225.555598 
L 178.333446 222.768638 
L 178.811312 222.65147 
L 179.289177 224.278434 
L 180.244908 221.067868 
L 180.722774 221.306206 
L 181.200639 225.298594 
L 181.678505 221.74556 
L 182.15637 219.308808 
L 182.634236 217.539099 
L 183.112101 216.495283 
L 183.589967 216.287662 
L 184.067832 215.645185 
L 184.545698 219.119955 
L 185.023563 226.079985 
L 185.501429 219.51481 
L 185.979295 215.847643 
L 186.45716 214.987726 
L 186.935026 213.361106 
L 187.890757 208.956658 
L 188.368622 208.527903 
L 188.846488 216.388421 
L 189.324353 234.901796 
L 190.280084 210.615233 
L 190.75795 207.18732 
L 191.235815 205.643584 
L 191.713681 204.863693 
L 192.669412 200.970447 
L 193.147277 200.177585 
L 193.625143 199.986205 
L 194.103009 199.151386 
L 194.580874 199.939789 
L 195.05874 200.291688 
L 195.536605 200.916833 
L 196.014471 200.953362 
L 196.492336 200.450085 
L 196.970202 199.374028 
L 197.448067 198.742302 
L 197.925933 197.022471 
L 198.403798 196.449342 
L 199.359529 193.695363 
L 199.837395 193.216179 
L 200.31526 191.569811 
L 200.793126 191.172353 
L 202.226723 188.597981 
L 203.182454 186.454025 
L 204.138185 184.332826 
L 204.61605 183.595969 
L 206.527512 181.488332 
L 207.483243 180.150215 
L 208.438974 178.387645 
L 210.350437 173.502084 
L 210.828302 172.860751 
L 211.306168 171.973404 
L 212.739764 170.287547 
L 213.695495 168.509435 
L 214.173361 167.426047 
L 215.606957 163.457989 
L 216.084823 162.554914 
L 216.562688 162.03517 
L 217.040554 161.706814 
L 218.474151 159.880056 
L 218.952016 159.005226 
L 220.385613 155.91398 
L 221.341344 154.262071 
L 222.297075 153.331686 
L 223.252806 152.121 
L 224.208537 150.581296 
L 225.164268 148.3326 
L 225.642134 147.417959 
L 226.597865 146.36879 
L 227.07573 145.981641 
L 229.465058 143.175039 
L 230.420789 141.541497 
L 231.37652 139.826971 
L 232.332251 138.742133 
L 234.721579 137.114909 
L 235.199444 136.630436 
L 236.633041 134.376372 
L 237.110906 133.597339 
L 237.588772 133.394274 
L 239.022368 133.259095 
L 239.978099 132.808696 
L 240.455965 132.34976 
L 241.411696 131.106258 
L 242.367427 130.721921 
L 242.845293 130.680225 
L 243.323158 130.791026 
L 244.278889 130.705406 
L 245.23462 130.208366 
L 245.712486 129.688821 
L 246.190351 128.82937 
L 247.146082 128.353867 
L 247.623948 128.527367 
L 248.101813 128.436826 
L 248.579679 128.556818 
L 249.53541 128.435899 
L 250.013276 128.235967 
L 250.491141 127.742044 
L 251.446872 126.396472 
L 251.924738 126.490466 
L 252.402603 126.234483 
L 253.358334 126.620376 
L 254.314065 126.578382 
L 254.791931 126.357861 
L 255.269796 125.876235 
L 255.747662 124.917832 
L 256.703393 124.294457 
L 257.181259 124.3752 
L 258.13699 124.877847 
L 259.570586 124.719557 
L 260.048452 124.503757 
L 261.004183 123.542742 
L 262.437779 123.003132 
L 262.915645 123.125893 
L 263.39351 123.002864 
L 264.349241 122.988209 
L 265.304973 122.73011 
L 265.782838 122.308329 
L 266.738569 121.088353 
L 267.6943 120.899396 
L 268.650031 121.238492 
L 269.127897 121.402296 
L 269.605762 121.432389 
L 270.083628 121.285673 
L 270.561493 120.887619 
L 271.517224 119.563742 
L 271.99509 119.610286 
L 272.472955 119.410146 
L 272.950821 119.804135 
L 273.906552 120.200916 
L 274.862283 120.167142 
L 275.340149 119.904537 
L 275.818014 119.328708 
L 276.773745 118.604389 
L 277.251611 118.494167 
L 279.640938 119.213565 
L 280.59667 119.213909 
L 281.074535 119.072972 
L 281.552401 118.778153 
L 282.030266 118.198942 
L 283.463863 117.640481 
L 284.419594 118.140659 
L 284.897459 118.267989 
L 285.85319 118.232592 
L 286.331056 118.042446 
L 287.286787 117.00381 
L 287.764652 116.6803 
L 288.720384 116.905941 
L 289.198249 117.239743 
L 291.587577 117.6726 
L 292.065442 117.540769 
L 293.499039 116.614773 
L 294.45477 116.580105 
L 296.366232 117.38905 
L 297.321963 117.330817 
L 297.799829 117.044179 
L 299.233425 115.821546 
L 299.711291 116.006378 
L 301.144887 116.978137 
L 302.100618 117.215968 
L 302.578484 117.059076 
L 303.534215 116.43636 
L 304.489946 116.24794 
L 305.445677 116.612959 
L 305.923543 116.983014 
L 306.879274 117.250438 
L 307.357139 117.250171 
L 307.835005 117.081747 
L 308.790736 116.25141 
L 309.268601 116.224908 
L 309.746467 116.311291 
L 310.702198 117.007377 
L 313.091526 117.847608 
L 313.569391 117.788063 
L 314.525122 117.286495 
L 315.958719 117.43646 
L 317.870181 118.593584 
L 318.825912 118.650548 
L 319.303777 118.392819 
L 320.259509 117.720049 
L 320.737374 117.456603 
L 322.170971 118.602563 
L 323.126702 119.13322 
L 323.604567 119.189249 
L 324.560298 118.692352 
L 325.038164 118.485627 
L 325.993895 118.647577 
L 326.47176 118.891129 
L 326.949626 119.288246 
L 327.905357 119.637365 
L 328.383223 119.721161 
L 328.861088 119.594407 
L 329.816819 118.80729 
L 330.294685 118.704218 
L 330.77255 118.763694 
L 331.250416 119.322118 
L 331.728281 119.486367 
L 332.684012 120.083619 
L 333.161878 120.258726 
L 333.639743 120.20302 
L 335.07334 119.208644 
L 335.551205 119.242576 
L 336.029071 119.574918 
L 338.418399 119.816088 
L 360.878079 121.712432 
L 389.55001 123.921062 
L 423.478463 126.308518 
L 432.080043 126.864887 
L 432.080043 126.864887 
" clip-path="url(#pec5e6d5e4a)" style="fill: none; stroke: #d62728; stroke-width: 1.5; stroke-linecap: square"/>
   </g>
   <g id="line2d_21">
    <path d="M 73.680895 223.259211 
L 74.15876 223.509952 
L 75.114491 224.467301 
L 75.592357 224.983551 
L 76.070223 225.689885 
L 76.548088 229.193871 
L 77.503819 224.955744 
L 77.981685 223.754916 
L 78.45955 223.231014 
L 78.937416 223.252736 
L 79.415281 237.224768 
L 79.893147 233.467464 
L 80.371012 227.90969 
L 80.848878 226.109629 
L 81.326743 230.649943 
L 81.804609 231.201049 
L 82.282474 226.427472 
L 82.76034 223.837615 
L 83.238205 224.790391 
L 84.193937 223.420347 
L 84.671802 223.588474 
L 85.627533 224.538869 
L 86.105399 224.803484 
L 86.583264 224.714945 
L 87.06113 224.019861 
L 87.538995 222.896509 
L 88.016861 222.229592 
L 88.494726 222.196157 
L 88.972592 222.523659 
L 89.928323 279.214834 
L 90.406188 247.014094 
L 90.884054 234.633105 
L 91.36192 228.488137 
L 91.839785 224.643966 
L 92.317651 222.411367 
L 92.795516 221.636224 
L 93.273382 221.692047 
L 93.751247 221.890431 
L 94.706978 222.848368 
L 95.184844 223.379562 
L 95.662709 225.820698 
L 96.140575 227.681254 
L 97.096306 225.01245 
L 98.052037 223.617752 
L 98.529902 223.123537 
L 99.007768 222.799743 
L 99.485634 222.722685 
L 100.441365 223.010476 
L 101.397096 223.591514 
L 101.874961 277.557553 
L 102.352827 261.818626 
L 102.830692 237.626027 
L 103.308558 228.526794 
L 103.786423 225.206121 
L 104.264289 223.858328 
L 104.742154 276.3662 
L 105.22002 291.096307 
L 105.697885 248.556385 
L 106.175751 231.651509 
L 106.653616 225.982974 
L 107.131482 224.265696 
L 107.609348 225.389454 
L 108.087213 225.458809 
L 108.565079 230.540996 
L 109.042944 226.698116 
L 109.52081 224.117834 
L 109.998675 222.842762 
L 110.476541 222.229994 
L 110.954406 222.046879 
L 111.432272 222.125577 
L 111.910137 222.446098 
L 112.388003 259.554827 
L 112.865868 248.64163 
L 113.343734 232.552305 
L 113.821599 226.472196 
L 114.299465 250.811598 
L 114.77733 240.935849 
L 115.255196 228.113282 
L 115.733062 223.448041 
L 116.210927 222.115894 
L 116.688793 221.941639 
L 117.166658 222.258922 
L 118.122389 223.141216 
L 118.600255 223.408622 
L 119.07812 223.424348 
L 119.555986 225.931948 
L 120.033851 224.900099 
L 120.511717 223.479193 
L 120.989582 222.81163 
L 121.467448 222.480968 
L 122.423179 222.508224 
L 122.901045 225.111597 
L 123.37891 225.83546 
L 123.856776 223.994822 
L 124.334641 223.883604 
L 124.812507 226.279018 
L 125.290372 223.995261 
L 125.768238 222.734329 
L 126.246103 222.215944 
L 126.723969 223.1151 
L 127.201834 234.422452 
L 128.157565 224.562551 
L 128.635431 223.046175 
L 129.113296 222.548708 
L 129.591162 222.449903 
L 130.546893 221.917477 
L 131.024759 221.871808 
L 131.502624 221.709316 
L 131.98049 221.869065 
L 132.458355 225.151314 
L 132.936221 223.385535 
L 133.891952 223.270654 
L 134.369817 222.726953 
L 134.847683 222.531298 
L 135.325548 222.494851 
L 135.803414 222.953414 
L 136.281279 222.716369 
L 136.759145 222.199124 
L 137.23701 230.027177 
L 137.714876 252.177543 
L 138.192741 234.582988 
L 138.670607 226.310465 
L 139.148473 225.540202 
L 139.626338 223.307893 
L 140.104204 222.419161 
L 141.059935 226.445398 
L 141.5378 223.32537 
L 142.015666 221.2799 
L 142.493531 220.883093 
L 144.882859 222.57438 
L 145.83859 222.942843 
L 146.316455 224.481081 
L 146.794321 236.556473 
L 147.272187 229.298849 
L 147.750052 224.541606 
L 148.227918 222.789538 
L 148.705783 225.062925 
L 149.183649 223.525064 
L 149.661514 222.885019 
L 150.13938 223.155303 
L 150.617245 223.268125 
L 151.095111 230.087647 
L 151.572976 231.170644 
L 152.050842 225.244808 
L 152.528707 222.258607 
L 153.006573 221.715361 
L 153.962304 221.166744 
L 154.44017 220.487251 
L 154.918035 221.432507 
L 155.395901 220.534065 
L 155.873766 222.514954 
L 156.351632 222.926732 
L 156.829497 221.576681 
L 157.785228 220.820117 
L 158.263094 220.830451 
L 158.740959 221.319909 
L 159.218825 224.138079 
L 159.69669 220.878213 
L 160.174556 220.112875 
L 160.652421 221.581458 
L 161.130287 220.242693 
L 161.608152 220.038517 
L 162.086018 219.966436 
L 162.563884 219.359958 
L 163.041749 219.62369 
L 163.519615 219.004076 
L 163.99748 219.336149 
L 164.475346 220.171257 
L 165.431077 220.854416 
L 165.908942 221.131181 
L 166.386808 220.831671 
L 166.864673 219.228341 
L 167.342539 218.763577 
L 168.29827 218.920129 
L 168.776135 218.718158 
L 169.254001 220.004033 
L 169.731866 220.928445 
L 170.209732 220.911829 
L 170.687598 221.065396 
L 171.165463 220.880426 
L 171.643329 221.101877 
L 172.121194 220.654743 
L 172.59906 220.018911 
L 173.076925 219.757003 
L 173.554791 220.493143 
L 174.032656 220.893845 
L 174.510522 222.801418 
L 174.988387 225.491232 
L 175.466253 236.781059 
L 175.944118 235.443909 
L 176.421984 230.411968 
L 176.899849 223.615548 
L 177.377715 225.555598 
L 178.333446 222.768638 
L 178.811312 222.65147 
L 179.289177 224.278434 
L 180.244908 221.067868 
L 180.722774 221.306206 
L 181.200639 225.298594 
L 181.678505 221.74556 
L 182.15637 219.308808 
L 182.634236 217.539099 
L 183.112101 216.495283 
L 183.589967 216.287662 
L 184.067832 215.645185 
L 184.545698 219.119955 
L 185.023563 226.079985 
L 185.501429 219.51481 
L 185.979295 215.847643 
L 186.45716 214.987726 
L 186.935026 213.361106 
L 187.890757 208.956658 
L 188.368622 208.527903 
L 188.846488 216.388421 
L 189.324353 234.901796 
L 190.280084 210.615233 
L 190.75795 207.18732 
L 191.235815 205.643584 
L 191.713681 204.863693 
L 192.669412 200.970447 
L 193.147277 200.177585 
L 193.625143 199.986205 
L 194.103009 199.151386 
L 194.580874 199.939789 
L 195.05874 200.291688 
L 195.536605 200.916833 
L 196.014471 200.953362 
L 196.492336 200.450085 
L 196.970202 199.374028 
L 197.448067 198.742302 
L 197.925933 197.022471 
L 198.403798 196.449342 
L 199.359529 193.695363 
L 199.837395 193.216179 
L 200.31526 191.569685 
L 200.793126 190.986366 
L 202.226723 187.848639 
L 204.138185 183.089696 
L 204.61605 182.224463 
L 206.049647 180.35132 
L 208.438974 175.855851 
L 210.350437 170.317751 
L 210.828302 169.438634 
L 211.306168 168.286961 
L 212.261899 166.614866 
L 213.21763 164.261459 
L 214.173361 161.211783 
L 215.606957 155.50904 
L 216.562688 152.806021 
L 217.996285 149.581506 
L 218.952016 146.941263 
L 220.385613 142.054348 
L 221.341344 139.126731 
L 222.297075 136.812409 
L 223.252806 134.10286 
L 224.208537 130.989037 
L 225.642134 125.331927 
L 229.942923 111.885127 
L 231.854385 104.574176 
L 233.287982 100.106631 
L 234.243713 97.528202 
L 235.67731 92.784477 
L 237.110906 87.300252 
L 238.066637 84.967297 
L 239.978099 80.249944 
L 241.889562 74.456126 
L 242.845293 72.444325 
L 243.801024 70.831359 
L 244.756755 68.957114 
L 245.712486 66.578026 
L 246.190351 64.965787 
L 247.146082 63.032246 
L 247.623948 62.499357 
L 248.101813 61.717293 
L 249.057545 60.465932 
L 250.013276 58.892288 
L 250.969007 56.508672 
L 251.446872 55.225781 
L 251.924738 54.736024 
L 252.402603 53.909236 
L 253.358334 53.189728 
L 254.314065 52.089269 
L 254.791931 51.356657 
L 255.269796 50.374363 
L 255.747662 48.926359 
L 256.703393 47.3564 
L 257.181259 46.979671 
L 258.13699 46.597794 
L 259.570586 45.188636 
L 260.048452 44.574847 
L 261.004183 42.846864 
L 262.437779 41.224182 
L 262.915645 41.003711 
L 263.39351 40.54654 
L 264.349241 39.887846 
L 265.304973 39.018337 
L 265.782838 38.302756 
L 266.738569 36.517196 
L 267.6943 35.791939 
L 268.172166 35.647246 
L 269.127897 35.542124 
L 269.605762 35.335102 
L 270.083628 34.957681 
L 270.561493 34.334585 
L 271.517224 32.58062 
L 271.99509 32.421058 
L 272.472955 32.021201 
L 272.950821 32.221562 
L 273.906552 32.247575 
L 274.862283 31.865189 
L 275.340149 31.436429 
L 276.29588 30.165574 
L 276.773745 29.669525 
L 277.251611 29.413723 
L 277.729476 29.421592 
L 278.207342 29.542823 
L 280.118804 29.396887 
L 281.074535 28.998095 
L 281.552401 28.598561 
L 282.030266 27.918959 
L 283.463863 27.084137 
L 284.419594 27.41979 
L 284.897459 27.469284 
L 285.85319 27.290543 
L 286.331056 27.034115 
L 287.286787 25.873353 
L 287.764652 25.493567 
L 288.242518 25.499393 
L 288.720384 25.616605 
L 289.198249 25.9044 
L 291.587577 26.151559 
L 292.065442 25.990611 
L 293.499039 24.994874 
L 294.45477 24.92715 
L 296.366232 25.699963 
L 297.321963 25.637194 
L 297.799829 25.352411 
L 299.233425 24.147443 
L 299.711291 24.34268 
L 301.144887 25.357699 
L 302.100618 25.63613 
L 302.578484 25.501842 
L 303.534215 24.929864 
L 304.489946 24.801398 
L 305.445677 25.233643 
L 305.923543 25.640307 
L 306.879274 25.986451 
L 307.357139 26.02826 
L 307.835005 25.904119 
L 308.790736 25.16717 
L 309.268601 25.190307 
L 309.746467 25.328559 
L 310.702198 26.13323 
L 313.091526 27.274772 
L 313.569391 27.274852 
L 314.525122 26.878429 
L 315.958719 27.153861 
L 317.870181 28.436709 
L 318.825912 28.542841 
L 319.303777 28.30606 
L 320.259509 27.671655 
L 320.737374 27.4257 
L 322.170971 28.616918 
L 323.126702 29.172817 
L 323.604567 29.240212 
L 324.560298 28.764733 
L 325.038164 28.56712 
L 325.993895 28.746193 
L 326.47176 28.997108 
L 326.949626 29.401644 
L 327.905357 29.764367 
L 328.383223 29.854236 
L 328.861088 29.733155 
L 329.816819 28.956704 
L 330.294685 28.858441 
L 330.77255 28.92252 
L 331.250416 29.484996 
L 331.728281 29.653409 
L 332.684012 30.258545 
L 333.161878 30.436848 
L 333.639743 30.384231 
L 335.07334 29.398109 
L 335.551205 29.434686 
L 336.029071 29.769783 
L 338.418399 30.020482 
L 354.665827 31.421544 
L 378.081238 33.198993 
L 413.921152 35.686034 
L 432.080043 36.85645 
L 432.080043 36.85645 
" clip-path="url(#pec5e6d5e4a)" style="fill: none; stroke: #9467bd; stroke-width: 1.5; stroke-linecap: square"/>
   </g>
   <g id="patch_2">
    <path d="M 55.760938 304.44375 
L 55.760938 10.8 
" style="fill: none; stroke: #000000; stroke-width: 0.8; stroke-linejoin: miter; stroke-linecap: square"/>
   </g>
   <g id="patch_3">
    <path d="M 450 304.44375 
L 450 10.8 
" style="fill: none; stroke: #000000; stroke-width: 0.8; stroke-linejoin: miter; stroke-linecap: square"/>
   </g>
   <g id="patch_4">
    <path d="M 55.760937 304.44375 
L 450 304.44375 
" style="fill: none; stroke: #000000; stroke-width: 0.8; stroke-linejoin: miter; stroke-linecap: square"/>
   </g>
   <g id="patch_5">
    <path d="M 55.760937 10.8 
L 450 10.8 
" style="fill: none; stroke: #000000; stroke-width: 0.8; stroke-linejoin: miter; stroke-linecap: square"/>
   </g>
   <g id="legend_1">
    <g id="patch_6">
     <path d="M 62.760938 92.190625 
L 130.615625 92.190625 
Q 132.615625 92.190625 132.615625 90.190625 
L 132.615625 17.8 
Q 132.615625 15.8 130.615625 15.8 
L 62.760938 15.8 
Q 60.760938 15.8 60.760938 17.8 
L 60.760938 90.190625 
Q 60.760938 92.190625 62.760938 92.190625 
z
" style="fill: #ffffff; opacity: 0.8; stroke: #cccccc; stroke-linejoin: miter"/>
    </g>
    <g id="line2d_22">
     <path d="M 64.760938 23.898438 
L 74.760938 23.898438 
L 84.760938 23.898438 
" style="fill: none; stroke: #1f77b4; stroke-width: 1.5; stroke-linecap: square"/>
    </g>
    <g id="text_19">
     <!-- ssp119 -->
     <g transform="translate(92.760938 27.398438) scale(0.1 -0.1)">
      <defs>
       <path id="DejaVuSans-73" d="M 2834 3397 
L 2834 2853 
Q 2591 2978 2328 3040 
Q 2066 3103 1784 3103 
Q 1356 3103 1142 2972 
Q 928 2841 928 2578 
Q 928 2378 1081 2264 
Q 1234 2150 1697 2047 
L 1894 2003 
Q 2506 1872 2764 1633 
Q 3022 1394 3022 966 
Q 3022 478 2636 193 
Q 2250 -91 1575 -91 
Q 1294 -91 989 -36 
Q 684 19 347 128 
L 347 722 
Q 666 556 975 473 
Q 1284 391 1588 391 
Q 1994 391 2212 530 
Q 2431 669 2431 922 
Q 2431 1156 2273 1281 
Q 2116 1406 1581 1522 
L 1381 1569 
Q 847 1681 609 1914 
Q 372 2147 372 2553 
Q 372 3047 722 3315 
Q 1072 3584 1716 3584 
Q 2034 3584 2315 3537 
Q 2597 3491 2834 3397 
z
" transform="scale(0.015625)"/>
       <path id="DejaVuSans-70" d="M 1159 525 
L 1159 -1331 
L 581 -1331 
L 581 3500 
L 1159 3500 
L 1159 2969 
Q 1341 3281 1617 3432 
Q 1894 3584 2278 3584 
Q 2916 3584 3314 3078 
Q 3713 2572 3713 1747 
Q 3713 922 3314 415 
Q 2916 -91 2278 -91 
Q 1894 -91 1617 61 
Q 1341 213 1159 525 
z
M 3116 1747 
Q 3116 2381 2855 2742 
Q 2594 3103 2138 3103 
Q 1681 3103 1420 2742 
Q 1159 2381 1159 1747 
Q 1159 1113 1420 752 
Q 1681 391 2138 391 
Q 2594 391 2855 752 
Q 3116 1113 3116 1747 
z
" transform="scale(0.015625)"/>
      </defs>
      <use xlink:href="#DejaVuSans-73"/>
      <use xlink:href="#DejaVuSans-73" x="52.099609"/>
      <use xlink:href="#DejaVuSans-70" x="104.199219"/>
      <use xlink:href="#DejaVuSans-31" x="167.675781"/>
      <use xlink:href="#DejaVuSans-31" x="231.298828"/>
      <use xlink:href="#DejaVuSans-39" x="294.921875"/>
     </g>
    </g>
    <g id="line2d_23">
     <path d="M 64.760938 38.576563 
L 74.760938 38.576563 
L 84.760938 38.576563 
" style="fill: none; stroke: #ff7f0e; stroke-width: 1.5; stroke-linecap: square"/>
    </g>
    <g id="text_20">
     <!-- ssp245 -->
     <g transform="translate(92.760938 42.076563) scale(0.1 -0.1)">
      <use xlink:href="#DejaVuSans-73"/>
      <use xlink:href="#DejaVuSans-73" x="52.099609"/>
      <use xlink:href="#DejaVuSans-70" x="104.199219"/>
      <use xlink:href="#DejaVuSans-32" x="167.675781"/>
      <use xlink:href="#DejaVuSans-34" x="231.298828"/>
      <use xlink:href="#DejaVuSans-35" x="294.921875"/>
     </g>
    </g>
    <g id="line2d_24">
     <path d="M 64.760938 53.254687 
L 74.760938 53.254687 
L 84.760938 53.254687 
" style="fill: none; stroke: #2ca02c; stroke-width: 1.5; stroke-linecap: square"/>
    </g>
    <g id="text_21">
     <!-- ssp370 -->
     <g transform="translate(92.760938 56.754687) scale(0.1 -0.1)">
      <use xlink:href="#DejaVuSans-73"/>
      <use xlink:href="#DejaVuSans-73" x="52.099609"/>
      <use xlink:href="#DejaVuSans-70" x="104.199219"/>
      <use xlink:href="#DejaVuSans-33" x="167.675781"/>
      <use xlink:href="#DejaVuSans-37" x="231.298828"/>
      <use xlink:href="#DejaVuSans-30" x="294.921875"/>
     </g>
    </g>
    <g id="line2d_25">
     <path d="M 64.760938 67.932813 
L 74.760938 67.932813 
L 84.760938 67.932813 
" style="fill: none; stroke: #d62728; stroke-width: 1.5; stroke-linecap: square"/>
    </g>
    <g id="text_22">
     <!-- ssp460 -->
     <g transform="translate(92.760938 71.432813) scale(0.1 -0.1)">
      <defs>
       <path id="DejaVuSans-36" d="M 2113 2584 
Q 1688 2584 1439 2293 
Q 1191 2003 1191 1497 
Q 1191 994 1439 701 
Q 1688 409 2113 409 
Q 2538 409 2786 701 
Q 3034 994 3034 1497 
Q 3034 2003 2786 2293 
Q 2538 2584 2113 2584 
z
M 3366 4563 
L 3366 3988 
Q 3128 4100 2886 4159 
Q 2644 4219 2406 4219 
Q 1781 4219 1451 3797 
Q 1122 3375 1075 2522 
Q 1259 2794 1537 2939 
Q 1816 3084 2150 3084 
Q 2853 3084 3261 2657 
Q 3669 2231 3669 1497 
Q 3669 778 3244 343 
Q 2819 -91 2113 -91 
Q 1303 -91 875 529 
Q 447 1150 447 2328 
Q 447 3434 972 4092 
Q 1497 4750 2381 4750 
Q 2619 4750 2861 4703 
Q 3103 4656 3366 4563 
z
" transform="scale(0.015625)"/>
      </defs>
      <use xlink:href="#DejaVuSans-73"/>
      <use xlink:href="#DejaVuSans-73" x="52.099609"/>
      <use xlink:href="#DejaVuSans-70" x="104.199219"/>
      <use xlink:href="#DejaVuSans-34" x="167.675781"/>
      <use xlink:href="#DejaVuSans-36" x="231.298828"/>
      <use xlink:href="#DejaVuSans-30" x="294.921875"/>
     </g>
    </g>
    <g id="line2d_26">
     <path d="M 64.760938 82.610938 
L 74.760938 82.610938 
L 84.760938 82.610938 
" style="fill: none; stroke: #9467bd; stroke-width: 1.5; stroke-linecap: square"/>
    </g>
    <g id="text_23">
     <!-- ssp585 -->
     <g transform="translate(92.760938 86.110938) scale(0.1 -0.1)">
      <use xlink:href="#DejaVuSans-73"/>
      <use xlink:href="#DejaVuSans-73" x="52.099609"/>
      <use xlink:href="#DejaVuSans-70" x="104.199219"/>
      <use xlink:href="#DejaVuSans-35" x="167.675781"/>
      <use xlink:href="#DejaVuSans-38" x="231.298828"/>
      <use xlink:href="#DejaVuSans-35" x="294.921875"/>
     </g>
    </g>
   </g>
  </g>
 </g>
 <defs>
  <clipPath id="pec5e6d5e4a">
   <rect x="55.760938" y="10.8" width="394.239062" height="293.64375"/>
  </clipPath>
 </defs>
</svg>
