<?xml version="1.0" encoding="utf-8" standalone="no"?>
<!DOCTYPE svg PUBLIC "-//W3C//DTD SVG 1.1//EN"
  "http://www.w3.org/Graphics/SVG/1.1/DTD/svg11.dtd">
<svg xmlns:xlink="http://www.w3.org/1999/xlink" width="460.8pt" height="345.6pt" viewBox="0 0 460.8 345.6" xmlns="http://www.w3.org/2000/svg" version="1.1">
 <metadata>
  <rdf:RDF xmlns:dc="http://purl.org/dc/elements/1.1/" xmlns:cc="http://creativecommons.org/ns#" xmlns:rdf="http://www.w3.org/1999/02/22-rdf-syntax-ns#">
   <cc:Work>
    <dc:type rdf:resource="http://purl.org/dc/dcmitype/StillImage"/>
    <dc:date>2024-10-08T17:08:13.694597</dc:date>
    <dc:format>image/svg+xml</dc:format>
    <dc:creator>
     <cc:Agent>
      <dc:title>Matplotlib v3.9.0, https://matplotlib.org/</dc:title>
     </cc:Agent>
    </dc:creator>
   </cc:Work>
  </rdf:RDF>
 </metadata>
 <defs>
  <style type="text/css">*{stroke-linejoin: round; stroke-linecap: butt}</style>
 </defs>
 <g id="figure_1">
  <g id="axes_1">
   <g id="patch_1">
    <path d="M 50.565625 304.44375 
L 450 304.44375 
L 450 10.8 
L 50.565625 10.8 
L 50.565625 304.44375 
z
" style="fill: none"/>
   </g>
   <g id="matplotlib.axis_1">
    <g id="xtick_1">
     <g id="line2d_1">
      <defs>
       <path id="mb8f55b6a84" d="M 0 0 
L 0 3.5 
" style="stroke: #000000; stroke-width: 0.8"/>
      </defs>
      <g>
       <use xlink:href="#mb8f55b6a84" x="92.929877" y="304.44375" style="stroke: #000000; stroke-width: 0.8"/>
      </g>
     </g>
     <g id="text_1">
      <!-- 1800 -->
      <g transform="translate(80.204877 319.042187) scale(0.1 -0.1)">
       <defs>
        <path id="DejaVuSans-31" d="M 794 531 
L 1825 531 
L 1825 4091 
L 703 3866 
L 703 4441 
L 1819 4666 
L 2450 4666 
L 2450 531 
L 3481 531 
L 3481 0 
L 794 0 
L 794 531 
z
" transform="scale(0.015625)"/>
        <path id="DejaVuSans-38" d="M 2034 2216 
Q 1584 2216 1326 1975 
Q 1069 1734 1069 1313 
Q 1069 891 1326 650 
Q 1584 409 2034 409 
Q 2484 409 2743 651 
Q 3003 894 3003 1313 
Q 3003 1734 2745 1975 
Q 2488 2216 2034 2216 
z
M 1403 2484 
Q 997 2584 770 2862 
Q 544 3141 544 3541 
Q 544 4100 942 4425 
Q 1341 4750 2034 4750 
Q 2731 4750 3128 4425 
Q 3525 4100 3525 3541 
Q 3525 3141 3298 2862 
Q 3072 2584 2669 2484 
Q 3125 2378 3379 2068 
Q 3634 1759 3634 1313 
Q 3634 634 3220 271 
Q 2806 -91 2034 -91 
Q 1263 -91 848 271 
Q 434 634 434 1313 
Q 434 1759 690 2068 
Q 947 2378 1403 2484 
z
M 1172 3481 
Q 1172 3119 1398 2916 
Q 1625 2713 2034 2713 
Q 2441 2713 2670 2916 
Q 2900 3119 2900 3481 
Q 2900 3844 2670 4047 
Q 2441 4250 2034 4250 
Q 1625 4250 1398 4047 
Q 1172 3844 1172 3481 
z
" transform="scale(0.015625)"/>
        <path id="DejaVuSans-30" d="M 2034 4250 
Q 1547 4250 1301 3770 
Q 1056 3291 1056 2328 
Q 1056 1369 1301 889 
Q 1547 409 2034 409 
Q 2525 409 2770 889 
Q 3016 1369 3016 2328 
Q 3016 3291 2770 3770 
Q 2525 4250 2034 4250 
z
M 2034 4750 
Q 2819 4750 3233 4129 
Q 3647 3509 3647 2328 
Q 3647 1150 3233 529 
Q 2819 -91 2034 -91 
Q 1250 -91 836 529 
Q 422 1150 422 2328 
Q 422 3509 836 4129 
Q 1250 4750 2034 4750 
z
" transform="scale(0.015625)"/>
       </defs>
       <use xlink:href="#DejaVuSans-31"/>
       <use xlink:href="#DejaVuSans-38" x="63.623047"/>
       <use xlink:href="#DejaVuSans-30" x="127.246094"/>
       <use xlink:href="#DejaVuSans-30" x="190.869141"/>
      </g>
     </g>
    </g>
    <g id="xtick_2">
     <g id="line2d_2">
      <g>
       <use xlink:href="#mb8f55b6a84" x="141.346165" y="304.44375" style="stroke: #000000; stroke-width: 0.8"/>
      </g>
     </g>
     <g id="text_2">
      <!-- 1900 -->
      <g transform="translate(128.621165 319.042187) scale(0.1 -0.1)">
       <defs>
        <path id="DejaVuSans-39" d="M 703 97 
L 703 672 
Q 941 559 1184 500 
Q 1428 441 1663 441 
Q 2288 441 2617 861 
Q 2947 1281 2994 2138 
Q 2813 1869 2534 1725 
Q 2256 1581 1919 1581 
Q 1219 1581 811 2004 
Q 403 2428 403 3163 
Q 403 3881 828 4315 
Q 1253 4750 1959 4750 
Q 2769 4750 3195 4129 
Q 3622 3509 3622 2328 
Q 3622 1225 3098 567 
Q 2575 -91 1691 -91 
Q 1453 -91 1209 -44 
Q 966 3 703 97 
z
M 1959 2075 
Q 2384 2075 2632 2365 
Q 2881 2656 2881 3163 
Q 2881 3666 2632 3958 
Q 2384 4250 1959 4250 
Q 1534 4250 1286 3958 
Q 1038 3666 1038 3163 
Q 1038 2656 1286 2365 
Q 1534 2075 1959 2075 
z
" transform="scale(0.015625)"/>
       </defs>
       <use xlink:href="#DejaVuSans-31"/>
       <use xlink:href="#DejaVuSans-39" x="63.623047"/>
       <use xlink:href="#DejaVuSans-30" x="127.246094"/>
       <use xlink:href="#DejaVuSans-30" x="190.869141"/>
      </g>
     </g>
    </g>
    <g id="xtick_3">
     <g id="line2d_3">
      <g>
       <use xlink:href="#mb8f55b6a84" x="189.762453" y="304.44375" style="stroke: #000000; stroke-width: 0.8"/>
      </g>
     </g>
     <g id="text_3">
      <!-- 2000 -->
      <g transform="translate(177.037453 319.042187) scale(0.1 -0.1)">
       <defs>
        <path id="DejaVuSans-32" d="M 1228 531 
L 3431 531 
L 3431 0 
L 469 0 
L 469 531 
Q 828 903 1448 1529 
Q 2069 2156 2228 2338 
Q 2531 2678 2651 2914 
Q 2772 3150 2772 3378 
Q 2772 3750 2511 3984 
Q 2250 4219 1831 4219 
Q 1534 4219 1204 4116 
Q 875 4013 500 3803 
L 500 4441 
Q 881 4594 1212 4672 
Q 1544 4750 1819 4750 
Q 2544 4750 2975 4387 
Q 3406 4025 3406 3419 
Q 3406 3131 3298 2873 
Q 3191 2616 2906 2266 
Q 2828 2175 2409 1742 
Q 1991 1309 1228 531 
z
" transform="scale(0.015625)"/>
       </defs>
       <use xlink:href="#DejaVuSans-32"/>
       <use xlink:href="#DejaVuSans-30" x="63.623047"/>
       <use xlink:href="#DejaVuSans-30" x="127.246094"/>
       <use xlink:href="#DejaVuSans-30" x="190.869141"/>
      </g>
     </g>
    </g>
    <g id="xtick_4">
     <g id="line2d_4">
      <g>
       <use xlink:href="#mb8f55b6a84" x="238.178741" y="304.44375" style="stroke: #000000; stroke-width: 0.8"/>
      </g>
     </g>
     <g id="text_4">
      <!-- 2100 -->
      <g transform="translate(225.453741 319.042187) scale(0.1 -0.1)">
       <use xlink:href="#DejaVuSans-32"/>
       <use xlink:href="#DejaVuSans-31" x="63.623047"/>
       <use xlink:href="#DejaVuSans-30" x="127.246094"/>
       <use xlink:href="#DejaVuSans-30" x="190.869141"/>
      </g>
     </g>
    </g>
    <g id="xtick_5">
     <g id="line2d_5">
      <g>
       <use xlink:href="#mb8f55b6a84" x="286.595028" y="304.44375" style="stroke: #000000; stroke-width: 0.8"/>
      </g>
     </g>
     <g id="text_5">
      <!-- 2200 -->
      <g transform="translate(273.870028 319.042187) scale(0.1 -0.1)">
       <use xlink:href="#DejaVuSans-32"/>
       <use xlink:href="#DejaVuSans-32" x="63.623047"/>
       <use xlink:href="#DejaVuSans-30" x="127.246094"/>
       <use xlink:href="#DejaVuSans-30" x="190.869141"/>
      </g>
     </g>
    </g>
    <g id="xtick_6">
     <g id="line2d_6">
      <g>
       <use xlink:href="#mb8f55b6a84" x="335.011316" y="304.44375" style="stroke: #000000; stroke-width: 0.8"/>
      </g>
     </g>
     <g id="text_6">
      <!-- 2300 -->
      <g transform="translate(322.286316 319.042187) scale(0.1 -0.1)">
       <defs>
        <path id="DejaVuSans-33" d="M 2597 2516 
Q 3050 2419 3304 2112 
Q 3559 1806 3559 1356 
Q 3559 666 3084 287 
Q 2609 -91 1734 -91 
Q 1441 -91 1130 -33 
Q 819 25 488 141 
L 488 750 
Q 750 597 1062 519 
Q 1375 441 1716 441 
Q 2309 441 2620 675 
Q 2931 909 2931 1356 
Q 2931 1769 2642 2001 
Q 2353 2234 1838 2234 
L 1294 2234 
L 1294 2753 
L 1863 2753 
Q 2328 2753 2575 2939 
Q 2822 3125 2822 3475 
Q 2822 3834 2567 4026 
Q 2313 4219 1838 4219 
Q 1578 4219 1281 4162 
Q 984 4106 628 3988 
L 628 4550 
Q 988 4650 1302 4700 
Q 1616 4750 1894 4750 
Q 2613 4750 3031 4423 
Q 3450 4097 3450 3541 
Q 3450 3153 3228 2886 
Q 3006 2619 2597 2516 
z
" transform="scale(0.015625)"/>
       </defs>
       <use xlink:href="#DejaVuSans-32"/>
       <use xlink:href="#DejaVuSans-33" x="63.623047"/>
       <use xlink:href="#DejaVuSans-30" x="127.246094"/>
       <use xlink:href="#DejaVuSans-30" x="190.869141"/>
      </g>
     </g>
    </g>
    <g id="xtick_7">
     <g id="line2d_7">
      <g>
       <use xlink:href="#mb8f55b6a84" x="383.427604" y="304.44375" style="stroke: #000000; stroke-width: 0.8"/>
      </g>
     </g>
     <g id="text_7">
      <!-- 2400 -->
      <g transform="translate(370.702604 319.042187) scale(0.1 -0.1)">
       <defs>
        <path id="DejaVuSans-34" d="M 2419 4116 
L 825 1625 
L 2419 1625 
L 2419 4116 
z
M 2253 4666 
L 3047 4666 
L 3047 1625 
L 3713 1625 
L 3713 1100 
L 3047 1100 
L 3047 0 
L 2419 0 
L 2419 1100 
L 313 1100 
L 313 1709 
L 2253 4666 
z
" transform="scale(0.015625)"/>
       </defs>
       <use xlink:href="#DejaVuSans-32"/>
       <use xlink:href="#DejaVuSans-34" x="63.623047"/>
       <use xlink:href="#DejaVuSans-30" x="127.246094"/>
       <use xlink:href="#DejaVuSans-30" x="190.869141"/>
      </g>
     </g>
    </g>
    <g id="xtick_8">
     <g id="line2d_8">
      <g>
       <use xlink:href="#mb8f55b6a84" x="431.843892" y="304.44375" style="stroke: #000000; stroke-width: 0.8"/>
      </g>
     </g>
     <g id="text_8">
      <!-- 2500 -->
      <g transform="translate(419.118892 319.042187) scale(0.1 -0.1)">
       <defs>
        <path id="DejaVuSans-35" d="M 691 4666 
L 3169 4666 
L 3169 4134 
L 1269 4134 
L 1269 2991 
Q 1406 3038 1543 3061 
Q 1681 3084 1819 3084 
Q 2600 3084 3056 2656 
Q 3513 2228 3513 1497 
Q 3513 744 3044 326 
Q 2575 -91 1722 -91 
Q 1428 -91 1123 -41 
Q 819 9 494 109 
L 494 744 
Q 775 591 1075 516 
Q 1375 441 1709 441 
Q 2250 441 2565 725 
Q 2881 1009 2881 1497 
Q 2881 1984 2565 2268 
Q 2250 2553 1709 2553 
Q 1456 2553 1204 2497 
Q 953 2441 691 2322 
L 691 4666 
z
" transform="scale(0.015625)"/>
       </defs>
       <use xlink:href="#DejaVuSans-32"/>
       <use xlink:href="#DejaVuSans-35" x="63.623047"/>
       <use xlink:href="#DejaVuSans-30" x="127.246094"/>
       <use xlink:href="#DejaVuSans-30" x="190.869141"/>
      </g>
     </g>
    </g>
    <g id="text_9">
     <!-- Year -->
     <g transform="translate(239.695312 332.720312) scale(0.1 -0.1)">
      <defs>
       <path id="DejaVuSans-59" d="M -13 4666 
L 666 4666 
L 1959 2747 
L 3244 4666 
L 3922 4666 
L 2272 2222 
L 2272 0 
L 1638 0 
L 1638 2222 
L -13 4666 
z
" transform="scale(0.015625)"/>
       <path id="DejaVuSans-65" d="M 3597 1894 
L 3597 1613 
L 953 1613 
Q 991 1019 1311 708 
Q 1631 397 2203 397 
Q 2534 397 2845 478 
Q 3156 559 3463 722 
L 3463 178 
Q 3153 47 2828 -22 
Q 2503 -91 2169 -91 
Q 1331 -91 842 396 
Q 353 884 353 1716 
Q 353 2575 817 3079 
Q 1281 3584 2069 3584 
Q 2775 3584 3186 3129 
Q 3597 2675 3597 1894 
z
M 3022 2063 
Q 3016 2534 2758 2815 
Q 2500 3097 2075 3097 
Q 1594 3097 1305 2825 
Q 1016 2553 972 2059 
L 3022 2063 
z
" transform="scale(0.015625)"/>
       <path id="DejaVuSans-61" d="M 2194 1759 
Q 1497 1759 1228 1600 
Q 959 1441 959 1056 
Q 959 750 1161 570 
Q 1363 391 1709 391 
Q 2188 391 2477 730 
Q 2766 1069 2766 1631 
L 2766 1759 
L 2194 1759 
z
M 3341 1997 
L 3341 0 
L 2766 0 
L 2766 531 
Q 2569 213 2275 61 
Q 1981 -91 1556 -91 
Q 1019 -91 701 211 
Q 384 513 384 1019 
Q 384 1609 779 1909 
Q 1175 2209 1959 2209 
L 2766 2209 
L 2766 2266 
Q 2766 2663 2505 2880 
Q 2244 3097 1772 3097 
Q 1472 3097 1187 3025 
Q 903 2953 641 2809 
L 641 3341 
Q 956 3463 1253 3523 
Q 1550 3584 1831 3584 
Q 2591 3584 2966 3190 
Q 3341 2797 3341 1997 
z
" transform="scale(0.015625)"/>
       <path id="DejaVuSans-72" d="M 2631 2963 
Q 2534 3019 2420 3045 
Q 2306 3072 2169 3072 
Q 1681 3072 1420 2755 
Q 1159 2438 1159 1844 
L 1159 0 
L 581 0 
L 581 3500 
L 1159 3500 
L 1159 2956 
Q 1341 3275 1631 3429 
Q 1922 3584 2338 3584 
Q 2397 3584 2469 3576 
Q 2541 3569 2628 3553 
L 2631 2963 
z
" transform="scale(0.015625)"/>
      </defs>
      <use xlink:href="#DejaVuSans-59"/>
      <use xlink:href="#DejaVuSans-65" x="47.833984"/>
      <use xlink:href="#DejaVuSans-61" x="109.357422"/>
      <use xlink:href="#DejaVuSans-72" x="170.636719"/>
     </g>
    </g>
   </g>
   <g id="matplotlib.axis_2">
    <g id="ytick_1">
     <g id="line2d_9">
      <defs>
       <path id="m5b4746a226" d="M 0 0 
L -3.5 0 
" style="stroke: #000000; stroke-width: 0.8"/>
      </defs>
      <g>
       <use xlink:href="#m5b4746a226" x="50.565625" y="297.741411" style="stroke: #000000; stroke-width: 0.8"/>
      </g>
     </g>
     <g id="text_10">
      <!-- 0 -->
      <g transform="translate(37.203125 301.540629) scale(0.1 -0.1)">
       <use xlink:href="#DejaVuSans-30"/>
      </g>
     </g>
    </g>
    <g id="ytick_2">
     <g id="line2d_10">
      <g>
       <use xlink:href="#m5b4746a226" x="50.565625" y="262.562982" style="stroke: #000000; stroke-width: 0.8"/>
      </g>
     </g>
     <g id="text_11">
      <!-- 100 -->
      <g transform="translate(24.478125 266.3622) scale(0.1 -0.1)">
       <use xlink:href="#DejaVuSans-31"/>
       <use xlink:href="#DejaVuSans-30" x="63.623047"/>
       <use xlink:href="#DejaVuSans-30" x="127.246094"/>
      </g>
     </g>
    </g>
    <g id="ytick_3">
     <g id="line2d_11">
      <g>
       <use xlink:href="#m5b4746a226" x="50.565625" y="227.384553" style="stroke: #000000; stroke-width: 0.8"/>
      </g>
     </g>
     <g id="text_12">
      <!-- 200 -->
      <g transform="translate(24.478125 231.183771) scale(0.1 -0.1)">
       <use xlink:href="#DejaVuSans-32"/>
       <use xlink:href="#DejaVuSans-30" x="63.623047"/>
       <use xlink:href="#DejaVuSans-30" x="127.246094"/>
      </g>
     </g>
    </g>
    <g id="ytick_4">
     <g id="line2d_12">
      <g>
       <use xlink:href="#m5b4746a226" x="50.565625" y="192.206124" style="stroke: #000000; stroke-width: 0.8"/>
      </g>
     </g>
     <g id="text_13">
      <!-- 300 -->
      <g transform="translate(24.478125 196.005342) scale(0.1 -0.1)">
       <use xlink:href="#DejaVuSans-33"/>
       <use xlink:href="#DejaVuSans-30" x="63.623047"/>
       <use xlink:href="#DejaVuSans-30" x="127.246094"/>
      </g>
     </g>
    </g>
    <g id="ytick_5">
     <g id="line2d_13">
      <g>
       <use xlink:href="#m5b4746a226" x="50.565625" y="157.027694" style="stroke: #000000; stroke-width: 0.8"/>
      </g>
     </g>
     <g id="text_14">
      <!-- 400 -->
      <g transform="translate(24.478125 160.826913) scale(0.1 -0.1)">
       <use xlink:href="#DejaVuSans-34"/>
       <use xlink:href="#DejaVuSans-30" x="63.623047"/>
       <use xlink:href="#DejaVuSans-30" x="127.246094"/>
      </g>
     </g>
    </g>
    <g id="ytick_6">
     <g id="line2d_14">
      <g>
       <use xlink:href="#m5b4746a226" x="50.565625" y="121.849265" style="stroke: #000000; stroke-width: 0.8"/>
      </g>
     </g>
     <g id="text_15">
      <!-- 500 -->
      <g transform="translate(24.478125 125.648484) scale(0.1 -0.1)">
       <use xlink:href="#DejaVuSans-35"/>
       <use xlink:href="#DejaVuSans-30" x="63.623047"/>
       <use xlink:href="#DejaVuSans-30" x="127.246094"/>
      </g>
     </g>
    </g>
    <g id="ytick_7">
     <g id="line2d_15">
      <g>
       <use xlink:href="#m5b4746a226" x="50.565625" y="86.670836" style="stroke: #000000; stroke-width: 0.8"/>
      </g>
     </g>
     <g id="text_16">
      <!-- 600 -->
      <g transform="translate(24.478125 90.470055) scale(0.1 -0.1)">
       <defs>
        <path id="DejaVuSans-36" d="M 2113 2584 
Q 1688 2584 1439 2293 
Q 1191 2003 1191 1497 
Q 1191 994 1439 701 
Q 1688 409 2113 409 
Q 2538 409 2786 701 
Q 3034 994 3034 1497 
Q 3034 2003 2786 2293 
Q 2538 2584 2113 2584 
z
M 3366 4563 
L 3366 3988 
Q 3128 4100 2886 4159 
Q 2644 4219 2406 4219 
Q 1781 4219 1451 3797 
Q 1122 3375 1075 2522 
Q 1259 2794 1537 2939 
Q 1816 3084 2150 3084 
Q 2853 3084 3261 2657 
Q 3669 2231 3669 1497 
Q 3669 778 3244 343 
Q 2819 -91 2113 -91 
Q 1303 -91 875 529 
Q 447 1150 447 2328 
Q 447 3434 972 4092 
Q 1497 4750 2381 4750 
Q 2619 4750 2861 4703 
Q 3103 4656 3366 4563 
z
" transform="scale(0.015625)"/>
       </defs>
       <use xlink:href="#DejaVuSans-36"/>
       <use xlink:href="#DejaVuSans-30" x="63.623047"/>
       <use xlink:href="#DejaVuSans-30" x="127.246094"/>
      </g>
     </g>
    </g>
    <g id="ytick_8">
     <g id="line2d_16">
      <g>
       <use xlink:href="#m5b4746a226" x="50.565625" y="51.492407" style="stroke: #000000; stroke-width: 0.8"/>
      </g>
     </g>
     <g id="text_17">
      <!-- 700 -->
      <g transform="translate(24.478125 55.291626) scale(0.1 -0.1)">
       <defs>
        <path id="DejaVuSans-37" d="M 525 4666 
L 3525 4666 
L 3525 4397 
L 1831 0 
L 1172 0 
L 2766 4134 
L 525 4134 
L 525 4666 
z
" transform="scale(0.015625)"/>
       </defs>
       <use xlink:href="#DejaVuSans-37"/>
       <use xlink:href="#DejaVuSans-30" x="63.623047"/>
       <use xlink:href="#DejaVuSans-30" x="127.246094"/>
      </g>
     </g>
    </g>
    <g id="ytick_9">
     <g id="line2d_17">
      <g>
       <use xlink:href="#m5b4746a226" x="50.565625" y="16.313978" style="stroke: #000000; stroke-width: 0.8"/>
      </g>
     </g>
     <g id="text_18">
      <!-- 800 -->
      <g transform="translate(24.478125 20.113197) scale(0.1 -0.1)">
       <use xlink:href="#DejaVuSans-38"/>
       <use xlink:href="#DejaVuSans-30" x="63.623047"/>
       <use xlink:href="#DejaVuSans-30" x="127.246094"/>
      </g>
     </g>
    </g>
    <g id="text_19">
     <!-- CH4 emission (MtCH4 yr-1) -->
     <g transform="translate(18.398438 225.274219) rotate(-90) scale(0.1 -0.1)">
      <defs>
       <path id="DejaVuSans-43" d="M 4122 4306 
L 4122 3641 
Q 3803 3938 3442 4084 
Q 3081 4231 2675 4231 
Q 1875 4231 1450 3742 
Q 1025 3253 1025 2328 
Q 1025 1406 1450 917 
Q 1875 428 2675 428 
Q 3081 428 3442 575 
Q 3803 722 4122 1019 
L 4122 359 
Q 3791 134 3420 21 
Q 3050 -91 2638 -91 
Q 1578 -91 968 557 
Q 359 1206 359 2328 
Q 359 3453 968 4101 
Q 1578 4750 2638 4750 
Q 3056 4750 3426 4639 
Q 3797 4528 4122 4306 
z
" transform="scale(0.015625)"/>
       <path id="DejaVuSans-48" d="M 628 4666 
L 1259 4666 
L 1259 2753 
L 3553 2753 
L 3553 4666 
L 4184 4666 
L 4184 0 
L 3553 0 
L 3553 2222 
L 1259 2222 
L 1259 0 
L 628 0 
L 628 4666 
z
" transform="scale(0.015625)"/>
       <path id="DejaVuSans-20" transform="scale(0.015625)"/>
       <path id="DejaVuSans-6d" d="M 3328 2828 
Q 3544 3216 3844 3400 
Q 4144 3584 4550 3584 
Q 5097 3584 5394 3201 
Q 5691 2819 5691 2113 
L 5691 0 
L 5113 0 
L 5113 2094 
Q 5113 2597 4934 2840 
Q 4756 3084 4391 3084 
Q 3944 3084 3684 2787 
Q 3425 2491 3425 1978 
L 3425 0 
L 2847 0 
L 2847 2094 
Q 2847 2600 2669 2842 
Q 2491 3084 2119 3084 
Q 1678 3084 1418 2786 
Q 1159 2488 1159 1978 
L 1159 0 
L 581 0 
L 581 3500 
L 1159 3500 
L 1159 2956 
Q 1356 3278 1631 3431 
Q 1906 3584 2284 3584 
Q 2666 3584 2933 3390 
Q 3200 3197 3328 2828 
z
" transform="scale(0.015625)"/>
       <path id="DejaVuSans-69" d="M 603 3500 
L 1178 3500 
L 1178 0 
L 603 0 
L 603 3500 
z
M 603 4863 
L 1178 4863 
L 1178 4134 
L 603 4134 
L 603 4863 
z
" transform="scale(0.015625)"/>
       <path id="DejaVuSans-73" d="M 2834 3397 
L 2834 2853 
Q 2591 2978 2328 3040 
Q 2066 3103 1784 3103 
Q 1356 3103 1142 2972 
Q 928 2841 928 2578 
Q 928 2378 1081 2264 
Q 1234 2150 1697 2047 
L 1894 2003 
Q 2506 1872 2764 1633 
Q 3022 1394 3022 966 
Q 3022 478 2636 193 
Q 2250 -91 1575 -91 
Q 1294 -91 989 -36 
Q 684 19 347 128 
L 347 722 
Q 666 556 975 473 
Q 1284 391 1588 391 
Q 1994 391 2212 530 
Q 2431 669 2431 922 
Q 2431 1156 2273 1281 
Q 2116 1406 1581 1522 
L 1381 1569 
Q 847 1681 609 1914 
Q 372 2147 372 2553 
Q 372 3047 722 3315 
Q 1072 3584 1716 3584 
Q 2034 3584 2315 3537 
Q 2597 3491 2834 3397 
z
" transform="scale(0.015625)"/>
       <path id="DejaVuSans-6f" d="M 1959 3097 
Q 1497 3097 1228 2736 
Q 959 2375 959 1747 
Q 959 1119 1226 758 
Q 1494 397 1959 397 
Q 2419 397 2687 759 
Q 2956 1122 2956 1747 
Q 2956 2369 2687 2733 
Q 2419 3097 1959 3097 
z
M 1959 3584 
Q 2709 3584 3137 3096 
Q 3566 2609 3566 1747 
Q 3566 888 3137 398 
Q 2709 -91 1959 -91 
Q 1206 -91 779 398 
Q 353 888 353 1747 
Q 353 2609 779 3096 
Q 1206 3584 1959 3584 
z
" transform="scale(0.015625)"/>
       <path id="DejaVuSans-6e" d="M 3513 2113 
L 3513 0 
L 2938 0 
L 2938 2094 
Q 2938 2591 2744 2837 
Q 2550 3084 2163 3084 
Q 1697 3084 1428 2787 
Q 1159 2491 1159 1978 
L 1159 0 
L 581 0 
L 581 3500 
L 1159 3500 
L 1159 2956 
Q 1366 3272 1645 3428 
Q 1925 3584 2291 3584 
Q 2894 3584 3203 3211 
Q 3513 2838 3513 2113 
z
" transform="scale(0.015625)"/>
       <path id="DejaVuSans-28" d="M 1984 4856 
Q 1566 4138 1362 3434 
Q 1159 2731 1159 2009 
Q 1159 1288 1364 580 
Q 1569 -128 1984 -844 
L 1484 -844 
Q 1016 -109 783 600 
Q 550 1309 550 2009 
Q 550 2706 781 3412 
Q 1013 4119 1484 4856 
L 1984 4856 
z
" transform="scale(0.015625)"/>
       <path id="DejaVuSans-4d" d="M 628 4666 
L 1569 4666 
L 2759 1491 
L 3956 4666 
L 4897 4666 
L 4897 0 
L 4281 0 
L 4281 4097 
L 3078 897 
L 2444 897 
L 1241 4097 
L 1241 0 
L 628 0 
L 628 4666 
z
" transform="scale(0.015625)"/>
       <path id="DejaVuSans-74" d="M 1172 4494 
L 1172 3500 
L 2356 3500 
L 2356 3053 
L 1172 3053 
L 1172 1153 
Q 1172 725 1289 603 
Q 1406 481 1766 481 
L 2356 481 
L 2356 0 
L 1766 0 
Q 1100 0 847 248 
Q 594 497 594 1153 
L 594 3053 
L 172 3053 
L 172 3500 
L 594 3500 
L 594 4494 
L 1172 4494 
z
" transform="scale(0.015625)"/>
       <path id="DejaVuSans-79" d="M 2059 -325 
Q 1816 -950 1584 -1140 
Q 1353 -1331 966 -1331 
L 506 -1331 
L 506 -850 
L 844 -850 
Q 1081 -850 1212 -737 
Q 1344 -625 1503 -206 
L 1606 56 
L 191 3500 
L 800 3500 
L 1894 763 
L 2988 3500 
L 3597 3500 
L 2059 -325 
z
" transform="scale(0.015625)"/>
       <path id="DejaVuSans-2d" d="M 313 2009 
L 1997 2009 
L 1997 1497 
L 313 1497 
L 313 2009 
z
" transform="scale(0.015625)"/>
       <path id="DejaVuSans-29" d="M 513 4856 
L 1013 4856 
Q 1481 4119 1714 3412 
Q 1947 2706 1947 2009 
Q 1947 1309 1714 600 
Q 1481 -109 1013 -844 
L 513 -844 
Q 928 -128 1133 580 
Q 1338 1288 1338 2009 
Q 1338 2731 1133 3434 
Q 928 4138 513 4856 
z
" transform="scale(0.015625)"/>
      </defs>
      <use xlink:href="#DejaVuSans-43"/>
      <use xlink:href="#DejaVuSans-48" x="69.824219"/>
      <use xlink:href="#DejaVuSans-34" x="145.019531"/>
      <use xlink:href="#DejaVuSans-20" x="208.642578"/>
      <use xlink:href="#DejaVuSans-65" x="240.429688"/>
      <use xlink:href="#DejaVuSans-6d" x="301.953125"/>
      <use xlink:href="#DejaVuSans-69" x="399.365234"/>
      <use xlink:href="#DejaVuSans-73" x="427.148438"/>
      <use xlink:href="#DejaVuSans-73" x="479.248047"/>
      <use xlink:href="#DejaVuSans-69" x="531.347656"/>
      <use xlink:href="#DejaVuSans-6f" x="559.130859"/>
      <use xlink:href="#DejaVuSans-6e" x="620.3125"/>
      <use xlink:href="#DejaVuSans-20" x="683.691406"/>
      <use xlink:href="#DejaVuSans-28" x="715.478516"/>
      <use xlink:href="#DejaVuSans-4d" x="754.492188"/>
      <use xlink:href="#DejaVuSans-74" x="840.771484"/>
      <use xlink:href="#DejaVuSans-43" x="879.980469"/>
      <use xlink:href="#DejaVuSans-48" x="949.804688"/>
      <use xlink:href="#DejaVuSans-34" x="1025"/>
      <use xlink:href="#DejaVuSans-20" x="1088.623047"/>
      <use xlink:href="#DejaVuSans-79" x="1120.410156"/>
      <use xlink:href="#DejaVuSans-72" x="1179.589844"/>
      <use xlink:href="#DejaVuSans-2d" x="1214.328125"/>
      <use xlink:href="#DejaVuSans-31" x="1250.412109"/>
      <use xlink:href="#DejaVuSans-29" x="1314.035156"/>
     </g>
    </g>
   </g>
   <g id="line2d_18">
    <path d="M 68.721733 291.05055 
L 69.690059 291.096307 
L 71.142547 290.881457 
L 71.62671 290.894796 
L 72.110873 290.697444 
L 73.079199 290.655959 
L 74.047525 290.545315 
L 75.500013 290.613938 
L 75.984176 290.382381 
L 76.952502 290.354229 
L 77.436665 290.121956 
L 78.889153 290.203053 
L 79.857479 290.144548 
L 80.341642 289.910795 
L 81.309968 289.952223 
L 82.278294 289.701 
L 82.762456 289.71347 
L 83.246619 289.563774 
L 85.183271 289.546933 
L 85.667434 289.368204 
L 86.635759 289.236488 
L 87.119922 288.997485 
L 87.604085 289.046333 
L 88.088248 288.967134 
L 89.056574 289.010514 
L 89.540737 288.935711 
L 90.0249 288.676796 
L 90.993225 288.686278 
L 91.961551 288.40279 
L 95.834854 287.84418 
L 96.319017 287.730103 
L 96.80318 287.474501 
L 97.287343 287.494406 
L 98.255669 287.396917 
L 98.739831 287.391812 
L 99.223994 287.265811 
L 99.708157 286.995156 
L 100.676483 286.906505 
L 103.097297 286.300897 
L 105.518112 285.869358 
L 106.002275 285.726201 
L 106.486438 285.429267 
L 106.9706 285.423189 
L 107.454763 285.287489 
L 108.423089 285.231003 
L 108.907252 285.08392 
L 109.391415 284.809447 
L 110.359741 284.638398 
L 112.780555 283.887574 
L 114.233044 283.654467 
L 116.169695 282.808354 
L 116.653858 282.743452 
L 117.138021 282.564605 
L 118.106347 282.493627 
L 118.590509 282.303582 
L 119.074672 281.978281 
L 120.042998 281.798028 
L 121.011324 281.369167 
L 121.97965 281.075229 
L 124.884627 279.185847 
L 125.852953 278.292076 
L 126.337116 278.100028 
L 126.821278 277.690905 
L 127.789604 277.272101 
L 128.75793 276.321793 
L 129.242093 276.125261 
L 131.178744 274.557842 
L 132.14707 273.923257 
L 133.599559 272.947441 
L 136.504536 270.626362 
L 137.472862 270.110309 
L 138.92535 268.81378 
L 139.409513 268.543295 
L 140.377839 267.712656 
L 141.346165 266.920432 
L 142.798653 266.11926 
L 143.766979 265.236076 
L 144.251142 264.937532 
L 145.219468 264.071302 
L 145.703631 263.805943 
L 146.187794 263.346802 
L 147.156119 262.82114 
L 148.608608 261.487254 
L 149.576934 260.649366 
L 151.029422 259.349911 
L 151.997748 258.874238 
L 152.481911 258.25237 
L 152.966074 258.118713 
L 155.386888 256.22383 
L 155.871051 255.643322 
L 156.355214 255.559833 
L 156.839377 255.027063 
L 157.32354 254.702796 
L 157.807703 254.136587 
L 158.291866 253.805451 
L 158.776028 253.253114 
L 159.744354 252.746303 
L 160.228517 252.184868 
L 160.71268 251.961964 
L 164.585983 245.933424 
L 165.070146 244.897882 
L 165.554309 244.199487 
L 166.038472 243.119183 
L 167.49096 237.807567 
L 167.975123 236.270466 
L 168.943449 232.289985 
L 169.427612 231.470337 
L 170.395938 228.348054 
L 170.8801 225.576965 
L 171.364263 224.847379 
L 171.848426 221.688368 
L 172.332589 221.560355 
L 172.816752 219.410864 
L 173.300915 218.128863 
L 173.785078 216.01026 
L 174.269241 214.954113 
L 174.753403 213.599937 
L 175.721729 210.045269 
L 176.205892 207.258901 
L 176.690055 206.173816 
L 177.658381 205.201546 
L 178.142544 202.777871 
L 178.626706 201.341908 
L 179.110869 200.531678 
L 179.595032 198.678931 
L 180.079195 198.064574 
L 180.563358 199.315888 
L 181.047521 196.543865 
L 181.531684 198.672743 
L 182.015847 197.481817 
L 182.500009 197.245339 
L 183.468335 193.947978 
L 184.920824 190.351322 
L 185.404987 185.616784 
L 185.88915 192.416562 
L 186.373312 192.402238 
L 186.857475 188.599688 
L 187.341638 190.303115 
L 187.825801 189.641191 
L 188.309964 181.199173 
L 188.794127 186.812348 
L 189.27829 188.896406 
L 189.762453 188.622564 
L 190.246616 187.66938 
L 190.730778 184.368781 
L 191.214941 182.312463 
L 191.699104 178.50702 
L 192.183267 175.884896 
L 192.66743 172.340974 
L 193.151593 172.850046 
L 193.635756 170.92609 
L 194.119919 169.621444 
L 194.604081 167.265936 
L 195.088244 166.646292 
L 195.572407 163.778517 
L 196.05657 163.502498 
L 196.540733 161.293593 
L 197.024896 161.223498 
L 199.44571 171.483301 
L 204.287339 212.248323 
L 209.128968 227.168957 
L 213.970597 237.868828 
L 219.780551 243.09557 
L 224.138017 246.719154 
L 228.979646 251.622811 
L 233.821275 255.576546 
L 238.178741 258.439631 
L 311.287335 274.192378 
L 431.843892 274.192378 
L 431.843892 274.192378 
" clip-path="url(#pc658d6ed8e)" style="fill: none; stroke: #348abd; stroke-width: 1.5; stroke-linecap: square"/>
   </g>
   <g id="line2d_19">
    <path d="M 68.721733 291.05055 
L 69.690059 291.096307 
L 71.142547 290.881457 
L 71.62671 290.894796 
L 72.110873 290.697444 
L 73.079199 290.655959 
L 74.047525 290.545315 
L 75.500013 290.613938 
L 75.984176 290.382381 
L 76.952502 290.354229 
L 77.436665 290.121956 
L 78.889153 290.203053 
L 79.857479 290.144548 
L 80.341642 289.910795 
L 81.309968 289.952223 
L 82.278294 289.701 
L 82.762456 289.71347 
L 83.246619 289.563774 
L 85.183271 289.546933 
L 85.667434 289.368204 
L 86.635759 289.236488 
L 87.119922 288.997485 
L 87.604085 289.046333 
L 88.088248 288.967134 
L 89.056574 289.010514 
L 89.540737 288.935711 
L 90.0249 288.676796 
L 90.993225 288.686278 
L 91.961551 288.40279 
L 95.834854 287.84418 
L 96.319017 287.730103 
L 96.80318 287.474501 
L 97.287343 287.494406 
L 98.255669 287.396917 
L 98.739831 287.391812 
L 99.223994 287.265811 
L 99.708157 286.995156 
L 100.676483 286.906505 
L 103.097297 286.300897 
L 105.518112 285.869358 
L 106.002275 285.726201 
L 106.486438 285.429267 
L 106.9706 285.423189 
L 107.454763 285.287489 
L 108.423089 285.231003 
L 108.907252 285.08392 
L 109.391415 284.809447 
L 110.359741 284.638398 
L 112.780555 283.887574 
L 114.233044 283.654467 
L 116.169695 282.808354 
L 116.653858 282.743452 
L 117.138021 282.564605 
L 118.106347 282.493627 
L 118.590509 282.303582 
L 119.074672 281.978281 
L 120.042998 281.798028 
L 121.011324 281.369167 
L 121.97965 281.075229 
L 124.884627 279.185847 
L 125.852953 278.292076 
L 126.337116 278.100028 
L 126.821278 277.690905 
L 127.789604 277.272101 
L 128.75793 276.321793 
L 129.242093 276.125261 
L 131.178744 274.557842 
L 132.14707 273.923257 
L 133.599559 272.947441 
L 136.504536 270.626362 
L 137.472862 270.110309 
L 138.92535 268.81378 
L 139.409513 268.543295 
L 140.377839 267.712656 
L 141.346165 266.920432 
L 142.798653 266.11926 
L 143.766979 265.236076 
L 144.251142 264.937532 
L 145.219468 264.071302 
L 145.703631 263.805943 
L 146.187794 263.346802 
L 147.156119 262.82114 
L 148.608608 261.487254 
L 149.576934 260.649366 
L 151.029422 259.349911 
L 151.997748 258.874238 
L 152.481911 258.25237 
L 152.966074 258.118713 
L 155.386888 256.22383 
L 155.871051 255.643322 
L 156.355214 255.559833 
L 156.839377 255.027063 
L 157.32354 254.702796 
L 157.807703 254.136587 
L 158.291866 253.805451 
L 158.776028 253.253114 
L 159.744354 252.746303 
L 160.228517 252.184868 
L 160.71268 251.961964 
L 164.585983 245.933424 
L 165.070146 244.897882 
L 165.554309 244.199487 
L 166.038472 243.119183 
L 167.49096 237.807567 
L 167.975123 236.270466 
L 168.943449 232.289985 
L 169.427612 231.470337 
L 170.395938 228.348054 
L 170.8801 225.576965 
L 171.364263 224.847379 
L 171.848426 221.688368 
L 172.332589 221.560355 
L 172.816752 219.410864 
L 173.300915 218.128863 
L 173.785078 216.01026 
L 174.269241 214.954113 
L 174.753403 213.599937 
L 175.721729 210.045269 
L 176.205892 207.258901 
L 176.690055 206.173816 
L 177.658381 205.201546 
L 178.142544 202.777871 
L 178.626706 201.341908 
L 179.110869 200.531678 
L 179.595032 198.678931 
L 180.079195 198.064574 
L 180.563358 199.315888 
L 181.047521 196.543865 
L 181.531684 198.672743 
L 182.015847 197.481817 
L 182.500009 197.245339 
L 183.468335 193.947978 
L 184.920824 190.351322 
L 185.404987 185.616784 
L 185.88915 192.416562 
L 186.373312 192.402238 
L 186.857475 188.599688 
L 187.341638 190.303115 
L 187.825801 189.641191 
L 188.309964 181.199173 
L 188.794127 186.812348 
L 189.27829 188.896406 
L 189.762453 188.622564 
L 190.246616 187.66938 
L 190.730778 184.368781 
L 191.214941 182.312463 
L 191.699104 178.50702 
L 192.183267 175.884896 
L 192.66743 172.340974 
L 193.151593 172.850046 
L 193.635756 170.92609 
L 194.119919 169.621444 
L 194.604081 167.265936 
L 195.088244 166.646292 
L 195.572407 163.778517 
L 196.05657 163.502498 
L 196.540733 161.293593 
L 197.509059 161.222247 
L 199.44571 161.217244 
L 204.287339 157.222497 
L 209.128968 163.079529 
L 215.423085 175.034376 
L 218.812225 181.891303 
L 225.590506 188.285017 
L 228.495483 191.183387 
L 236.726252 193.524628 
L 238.178741 193.911244 
L 310.803172 254.787636 
L 431.843892 254.787636 
L 431.843892 254.787636 
" clip-path="url(#pc658d6ed8e)" style="fill: none; stroke: #188487; stroke-width: 1.5; stroke-linecap: square"/>
   </g>
   <g id="line2d_20">
    <path d="M 68.721733 291.05055 
L 69.690059 291.096307 
L 71.142547 290.881457 
L 71.62671 290.894796 
L 72.110873 290.697444 
L 73.079199 290.655959 
L 74.047525 290.545315 
L 75.500013 290.613938 
L 75.984176 290.382381 
L 76.952502 290.354229 
L 77.436665 290.121956 
L 78.889153 290.203053 
L 79.857479 290.144548 
L 80.341642 289.910795 
L 81.309968 289.952223 
L 82.278294 289.701 
L 82.762456 289.71347 
L 83.246619 289.563774 
L 85.183271 289.546933 
L 85.667434 289.368204 
L 86.635759 289.236488 
L 87.119922 288.997485 
L 87.604085 289.046333 
L 88.088248 288.967134 
L 89.056574 289.010514 
L 89.540737 288.935711 
L 90.0249 288.676796 
L 90.993225 288.686278 
L 91.961551 288.40279 
L 95.834854 287.84418 
L 96.319017 287.730103 
L 96.80318 287.474501 
L 97.287343 287.494406 
L 98.255669 287.396917 
L 98.739831 287.391812 
L 99.223994 287.265811 
L 99.708157 286.995156 
L 100.676483 286.906505 
L 103.097297 286.300897 
L 105.518112 285.869358 
L 106.002275 285.726201 
L 106.486438 285.429267 
L 106.9706 285.423189 
L 107.454763 285.287489 
L 108.423089 285.231003 
L 108.907252 285.08392 
L 109.391415 284.809447 
L 110.359741 284.638398 
L 112.780555 283.887574 
L 114.233044 283.654467 
L 116.169695 282.808354 
L 116.653858 282.743452 
L 117.138021 282.564605 
L 118.106347 282.493627 
L 118.590509 282.303582 
L 119.074672 281.978281 
L 120.042998 281.798028 
L 121.011324 281.369167 
L 121.97965 281.075229 
L 124.884627 279.185847 
L 125.852953 278.292076 
L 126.337116 278.100028 
L 126.821278 277.690905 
L 127.789604 277.272101 
L 128.75793 276.321793 
L 129.242093 276.125261 
L 131.178744 274.557842 
L 132.14707 273.923257 
L 133.599559 272.947441 
L 136.504536 270.626362 
L 137.472862 270.110309 
L 138.92535 268.81378 
L 139.409513 268.543295 
L 140.377839 267.712656 
L 141.346165 266.920432 
L 142.798653 266.11926 
L 143.766979 265.236076 
L 144.251142 264.937532 
L 145.219468 264.071302 
L 145.703631 263.805943 
L 146.187794 263.346802 
L 147.156119 262.82114 
L 148.608608 261.487254 
L 149.576934 260.649366 
L 151.029422 259.349911 
L 151.997748 258.874238 
L 152.481911 258.25237 
L 152.966074 258.118713 
L 155.386888 256.22383 
L 155.871051 255.643322 
L 156.355214 255.559833 
L 156.839377 255.027063 
L 157.32354 254.702796 
L 157.807703 254.136587 
L 158.291866 253.805451 
L 158.776028 253.253114 
L 159.744354 252.746303 
L 160.228517 252.184868 
L 160.71268 251.961964 
L 164.585983 245.933424 
L 165.070146 244.897882 
L 165.554309 244.199487 
L 166.038472 243.119183 
L 167.49096 237.807567 
L 167.975123 236.270466 
L 168.943449 232.289985 
L 169.427612 231.470337 
L 170.395938 228.348054 
L 170.8801 225.576965 
L 171.364263 224.847379 
L 171.848426 221.688368 
L 172.332589 221.560355 
L 172.816752 219.410864 
L 173.300915 218.128863 
L 173.785078 216.01026 
L 174.269241 214.954113 
L 174.753403 213.599937 
L 175.721729 210.045269 
L 176.205892 207.258901 
L 176.690055 206.173816 
L 177.658381 205.201546 
L 178.142544 202.777871 
L 178.626706 201.341908 
L 179.110869 200.531678 
L 179.595032 198.678931 
L 180.079195 198.064574 
L 180.563358 199.315888 
L 181.047521 196.543865 
L 181.531684 198.672743 
L 182.015847 197.481817 
L 182.500009 197.245339 
L 183.468335 193.947978 
L 184.920824 190.351322 
L 185.404987 185.616784 
L 185.88915 192.416562 
L 186.373312 192.402238 
L 186.857475 188.599688 
L 187.341638 190.303115 
L 187.825801 189.641191 
L 188.309964 181.199173 
L 188.794127 186.812348 
L 189.27829 188.896406 
L 189.762453 188.622564 
L 190.246616 187.66938 
L 190.730778 184.368781 
L 191.214941 182.312463 
L 191.699104 178.50702 
L 192.183267 175.884896 
L 192.66743 172.340974 
L 193.151593 172.850046 
L 193.635756 170.92609 
L 194.119919 169.621444 
L 194.604081 167.265936 
L 195.088244 166.646292 
L 195.572407 163.778517 
L 196.05657 163.502498 
L 196.540733 161.293593 
L 197.024896 161.223498 
L 199.929873 148.675678 
L 204.771502 130.379231 
L 215.423085 96.528694 
L 222.201366 74.820581 
L 227.042994 58.701685 
L 229.463809 50.869538 
L 238.178741 24.147443 
L 310.803172 156.606765 
L 431.843892 156.606765 
L 431.843892 156.606765 
" clip-path="url(#pc658d6ed8e)" style="fill: none; stroke: #e24a33; stroke-width: 1.5; stroke-linecap: square"/>
   </g>
   <g id="line2d_21">
    <path d="M 68.721733 291.05055 
L 69.690059 291.096307 
L 71.142547 290.881457 
L 71.62671 290.894796 
L 72.110873 290.697444 
L 73.079199 290.655959 
L 74.047525 290.545315 
L 75.500013 290.613938 
L 75.984176 290.382381 
L 76.952502 290.354229 
L 77.436665 290.121956 
L 78.889153 290.203053 
L 79.857479 290.144548 
L 80.341642 289.910795 
L 81.309968 289.952223 
L 82.278294 289.701 
L 82.762456 289.71347 
L 83.246619 289.563774 
L 85.183271 289.546933 
L 85.667434 289.368204 
L 86.635759 289.236488 
L 87.119922 288.997485 
L 87.604085 289.046333 
L 88.088248 288.967134 
L 89.056574 289.010514 
L 89.540737 288.935711 
L 90.0249 288.676796 
L 90.993225 288.686278 
L 91.961551 288.40279 
L 95.834854 287.84418 
L 96.319017 287.730103 
L 96.80318 287.474501 
L 97.287343 287.494406 
L 98.255669 287.396917 
L 98.739831 287.391812 
L 99.223994 287.265811 
L 99.708157 286.995156 
L 100.676483 286.906505 
L 103.097297 286.300897 
L 105.518112 285.869358 
L 106.002275 285.726201 
L 106.486438 285.429267 
L 106.9706 285.423189 
L 107.454763 285.287489 
L 108.423089 285.231003 
L 108.907252 285.08392 
L 109.391415 284.809447 
L 110.359741 284.638398 
L 112.780555 283.887574 
L 114.233044 283.654467 
L 116.169695 282.808354 
L 116.653858 282.743452 
L 117.138021 282.564605 
L 118.106347 282.493627 
L 118.590509 282.303582 
L 119.074672 281.978281 
L 120.042998 281.798028 
L 121.011324 281.369167 
L 121.97965 281.075229 
L 124.884627 279.185847 
L 125.852953 278.292076 
L 126.337116 278.100028 
L 126.821278 277.690905 
L 127.789604 277.272101 
L 128.75793 276.321793 
L 129.242093 276.125261 
L 131.178744 274.557842 
L 132.14707 273.923257 
L 133.599559 272.947441 
L 136.504536 270.626362 
L 137.472862 270.110309 
L 138.92535 268.81378 
L 139.409513 268.543295 
L 140.377839 267.712656 
L 141.346165 266.920432 
L 142.798653 266.11926 
L 143.766979 265.236076 
L 144.251142 264.937532 
L 145.219468 264.071302 
L 145.703631 263.805943 
L 146.187794 263.346802 
L 147.156119 262.82114 
L 148.608608 261.487254 
L 149.576934 260.649366 
L 151.029422 259.349911 
L 151.997748 258.874238 
L 152.481911 258.25237 
L 152.966074 258.118713 
L 155.386888 256.22383 
L 155.871051 255.643322 
L 156.355214 255.559833 
L 156.839377 255.027063 
L 157.32354 254.702796 
L 157.807703 254.136587 
L 158.291866 253.805451 
L 158.776028 253.253114 
L 159.744354 252.746303 
L 160.228517 252.184868 
L 160.71268 251.961964 
L 164.585983 245.933424 
L 165.070146 244.897882 
L 165.554309 244.199487 
L 166.038472 243.119183 
L 167.49096 237.807567 
L 167.975123 236.270466 
L 168.943449 232.289985 
L 169.427612 231.470337 
L 170.395938 228.348054 
L 170.8801 225.576965 
L 171.364263 224.847379 
L 171.848426 221.688368 
L 172.332589 221.560355 
L 172.816752 219.410864 
L 173.300915 218.128863 
L 173.785078 216.01026 
L 174.269241 214.954113 
L 174.753403 213.599937 
L 175.721729 210.045269 
L 176.205892 207.258901 
L 176.690055 206.173816 
L 177.658381 205.201546 
L 178.142544 202.777871 
L 178.626706 201.341908 
L 179.110869 200.531678 
L 179.595032 198.678931 
L 180.079195 198.064574 
L 180.563358 199.315888 
L 181.047521 196.543865 
L 181.531684 198.672743 
L 182.015847 197.481817 
L 182.500009 197.245339 
L 183.468335 193.947978 
L 184.920824 190.351322 
L 185.404987 185.616784 
L 185.88915 192.416562 
L 186.373312 192.402238 
L 186.857475 188.599688 
L 187.341638 190.303115 
L 187.825801 189.641191 
L 188.309964 181.199173 
L 188.794127 186.812348 
L 189.27829 188.896406 
L 189.762453 188.622564 
L 190.246616 187.66938 
L 190.730778 184.368781 
L 191.214941 182.312463 
L 191.699104 178.50702 
L 192.183267 175.884896 
L 192.66743 172.340974 
L 193.151593 172.850046 
L 193.635756 170.92609 
L 194.119919 169.621444 
L 194.604081 167.265936 
L 195.088244 166.646292 
L 195.572407 163.778517 
L 196.05657 163.502498 
L 196.540733 161.293593 
L 197.024896 161.223498 
L 199.44571 145.560393 
L 204.287339 129.711773 
L 209.128968 119.044161 
L 213.970597 113.908603 
L 218.812225 110.674241 
L 223.653854 111.115699 
L 229.463809 116.765548 
L 233.821275 121.302509 
L 243.020369 128.802399 
L 310.803172 184.946528 
L 431.843892 184.946528 
L 431.843892 184.946528 
" clip-path="url(#pc658d6ed8e)" style="fill: none; stroke: #7a68a6; stroke-width: 1.5; stroke-linecap: square"/>
   </g>
   <g id="line2d_22">
    <path d="M 68.721733 291.05055 
L 69.690059 291.096307 
L 71.142547 290.881457 
L 71.62671 290.894796 
L 72.110873 290.697444 
L 73.079199 290.655959 
L 74.047525 290.545315 
L 75.500013 290.613938 
L 75.984176 290.382381 
L 76.952502 290.354229 
L 77.436665 290.121956 
L 78.889153 290.203053 
L 79.857479 290.144548 
L 80.341642 289.910795 
L 81.309968 289.952223 
L 82.278294 289.701 
L 82.762456 289.71347 
L 83.246619 289.563774 
L 85.183271 289.546933 
L 85.667434 289.368204 
L 86.635759 289.236488 
L 87.119922 288.997485 
L 87.604085 289.046333 
L 88.088248 288.967134 
L 89.056574 289.010514 
L 89.540737 288.935711 
L 90.0249 288.676796 
L 90.993225 288.686278 
L 91.961551 288.40279 
L 95.834854 287.84418 
L 96.319017 287.730103 
L 96.80318 287.474501 
L 97.287343 287.494406 
L 98.255669 287.396917 
L 98.739831 287.391812 
L 99.223994 287.265811 
L 99.708157 286.995156 
L 100.676483 286.906505 
L 103.097297 286.300897 
L 105.518112 285.869358 
L 106.002275 285.726201 
L 106.486438 285.429267 
L 106.9706 285.423189 
L 107.454763 285.287489 
L 108.423089 285.231003 
L 108.907252 285.08392 
L 109.391415 284.809447 
L 110.359741 284.638398 
L 112.780555 283.887574 
L 114.233044 283.654467 
L 116.169695 282.808354 
L 116.653858 282.743452 
L 117.138021 282.564605 
L 118.106347 282.493627 
L 118.590509 282.303582 
L 119.074672 281.978281 
L 120.042998 281.798028 
L 121.011324 281.369167 
L 121.97965 281.075229 
L 124.884627 279.185847 
L 125.852953 278.292076 
L 126.337116 278.100028 
L 126.821278 277.690905 
L 127.789604 277.272101 
L 128.75793 276.321793 
L 129.242093 276.125261 
L 131.178744 274.557842 
L 132.14707 273.923257 
L 133.599559 272.947441 
L 136.504536 270.626362 
L 137.472862 270.110309 
L 138.92535 268.81378 
L 139.409513 268.543295 
L 140.377839 267.712656 
L 141.346165 266.920432 
L 142.798653 266.11926 
L 143.766979 265.236076 
L 144.251142 264.937532 
L 145.219468 264.071302 
L 145.703631 263.805943 
L 146.187794 263.346802 
L 147.156119 262.82114 
L 148.608608 261.487254 
L 149.576934 260.649366 
L 151.029422 259.349911 
L 151.997748 258.874238 
L 152.481911 258.25237 
L 152.966074 258.118713 
L 155.386888 256.22383 
L 155.871051 255.643322 
L 156.355214 255.559833 
L 156.839377 255.027063 
L 157.32354 254.702796 
L 157.807703 254.136587 
L 158.291866 253.805451 
L 158.776028 253.253114 
L 159.744354 252.746303 
L 160.228517 252.184868 
L 160.71268 251.961964 
L 164.585983 245.933424 
L 165.070146 244.897882 
L 165.554309 244.199487 
L 166.038472 243.119183 
L 167.49096 237.807567 
L 167.975123 236.270466 
L 168.943449 232.289985 
L 169.427612 231.470337 
L 170.395938 228.348054 
L 170.8801 225.576965 
L 171.364263 224.847379 
L 171.848426 221.688368 
L 172.332589 221.560355 
L 172.816752 219.410864 
L 173.300915 218.128863 
L 173.785078 216.01026 
L 174.269241 214.954113 
L 174.753403 213.599937 
L 175.721729 210.045269 
L 176.205892 207.258901 
L 176.690055 206.173816 
L 177.658381 205.201546 
L 178.142544 202.777871 
L 178.626706 201.341908 
L 179.110869 200.531678 
L 179.595032 198.678931 
L 180.079195 198.064574 
L 180.563358 199.315888 
L 181.047521 196.543865 
L 181.531684 198.672743 
L 182.015847 197.481817 
L 182.500009 197.245339 
L 183.468335 193.947978 
L 184.920824 190.351322 
L 185.404987 185.616784 
L 185.88915 192.416562 
L 186.373312 192.402238 
L 186.857475 188.599688 
L 187.341638 190.303115 
L 187.825801 189.641191 
L 188.309964 181.199173 
L 188.794127 186.812348 
L 189.27829 188.896406 
L 189.762453 188.622564 
L 190.246616 187.66938 
L 190.730778 184.368781 
L 191.214941 182.312463 
L 191.699104 178.50702 
L 192.183267 175.884896 
L 192.66743 172.340974 
L 193.151593 172.850046 
L 193.635756 170.92609 
L 194.119919 169.621444 
L 194.604081 167.265936 
L 195.088244 166.646292 
L 195.572407 163.778517 
L 196.05657 163.502498 
L 196.540733 161.293593 
L 197.024896 161.223498 
L 199.44571 157.919681 
L 204.287339 137.866863 
L 209.128968 106.971345 
L 213.970597 90.083974 
L 218.812225 87.406003 
L 223.653854 87.681016 
L 228.495483 97.583523 
L 233.337112 117.159694 
L 238.178741 128.130203 
L 310.803172 239.314665 
L 431.843892 239.314665 
L 431.843892 239.314665 
" clip-path="url(#pc658d6ed8e)" style="fill: none; stroke: #a60628; stroke-width: 1.5; stroke-linecap: square"/>
   </g>
   <g id="patch_2">
    <path d="M 50.565625 304.44375 
L 50.565625 10.8 
" style="fill: none; stroke: #000000; stroke-width: 0.8; stroke-linejoin: miter; stroke-linecap: square"/>
   </g>
   <g id="patch_3">
    <path d="M 450 304.44375 
L 450 10.8 
" style="fill: none; stroke: #000000; stroke-width: 0.8; stroke-linejoin: miter; stroke-linecap: square"/>
   </g>
   <g id="patch_4">
    <path d="M 50.565625 304.44375 
L 450 304.44375 
" style="fill: none; stroke: #000000; stroke-width: 0.8; stroke-linejoin: miter; stroke-linecap: square"/>
   </g>
   <g id="patch_5">
    <path d="M 50.565625 10.8 
L 450 10.8 
" style="fill: none; stroke: #000000; stroke-width: 0.8; stroke-linejoin: miter; stroke-linecap: square"/>
   </g>
   <g id="legend_1">
    <g id="patch_6">
     <path d="M 375.145312 92.190625 
L 443 92.190625 
Q 445 92.190625 445 90.190625 
L 445 17.8 
Q 445 15.8 443 15.8 
L 375.145312 15.8 
Q 373.145312 15.8 373.145312 17.8 
L 373.145312 90.190625 
Q 373.145312 92.190625 375.145312 92.190625 
z
" style="fill: #ffffff; opacity: 0.8; stroke: #cccccc; stroke-linejoin: miter"/>
    </g>
    <g id="line2d_23">
     <path d="M 377.145312 23.898438 
L 387.145312 23.898438 
L 397.145312 23.898438 
" style="fill: none; stroke: #348abd; stroke-width: 1.5; stroke-linecap: square"/>
    </g>
    <g id="text_20">
     <!-- ssp119 -->
     <g transform="translate(405.145312 27.398438) scale(0.1 -0.1)">
      <defs>
       <path id="DejaVuSans-70" d="M 1159 525 
L 1159 -1331 
L 581 -1331 
L 581 3500 
L 1159 3500 
L 1159 2969 
Q 1341 3281 1617 3432 
Q 1894 3584 2278 3584 
Q 2916 3584 3314 3078 
Q 3713 2572 3713 1747 
Q 3713 922 3314 415 
Q 2916 -91 2278 -91 
Q 1894 -91 1617 61 
Q 1341 213 1159 525 
z
M 3116 1747 
Q 3116 2381 2855 2742 
Q 2594 3103 2138 3103 
Q 1681 3103 1420 2742 
Q 1159 2381 1159 1747 
Q 1159 1113 1420 752 
Q 1681 391 2138 391 
Q 2594 391 2855 752 
Q 3116 1113 3116 1747 
z
" transform="scale(0.015625)"/>
      </defs>
      <use xlink:href="#DejaVuSans-73"/>
      <use xlink:href="#DejaVuSans-73" x="52.099609"/>
      <use xlink:href="#DejaVuSans-70" x="104.199219"/>
      <use xlink:href="#DejaVuSans-31" x="167.675781"/>
      <use xlink:href="#DejaVuSans-31" x="231.298828"/>
      <use xlink:href="#DejaVuSans-39" x="294.921875"/>
     </g>
    </g>
    <g id="line2d_24">
     <path d="M 377.145312 38.576563 
L 387.145312 38.576563 
L 397.145312 38.576563 
" style="fill: none; stroke: #188487; stroke-width: 1.5; stroke-linecap: square"/>
    </g>
    <g id="text_21">
     <!-- ssp245 -->
     <g transform="translate(405.145312 42.076563) scale(0.1 -0.1)">
      <use xlink:href="#DejaVuSans-73"/>
      <use xlink:href="#DejaVuSans-73" x="52.099609"/>
      <use xlink:href="#DejaVuSans-70" x="104.199219"/>
      <use xlink:href="#DejaVuSans-32" x="167.675781"/>
      <use xlink:href="#DejaVuSans-34" x="231.298828"/>
      <use xlink:href="#DejaVuSans-35" x="294.921875"/>
     </g>
    </g>
    <g id="line2d_25">
     <path d="M 377.145312 53.254688 
L 387.145312 53.254688 
L 397.145312 53.254688 
" style="fill: none; stroke: #e24a33; stroke-width: 1.5; stroke-linecap: square"/>
    </g>
    <g id="text_22">
     <!-- ssp370 -->
     <g transform="translate(405.145312 56.754688) scale(0.1 -0.1)">
      <use xlink:href="#DejaVuSans-73"/>
      <use xlink:href="#DejaVuSans-73" x="52.099609"/>
      <use xlink:href="#DejaVuSans-70" x="104.199219"/>
      <use xlink:href="#DejaVuSans-33" x="167.675781"/>
      <use xlink:href="#DejaVuSans-37" x="231.298828"/>
      <use xlink:href="#DejaVuSans-30" x="294.921875"/>
     </g>
    </g>
    <g id="line2d_26">
     <path d="M 377.145312 67.932813 
L 387.145312 67.932813 
L 397.145312 67.932813 
" style="fill: none; stroke: #7a68a6; stroke-width: 1.5; stroke-linecap: square"/>
    </g>
    <g id="text_23">
     <!-- ssp460 -->
     <g transform="translate(405.145312 71.432813) scale(0.1 -0.1)">
      <use xlink:href="#DejaVuSans-73"/>
      <use xlink:href="#DejaVuSans-73" x="52.099609"/>
      <use xlink:href="#DejaVuSans-70" x="104.199219"/>
      <use xlink:href="#DejaVuSans-34" x="167.675781"/>
      <use xlink:href="#DejaVuSans-36" x="231.298828"/>
      <use xlink:href="#DejaVuSans-30" x="294.921875"/>
     </g>
    </g>
    <g id="line2d_27">
     <path d="M 377.145312 82.610938 
L 387.145312 82.610938 
L 397.145312 82.610938 
" style="fill: none; stroke: #a60628; stroke-width: 1.5; stroke-linecap: square"/>
    </g>
    <g id="text_24">
     <!-- ssp585 -->
     <g transform="translate(405.145312 86.110938) scale(0.1 -0.1)">
      <use xlink:href="#DejaVuSans-73"/>
      <use xlink:href="#DejaVuSans-73" x="52.099609"/>
      <use xlink:href="#DejaVuSans-70" x="104.199219"/>
      <use xlink:href="#DejaVuSans-35" x="167.675781"/>
      <use xlink:href="#DejaVuSans-38" x="231.298828"/>
      <use xlink:href="#DejaVuSans-35" x="294.921875"/>
     </g>
    </g>
   </g>
  </g>
 </g>
 <defs>
  <clipPath id="pc658d6ed8e">
   <rect x="50.565625" y="10.8" width="399.434375" height="293.64375"/>
  </clipPath>
 </defs>
</svg>
