<?xml version="1.0" encoding="utf-8" standalone="no"?>
<!DOCTYPE svg PUBLIC "-//W3C//DTD SVG 1.1//EN"
  "http://www.w3.org/Graphics/SVG/1.1/DTD/svg11.dtd">
<svg xmlns:xlink="http://www.w3.org/1999/xlink" width="460.8pt" height="345.6pt" viewBox="0 0 460.8 345.6" xmlns="http://www.w3.org/2000/svg" version="1.1">
 <metadata>
  <rdf:RDF xmlns:dc="http://purl.org/dc/elements/1.1/" xmlns:cc="http://creativecommons.org/ns#" xmlns:rdf="http://www.w3.org/1999/02/22-rdf-syntax-ns#">
   <cc:Work>
    <dc:type rdf:resource="http://purl.org/dc/dcmitype/StillImage"/>
    <dc:date>2024-10-10T14:52:18.868320</dc:date>
    <dc:format>image/svg+xml</dc:format>
    <dc:creator>
     <cc:Agent>
      <dc:title>Matplotlib v3.9.0, https://matplotlib.org/</dc:title>
     </cc:Agent>
    </dc:creator>
   </cc:Work>
  </rdf:RDF>
 </metadata>
 <defs>
  <style type="text/css">*{stroke-linejoin: round; stroke-linecap: butt}</style>
 </defs>
 <g id="figure_1">
  <g id="patch_1">
   <path d="M 0 345.6 
L 460.8 345.6 
L 460.8 0 
L 0 0 
z
" style="fill: #ffffff"/>
  </g>
  <g id="axes_1">
   <g id="patch_2">
    <path d="M 54.245 303.64 
L 450 303.64 
L 450 10.8 
L 54.245 10.8 
z
" style="fill: #ffffff"/>
   </g>
   <g id="PolyCollection_1">
    <path d="M 230.93801 226.77597 
L 230.93801 269.34783 
L 231.656128 279.668735 
L 232.374247 282.914647 
L 233.092365 285.095451 
L 233.810483 286.473162 
L 234.528601 286.978958 
L 235.24672 287.024436 
L 235.964838 288.177508 
L 236.682956 288.426671 
L 237.401075 288.880033 
L 238.119193 289.312442 
L 238.837311 289.678656 
L 239.55543 290.329091 
L 240.273548 290.329091 
L 240.991666 290.329091 
L 241.709785 290.329091 
L 242.427903 290.329091 
L 243.146021 290.329091 
L 243.864139 290.329091 
L 244.582258 290.329091 
L 245.300376 290.329091 
L 246.018494 290.329091 
L 246.736613 290.329091 
L 247.454731 290.329091 
L 248.172849 290.329091 
L 248.890968 290.329091 
L 249.609086 290.329091 
L 250.327204 290.329091 
L 251.045323 290.329091 
L 251.763441 290.329091 
L 252.481559 290.329091 
L 253.199677 290.329091 
L 253.917796 290.329091 
L 254.635914 290.329091 
L 255.354032 290.329091 
L 256.072151 290.329091 
L 256.790269 290.329091 
L 257.508387 290.329091 
L 258.226506 290.329091 
L 258.944624 290.329091 
L 259.662742 290.329091 
L 260.380861 290.329091 
L 261.098979 290.329091 
L 261.817097 290.329091 
L 262.535215 290.329091 
L 263.253334 290.329091 
L 263.971452 290.329091 
L 264.68957 290.329091 
L 265.407689 290.329091 
L 266.125807 290.329091 
L 266.843925 290.329091 
L 267.562044 290.329091 
L 268.280162 290.329091 
L 268.99828 290.329091 
L 269.716399 290.329091 
L 270.434517 290.329091 
L 271.152635 290.329091 
L 271.870753 290.329091 
L 272.588872 290.329091 
L 273.30699 290.329091 
L 274.025108 290.329091 
L 274.743227 290.329091 
L 275.461345 290.329091 
L 276.179463 290.329091 
L 276.897582 290.329091 
L 277.6157 290.329091 
L 278.333818 290.329091 
L 279.051937 290.329091 
L 279.770055 290.329091 
L 280.488173 290.329091 
L 281.206292 290.329091 
L 281.92441 290.329091 
L 282.642528 290.329091 
L 283.360646 290.329091 
L 284.078765 290.329091 
L 284.796883 290.329091 
L 285.515001 290.329091 
L 286.23312 290.329091 
L 286.951238 290.329091 
L 287.669356 290.329091 
L 288.387475 290.329091 
L 289.105593 290.329091 
L 289.823711 290.329091 
L 290.54183 290.329091 
L 291.259948 290.329091 
L 291.978066 290.329091 
L 292.696184 290.329091 
L 293.414303 290.329091 
L 294.132421 290.329091 
L 294.850539 290.329091 
L 295.568658 290.329091 
L 296.286776 290.329091 
L 297.004894 290.329091 
L 297.723013 290.329091 
L 298.441131 290.329091 
L 299.159249 290.329091 
L 299.877368 290.329091 
L 300.595486 290.329091 
L 301.313604 290.329091 
L 302.031722 290.329091 
L 302.749841 290.329091 
L 303.467959 290.329091 
L 304.186077 290.329091 
L 304.904196 290.329091 
L 305.622314 290.329091 
L 306.340432 290.329091 
L 307.058551 290.329091 
L 307.776669 290.329091 
L 308.494787 290.329091 
L 309.212906 290.329091 
L 309.931024 290.329091 
L 310.649142 290.329091 
L 311.36726 290.329091 
L 312.085379 290.329091 
L 312.803497 290.329091 
L 313.521615 290.329091 
L 314.239734 290.329091 
L 314.957852 290.329091 
L 315.67597 290.329091 
L 316.394089 290.329091 
L 317.112207 290.329091 
L 317.830325 290.329091 
L 318.548444 290.329091 
L 319.266562 290.329091 
L 319.98468 290.329091 
L 320.702798 290.329091 
L 321.420917 290.329091 
L 322.139035 290.329091 
L 322.857153 290.329091 
L 323.575272 290.329091 
L 324.29339 290.329091 
L 325.011508 290.329091 
L 325.729627 290.329091 
L 326.447745 290.329091 
L 327.165863 290.329091 
L 327.883982 290.329091 
L 328.6021 290.329091 
L 329.320218 290.329091 
L 330.038337 290.329091 
L 330.756455 290.329091 
L 331.474573 290.329091 
L 332.192691 290.329091 
L 332.91081 290.329091 
L 333.628928 290.329091 
L 334.347046 290.329091 
L 335.065165 290.329091 
L 335.783283 290.329091 
L 336.501401 290.329091 
L 337.21952 290.329091 
L 337.937638 290.329091 
L 338.655756 290.329091 
L 339.373875 290.329091 
L 340.091993 290.329091 
L 340.810111 290.329091 
L 341.528229 290.329091 
L 342.246348 290.329091 
L 342.964466 290.329091 
L 343.682584 290.329091 
L 344.400703 290.329091 
L 345.118821 290.329091 
L 345.836939 290.329091 
L 346.555058 290.329091 
L 347.273176 290.329091 
L 347.991294 290.329091 
L 348.709413 290.329091 
L 349.427531 290.329091 
L 350.145649 290.329091 
L 350.863767 290.329091 
L 351.581886 290.329091 
L 352.300004 290.329091 
L 353.018122 290.329091 
L 353.736241 290.329091 
L 354.454359 290.329091 
L 355.172477 290.329091 
L 355.890596 290.329091 
L 356.608714 290.329091 
L 357.326832 290.329091 
L 358.044951 290.329091 
L 358.763069 290.329091 
L 359.481187 290.329091 
L 360.199305 290.329091 
L 360.917424 290.329091 
L 361.635542 290.329091 
L 362.35366 290.329091 
L 363.071779 290.329091 
L 363.789897 290.329091 
L 364.508015 290.329091 
L 365.226134 290.329091 
L 365.944252 290.329091 
L 366.66237 290.329091 
L 367.380489 290.329091 
L 368.098607 290.329091 
L 368.816725 290.329091 
L 369.534843 290.329091 
L 370.252962 290.329091 
L 370.97108 290.329091 
L 371.689198 290.329091 
L 372.407317 290.329091 
L 373.125435 290.329091 
L 373.843553 290.329091 
L 374.561672 290.329091 
L 375.27979 290.329091 
L 375.997908 290.329091 
L 376.716027 290.329091 
L 377.434145 290.329091 
L 378.152263 290.329091 
L 378.870382 290.329091 
L 379.5885 290.329091 
L 380.306618 290.329091 
L 381.024736 290.329091 
L 381.742855 290.329091 
L 382.460973 290.329091 
L 383.179091 290.329091 
L 383.89721 290.329091 
L 384.615328 290.329091 
L 385.333446 290.329091 
L 386.051565 290.329091 
L 386.769683 290.329091 
L 387.487801 290.329091 
L 388.20592 290.329091 
L 388.924038 290.329091 
L 389.642156 290.329091 
L 390.360274 290.329091 
L 391.078393 290.329091 
L 391.796511 290.329091 
L 392.514629 290.329091 
L 393.232748 290.329091 
L 393.950866 290.329091 
L 394.668984 290.329091 
L 395.387103 290.329091 
L 396.105221 290.329091 
L 396.823339 290.329091 
L 397.541458 290.329091 
L 398.259576 290.329091 
L 398.977694 290.329091 
L 399.695812 290.329091 
L 400.413931 290.329091 
L 401.132049 290.329091 
L 401.850167 290.329091 
L 402.568286 290.329091 
L 403.286404 290.329091 
L 404.004522 290.329091 
L 404.722641 290.329091 
L 405.440759 290.329091 
L 406.158877 290.329091 
L 406.876996 290.329091 
L 407.595114 290.329091 
L 408.313232 290.329091 
L 409.03135 290.329091 
L 409.749469 290.329091 
L 410.467587 290.329091 
L 411.185705 290.329091 
L 411.903824 290.329091 
L 412.621942 290.329091 
L 413.34006 290.329091 
L 414.058179 290.329091 
L 414.776297 290.329091 
L 415.494415 290.329091 
L 416.212534 290.329091 
L 416.930652 290.329091 
L 417.64877 290.329091 
L 418.366888 290.329091 
L 419.085007 290.329091 
L 419.803125 290.329091 
L 420.521243 290.329091 
L 421.239362 290.329091 
L 421.95748 290.329091 
L 422.675598 290.329091 
L 423.393717 290.329091 
L 424.111835 290.329091 
L 424.829953 290.329091 
L 425.548072 290.329091 
L 426.26619 290.329091 
L 426.984308 290.329091 
L 427.702427 290.329091 
L 428.420545 290.329091 
L 429.138663 290.329091 
L 429.856781 290.329091 
L 430.5749 290.329091 
L 431.293018 290.329091 
L 432.011136 290.329091 
L 432.011136 153.839439 
L 432.011136 153.839439 
L 431.293018 154.070038 
L 430.5749 153.666817 
L 429.856781 154.54434 
L 429.138663 153.591106 
L 428.420545 153.546457 
L 427.702427 153.944182 
L 426.984308 154.660275 
L 426.26619 155.374559 
L 425.548072 155.639962 
L 424.829953 155.166885 
L 424.111835 155.826209 
L 423.393717 155.063637 
L 422.675598 155.283091 
L 421.95748 155.318181 
L 421.239362 155.795068 
L 420.521243 155.278014 
L 419.803125 156.118015 
L 419.085007 155.700998 
L 418.366888 155.827926 
L 417.64877 155.076841 
L 416.930652 155.742944 
L 416.212534 156.157309 
L 415.494415 156.076957 
L 414.776297 155.770759 
L 414.058179 156.077114 
L 413.34006 157.14315 
L 412.621942 157.850537 
L 411.903824 157.743656 
L 411.185705 157.951964 
L 410.467587 158.204781 
L 409.749469 158.200938 
L 409.03135 157.864297 
L 408.313232 158.330794 
L 407.595114 158.681622 
L 406.876996 158.983641 
L 406.158877 158.079114 
L 405.440759 159.410791 
L 404.722641 159.614639 
L 404.004522 159.359494 
L 403.286404 158.981438 
L 402.568286 159.456696 
L 401.850167 159.375207 
L 401.132049 159.101976 
L 400.413931 159.994801 
L 399.695812 160.318146 
L 398.977694 159.557672 
L 398.259576 160.130054 
L 397.541458 159.73136 
L 396.823339 160.283615 
L 396.105221 160.931352 
L 395.387103 160.616668 
L 394.668984 160.780178 
L 393.950866 161.156968 
L 393.232748 161.355369 
L 392.514629 160.840402 
L 391.796511 160.761228 
L 391.078393 161.374694 
L 390.360274 161.470784 
L 389.642156 161.977439 
L 388.924038 161.692679 
L 388.20592 161.856702 
L 387.487801 160.906438 
L 386.769683 161.768213 
L 386.051565 162.594222 
L 385.333446 160.849202 
L 384.615328 162.245752 
L 383.89721 161.77892 
L 383.179091 162.588748 
L 382.460973 162.832238 
L 381.742855 162.589468 
L 381.024736 163.614467 
L 380.306618 163.365861 
L 379.5885 162.867166 
L 378.870382 163.906939 
L 378.152263 163.599123 
L 377.434145 163.359642 
L 376.716027 162.85808 
L 375.997908 163.422143 
L 375.27979 163.736382 
L 374.561672 163.543451 
L 373.843553 164.029239 
L 373.125435 164.811783 
L 372.407317 164.787914 
L 371.689198 165.084209 
L 370.97108 164.516133 
L 370.252962 164.83844 
L 369.534843 165.903023 
L 368.816725 165.842552 
L 368.098607 165.712944 
L 367.380489 166.230242 
L 366.66237 166.72757 
L 365.944252 166.62222 
L 365.226134 166.565012 
L 364.508015 166.612391 
L 363.789897 166.52381 
L 363.071779 167.216568 
L 362.35366 166.961309 
L 361.635542 167.08631 
L 360.917424 166.918006 
L 360.199305 167.336033 
L 359.481187 167.374428 
L 358.763069 167.24014 
L 358.044951 167.871233 
L 357.326832 168.132419 
L 356.608714 168.348328 
L 355.890596 168.341682 
L 355.172477 169.047923 
L 354.454359 168.627663 
L 353.736241 168.651749 
L 353.018122 169.667428 
L 352.300004 169.932316 
L 351.581886 170.156497 
L 350.863767 170.557706 
L 350.145649 170.575975 
L 349.427531 170.248218 
L 348.709413 170.277891 
L 347.991294 170.833531 
L 347.273176 170.816429 
L 346.555058 171.179183 
L 345.836939 171.406982 
L 345.118821 171.99743 
L 344.400703 171.95601 
L 343.682584 171.617897 
L 342.964466 172.002044 
L 342.246348 171.906318 
L 341.528229 171.589234 
L 340.810111 172.238659 
L 340.091993 172.287237 
L 339.373875 172.861346 
L 338.655756 172.81527 
L 337.937638 173.909387 
L 337.21952 173.047035 
L 336.501401 173.79379 
L 335.783283 173.824135 
L 335.065165 174.238848 
L 334.347046 174.469594 
L 333.628928 174.93085 
L 332.91081 175.061489 
L 332.192691 175.286807 
L 331.474573 176.009179 
L 330.756455 175.655309 
L 330.038337 175.950544 
L 329.320218 175.422015 
L 328.6021 175.370192 
L 327.883982 176.096036 
L 327.165863 176.109592 
L 326.447745 176.543593 
L 325.729627 176.839265 
L 325.011508 176.624387 
L 324.29339 177.263798 
L 323.575272 177.036437 
L 322.857153 177.273716 
L 322.139035 177.447579 
L 321.420917 177.466104 
L 320.702798 177.707218 
L 319.98468 178.09508 
L 319.266562 177.948984 
L 318.548444 178.302021 
L 317.830325 178.121018 
L 317.112207 178.487643 
L 316.394089 178.963238 
L 315.67597 178.288421 
L 314.957852 178.540027 
L 314.239734 179.32058 
L 313.521615 179.577636 
L 312.803497 180.11594 
L 312.085379 180.403673 
L 311.36726 180.3784 
L 310.649142 180.005812 
L 309.931024 180.536437 
L 309.212906 180.898614 
L 308.494787 180.68728 
L 307.776669 181.067763 
L 307.058551 180.968258 
L 306.340432 182.003735 
L 305.622314 182.035561 
L 304.904196 181.881647 
L 304.186077 181.838641 
L 303.467959 182.765019 
L 302.749841 182.979849 
L 302.031722 182.649616 
L 301.313604 183.022143 
L 300.595486 183.540397 
L 299.877368 183.635452 
L 299.159249 183.402344 
L 298.441131 183.885329 
L 297.723013 184.133456 
L 297.004894 183.912169 
L 296.286776 184.507816 
L 295.568658 184.124787 
L 294.850539 184.380583 
L 294.132421 184.419141 
L 293.414303 184.218446 
L 292.696184 184.933527 
L 291.978066 185.593229 
L 291.259948 185.291341 
L 290.54183 185.40451 
L 289.823711 185.979265 
L 289.105593 186.165071 
L 288.387475 186.934101 
L 287.669356 186.579249 
L 286.951238 186.844248 
L 286.23312 187.010957 
L 285.515001 187.938515 
L 284.796883 187.831879 
L 284.078765 187.796795 
L 283.360646 187.747018 
L 282.642528 188.709148 
L 281.92441 188.891805 
L 281.206292 188.772964 
L 280.488173 189.091252 
L 279.770055 189.719852 
L 279.051937 190.541156 
L 278.333818 190.291532 
L 277.6157 190.43661 
L 276.897582 191.293801 
L 276.179463 190.944696 
L 275.461345 191.383571 
L 274.743227 191.265886 
L 274.025108 191.54244 
L 273.30699 191.769063 
L 272.588872 192.215324 
L 271.870753 192.537034 
L 271.152635 192.660603 
L 270.434517 192.275159 
L 269.716399 193.030191 
L 268.99828 192.732565 
L 268.280162 193.064422 
L 267.562044 194.36515 
L 266.843925 193.695037 
L 266.125807 194.103085 
L 265.407689 194.580155 
L 264.68957 194.875202 
L 263.971452 194.736071 
L 263.253334 194.714606 
L 262.535215 194.944805 
L 261.817097 195.581305 
L 261.098979 196.359114 
L 260.380861 196.821555 
L 259.662742 197.0243 
L 258.944624 196.571515 
L 258.226506 196.876137 
L 257.508387 197.462433 
L 256.790269 198.419869 
L 256.072151 197.91671 
L 255.354032 198.87327 
L 254.635914 199.663218 
L 253.917796 199.530879 
L 253.199677 199.389653 
L 252.481559 199.687049 
L 251.763441 200.51575 
L 251.045323 200.54998 
L 250.327204 200.269156 
L 249.609086 201.117427 
L 248.890968 200.673371 
L 248.172849 201.291475 
L 247.454731 201.922975 
L 246.736613 202.104967 
L 246.018494 203.120074 
L 245.300376 202.888608 
L 244.582258 203.206267 
L 243.864139 203.371653 
L 243.146021 204.252785 
L 242.427903 204.909832 
L 241.709785 204.862597 
L 240.991666 204.889801 
L 240.273548 205.487572 
L 239.55543 205.975176 
L 238.837311 206.93597 
L 238.119193 206.598809 
L 237.401075 206.605621 
L 236.682956 207.463597 
L 235.964838 207.806265 
L 235.24672 207.986966 
L 234.528601 208.954704 
L 233.810483 209.571904 
L 233.092365 210.634812 
L 232.374247 212.049193 
L 231.656128 215.492155 
L 230.93801 226.77597 
z
" clip-path="url(#p10c3e6b4ee)" style="fill: #808080; fill-opacity: 0.2"/>
   </g>
   <g id="PolyCollection_2">
    <path d="M 230.93801 237.672686 
L 230.93801 261.479825 
L 231.656128 266.625195 
L 232.374247 268.600252 
L 233.092365 270.039234 
L 233.810483 270.927505 
L 234.528601 271.138271 
L 235.24672 270.992719 
L 235.964838 271.977233 
L 236.682956 272.000935 
L 237.401075 272.107343 
L 238.119193 272.24037 
L 238.837311 272.863315 
L 239.55543 272.67381 
L 240.273548 273.209655 
L 240.991666 272.985263 
L 241.709785 273.777433 
L 242.427903 273.40636 
L 243.146021 273.821435 
L 243.864139 274.239213 
L 244.582258 274.32748 
L 245.300376 274.383213 
L 246.018494 274.405819 
L 246.736613 274.404085 
L 247.454731 274.693637 
L 248.172849 275.024538 
L 248.890968 275.399722 
L 249.609086 275.20935 
L 250.327204 275.578669 
L 251.045323 275.36224 
L 251.763441 275.484999 
L 252.481559 275.551402 
L 253.199677 276.339177 
L 253.917796 276.166918 
L 254.635914 276.467031 
L 255.354032 276.394251 
L 256.072151 276.074049 
L 256.790269 276.89349 
L 257.508387 276.917128 
L 258.226506 276.54254 
L 258.944624 276.79333 
L 259.662742 277.081696 
L 260.380861 277.260538 
L 261.098979 278.122005 
L 261.817097 277.606255 
L 262.535215 277.395806 
L 263.253334 277.675786 
L 263.971452 277.84777 
L 264.68957 277.852188 
L 265.407689 278.072194 
L 266.125807 278.249067 
L 266.843925 278.329369 
L 267.562044 278.864639 
L 268.280162 278.177679 
L 268.99828 279.061017 
L 269.716399 278.788327 
L 270.434517 279.33464 
L 271.152635 278.896417 
L 271.870753 279.237535 
L 272.588872 279.831154 
L 273.30699 279.92731 
L 274.025108 279.503569 
L 274.743227 279.89094 
L 275.461345 279.882163 
L 276.179463 280.374072 
L 276.897582 280.332117 
L 277.6157 280.392068 
L 278.333818 280.45152 
L 279.051937 280.339051 
L 279.770055 280.398114 
L 280.488173 281.05679 
L 281.206292 280.596079 
L 281.92441 280.867535 
L 282.642528 280.980492 
L 283.360646 280.720474 
L 284.078765 281.465948 
L 284.796883 281.784949 
L 285.515001 281.301426 
L 286.23312 281.697216 
L 286.951238 281.465897 
L 287.669356 281.38667 
L 288.387475 281.352728 
L 289.105593 282.018425 
L 289.823711 281.938935 
L 290.54183 282.010231 
L 291.259948 282.452257 
L 291.978066 281.957364 
L 292.696184 282.38526 
L 293.414303 282.531401 
L 294.132421 282.807812 
L 294.850539 282.563648 
L 295.568658 282.443487 
L 296.286776 282.535859 
L 297.004894 282.828659 
L 297.723013 283.242786 
L 298.441131 283.484896 
L 299.159249 283.449366 
L 299.877368 283.867484 
L 300.595486 284.26478 
L 301.313604 284.29737 
L 302.031722 284.53414 
L 302.749841 284.285161 
L 303.467959 284.013998 
L 304.186077 284.442941 
L 304.904196 284.588235 
L 305.622314 284.892436 
L 306.340432 284.551635 
L 307.058551 285.20608 
L 307.776669 284.97806 
L 308.494787 284.561303 
L 309.212906 284.805244 
L 309.931024 285.185263 
L 310.649142 285.434821 
L 311.36726 285.156981 
L 312.085379 285.799011 
L 312.803497 285.947413 
L 313.521615 286.544561 
L 314.239734 286.333997 
L 314.957852 285.791953 
L 315.67597 285.92335 
L 316.394089 285.189605 
L 317.112207 285.736425 
L 317.830325 286.578288 
L 318.548444 286.642487 
L 319.266562 286.225083 
L 319.98468 287.087816 
L 320.702798 286.399173 
L 321.420917 286.689135 
L 322.139035 286.660619 
L 322.857153 286.937388 
L 323.575272 286.663449 
L 324.29339 287.525053 
L 325.011508 286.996742 
L 325.729627 287.77843 
L 326.447745 287.538129 
L 327.165863 287.704186 
L 327.883982 287.441193 
L 328.6021 287.655997 
L 329.320218 288.095284 
L 330.038337 287.909215 
L 330.756455 288.278601 
L 331.474573 288.31629 
L 332.192691 287.8988 
L 332.91081 288.862702 
L 333.628928 288.268093 
L 334.347046 288.770609 
L 335.065165 288.669787 
L 335.783283 288.142688 
L 336.501401 288.77097 
L 337.21952 288.74865 
L 337.937638 289.335154 
L 338.655756 289.416238 
L 339.373875 288.94908 
L 340.091993 289.151304 
L 340.810111 288.93391 
L 341.528229 288.373985 
L 342.246348 289.034447 
L 342.964466 289.663167 
L 343.682584 289.096946 
L 344.400703 290.19534 
L 345.118821 289.833828 
L 345.836939 289.381602 
L 346.555058 290.025436 
L 347.273176 289.283141 
L 347.991294 289.860227 
L 348.709413 290.32317 
L 349.427531 290.329091 
L 350.145649 290.329091 
L 350.863767 290.329091 
L 351.581886 290.329091 
L 352.300004 290.329091 
L 353.018122 290.329091 
L 353.736241 290.329091 
L 354.454359 290.329091 
L 355.172477 290.329091 
L 355.890596 290.329091 
L 356.608714 290.329091 
L 357.326832 290.329091 
L 358.044951 290.329091 
L 358.763069 290.329091 
L 359.481187 290.329091 
L 360.199305 290.329091 
L 360.917424 290.329091 
L 361.635542 290.329091 
L 362.35366 290.329091 
L 363.071779 290.329091 
L 363.789897 290.329091 
L 364.508015 290.329091 
L 365.226134 290.329091 
L 365.944252 290.329091 
L 366.66237 290.329091 
L 367.380489 290.329091 
L 368.098607 290.329091 
L 368.816725 290.329091 
L 369.534843 290.329091 
L 370.252962 290.329091 
L 370.97108 290.329091 
L 371.689198 290.329091 
L 372.407317 290.329091 
L 373.125435 290.329091 
L 373.843553 290.329091 
L 374.561672 290.329091 
L 375.27979 290.329091 
L 375.997908 290.329091 
L 376.716027 290.329091 
L 377.434145 290.329091 
L 378.152263 290.329091 
L 378.870382 290.329091 
L 379.5885 290.329091 
L 380.306618 290.329091 
L 381.024736 290.329091 
L 381.742855 290.329091 
L 382.460973 290.329091 
L 383.179091 290.329091 
L 383.89721 290.329091 
L 384.615328 290.329091 
L 385.333446 290.329091 
L 386.051565 290.329091 
L 386.769683 290.329091 
L 387.487801 290.329091 
L 388.20592 290.329091 
L 388.924038 290.329091 
L 389.642156 290.329091 
L 390.360274 290.329091 
L 391.078393 290.329091 
L 391.796511 290.329091 
L 392.514629 290.329091 
L 393.232748 290.329091 
L 393.950866 290.329091 
L 394.668984 290.329091 
L 395.387103 290.329091 
L 396.105221 290.329091 
L 396.823339 290.329091 
L 397.541458 290.329091 
L 398.259576 290.329091 
L 398.977694 290.329091 
L 399.695812 290.329091 
L 400.413931 290.329091 
L 401.132049 290.329091 
L 401.850167 290.329091 
L 402.568286 290.329091 
L 403.286404 290.329091 
L 404.004522 290.329091 
L 404.722641 290.329091 
L 405.440759 290.329091 
L 406.158877 290.329091 
L 406.876996 290.329091 
L 407.595114 290.329091 
L 408.313232 290.329091 
L 409.03135 290.329091 
L 409.749469 290.329091 
L 410.467587 290.329091 
L 411.185705 290.329091 
L 411.903824 290.329091 
L 412.621942 290.329091 
L 413.34006 290.329091 
L 414.058179 290.329091 
L 414.776297 290.329091 
L 415.494415 290.329091 
L 416.212534 290.329091 
L 416.930652 290.329091 
L 417.64877 290.329091 
L 418.366888 290.329091 
L 419.085007 290.329091 
L 419.803125 290.329091 
L 420.521243 290.329091 
L 421.239362 290.329091 
L 421.95748 290.329091 
L 422.675598 290.329091 
L 423.393717 290.329091 
L 424.111835 290.329091 
L 424.829953 290.329091 
L 425.548072 290.329091 
L 426.26619 290.329091 
L 426.984308 290.329091 
L 427.702427 290.329091 
L 428.420545 290.329091 
L 429.138663 290.329091 
L 429.856781 290.329091 
L 430.5749 290.329091 
L 431.293018 290.329091 
L 432.011136 290.329091 
L 432.011136 193.765473 
L 432.011136 193.765473 
L 431.293018 194.081382 
L 430.5749 193.869072 
L 429.856781 193.622969 
L 429.138663 193.850897 
L 428.420545 193.121389 
L 427.702427 193.605639 
L 426.984308 193.948008 
L 426.26619 193.989958 
L 425.548072 194.739252 
L 424.829953 194.729177 
L 424.111835 194.573344 
L 423.393717 194.575383 
L 422.675598 194.621119 
L 421.95748 194.824513 
L 421.239362 194.446635 
L 420.521243 194.248301 
L 419.803125 194.671432 
L 419.085007 194.98531 
L 418.366888 194.831638 
L 417.64877 194.20319 
L 416.930652 193.681778 
L 416.212534 195.091441 
L 415.494415 195.003635 
L 414.776297 194.469188 
L 414.058179 195.280658 
L 413.34006 196.097608 
L 412.621942 195.602112 
L 411.903824 195.926159 
L 411.185705 195.523284 
L 410.467587 196.714636 
L 409.749469 195.942854 
L 409.03135 196.20757 
L 408.313232 197.222162 
L 407.595114 197.189794 
L 406.876996 196.835314 
L 406.158877 196.287385 
L 405.440759 196.977339 
L 404.722641 197.125121 
L 404.004522 197.12445 
L 403.286404 196.802947 
L 402.568286 197.972327 
L 401.850167 197.180057 
L 401.132049 197.08878 
L 400.413931 197.124919 
L 399.695812 197.914871 
L 398.977694 197.173864 
L 398.259576 197.66031 
L 397.541458 196.97495 
L 396.823339 197.133607 
L 396.105221 198.329283 
L 395.387103 197.735622 
L 394.668984 197.323533 
L 393.950866 197.634552 
L 393.232748 197.900285 
L 392.514629 197.907541 
L 391.796511 197.932049 
L 391.078393 197.556121 
L 390.360274 197.926589 
L 389.642156 198.073433 
L 388.924038 197.633399 
L 388.20592 198.280301 
L 387.487801 197.66893 
L 386.769683 197.702744 
L 386.051565 198.317817 
L 385.333446 198.009585 
L 384.615328 197.903909 
L 383.89721 198.606301 
L 383.179091 198.703628 
L 382.460973 198.473334 
L 381.742855 198.859087 
L 381.024736 199.047025 
L 380.306618 199.407577 
L 379.5885 199.548672 
L 378.870382 199.714835 
L 378.152263 199.044079 
L 377.434145 198.606732 
L 376.716027 198.95619 
L 375.997908 199.031961 
L 375.27979 199.882722 
L 374.561672 199.715949 
L 373.843553 199.965579 
L 373.125435 200.409199 
L 372.407317 200.127276 
L 371.689198 200.297908 
L 370.97108 200.40557 
L 370.252962 200.547126 
L 369.534843 200.297574 
L 368.816725 201.116595 
L 368.098607 200.961865 
L 367.380489 200.860842 
L 366.66237 200.684645 
L 365.944252 201.495553 
L 365.226134 201.458474 
L 364.508015 201.935421 
L 363.789897 201.569267 
L 363.071779 201.632765 
L 362.35366 202.185215 
L 361.635542 201.640674 
L 360.917424 202.235032 
L 360.199305 201.852906 
L 359.481187 202.201663 
L 358.763069 202.173003 
L 358.044951 202.324763 
L 357.326832 202.758528 
L 356.608714 202.238685 
L 355.890596 202.217538 
L 355.172477 202.600564 
L 354.454359 202.474456 
L 353.736241 202.706366 
L 353.018122 203.248716 
L 352.300004 202.876553 
L 351.581886 203.014097 
L 350.863767 203.354238 
L 350.145649 204.03853 
L 349.427531 203.54787 
L 348.709413 203.392902 
L 347.991294 203.863723 
L 347.273176 203.725002 
L 346.555058 204.253515 
L 345.836939 203.7869 
L 345.118821 204.707153 
L 344.400703 204.759981 
L 343.682584 204.179769 
L 342.964466 204.596835 
L 342.246348 204.217858 
L 341.528229 204.356366 
L 340.810111 204.75914 
L 340.091993 204.734347 
L 339.373875 204.660651 
L 338.655756 204.667121 
L 337.937638 205.407655 
L 337.21952 205.333957 
L 336.501401 205.459539 
L 335.783283 205.709925 
L 335.065165 205.663206 
L 334.347046 205.99408 
L 333.628928 205.172086 
L 332.91081 206.433931 
L 332.192691 206.216473 
L 331.474573 206.719392 
L 330.756455 206.390485 
L 330.038337 206.612933 
L 329.320218 206.737852 
L 328.6021 206.790681 
L 327.883982 206.98922 
L 327.165863 206.729398 
L 326.447745 207.309666 
L 325.729627 207.218713 
L 325.011508 208.071534 
L 324.29339 208.29837 
L 323.575272 207.911251 
L 322.857153 207.736995 
L 322.139035 208.017433 
L 321.420917 207.013611 
L 320.702798 207.621963 
L 319.98468 208.429828 
L 319.266562 208.538134 
L 318.548444 208.387564 
L 317.830325 208.119928 
L 317.112207 207.935511 
L 316.394089 208.324853 
L 315.67597 208.537366 
L 314.957852 208.581026 
L 314.239734 209.070688 
L 313.521615 209.194104 
L 312.803497 209.485239 
L 312.085379 209.73325 
L 311.36726 209.597222 
L 310.649142 209.066191 
L 309.931024 209.867299 
L 309.212906 209.959625 
L 308.494787 210.027851 
L 307.776669 209.783836 
L 307.058551 209.884966 
L 306.340432 210.487097 
L 305.622314 210.715663 
L 304.904196 210.27551 
L 304.186077 210.319192 
L 303.467959 210.961728 
L 302.749841 211.572695 
L 302.031722 211.439074 
L 301.313604 211.174106 
L 300.595486 211.712782 
L 299.877368 211.445227 
L 299.159249 211.613424 
L 298.441131 212.176755 
L 297.723013 211.604699 
L 297.004894 211.533367 
L 296.286776 211.883629 
L 295.568658 211.33839 
L 294.850539 211.746701 
L 294.132421 212.103307 
L 293.414303 211.522376 
L 292.696184 212.604453 
L 291.978066 212.597445 
L 291.259948 212.673728 
L 290.54183 212.987954 
L 289.823711 213.053888 
L 289.105593 212.891679 
L 288.387475 213.007851 
L 287.669356 213.354263 
L 286.951238 213.408146 
L 286.23312 213.893786 
L 285.515001 213.711477 
L 284.796883 213.692428 
L 284.078765 213.705721 
L 283.360646 214.120369 
L 282.642528 214.186821 
L 281.92441 214.684531 
L 281.206292 214.351969 
L 280.488173 214.434996 
L 279.770055 215.362892 
L 279.051937 215.464466 
L 278.333818 215.365448 
L 277.6157 215.957771 
L 276.897582 216.205691 
L 276.179463 215.910071 
L 275.461345 216.150613 
L 274.743227 216.537448 
L 274.025108 216.385531 
L 273.30699 216.536068 
L 272.588872 217.126948 
L 271.870753 216.995545 
L 271.152635 217.183872 
L 270.434517 217.247622 
L 269.716399 217.079844 
L 268.99828 217.238031 
L 268.280162 217.4032 
L 267.562044 218.020747 
L 266.843925 217.586372 
L 266.125807 217.812104 
L 265.407689 217.751822 
L 264.68957 218.655369 
L 263.971452 218.061167 
L 263.253334 218.173879 
L 262.535215 218.974382 
L 261.817097 218.965413 
L 261.098979 219.528664 
L 260.380861 219.708915 
L 259.662742 220.105404 
L 258.944624 219.806795 
L 258.226506 219.813663 
L 257.508387 220.146513 
L 256.790269 221.002746 
L 256.072151 220.433639 
L 255.354032 220.779122 
L 254.635914 221.46373 
L 253.917796 221.40333 
L 253.199677 221.361931 
L 252.481559 220.991082 
L 251.763441 222.097185 
L 251.045323 222.359013 
L 250.327204 222.189232 
L 249.609086 222.054483 
L 248.890968 222.37377 
L 248.172849 222.816989 
L 247.454731 222.687629 
L 246.736613 223.072226 
L 246.018494 223.57413 
L 245.300376 223.348389 
L 244.582258 223.965913 
L 243.864139 223.94068 
L 243.146021 224.03168 
L 242.427903 224.785236 
L 241.709785 225.221349 
L 240.991666 224.755386 
L 240.273548 225.414902 
L 239.55543 225.623505 
L 238.837311 226.149076 
L 238.119193 226.097878 
L 237.401075 226.163629 
L 236.682956 226.161605 
L 235.964838 226.214547 
L 235.24672 226.529638 
L 234.528601 227.23353 
L 233.810483 227.958855 
L 233.092365 227.7793 
L 232.374247 228.670399 
L 231.656128 230.200242 
L 230.93801 237.672686 
z
" clip-path="url(#p10c3e6b4ee)" style="fill: #808080; fill-opacity: 0.4"/>
   </g>
   <g id="matplotlib.axis_1">
    <g id="xtick_1">
     <g id="line2d_1">
      <defs>
       <path id="md7ee7e4230" d="M 0 0 
L 0 3.5 
" style="stroke: #000000; stroke-width: 0.8"/>
      </defs>
      <g>
       <use xlink:href="#md7ee7e4230" x="73.6701" y="303.64" style="stroke: #000000; stroke-width: 0.8"/>
      </g>
     </g>
     <g id="text_1">
      <!-- 1800 -->
      <g transform="translate(60.9451 318.238437) scale(0.1 -0.1)">
       <defs>
        <path id="DejaVuSans-31" d="M 794 531 
L 1825 531 
L 1825 4091 
L 703 3866 
L 703 4441 
L 1819 4666 
L 2450 4666 
L 2450 531 
L 3481 531 
L 3481 0 
L 794 0 
L 794 531 
z
" transform="scale(0.015625)"/>
        <path id="DejaVuSans-38" d="M 2034 2216 
Q 1584 2216 1326 1975 
Q 1069 1734 1069 1313 
Q 1069 891 1326 650 
Q 1584 409 2034 409 
Q 2484 409 2743 651 
Q 3003 894 3003 1313 
Q 3003 1734 2745 1975 
Q 2488 2216 2034 2216 
z
M 1403 2484 
Q 997 2584 770 2862 
Q 544 3141 544 3541 
Q 544 4100 942 4425 
Q 1341 4750 2034 4750 
Q 2731 4750 3128 4425 
Q 3525 4100 3525 3541 
Q 3525 3141 3298 2862 
Q 3072 2584 2669 2484 
Q 3125 2378 3379 2068 
Q 3634 1759 3634 1313 
Q 3634 634 3220 271 
Q 2806 -91 2034 -91 
Q 1263 -91 848 271 
Q 434 634 434 1313 
Q 434 1759 690 2068 
Q 947 2378 1403 2484 
z
M 1172 3481 
Q 1172 3119 1398 2916 
Q 1625 2713 2034 2713 
Q 2441 2713 2670 2916 
Q 2900 3119 2900 3481 
Q 2900 3844 2670 4047 
Q 2441 4250 2034 4250 
Q 1625 4250 1398 4047 
Q 1172 3844 1172 3481 
z
" transform="scale(0.015625)"/>
        <path id="DejaVuSans-30" d="M 2034 4250 
Q 1547 4250 1301 3770 
Q 1056 3291 1056 2328 
Q 1056 1369 1301 889 
Q 1547 409 2034 409 
Q 2525 409 2770 889 
Q 3016 1369 3016 2328 
Q 3016 3291 2770 3770 
Q 2525 4250 2034 4250 
z
M 2034 4750 
Q 2819 4750 3233 4129 
Q 3647 3509 3647 2328 
Q 3647 1150 3233 529 
Q 2819 -91 2034 -91 
Q 1250 -91 836 529 
Q 422 1150 422 2328 
Q 422 3509 836 4129 
Q 1250 4750 2034 4750 
z
" transform="scale(0.015625)"/>
       </defs>
       <use xlink:href="#DejaVuSans-31"/>
       <use xlink:href="#DejaVuSans-38" x="63.623047"/>
       <use xlink:href="#DejaVuSans-30" x="127.246094"/>
       <use xlink:href="#DejaVuSans-30" x="190.869141"/>
      </g>
     </g>
    </g>
    <g id="xtick_2">
     <g id="line2d_2">
      <g>
       <use xlink:href="#md7ee7e4230" x="145.481931" y="303.64" style="stroke: #000000; stroke-width: 0.8"/>
      </g>
     </g>
     <g id="text_2">
      <!-- 1900 -->
      <g transform="translate(132.756931 318.238437) scale(0.1 -0.1)">
       <defs>
        <path id="DejaVuSans-39" d="M 703 97 
L 703 672 
Q 941 559 1184 500 
Q 1428 441 1663 441 
Q 2288 441 2617 861 
Q 2947 1281 2994 2138 
Q 2813 1869 2534 1725 
Q 2256 1581 1919 1581 
Q 1219 1581 811 2004 
Q 403 2428 403 3163 
Q 403 3881 828 4315 
Q 1253 4750 1959 4750 
Q 2769 4750 3195 4129 
Q 3622 3509 3622 2328 
Q 3622 1225 3098 567 
Q 2575 -91 1691 -91 
Q 1453 -91 1209 -44 
Q 966 3 703 97 
z
M 1959 2075 
Q 2384 2075 2632 2365 
Q 2881 2656 2881 3163 
Q 2881 3666 2632 3958 
Q 2384 4250 1959 4250 
Q 1534 4250 1286 3958 
Q 1038 3666 1038 3163 
Q 1038 2656 1286 2365 
Q 1534 2075 1959 2075 
z
" transform="scale(0.015625)"/>
       </defs>
       <use xlink:href="#DejaVuSans-31"/>
       <use xlink:href="#DejaVuSans-39" x="63.623047"/>
       <use xlink:href="#DejaVuSans-30" x="127.246094"/>
       <use xlink:href="#DejaVuSans-30" x="190.869141"/>
      </g>
     </g>
    </g>
    <g id="xtick_3">
     <g id="line2d_3">
      <g>
       <use xlink:href="#md7ee7e4230" x="217.293762" y="303.64" style="stroke: #000000; stroke-width: 0.8"/>
      </g>
     </g>
     <g id="text_3">
      <!-- 2000 -->
      <g transform="translate(204.568762 318.238437) scale(0.1 -0.1)">
       <defs>
        <path id="DejaVuSans-32" d="M 1228 531 
L 3431 531 
L 3431 0 
L 469 0 
L 469 531 
Q 828 903 1448 1529 
Q 2069 2156 2228 2338 
Q 2531 2678 2651 2914 
Q 2772 3150 2772 3378 
Q 2772 3750 2511 3984 
Q 2250 4219 1831 4219 
Q 1534 4219 1204 4116 
Q 875 4013 500 3803 
L 500 4441 
Q 881 4594 1212 4672 
Q 1544 4750 1819 4750 
Q 2544 4750 2975 4387 
Q 3406 4025 3406 3419 
Q 3406 3131 3298 2873 
Q 3191 2616 2906 2266 
Q 2828 2175 2409 1742 
Q 1991 1309 1228 531 
z
" transform="scale(0.015625)"/>
       </defs>
       <use xlink:href="#DejaVuSans-32"/>
       <use xlink:href="#DejaVuSans-30" x="63.623047"/>
       <use xlink:href="#DejaVuSans-30" x="127.246094"/>
       <use xlink:href="#DejaVuSans-30" x="190.869141"/>
      </g>
     </g>
    </g>
    <g id="xtick_4">
     <g id="line2d_4">
      <g>
       <use xlink:href="#md7ee7e4230" x="289.105593" y="303.64" style="stroke: #000000; stroke-width: 0.8"/>
      </g>
     </g>
     <g id="text_4">
      <!-- 2100 -->
      <g transform="translate(276.380593 318.238437) scale(0.1 -0.1)">
       <use xlink:href="#DejaVuSans-32"/>
       <use xlink:href="#DejaVuSans-31" x="63.623047"/>
       <use xlink:href="#DejaVuSans-30" x="127.246094"/>
       <use xlink:href="#DejaVuSans-30" x="190.869141"/>
      </g>
     </g>
    </g>
    <g id="xtick_5">
     <g id="line2d_5">
      <g>
       <use xlink:href="#md7ee7e4230" x="360.917424" y="303.64" style="stroke: #000000; stroke-width: 0.8"/>
      </g>
     </g>
     <g id="text_5">
      <!-- 2200 -->
      <g transform="translate(348.192424 318.238437) scale(0.1 -0.1)">
       <use xlink:href="#DejaVuSans-32"/>
       <use xlink:href="#DejaVuSans-32" x="63.623047"/>
       <use xlink:href="#DejaVuSans-30" x="127.246094"/>
       <use xlink:href="#DejaVuSans-30" x="190.869141"/>
      </g>
     </g>
    </g>
    <g id="xtick_6">
     <g id="line2d_6">
      <g>
       <use xlink:href="#md7ee7e4230" x="432.729255" y="303.64" style="stroke: #000000; stroke-width: 0.8"/>
      </g>
     </g>
     <g id="text_6">
      <!-- 2300 -->
      <g transform="translate(420.004255 318.238437) scale(0.1 -0.1)">
       <defs>
        <path id="DejaVuSans-33" d="M 2597 2516 
Q 3050 2419 3304 2112 
Q 3559 1806 3559 1356 
Q 3559 666 3084 287 
Q 2609 -91 1734 -91 
Q 1441 -91 1130 -33 
Q 819 25 488 141 
L 488 750 
Q 750 597 1062 519 
Q 1375 441 1716 441 
Q 2309 441 2620 675 
Q 2931 909 2931 1356 
Q 2931 1769 2642 2001 
Q 2353 2234 1838 2234 
L 1294 2234 
L 1294 2753 
L 1863 2753 
Q 2328 2753 2575 2939 
Q 2822 3125 2822 3475 
Q 2822 3834 2567 4026 
Q 2313 4219 1838 4219 
Q 1578 4219 1281 4162 
Q 984 4106 628 3988 
L 628 4550 
Q 988 4650 1302 4700 
Q 1616 4750 1894 4750 
Q 2613 4750 3031 4423 
Q 3450 4097 3450 3541 
Q 3450 3153 3228 2886 
Q 3006 2619 2597 2516 
z
" transform="scale(0.015625)"/>
       </defs>
       <use xlink:href="#DejaVuSans-32"/>
       <use xlink:href="#DejaVuSans-33" x="63.623047"/>
       <use xlink:href="#DejaVuSans-30" x="127.246094"/>
       <use xlink:href="#DejaVuSans-30" x="190.869141"/>
      </g>
     </g>
    </g>
    <g id="text_7">
     <!-- Year -->
     <g transform="translate(241.535 331.916562) scale(0.1 -0.1)">
      <defs>
       <path id="DejaVuSans-59" d="M -13 4666 
L 666 4666 
L 1959 2747 
L 3244 4666 
L 3922 4666 
L 2272 2222 
L 2272 0 
L 1638 0 
L 1638 2222 
L -13 4666 
z
" transform="scale(0.015625)"/>
       <path id="DejaVuSans-65" d="M 3597 1894 
L 3597 1613 
L 953 1613 
Q 991 1019 1311 708 
Q 1631 397 2203 397 
Q 2534 397 2845 478 
Q 3156 559 3463 722 
L 3463 178 
Q 3153 47 2828 -22 
Q 2503 -91 2169 -91 
Q 1331 -91 842 396 
Q 353 884 353 1716 
Q 353 2575 817 3079 
Q 1281 3584 2069 3584 
Q 2775 3584 3186 3129 
Q 3597 2675 3597 1894 
z
M 3022 2063 
Q 3016 2534 2758 2815 
Q 2500 3097 2075 3097 
Q 1594 3097 1305 2825 
Q 1016 2553 972 2059 
L 3022 2063 
z
" transform="scale(0.015625)"/>
       <path id="DejaVuSans-61" d="M 2194 1759 
Q 1497 1759 1228 1600 
Q 959 1441 959 1056 
Q 959 750 1161 570 
Q 1363 391 1709 391 
Q 2188 391 2477 730 
Q 2766 1069 2766 1631 
L 2766 1759 
L 2194 1759 
z
M 3341 1997 
L 3341 0 
L 2766 0 
L 2766 531 
Q 2569 213 2275 61 
Q 1981 -91 1556 -91 
Q 1019 -91 701 211 
Q 384 513 384 1019 
Q 384 1609 779 1909 
Q 1175 2209 1959 2209 
L 2766 2209 
L 2766 2266 
Q 2766 2663 2505 2880 
Q 2244 3097 1772 3097 
Q 1472 3097 1187 3025 
Q 903 2953 641 2809 
L 641 3341 
Q 956 3463 1253 3523 
Q 1550 3584 1831 3584 
Q 2591 3584 2966 3190 
Q 3341 2797 3341 1997 
z
" transform="scale(0.015625)"/>
       <path id="DejaVuSans-72" d="M 2631 2963 
Q 2534 3019 2420 3045 
Q 2306 3072 2169 3072 
Q 1681 3072 1420 2755 
Q 1159 2438 1159 1844 
L 1159 0 
L 581 0 
L 581 3500 
L 1159 3500 
L 1159 2956 
Q 1341 3275 1631 3429 
Q 1922 3584 2338 3584 
Q 2397 3584 2469 3576 
Q 2541 3569 2628 3553 
L 2631 2963 
z
" transform="scale(0.015625)"/>
      </defs>
      <use xlink:href="#DejaVuSans-59"/>
      <use xlink:href="#DejaVuSans-65" x="47.833984"/>
      <use xlink:href="#DejaVuSans-61" x="109.357422"/>
      <use xlink:href="#DejaVuSans-72" x="170.636719"/>
     </g>
    </g>
   </g>
   <g id="matplotlib.axis_2">
    <g id="ytick_1">
     <g id="line2d_7">
      <defs>
       <path id="m67a5fae0a8" d="M 0 0 
L -3.5 0 
" style="stroke: #000000; stroke-width: 0.8"/>
      </defs>
      <g>
       <use xlink:href="#m67a5fae0a8" x="54.245" y="290.329091" style="stroke: #000000; stroke-width: 0.8"/>
      </g>
     </g>
     <g id="text_8">
      <!-- 0.00 -->
      <g transform="translate(24.979375 294.12831) scale(0.1 -0.1)">
       <defs>
        <path id="DejaVuSans-2e" d="M 684 794 
L 1344 794 
L 1344 0 
L 684 0 
L 684 794 
z
" transform="scale(0.015625)"/>
       </defs>
       <use xlink:href="#DejaVuSans-30"/>
       <use xlink:href="#DejaVuSans-2e" x="63.623047"/>
       <use xlink:href="#DejaVuSans-30" x="95.410156"/>
       <use xlink:href="#DejaVuSans-30" x="159.033203"/>
      </g>
     </g>
    </g>
    <g id="ytick_2">
     <g id="line2d_8">
      <g>
       <use xlink:href="#m67a5fae0a8" x="54.245" y="255.361372" style="stroke: #000000; stroke-width: 0.8"/>
      </g>
     </g>
     <g id="text_9">
      <!-- 0.01 -->
      <g transform="translate(24.979375 259.160591) scale(0.1 -0.1)">
       <use xlink:href="#DejaVuSans-30"/>
       <use xlink:href="#DejaVuSans-2e" x="63.623047"/>
       <use xlink:href="#DejaVuSans-30" x="95.410156"/>
       <use xlink:href="#DejaVuSans-31" x="159.033203"/>
      </g>
     </g>
    </g>
    <g id="ytick_3">
     <g id="line2d_9">
      <g>
       <use xlink:href="#m67a5fae0a8" x="54.245" y="220.393654" style="stroke: #000000; stroke-width: 0.8"/>
      </g>
     </g>
     <g id="text_10">
      <!-- 0.02 -->
      <g transform="translate(24.979375 224.192873) scale(0.1 -0.1)">
       <use xlink:href="#DejaVuSans-30"/>
       <use xlink:href="#DejaVuSans-2e" x="63.623047"/>
       <use xlink:href="#DejaVuSans-30" x="95.410156"/>
       <use xlink:href="#DejaVuSans-32" x="159.033203"/>
      </g>
     </g>
    </g>
    <g id="ytick_4">
     <g id="line2d_10">
      <g>
       <use xlink:href="#m67a5fae0a8" x="54.245" y="185.425935" style="stroke: #000000; stroke-width: 0.8"/>
      </g>
     </g>
     <g id="text_11">
      <!-- 0.03 -->
      <g transform="translate(24.979375 189.225154) scale(0.1 -0.1)">
       <use xlink:href="#DejaVuSans-30"/>
       <use xlink:href="#DejaVuSans-2e" x="63.623047"/>
       <use xlink:href="#DejaVuSans-30" x="95.410156"/>
       <use xlink:href="#DejaVuSans-33" x="159.033203"/>
      </g>
     </g>
    </g>
    <g id="ytick_5">
     <g id="line2d_11">
      <g>
       <use xlink:href="#m67a5fae0a8" x="54.245" y="150.458217" style="stroke: #000000; stroke-width: 0.8"/>
      </g>
     </g>
     <g id="text_12">
      <!-- 0.04 -->
      <g transform="translate(24.979375 154.257435) scale(0.1 -0.1)">
       <defs>
        <path id="DejaVuSans-34" d="M 2419 4116 
L 825 1625 
L 2419 1625 
L 2419 4116 
z
M 2253 4666 
L 3047 4666 
L 3047 1625 
L 3713 1625 
L 3713 1100 
L 3047 1100 
L 3047 0 
L 2419 0 
L 2419 1100 
L 313 1100 
L 313 1709 
L 2253 4666 
z
" transform="scale(0.015625)"/>
       </defs>
       <use xlink:href="#DejaVuSans-30"/>
       <use xlink:href="#DejaVuSans-2e" x="63.623047"/>
       <use xlink:href="#DejaVuSans-30" x="95.410156"/>
       <use xlink:href="#DejaVuSans-34" x="159.033203"/>
      </g>
     </g>
    </g>
    <g id="ytick_6">
     <g id="line2d_12">
      <g>
       <use xlink:href="#m67a5fae0a8" x="54.245" y="115.490498" style="stroke: #000000; stroke-width: 0.8"/>
      </g>
     </g>
     <g id="text_13">
      <!-- 0.05 -->
      <g transform="translate(24.979375 119.289717) scale(0.1 -0.1)">
       <defs>
        <path id="DejaVuSans-35" d="M 691 4666 
L 3169 4666 
L 3169 4134 
L 1269 4134 
L 1269 2991 
Q 1406 3038 1543 3061 
Q 1681 3084 1819 3084 
Q 2600 3084 3056 2656 
Q 3513 2228 3513 1497 
Q 3513 744 3044 326 
Q 2575 -91 1722 -91 
Q 1428 -91 1123 -41 
Q 819 9 494 109 
L 494 744 
Q 775 591 1075 516 
Q 1375 441 1709 441 
Q 2250 441 2565 725 
Q 2881 1009 2881 1497 
Q 2881 1984 2565 2268 
Q 2250 2553 1709 2553 
Q 1456 2553 1204 2497 
Q 953 2441 691 2322 
L 691 4666 
z
" transform="scale(0.015625)"/>
       </defs>
       <use xlink:href="#DejaVuSans-30"/>
       <use xlink:href="#DejaVuSans-2e" x="63.623047"/>
       <use xlink:href="#DejaVuSans-30" x="95.410156"/>
       <use xlink:href="#DejaVuSans-35" x="159.033203"/>
      </g>
     </g>
    </g>
    <g id="ytick_7">
     <g id="line2d_13">
      <g>
       <use xlink:href="#m67a5fae0a8" x="54.245" y="80.52278" style="stroke: #000000; stroke-width: 0.8"/>
      </g>
     </g>
     <g id="text_14">
      <!-- 0.06 -->
      <g transform="translate(24.979375 84.321998) scale(0.1 -0.1)">
       <defs>
        <path id="DejaVuSans-36" d="M 2113 2584 
Q 1688 2584 1439 2293 
Q 1191 2003 1191 1497 
Q 1191 994 1439 701 
Q 1688 409 2113 409 
Q 2538 409 2786 701 
Q 3034 994 3034 1497 
Q 3034 2003 2786 2293 
Q 2538 2584 2113 2584 
z
M 3366 4563 
L 3366 3988 
Q 3128 4100 2886 4159 
Q 2644 4219 2406 4219 
Q 1781 4219 1451 3797 
Q 1122 3375 1075 2522 
Q 1259 2794 1537 2939 
Q 1816 3084 2150 3084 
Q 2853 3084 3261 2657 
Q 3669 2231 3669 1497 
Q 3669 778 3244 343 
Q 2819 -91 2113 -91 
Q 1303 -91 875 529 
Q 447 1150 447 2328 
Q 447 3434 972 4092 
Q 1497 4750 2381 4750 
Q 2619 4750 2861 4703 
Q 3103 4656 3366 4563 
z
" transform="scale(0.015625)"/>
       </defs>
       <use xlink:href="#DejaVuSans-30"/>
       <use xlink:href="#DejaVuSans-2e" x="63.623047"/>
       <use xlink:href="#DejaVuSans-30" x="95.410156"/>
       <use xlink:href="#DejaVuSans-36" x="159.033203"/>
      </g>
     </g>
    </g>
    <g id="ytick_8">
     <g id="line2d_14">
      <g>
       <use xlink:href="#m67a5fae0a8" x="54.245" y="45.555061" style="stroke: #000000; stroke-width: 0.8"/>
      </g>
     </g>
     <g id="text_15">
      <!-- 0.07 -->
      <g transform="translate(24.979375 49.35428) scale(0.1 -0.1)">
       <defs>
        <path id="DejaVuSans-37" d="M 525 4666 
L 3525 4666 
L 3525 4397 
L 1831 0 
L 1172 0 
L 2766 4134 
L 525 4134 
L 525 4666 
z
" transform="scale(0.015625)"/>
       </defs>
       <use xlink:href="#DejaVuSans-30"/>
       <use xlink:href="#DejaVuSans-2e" x="63.623047"/>
       <use xlink:href="#DejaVuSans-30" x="95.410156"/>
       <use xlink:href="#DejaVuSans-37" x="159.033203"/>
      </g>
     </g>
    </g>
    <g id="text_16">
     <!-- Real Interest Rate -->
     <g transform="translate(18.899688 201.904375) rotate(-90) scale(0.1 -0.1)">
      <defs>
       <path id="DejaVuSans-52" d="M 2841 2188 
Q 3044 2119 3236 1894 
Q 3428 1669 3622 1275 
L 4263 0 
L 3584 0 
L 2988 1197 
Q 2756 1666 2539 1819 
Q 2322 1972 1947 1972 
L 1259 1972 
L 1259 0 
L 628 0 
L 628 4666 
L 2053 4666 
Q 2853 4666 3247 4331 
Q 3641 3997 3641 3322 
Q 3641 2881 3436 2590 
Q 3231 2300 2841 2188 
z
M 1259 4147 
L 1259 2491 
L 2053 2491 
Q 2509 2491 2742 2702 
Q 2975 2913 2975 3322 
Q 2975 3731 2742 3939 
Q 2509 4147 2053 4147 
L 1259 4147 
z
" transform="scale(0.015625)"/>
       <path id="DejaVuSans-6c" d="M 603 4863 
L 1178 4863 
L 1178 0 
L 603 0 
L 603 4863 
z
" transform="scale(0.015625)"/>
       <path id="DejaVuSans-20" transform="scale(0.015625)"/>
       <path id="DejaVuSans-49" d="M 628 4666 
L 1259 4666 
L 1259 0 
L 628 0 
L 628 4666 
z
" transform="scale(0.015625)"/>
       <path id="DejaVuSans-6e" d="M 3513 2113 
L 3513 0 
L 2938 0 
L 2938 2094 
Q 2938 2591 2744 2837 
Q 2550 3084 2163 3084 
Q 1697 3084 1428 2787 
Q 1159 2491 1159 1978 
L 1159 0 
L 581 0 
L 581 3500 
L 1159 3500 
L 1159 2956 
Q 1366 3272 1645 3428 
Q 1925 3584 2291 3584 
Q 2894 3584 3203 3211 
Q 3513 2838 3513 2113 
z
" transform="scale(0.015625)"/>
       <path id="DejaVuSans-74" d="M 1172 4494 
L 1172 3500 
L 2356 3500 
L 2356 3053 
L 1172 3053 
L 1172 1153 
Q 1172 725 1289 603 
Q 1406 481 1766 481 
L 2356 481 
L 2356 0 
L 1766 0 
Q 1100 0 847 248 
Q 594 497 594 1153 
L 594 3053 
L 172 3053 
L 172 3500 
L 594 3500 
L 594 4494 
L 1172 4494 
z
" transform="scale(0.015625)"/>
       <path id="DejaVuSans-73" d="M 2834 3397 
L 2834 2853 
Q 2591 2978 2328 3040 
Q 2066 3103 1784 3103 
Q 1356 3103 1142 2972 
Q 928 2841 928 2578 
Q 928 2378 1081 2264 
Q 1234 2150 1697 2047 
L 1894 2003 
Q 2506 1872 2764 1633 
Q 3022 1394 3022 966 
Q 3022 478 2636 193 
Q 2250 -91 1575 -91 
Q 1294 -91 989 -36 
Q 684 19 347 128 
L 347 722 
Q 666 556 975 473 
Q 1284 391 1588 391 
Q 1994 391 2212 530 
Q 2431 669 2431 922 
Q 2431 1156 2273 1281 
Q 2116 1406 1581 1522 
L 1381 1569 
Q 847 1681 609 1914 
Q 372 2147 372 2553 
Q 372 3047 722 3315 
Q 1072 3584 1716 3584 
Q 2034 3584 2315 3537 
Q 2597 3491 2834 3397 
z
" transform="scale(0.015625)"/>
      </defs>
      <use xlink:href="#DejaVuSans-52"/>
      <use xlink:href="#DejaVuSans-65" x="64.982422"/>
      <use xlink:href="#DejaVuSans-61" x="126.505859"/>
      <use xlink:href="#DejaVuSans-6c" x="187.785156"/>
      <use xlink:href="#DejaVuSans-20" x="215.568359"/>
      <use xlink:href="#DejaVuSans-49" x="247.355469"/>
      <use xlink:href="#DejaVuSans-6e" x="276.847656"/>
      <use xlink:href="#DejaVuSans-74" x="340.226562"/>
      <use xlink:href="#DejaVuSans-65" x="379.435547"/>
      <use xlink:href="#DejaVuSans-72" x="440.958984"/>
      <use xlink:href="#DejaVuSans-65" x="479.822266"/>
      <use xlink:href="#DejaVuSans-73" x="541.345703"/>
      <use xlink:href="#DejaVuSans-74" x="593.445312"/>
      <use xlink:href="#DejaVuSans-20" x="632.654297"/>
      <use xlink:href="#DejaVuSans-52" x="664.441406"/>
      <use xlink:href="#DejaVuSans-61" x="731.673828"/>
      <use xlink:href="#DejaVuSans-74" x="792.953125"/>
      <use xlink:href="#DejaVuSans-65" x="832.162109"/>
     </g>
    </g>
   </g>
   <g id="line2d_15">
    <path d="M 230.93801 250.334153 
L 231.656128 248.873719 
L 233.092365 249.413583 
L 233.810483 250.136925 
L 235.24672 249.342535 
L 236.682956 249.447895 
L 237.401075 249.761742 
L 238.119193 249.645854 
L 238.837311 250.11445 
L 240.273548 249.713437 
L 240.991666 249.313151 
L 241.709785 249.615808 
L 243.146021 249.638694 
L 243.864139 249.938029 
L 246.018494 249.306763 
L 246.736613 248.924422 
L 248.172849 249.160298 
L 248.890968 249.468347 
L 249.609086 249.057482 
L 251.763441 249.018382 
L 252.481559 248.835401 
L 253.199677 249.074402 
L 253.917796 248.849736 
L 254.635914 248.999717 
L 255.354032 248.592561 
L 256.072151 249.22555 
L 257.508387 249.405695 
L 258.226506 248.753038 
L 258.944624 248.471653 
L 259.662742 249.039868 
L 260.380861 248.561223 
L 261.098979 248.898477 
L 262.535215 248.679126 
L 263.971452 248.643613 
L 264.68957 248.252846 
L 265.407689 248.286268 
L 266.125807 248.064892 
L 266.843925 248.100786 
L 267.562044 248.274928 
L 268.280162 248.205375 
L 268.99828 248.416403 
L 269.716399 248.036053 
L 270.434517 248.402802 
L 271.870753 248.675687 
L 272.588872 248.957977 
L 273.30699 248.516371 
L 274.025108 248.621729 
L 274.743227 248.11803 
L 275.461345 248.277249 
L 276.179463 248.747987 
L 276.897582 248.409906 
L 277.6157 248.726005 
L 278.333818 248.117543 
L 279.051937 247.967798 
L 279.770055 248.228596 
L 280.488173 247.750483 
L 281.92441 247.856587 
L 282.642528 248.222939 
L 283.360646 247.711835 
L 284.078765 247.401404 
L 284.796883 247.697831 
L 286.23312 247.756442 
L 286.951238 247.770467 
L 287.669356 247.164043 
L 288.387475 247.600513 
L 289.105593 247.592572 
L 289.823711 247.218388 
L 290.54183 247.599827 
L 291.259948 247.382651 
L 291.978066 247.517889 
L 292.696184 247.37901 
L 293.414303 247.093327 
L 294.850539 247.711086 
L 296.286776 247.490034 
L 297.004894 248.038142 
L 297.723013 247.686294 
L 298.441131 247.887515 
L 299.159249 247.797857 
L 299.877368 248.173936 
L 300.595486 248.32417 
L 301.313604 248.109585 
L 302.031722 248.098851 
L 302.749841 247.906931 
L 303.467959 247.26655 
L 304.904196 247.834266 
L 305.622314 247.66899 
L 306.340432 247.26093 
L 307.058551 247.593594 
L 307.776669 247.675628 
L 308.494787 247.588762 
L 309.212906 247.683418 
L 309.931024 247.355507 
L 310.649142 247.751331 
L 311.36726 247.467213 
L 312.085379 247.717736 
L 312.803497 247.772805 
L 313.521615 247.948338 
L 314.239734 247.838712 
L 314.957852 247.96299 
L 317.112207 247.18849 
L 317.830325 247.000733 
L 318.548444 247.573753 
L 319.98468 247.632565 
L 320.702798 247.009997 
L 321.420917 247.405175 
L 322.139035 247.14791 
L 322.857153 247.035704 
L 323.575272 247.215901 
L 324.29339 247.229504 
L 325.011508 247.626304 
L 325.729627 247.527491 
L 326.447745 247.62018 
L 327.165863 246.95327 
L 327.883982 247.879559 
L 328.6021 247.484543 
L 329.320218 247.316904 
L 330.038337 247.52824 
L 330.756455 247.267898 
L 331.474573 247.229872 
L 332.91081 247.557005 
L 333.628928 247.119263 
L 334.347046 247.248177 
L 335.065165 247.109001 
L 335.783283 247.149903 
L 336.501401 247.476582 
L 337.21952 246.986595 
L 337.937638 247.892145 
L 339.373875 247.007002 
L 340.091993 246.848499 
L 340.810111 247.233493 
L 341.528229 246.752434 
L 342.246348 246.571852 
L 342.964466 246.634825 
L 343.682584 247.456017 
L 344.400703 247.196965 
L 345.118821 247.354547 
L 345.836939 247.283043 
L 346.555058 246.697668 
L 347.273176 247.113697 
L 347.991294 246.696757 
L 348.709413 247.35231 
L 349.427531 246.648053 
L 350.145649 247.962535 
L 351.581886 247.151183 
L 352.300004 246.237509 
L 353.018122 246.809275 
L 353.736241 246.901776 
L 354.454359 246.689514 
L 355.172477 246.643901 
L 356.608714 247.13075 
L 357.326832 246.557676 
L 358.044951 246.850869 
L 359.481187 247.586851 
L 360.199305 246.827942 
L 360.917424 246.73625 
L 361.635542 246.810901 
L 362.35366 246.694478 
L 363.789897 246.767146 
L 364.508015 247.979996 
L 365.226134 246.894449 
L 365.944252 246.905273 
L 367.380489 245.939596 
L 368.098607 246.6396 
L 368.816725 246.684574 
L 370.252962 245.776242 
L 370.97108 246.457554 
L 371.689198 246.310498 
L 372.407317 246.883141 
L 373.125435 246.392074 
L 374.561672 246.231385 
L 376.716027 246.129661 
L 378.152263 245.610114 
L 378.870382 246.025441 
L 379.5885 246.002568 
L 380.306618 246.648023 
L 381.024736 246.430054 
L 381.742855 246.020196 
L 382.460973 246.449657 
L 383.179091 245.248149 
L 383.89721 246.279896 
L 384.615328 245.932929 
L 385.333446 245.817366 
L 386.051565 245.952757 
L 386.769683 246.28659 
L 388.20592 246.49088 
L 388.924038 246.227889 
L 389.642156 246.592437 
L 390.360274 246.147834 
L 391.078393 247.009137 
L 391.796511 246.400519 
L 392.514629 246.336651 
L 393.950866 245.721421 
L 395.387103 246.730412 
L 396.105221 246.853039 
L 396.823339 246.248378 
L 397.541458 246.535544 
L 398.259576 246.081252 
L 398.977694 245.327781 
L 399.695812 246.081048 
L 400.413931 245.714401 
L 401.132049 246.669514 
L 401.850167 246.191874 
L 402.568286 246.225863 
L 403.286404 246.415029 
L 404.004522 246.466165 
L 405.440759 246.387389 
L 406.876996 246.976328 
L 407.595114 246.91325 
L 409.03135 246.441535 
L 409.749469 246.56113 
L 410.467587 246.945198 
L 411.185705 246.482706 
L 411.903824 246.170627 
L 413.34006 246.660987 
L 414.058179 246.083764 
L 414.776297 246.690641 
L 415.494415 246.117325 
L 416.212534 245.748127 
L 418.366888 246.160999 
L 419.085007 246.492016 
L 419.803125 246.11948 
L 421.239362 246.947091 
L 421.95748 246.261972 
L 422.675598 246.265258 
L 423.393717 246.048027 
L 424.111835 246.584478 
L 424.829953 246.727775 
L 425.548072 245.767588 
L 426.26619 245.871248 
L 426.984308 246.617551 
L 428.420545 245.662102 
L 429.138663 245.913222 
L 429.856781 245.88638 
L 430.5749 246.124194 
L 431.293018 246.106771 
L 432.011136 246.278883 
L 432.011136 246.278883 
" clip-path="url(#p10c3e6b4ee)" style="fill: none; stroke: #ffffff; stroke-width: 3.5; stroke-linecap: square"/>
    <path d="M 230.93801 250.334153 
L 231.656128 248.873719 
L 233.092365 249.413583 
L 233.810483 250.136925 
L 235.24672 249.342535 
L 236.682956 249.447895 
L 237.401075 249.761742 
L 238.119193 249.645854 
L 238.837311 250.11445 
L 240.273548 249.713437 
L 240.991666 249.313151 
L 241.709785 249.615808 
L 243.146021 249.638694 
L 243.864139 249.938029 
L 246.018494 249.306763 
L 246.736613 248.924422 
L 248.172849 249.160298 
L 248.890968 249.468347 
L 249.609086 249.057482 
L 251.763441 249.018382 
L 252.481559 248.835401 
L 253.199677 249.074402 
L 253.917796 248.849736 
L 254.635914 248.999717 
L 255.354032 248.592561 
L 256.072151 249.22555 
L 257.508387 249.405695 
L 258.226506 248.753038 
L 258.944624 248.471653 
L 259.662742 249.039868 
L 260.380861 248.561223 
L 261.098979 248.898477 
L 262.535215 248.679126 
L 263.971452 248.643613 
L 264.68957 248.252846 
L 265.407689 248.286268 
L 266.125807 248.064892 
L 266.843925 248.100786 
L 267.562044 248.274928 
L 268.280162 248.205375 
L 268.99828 248.416403 
L 269.716399 248.036053 
L 270.434517 248.402802 
L 271.870753 248.675687 
L 272.588872 248.957977 
L 273.30699 248.516371 
L 274.025108 248.621729 
L 274.743227 248.11803 
L 275.461345 248.277249 
L 276.179463 248.747987 
L 276.897582 248.409906 
L 277.6157 248.726005 
L 278.333818 248.117543 
L 279.051937 247.967798 
L 279.770055 248.228596 
L 280.488173 247.750483 
L 281.92441 247.856587 
L 282.642528 248.222939 
L 283.360646 247.711835 
L 284.078765 247.401404 
L 284.796883 247.697831 
L 286.23312 247.756442 
L 286.951238 247.770467 
L 287.669356 247.164043 
L 288.387475 247.600513 
L 289.105593 247.592572 
L 289.823711 247.218388 
L 290.54183 247.599827 
L 291.259948 247.382651 
L 291.978066 247.517889 
L 292.696184 247.37901 
L 293.414303 247.093327 
L 294.850539 247.711086 
L 296.286776 247.490034 
L 297.004894 248.038142 
L 297.723013 247.686294 
L 298.441131 247.887515 
L 299.159249 247.797857 
L 299.877368 248.173936 
L 300.595486 248.32417 
L 301.313604 248.109585 
L 302.031722 248.098851 
L 302.749841 247.906931 
L 303.467959 247.26655 
L 304.904196 247.834266 
L 305.622314 247.66899 
L 306.340432 247.26093 
L 307.058551 247.593594 
L 307.776669 247.675628 
L 308.494787 247.588762 
L 309.212906 247.683418 
L 309.931024 247.355507 
L 310.649142 247.751331 
L 311.36726 247.467213 
L 312.085379 247.717736 
L 312.803497 247.772805 
L 313.521615 247.948338 
L 314.239734 247.838712 
L 314.957852 247.96299 
L 317.112207 247.18849 
L 317.830325 247.000733 
L 318.548444 247.573753 
L 319.98468 247.632565 
L 320.702798 247.009997 
L 321.420917 247.405175 
L 322.139035 247.14791 
L 322.857153 247.035704 
L 323.575272 247.215901 
L 324.29339 247.229504 
L 325.011508 247.626304 
L 325.729627 247.527491 
L 326.447745 247.62018 
L 327.165863 246.95327 
L 327.883982 247.879559 
L 328.6021 247.484543 
L 329.320218 247.316904 
L 330.038337 247.52824 
L 330.756455 247.267898 
L 331.474573 247.229872 
L 332.91081 247.557005 
L 333.628928 247.119263 
L 334.347046 247.248177 
L 335.065165 247.109001 
L 335.783283 247.149903 
L 336.501401 247.476582 
L 337.21952 246.986595 
L 337.937638 247.892145 
L 339.373875 247.007002 
L 340.091993 246.848499 
L 340.810111 247.233493 
L 341.528229 246.752434 
L 342.246348 246.571852 
L 342.964466 246.634825 
L 343.682584 247.456017 
L 344.400703 247.196965 
L 345.118821 247.354547 
L 345.836939 247.283043 
L 346.555058 246.697668 
L 347.273176 247.113697 
L 347.991294 246.696757 
L 348.709413 247.35231 
L 349.427531 246.648053 
L 350.145649 247.962535 
L 351.581886 247.151183 
L 352.300004 246.237509 
L 353.018122 246.809275 
L 353.736241 246.901776 
L 354.454359 246.689514 
L 355.172477 246.643901 
L 356.608714 247.13075 
L 357.326832 246.557676 
L 358.044951 246.850869 
L 359.481187 247.586851 
L 360.199305 246.827942 
L 360.917424 246.73625 
L 361.635542 246.810901 
L 362.35366 246.694478 
L 363.789897 246.767146 
L 364.508015 247.979996 
L 365.226134 246.894449 
L 365.944252 246.905273 
L 367.380489 245.939596 
L 368.098607 246.6396 
L 368.816725 246.684574 
L 370.252962 245.776242 
L 370.97108 246.457554 
L 371.689198 246.310498 
L 372.407317 246.883141 
L 373.125435 246.392074 
L 374.561672 246.231385 
L 376.716027 246.129661 
L 378.152263 245.610114 
L 378.870382 246.025441 
L 379.5885 246.002568 
L 380.306618 246.648023 
L 381.024736 246.430054 
L 381.742855 246.020196 
L 382.460973 246.449657 
L 383.179091 245.248149 
L 383.89721 246.279896 
L 384.615328 245.932929 
L 385.333446 245.817366 
L 386.051565 245.952757 
L 386.769683 246.28659 
L 388.20592 246.49088 
L 388.924038 246.227889 
L 389.642156 246.592437 
L 390.360274 246.147834 
L 391.078393 247.009137 
L 391.796511 246.400519 
L 392.514629 246.336651 
L 393.950866 245.721421 
L 395.387103 246.730412 
L 396.105221 246.853039 
L 396.823339 246.248378 
L 397.541458 246.535544 
L 398.259576 246.081252 
L 398.977694 245.327781 
L 399.695812 246.081048 
L 400.413931 245.714401 
L 401.132049 246.669514 
L 401.850167 246.191874 
L 402.568286 246.225863 
L 403.286404 246.415029 
L 404.004522 246.466165 
L 405.440759 246.387389 
L 406.876996 246.976328 
L 407.595114 246.91325 
L 409.03135 246.441535 
L 409.749469 246.56113 
L 410.467587 246.945198 
L 411.185705 246.482706 
L 411.903824 246.170627 
L 413.34006 246.660987 
L 414.058179 246.083764 
L 414.776297 246.690641 
L 415.494415 246.117325 
L 416.212534 245.748127 
L 418.366888 246.160999 
L 419.085007 246.492016 
L 419.803125 246.11948 
L 421.239362 246.947091 
L 421.95748 246.261972 
L 422.675598 246.265258 
L 423.393717 246.048027 
L 424.111835 246.584478 
L 424.829953 246.727775 
L 425.548072 245.767588 
L 426.26619 245.871248 
L 426.984308 246.617551 
L 428.420545 245.662102 
L 429.138663 245.913222 
L 429.856781 245.88638 
L 430.5749 246.124194 
L 431.293018 246.106771 
L 432.011136 246.278883 
L 432.011136 246.278883 
" clip-path="url(#p10c3e6b4ee)" style="fill: none; stroke: #000000; stroke-width: 1.5; stroke-linecap: square"/>
   </g>
   <g id="line2d_16">
    <path d="M 72.233864 27.832692 
L 72.951982 30.992135 
L 75.106337 80.240522 
L 76.542573 71.456119 
L 77.260692 69.099593 
L 77.97881 75.379608 
L 78.696928 78.18891 
L 80.133165 85.599192 
L 80.851283 86.771674 
L 81.569402 83.165783 
L 82.28752 77.877977 
L 83.005638 74.879503 
L 83.723757 24.110909 
L 84.441875 36.250926 
L 85.159993 54.251778 
L 85.878112 81.07332 
L 86.59623 87.445909 
L 87.314348 85.546787 
L 88.750585 127.694143 
L 89.468703 129.855042 
L 90.186821 124.57642 
L 90.90494 138.961536 
L 91.623058 139.772251 
L 92.341176 135.766221 
L 93.059295 135.500264 
L 93.777413 134.863691 
L 94.495531 125.359523 
L 95.21365 120.031787 
L 95.931768 117.714973 
L 96.649886 116.580828 
L 97.368004 119.388411 
L 98.086123 120.71607 
L 98.804241 121.110222 
L 99.522359 118.413217 
L 100.958596 115.770713 
L 101.676714 110.554376 
L 102.394833 112.735692 
L 103.112951 115.904406 
L 105.267306 121.015209 
L 105.985424 111.655823 
L 106.703542 99.765658 
L 107.421661 91.435055 
L 108.139779 89.693745 
L 109.576016 128.916155 
L 110.294134 134.090921 
L 111.012252 137.48701 
L 111.730371 147.86359 
L 112.448489 146.81603 
L 113.166607 145.04716 
L 113.884726 145.978258 
L 114.602844 141.168055 
L 115.320962 139.450851 
L 116.03908 127.298759 
L 117.475317 68.159461 
L 118.193435 72.105746 
L 118.911554 81.028115 
L 119.629672 148.509949 
L 120.34779 103.408871 
L 121.065909 97.241913 
L 121.784027 103.434426 
L 122.502145 105.372959 
L 123.220264 103.21085 
L 123.938382 101.605245 
L 124.6565 103.610932 
L 125.374618 103.475621 
L 126.092737 97.650839 
L 126.810855 99.309555 
L 127.528973 112.670936 
L 128.247092 129.261108 
L 128.96521 134.672609 
L 130.401447 142.966177 
L 131.119565 149.971827 
L 131.837683 160.794213 
L 132.555802 163.248547 
L 133.27392 163.889988 
L 133.992038 164.323641 
L 135.428275 171.11214 
L 136.864511 164.081006 
L 137.58263 169.237279 
L 138.300748 170.621228 
L 139.018866 165.382555 
L 139.736985 163.974017 
L 140.455103 160.740267 
L 141.173221 161.586044 
L 141.89134 167.757786 
L 142.609458 166.099306 
L 143.327576 171.16383 
L 144.045695 174.070355 
L 144.763813 180.963342 
L 145.481931 181.668376 
L 146.200049 180.790904 
L 146.918168 178.473903 
L 147.636286 172.97712 
L 148.354404 170.53995 
L 149.072523 170.97814 
L 149.790641 165.98786 
L 150.508759 156.842497 
L 151.226878 154.434341 
L 151.944996 156.568236 
L 152.663114 153.045604 
L 154.099351 149.332157 
L 154.817469 145.012387 
L 155.535587 145.058255 
L 156.253706 146.648797 
L 156.971824 151.439981 
L 158.408061 135.70114 
L 159.126179 138.789065 
L 159.844297 118.451553 
L 160.562416 115.166724 
L 161.280534 138.782381 
L 161.998652 138.113283 
L 162.716771 148.622264 
L 164.153007 162.004803 
L 164.871125 172.769302 
L 165.589244 173.573539 
L 166.307362 167.285597 
L 167.02548 173.933588 
L 167.743599 174.474501 
L 168.461717 162.716544 
L 169.179835 174.660521 
L 169.897954 181.639676 
L 170.616072 192.552324 
L 171.33419 196.956935 
L 172.052309 197.479446 
L 172.770427 201.308631 
L 173.488545 207.750481 
L 174.206663 212.963737 
L 174.924782 222.497411 
L 175.6429 205.324137 
L 176.361018 204.508966 
L 177.079137 204.312939 
L 177.797255 207.75813 
L 178.515373 212.687581 
L 179.233492 211.505724 
L 179.95161 206.83909 
L 180.669728 208.473802 
L 181.387847 209.146751 
L 182.105965 201.028988 
L 183.542202 191.920258 
L 184.26032 201.062091 
L 184.978438 195.14413 
L 185.696556 197.776012 
L 186.414675 195.68267 
L 187.132793 191.038195 
L 187.850911 172.540718 
L 188.56903 172.600767 
L 189.287148 175.238365 
L 190.005266 175.392044 
L 190.723385 174.282303 
L 191.441503 171.18258 
L 192.159621 171.707376 
L 192.87774 159.931051 
L 194.313976 149.449545 
L 195.032094 128.261579 
L 195.750213 123.597178 
L 196.468331 160.968955 
L 197.186449 170.372345 
L 197.904568 155.732392 
L 198.622686 146.269434 
L 200.058923 190.265895 
L 200.777041 189.27222 
L 201.495159 174.936087 
L 202.213278 153.992905 
L 202.931396 109.452878 
L 203.649514 77.916194 
L 204.367632 100.379855 
L 205.085751 139.19535 
L 205.803869 119.696156 
L 206.521987 154.413936 
L 207.240106 225.22444 
L 207.958224 202.260435 
L 208.676342 185.570504 
L 209.394461 186.300174 
L 210.112579 160.453207 
L 210.830697 158.937319 
L 211.548816 167.855007 
L 212.266934 189.19416 
L 212.985052 162.069185 
L 213.70317 178.742362 
L 214.421289 175.616565 
L 215.139407 180.554654 
L 215.857525 206.956655 
L 216.575644 185.42529 
L 217.293762 176.860249 
L 218.01188 194.390729 
L 218.729999 198.51465 
L 219.448117 209.699575 
L 220.166235 203.023997 
L 220.884354 201.667803 
L 221.602472 195.820744 
L 222.32059 196.993332 
L 223.038708 215.31459 
L 223.756827 217.750174 
L 224.474945 218.278185 
L 225.193063 229.595757 
L 225.911182 260.670308 
L 226.6293 242.86941 
L 227.347418 244.85116 
L 228.065537 261.820475 
L 228.783655 272.301337 
L 229.501773 255.484099 
L 229.501773 255.484099 
" clip-path="url(#p10c3e6b4ee)" style="fill: none; stroke: #ffffff; stroke-width: 3.5; stroke-linecap: square"/>
    <path d="M 72.233864 27.832692 
L 72.951982 30.992135 
L 75.106337 80.240522 
L 76.542573 71.456119 
L 77.260692 69.099593 
L 77.97881 75.379608 
L 78.696928 78.18891 
L 80.133165 85.599192 
L 80.851283 86.771674 
L 81.569402 83.165783 
L 82.28752 77.877977 
L 83.005638 74.879503 
L 83.723757 24.110909 
L 84.441875 36.250926 
L 85.159993 54.251778 
L 85.878112 81.07332 
L 86.59623 87.445909 
L 87.314348 85.546787 
L 88.750585 127.694143 
L 89.468703 129.855042 
L 90.186821 124.57642 
L 90.90494 138.961536 
L 91.623058 139.772251 
L 92.341176 135.766221 
L 93.059295 135.500264 
L 93.777413 134.863691 
L 94.495531 125.359523 
L 95.21365 120.031787 
L 95.931768 117.714973 
L 96.649886 116.580828 
L 97.368004 119.388411 
L 98.086123 120.71607 
L 98.804241 121.110222 
L 99.522359 118.413217 
L 100.958596 115.770713 
L 101.676714 110.554376 
L 102.394833 112.735692 
L 103.112951 115.904406 
L 105.267306 121.015209 
L 105.985424 111.655823 
L 106.703542 99.765658 
L 107.421661 91.435055 
L 108.139779 89.693745 
L 109.576016 128.916155 
L 110.294134 134.090921 
L 111.012252 137.48701 
L 111.730371 147.86359 
L 112.448489 146.81603 
L 113.166607 145.04716 
L 113.884726 145.978258 
L 114.602844 141.168055 
L 115.320962 139.450851 
L 116.03908 127.298759 
L 117.475317 68.159461 
L 118.193435 72.105746 
L 118.911554 81.028115 
L 119.629672 148.509949 
L 120.34779 103.408871 
L 121.065909 97.241913 
L 121.784027 103.434426 
L 122.502145 105.372959 
L 123.220264 103.21085 
L 123.938382 101.605245 
L 124.6565 103.610932 
L 125.374618 103.475621 
L 126.092737 97.650839 
L 126.810855 99.309555 
L 127.528973 112.670936 
L 128.247092 129.261108 
L 128.96521 134.672609 
L 130.401447 142.966177 
L 131.119565 149.971827 
L 131.837683 160.794213 
L 132.555802 163.248547 
L 133.27392 163.889988 
L 133.992038 164.323641 
L 135.428275 171.11214 
L 136.864511 164.081006 
L 137.58263 169.237279 
L 138.300748 170.621228 
L 139.018866 165.382555 
L 139.736985 163.974017 
L 140.455103 160.740267 
L 141.173221 161.586044 
L 141.89134 167.757786 
L 142.609458 166.099306 
L 143.327576 171.16383 
L 144.045695 174.070355 
L 144.763813 180.963342 
L 145.481931 181.668376 
L 146.200049 180.790904 
L 146.918168 178.473903 
L 147.636286 172.97712 
L 148.354404 170.53995 
L 149.072523 170.97814 
L 149.790641 165.98786 
L 150.508759 156.842497 
L 151.226878 154.434341 
L 151.944996 156.568236 
L 152.663114 153.045604 
L 154.099351 149.332157 
L 154.817469 145.012387 
L 155.535587 145.058255 
L 156.253706 146.648797 
L 156.971824 151.439981 
L 158.408061 135.70114 
L 159.126179 138.789065 
L 159.844297 118.451553 
L 160.562416 115.166724 
L 161.280534 138.782381 
L 161.998652 138.113283 
L 162.716771 148.622264 
L 164.153007 162.004803 
L 164.871125 172.769302 
L 165.589244 173.573539 
L 166.307362 167.285597 
L 167.02548 173.933588 
L 167.743599 174.474501 
L 168.461717 162.716544 
L 169.179835 174.660521 
L 169.897954 181.639676 
L 170.616072 192.552324 
L 171.33419 196.956935 
L 172.052309 197.479446 
L 172.770427 201.308631 
L 173.488545 207.750481 
L 174.206663 212.963737 
L 174.924782 222.497411 
L 175.6429 205.324137 
L 176.361018 204.508966 
L 177.079137 204.312939 
L 177.797255 207.75813 
L 178.515373 212.687581 
L 179.233492 211.505724 
L 179.95161 206.83909 
L 180.669728 208.473802 
L 181.387847 209.146751 
L 182.105965 201.028988 
L 183.542202 191.920258 
L 184.26032 201.062091 
L 184.978438 195.14413 
L 185.696556 197.776012 
L 186.414675 195.68267 
L 187.132793 191.038195 
L 187.850911 172.540718 
L 188.56903 172.600767 
L 189.287148 175.238365 
L 190.005266 175.392044 
L 190.723385 174.282303 
L 191.441503 171.18258 
L 192.159621 171.707376 
L 192.87774 159.931051 
L 194.313976 149.449545 
L 195.032094 128.261579 
L 195.750213 123.597178 
L 196.468331 160.968955 
L 197.186449 170.372345 
L 197.904568 155.732392 
L 198.622686 146.269434 
L 200.058923 190.265895 
L 200.777041 189.27222 
L 201.495159 174.936087 
L 202.213278 153.992905 
L 202.931396 109.452878 
L 203.649514 77.916194 
L 204.367632 100.379855 
L 205.085751 139.19535 
L 205.803869 119.696156 
L 206.521987 154.413936 
L 207.240106 225.22444 
L 207.958224 202.260435 
L 208.676342 185.570504 
L 209.394461 186.300174 
L 210.112579 160.453207 
L 210.830697 158.937319 
L 211.548816 167.855007 
L 212.266934 189.19416 
L 212.985052 162.069185 
L 213.70317 178.742362 
L 214.421289 175.616565 
L 215.139407 180.554654 
L 215.857525 206.956655 
L 216.575644 185.42529 
L 217.293762 176.860249 
L 218.01188 194.390729 
L 218.729999 198.51465 
L 219.448117 209.699575 
L 220.166235 203.023997 
L 220.884354 201.667803 
L 221.602472 195.820744 
L 222.32059 196.993332 
L 223.038708 215.31459 
L 223.756827 217.750174 
L 224.474945 218.278185 
L 225.193063 229.595757 
L 225.911182 260.670308 
L 226.6293 242.86941 
L 227.347418 244.85116 
L 228.065537 261.820475 
L 228.783655 272.301337 
L 229.501773 255.484099 
L 229.501773 255.484099 
" clip-path="url(#p10c3e6b4ee)" style="fill: none; stroke: #000000; stroke-width: 1.5; stroke-linecap: square"/>
   </g>
   <g id="patch_3">
    <path d="M 54.245 303.64 
L 54.245 10.8 
" style="fill: none; stroke: #000000; stroke-width: 0.25; stroke-linejoin: miter; stroke-linecap: square"/>
   </g>
   <g id="patch_4">
    <path d="M 450 303.64 
L 450 10.8 
" style="fill: none; stroke: #000000; stroke-width: 0.25; stroke-linejoin: miter; stroke-linecap: square"/>
   </g>
   <g id="patch_5">
    <path d="M 54.245 303.64 
L 450 303.64 
" style="fill: none; stroke: #000000; stroke-width: 0.25; stroke-linejoin: miter; stroke-linecap: square"/>
   </g>
   <g id="patch_6">
    <path d="M 54.245 10.8 
L 450 10.8 
" style="fill: none; stroke: #000000; stroke-width: 0.25; stroke-linejoin: miter; stroke-linecap: square"/>
   </g>
   <g id="legend_1">
    <g id="patch_7">
     <path d="M 372.440625 62.834375 
L 443 62.834375 
Q 445 62.834375 445 60.834375 
L 445 17.8 
Q 445 15.8 443 15.8 
L 372.440625 15.8 
Q 370.440625 15.8 370.440625 17.8 
L 370.440625 60.834375 
Q 370.440625 62.834375 372.440625 62.834375 
z
" style="fill: #ffffff; opacity: 0.8; stroke: #cccccc; stroke-linejoin: miter"/>
    </g>
    <g id="patch_8">
     <path d="M 374.440625 27.398438 
L 394.440625 27.398438 
L 394.440625 20.398438 
L 374.440625 20.398438 
z
" style="fill: #808080; fill-opacity: 0.2"/>
    </g>
    <g id="text_17">
     <!-- 25-75% -->
     <g transform="translate(402.440625 27.398438) scale(0.1 -0.1)">
      <defs>
       <path id="DejaVuSans-2d" d="M 313 2009 
L 1997 2009 
L 1997 1497 
L 313 1497 
L 313 2009 
z
" transform="scale(0.015625)"/>
       <path id="DejaVuSans-25" d="M 4653 2053 
Q 4381 2053 4226 1822 
Q 4072 1591 4072 1178 
Q 4072 772 4226 539 
Q 4381 306 4653 306 
Q 4919 306 5073 539 
Q 5228 772 5228 1178 
Q 5228 1588 5073 1820 
Q 4919 2053 4653 2053 
z
M 4653 2450 
Q 5147 2450 5437 2106 
Q 5728 1763 5728 1178 
Q 5728 594 5436 251 
Q 5144 -91 4653 -91 
Q 4153 -91 3862 251 
Q 3572 594 3572 1178 
Q 3572 1766 3864 2108 
Q 4156 2450 4653 2450 
z
M 1428 4353 
Q 1159 4353 1004 4120 
Q 850 3888 850 3481 
Q 850 3069 1003 2837 
Q 1156 2606 1428 2606 
Q 1700 2606 1854 2837 
Q 2009 3069 2009 3481 
Q 2009 3884 1853 4118 
Q 1697 4353 1428 4353 
z
M 4250 4750 
L 4750 4750 
L 1831 -91 
L 1331 -91 
L 4250 4750 
z
M 1428 4750 
Q 1922 4750 2215 4408 
Q 2509 4066 2509 3481 
Q 2509 2891 2217 2550 
Q 1925 2209 1428 2209 
Q 931 2209 642 2551 
Q 353 2894 353 3481 
Q 353 4063 643 4406 
Q 934 4750 1428 4750 
z
" transform="scale(0.015625)"/>
      </defs>
      <use xlink:href="#DejaVuSans-32"/>
      <use xlink:href="#DejaVuSans-35" x="63.623047"/>
      <use xlink:href="#DejaVuSans-2d" x="127.246094"/>
      <use xlink:href="#DejaVuSans-37" x="163.330078"/>
      <use xlink:href="#DejaVuSans-35" x="226.953125"/>
      <use xlink:href="#DejaVuSans-25" x="290.576172"/>
     </g>
    </g>
    <g id="patch_9">
     <path d="M 374.440625 42.076563 
L 394.440625 42.076563 
L 394.440625 35.076563 
L 374.440625 35.076563 
z
" style="fill: #808080; fill-opacity: 0.4"/>
    </g>
    <g id="text_18">
     <!-- 35-65% -->
     <g transform="translate(402.440625 42.076563) scale(0.1 -0.1)">
      <use xlink:href="#DejaVuSans-33"/>
      <use xlink:href="#DejaVuSans-35" x="63.623047"/>
      <use xlink:href="#DejaVuSans-2d" x="127.246094"/>
      <use xlink:href="#DejaVuSans-36" x="163.330078"/>
      <use xlink:href="#DejaVuSans-35" x="226.953125"/>
      <use xlink:href="#DejaVuSans-25" x="290.576172"/>
     </g>
    </g>
    <g id="line2d_17">
     <path d="M 374.440625 53.254688 
L 384.440625 53.254688 
L 394.440625 53.254688 
" style="fill: none; stroke: #ffffff; stroke-width: 3.5; stroke-linecap: square"/>
     <path d="M 374.440625 53.254688 
L 384.440625 53.254688 
L 394.440625 53.254688 
" style="fill: none; stroke: #000000; stroke-width: 1.5; stroke-linecap: square"/>
    </g>
    <g id="text_19">
     <!-- median -->
     <g transform="translate(402.440625 56.754688) scale(0.1 -0.1)">
      <defs>
       <path id="DejaVuSans-6d" d="M 3328 2828 
Q 3544 3216 3844 3400 
Q 4144 3584 4550 3584 
Q 5097 3584 5394 3201 
Q 5691 2819 5691 2113 
L 5691 0 
L 5113 0 
L 5113 2094 
Q 5113 2597 4934 2840 
Q 4756 3084 4391 3084 
Q 3944 3084 3684 2787 
Q 3425 2491 3425 1978 
L 3425 0 
L 2847 0 
L 2847 2094 
Q 2847 2600 2669 2842 
Q 2491 3084 2119 3084 
Q 1678 3084 1418 2786 
Q 1159 2488 1159 1978 
L 1159 0 
L 581 0 
L 581 3500 
L 1159 3500 
L 1159 2956 
Q 1356 3278 1631 3431 
Q 1906 3584 2284 3584 
Q 2666 3584 2933 3390 
Q 3200 3197 3328 2828 
z
" transform="scale(0.015625)"/>
       <path id="DejaVuSans-64" d="M 2906 2969 
L 2906 4863 
L 3481 4863 
L 3481 0 
L 2906 0 
L 2906 525 
Q 2725 213 2448 61 
Q 2172 -91 1784 -91 
Q 1150 -91 751 415 
Q 353 922 353 1747 
Q 353 2572 751 3078 
Q 1150 3584 1784 3584 
Q 2172 3584 2448 3432 
Q 2725 3281 2906 2969 
z
M 947 1747 
Q 947 1113 1208 752 
Q 1469 391 1925 391 
Q 2381 391 2643 752 
Q 2906 1113 2906 1747 
Q 2906 2381 2643 2742 
Q 2381 3103 1925 3103 
Q 1469 3103 1208 2742 
Q 947 2381 947 1747 
z
" transform="scale(0.015625)"/>
       <path id="DejaVuSans-69" d="M 603 3500 
L 1178 3500 
L 1178 0 
L 603 0 
L 603 3500 
z
M 603 4863 
L 1178 4863 
L 1178 4134 
L 603 4134 
L 603 4863 
z
" transform="scale(0.015625)"/>
      </defs>
      <use xlink:href="#DejaVuSans-6d"/>
      <use xlink:href="#DejaVuSans-65" x="97.412109"/>
      <use xlink:href="#DejaVuSans-64" x="158.935547"/>
      <use xlink:href="#DejaVuSans-69" x="222.412109"/>
      <use xlink:href="#DejaVuSans-61" x="250.195312"/>
      <use xlink:href="#DejaVuSans-6e" x="311.474609"/>
     </g>
    </g>
   </g>
  </g>
 </g>
 <defs>
  <clipPath id="p10c3e6b4ee">
   <rect x="54.245" y="10.8" width="395.755" height="292.84"/>
  </clipPath>
 </defs>
</svg>
