<?xml version="1.0" encoding="utf-8" standalone="no"?>
<!DOCTYPE svg PUBLIC "-//W3C//DTD SVG 1.1//EN"
  "http://www.w3.org/Graphics/SVG/1.1/DTD/svg11.dtd">
<svg xmlns:xlink="http://www.w3.org/1999/xlink" width="460.8pt" height="345.6pt" viewBox="0 0 460.8 345.6" xmlns="http://www.w3.org/2000/svg" version="1.1">
 <metadata>
  <rdf:RDF xmlns:dc="http://purl.org/dc/elements/1.1/" xmlns:cc="http://creativecommons.org/ns#" xmlns:rdf="http://www.w3.org/1999/02/22-rdf-syntax-ns#">
   <cc:Work>
    <dc:type rdf:resource="http://purl.org/dc/dcmitype/StillImage"/>
    <dc:date>2024-10-08T17:08:14.574991</dc:date>
    <dc:format>image/svg+xml</dc:format>
    <dc:creator>
     <cc:Agent>
      <dc:title>Matplotlib v3.9.0, https://matplotlib.org/</dc:title>
     </cc:Agent>
    </dc:creator>
   </cc:Work>
  </rdf:RDF>
 </metadata>
 <defs>
  <style type="text/css">*{stroke-linejoin: round; stroke-linecap: butt}</style>
 </defs>
 <g id="figure_1">
  <g id="axes_1">
   <g id="patch_1">
    <path d="M 55.760938 304.44375 
L 450 304.44375 
L 450 10.8 
L 55.760938 10.8 
L 55.760938 304.44375 
z
" style="fill: none"/>
   </g>
   <g id="matplotlib.axis_1">
    <g id="xtick_1">
     <g id="line2d_1">
      <defs>
       <path id="me480ccb071" d="M 0 0 
L 0 3.5 
" style="stroke: #000000; stroke-width: 0.8"/>
      </defs>
      <g>
       <use xlink:href="#me480ccb071" x="97.574171" y="304.44375" style="stroke: #000000; stroke-width: 0.8"/>
      </g>
     </g>
     <g id="text_1">
      <!-- 1800 -->
      <g transform="translate(84.849171 319.042187) scale(0.1 -0.1)">
       <defs>
        <path id="DejaVuSans-31" d="M 794 531 
L 1825 531 
L 1825 4091 
L 703 3866 
L 703 4441 
L 1819 4666 
L 2450 4666 
L 2450 531 
L 3481 531 
L 3481 0 
L 794 0 
L 794 531 
z
" transform="scale(0.015625)"/>
        <path id="DejaVuSans-38" d="M 2034 2216 
Q 1584 2216 1326 1975 
Q 1069 1734 1069 1313 
Q 1069 891 1326 650 
Q 1584 409 2034 409 
Q 2484 409 2743 651 
Q 3003 894 3003 1313 
Q 3003 1734 2745 1975 
Q 2488 2216 2034 2216 
z
M 1403 2484 
Q 997 2584 770 2862 
Q 544 3141 544 3541 
Q 544 4100 942 4425 
Q 1341 4750 2034 4750 
Q 2731 4750 3128 4425 
Q 3525 4100 3525 3541 
Q 3525 3141 3298 2862 
Q 3072 2584 2669 2484 
Q 3125 2378 3379 2068 
Q 3634 1759 3634 1313 
Q 3634 634 3220 271 
Q 2806 -91 2034 -91 
Q 1263 -91 848 271 
Q 434 634 434 1313 
Q 434 1759 690 2068 
Q 947 2378 1403 2484 
z
M 1172 3481 
Q 1172 3119 1398 2916 
Q 1625 2713 2034 2713 
Q 2441 2713 2670 2916 
Q 2900 3119 2900 3481 
Q 2900 3844 2670 4047 
Q 2441 4250 2034 4250 
Q 1625 4250 1398 4047 
Q 1172 3844 1172 3481 
z
" transform="scale(0.015625)"/>
        <path id="DejaVuSans-30" d="M 2034 4250 
Q 1547 4250 1301 3770 
Q 1056 3291 1056 2328 
Q 1056 1369 1301 889 
Q 1547 409 2034 409 
Q 2525 409 2770 889 
Q 3016 1369 3016 2328 
Q 3016 3291 2770 3770 
Q 2525 4250 2034 4250 
z
M 2034 4750 
Q 2819 4750 3233 4129 
Q 3647 3509 3647 2328 
Q 3647 1150 3233 529 
Q 2819 -91 2034 -91 
Q 1250 -91 836 529 
Q 422 1150 422 2328 
Q 422 3509 836 4129 
Q 1250 4750 2034 4750 
z
" transform="scale(0.015625)"/>
       </defs>
       <use xlink:href="#DejaVuSans-31"/>
       <use xlink:href="#DejaVuSans-38" x="63.623047"/>
       <use xlink:href="#DejaVuSans-30" x="127.246094"/>
       <use xlink:href="#DejaVuSans-30" x="190.869141"/>
      </g>
     </g>
    </g>
    <g id="xtick_2">
     <g id="line2d_2">
      <g>
       <use xlink:href="#me480ccb071" x="145.360724" y="304.44375" style="stroke: #000000; stroke-width: 0.8"/>
      </g>
     </g>
     <g id="text_2">
      <!-- 1900 -->
      <g transform="translate(132.635724 319.042187) scale(0.1 -0.1)">
       <defs>
        <path id="DejaVuSans-39" d="M 703 97 
L 703 672 
Q 941 559 1184 500 
Q 1428 441 1663 441 
Q 2288 441 2617 861 
Q 2947 1281 2994 2138 
Q 2813 1869 2534 1725 
Q 2256 1581 1919 1581 
Q 1219 1581 811 2004 
Q 403 2428 403 3163 
Q 403 3881 828 4315 
Q 1253 4750 1959 4750 
Q 2769 4750 3195 4129 
Q 3622 3509 3622 2328 
Q 3622 1225 3098 567 
Q 2575 -91 1691 -91 
Q 1453 -91 1209 -44 
Q 966 3 703 97 
z
M 1959 2075 
Q 2384 2075 2632 2365 
Q 2881 2656 2881 3163 
Q 2881 3666 2632 3958 
Q 2384 4250 1959 4250 
Q 1534 4250 1286 3958 
Q 1038 3666 1038 3163 
Q 1038 2656 1286 2365 
Q 1534 2075 1959 2075 
z
" transform="scale(0.015625)"/>
       </defs>
       <use xlink:href="#DejaVuSans-31"/>
       <use xlink:href="#DejaVuSans-39" x="63.623047"/>
       <use xlink:href="#DejaVuSans-30" x="127.246094"/>
       <use xlink:href="#DejaVuSans-30" x="190.869141"/>
      </g>
     </g>
    </g>
    <g id="xtick_3">
     <g id="line2d_3">
      <g>
       <use xlink:href="#me480ccb071" x="193.147277" y="304.44375" style="stroke: #000000; stroke-width: 0.8"/>
      </g>
     </g>
     <g id="text_3">
      <!-- 2000 -->
      <g transform="translate(180.422277 319.042187) scale(0.1 -0.1)">
       <defs>
        <path id="DejaVuSans-32" d="M 1228 531 
L 3431 531 
L 3431 0 
L 469 0 
L 469 531 
Q 828 903 1448 1529 
Q 2069 2156 2228 2338 
Q 2531 2678 2651 2914 
Q 2772 3150 2772 3378 
Q 2772 3750 2511 3984 
Q 2250 4219 1831 4219 
Q 1534 4219 1204 4116 
Q 875 4013 500 3803 
L 500 4441 
Q 881 4594 1212 4672 
Q 1544 4750 1819 4750 
Q 2544 4750 2975 4387 
Q 3406 4025 3406 3419 
Q 3406 3131 3298 2873 
Q 3191 2616 2906 2266 
Q 2828 2175 2409 1742 
Q 1991 1309 1228 531 
z
" transform="scale(0.015625)"/>
       </defs>
       <use xlink:href="#DejaVuSans-32"/>
       <use xlink:href="#DejaVuSans-30" x="63.623047"/>
       <use xlink:href="#DejaVuSans-30" x="127.246094"/>
       <use xlink:href="#DejaVuSans-30" x="190.869141"/>
      </g>
     </g>
    </g>
    <g id="xtick_4">
     <g id="line2d_4">
      <g>
       <use xlink:href="#me480ccb071" x="240.93383" y="304.44375" style="stroke: #000000; stroke-width: 0.8"/>
      </g>
     </g>
     <g id="text_4">
      <!-- 2100 -->
      <g transform="translate(228.20883 319.042187) scale(0.1 -0.1)">
       <use xlink:href="#DejaVuSans-32"/>
       <use xlink:href="#DejaVuSans-31" x="63.623047"/>
       <use xlink:href="#DejaVuSans-30" x="127.246094"/>
       <use xlink:href="#DejaVuSans-30" x="190.869141"/>
      </g>
     </g>
    </g>
    <g id="xtick_5">
     <g id="line2d_5">
      <g>
       <use xlink:href="#me480ccb071" x="288.720384" y="304.44375" style="stroke: #000000; stroke-width: 0.8"/>
      </g>
     </g>
     <g id="text_5">
      <!-- 2200 -->
      <g transform="translate(275.995384 319.042187) scale(0.1 -0.1)">
       <use xlink:href="#DejaVuSans-32"/>
       <use xlink:href="#DejaVuSans-32" x="63.623047"/>
       <use xlink:href="#DejaVuSans-30" x="127.246094"/>
       <use xlink:href="#DejaVuSans-30" x="190.869141"/>
      </g>
     </g>
    </g>
    <g id="xtick_6">
     <g id="line2d_6">
      <g>
       <use xlink:href="#me480ccb071" x="336.506937" y="304.44375" style="stroke: #000000; stroke-width: 0.8"/>
      </g>
     </g>
     <g id="text_6">
      <!-- 2300 -->
      <g transform="translate(323.781937 319.042187) scale(0.1 -0.1)">
       <defs>
        <path id="DejaVuSans-33" d="M 2597 2516 
Q 3050 2419 3304 2112 
Q 3559 1806 3559 1356 
Q 3559 666 3084 287 
Q 2609 -91 1734 -91 
Q 1441 -91 1130 -33 
Q 819 25 488 141 
L 488 750 
Q 750 597 1062 519 
Q 1375 441 1716 441 
Q 2309 441 2620 675 
Q 2931 909 2931 1356 
Q 2931 1769 2642 2001 
Q 2353 2234 1838 2234 
L 1294 2234 
L 1294 2753 
L 1863 2753 
Q 2328 2753 2575 2939 
Q 2822 3125 2822 3475 
Q 2822 3834 2567 4026 
Q 2313 4219 1838 4219 
Q 1578 4219 1281 4162 
Q 984 4106 628 3988 
L 628 4550 
Q 988 4650 1302 4700 
Q 1616 4750 1894 4750 
Q 2613 4750 3031 4423 
Q 3450 4097 3450 3541 
Q 3450 3153 3228 2886 
Q 3006 2619 2597 2516 
z
" transform="scale(0.015625)"/>
       </defs>
       <use xlink:href="#DejaVuSans-32"/>
       <use xlink:href="#DejaVuSans-33" x="63.623047"/>
       <use xlink:href="#DejaVuSans-30" x="127.246094"/>
       <use xlink:href="#DejaVuSans-30" x="190.869141"/>
      </g>
     </g>
    </g>
    <g id="xtick_7">
     <g id="line2d_7">
      <g>
       <use xlink:href="#me480ccb071" x="384.29349" y="304.44375" style="stroke: #000000; stroke-width: 0.8"/>
      </g>
     </g>
     <g id="text_7">
      <!-- 2400 -->
      <g transform="translate(371.56849 319.042187) scale(0.1 -0.1)">
       <defs>
        <path id="DejaVuSans-34" d="M 2419 4116 
L 825 1625 
L 2419 1625 
L 2419 4116 
z
M 2253 4666 
L 3047 4666 
L 3047 1625 
L 3713 1625 
L 3713 1100 
L 3047 1100 
L 3047 0 
L 2419 0 
L 2419 1100 
L 313 1100 
L 313 1709 
L 2253 4666 
z
" transform="scale(0.015625)"/>
       </defs>
       <use xlink:href="#DejaVuSans-32"/>
       <use xlink:href="#DejaVuSans-34" x="63.623047"/>
       <use xlink:href="#DejaVuSans-30" x="127.246094"/>
       <use xlink:href="#DejaVuSans-30" x="190.869141"/>
      </g>
     </g>
    </g>
    <g id="xtick_8">
     <g id="line2d_8">
      <g>
       <use xlink:href="#me480ccb071" x="432.080043" y="304.44375" style="stroke: #000000; stroke-width: 0.8"/>
      </g>
     </g>
     <g id="text_8">
      <!-- 2500 -->
      <g transform="translate(419.355043 319.042187) scale(0.1 -0.1)">
       <defs>
        <path id="DejaVuSans-35" d="M 691 4666 
L 3169 4666 
L 3169 4134 
L 1269 4134 
L 1269 2991 
Q 1406 3038 1543 3061 
Q 1681 3084 1819 3084 
Q 2600 3084 3056 2656 
Q 3513 2228 3513 1497 
Q 3513 744 3044 326 
Q 2575 -91 1722 -91 
Q 1428 -91 1123 -41 
Q 819 9 494 109 
L 494 744 
Q 775 591 1075 516 
Q 1375 441 1709 441 
Q 2250 441 2565 725 
Q 2881 1009 2881 1497 
Q 2881 1984 2565 2268 
Q 2250 2553 1709 2553 
Q 1456 2553 1204 2497 
Q 953 2441 691 2322 
L 691 4666 
z
" transform="scale(0.015625)"/>
       </defs>
       <use xlink:href="#DejaVuSans-32"/>
       <use xlink:href="#DejaVuSans-35" x="63.623047"/>
       <use xlink:href="#DejaVuSans-30" x="127.246094"/>
       <use xlink:href="#DejaVuSans-30" x="190.869141"/>
      </g>
     </g>
    </g>
    <g id="text_9">
     <!-- Year -->
     <g transform="translate(242.292969 332.720312) scale(0.1 -0.1)">
      <defs>
       <path id="DejaVuSans-59" d="M -13 4666 
L 666 4666 
L 1959 2747 
L 3244 4666 
L 3922 4666 
L 2272 2222 
L 2272 0 
L 1638 0 
L 1638 2222 
L -13 4666 
z
" transform="scale(0.015625)"/>
       <path id="DejaVuSans-65" d="M 3597 1894 
L 3597 1613 
L 953 1613 
Q 991 1019 1311 708 
Q 1631 397 2203 397 
Q 2534 397 2845 478 
Q 3156 559 3463 722 
L 3463 178 
Q 3153 47 2828 -22 
Q 2503 -91 2169 -91 
Q 1331 -91 842 396 
Q 353 884 353 1716 
Q 353 2575 817 3079 
Q 1281 3584 2069 3584 
Q 2775 3584 3186 3129 
Q 3597 2675 3597 1894 
z
M 3022 2063 
Q 3016 2534 2758 2815 
Q 2500 3097 2075 3097 
Q 1594 3097 1305 2825 
Q 1016 2553 972 2059 
L 3022 2063 
z
" transform="scale(0.015625)"/>
       <path id="DejaVuSans-61" d="M 2194 1759 
Q 1497 1759 1228 1600 
Q 959 1441 959 1056 
Q 959 750 1161 570 
Q 1363 391 1709 391 
Q 2188 391 2477 730 
Q 2766 1069 2766 1631 
L 2766 1759 
L 2194 1759 
z
M 3341 1997 
L 3341 0 
L 2766 0 
L 2766 531 
Q 2569 213 2275 61 
Q 1981 -91 1556 -91 
Q 1019 -91 701 211 
Q 384 513 384 1019 
Q 384 1609 779 1909 
Q 1175 2209 1959 2209 
L 2766 2209 
L 2766 2266 
Q 2766 2663 2505 2880 
Q 2244 3097 1772 3097 
Q 1472 3097 1187 3025 
Q 903 2953 641 2809 
L 641 3341 
Q 956 3463 1253 3523 
Q 1550 3584 1831 3584 
Q 2591 3584 2966 3190 
Q 3341 2797 3341 1997 
z
" transform="scale(0.015625)"/>
       <path id="DejaVuSans-72" d="M 2631 2963 
Q 2534 3019 2420 3045 
Q 2306 3072 2169 3072 
Q 1681 3072 1420 2755 
Q 1159 2438 1159 1844 
L 1159 0 
L 581 0 
L 581 3500 
L 1159 3500 
L 1159 2956 
Q 1341 3275 1631 3429 
Q 1922 3584 2338 3584 
Q 2397 3584 2469 3576 
Q 2541 3569 2628 3553 
L 2631 2963 
z
" transform="scale(0.015625)"/>
      </defs>
      <use xlink:href="#DejaVuSans-59"/>
      <use xlink:href="#DejaVuSans-65" x="47.833984"/>
      <use xlink:href="#DejaVuSans-61" x="109.357422"/>
      <use xlink:href="#DejaVuSans-72" x="170.636719"/>
     </g>
    </g>
   </g>
   <g id="matplotlib.axis_2">
    <g id="ytick_1">
     <g id="line2d_9">
      <defs>
       <path id="m527b712a6b" d="M 0 0 
L -3.5 0 
" style="stroke: #000000; stroke-width: 0.8"/>
      </defs>
      <g>
       <use xlink:href="#m527b712a6b" x="55.760938" y="294.864486" style="stroke: #000000; stroke-width: 0.8"/>
      </g>
     </g>
     <g id="text_10">
      <!-- −1.2 -->
      <g transform="translate(24.478125 298.663704) scale(0.1 -0.1)">
       <defs>
        <path id="DejaVuSans-2212" d="M 678 2272 
L 4684 2272 
L 4684 1741 
L 678 1741 
L 678 2272 
z
" transform="scale(0.015625)"/>
        <path id="DejaVuSans-2e" d="M 684 794 
L 1344 794 
L 1344 0 
L 684 0 
L 684 794 
z
" transform="scale(0.015625)"/>
       </defs>
       <use xlink:href="#DejaVuSans-2212"/>
       <use xlink:href="#DejaVuSans-31" x="83.789062"/>
       <use xlink:href="#DejaVuSans-2e" x="147.412109"/>
       <use xlink:href="#DejaVuSans-32" x="179.199219"/>
      </g>
     </g>
    </g>
    <g id="ytick_2">
     <g id="line2d_10">
      <g>
       <use xlink:href="#m527b712a6b" x="55.760938" y="260.94401" style="stroke: #000000; stroke-width: 0.8"/>
      </g>
     </g>
     <g id="text_11">
      <!-- −1.0 -->
      <g transform="translate(24.478125 264.743229) scale(0.1 -0.1)">
       <use xlink:href="#DejaVuSans-2212"/>
       <use xlink:href="#DejaVuSans-31" x="83.789062"/>
       <use xlink:href="#DejaVuSans-2e" x="147.412109"/>
       <use xlink:href="#DejaVuSans-30" x="179.199219"/>
      </g>
     </g>
    </g>
    <g id="ytick_3">
     <g id="line2d_11">
      <g>
       <use xlink:href="#m527b712a6b" x="55.760938" y="227.023534" style="stroke: #000000; stroke-width: 0.8"/>
      </g>
     </g>
     <g id="text_12">
      <!-- −0.8 -->
      <g transform="translate(24.478125 230.822753) scale(0.1 -0.1)">
       <use xlink:href="#DejaVuSans-2212"/>
       <use xlink:href="#DejaVuSans-30" x="83.789062"/>
       <use xlink:href="#DejaVuSans-2e" x="147.412109"/>
       <use xlink:href="#DejaVuSans-38" x="179.199219"/>
      </g>
     </g>
    </g>
    <g id="ytick_4">
     <g id="line2d_12">
      <g>
       <use xlink:href="#m527b712a6b" x="55.760938" y="193.103058" style="stroke: #000000; stroke-width: 0.8"/>
      </g>
     </g>
     <g id="text_13">
      <!-- −0.6 -->
      <g transform="translate(24.478125 196.902277) scale(0.1 -0.1)">
       <defs>
        <path id="DejaVuSans-36" d="M 2113 2584 
Q 1688 2584 1439 2293 
Q 1191 2003 1191 1497 
Q 1191 994 1439 701 
Q 1688 409 2113 409 
Q 2538 409 2786 701 
Q 3034 994 3034 1497 
Q 3034 2003 2786 2293 
Q 2538 2584 2113 2584 
z
M 3366 4563 
L 3366 3988 
Q 3128 4100 2886 4159 
Q 2644 4219 2406 4219 
Q 1781 4219 1451 3797 
Q 1122 3375 1075 2522 
Q 1259 2794 1537 2939 
Q 1816 3084 2150 3084 
Q 2853 3084 3261 2657 
Q 3669 2231 3669 1497 
Q 3669 778 3244 343 
Q 2819 -91 2113 -91 
Q 1303 -91 875 529 
Q 447 1150 447 2328 
Q 447 3434 972 4092 
Q 1497 4750 2381 4750 
Q 2619 4750 2861 4703 
Q 3103 4656 3366 4563 
z
" transform="scale(0.015625)"/>
       </defs>
       <use xlink:href="#DejaVuSans-2212"/>
       <use xlink:href="#DejaVuSans-30" x="83.789062"/>
       <use xlink:href="#DejaVuSans-2e" x="147.412109"/>
       <use xlink:href="#DejaVuSans-36" x="179.199219"/>
      </g>
     </g>
    </g>
    <g id="ytick_5">
     <g id="line2d_13">
      <g>
       <use xlink:href="#m527b712a6b" x="55.760938" y="159.182582" style="stroke: #000000; stroke-width: 0.8"/>
      </g>
     </g>
     <g id="text_14">
      <!-- −0.4 -->
      <g transform="translate(24.478125 162.981801) scale(0.1 -0.1)">
       <use xlink:href="#DejaVuSans-2212"/>
       <use xlink:href="#DejaVuSans-30" x="83.789062"/>
       <use xlink:href="#DejaVuSans-2e" x="147.412109"/>
       <use xlink:href="#DejaVuSans-34" x="179.199219"/>
      </g>
     </g>
    </g>
    <g id="ytick_6">
     <g id="line2d_14">
      <g>
       <use xlink:href="#m527b712a6b" x="55.760938" y="125.262107" style="stroke: #000000; stroke-width: 0.8"/>
      </g>
     </g>
     <g id="text_15">
      <!-- −0.2 -->
      <g transform="translate(24.478125 129.061325) scale(0.1 -0.1)">
       <use xlink:href="#DejaVuSans-2212"/>
       <use xlink:href="#DejaVuSans-30" x="83.789062"/>
       <use xlink:href="#DejaVuSans-2e" x="147.412109"/>
       <use xlink:href="#DejaVuSans-32" x="179.199219"/>
      </g>
     </g>
    </g>
    <g id="ytick_7">
     <g id="line2d_15">
      <g>
       <use xlink:href="#m527b712a6b" x="55.760938" y="91.341631" style="stroke: #000000; stroke-width: 0.8"/>
      </g>
     </g>
     <g id="text_16">
      <!-- 0.0 -->
      <g transform="translate(32.857813 95.140849) scale(0.1 -0.1)">
       <use xlink:href="#DejaVuSans-30"/>
       <use xlink:href="#DejaVuSans-2e" x="63.623047"/>
       <use xlink:href="#DejaVuSans-30" x="95.410156"/>
      </g>
     </g>
    </g>
    <g id="ytick_8">
     <g id="line2d_16">
      <g>
       <use xlink:href="#m527b712a6b" x="55.760938" y="57.421155" style="stroke: #000000; stroke-width: 0.8"/>
      </g>
     </g>
     <g id="text_17">
      <!-- 0.2 -->
      <g transform="translate(32.857813 61.220374) scale(0.1 -0.1)">
       <use xlink:href="#DejaVuSans-30"/>
       <use xlink:href="#DejaVuSans-2e" x="63.623047"/>
       <use xlink:href="#DejaVuSans-32" x="95.410156"/>
      </g>
     </g>
    </g>
    <g id="ytick_9">
     <g id="line2d_17">
      <g>
       <use xlink:href="#m527b712a6b" x="55.760938" y="23.500679" style="stroke: #000000; stroke-width: 0.8"/>
      </g>
     </g>
     <g id="text_18">
      <!-- 0.4 -->
      <g transform="translate(32.857813 27.299898) scale(0.1 -0.1)">
       <use xlink:href="#DejaVuSans-30"/>
       <use xlink:href="#DejaVuSans-2e" x="63.623047"/>
       <use xlink:href="#DejaVuSans-34" x="95.410156"/>
      </g>
     </g>
    </g>
    <g id="text_19">
     <!-- Anthropogenic non-wmghg effective radiative forcing (W m-2) -->
     <g transform="translate(18.398438 313.229688) rotate(-90) scale(0.1 -0.1)">
      <defs>
       <path id="DejaVuSans-41" d="M 2188 4044 
L 1331 1722 
L 3047 1722 
L 2188 4044 
z
M 1831 4666 
L 2547 4666 
L 4325 0 
L 3669 0 
L 3244 1197 
L 1141 1197 
L 716 0 
L 50 0 
L 1831 4666 
z
" transform="scale(0.015625)"/>
       <path id="DejaVuSans-6e" d="M 3513 2113 
L 3513 0 
L 2938 0 
L 2938 2094 
Q 2938 2591 2744 2837 
Q 2550 3084 2163 3084 
Q 1697 3084 1428 2787 
Q 1159 2491 1159 1978 
L 1159 0 
L 581 0 
L 581 3500 
L 1159 3500 
L 1159 2956 
Q 1366 3272 1645 3428 
Q 1925 3584 2291 3584 
Q 2894 3584 3203 3211 
Q 3513 2838 3513 2113 
z
" transform="scale(0.015625)"/>
       <path id="DejaVuSans-74" d="M 1172 4494 
L 1172 3500 
L 2356 3500 
L 2356 3053 
L 1172 3053 
L 1172 1153 
Q 1172 725 1289 603 
Q 1406 481 1766 481 
L 2356 481 
L 2356 0 
L 1766 0 
Q 1100 0 847 248 
Q 594 497 594 1153 
L 594 3053 
L 172 3053 
L 172 3500 
L 594 3500 
L 594 4494 
L 1172 4494 
z
" transform="scale(0.015625)"/>
       <path id="DejaVuSans-68" d="M 3513 2113 
L 3513 0 
L 2938 0 
L 2938 2094 
Q 2938 2591 2744 2837 
Q 2550 3084 2163 3084 
Q 1697 3084 1428 2787 
Q 1159 2491 1159 1978 
L 1159 0 
L 581 0 
L 581 4863 
L 1159 4863 
L 1159 2956 
Q 1366 3272 1645 3428 
Q 1925 3584 2291 3584 
Q 2894 3584 3203 3211 
Q 3513 2838 3513 2113 
z
" transform="scale(0.015625)"/>
       <path id="DejaVuSans-6f" d="M 1959 3097 
Q 1497 3097 1228 2736 
Q 959 2375 959 1747 
Q 959 1119 1226 758 
Q 1494 397 1959 397 
Q 2419 397 2687 759 
Q 2956 1122 2956 1747 
Q 2956 2369 2687 2733 
Q 2419 3097 1959 3097 
z
M 1959 3584 
Q 2709 3584 3137 3096 
Q 3566 2609 3566 1747 
Q 3566 888 3137 398 
Q 2709 -91 1959 -91 
Q 1206 -91 779 398 
Q 353 888 353 1747 
Q 353 2609 779 3096 
Q 1206 3584 1959 3584 
z
" transform="scale(0.015625)"/>
       <path id="DejaVuSans-70" d="M 1159 525 
L 1159 -1331 
L 581 -1331 
L 581 3500 
L 1159 3500 
L 1159 2969 
Q 1341 3281 1617 3432 
Q 1894 3584 2278 3584 
Q 2916 3584 3314 3078 
Q 3713 2572 3713 1747 
Q 3713 922 3314 415 
Q 2916 -91 2278 -91 
Q 1894 -91 1617 61 
Q 1341 213 1159 525 
z
M 3116 1747 
Q 3116 2381 2855 2742 
Q 2594 3103 2138 3103 
Q 1681 3103 1420 2742 
Q 1159 2381 1159 1747 
Q 1159 1113 1420 752 
Q 1681 391 2138 391 
Q 2594 391 2855 752 
Q 3116 1113 3116 1747 
z
" transform="scale(0.015625)"/>
       <path id="DejaVuSans-67" d="M 2906 1791 
Q 2906 2416 2648 2759 
Q 2391 3103 1925 3103 
Q 1463 3103 1205 2759 
Q 947 2416 947 1791 
Q 947 1169 1205 825 
Q 1463 481 1925 481 
Q 2391 481 2648 825 
Q 2906 1169 2906 1791 
z
M 3481 434 
Q 3481 -459 3084 -895 
Q 2688 -1331 1869 -1331 
Q 1566 -1331 1297 -1286 
Q 1028 -1241 775 -1147 
L 775 -588 
Q 1028 -725 1275 -790 
Q 1522 -856 1778 -856 
Q 2344 -856 2625 -561 
Q 2906 -266 2906 331 
L 2906 616 
Q 2728 306 2450 153 
Q 2172 0 1784 0 
Q 1141 0 747 490 
Q 353 981 353 1791 
Q 353 2603 747 3093 
Q 1141 3584 1784 3584 
Q 2172 3584 2450 3431 
Q 2728 3278 2906 2969 
L 2906 3500 
L 3481 3500 
L 3481 434 
z
" transform="scale(0.015625)"/>
       <path id="DejaVuSans-69" d="M 603 3500 
L 1178 3500 
L 1178 0 
L 603 0 
L 603 3500 
z
M 603 4863 
L 1178 4863 
L 1178 4134 
L 603 4134 
L 603 4863 
z
" transform="scale(0.015625)"/>
       <path id="DejaVuSans-63" d="M 3122 3366 
L 3122 2828 
Q 2878 2963 2633 3030 
Q 2388 3097 2138 3097 
Q 1578 3097 1268 2742 
Q 959 2388 959 1747 
Q 959 1106 1268 751 
Q 1578 397 2138 397 
Q 2388 397 2633 464 
Q 2878 531 3122 666 
L 3122 134 
Q 2881 22 2623 -34 
Q 2366 -91 2075 -91 
Q 1284 -91 818 406 
Q 353 903 353 1747 
Q 353 2603 823 3093 
Q 1294 3584 2113 3584 
Q 2378 3584 2631 3529 
Q 2884 3475 3122 3366 
z
" transform="scale(0.015625)"/>
       <path id="DejaVuSans-20" transform="scale(0.015625)"/>
       <path id="DejaVuSans-2d" d="M 313 2009 
L 1997 2009 
L 1997 1497 
L 313 1497 
L 313 2009 
z
" transform="scale(0.015625)"/>
       <path id="DejaVuSans-77" d="M 269 3500 
L 844 3500 
L 1563 769 
L 2278 3500 
L 2956 3500 
L 3675 769 
L 4391 3500 
L 4966 3500 
L 4050 0 
L 3372 0 
L 2619 2869 
L 1863 0 
L 1184 0 
L 269 3500 
z
" transform="scale(0.015625)"/>
       <path id="DejaVuSans-6d" d="M 3328 2828 
Q 3544 3216 3844 3400 
Q 4144 3584 4550 3584 
Q 5097 3584 5394 3201 
Q 5691 2819 5691 2113 
L 5691 0 
L 5113 0 
L 5113 2094 
Q 5113 2597 4934 2840 
Q 4756 3084 4391 3084 
Q 3944 3084 3684 2787 
Q 3425 2491 3425 1978 
L 3425 0 
L 2847 0 
L 2847 2094 
Q 2847 2600 2669 2842 
Q 2491 3084 2119 3084 
Q 1678 3084 1418 2786 
Q 1159 2488 1159 1978 
L 1159 0 
L 581 0 
L 581 3500 
L 1159 3500 
L 1159 2956 
Q 1356 3278 1631 3431 
Q 1906 3584 2284 3584 
Q 2666 3584 2933 3390 
Q 3200 3197 3328 2828 
z
" transform="scale(0.015625)"/>
       <path id="DejaVuSans-66" d="M 2375 4863 
L 2375 4384 
L 1825 4384 
Q 1516 4384 1395 4259 
Q 1275 4134 1275 3809 
L 1275 3500 
L 2222 3500 
L 2222 3053 
L 1275 3053 
L 1275 0 
L 697 0 
L 697 3053 
L 147 3053 
L 147 3500 
L 697 3500 
L 697 3744 
Q 697 4328 969 4595 
Q 1241 4863 1831 4863 
L 2375 4863 
z
" transform="scale(0.015625)"/>
       <path id="DejaVuSans-76" d="M 191 3500 
L 800 3500 
L 1894 563 
L 2988 3500 
L 3597 3500 
L 2284 0 
L 1503 0 
L 191 3500 
z
" transform="scale(0.015625)"/>
       <path id="DejaVuSans-64" d="M 2906 2969 
L 2906 4863 
L 3481 4863 
L 3481 0 
L 2906 0 
L 2906 525 
Q 2725 213 2448 61 
Q 2172 -91 1784 -91 
Q 1150 -91 751 415 
Q 353 922 353 1747 
Q 353 2572 751 3078 
Q 1150 3584 1784 3584 
Q 2172 3584 2448 3432 
Q 2725 3281 2906 2969 
z
M 947 1747 
Q 947 1113 1208 752 
Q 1469 391 1925 391 
Q 2381 391 2643 752 
Q 2906 1113 2906 1747 
Q 2906 2381 2643 2742 
Q 2381 3103 1925 3103 
Q 1469 3103 1208 2742 
Q 947 2381 947 1747 
z
" transform="scale(0.015625)"/>
       <path id="DejaVuSans-28" d="M 1984 4856 
Q 1566 4138 1362 3434 
Q 1159 2731 1159 2009 
Q 1159 1288 1364 580 
Q 1569 -128 1984 -844 
L 1484 -844 
Q 1016 -109 783 600 
Q 550 1309 550 2009 
Q 550 2706 781 3412 
Q 1013 4119 1484 4856 
L 1984 4856 
z
" transform="scale(0.015625)"/>
       <path id="DejaVuSans-57" d="M 213 4666 
L 850 4666 
L 1831 722 
L 2809 4666 
L 3519 4666 
L 4500 722 
L 5478 4666 
L 6119 4666 
L 4947 0 
L 4153 0 
L 3169 4050 
L 2175 0 
L 1381 0 
L 213 4666 
z
" transform="scale(0.015625)"/>
       <path id="DejaVuSans-29" d="M 513 4856 
L 1013 4856 
Q 1481 4119 1714 3412 
Q 1947 2706 1947 2009 
Q 1947 1309 1714 600 
Q 1481 -109 1013 -844 
L 513 -844 
Q 928 -128 1133 580 
Q 1338 1288 1338 2009 
Q 1338 2731 1133 3434 
Q 928 4138 513 4856 
z
" transform="scale(0.015625)"/>
      </defs>
      <use xlink:href="#DejaVuSans-41"/>
      <use xlink:href="#DejaVuSans-6e" x="68.408203"/>
      <use xlink:href="#DejaVuSans-74" x="131.787109"/>
      <use xlink:href="#DejaVuSans-68" x="170.996094"/>
      <use xlink:href="#DejaVuSans-72" x="234.375"/>
      <use xlink:href="#DejaVuSans-6f" x="273.238281"/>
      <use xlink:href="#DejaVuSans-70" x="334.419922"/>
      <use xlink:href="#DejaVuSans-6f" x="397.896484"/>
      <use xlink:href="#DejaVuSans-67" x="459.078125"/>
      <use xlink:href="#DejaVuSans-65" x="522.554688"/>
      <use xlink:href="#DejaVuSans-6e" x="584.078125"/>
      <use xlink:href="#DejaVuSans-69" x="647.457031"/>
      <use xlink:href="#DejaVuSans-63" x="675.240234"/>
      <use xlink:href="#DejaVuSans-20" x="730.220703"/>
      <use xlink:href="#DejaVuSans-6e" x="762.007812"/>
      <use xlink:href="#DejaVuSans-6f" x="825.386719"/>
      <use xlink:href="#DejaVuSans-6e" x="886.568359"/>
      <use xlink:href="#DejaVuSans-2d" x="949.947266"/>
      <use xlink:href="#DejaVuSans-77" x="986.03125"/>
      <use xlink:href="#DejaVuSans-6d" x="1067.818359"/>
      <use xlink:href="#DejaVuSans-67" x="1165.230469"/>
      <use xlink:href="#DejaVuSans-68" x="1228.707031"/>
      <use xlink:href="#DejaVuSans-67" x="1292.085938"/>
      <use xlink:href="#DejaVuSans-20" x="1355.5625"/>
      <use xlink:href="#DejaVuSans-65" x="1387.349609"/>
      <use xlink:href="#DejaVuSans-66" x="1448.873047"/>
      <use xlink:href="#DejaVuSans-66" x="1484.078125"/>
      <use xlink:href="#DejaVuSans-65" x="1519.283203"/>
      <use xlink:href="#DejaVuSans-63" x="1580.806641"/>
      <use xlink:href="#DejaVuSans-74" x="1635.787109"/>
      <use xlink:href="#DejaVuSans-69" x="1674.996094"/>
      <use xlink:href="#DejaVuSans-76" x="1702.779297"/>
      <use xlink:href="#DejaVuSans-65" x="1761.958984"/>
      <use xlink:href="#DejaVuSans-20" x="1823.482422"/>
      <use xlink:href="#DejaVuSans-72" x="1855.269531"/>
      <use xlink:href="#DejaVuSans-61" x="1896.382812"/>
      <use xlink:href="#DejaVuSans-64" x="1957.662109"/>
      <use xlink:href="#DejaVuSans-69" x="2021.138672"/>
      <use xlink:href="#DejaVuSans-61" x="2048.921875"/>
      <use xlink:href="#DejaVuSans-74" x="2110.201172"/>
      <use xlink:href="#DejaVuSans-69" x="2149.410156"/>
      <use xlink:href="#DejaVuSans-76" x="2177.193359"/>
      <use xlink:href="#DejaVuSans-65" x="2236.373047"/>
      <use xlink:href="#DejaVuSans-20" x="2297.896484"/>
      <use xlink:href="#DejaVuSans-66" x="2329.683594"/>
      <use xlink:href="#DejaVuSans-6f" x="2364.888672"/>
      <use xlink:href="#DejaVuSans-72" x="2426.070312"/>
      <use xlink:href="#DejaVuSans-63" x="2464.933594"/>
      <use xlink:href="#DejaVuSans-69" x="2519.914062"/>
      <use xlink:href="#DejaVuSans-6e" x="2547.697266"/>
      <use xlink:href="#DejaVuSans-67" x="2611.076172"/>
      <use xlink:href="#DejaVuSans-20" x="2674.552734"/>
      <use xlink:href="#DejaVuSans-28" x="2706.339844"/>
      <use xlink:href="#DejaVuSans-57" x="2745.353516"/>
      <use xlink:href="#DejaVuSans-20" x="2844.230469"/>
      <use xlink:href="#DejaVuSans-6d" x="2876.017578"/>
      <use xlink:href="#DejaVuSans-2d" x="2973.429688"/>
      <use xlink:href="#DejaVuSans-32" x="3009.513672"/>
      <use xlink:href="#DejaVuSans-29" x="3073.136719"/>
     </g>
    </g>
   </g>
   <g id="line2d_18">
    <path d="M 73.680895 91.341631 
L 74.636626 91.18975 
L 75.114491 91.239555 
L 75.592357 91.417285 
L 76.548088 91.267094 
L 77.025954 91.4601 
L 77.981685 91.406951 
L 78.45955 91.522586 
L 79.893147 91.451144 
L 80.371012 91.222315 
L 80.848878 91.478689 
L 81.804609 91.385369 
L 82.282474 91.677104 
L 82.76034 91.581861 
L 83.238205 91.601345 
L 83.716071 91.305241 
L 84.193937 91.206078 
L 84.671802 91.225288 
L 85.149668 91.514361 
L 86.105399 91.301263 
L 87.06113 91.504753 
L 87.538995 91.361186 
L 88.016861 91.501083 
L 89.450457 91.401865 
L 89.928323 91.237771 
L 90.406188 91.440395 
L 90.884054 91.387355 
L 91.36192 91.485177 
L 91.839785 91.729222 
L 92.317651 91.612716 
L 92.795516 91.625276 
L 93.751247 91.463294 
L 94.229113 91.467798 
L 94.706978 91.764106 
L 95.662709 91.550821 
L 96.61844 91.812876 
L 97.096306 91.774437 
L 97.574171 91.906431 
L 98.052037 91.824164 
L 98.529902 91.981097 
L 99.007768 91.816613 
L 99.485634 91.784556 
L 99.963499 91.937821 
L 100.441365 91.90528 
L 101.397096 92.179951 
L 101.874961 92.07506 
L 102.352827 92.117537 
L 103.308558 91.964398 
L 103.786423 92.003537 
L 104.264289 92.302889 
L 104.742154 92.208925 
L 107.609348 92.629463 
L 109.042944 92.674238 
L 109.52081 92.885867 
L 109.998675 92.835783 
L 110.954406 93.347305 
L 111.432272 93.280301 
L 111.910137 93.927028 
L 112.388003 93.683101 
L 112.865868 93.699261 
L 113.343734 93.842231 
L 113.821599 94.167434 
L 114.299465 94.135109 
L 114.77733 94.585316 
L 115.255196 94.664512 
L 115.733062 94.957101 
L 116.210927 95.041075 
L 117.644524 95.737299 
L 118.122389 95.772821 
L 118.600255 96.086207 
L 119.07812 96.666741 
L 119.555986 96.612479 
L 120.511717 97.443258 
L 120.989582 97.642222 
L 121.467448 98.181298 
L 121.945313 98.14512 
L 122.423179 98.330981 
L 122.901045 98.675766 
L 123.37891 99.929572 
L 123.856776 99.930489 
L 124.334641 100.426028 
L 125.290372 100.975923 
L 125.768238 101.523513 
L 126.246103 102.378671 
L 126.723969 102.793739 
L 127.201834 102.922137 
L 127.6797 103.447448 
L 128.635431 104.961452 
L 129.113296 105.226418 
L 129.591162 106.145246 
L 130.069027 106.644924 
L 131.502624 108.695985 
L 132.458355 111.359589 
L 132.936221 110.934045 
L 133.891952 112.649868 
L 134.369817 113.461048 
L 134.847683 113.8589 
L 135.325548 115.40383 
L 135.803414 117.881261 
L 136.281279 118.929063 
L 137.23701 121.841961 
L 137.714876 122.505443 
L 138.192741 122.959658 
L 138.670607 123.146288 
L 139.148473 124.389935 
L 139.626338 127.297853 
L 140.104204 127.21994 
L 140.582069 129.953576 
L 141.059935 131.394495 
L 141.5378 132.03454 
L 142.015666 131.759295 
L 142.493531 133.154052 
L 142.971397 135.217625 
L 143.449262 136.616839 
L 144.404993 141.24427 
L 144.882859 145.34885 
L 145.83859 150.089634 
L 146.316455 151.839357 
L 146.794321 156.39371 
L 147.272187 157.642136 
L 147.750052 161.512549 
L 148.227918 164.320853 
L 148.705783 170.583693 
L 149.183649 167.506599 
L 150.13938 173.666904 
L 150.617245 173.942399 
L 151.095111 176.882428 
L 151.572976 181.110455 
L 152.050842 174.940662 
L 152.528707 174.649843 
L 153.006573 180.743716 
L 153.484438 184.007425 
L 153.962304 183.298673 
L 154.44017 171.950892 
L 154.918035 179.321047 
L 155.395901 167.760425 
L 155.873766 171.535382 
L 156.351632 182.831005 
L 156.829497 182.058954 
L 157.307363 182.93435 
L 157.785228 183.304532 
L 158.263094 188.309665 
L 158.740959 187.935273 
L 159.218825 193.008949 
L 159.69669 186.50536 
L 160.652421 166.951924 
L 161.130287 170.489297 
L 162.086018 182.814235 
L 163.041749 194.948354 
L 163.519615 188.31318 
L 163.99748 193.850979 
L 164.475346 201.825046 
L 164.953211 205.152018 
L 165.431077 207.054384 
L 165.908942 208.341626 
L 166.386808 206.309631 
L 166.864673 194.576695 
L 167.342539 192.696407 
L 167.820404 202.716988 
L 168.29827 206.179714 
L 168.776135 202.070249 
L 169.254001 211.672531 
L 169.731866 215.508813 
L 170.209732 216.472553 
L 170.687598 218.023533 
L 171.165463 218.058626 
L 172.121194 234.603368 
L 172.59906 239.162179 
L 173.076925 239.569424 
L 173.554791 244.70153 
L 174.032656 248.626959 
L 174.510522 263.934458 
L 174.988387 265.442871 
L 175.944118 272.766892 
L 176.899849 276.967612 
L 177.377715 274.256502 
L 177.85558 278.102104 
L 178.333446 280.352998 
L 178.811312 286.435957 
L 179.289177 284.521227 
L 179.767043 286.773096 
L 180.244908 291.096307 
L 181.200639 280.371903 
L 181.678505 285.354025 
L 182.15637 284.47597 
L 182.634236 282.621054 
L 183.112101 283.137713 
L 183.589967 280.638065 
L 184.067832 273.572954 
L 185.023563 264.124909 
L 185.501429 263.939534 
L 186.45716 259.964868 
L 186.935026 260.741319 
L 187.890757 256.956169 
L 188.368622 254.342699 
L 188.846488 252.524573 
L 189.324353 244.774895 
L 190.280084 237.440603 
L 190.75795 232.328539 
L 191.235815 228.561934 
L 191.713681 230.254821 
L 192.191546 224.444567 
L 192.669412 215.495418 
L 193.147277 214.970695 
L 193.625143 214.724514 
L 194.103009 213.320291 
L 194.580874 217.114557 
L 195.536605 226.117787 
L 196.014471 227.00446 
L 196.970202 219.658125 
L 197.448067 212.526932 
L 197.925933 209.226542 
L 198.403798 210.124614 
L 199.359529 204.649817 
L 199.837395 203.497509 
L 200.31526 184.724372 
L 206.527512 117.840397 
L 207.483243 106.838093 
L 210.350437 103.46057 
L 211.784033 101.156317 
L 212.261899 100.25588 
L 214.173361 106.041472 
L 216.084823 110.998171 
L 217.996285 115.201941 
L 219.429882 117.877442 
L 220.863478 120.188906 
L 221.819209 121.555973 
L 223.252806 122.17304 
L 224.686402 122.557631 
L 226.119999 122.743205 
L 226.597865 122.76573 
L 228.509327 121.984254 
L 230.898654 120.734461 
L 232.332251 119.811215 
L 234.721579 118.003551 
L 236.633041 116.294612 
L 239.022368 113.647612 
L 240.93383 111.301487 
L 242.845293 111.660949 
L 245.23462 111.871036 
L 248.579679 111.913308 
L 256.225527 111.686765 
L 263.871376 111.569222 
L 272.950821 111.511447 
L 282.030266 111.192176 
L 292.543308 110.599764 
L 302.100618 109.842259 
L 312.135795 108.80372 
L 312.61366 108.749269 
L 316.436584 109.379144 
L 321.21524 109.91708 
L 328.383223 110.487699 
L 339.37413 111.122617 
L 354.665827 111.769855 
L 373.780448 112.354967 
L 397.195859 112.812671 
L 429.212849 113.202246 
L 432.080043 113.226428 
L 432.080043 113.226428 
" clip-path="url(#p413060516a)" style="fill: none; stroke: #1f77b4; stroke-width: 1.5; stroke-linecap: square"/>
   </g>
   <g id="line2d_19">
    <path d="M 73.680895 91.341631 
L 74.636626 91.18975 
L 75.114491 91.239555 
L 75.592357 91.417285 
L 76.548088 91.267094 
L 77.025954 91.4601 
L 77.981685 91.406951 
L 78.45955 91.522586 
L 79.893147 91.451144 
L 80.371012 91.222315 
L 80.848878 91.478689 
L 81.804609 91.385369 
L 82.282474 91.677104 
L 82.76034 91.581861 
L 83.238205 91.601345 
L 83.716071 91.305241 
L 84.193937 91.206078 
L 84.671802 91.225288 
L 85.149668 91.514361 
L 86.105399 91.301263 
L 87.06113 91.504753 
L 87.538995 91.361186 
L 88.016861 91.501083 
L 89.450457 91.401865 
L 89.928323 91.237771 
L 90.406188 91.440395 
L 90.884054 91.387355 
L 91.36192 91.485177 
L 91.839785 91.729222 
L 92.317651 91.612716 
L 92.795516 91.625276 
L 93.751247 91.463294 
L 94.229113 91.467798 
L 94.706978 91.764106 
L 95.662709 91.550821 
L 96.61844 91.812876 
L 97.096306 91.774437 
L 97.574171 91.906431 
L 98.052037 91.824164 
L 98.529902 91.981097 
L 99.007768 91.816613 
L 99.485634 91.784556 
L 99.963499 91.937821 
L 100.441365 91.90528 
L 101.397096 92.179951 
L 101.874961 92.07506 
L 102.352827 92.117537 
L 103.308558 91.964398 
L 103.786423 92.003537 
L 104.264289 92.302889 
L 104.742154 92.208925 
L 107.609348 92.629463 
L 109.042944 92.674238 
L 109.52081 92.885867 
L 109.998675 92.835783 
L 110.954406 93.347305 
L 111.432272 93.280301 
L 111.910137 93.927028 
L 112.388003 93.683101 
L 112.865868 93.699261 
L 113.343734 93.842231 
L 113.821599 94.167434 
L 114.299465 94.135109 
L 114.77733 94.585316 
L 115.255196 94.664512 
L 115.733062 94.957101 
L 116.210927 95.041075 
L 117.644524 95.737299 
L 118.122389 95.772821 
L 118.600255 96.086207 
L 119.07812 96.666741 
L 119.555986 96.612479 
L 120.511717 97.443258 
L 120.989582 97.642222 
L 121.467448 98.181298 
L 121.945313 98.14512 
L 122.423179 98.330981 
L 122.901045 98.675766 
L 123.37891 99.929572 
L 123.856776 99.930489 
L 124.334641 100.426028 
L 125.290372 100.975923 
L 125.768238 101.523513 
L 126.246103 102.378671 
L 126.723969 102.793739 
L 127.201834 102.922137 
L 127.6797 103.447448 
L 128.635431 104.961452 
L 129.113296 105.226418 
L 129.591162 106.145246 
L 130.069027 106.644924 
L 131.502624 108.695985 
L 132.458355 111.359589 
L 132.936221 110.934045 
L 133.891952 112.649868 
L 134.369817 113.461048 
L 134.847683 113.8589 
L 135.325548 115.40383 
L 135.803414 117.881261 
L 136.281279 118.929063 
L 137.23701 121.841961 
L 137.714876 122.505443 
L 138.192741 122.959658 
L 138.670607 123.146288 
L 139.148473 124.389935 
L 139.626338 127.297853 
L 140.104204 127.21994 
L 140.582069 129.953576 
L 141.059935 131.394495 
L 141.5378 132.03454 
L 142.015666 131.759295 
L 142.493531 133.154052 
L 142.971397 135.217625 
L 143.449262 136.616839 
L 144.404993 141.24427 
L 144.882859 145.34885 
L 145.83859 150.089634 
L 146.316455 151.839357 
L 146.794321 156.39371 
L 147.272187 157.642136 
L 147.750052 161.512549 
L 148.227918 164.320853 
L 148.705783 170.583693 
L 149.183649 167.506599 
L 150.13938 173.666904 
L 150.617245 173.942399 
L 151.095111 176.882428 
L 151.572976 181.110455 
L 152.050842 174.940662 
L 152.528707 174.649843 
L 153.006573 180.743716 
L 153.484438 184.007425 
L 153.962304 183.298673 
L 154.44017 171.950892 
L 154.918035 179.321047 
L 155.395901 167.760425 
L 155.873766 171.535382 
L 156.351632 182.831005 
L 156.829497 182.058954 
L 157.307363 182.93435 
L 157.785228 183.304532 
L 158.263094 188.309665 
L 158.740959 187.935273 
L 159.218825 193.008949 
L 159.69669 186.50536 
L 160.652421 166.951924 
L 161.130287 170.489297 
L 162.086018 182.814235 
L 163.041749 194.948354 
L 163.519615 188.31318 
L 163.99748 193.850979 
L 164.475346 201.825046 
L 164.953211 205.152018 
L 165.431077 207.054384 
L 165.908942 208.341626 
L 166.386808 206.309631 
L 166.864673 194.576695 
L 167.342539 192.696407 
L 167.820404 202.716988 
L 168.29827 206.179714 
L 168.776135 202.070249 
L 169.254001 211.672531 
L 169.731866 215.508813 
L 170.209732 216.472553 
L 170.687598 218.023533 
L 171.165463 218.058626 
L 172.121194 234.603368 
L 172.59906 239.162179 
L 173.076925 239.569424 
L 173.554791 244.70153 
L 174.032656 248.626959 
L 174.510522 263.934458 
L 174.988387 265.442871 
L 175.944118 272.766892 
L 176.899849 276.967612 
L 177.377715 274.256502 
L 177.85558 278.102104 
L 178.333446 280.352998 
L 178.811312 286.435957 
L 179.289177 284.521227 
L 179.767043 286.773096 
L 180.244908 291.096307 
L 181.200639 280.371903 
L 181.678505 285.354025 
L 182.15637 284.47597 
L 182.634236 282.621054 
L 183.112101 283.137713 
L 183.589967 280.638065 
L 184.067832 273.572954 
L 185.023563 264.124909 
L 185.501429 263.939534 
L 186.45716 259.964868 
L 186.935026 260.741319 
L 187.890757 256.956169 
L 188.368622 254.342699 
L 188.846488 252.524573 
L 189.324353 244.774895 
L 190.280084 237.440603 
L 190.75795 232.328539 
L 191.235815 228.561934 
L 191.713681 230.254821 
L 192.191546 224.444567 
L 192.669412 215.495418 
L 193.147277 214.970695 
L 193.625143 214.724514 
L 194.103009 213.320291 
L 194.580874 217.114557 
L 195.536605 226.117787 
L 196.014471 227.00446 
L 196.970202 219.658125 
L 197.448067 212.526932 
L 197.925933 209.226542 
L 198.403798 210.124614 
L 199.359529 204.649817 
L 199.837395 203.497509 
L 200.31526 184.725079 
L 202.226723 160.654645 
L 202.704588 154.443459 
L 203.660319 153.482645 
L 204.61605 152.849816 
L 205.571781 152.44492 
L 206.527512 152.276073 
L 207.483243 152.321397 
L 209.394705 146.21443 
L 217.040554 123.703572 
L 219.429882 121.297425 
L 221.341344 119.080184 
L 221.819209 118.482905 
L 223.252806 118.171074 
L 224.686402 117.662523 
L 227.553596 116.275536 
L 229.942923 114.995761 
L 231.37652 114.10091 
L 233.287982 111.251138 
L 235.199444 108.013281 
L 236.155175 106.255927 
L 239.022368 103.548862 
L 241.411696 101.261689 
L 243.801024 99.656145 
L 246.190351 98.329923 
L 248.579679 97.230288 
L 251.446872 96.158709 
L 254.314065 95.315111 
L 257.659124 94.577058 
L 261.004183 94.071589 
L 264.349241 93.775023 
L 271.517224 93.276124 
L 277.729476 92.617379 
L 283.463863 91.785895 
L 289.198249 90.723913 
L 294.45477 89.536802 
L 299.711291 88.137165 
L 304.967812 86.517663 
L 310.702198 84.501989 
L 312.61366 83.739394 
L 314.525122 84.978433 
L 316.436584 85.92946 
L 318.825912 86.838227 
L 321.693105 87.662253 
L 325.038164 88.392803 
L 329.338954 89.108463 
L 335.07334 89.823352 
L 342.241323 90.482324 
L 351.320768 91.085431 
L 363.267406 91.642182 
L 379.514834 92.155501 
L 401.974514 92.628295 
L 431.602177 92.983807 
L 432.080043 92.986039 
L 432.080043 92.986039 
" clip-path="url(#p413060516a)" style="fill: none; stroke: #ff7f0e; stroke-width: 1.5; stroke-linecap: square"/>
   </g>
   <g id="line2d_20">
    <path d="M 73.680895 91.341631 
L 74.636626 91.18975 
L 75.114491 91.239555 
L 75.592357 91.417285 
L 76.548088 91.267094 
L 77.025954 91.4601 
L 77.981685 91.406951 
L 78.45955 91.522586 
L 79.893147 91.451144 
L 80.371012 91.222315 
L 80.848878 91.478689 
L 81.804609 91.385369 
L 82.282474 91.677104 
L 82.76034 91.581861 
L 83.238205 91.601345 
L 83.716071 91.305241 
L 84.193937 91.206078 
L 84.671802 91.225288 
L 85.149668 91.514361 
L 86.105399 91.301263 
L 87.06113 91.504753 
L 87.538995 91.361186 
L 88.016861 91.501083 
L 89.450457 91.401865 
L 89.928323 91.237771 
L 90.406188 91.440395 
L 90.884054 91.387355 
L 91.36192 91.485177 
L 91.839785 91.729222 
L 92.317651 91.612716 
L 92.795516 91.625276 
L 93.751247 91.463294 
L 94.229113 91.467798 
L 94.706978 91.764106 
L 95.662709 91.550821 
L 96.61844 91.812876 
L 97.096306 91.774437 
L 97.574171 91.906431 
L 98.052037 91.824164 
L 98.529902 91.981097 
L 99.007768 91.816613 
L 99.485634 91.784556 
L 99.963499 91.937821 
L 100.441365 91.90528 
L 101.397096 92.179951 
L 101.874961 92.07506 
L 102.352827 92.117537 
L 103.308558 91.964398 
L 103.786423 92.003537 
L 104.264289 92.302889 
L 104.742154 92.208925 
L 107.609348 92.629463 
L 109.042944 92.674238 
L 109.52081 92.885867 
L 109.998675 92.835783 
L 110.954406 93.347305 
L 111.432272 93.280301 
L 111.910137 93.927028 
L 112.388003 93.683101 
L 112.865868 93.699261 
L 113.343734 93.842231 
L 113.821599 94.167434 
L 114.299465 94.135109 
L 114.77733 94.585316 
L 115.255196 94.664512 
L 115.733062 94.957101 
L 116.210927 95.041075 
L 117.644524 95.737299 
L 118.122389 95.772821 
L 118.600255 96.086207 
L 119.07812 96.666741 
L 119.555986 96.612479 
L 120.511717 97.443258 
L 120.989582 97.642222 
L 121.467448 98.181298 
L 121.945313 98.14512 
L 122.423179 98.330981 
L 122.901045 98.675766 
L 123.37891 99.929572 
L 123.856776 99.930489 
L 124.334641 100.426028 
L 125.290372 100.975923 
L 125.768238 101.523513 
L 126.246103 102.378671 
L 126.723969 102.793739 
L 127.201834 102.922137 
L 127.6797 103.447448 
L 128.635431 104.961452 
L 129.113296 105.226418 
L 129.591162 106.145246 
L 130.069027 106.644924 
L 131.502624 108.695985 
L 132.458355 111.359589 
L 132.936221 110.934045 
L 133.891952 112.649868 
L 134.369817 113.461048 
L 134.847683 113.8589 
L 135.325548 115.40383 
L 135.803414 117.881261 
L 136.281279 118.929063 
L 137.23701 121.841961 
L 137.714876 122.505443 
L 138.192741 122.959658 
L 138.670607 123.146288 
L 139.148473 124.389935 
L 139.626338 127.297853 
L 140.104204 127.21994 
L 140.582069 129.953576 
L 141.059935 131.394495 
L 141.5378 132.03454 
L 142.015666 131.759295 
L 142.493531 133.154052 
L 142.971397 135.217625 
L 143.449262 136.616839 
L 144.404993 141.24427 
L 144.882859 145.34885 
L 145.83859 150.089634 
L 146.316455 151.839357 
L 146.794321 156.39371 
L 147.272187 157.642136 
L 147.750052 161.512549 
L 148.227918 164.320853 
L 148.705783 170.583693 
L 149.183649 167.506599 
L 150.13938 173.666904 
L 150.617245 173.942399 
L 151.095111 176.882428 
L 151.572976 181.110455 
L 152.050842 174.940662 
L 152.528707 174.649843 
L 153.006573 180.743716 
L 153.484438 184.007425 
L 153.962304 183.298673 
L 154.44017 171.950892 
L 154.918035 179.321047 
L 155.395901 167.760425 
L 155.873766 171.535382 
L 156.351632 182.831005 
L 156.829497 182.058954 
L 157.307363 182.93435 
L 157.785228 183.304532 
L 158.263094 188.309665 
L 158.740959 187.935273 
L 159.218825 193.008949 
L 159.69669 186.50536 
L 160.652421 166.951924 
L 161.130287 170.489297 
L 162.086018 182.814235 
L 163.041749 194.948354 
L 163.519615 188.31318 
L 163.99748 193.850979 
L 164.475346 201.825046 
L 164.953211 205.152018 
L 165.431077 207.054384 
L 165.908942 208.341626 
L 166.386808 206.309631 
L 166.864673 194.576695 
L 167.342539 192.696407 
L 167.820404 202.716988 
L 168.29827 206.179714 
L 168.776135 202.070249 
L 169.254001 211.672531 
L 169.731866 215.508813 
L 170.209732 216.472553 
L 170.687598 218.023533 
L 171.165463 218.058626 
L 172.121194 234.603368 
L 172.59906 239.162179 
L 173.076925 239.569424 
L 173.554791 244.70153 
L 174.032656 248.626959 
L 174.510522 263.934458 
L 174.988387 265.442871 
L 175.944118 272.766892 
L 176.899849 276.967612 
L 177.377715 274.256502 
L 177.85558 278.102104 
L 178.333446 280.352998 
L 178.811312 286.435957 
L 179.289177 284.521227 
L 179.767043 286.773096 
L 180.244908 291.096307 
L 181.200639 280.371903 
L 181.678505 285.354025 
L 182.15637 284.47597 
L 182.634236 282.621054 
L 183.112101 283.137713 
L 183.589967 280.638065 
L 184.067832 273.572954 
L 185.023563 264.124909 
L 185.501429 263.939534 
L 186.45716 259.964868 
L 186.935026 260.741319 
L 187.890757 256.956169 
L 188.368622 254.342699 
L 188.846488 252.524573 
L 189.324353 244.774895 
L 190.280084 237.440603 
L 190.75795 232.328539 
L 191.235815 228.561934 
L 191.713681 230.254821 
L 192.191546 224.444567 
L 192.669412 215.495418 
L 193.147277 214.970695 
L 193.625143 214.724514 
L 194.103009 213.320291 
L 194.580874 217.114557 
L 195.536605 226.117787 
L 196.014471 227.00446 
L 196.970202 219.658125 
L 197.448067 212.526932 
L 197.925933 209.226542 
L 198.403798 210.124614 
L 199.359529 204.649817 
L 199.837395 203.497509 
L 200.31526 184.725242 
L 202.704588 175.27999 
L 204.61605 172.445949 
L 206.527512 169.975581 
L 208.438974 167.921796 
L 210.828302 165.868598 
L 212.739764 164.290351 
L 214.651226 162.936325 
L 216.562688 161.344123 
L 217.040554 160.910994 
L 220.385613 154.698427 
L 223.252806 148.984844 
L 227.07573 140.782425 
L 230.898654 131.801264 
L 233.287982 126.271115 
L 236.633041 118.50224 
L 241.411696 105.582688 
L 242.845293 102.541229 
L 244.278889 100.230578 
L 245.712486 98.496927 
L 247.146082 97.217519 
L 248.579679 96.292291 
L 250.013276 95.640609 
L 251.446872 95.19783 
L 253.358334 94.842097 
L 255.747662 94.641103 
L 260.048452 94.57075 
L 264.827107 94.439368 
L 269.605762 94.03872 
L 273.428687 93.471219 
L 276.773745 92.740733 
L 280.118804 91.761492 
L 282.985997 90.706593 
L 285.85319 89.437948 
L 288.720384 87.943099 
L 291.587577 86.209985 
L 294.45477 84.223605 
L 297.321963 81.969369 
L 300.189156 79.431176 
L 303.056349 76.589533 
L 305.923543 73.423318 
L 308.790736 69.914288 
L 311.657929 66.045411 
L 312.61366 64.666144 
L 314.525122 67.040791 
L 315.958719 68.488845 
L 317.870181 70.070071 
L 319.781643 71.346182 
L 322.170971 72.626078 
L 324.560298 73.651087 
L 327.427491 74.641425 
L 330.77255 75.564679 
L 335.07334 76.501364 
L 340.329861 77.392144 
L 346.542113 78.209452 
L 354.187961 78.988233 
L 364.223137 79.768029 
L 377.125507 80.523856 
L 392.895069 81.226992 
L 414.399018 81.96268 
L 432.080043 82.44485 
L 432.080043 82.44485 
" clip-path="url(#p413060516a)" style="fill: none; stroke: #2ca02c; stroke-width: 1.5; stroke-linecap: square"/>
   </g>
   <g id="line2d_21">
    <path d="M 73.680895 91.341631 
L 74.636626 91.18975 
L 75.114491 91.239555 
L 75.592357 91.417285 
L 76.548088 91.267094 
L 77.025954 91.4601 
L 77.981685 91.406951 
L 78.45955 91.522586 
L 79.893147 91.451144 
L 80.371012 91.222315 
L 80.848878 91.478689 
L 81.804609 91.385369 
L 82.282474 91.677104 
L 82.76034 91.581861 
L 83.238205 91.601345 
L 83.716071 91.305241 
L 84.193937 91.206078 
L 84.671802 91.225288 
L 85.149668 91.514361 
L 86.105399 91.301263 
L 87.06113 91.504753 
L 87.538995 91.361186 
L 88.016861 91.501083 
L 89.450457 91.401865 
L 89.928323 91.237771 
L 90.406188 91.440395 
L 90.884054 91.387355 
L 91.36192 91.485177 
L 91.839785 91.729222 
L 92.317651 91.612716 
L 92.795516 91.625276 
L 93.751247 91.463294 
L 94.229113 91.467798 
L 94.706978 91.764106 
L 95.662709 91.550821 
L 96.61844 91.812876 
L 97.096306 91.774437 
L 97.574171 91.906431 
L 98.052037 91.824164 
L 98.529902 91.981097 
L 99.007768 91.816613 
L 99.485634 91.784556 
L 99.963499 91.937821 
L 100.441365 91.90528 
L 101.397096 92.179951 
L 101.874961 92.07506 
L 102.352827 92.117537 
L 103.308558 91.964398 
L 103.786423 92.003537 
L 104.264289 92.302889 
L 104.742154 92.208925 
L 107.609348 92.629463 
L 109.042944 92.674238 
L 109.52081 92.885867 
L 109.998675 92.835783 
L 110.954406 93.347305 
L 111.432272 93.280301 
L 111.910137 93.927028 
L 112.388003 93.683101 
L 112.865868 93.699261 
L 113.343734 93.842231 
L 113.821599 94.167434 
L 114.299465 94.135109 
L 114.77733 94.585316 
L 115.255196 94.664512 
L 115.733062 94.957101 
L 116.210927 95.041075 
L 117.644524 95.737299 
L 118.122389 95.772821 
L 118.600255 96.086207 
L 119.07812 96.666741 
L 119.555986 96.612479 
L 120.511717 97.443258 
L 120.989582 97.642222 
L 121.467448 98.181298 
L 121.945313 98.14512 
L 122.423179 98.330981 
L 122.901045 98.675766 
L 123.37891 99.929572 
L 123.856776 99.930489 
L 124.334641 100.426028 
L 125.290372 100.975923 
L 125.768238 101.523513 
L 126.246103 102.378671 
L 126.723969 102.793739 
L 127.201834 102.922137 
L 127.6797 103.447448 
L 128.635431 104.961452 
L 129.113296 105.226418 
L 129.591162 106.145246 
L 130.069027 106.644924 
L 131.502624 108.695985 
L 132.458355 111.359589 
L 132.936221 110.934045 
L 133.891952 112.649868 
L 134.369817 113.461048 
L 134.847683 113.8589 
L 135.325548 115.40383 
L 135.803414 117.881261 
L 136.281279 118.929063 
L 137.23701 121.841961 
L 137.714876 122.505443 
L 138.192741 122.959658 
L 138.670607 123.146288 
L 139.148473 124.389935 
L 139.626338 127.297853 
L 140.104204 127.21994 
L 140.582069 129.953576 
L 141.059935 131.394495 
L 141.5378 132.03454 
L 142.015666 131.759295 
L 142.493531 133.154052 
L 142.971397 135.217625 
L 143.449262 136.616839 
L 144.404993 141.24427 
L 144.882859 145.34885 
L 145.83859 150.089634 
L 146.316455 151.839357 
L 146.794321 156.39371 
L 147.272187 157.642136 
L 147.750052 161.512549 
L 148.227918 164.320853 
L 148.705783 170.583693 
L 149.183649 167.506599 
L 150.13938 173.666904 
L 150.617245 173.942399 
L 151.095111 176.882428 
L 151.572976 181.110455 
L 152.050842 174.940662 
L 152.528707 174.649843 
L 153.006573 180.743716 
L 153.484438 184.007425 
L 153.962304 183.298673 
L 154.44017 171.950892 
L 154.918035 179.321047 
L 155.395901 167.760425 
L 155.873766 171.535382 
L 156.351632 182.831005 
L 156.829497 182.058954 
L 157.307363 182.93435 
L 157.785228 183.304532 
L 158.263094 188.309665 
L 158.740959 187.935273 
L 159.218825 193.008949 
L 159.69669 186.50536 
L 160.652421 166.951924 
L 161.130287 170.489297 
L 162.086018 182.814235 
L 163.041749 194.948354 
L 163.519615 188.31318 
L 163.99748 193.850979 
L 164.475346 201.825046 
L 164.953211 205.152018 
L 165.431077 207.054384 
L 165.908942 208.341626 
L 166.386808 206.309631 
L 166.864673 194.576695 
L 167.342539 192.696407 
L 167.820404 202.716988 
L 168.29827 206.179714 
L 168.776135 202.070249 
L 169.254001 211.672531 
L 169.731866 215.508813 
L 170.209732 216.472553 
L 170.687598 218.023533 
L 171.165463 218.058626 
L 172.121194 234.603368 
L 172.59906 239.162179 
L 173.076925 239.569424 
L 173.554791 244.70153 
L 174.032656 248.626959 
L 174.510522 263.934458 
L 174.988387 265.442871 
L 175.944118 272.766892 
L 176.899849 276.967612 
L 177.377715 274.256502 
L 177.85558 278.102104 
L 178.333446 280.352998 
L 178.811312 286.435957 
L 179.289177 284.521227 
L 179.767043 286.773096 
L 180.244908 291.096307 
L 181.200639 280.371903 
L 181.678505 285.354025 
L 182.15637 284.47597 
L 182.634236 282.621054 
L 183.112101 283.137713 
L 183.589967 280.638065 
L 184.067832 273.572954 
L 185.023563 264.124909 
L 185.501429 263.939534 
L 186.45716 259.964868 
L 186.935026 260.741319 
L 187.890757 256.956169 
L 188.368622 254.342699 
L 188.846488 252.524573 
L 189.324353 244.774895 
L 190.280084 237.440603 
L 190.75795 232.328539 
L 191.235815 228.561934 
L 191.713681 230.254821 
L 192.191546 224.444567 
L 192.669412 215.495418 
L 193.147277 214.970695 
L 193.625143 214.724514 
L 194.103009 213.320291 
L 194.580874 217.114557 
L 195.536605 226.117787 
L 196.014471 227.00446 
L 196.970202 219.658125 
L 197.448067 212.526932 
L 197.925933 209.226542 
L 198.403798 210.124614 
L 199.359529 204.649817 
L 199.837395 203.497509 
L 200.31526 184.725989 
L 202.226723 166.619956 
L 202.704588 161.993097 
L 204.61605 159.473261 
L 206.527512 156.525712 
L 207.483243 154.939856 
L 208.91684 150.786358 
L 210.828302 146.100695 
L 212.739764 141.526062 
L 214.651226 136.375034 
L 217.040554 130.556569 
L 218.952016 126.574782 
L 220.863478 123.156948 
L 222.297075 120.625093 
L 224.208537 116.913018 
L 226.597865 112.851302 
L 231.37652 99.338055 
L 234.721579 93.077162 
L 236.155175 90.208346 
L 238.066637 87.8893 
L 239.978099 85.25454 
L 240.93383 83.81766 
L 243.801024 84.784809 
L 247.146082 85.672183 
L 250.491141 86.320719 
L 253.8362 86.753005 
L 257.659124 87.014674 
L 261.482048 87.063062 
L 265.782838 86.901208 
L 269.605762 86.510422 
L 273.428687 85.881318 
L 277.251611 85.036114 
L 281.552401 83.848651 
L 285.85319 82.431095 
L 290.631846 80.607646 
L 295.410501 78.538645 
L 300.189156 76.235829 
L 305.445677 73.442611 
L 310.702198 70.38432 
L 312.61366 69.206224 
L 315.002988 70.257828 
L 317.392315 71.036064 
L 320.259509 71.718207 
L 324.082433 72.358442 
L 328.861088 72.912106 
L 336.029071 73.490271 
L 346.542113 74.113344 
L 360.878079 74.740129 
L 379.9927 75.3548 
L 406.75317 75.96523 
L 432.080043 76.38612 
L 432.080043 76.38612 
" clip-path="url(#p413060516a)" style="fill: none; stroke: #d62728; stroke-width: 1.5; stroke-linecap: square"/>
   </g>
   <g id="line2d_22">
    <path d="M 73.680895 91.341631 
L 74.636626 91.18975 
L 75.114491 91.239555 
L 75.592357 91.417285 
L 76.548088 91.267094 
L 77.025954 91.4601 
L 77.981685 91.406951 
L 78.45955 91.522586 
L 79.893147 91.451144 
L 80.371012 91.222315 
L 80.848878 91.478689 
L 81.804609 91.385369 
L 82.282474 91.677104 
L 82.76034 91.581861 
L 83.238205 91.601345 
L 83.716071 91.305241 
L 84.193937 91.206078 
L 84.671802 91.225288 
L 85.149668 91.514361 
L 86.105399 91.301263 
L 87.06113 91.504753 
L 87.538995 91.361186 
L 88.016861 91.501083 
L 89.450457 91.401865 
L 89.928323 91.237771 
L 90.406188 91.440395 
L 90.884054 91.387355 
L 91.36192 91.485177 
L 91.839785 91.729222 
L 92.317651 91.612716 
L 92.795516 91.625276 
L 93.751247 91.463294 
L 94.229113 91.467798 
L 94.706978 91.764106 
L 95.662709 91.550821 
L 96.61844 91.812876 
L 97.096306 91.774437 
L 97.574171 91.906431 
L 98.052037 91.824164 
L 98.529902 91.981097 
L 99.007768 91.816613 
L 99.485634 91.784556 
L 99.963499 91.937821 
L 100.441365 91.90528 
L 101.397096 92.179951 
L 101.874961 92.07506 
L 102.352827 92.117537 
L 103.308558 91.964398 
L 103.786423 92.003537 
L 104.264289 92.302889 
L 104.742154 92.208925 
L 107.609348 92.629463 
L 109.042944 92.674238 
L 109.52081 92.885867 
L 109.998675 92.835783 
L 110.954406 93.347305 
L 111.432272 93.280301 
L 111.910137 93.927028 
L 112.388003 93.683101 
L 112.865868 93.699261 
L 113.343734 93.842231 
L 113.821599 94.167434 
L 114.299465 94.135109 
L 114.77733 94.585316 
L 115.255196 94.664512 
L 115.733062 94.957101 
L 116.210927 95.041075 
L 117.644524 95.737299 
L 118.122389 95.772821 
L 118.600255 96.086207 
L 119.07812 96.666741 
L 119.555986 96.612479 
L 120.511717 97.443258 
L 120.989582 97.642222 
L 121.467448 98.181298 
L 121.945313 98.14512 
L 122.423179 98.330981 
L 122.901045 98.675766 
L 123.37891 99.929572 
L 123.856776 99.930489 
L 124.334641 100.426028 
L 125.290372 100.975923 
L 125.768238 101.523513 
L 126.246103 102.378671 
L 126.723969 102.793739 
L 127.201834 102.922137 
L 127.6797 103.447448 
L 128.635431 104.961452 
L 129.113296 105.226418 
L 129.591162 106.145246 
L 130.069027 106.644924 
L 131.502624 108.695985 
L 132.458355 111.359589 
L 132.936221 110.934045 
L 133.891952 112.649868 
L 134.369817 113.461048 
L 134.847683 113.8589 
L 135.325548 115.40383 
L 135.803414 117.881261 
L 136.281279 118.929063 
L 137.23701 121.841961 
L 137.714876 122.505443 
L 138.192741 122.959658 
L 138.670607 123.146288 
L 139.148473 124.389935 
L 139.626338 127.297853 
L 140.104204 127.21994 
L 140.582069 129.953576 
L 141.059935 131.394495 
L 141.5378 132.03454 
L 142.015666 131.759295 
L 142.493531 133.154052 
L 142.971397 135.217625 
L 143.449262 136.616839 
L 144.404993 141.24427 
L 144.882859 145.34885 
L 145.83859 150.089634 
L 146.316455 151.839357 
L 146.794321 156.39371 
L 147.272187 157.642136 
L 147.750052 161.512549 
L 148.227918 164.320853 
L 148.705783 170.583693 
L 149.183649 167.506599 
L 150.13938 173.666904 
L 150.617245 173.942399 
L 151.095111 176.882428 
L 151.572976 181.110455 
L 152.050842 174.940662 
L 152.528707 174.649843 
L 153.006573 180.743716 
L 153.484438 184.007425 
L 153.962304 183.298673 
L 154.44017 171.950892 
L 154.918035 179.321047 
L 155.395901 167.760425 
L 155.873766 171.535382 
L 156.351632 182.831005 
L 156.829497 182.058954 
L 157.307363 182.93435 
L 157.785228 183.304532 
L 158.263094 188.309665 
L 158.740959 187.935273 
L 159.218825 193.008949 
L 159.69669 186.50536 
L 160.652421 166.951924 
L 161.130287 170.489297 
L 162.086018 182.814235 
L 163.041749 194.948354 
L 163.519615 188.31318 
L 163.99748 193.850979 
L 164.475346 201.825046 
L 164.953211 205.152018 
L 165.431077 207.054384 
L 165.908942 208.341626 
L 166.386808 206.309631 
L 166.864673 194.576695 
L 167.342539 192.696407 
L 167.820404 202.716988 
L 168.29827 206.179714 
L 168.776135 202.070249 
L 169.254001 211.672531 
L 169.731866 215.508813 
L 170.209732 216.472553 
L 170.687598 218.023533 
L 171.165463 218.058626 
L 172.121194 234.603368 
L 172.59906 239.162179 
L 173.076925 239.569424 
L 173.554791 244.70153 
L 174.032656 248.626959 
L 174.510522 263.934458 
L 174.988387 265.442871 
L 175.944118 272.766892 
L 176.899849 276.967612 
L 177.377715 274.256502 
L 177.85558 278.102104 
L 178.333446 280.352998 
L 178.811312 286.435957 
L 179.289177 284.521227 
L 179.767043 286.773096 
L 180.244908 291.096307 
L 181.200639 280.371903 
L 181.678505 285.354025 
L 182.15637 284.47597 
L 182.634236 282.621054 
L 183.112101 283.137713 
L 183.589967 280.638065 
L 184.067832 273.572954 
L 185.023563 264.124909 
L 185.501429 263.939534 
L 186.45716 259.964868 
L 186.935026 260.741319 
L 187.890757 256.956169 
L 188.368622 254.342699 
L 188.846488 252.524573 
L 189.324353 244.774895 
L 190.280084 237.440603 
L 190.75795 232.328539 
L 191.235815 228.561934 
L 191.713681 230.254821 
L 192.191546 224.444567 
L 192.669412 215.495418 
L 193.147277 214.970695 
L 193.625143 214.724514 
L 194.103009 213.320291 
L 194.580874 217.114557 
L 195.536605 226.117787 
L 196.014471 227.00446 
L 196.970202 219.658125 
L 197.448067 212.526932 
L 197.925933 209.226542 
L 198.403798 210.124614 
L 199.359529 204.649817 
L 199.837395 203.497509 
L 200.31526 184.724694 
L 202.704588 151.652603 
L 205.571781 142.817115 
L 207.483243 136.51548 
L 209.394705 134.376253 
L 210.828302 132.445403 
L 212.261899 130.095265 
L 214.651226 117.795496 
L 217.040554 104.277441 
L 219.429882 100.799797 
L 221.819209 97.813093 
L 226.597865 84.408649 
L 228.987192 73.348757 
L 233.765848 52.827764 
L 240.93383 24.373431 
L 242.367427 24.157609 
L 243.801024 24.216435 
L 245.23462 24.518205 
L 246.668217 25.023914 
L 248.579679 25.959855 
L 250.491141 27.137669 
L 252.880469 28.873644 
L 255.747662 31.246429 
L 259.570586 34.744764 
L 264.827107 39.921205 
L 274.862283 49.881996 
L 281.074535 55.718388 
L 286.808921 60.800183 
L 293.499039 66.397735 
L 298.75556 70.503237 
L 304.01208 74.333377 
L 309.268601 77.890211 
L 312.61366 80.01263 
L 314.047257 82.289771 
L 315.480853 84.195839 
L 316.91445 85.794739 
L 318.825912 87.55573 
L 320.737374 88.992908 
L 322.648836 90.185619 
L 325.038164 91.416778 
L 327.905357 92.611905 
L 331.250416 93.725104 
L 335.07334 94.734647 
L 339.37413 95.63538 
L 344.630651 96.501504 
L 351.320768 97.353758 
L 358.966616 98.089114 
L 369.001793 98.79235 
L 382.382027 99.494841 
L 401.974514 100.271469 
L 425.867791 101.009526 
L 432.080043 101.170784 
L 432.080043 101.170784 
" clip-path="url(#p413060516a)" style="fill: none; stroke: #9467bd; stroke-width: 1.5; stroke-linecap: square"/>
   </g>
   <g id="patch_2">
    <path d="M 55.760938 304.44375 
L 55.760938 10.8 
" style="fill: none; stroke: #000000; stroke-width: 0.8; stroke-linejoin: miter; stroke-linecap: square"/>
   </g>
   <g id="patch_3">
    <path d="M 450 304.44375 
L 450 10.8 
" style="fill: none; stroke: #000000; stroke-width: 0.8; stroke-linejoin: miter; stroke-linecap: square"/>
   </g>
   <g id="patch_4">
    <path d="M 55.760938 304.44375 
L 450 304.44375 
" style="fill: none; stroke: #000000; stroke-width: 0.8; stroke-linejoin: miter; stroke-linecap: square"/>
   </g>
   <g id="patch_5">
    <path d="M 55.760938 10.8 
L 450 10.8 
" style="fill: none; stroke: #000000; stroke-width: 0.8; stroke-linejoin: miter; stroke-linecap: square"/>
   </g>
   <g id="legend_1">
    <g id="patch_6">
     <path d="M 62.760938 299.44375 
L 130.615625 299.44375 
Q 132.615625 299.44375 132.615625 297.44375 
L 132.615625 225.053125 
Q 132.615625 223.053125 130.615625 223.053125 
L 62.760938 223.053125 
Q 60.760938 223.053125 60.760938 225.053125 
L 60.760938 297.44375 
Q 60.760938 299.44375 62.760938 299.44375 
z
" style="fill: #ffffff; opacity: 0.8; stroke: #cccccc; stroke-linejoin: miter"/>
    </g>
    <g id="line2d_23">
     <path d="M 64.760938 231.151562 
L 74.760938 231.151562 
L 84.760938 231.151562 
" style="fill: none; stroke: #1f77b4; stroke-width: 1.5; stroke-linecap: square"/>
    </g>
    <g id="text_20">
     <!-- ssp119 -->
     <g transform="translate(92.760938 234.651562) scale(0.1 -0.1)">
      <defs>
       <path id="DejaVuSans-73" d="M 2834 3397 
L 2834 2853 
Q 2591 2978 2328 3040 
Q 2066 3103 1784 3103 
Q 1356 3103 1142 2972 
Q 928 2841 928 2578 
Q 928 2378 1081 2264 
Q 1234 2150 1697 2047 
L 1894 2003 
Q 2506 1872 2764 1633 
Q 3022 1394 3022 966 
Q 3022 478 2636 193 
Q 2250 -91 1575 -91 
Q 1294 -91 989 -36 
Q 684 19 347 128 
L 347 722 
Q 666 556 975 473 
Q 1284 391 1588 391 
Q 1994 391 2212 530 
Q 2431 669 2431 922 
Q 2431 1156 2273 1281 
Q 2116 1406 1581 1522 
L 1381 1569 
Q 847 1681 609 1914 
Q 372 2147 372 2553 
Q 372 3047 722 3315 
Q 1072 3584 1716 3584 
Q 2034 3584 2315 3537 
Q 2597 3491 2834 3397 
z
" transform="scale(0.015625)"/>
      </defs>
      <use xlink:href="#DejaVuSans-73"/>
      <use xlink:href="#DejaVuSans-73" x="52.099609"/>
      <use xlink:href="#DejaVuSans-70" x="104.199219"/>
      <use xlink:href="#DejaVuSans-31" x="167.675781"/>
      <use xlink:href="#DejaVuSans-31" x="231.298828"/>
      <use xlink:href="#DejaVuSans-39" x="294.921875"/>
     </g>
    </g>
    <g id="line2d_24">
     <path d="M 64.760938 245.829687 
L 74.760938 245.829687 
L 84.760938 245.829687 
" style="fill: none; stroke: #ff7f0e; stroke-width: 1.5; stroke-linecap: square"/>
    </g>
    <g id="text_21">
     <!-- ssp245 -->
     <g transform="translate(92.760938 249.329687) scale(0.1 -0.1)">
      <use xlink:href="#DejaVuSans-73"/>
      <use xlink:href="#DejaVuSans-73" x="52.099609"/>
      <use xlink:href="#DejaVuSans-70" x="104.199219"/>
      <use xlink:href="#DejaVuSans-32" x="167.675781"/>
      <use xlink:href="#DejaVuSans-34" x="231.298828"/>
      <use xlink:href="#DejaVuSans-35" x="294.921875"/>
     </g>
    </g>
    <g id="line2d_25">
     <path d="M 64.760938 260.507812 
L 74.760938 260.507812 
L 84.760938 260.507812 
" style="fill: none; stroke: #2ca02c; stroke-width: 1.5; stroke-linecap: square"/>
    </g>
    <g id="text_22">
     <!-- ssp370 -->
     <g transform="translate(92.760938 264.007812) scale(0.1 -0.1)">
      <defs>
       <path id="DejaVuSans-37" d="M 525 4666 
L 3525 4666 
L 3525 4397 
L 1831 0 
L 1172 0 
L 2766 4134 
L 525 4134 
L 525 4666 
z
" transform="scale(0.015625)"/>
      </defs>
      <use xlink:href="#DejaVuSans-73"/>
      <use xlink:href="#DejaVuSans-73" x="52.099609"/>
      <use xlink:href="#DejaVuSans-70" x="104.199219"/>
      <use xlink:href="#DejaVuSans-33" x="167.675781"/>
      <use xlink:href="#DejaVuSans-37" x="231.298828"/>
      <use xlink:href="#DejaVuSans-30" x="294.921875"/>
     </g>
    </g>
    <g id="line2d_26">
     <path d="M 64.760938 275.185937 
L 74.760938 275.185937 
L 84.760938 275.185937 
" style="fill: none; stroke: #d62728; stroke-width: 1.5; stroke-linecap: square"/>
    </g>
    <g id="text_23">
     <!-- ssp460 -->
     <g transform="translate(92.760938 278.685937) scale(0.1 -0.1)">
      <use xlink:href="#DejaVuSans-73"/>
      <use xlink:href="#DejaVuSans-73" x="52.099609"/>
      <use xlink:href="#DejaVuSans-70" x="104.199219"/>
      <use xlink:href="#DejaVuSans-34" x="167.675781"/>
      <use xlink:href="#DejaVuSans-36" x="231.298828"/>
      <use xlink:href="#DejaVuSans-30" x="294.921875"/>
     </g>
    </g>
    <g id="line2d_27">
     <path d="M 64.760938 289.864062 
L 74.760938 289.864062 
L 84.760938 289.864062 
" style="fill: none; stroke: #9467bd; stroke-width: 1.5; stroke-linecap: square"/>
    </g>
    <g id="text_24">
     <!-- ssp585 -->
     <g transform="translate(92.760938 293.364062) scale(0.1 -0.1)">
      <use xlink:href="#DejaVuSans-73"/>
      <use xlink:href="#DejaVuSans-73" x="52.099609"/>
      <use xlink:href="#DejaVuSans-70" x="104.199219"/>
      <use xlink:href="#DejaVuSans-35" x="167.675781"/>
      <use xlink:href="#DejaVuSans-38" x="231.298828"/>
      <use xlink:href="#DejaVuSans-35" x="294.921875"/>
     </g>
    </g>
   </g>
  </g>
 </g>
 <defs>
  <clipPath id="p413060516a">
   <rect x="55.760938" y="10.8" width="394.239062" height="293.64375"/>
  </clipPath>
 </defs>
</svg>
